0
SECTION
2
HEADER
9
$INSUNITS
70
4
9
$ACADVER
1
AC1014
9
$HANDSEED
5
FFFF
0
ENDSEC
0
SECTION
2
TABLES
0
TABLE
2
VPORT
5
8
100
AcDbSymbolTable
0
ENDTAB
0
TABLE
2
LTYPE
5
5
100
AcDbSymbolTable
0
LTYPE
5
14
100
AcDbSymbolTableRecord
100
AcDbLinetypeTableRecord
2
BYBLOCK
70
0
0
LTYPE
5
15
100
AcDbSymbolTableRecord
100
AcDbLinetypeTableRecord
2
BYLAYER
70
0
0
ENDTAB
0
TABLE
2
LAYER
5
2
100
AcDbSymbolTable
70
2
0
LAYER
5
50
100
AcDbSymbolTableRecord
100
AcDbLayerTableRecord
2
0
70
0
6
CONTINUOUS
0
ENDTAB
0
TABLE
2
STYLE
5
3
100
AcDbSymbolTable
70
1
0
STYLE
5
11
100
AcDbSymbolTableRecord
100
AcDbTextStyleTableRecord
2
STANDARD
70
0
0
ENDTAB
0
TABLE
2
VIEW
5
6
100
AcDbSymbolTable
70
0
0
ENDTAB
0
TABLE
2
UCS
5
7
100
AcDbSymbolTable
70
0
0
ENDTAB
0
TABLE
2
APPID
5
9
100
AcDbSymbolTable
70
2
0
APPID
5
12
100
AcDbSymbolTableRecord
100
AcDbRegAppTableRecord
2
ACAD
70
0
0
ENDTAB
0
TABLE
2
DIMSTYLE
5
A
100
AcDbSymbolTable
70
1
0
ENDTAB
0
TABLE
2
BLOCK_RECORD
5
1
100
AcDbSymbolTable
70
1
0
BLOCK_RECORD
5
1F
100
AcDbSymbolTableRecord
100
AcDbBlockTableRecord
2
*MODEL_SPACE
0
BLOCK_RECORD
5
1B
100
AcDbSymbolTableRecord
100
AcDbBlockTableRecord
2
*PAPER_SPACE
0
ENDTAB
0
ENDSEC
0
SECTION
2
BLOCKS
0
BLOCK
5
20
100
AcDbEntity
100
AcDbBlockBegin
2
*MODEL_SPACE
0
ENDBLK
5
21
100
AcDbEntity
100
AcDbBlockEnd
0
BLOCK
5
1C
100
AcDbEntity
100
AcDbBlockBegin
2
*PAPER_SPACE
0
ENDBLK
5
1D
100
AcDbEntity
100
AcDbBlockEnd
0
ENDSEC
0
SECTION
2
ENTITIES
0
LINE
5
100
100
AcDbEntity
8
0
100
AcDbLine
10
0
20
-10
30
0
11
0
21
10
31
0
0
LINE
5
101
100
AcDbEntity
8
0
100
AcDbLine
10
2
20
-3.7290404372801733
30
0
11
2
21
4.4209595627198262
31
0
0
LINE
5
102
100
AcDbEntity
8
0
100
AcDbLine
10
2
20
4.4209595627198262
30
0
11
3.5000000000000004
21
4.4209595627198262
31
0
0
LINE
5
103
100
AcDbEntity
8
0
100
AcDbLine
10
3.8500000000000001
20
-5.5790404372801738
30
0
11
6.0766502103526658
21
-5.5790404372801738
31
0
0
LINE
5
104
100
AcDbEntity
8
0
100
AcDbLine
10
3.5000000000000004
20
4.4209595627198262
30
0
11
3.5000000000000004
21
-5.2290404372801733
31
0
0
LINE
5
105
100
AcDbEntity
8
0
100
AcDbLine
10
7.5
20
-4.3954222563407637
30
0
11
7.5
21
-3.7632833422059315
31
0
0
LINE
5
106
100
AcDbEntity
8
0
100
AcDbLine
10
5.4260647163110658
20
-2.5790404372781324
30
0
11
3.5000000000000004
21
-2.5790404372801734
31
0
0
LINE
5
107
100
AcDbEntity
8
0
100
AcDbLine
10
3.5000000000000004
20
4.4209595627198262
30
0
11
5
21
4.4209595627198262
31
0
0
LINE
5
108
100
AcDbEntity
8
0
100
AcDbLine
10
5
20
4.4209595627198262
30
0
11
5
21
1.9209595627198262
31
0
0
LINE
5
109
100
AcDbEntity
8
0
100
AcDbLine
10
5
20
1.9209595627198262
30
0
11
3.3306687230407062
21
1.9209595627198262
31
0
0
ARC
5
110
100
AcDbEntity
8
0
100
AcDbCircle
10
6.0333585026126357
20
-4.079352799273348
30
0
40
1.5003123619931751
210
-0
220
0
230
1
100
AcDbArc
50
-88.346493342156549
51
40.950478626024392
0
SPLINE
5
111
100
AcDbEntity
8
0
100
AcDbSpline
70
4
71
5
72
17
73
11
74
0
42
0.000000001
43
0.0000000001
44
0.0000000001
40
0
40
0
40
0
40
0
40
0
40
0
40
0.10000000000000001
40
0.20000000000000001
40
0.30000000000000004
40
0.40000000000000002
40
0.5
40
0.52065440687364672
40
0.52065440687364672
40
0.52065440687364672
40
0.52065440687364672
40
0.52065440687364672
40
0.52065440687364672
41
1
41
1
41
1
41
1
41
1
41
1
41
1
41
1
41
1
41
1
41
1
10
7.1665089281966887
20
-3.0960383548822268
30
0
10
6.9330276034468499
20
-3.0417250240410612
30
0
10
6.4823555699241773
20
-2.9291551722779814
30
0
10
5.8552166117219242
20
-2.7484714914523014
30
0
10
5.1184013288758914
20
-2.4835071262455681
30
0
10
4.3745138739702361
20
-2.1094264487546175
30
0
10
3.911872647332872
20
-1.7552065735307685
30
0
10
3.6679330705712991
20
-1.4588774916231573
30
0
10
3.5537698822673431
20
-1.241963816297128
30
0
10
3.5074616183900935
20
-1.1194538146079807
30
0
10
3.500006623124452
20
-1.0983674200990605
30
0
0
SPLINE
5
112
100
AcDbEntity
8
0
100
AcDbSpline
70
4
71
5
72
15
73
9
74
0
42
0.000000001
43
0.0000000001
44
0.0000000001
40
0.68571793297467865
40
0.68571793297467865
40
0.68571793297467865
40
0.68571793297467865
40
0.68571793297467865
40
0.68571793297467865
40
0.69999999999999996
40
0.79999999999999993
40
0.89999999999999991
40
1
40
1
40
1
40
1
40
1
40
1
41
1
41
1
41
1
41
1
41
1
41
1
41
1
41
1
41
1
10
3.5000000029208165
20
-0.18368474689963399
30
0
10
3.5050308810593043
20
-0.16663845758073312
30
0
10
3.5469705295742093
20
-0.029830143365156513
30
0
10
3.6507812269201882
20
0.23278238647442509
30
0
10
3.8703125422571336
20
0.63423357380757062
30
0
10
4.1829812493416103
20
1.0582289325715453
30
0
10
4.5610371712035125
20
1.4822229023380018
30
0
10
4.8478784178498184
20
1.7733099479849443
30
0
10
5
20
1.9209595627198262
30
0
0
LINE
5
113
100
AcDbEntity
8
0
100
AcDbLine
10
3.8500000000000001
20
-5.5790404372801738
30
0
11
9.2987914462328902
21
-5.5790404372801738
31
0
0
LINE
5
114
100
AcDbEntity
8
0
100
AcDbLine
10
3.8500000000000001
20
-5.5790404372801738
30
0
11
2
21
-3.7290404372801733
31
0
0
LINE
5
115
100
AcDbEntity
8
0
100
AcDbLine
10
0
20
-1.7290404372801726
30
0
11
-0.0028773809025317565
21
-1.7261630563776413
31
0
0
ENDSEC
0
SECTION
2
OBJECTS
0
DICTIONARY
5
C
100
AcDbDictionary
3
ACAD_GROUP
350
D
3
ACAD_MLINESTYLE
350
17
0
DICTIONARY
5
D
100
AcDbDictionary
0
DICTIONARY
5
1A
330
C
100
AcDbDictionary
0
DICTIONARY
5
17
100
AcDbDictionary
0
ENDSEC
0
EOF
