                                                                        S      1
,,18Hqcx_pushbuttons v5,17Hqcxpushbuttons v5,7Hunknown,7Hunknown,32,38, G      1
7,99,15,,1.,2,2HMM,1,0.08,15H20230101.152058,0.01,10000.,7Hunknown,7HunkG      2
nown,11,0,15H20211030.092940;                                           G      3
     186       1                                                00000000D      1
     186             -85       1       0                               0D      2
     514       2                                                00010000D      3
     514                       1       1                               0D      4
     510       3                                                00010000D      5
     510             -85       1       1                               0D      6
     510       4                                                00010000D      7
     510             -85       1       1                               0D      8
     510       5                                                00010000D      9
     510             -85       1       1                               0D     10
     510       6                                                00010000D     11
     510             -85       1       1                               0D     12
     510       7                                                00010000D     13
     510             -85       1       1                               0D     14
     510       8                                                00010000D     15
     510             -85       1       1                               0D     16
     510       9                                                00010000D     17
     510             -85       1       1                               0D     18
     510      10                                                00010000D     19
     510             -85       1       1                               0D     20
     508      11                                                00010000D     21
     508                       1       1                               0D     22
     508      12                                                00010000D     23
     508                       1       1                               0D     24
     508      13                                                00010000D     25
     508                       1       1                               0D     26
     508      14                                                00010000D     27
     508                       1       1                               0D     28
     508      15                                                00010000D     29
     508                       1       1                               0D     30
     508      16                                                00010000D     31
     508                       1       1                               0D     32
     508      17                                                00010000D     33
     508                       1       1                               0D     34
     508      18                                                00010000D     35
     508                       1       1                               0D     36
     508      19                                                00010000D     37
     508                       1       1                               0D     38
     508      20                                                00010000D     39
     508                       1       1                               0D     40
     126      21                                                00010000D     41
     126       0              10       0                               0D     42
     126      31                                                00010000D     43
     126       0               3       0                               0D     44
     126      34                                                00010000D     45
     126       0              10       0                               0D     46
     126      44                                                00010000D     47
     126       0               2       0                               0D     48
     126      46                                                00010000D     49
     126       0              10       0                               0D     50
     126      56                                                00010000D     51
     126       0              10       0                               0D     52
     126      66                                                00010000D     53
     126       0               3       0                               0D     54
     126      69                                                00010000D     55
     126       0              10       0                               0D     56
     126      79                                                00010000D     57
     126       0               9       0                               0D     58
     126      88                                                00010000D     59
     126       0              10       0                               0D     60
     126      98                                                00010000D     61
     126       0               2       0                               0D     62
     128     100                                                00010000D     63
     128       0     -85      16       0                               0D     64
     128     116                                                00010000D     65
     128       0     -85      12       0                               0D     66
     128     128                                                00010000D     67
     128       0     -85       3       0                               0D     68
     128     131                                                00010000D     69
     128       0     -85      13       0                               0D     70
     128     144                                                00010000D     71
     128       0     -85       3       0                               0D     72
     128     147                                                00010000D     73
     128       0     -85       3       0                               0D     74
     128     150                                                00010000D     75
     128       0     -85      12       0                               0D     76
     128     162                                                00010000D     77
     128       0     -85       3       0                               0D     78
     502     165                                                00010000D     79
     502                       4       1                               0D     80
     504     169                                                00010001D     81
     504                       3       1                               0D     82
     406     172                                                00000000D     83
     406                       1      15                               0D     84
     314     173                                                00000200D     85
     314                       2       0                               0D     86
186,3,1,0,0,1,83;                                                      1P      1
514,8,5,1,7,1,9,1,11,1,13,1,15,1,17,1,19,1;                            3P      2
510,63,1,1,21;                                                         5P      3
510,65,1,1,23;                                                         7P      4
510,67,1,1,25;                                                         9P      5
510,69,1,1,27;                                                        11P      6
510,71,1,1,29;                                                        13P      7
510,73,2,1,31,33;                                                     15P      8
510,75,1,1,35;                                                        17P      9
510,77,2,1,37,39;                                                     19P     10
508,4,0,81,1,1,0,0,81,2,1,0,0,81,3,1,0,0,81,2,0,0;                    21P     11
508,4,0,81,3,0,0,0,81,4,1,0,0,81,5,1,0,0,81,4,0,0;                    23P     12
508,1,0,81,1,0,0;                                                     25P     13
508,4,0,81,6,0,0,0,81,7,1,0,0,81,8,1,0,0,81,7,0,0;                    27P     14
508,1,0,81,8,0,0;                                                     29P     15
508,1,0,81,9,1,0;                                                     31P     16
508,1,0,81,5,0,0;                                                     33P     17
508,4,0,81,10,0,0,0,81,11,1,0,0,81,9,0,0,0,81,11,0,0;                 35P     18
508,1,0,81,10,1,0;                                                    37P     19
508,1,0,81,6,1,0;                                                     39P     20
126,8,2,0,1,0,0,-3.14159265358979,-3.14159265358979,                  41P     21
-3.14159265358979,-1.5707963267949,-1.5707963267949,0.,0.,            41P     22
1.5707963267949,1.5707963267949,3.14159265358979,                     41P     23
3.14159265358979,3.14159265358979,1.,0.707106781186548,1.,            41P     24
0.707106781186548,1.,0.707106781186548,1.,0.707106781186548,1.,       41P     25
-1.35,1.65327317884893D-16,8.,-1.35,1.35,8.,                          41P     26
8.26636589424463D-17,1.35,8.,1.35,1.35,8.,1.35,0.,8.,1.35,-1.35,      41P     27
8.,8.26636589424463D-17,-1.35,8.,-1.35,-1.35,8.,-1.35,                41P     28
-1.65327317884893D-16,8.,-3.14159265358979,3.14159265358979,0.,       41P     29
0.,0.;                                                                41P     30
126,2,2,0,0,0,0,-1.5707963267949,-1.5707963267949,                    43P     31
-1.5707963267949,0.,0.,0.,1.,0.707106781186547,1.,-1.35,0.,8.,        43P     32
-2.35,0.,8.,-2.35,0.,7.,-1.5707963267949,0.,0.,0.,0.;                 43P     33
126,8,2,0,1,0,0,-3.14159265358979,-3.14159265358979,                  45P     34
-3.14159265358979,-1.5707963267949,-1.5707963267949,0.,0.,            45P     35
1.5707963267949,1.5707963267949,3.14159265358979,                     45P     36
3.14159265358979,3.14159265358979,1.,0.707106781186548,1.,            45P     37
0.707106781186548,1.,0.707106781186548,1.,0.707106781186548,1.,       45P     38
-2.35,-2.87791997799628D-16,7.,-2.35,-2.35,7.,                        45P     39
1.43895998899814D-16,-2.35,7.,2.35,-2.35,7.,2.35,0.,7.,2.35,          45P     40
2.35,7.,1.43895998899814D-16,2.35,7.,-2.35,2.35,7.,-2.35,             45P     41
2.87791997799628D-16,7.,-3.14159265358979,3.14159265358979,0.,        45P     42
0.,0.;                                                                45P     43
126,1,1,0,0,1,0,-2.97872340425532,-2.97872340425532,0.,0.,1.,1.,      47P     44
-2.35,0.,7.,-2.35,0.,0.,-2.97872340425532,0.,0.,0.,0.;                47P     45
126,8,2,0,1,0,0,-3.14159265358979,-3.14159265358979,                  49P     46
-3.14159265358979,-1.5707963267949,-1.5707963267949,0.,0.,            49P     47
1.5707963267949,1.5707963267949,3.14159265358979,                     49P     48
3.14159265358979,3.14159265358979,1.,0.707106781186548,1.,            49P     49
0.707106781186548,1.,0.707106781186548,1.,0.707106781186548,1.,       49P     50
-2.35,-2.87791997799628D-16,0.,-2.35,-2.35,0.,                        49P     51
1.43895998899814D-16,-2.35,0.,2.35,-2.35,0.,2.35,0.,0.,2.35,          49P     52
2.35,0.,1.43895998899814D-16,2.35,0.,-2.35,2.35,0.,-2.35,             49P     53
2.87791997799628D-16,0.,-3.14159265358979,3.14159265358979,0.,        49P     54
0.,0.;                                                                49P     55
126,8,2,0,1,0,0,-3.14159265358979,-3.14159265358979,                  51P     56
-3.14159265358979,-1.5707963267949,-1.5707963267949,0.,0.,            51P     57
1.5707963267949,1.5707963267949,3.14159265358979,                     51P     58
3.14159265358979,3.14159265358979,1.,0.707106781186548,1.,            51P     59
0.707106781186548,1.,0.707106781186548,1.,0.707106781186548,1.,       51P     60
-1.9,-2.32682891837997D-16,-13.,-1.9,-1.9,-13.,                       51P     61
1.16341445918999D-16,-1.9,-13.,1.9,-1.9,-13.,1.9,0.,-13.,1.9,         51P     62
1.9,-13.,1.16341445918999D-16,1.9,-13.,-1.9,1.9,-13.,-1.9,            51P     63
2.32682891837997D-16,-13.,-3.14159265358979,3.14159265358979,0.,      51P     64
0.,0.;                                                                51P     65
126,1,1,0,0,1,0,1.05263157894737,1.05263157894737,                    53P     66
4.21052631578947,4.21052631578947,1.,1.,-1.9,0.,-13.,-1.9,0.,         53P     67
-7.,1.05263157894737,4.21052631578947,0.,0.,0.;                       53P     68
126,8,2,0,1,0,0,-3.14159265358979,-3.14159265358979,                  55P     69
-3.14159265358979,-1.5707963267949,-1.5707963267949,0.,0.,            55P     70
1.5707963267949,1.5707963267949,3.14159265358979,                     55P     71
3.14159265358979,3.14159265358979,1.,0.707106781186548,1.,            55P     72
0.707106781186548,1.,0.707106781186548,1.,0.707106781186548,1.,       55P     73
-1.9,-2.32682891837997D-16,-7.,-1.9,-1.9,-7.,                         55P     74
1.16341445918999D-16,-1.9,-7.,1.9,-1.9,-7.,1.9,0.,-7.,1.9,1.9,        55P     75
-7.,1.16341445918999D-16,1.9,-7.,-1.9,1.9,-7.,-1.9,                   55P     76
2.32682891837997D-16,-7.,-3.14159265358979,3.14159265358979,0.,       55P     77
0.,0.;                                                                55P     78
126,8,2,0,1,0,0,-3.14159265358979,-3.14159265358979,                  57P     79
-3.14159265358979,-1.5707963267949,-1.5707963267949,0.,0.,            57P     80
1.5707963267949,1.5707963267949,3.14159265358979,                     57P     81
3.14159265358979,3.14159265358979,1.,0.707106781186548,1.,            57P     82
0.707106781186548,1.,0.707106781186548,1.,0.707106781186548,1.,       57P     83
-3.5,-4.28626379701574D-16,0.,-3.5,-3.5,0.,2.14313189850787D-16,      57P     84
-3.5,0.,3.5,-3.5,0.,3.5,0.,0.,3.5,3.5,0.,2.14313189850787D-16,        57P     85
3.5,0.,-3.5,3.5,0.,-3.5,4.28626379701574D-16,0.,                      57P     86
-3.14159265358979,3.14159265358979,0.,0.,0.;                          57P     87
126,8,2,0,1,0,0,-3.14159265358979,-3.14159265358979,                  59P     88
-3.14159265358979,-1.5707963267949,-1.5707963267949,0.,0.,            59P     89
1.5707963267949,1.5707963267949,3.14159265358979,                     59P     90
3.14159265358979,3.14159265358979,1.,0.707106781186548,1.,            59P     91
0.707106781186548,1.,0.707106781186548,1.,0.707106781186548,1.,       59P     92
-3.5,4.28626379701574D-16,-13.,-3.5,3.5,-13.,                         59P     93
2.14313189850787D-16,3.5,-13.,3.5,3.5,-13.,3.5,0.,-13.,3.5,-3.5,      59P     94
-13.,2.14313189850787D-16,-3.5,-13.,-3.5,-3.5,-13.,-3.5,              59P     95
-4.28626379701574D-16,-13.,-3.14159265358979,3.14159265358979,        59P     96
0.,0.,0.;                                                             59P     97
126,1,1,0,0,1,0,-3.71428571428571,-3.71428571428571,0.,0.,1.,1.,      61P     98
-3.5,0.,-13.,-3.5,0.,0.,-3.71428571428571,0.,0.,0.,0.;                61P     99
128,2,8,2,2,0,1,0,0,1,0.,0.,0.,1.5707963267949,1.5707963267949,       63P    100
1.5707963267949,-3.14159265358979,-3.14159265358979,                  63P    101
-3.14159265358979,-1.5707963267949,-1.5707963267949,0.,0.,            63P    102
1.5707963267949,1.5707963267949,3.14159265358979,                     63P    103
3.14159265358979,3.14159265358979,1.,0.707106781186547,1.,            63P    104
0.707106781186548,0.5,0.707106781186548,1.,0.707106781186547,1.,      63P    105
0.707106781186548,0.5,0.707106781186548,1.,0.707106781186547,1.,      63P    106
0.707106781186548,0.5,0.707106781186548,1.,0.707106781186547,1.,      63P    107
0.707106781186548,0.5,0.707106781186548,1.,0.707106781186547,1.,      63P    108
-1.35,0.,8.,-2.35,0.,8.,-2.35,0.,7.,-1.35,-1.35,8.,-2.35,-2.35,       63P    109
8.,-2.35,-2.35,7.,0.,-1.35,8.,0.,-2.35,8.,0.,-2.35,7.,1.35,           63P    110
-1.35,8.,2.35,-2.35,8.,2.35,-2.35,7.,1.35,0.,8.,2.35,0.,8.,2.35,      63P    111
0.,7.,1.35,1.35,8.,2.35,2.35,8.,2.35,2.35,7.,0.,1.35,8.,0.,2.35,      63P    112
8.,0.,2.35,7.,-1.35,1.35,8.,-2.35,2.35,8.,-2.35,2.35,7.,-1.35,        63P    113
0.,8.,-2.35,0.,8.,-2.35,0.,7.,0.,1.5707963267949,                     63P    114
-3.14159265358979,3.14159265358979;                                   63P    115
128,1,8,1,2,0,1,0,0,1,0.,0.,2.97872340425532,2.97872340425532,        65P    116
-3.14159265358979,-3.14159265358979,-3.14159265358979,                65P    117
-1.5707963267949,-1.5707963267949,0.,0.,1.5707963267949,              65P    118
1.5707963267949,3.14159265358979,3.14159265358979,                    65P    119
3.14159265358979,1.,1.,0.707106781186548,0.707106781186548,1.,        65P    120
1.,0.707106781186548,0.707106781186548,1.,1.,0.707106781186548,       65P    121
0.707106781186548,1.,1.,0.707106781186548,0.707106781186548,1.,       65P    122
1.,-2.35,0.,7.,-2.35,0.,0.,-2.35,-2.35,7.,-2.35,-2.35,0.,0.,          65P    123
-2.35,7.,0.,-2.35,0.,2.35,-2.35,7.,2.35,-2.35,0.,2.35,0.,7.,          65P    124
2.35,0.,0.,2.35,2.35,7.,2.35,2.35,0.,0.,2.35,7.,0.,2.35,0.,           65P    125
-2.35,2.35,7.,-2.35,2.35,0.,-2.35,0.,7.,-2.35,0.,0.,0.,               65P    126
2.97872340425532,-3.14159265358979,3.14159265358979;                  65P    127
128,1,1,1,1,0,0,1,0,0,-0.136,-0.136,0.136,0.136,-0.136,-0.136,        67P    128
0.136,0.136,1.,1.,1.,1.,-1.36,-1.36,8.,1.36,-1.36,8.,-1.36,1.36,      67P    129
8.,1.36,1.36,8.,-0.136,0.136,-0.136,0.136;                            67P    130
128,1,8,1,2,0,1,0,0,1,1.05263157894737,1.05263157894737,              69P    131
4.21052631578947,4.21052631578947,-3.14159265358979,                  69P    132
-3.14159265358979,-3.14159265358979,-1.5707963267949,                 69P    133
-1.5707963267949,0.,0.,1.5707963267949,1.5707963267949,               69P    134
3.14159265358979,3.14159265358979,3.14159265358979,1.,1.,             69P    135
0.707106781186548,0.707106781186548,1.,1.,0.707106781186548,          69P    136
0.707106781186548,1.,1.,0.707106781186548,0.707106781186548,1.,       69P    137
1.,0.707106781186548,0.707106781186548,1.,1.,-1.9,0.,-13.,-1.9,       69P    138
0.,-7.,-1.9,-1.9,-13.,-1.9,-1.9,-7.,0.,-1.9,-13.,0.,-1.9,-7.,         69P    139
1.9,-1.9,-13.,1.9,-1.9,-7.,1.9,0.,-13.,1.9,0.,-7.,1.9,1.9,-13.,       69P    140
1.9,1.9,-7.,0.,1.9,-13.,0.,1.9,-7.,-1.9,1.9,-13.,-1.9,1.9,-7.,        69P    141
-1.9,0.,-13.,-1.9,0.,-7.,1.05263157894737,4.21052631578947,           69P    142
-3.14159265358979,3.14159265358979;                                   69P    143
128,1,1,1,1,0,0,1,0,0,-0.191,-0.191,0.191,0.191,-0.191,-0.191,        71P    144
0.191,0.191,1.,1.,1.,1.,1.91,-1.91,-7.,-1.91,-1.91,-7.,1.91,          71P    145
1.91,-7.,-1.91,1.91,-7.,-0.191,0.191,-0.191,0.191;                    71P    146
128,1,1,1,1,0,0,1,0,0,-0.351,-0.351,0.351,0.351,-0.351,-0.351,        73P    147
0.351,0.351,1.,1.,1.,1.,-3.51,-3.51,0.,3.51,-3.51,0.,-3.51,3.51,      73P    148
0.,3.51,3.51,0.,-0.351,0.351,-0.351,0.351;                            73P    149
128,1,8,1,2,0,1,0,0,1,0.,0.,3.71428571428571,3.71428571428571,        75P    150
-3.14159265358979,-3.14159265358979,-3.14159265358979,                75P    151
-1.5707963267949,-1.5707963267949,0.,0.,1.5707963267949,              75P    152
1.5707963267949,3.14159265358979,3.14159265358979,                    75P    153
3.14159265358979,1.,1.,0.707106781186548,0.707106781186548,1.,        75P    154
1.,0.707106781186548,0.707106781186548,1.,1.,0.707106781186548,       75P    155
0.707106781186548,1.,1.,0.707106781186548,0.707106781186548,1.,       75P    156
1.,-3.5,0.,-13.,-3.5,0.,0.,-3.5,3.5,-13.,-3.5,3.5,0.,0.,3.5,          75P    157
-13.,0.,3.5,0.,3.5,3.5,-13.,3.5,3.5,0.,3.5,0.,-13.,3.5,0.,0.,         75P    158
3.5,-3.5,-13.,3.5,-3.5,0.,0.,-3.5,-13.,0.,-3.5,0.,-3.5,-3.5,          75P    159
-13.,-3.5,-3.5,0.,-3.5,0.,-13.,-3.5,0.,0.,0.,3.71428571428571,        75P    160
-3.14159265358979,3.14159265358979;                                   75P    161
128,1,1,1,1,0,0,1,0,0,-0.351,-0.351,0.351,0.351,-0.351,-0.351,        77P    162
0.351,0.351,1.,1.,1.,1.,3.51,-3.51,-13.,-3.51,-3.51,-13.,3.51,        77P    163
3.51,-13.,-3.51,3.51,-13.,-0.351,0.351,-0.351,0.351;                  77P    164
502,7,-1.35,1.65327317884893D-16,8.,-2.35,-2.87791997799628D-16,      79P    165
7.,-2.35,-2.87791997799628D-16,0.,-1.9,-2.32682891837997D-16,         79P    166
-13.,-1.9,-2.32682891837997D-16,-7.,-3.5,-4.28626379701574D-16,       79P    167
0.,-3.5,-4.28626379701574D-16,-13.;                                   79P    168
504,11,41,79,1,79,1,43,79,1,79,2,45,79,2,79,2,47,79,2,79,3,49,        81P    169
79,3,79,3,51,79,4,79,4,53,79,4,79,5,55,79,5,79,5,57,79,6,79,6,        81P    170
59,79,7,79,7,61,79,7,79,6;                                            81P    171
406,1,5HBody1;                                                        83P    172
314,62.7450980392157,62.7450980392157,62.7450980392157,13HSteel       85P    173
- Satin;                                                              85P    174
S      1G      3D     86P    174                                        T      1
