                                                                        S      1
,,25Hframe_holder_8000f_120 v5,22Hframeholder8000f120 v5,7Hunknown,7HunkG      1
nown,32,38,7,99,15,,1.,2,2HMM,1,0.08,15H20230101.151952,0.01,10000.,7HunG      2
known,7Hunknown,11,0,15H20221211.134945;                                G      3
     186       1                                                00000000D      1
     186            -293       1       0                               0D      2
     186       2                                                00000000D      3
     186            -293       1       0                               0D      4
     514       3                                                00010000D      5
     514                       1       1                               0D      6
     514       4                                                00010000D      7
     514                       2       1                               0D      8
     510       6                                                00010000D      9
     510            -293       1       1                               0D     10
     510       7                                                00010000D     11
     510            -293       1       1                               0D     12
     510       8                                                00010000D     13
     510            -293       1       1                               0D     14
     510       9                                                00010000D     15
     510            -293       1       1                               0D     16
     510      10                                                00010000D     17
     510            -293       1       1                               0D     18
     510      11                                                00010000D     19
     510            -293       1       1                               0D     20
     510      12                                                00010000D     21
     510            -293       1       1                               0D     22
     510      13                                                00010000D     23
     510            -293       1       1                               0D     24
     510      14                                                00010000D     25
     510            -293       1       1                               0D     26
     510      15                                                00010000D     27
     510            -293       1       1                               0D     28
     510      16                                                00010000D     29
     510            -293       1       1                               0D     30
     510      17                                                00010000D     31
     510            -293       1       1                               0D     32
     510      18                                                00010000D     33
     510            -293       1       1                               0D     34
     510      19                                                00010000D     35
     510            -293       1       1                               0D     36
     510      20                                                00010000D     37
     510            -293       1       1                               0D     38
     510      21                                                00010000D     39
     510            -293       1       1                               0D     40
     510      22                                                00010000D     41
     510            -293       1       1                               0D     42
     510      23                                                00010000D     43
     510            -293       1       1                               0D     44
     510      24                                                00010000D     45
     510            -293       1       1                               0D     46
     510      25                                                00010000D     47
     510            -293       1       1                               0D     48
     510      26                                                00010000D     49
     510            -293       1       1                               0D     50
     510      27                                                00010000D     51
     510            -293       1       1                               0D     52
     510      28                                                00010000D     53
     510            -293       1       1                               0D     54
     510      29                                                00010000D     55
     510            -293       1       1                               0D     56
     508      30                                                00010000D     57
     508                       1       1                               0D     58
     508      31                                                00010000D     59
     508                       1       1                               0D     60
     508      32                                                00010000D     61
     508                       1       1                               0D     62
     508      33                                                00010000D     63
     508                       1       1                               0D     64
     508      34                                                00010000D     65
     508                       1       1                               0D     66
     508      35                                                00010000D     67
     508                       1       1                               0D     68
     508      36                                                00010000D     69
     508                       1       1                               0D     70
     508      37                                                00010000D     71
     508                       1       1                               0D     72
     508      38                                                00010000D     73
     508                       1       1                               0D     74
     508      39                                                00010000D     75
     508                       1       1                               0D     76
     508      40                                                00010000D     77
     508                       1       1                               0D     78
     508      41                                                00010000D     79
     508                       1       1                               0D     80
     508      42                                                00010000D     81
     508                       1       1                               0D     82
     508      43                                                00010000D     83
     508                       1       1                               0D     84
     508      44                                                00010000D     85
     508                       2       1                               0D     86
     508      46                                                00010000D     87
     508                       1       1                               0D     88
     508      47                                                00010000D     89
     508                       1       1                               0D     90
     508      48                                                00010000D     91
     508                       1       1                               0D     92
     508      49                                                00010000D     93
     508                       1       1                               0D     94
     508      50                                                00010000D     95
     508                       1       1                               0D     96
     508      51                                                00010000D     97
     508                       1       1                               0D     98
     508      52                                                00010000D     99
     508                       1       1                               0D    100
     508      53                                                00010000D    101
     508                       1       1                               0D    102
     508      54                                                00010000D    103
     508                       1       1                               0D    104
     508      55                                                00010000D    105
     508                       1       1                               0D    106
     508      56                                                00010000D    107
     508                       1       1                               0D    108
     508      57                                                00010000D    109
     508                       2       1                               0D    110
     508      59                                                00010000D    111
     508                       1       1                               0D    112
     126      60                                                00010000D    113
     126       0               2       0                               0D    114
     126      62                                                00010000D    115
     126       0               2       0                               0D    116
     126      64                                                00010000D    117
     126       0               2       0                               0D    118
     126      66                                                00010000D    119
     126       0               2       0                               0D    120
     126      68                                                00010000D    121
     126       0               2       0                               0D    122
     126      70                                                00010000D    123
     126       0               2       0                               0D    124
     126      72                                                00010000D    125
     126       0               2       0                               0D    126
     126      74                                                00010000D    127
     126       0               2       0                               0D    128
     126      76                                                00010000D    129
     126       0               2       0                               0D    130
     126      78                                                00010000D    131
     126       0               2       0                               0D    132
     126      80                                                00010000D    133
     126       0               2       0                               0D    134
     126      82                                                00010000D    135
     126       0               2       0                               0D    136
     126      84                                                00010000D    137
     126       0               2       0                               0D    138
     126      86                                                00010000D    139
     126       0               2       0                               0D    140
     126      88                                                00010000D    141
     126       0               2       0                               0D    142
     126      90                                                00010000D    143
     126       0               2       0                               0D    144
     126      92                                                00010000D    145
     126       0               2       0                               0D    146
     126      94                                                00010000D    147
     126       0               2       0                               0D    148
     126      96                                                00010000D    149
     126       0               2       0                               0D    150
     126      98                                                00010000D    151
     126       0               2       0                               0D    152
     126     100                                                00010000D    153
     126       0               2       0                               0D    154
     126     102                                                00010000D    155
     126       0               2       0                               0D    156
     126     104                                                00010000D    157
     126       0               2       0                               0D    158
     126     106                                                00010000D    159
     126       0               2       0                               0D    160
     126     108                                                00010000D    161
     126       0               5       0                               0D    162
     126     113                                                00010000D    163
     126       0               2       0                               0D    164
     126     115                                                00010000D    165
     126       0               5       0                               0D    166
     126     120                                                00010000D    167
     126       0               2       0                               0D    168
     126     122                                                00010000D    169
     126       0               2       0                               0D    170
     126     124                                                00010000D    171
     126       0               2       0                               0D    172
     126     126                                                00010000D    173
     126       0               2       0                               0D    174
     126     128                                                00010000D    175
     126       0               3       0                               0D    176
     126     131                                                00010000D    177
     126       0               6       0                               0D    178
     126     137                                                00010000D    179
     126       0               3       0                               0D    180
     126     140                                                00010000D    181
     126       0               6       0                               0D    182
     126     146                                                00010000D    183
     126       0               3       0                               0D    184
     126     149                                                00010000D    185
     126       0               5       0                               0D    186
     126     154                                                00010000D    187
     126       0               2       0                               0D    188
     126     156                                                00010000D    189
     126       0               2       0                               0D    190
     126     158                                                00010000D    191
     126       0               2       0                               0D    192
     126     160                                                00010000D    193
     126       0               2       0                               0D    194
     126     162                                                00010000D    195
     126       0               2       0                               0D    196
     126     164                                                00010000D    197
     126       0               6       0                               0D    198
     126     170                                                00010000D    199
     126       0               2       0                               0D    200
     126     172                                                00010000D    201
     126       0               3       0                               0D    202
     126     175                                                00010000D    203
     126       0               2       0                               0D    204
     126     177                                                00010000D    205
     126       0               6       0                               0D    206
     126     183                                                00010000D    207
     126       0               2       0                               0D    208
     126     185                                                00010000D    209
     126       0               2       0                               0D    210
     126     187                                                00010000D    211
     126       0               5       0                               0D    212
     126     192                                                00010000D    213
     126       0               2       0                               0D    214
     126     194                                                00010000D    215
     126       0               2       0                               0D    216
     126     196                                                00010000D    217
     126       0               2       0                               0D    218
     126     198                                                00010000D    219
     126       0               2       0                               0D    220
     126     200                                                00010000D    221
     126       0               2       0                               0D    222
     126     202                                                00010000D    223
     126       0               2       0                               0D    224
     126     204                                                00010000D    225
     126       0               2       0                               0D    226
     126     206                                                00010000D    227
     126       0               2       0                               0D    228
     126     208                                                00010000D    229
     126       0               3       0                               0D    230
     126     211                                                00010000D    231
     126       0               3       0                               0D    232
     128     214                                                00010000D    233
     128       0    -293       3       0                               0D    234
     128     217                                                00010000D    235
     128       0    -293       3       0                               0D    236
     128     220                                                00010000D    237
     128       0    -293       3       0                               0D    238
     128     223                                                00010000D    239
     128       0    -293       3       0                               0D    240
     128     226                                                00010000D    241
     128       0    -293       3       0                               0D    242
     128     229                                                00010000D    243
     128       0    -293       3       0                               0D    244
     128     232                                                00010000D    245
     128       0    -293       3       0                               0D    246
     128     235                                                00010000D    247
     128       0    -293       3       0                               0D    248
     128     238                                                00010000D    249
     128       0    -293       3       0                               0D    250
     128     241                                                00010000D    251
     128       0    -293       3       0                               0D    252
     128     244                                                00010000D    253
     128       0    -293       6       0                               0D    254
     128     250                                                00010000D    255
     128       0    -293       3       0                               0D    256
     128     253                                                00010000D    257
     128       0    -293       4       0                               0D    258
     128     257                                                00010000D    259
     128       0    -293       8       0                               0D    260
     128     265                                                00010000D    261
     128       0    -293       4       0                               0D    262
     128     269                                                00010000D    263
     128       0    -293       8       0                               0D    264
     128     277                                                00010000D    265
     128       0    -293       6       0                               0D    266
     128     283                                                00010000D    267
     128       0    -293       3       0                               0D    268
     128     286                                                00010000D    269
     128       0    -293       3       0                               0D    270
     128     289                                                00010000D    271
     128       0    -293       3       0                               0D    272
     128     292                                                00010000D    273
     128       0    -293       3       0                               0D    274
     128     295                                                00010000D    275
     128       0    -293       4       0                               0D    276
     128     299                                                00010000D    277
     128       0    -293       5       0                               0D    278
     128     304                                                00010000D    279
     128       0    -293       4       0                               0D    280
     502     308                                                00010000D    281
     502                       4       1                               0D    282
     502     312                                                00010000D    283
     502                       8       1                               0D    284
     504     320                                                00010001D    285
     504                       7       1                               0D    286
     504     327                                                00010001D    287
     504                      10       1                               0D    288
     406     337                                                00000000D    289
     406                       1      15                               0D    290
     406     338                                                00000000D    291
     406                       1      15                               0D    292
     314     339                                                00000200D    293
     314                       2       0                               0D    294
186,5,1,0,0,1,289;                                                     1P      1
186,7,1,0,0,1,291;                                                     3P      2
514,10,9,1,11,1,13,1,15,1,17,1,19,1,21,1,23,1,25,1,27,1;               5P      3
514,14,29,1,31,1,33,1,35,1,37,1,39,1,41,1,43,1,45,1,47,1,49,1,         7P      4
51,1,53,1,55,1;                                                        7P      5
510,233,1,1,57;                                                        9P      6
510,235,1,1,59;                                                       11P      7
510,237,1,1,61;                                                       13P      8
510,239,1,1,63;                                                       15P      9
510,241,1,1,65;                                                       17P     10
510,243,1,1,67;                                                       19P     11
510,245,1,1,69;                                                       21P     12
510,247,1,1,71;                                                       23P     13
510,249,2,1,73,75;                                                    25P     14
510,251,2,1,77,79;                                                    27P     15
510,253,1,1,81;                                                       29P     16
510,255,1,1,83;                                                       31P     17
510,257,2,1,85,87;                                                    33P     18
510,259,1,1,89;                                                       35P     19
510,261,1,1,91;                                                       37P     20
510,263,1,1,93;                                                       39P     21
510,265,1,1,95;                                                       41P     22
510,267,1,1,97;                                                       43P     23
510,269,1,1,99;                                                       45P     24
510,271,1,1,101;                                                      47P     25
510,273,1,1,103;                                                      49P     26
510,275,1,1,105;                                                      51P     27
510,277,1,1,107;                                                      53P     28
510,279,2,1,109,111;                                                  55P     29
508,4,0,285,1,1,0,0,285,2,1,0,0,285,3,0,0,0,285,4,0,0;                57P     30
508,4,0,285,5,1,0,0,285,4,1,0,0,285,6,0,0,0,285,7,0,0;                59P     31
508,4,0,285,8,1,0,0,285,7,1,0,0,285,9,0,0,0,285,10,0,0;               61P     32
508,4,0,285,11,1,0,0,285,10,1,0,0,285,12,0,0,0,285,2,0,0;             63P     33
508,4,0,285,13,0,0,0,285,14,1,0,0,285,15,0,0,0,285,16,0,0;            65P     34
508,4,0,285,17,0,0,0,285,16,1,0,0,285,18,0,0,0,285,19,0,0;            67P     35
508,4,0,285,20,1,0,0,285,19,1,0,0,285,21,0,0,0,285,22,0,0;            69P     36
508,4,0,285,23,1,0,0,285,22,1,0,0,285,24,0,0,0,285,14,0,0;            71P     37
508,4,0,285,24,1,0,0,285,21,1,0,0,285,18,1,0,0,285,15,1,0;            73P     38
508,4,0,285,12,1,0,0,285,9,1,0,0,285,6,1,0,0,285,3,1,0;               75P     39
508,4,0,285,23,0,0,0,285,13,1,0,0,285,17,1,0,0,285,20,0,0;            77P     40
508,4,0,285,11,0,0,0,285,1,0,0,0,285,5,0,0,0,285,8,0,0;               79P     41
508,4,0,287,1,1,0,0,287,2,1,0,0,287,3,1,0,0,287,4,1,0;                81P     42
508,4,0,287,2,0,0,0,287,5,0,0,0,287,6,0,0,0,287,7,0,0;                83P     43
508,8,0,287,1,0,0,0,287,8,1,0,0,287,9,0,0,0,287,10,1,0,0,287,11,      85P     44
0,0,0,287,12,1,0,0,287,13,0,0,0,287,5,1,0;                            85P     45
508,4,0,287,14,1,0,0,287,15,1,0,0,287,16,1,0,0,287,17,1,0;            87P     46
508,4,0,287,9,1,0,0,287,18,1,0,0,287,19,1,0,0,287,20,1,0;             89P     47
508,4,0,287,20,0,0,0,287,21,0,0,0,287,22,0,0,0,287,10,0,0;            91P     48
508,4,0,287,11,1,0,0,287,22,1,0,0,287,23,1,0,0,287,24,1,0;            93P     49
508,4,0,287,13,1,0,0,287,25,1,0,0,287,26,1,0,0,287,6,1,0;             95P     50
508,4,0,287,27,1,0,0,287,28,1,0,0,287,17,0,0,0,287,29,0,0;            97P     51
508,4,0,287,30,1,0,0,287,29,1,0,0,287,16,0,0,0,287,31,0,0;            99P     52
508,4,0,287,32,1,0,0,287,31,1,0,0,287,15,0,0,0,287,33,0,0;           101P     53
508,4,0,287,34,1,0,0,287,33,1,0,0,287,14,0,0,0,287,28,0,0;           103P     54
508,4,0,287,24,0,0,0,287,35,0,0,0,287,25,0,0,0,287,12,0,0;           105P     55
508,4,0,287,4,0,0,0,287,36,0,0,0,287,18,0,0,0,287,8,0,0;             107P     56
508,8,0,287,3,0,0,0,287,7,1,0,0,287,26,0,0,0,287,35,1,0,0,287,       109P     57
23,0,0,0,287,21,1,0,0,287,19,0,0,0,287,36,1,0;                       109P     58
508,4,0,287,34,0,0,0,287,27,0,0,0,287,30,0,0,0,287,32,0,0;           111P     59
126,1,1,0,0,1,0,-6.,-6.,0.,0.,1.,1.,30.,-66.,0.,-30.,-66.,0.,        113P     60
-6.,0.,0.,0.,0.;                                                     113P     61
126,1,1,0,0,1,0,0.,0.,0.28,0.28,1.,1.,-30.,-66.,0.,-30.,-66.,        115P     62
2.8,0.,0.28,0.,0.,0.;                                                115P     63
126,1,1,0,0,1,0,-6.,-6.,0.,0.,1.,1.,30.,-66.,2.8,-30.,-66.,2.8,      117P     64
-6.,0.,0.,0.,0.;                                                     117P     65
126,1,1,0,0,1,0,0.,0.,0.28,0.28,1.,1.,30.,-66.,0.,30.,-66.,2.8,      119P     66
0.,0.28,0.,0.,0.;                                                    119P     67
126,1,1,0,0,1,0,0.4,0.4,9.68,9.68,1.,1.,30.,26.8,0.,30.,-66.,0.,     121P     68
0.4,9.68,0.,0.,0.;                                                   121P     69
126,1,1,0,0,1,0,0.4,0.4,9.68,9.68,1.,1.,30.,26.8,2.8,30.,-66.,       123P     70
2.8,0.4,9.68,0.,0.,0.;                                               123P     71
126,1,1,0,0,1,0,0.,0.,0.28,0.28,1.,1.,30.,26.8,0.,30.,26.8,2.8,      125P     72
0.,0.28,0.,0.,0.;                                                    125P     73
126,1,1,0,0,1,0,0.,0.,6.,6.,1.,1.,-30.,26.8,0.,30.,26.8,0.,0.,       127P     74
6.,0.,0.,0.;                                                         127P     75
126,1,1,0,0,1,0,0.,0.,6.,6.,1.,1.,-30.,26.8,2.8,30.,26.8,2.8,0.,     129P     76
6.,0.,0.,0.;                                                         129P     77
126,1,1,0,0,1,0,0.,0.,0.28,0.28,1.,1.,-30.,26.8,0.,-30.,26.8,        131P     78
2.8,0.,0.28,0.,0.,0.;                                                131P     79
126,1,1,0,0,1,0,-9.68,-9.68,-0.4,-0.4,1.,1.,-30.,-66.,0.,-30.,       133P     80
26.8,0.,-9.68,-0.4,0.,0.,0.;                                         133P     81
126,1,1,0,0,1,0,-9.68,-9.68,-0.4,-0.4,1.,1.,-30.,-66.,2.8,-30.,      135P     82
26.8,2.8,-9.68,-0.4,0.,0.,0.;                                        135P     83
126,1,1,0,0,1,0,0.,0.,6.12,6.12,1.,1.,-30.6,30.8,0.,30.6,30.8,       137P     84
0.,0.,6.12,0.,0.,0.;                                                 137P     85
126,1,1,0,0,1,0,0.,0.,0.28,0.28,1.,1.,-30.6,30.8,0.,-30.6,30.8,      139P     86
2.8,0.,0.28,0.,0.,0.;                                                139P     87
126,1,1,0,0,1,0,-6.12,-6.12,0.,0.,1.,1.,30.6,30.8,2.8,-30.6,         141P     88
30.8,2.8,-6.12,0.,0.,0.,0.;                                          141P     89
126,1,1,0,0,1,0,0.,0.,0.28,0.28,1.,1.,30.6,30.8,0.,30.6,30.8,        143P     90
2.8,0.,0.28,0.,0.,0.;                                                143P     91
126,1,1,0,0,1,0,0.,0.,10.04,10.04,1.,1.,30.6,30.8,0.,30.6,-69.6,     145P     92
0.,0.,10.04,0.,0.,0.;                                                145P     93
126,1,1,0,0,1,0,-10.04,-10.04,0.,0.,1.,1.,30.6,-69.6,2.8,30.6,       147P     94
30.8,2.8,-10.04,0.,0.,0.,0.;                                         147P     95
126,1,1,0,0,1,0,0.,0.,0.28,0.28,1.,1.,30.6,-69.6,0.,30.6,-69.6,      149P     96
2.8,0.,0.28,0.,0.,0.;                                                149P     97
126,1,1,0,0,1,0,0.,0.,6.12,6.12,1.,1.,-30.6,-69.6,0.,30.6,-69.6,     151P     98
0.,0.,6.12,0.,0.,0.;                                                 151P     99
126,1,1,0,0,1,0,0.,0.,6.12,6.12,1.,1.,-30.6,-69.6,2.8,30.6,          153P    100
-69.6,2.8,0.,6.12,0.,0.,0.;                                          153P    101
126,1,1,0,0,1,0,0.,0.,0.28,0.28,1.,1.,-30.6,-69.6,0.,-30.6,          155P    102
-69.6,2.8,0.,0.28,0.,0.,0.;                                          155P    103
126,1,1,0,0,1,0,0.,0.,10.04,10.04,1.,1.,-30.6,30.8,0.,-30.6,         157P    104
-69.6,0.,0.,10.04,0.,0.,0.;                                          157P    105
126,1,1,0,0,1,0,0.,0.,10.04,10.04,1.,1.,-30.6,30.8,2.8,-30.6,        159P    106
-69.6,2.8,0.,10.04,0.,0.,0.;                                         159P    107
126,2,2,0,0,0,0,-0.785398163397448,-0.785398163397448,               161P    108
-0.785398163397448,0.785398163397448,0.785398163397448,              161P    109
0.785398163397448,1.,0.707106781186548,1.,-40.6,23.3,0.6,-40.6,      161P    110
35.8,0.6,-28.1,35.8,0.6,-0.785398163397448,0.785398163397448,0.,     161P    111
0.,0.;                                                               161P    112
126,1,1,0,0,1,0,-0.06,-0.06,0.,0.,1.,1.,-28.1,35.8,0.6,-28.1,        163P    113
35.8,0.,-0.06,0.,0.,0.,0.;                                           163P    114
126,2,2,0,0,0,0,-0.785398163397448,-0.785398163397448,               165P    115
-0.785398163397448,0.785398163397448,0.785398163397448,              165P    116
0.785398163397448,1.,0.707106781186548,1.,-28.1,35.8,0.,-40.6,       165P    117
35.8,0.,-40.6,23.3,0.,-0.785398163397448,0.785398163397448,0.,       165P    118
0.,0.;                                                               165P    119
126,1,1,0,0,1,0,0.,0.,0.06,0.06,1.,1.,-40.6,23.3,0.,-40.6,23.3,      167P    120
0.6,0.,0.06,0.,0.,0.;                                                167P    121
126,1,1,0,0,1,0,-6.87,-6.87,-1.25,-1.25,1.,1.,28.1,35.8,0.6,         169P    122
-28.1,35.8,0.6,-6.87,-1.25,0.,0.,0.;                                 169P    123
126,1,1,0,0,1,0,0.,0.,0.06,0.06,1.,1.,28.1,35.8,0.,28.1,35.8,        171P    124
0.6,0.,0.06,0.,0.,0.;                                                171P    125
126,1,1,0,0,1,0,1.25,1.25,6.87,6.87,1.,1.,-28.1,35.8,0.,28.1,        173P    126
35.8,0.,1.25,6.87,0.,0.,0.;                                          173P    127
126,1,1,0,0,1,0,-9.90999999999999,-9.90999999999999,-1.25,-1.25,     175P    128
1.,1.,-40.6,23.3,0.6,-40.6,-63.2999999999999,0.6,                    175P    129
-9.90999999999999,-1.25,0.,0.,0.;                                    175P    130
126,2,2,0,0,0,0,-0.785398163397448,-0.785398163397448,               177P    131
-0.785398163397448,0.785398163397448,0.785398163397448,              177P    132
0.785398163397448,1.,0.707106781186548,1.,-28.1,                     177P    133
-75.7999999999999,0.6,-40.6,-75.7999999999999,0.6,-40.6,             177P    134
-63.2999999999999,0.6,-0.785398163397448,0.785398163397448,0.,       177P    135
0.,0.;                                                               177P    136
126,1,1,0,0,1,0,-6.87,-6.87,-1.25,-1.25,1.,1.,-28.1,                 179P    137
-75.7999999999999,0.6,28.1,-75.7999999999999,0.6,-6.87,-1.25,0.,     179P    138
0.,0.;                                                               179P    139
126,2,2,0,0,0,0,-0.785398163397448,-0.785398163397448,               181P    140
-0.785398163397448,0.785398163397448,0.785398163397448,              181P    141
0.785398163397448,1.,0.707106781186548,1.,40.6,                      181P    142
-63.2999999999999,0.6,40.6,-75.7999999999999,0.6,28.1,               181P    143
-75.7999999999999,0.6,-0.785398163397448,0.785398163397448,0.,       181P    144
0.,0.;                                                               181P    145
126,1,1,0,0,1,0,-9.90999999999999,-9.90999999999999,-1.25,-1.25,     183P    146
1.,1.,40.6,-63.2999999999999,0.6,40.6,23.3,0.6,                      183P    147
-9.90999999999999,-1.25,0.,0.,0.;                                    183P    148
126,2,2,0,0,0,0,-0.785398163397448,-0.785398163397448,               185P    149
-0.785398163397448,0.785398163397448,0.785398163397448,              185P    150
0.785398163397448,1.,0.707106781186548,1.,28.1,35.8,0.6,40.6,        185P    151
35.8,0.6,40.6,23.3,0.6,-0.785398163397448,0.785398163397448,0.,      185P    152
0.,0.;                                                               185P    153
126,1,1,0,0,1,0,-10.04,-10.04,0.,0.,1.,1.,-30.6,-69.6,0.6,-30.6,     187P    154
30.8,0.6,-10.04,0.,0.,0.,0.;                                         187P    155
126,1,1,0,0,1,0,0.,0.,6.12,6.12,1.,1.,-30.6,30.8,0.6,30.6,30.8,      189P    156
0.6,0.,6.12,0.,0.,0.;                                                189P    157
126,1,1,0,0,1,0,0.,0.,10.04,10.04,1.,1.,30.6,30.8,0.6,30.6,          191P    158
-69.6,0.6,0.,10.04,0.,0.,0.;                                         191P    159
126,1,1,0,0,1,0,-6.12,-6.12,0.,0.,1.,1.,30.6,-69.6,0.6,-30.6,        193P    160
-69.6,0.6,-6.12,0.,0.,0.,0.;                                         193P    161
126,1,1,0,0,1,0,-0.06,-0.06,0.,0.,1.,1.,-40.6,-63.2999999999999,     195P    162
0.6,-40.6,-63.2999999999999,0.,-0.06,0.,0.,0.,0.;                    195P    163
126,2,2,0,0,0,0,-0.785398163397448,-0.785398163397448,               197P    164
-0.785398163397448,0.785398163397448,0.785398163397448,              197P    165
0.785398163397448,1.,0.707106781186548,1.,-40.6,                     197P    166
-63.2999999999999,0.,-40.6,-75.7999999999999,0.,-28.1,               197P    167
-75.7999999999999,0.,-0.785398163397448,0.785398163397448,0.,0.,     197P    168
0.;                                                                  197P    169
126,1,1,0,0,1,0,0.,0.,0.06,0.06,1.,1.,-28.1,-75.7999999999999,       199P    170
0.,-28.1,-75.7999999999999,0.6,0.,0.06,0.,0.,0.;                     199P    171
126,1,1,0,0,1,0,1.25,1.25,6.87,6.87,1.,1.,28.1,                      201P    172
-75.7999999999999,0.,-28.1,-75.7999999999999,0.,1.25,6.87,0.,0.,     201P    173
0.;                                                                  201P    174
126,1,1,0,0,1,0,-0.06,-0.06,0.,0.,1.,1.,28.1,-75.7999999999999,      203P    175
0.6,28.1,-75.7999999999999,0.,-0.06,0.,0.,0.,0.;                     203P    176
126,2,2,0,0,0,0,-0.785398163397448,-0.785398163397448,               205P    177
-0.785398163397448,0.785398163397448,0.785398163397448,              205P    178
0.785398163397448,1.,0.707106781186548,1.,28.1,                      205P    179
-75.7999999999999,0.,40.6,-75.7999999999999,0.,40.6,                 205P    180
-63.2999999999999,0.,-0.785398163397448,0.785398163397448,0.,0.,     205P    181
0.;                                                                  205P    182
126,1,1,0,0,1,0,0.,0.,0.06,0.06,1.,1.,40.6,-63.2999999999999,0.,     207P    183
40.6,-63.2999999999999,0.6,0.,0.06,0.,0.,0.;                         207P    184
126,1,1,0,0,1,0,-0.06,-0.06,0.,0.,1.,1.,40.6,23.3,0.6,40.6,23.3,     209P    185
0.,-0.06,0.,0.,0.,0.;                                                209P    186
126,2,2,0,0,0,0,-0.785398163397448,-0.785398163397448,               211P    187
-0.785398163397448,0.785398163397448,0.785398163397448,              211P    188
0.785398163397448,1.,0.707106781186548,1.,40.6,23.3,0.,40.6,         211P    189
35.8,0.,28.1,35.8,0.,-0.785398163397448,0.785398163397448,0.,0.,     211P    190
0.;                                                                  211P    191
126,1,1,0,0,1,0,-6.12,-6.12,0.,0.,1.,1.,30.6,-69.6,0.,-30.6,         213P    192
-69.6,0.,-6.12,0.,0.,0.,0.;                                          213P    193
126,1,1,0,0,1,0,0.,0.,0.06,0.06,1.,1.,-30.6,-69.6,0.,-30.6,          215P    194
-69.6,0.6,0.,0.06,0.,0.,0.;                                          215P    195
126,1,1,0,0,1,0,0.,0.,0.06,0.06,1.,1.,30.6,-69.6,0.,30.6,-69.6,      217P    196
0.6,0.,0.06,0.,0.,0.;                                                217P    197
126,1,1,0,0,1,0,0.,0.,10.04,10.04,1.,1.,30.6,30.8,0.,30.6,-69.6,     219P    198
0.,0.,10.04,0.,0.,0.;                                                219P    199
126,1,1,0,0,1,0,0.,0.,0.06,0.06,1.,1.,30.6,30.8,0.,30.6,30.8,        221P    200
0.6,0.,0.06,0.,0.,0.;                                                221P    201
126,1,1,0,0,1,0,0.,0.,6.12,6.12,1.,1.,-30.6,30.8,0.,30.6,30.8,       223P    202
0.,0.,6.12,0.,0.,0.;                                                 223P    203
126,1,1,0,0,1,0,0.,0.,0.06,0.06,1.,1.,-30.6,30.8,0.,-30.6,30.8,      225P    204
0.6,0.,0.06,0.,0.,0.;                                                225P    205
126,1,1,0,0,1,0,-10.04,-10.04,0.,0.,1.,1.,-30.6,-69.6,0.,-30.6,      227P    206
30.8,0.,-10.04,0.,0.,0.,0.;                                          227P    207
126,1,1,0,0,1,0,1.25,1.25,9.90999999999999,9.90999999999999,1.,      229P    208
1.,40.6,23.3,0.,40.6,-63.2999999999999,0.,1.25,9.90999999999999,     229P    209
0.,0.,0.;                                                            229P    210
126,1,1,0,0,1,0,1.25,1.25,9.90999999999999,9.90999999999999,1.,      231P    211
1.,-40.6,-63.2999999999999,0.,-40.6,23.3,0.,1.25,                    231P    212
9.90999999999999,0.,0.,0.;                                           231P    213
128,1,1,1,1,0,0,1,0,0,-0.001,-0.001,6.001,6.001,-0.001,-0.001,       233P    214
0.281,0.281,1.,1.,1.,1.,30.01,-66.,-0.01,-30.01,-66.,-0.01,          233P    215
30.01,-66.,2.81,-30.01,-66.,2.81,-0.001,6.001,-0.001,0.281;          233P    216
128,1,1,1,1,0,0,1,0,0,-0.001,-0.001,9.281,9.281,-0.001,-0.001,       235P    217
0.281,0.281,1.,1.,1.,1.,30.,26.81,-0.01,30.,-66.01,-0.01,30.,        235P    218
26.81,2.81,30.,-66.01,2.81,-0.001,9.281,-0.001,0.281;                235P    219
128,1,1,1,1,0,0,1,0,0,-0.001,-0.001,6.001,6.001,-0.001,-0.001,       237P    220
0.281,0.281,1.,1.,1.,1.,-30.01,26.8,-0.01,30.01,26.8,-0.01,          237P    221
-30.01,26.8,2.81,30.01,26.8,2.81,-0.001,6.001,-0.001,0.281;          237P    222
128,1,1,1,1,0,0,1,0,0,-0.001,-0.001,9.281,9.281,-0.001,-0.001,       239P    223
0.281,0.281,1.,1.,1.,1.,-30.,-66.01,-0.01,-30.,26.81,-0.01,-30.,     239P    224
-66.01,2.81,-30.,26.81,2.81,-0.001,9.281,-0.001,0.281;               239P    225
128,1,1,1,1,0,0,1,0,0,-0.001,-0.001,6.121,6.121,-0.001,-0.001,       241P    226
0.281,0.281,1.,1.,1.,1.,30.61,30.8,-0.01,-30.61,30.8,-0.01,          241P    227
30.61,30.8,2.81,-30.61,30.8,2.81,-0.001,6.121,-0.001,0.281;          241P    228
128,1,1,1,1,0,0,1,0,0,-0.001,-0.001,10.041,10.041,-0.001,-0.001,     243P    229
0.281,0.281,1.,1.,1.,1.,30.6,-69.61,-0.01,30.6,30.81,-0.01,30.6,     243P    230
-69.61,2.81,30.6,30.81,2.81,-0.001,10.041,-0.001,0.281;              243P    231
128,1,1,1,1,0,0,1,0,0,-0.001,-0.001,6.121,6.121,-0.001,-0.001,       245P    232
0.281,0.281,1.,1.,1.,1.,-30.61,-69.6,-0.01,30.61,-69.6,-0.01,        245P    233
-30.61,-69.6,2.81,30.61,-69.6,2.81,-0.001,6.121,-0.001,0.281;        245P    234
128,1,1,1,1,0,0,1,0,0,-0.001,-0.001,10.041,10.041,-0.001,-0.001,     247P    235
0.281,0.281,1.,1.,1.,1.,-30.6,30.81,-0.01,-30.6,-69.61,-0.01,        247P    236
-30.6,30.81,2.81,-30.6,-69.61,2.81,-0.001,10.041,-0.001,0.281;       247P    237
128,1,1,1,1,0,0,1,0,0,-3.061,-3.061,3.061,3.061,-5.021,-5.021,       249P    238
5.021,5.021,1.,1.,1.,1.,-30.61,-69.61,2.8,30.61,-69.61,2.8,          249P    239
-30.61,30.81,2.8,30.61,30.81,2.8,-3.061,3.061,-5.021,5.021;          249P    240
128,1,1,1,1,0,0,1,0,0,-3.061,-3.061,3.061,3.061,-5.021,-5.021,       251P    241
5.021,5.021,1.,1.,1.,1.,30.61,-69.61,0.,-30.61,-69.61,0.,30.61,      251P    242
30.81,0.,-30.61,30.81,0.,-3.061,3.061,-5.021,5.021;                  251P    243
128,1,2,1,2,0,0,0,0,0,0.,0.,0.048,0.048,-0.785398163397448,          253P    244
-0.785398163397448,-0.785398163397448,0.785398163397448,             253P    245
0.785398163397448,0.785398163397448,1.,1.,0.707106781186548,         253P    246
0.707106781186548,1.,1.,-28.1,35.8,0.6,-28.1,35.8,0.,-40.6,35.8,     253P    247
0.6,-40.6,35.8,0.,-40.6,23.3,0.6,-40.6,23.3,0.,0.,0.048,             253P    248
-0.785398163397448,0.785398163397448;                                253P    249
128,1,1,1,1,0,0,1,0,0,1.249,1.249,6.871,6.871,-0.001,-0.001,         255P    250
0.061,0.061,1.,1.,1.,1.,28.11,35.8,-0.01,-28.11,35.8,-0.01,          255P    251
28.11,35.8,0.61,-28.11,35.8,0.61,1.249,6.871,-0.001,0.061;           255P    252
128,1,1,1,1,0,0,1,0,0,-4.061,-4.061,4.061,4.061,-5.581,-5.581,       257P    253
5.581,5.581,1.,1.,1.,1.,-40.61,-75.8099999999999,0.6,40.61,          257P    254
-75.8099999999999,0.6,-40.61,35.81,0.6,40.61,35.81,0.6,-4.061,       257P    255
4.061,-5.581,5.581;                                                  257P    256
128,1,2,1,2,0,0,0,0,0,0.,0.,0.048,0.048,-0.785398163397448,          259P    257
-0.785398163397448,-0.785398163397448,0.785398163397448,             259P    258
0.785398163397448,0.785398163397448,1.,1.,0.707106781186548,         259P    259
0.707106781186548,1.,1.,-40.6,-63.2999999999999,0.6,-40.6,           259P    260
-63.2999999999999,0.,-40.6,-75.7999999999999,0.6,-40.6,              259P    261
-75.7999999999999,0.,-28.1,-75.7999999999999,0.6,-28.1,              259P    262
-75.7999999999999,0.,0.,0.048,-0.785398163397448,                    259P    263
0.785398163397448;                                                   259P    264
128,1,1,1,1,0,0,1,0,0,1.249,1.249,6.871,6.871,-0.001,-0.001,         261P    265
0.061,0.061,1.,1.,1.,1.,-28.11,-75.7999999999999,-0.01,28.11,        261P    266
-75.7999999999999,-0.01,-28.11,-75.7999999999999,0.61,28.11,         261P    267
-75.7999999999999,0.61,1.249,6.871,-0.001,0.061;                     261P    268
128,1,2,1,2,0,0,0,0,0,0.,0.,0.048,0.048,-0.785398163397448,          263P    269
-0.785398163397448,-0.785398163397448,0.785398163397448,             263P    270
0.785398163397448,0.785398163397448,1.,1.,0.707106781186548,         263P    271
0.707106781186548,1.,1.,28.1,-75.7999999999999,0.6,28.1,             263P    272
-75.7999999999999,0.,40.6,-75.7999999999999,0.6,40.6,                263P    273
-75.7999999999999,0.,40.6,-63.2999999999999,0.6,40.6,                263P    274
-63.2999999999999,0.,0.,0.048,-0.785398163397448,                    263P    275
0.785398163397448;                                                   263P    276
128,1,2,1,2,0,0,0,0,0,0.,0.,0.048,0.048,-0.785398163397448,          265P    277
-0.785398163397448,-0.785398163397448,0.785398163397448,             265P    278
0.785398163397448,0.785398163397448,1.,1.,0.707106781186548,         265P    279
0.707106781186548,1.,1.,40.6,23.3,0.6,40.6,23.3,0.,40.6,35.8,        265P    280
0.6,40.6,35.8,0.,28.1,35.8,0.6,28.1,35.8,0.,0.,0.048,                265P    281
-0.785398163397448,0.785398163397448;                                265P    282
128,1,1,1,1,0,0,1,0,0,-0.001,-0.001,6.121,6.121,-0.001,-0.001,       267P    283
0.061,0.061,1.,1.,1.,1.,30.61,-69.6,-0.01,-30.61,-69.6,-0.01,        267P    284
30.61,-69.6,0.61,-30.61,-69.6,0.61,-0.001,6.121,-0.001,0.061;        267P    285
128,1,1,1,1,0,0,1,0,0,-0.001,-0.001,10.041,10.041,-0.001,-0.001,     269P    286
0.061,0.061,1.,1.,1.,1.,30.6,30.81,-0.01,30.6,-69.61,-0.01,30.6,     269P    287
30.81,0.61,30.6,-69.61,0.61,-0.001,10.041,-0.001,0.061;              269P    288
128,1,1,1,1,0,0,1,0,0,-0.001,-0.001,6.121,6.121,-0.001,-0.001,       271P    289
0.061,0.061,1.,1.,1.,1.,-30.61,30.8,-0.01,30.61,30.8,-0.01,          271P    290
-30.61,30.8,0.61,30.61,30.8,0.61,-0.001,6.121,-0.001,0.061;          271P    291
128,1,1,1,1,0,0,1,0,0,-0.001,-0.001,10.041,10.041,-0.001,-0.001,     273P    292
0.061,0.061,1.,1.,1.,1.,-30.6,-69.61,-0.01,-30.6,30.81,-0.01,        273P    293
-30.6,-69.61,0.61,-30.6,30.81,0.61,-0.001,10.041,-0.001,0.061;       273P    294
128,1,1,1,1,0,0,1,0,0,1.249,1.249,9.91099999999999,                  275P    295
9.91099999999999,-0.001,-0.001,0.061,0.061,1.,1.,1.,1.,40.6,         275P    296
-63.3099999999999,-0.01,40.6,23.31,-0.01,40.6,-63.3099999999999,     275P    297
0.61,40.6,23.31,0.61,1.249,9.91099999999999,-0.001,0.061;            275P    298
128,1,1,1,1,0,0,1,0,0,1.249,1.249,9.91099999999999,                  277P    299
9.91099999999999,-0.001,-0.001,0.061,0.061,1.,1.,1.,1.,-40.6,        277P    300
23.31,-0.01,-40.6,-63.3099999999999,-0.01,-40.6,23.31,0.61,          277P    301
-40.6,-63.3099999999999,0.61,1.249,9.91099999999999,-0.001,          277P    302
0.061;                                                               277P    303
128,1,1,1,1,0,0,1,0,0,-4.061,-4.061,4.061,4.061,-5.581,-5.581,       279P    304
5.581,5.581,1.,1.,1.,1.,40.61,-75.8099999999999,0.,-40.61,           279P    305
-75.8099999999999,0.,40.61,35.81,0.,-40.61,35.81,0.,-4.061,          279P    306
4.061,-5.581,5.581;                                                  279P    307
502,16,30.,-66.,0.,-30.,-66.,0.,-30.,-66.,2.8,30.,-66.,2.8,30.,      281P    308
26.8,0.,30.,26.8,2.8,-30.,26.8,0.,-30.,26.8,2.8,-30.6,30.8,0.,       281P    309
30.6,30.8,0.,-30.6,30.8,2.8,30.6,30.8,2.8,30.6,-69.6,0.,30.6,        281P    310
-69.6,2.8,-30.6,-69.6,0.,-30.6,-69.6,2.8;                            281P    311
502,24,-40.6,23.3,0.6,-28.1,35.8,0.6,-28.1,35.8,0.,-40.6,23.3,       283P    312
0.,28.1,35.8,0.6,28.1,35.8,0.,-40.6,-63.2999999999999,0.6,-28.1,     283P    313
-75.7999999999999,0.6,28.1,-75.7999999999999,0.6,40.6,               283P    314
-63.2999999999999,0.6,40.6,23.3,0.6,-30.6,-69.6,0.6,-30.6,30.8,      283P    315
0.6,30.6,30.8,0.6,30.6,-69.6,0.6,-40.6,-63.2999999999999,0.,         283P    316
-28.1,-75.7999999999999,0.,28.1,-75.7999999999999,0.,40.6,           283P    317
-63.2999999999999,0.,40.6,23.3,0.,30.6,-69.6,0.,-30.6,-69.6,0.,      283P    318
30.6,30.8,0.,-30.6,30.8,0.;                                          283P    319
504,24,113,281,1,281,2,115,281,2,281,3,117,281,4,281,3,119,281,      285P    320
1,281,4,121,281,5,281,1,123,281,6,281,4,125,281,5,281,6,127,281,     285P    321
7,281,5,129,281,8,281,6,131,281,7,281,8,133,281,2,281,7,135,281,     285P    322
3,281,8,137,281,9,281,10,139,281,9,281,11,141,281,12,281,11,143,     285P    323
281,10,281,12,145,281,10,281,13,147,281,14,281,12,149,281,13,        285P    324
281,14,151,281,15,281,13,153,281,16,281,14,155,281,15,281,16,        285P    325
157,281,9,281,15,159,281,11,281,16;                                  285P    326
504,36,161,283,1,283,2,163,283,2,283,3,165,283,3,283,4,167,283,      287P    327
4,283,1,169,283,5,283,2,171,283,6,283,5,173,283,3,283,6,175,283,     287P    328
1,283,7,177,283,8,283,7,179,283,8,283,9,181,283,10,283,9,183,        287P    329
283,10,283,11,185,283,5,283,11,187,283,12,283,13,189,283,13,283,     287P    330
14,191,283,14,283,15,193,283,15,283,12,195,283,7,283,16,197,283,     287P    331
16,283,17,199,283,17,283,8,201,283,18,283,17,203,283,9,283,18,       287P    332
205,283,18,283,19,207,283,19,283,10,209,283,11,283,20,211,283,       287P    333
20,283,6,213,283,21,283,22,215,283,22,283,12,217,283,21,283,15,      287P    334
219,283,23,283,21,221,283,23,283,14,223,283,24,283,23,225,283,       287P    335
24,283,13,227,283,22,283,24,229,283,20,283,19,231,283,16,283,4;      287P    336
406,1,5HBody3;                                                       289P    337
406,1,5HBody4;                                                       291P    338
314,62.7450980392157,62.7450980392157,62.7450980392157,13HSteel      293P    339
- Satin;                                                             293P    340
S      1G      3D    294P    340                                        T      1
