0
SECTION
2
HEADER
9
$INSUNITS
70
4
9
$ACADVER
1
AC1014
9
$HANDSEED
5
FFFF
0
ENDSEC
0
SECTION
2
TABLES
0
TABLE
2
VPORT
5
8
100
AcDbSymbolTable
0
ENDTAB
0
TABLE
2
LTYPE
5
5
100
AcDbSymbolTable
0
LTYPE
5
14
100
AcDbSymbolTableRecord
100
AcDbLinetypeTableRecord
2
BYBLOCK
70
0
0
LTYPE
5
15
100
AcDbSymbolTableRecord
100
AcDbLinetypeTableRecord
2
BYLAYER
70
0
0
ENDTAB
0
TABLE
2
LAYER
5
2
100
AcDbSymbolTable
70
2
0
LAYER
5
50
100
AcDbSymbolTableRecord
100
AcDbLayerTableRecord
2
0
70
0
6
CONTINUOUS
0
ENDTAB
0
TABLE
2
STYLE
5
3
100
AcDbSymbolTable
70
1
0
STYLE
5
11
100
AcDbSymbolTableRecord
100
AcDbTextStyleTableRecord
2
STANDARD
70
0
0
ENDTAB
0
TABLE
2
VIEW
5
6
100
AcDbSymbolTable
70
0
0
ENDTAB
0
TABLE
2
UCS
5
7
100
AcDbSymbolTable
70
0
0
ENDTAB
0
TABLE
2
APPID
5
9
100
AcDbSymbolTable
70
2
0
APPID
5
12
100
AcDbSymbolTableRecord
100
AcDbRegAppTableRecord
2
ACAD
70
0
0
ENDTAB
0
TABLE
2
DIMSTYLE
5
A
100
AcDbSymbolTable
70
1
0
ENDTAB
0
TABLE
2
BLOCK_RECORD
5
1
100
AcDbSymbolTable
70
1
0
BLOCK_RECORD
5
1F
100
AcDbSymbolTableRecord
100
AcDbBlockTableRecord
2
*MODEL_SPACE
0
BLOCK_RECORD
5
1B
100
AcDbSymbolTableRecord
100
AcDbBlockTableRecord
2
*PAPER_SPACE
0
ENDTAB
0
ENDSEC
0
SECTION
2
BLOCKS
0
BLOCK
5
20
100
AcDbEntity
100
AcDbBlockBegin
2
*MODEL_SPACE
0
ENDBLK
5
21
100
AcDbEntity
100
AcDbBlockEnd
0
BLOCK
5
1C
100
AcDbEntity
100
AcDbBlockBegin
2
*PAPER_SPACE
0
ENDBLK
5
1D
100
AcDbEntity
100
AcDbBlockEnd
0
ENDSEC
0
SECTION
2
ENTITIES
0
LINE
5
100
100
AcDbEntity
8
0
100
AcDbLine
10
8.4912700721186845
20
-39.173800141811824
30
0
11
-41.508729927881312
21
-39.173800141811824
31
0
0
ARC
5
101
100
AcDbEntity
8
0
100
AcDbCircle
10
-41.508729927881312
20
0.35431061037006661
30
0
40
39.5281107521823
210
0
220
0
230
1
100
AcDbArc
50
198.96080294805279
51
270
0
SPLINE
5
102
100
AcDbEntity
8
0
100
AcDbSpline
70
4
71
5
72
56
73
50
74
0
42
0.000000001
43
0.0000000001
44
0.0000000001
40
0
40
0
40
0
40
0
40
0
40
0
40
0.022222222222222223
40
0.044444444444444446
40
0.066666666666666666
40
0.088888888888888892
40
0.11111111111111112
40
0.13333333333333333
40
0.15555555555555556
40
0.17777777777777778
40
0.20000000000000001
40
0.22222222222222224
40
0.24444444444444446
40
0.26666666666666666
40
0.28888888888888886
40
0.31111111111111106
40
0.33333333333333326
40
0.35555555555555546
40
0.37777777777777766
40
0.39999999999999986
40
0.42222222222222205
40
0.44444444444444425
40
0.46666666666666645
40
0.48888888888888865
40
0.51111111111111085
40
0.5333333333333331
40
0.55555555555555536
40
0.57777777777777761
40
0.59999999999999987
40
0.62222222222222212
40
0.64444444444444438
40
0.66666666666666663
40
0.68888888888888888
40
0.71111111111111114
40
0.73333333333333339
40
0.75555555555555565
40
0.7777777777777779
40
0.80000000000000016
40
0.82222222222222241
40
0.84444444444444466
40
0.86666666666666692
40
0.88888888888888917
40
0.91111111111111143
40
0.93333333333333368
40
0.95555555555555594
40
0.97777777777777819
40
1
40
1
40
1
40
1
40
1
40
1
41
1
41
1
41
1
41
1
41
1
41
1
41
1
41
1
41
1
41
1
41
1
41
1
41
1
41
1
41
1
41
1
41
1
41
1
41
1
41
1
41
1
41
1
41
1
41
1
41
1
41
1
41
1
41
1
41
1
41
1
41
1
41
1
41
1
41
1
41
1
41
1
41
1
41
1
41
1
41
1
41
1
41
1
41
1
41
1
41
1
41
1
41
1
41
1
41
1
41
1
10
-78.892088129688204
20
-12.489211850083969
30
0
10
-77.037124645615577
20
-12.434407881564002
30
0
10
-73.42002474429259
20
-12.444746303779844
30
0
10
-68.272840859393625
20
-12.820098708639687
30
0
10
-61.98087013300416
20
-13.986095082078227
30
0
10
-55.12264290191176
20
-16.227247987291637
30
0
10
-49.300397629561637
20
-18.814973210992946
30
0
10
-44.464126686243659
20
-21.281928969118585
30
0
10
-40.446925373147963
20
-23.205146571859956
30
0
10
-36.889276751270678
20
-24.296347844643179
30
0
10
-33.277443472683764
20
-24.445345499253573
30
0
10
-29.30960541884275
20
-23.628894212143614
30
0
10
-25.202620033520766
20
-21.844135943014148
30
0
10
-22.023850823347161
20
-19.032637086028686
30
0
10
-20.989996423602495
20
-15.172844864894701
30
0
10
-22.84516654927652
20
-10.359957095898192
30
0
10
-27.068726010316482
20
-4.9110455281406109
30
0
10
-32.197901440215745
20
0.69101456343045109
30
0
10
-36.406046796675959
20
5.8907314369143275
30
0
10
-38.006647741795362
20
10.141675202910081
30
0
10
-35.95537762742731
20
12.989632996571503
30
0
10
-30.441687125668562
20
14.164129973362698
30
0
10
-22.573515163614836
20
13.576898635703152
30
0
10
-13.923557165908617
20
11.304008453702805
30
0
10
-6.1078524134328935
20
7.5765202121872015
30
0
10
-0.392980396185243
20
2.7633416590486837
30
0
10
2.8117049408952903
20
-2.6301893177684676
30
0
10
4.0295267926616578
20
-8.0148390017325948
30
0
10
4.2760011684120807
20
-12.830827399982308
30
0
10
4.7579870948932177
20
-16.643505504370172
30
0
10
6.5083933847987474
20
-19.250921749027349
30
0
10
10.072545126256021
20
-20.774716643936273
30
0
10
15.610210794016663
20
-21.533705095054128
30
0
10
22.976222685753115
20
-21.931102696214069
30
0
10
31.808538088464427
20
-22.334774073034357
30
0
10
41.610199252282307
20
-22.966722579506374
30
0
10
51.786614652449103
20
-23.932497268886479
30
0
10
61.684033586176113
20
-25.24414207476881
30
0
10
70.627481621062728
20
-26.845277889439281
30
0
10
77.958514645360552
20
-28.634863058128243
30
0
10
83.073799254405927
20
-30.491660202375552
30
0
10
85.461904058067574
20
-32.297517118990612
30
0
10
84.745626231410057
20
-33.963218964090707
30
0
10
80.665276123594197
20
-35.426276220343837
30
0
10
73.055415230311979
20
-36.645524515094941
30
0
10
61.824389496810646
20
-37.596940628603114
30
0
10
49.911363234088583
20
-38.13460249930975
30
0
10
39.32629847470124
20
-38.410632587772959
30
0
10
31.536712553478964
20
-38.538156930413521
30
0
10
27.458700631681655
20
-38.587795205885989
30
0
0
LINE
5
103
100
AcDbEntity
8
0
100
AcDbLine
10
27.458700631681651
20
-38.587795205885989
30
0
11
8.4912700721186845
21
-39.173800141811824
31
0
0
ENDSEC
0
SECTION
2
OBJECTS
0
DICTIONARY
5
C
100
AcDbDictionary
3
ACAD_GROUP
350
D
3
ACAD_MLINESTYLE
350
17
0
DICTIONARY
5
D
100
AcDbDictionary
0
DICTIONARY
5
1A
330
C
100
AcDbDictionary
0
DICTIONARY
5
17
100
AcDbDictionary
0
ENDSEC
0
EOF
