                                                                        S      1
,,29Hrpi_touch_support_extender v1,26Hrpitouchsupportextender v1,7HunknoG      1
wn,7Hunknown,32,38,7,99,15,,1.,2,2HMM,1,0.08,15H20230101.152129,0.01,   G      2
10000.,7Hunknown,7Hunknown,11,0,15H20210403.193441;                     G      3
     186       1                                                00000000D      1
     186            -239       1       0                               0D      2
     514       2                                                00010000D      3
     514                       2       1                               0D      4
     510       4                                                00010000D      5
     510            -239       1       1                               0D      6
     510       5                                                00010000D      7
     510            -239       1       1                               0D      8
     510       6                                                00010000D      9
     510            -239       1       1                               0D     10
     510       7                                                00010000D     11
     510            -239       1       1                               0D     12
     510       8                                                00010000D     13
     510            -239       1       1                               0D     14
     510       9                                                00010000D     15
     510            -239       1       1                               0D     16
     510      10                                                00010000D     17
     510            -239       1       1                               0D     18
     510      11                                                00010000D     19
     510            -239       1       1                               0D     20
     510      12                                                00010000D     21
     510            -239       1       1                               0D     22
     510      13                                                00010000D     23
     510            -239       1       1                               0D     24
     510      14                                                00010000D     25
     510            -239       1       1                               0D     26
     510      15                                                00010000D     27
     510            -239       1       1                               0D     28
     510      16                                                00010000D     29
     510            -239       1       1                               0D     30
     510      17                                                00010000D     31
     510            -239       1       1                               0D     32
     510      18                                                00010000D     33
     510            -239       1       1                               0D     34
     510      19                                                00010000D     35
     510            -239       1       1                               0D     36
     510      20                                                00010000D     37
     510            -239       1       1                               0D     38
     510      21                                                00010000D     39
     510            -239       1       1                               0D     40
     510      22                                                00010000D     41
     510            -239       1       1                               0D     42
     510      23                                                00010000D     43
     510            -239       1       1                               0D     44
     508      24                                                00010000D     45
     508                       1       1                               0D     46
     508      25                                                00010000D     47
     508                       1       1                               0D     48
     508      26                                                00010000D     49
     508                       4       1                               0D     50
     508      30                                                00010000D     51
     508                       1       1                               0D     52
     508      31                                                00010000D     53
     508                       1       1                               0D     54
     508      32                                                00010000D     55
     508                       1       1                               0D     56
     508      33                                                00010000D     57
     508                       1       1                               0D     58
     508      34                                                00010000D     59
     508                       1       1                               0D     60
     508      35                                                00010000D     61
     508                       2       1                               0D     62
     508      37                                                00010000D     63
     508                       1       1                               0D     64
     508      38                                                00010000D     65
     508                       1       1                               0D     66
     508      39                                                00010000D     67
     508                       2       1                               0D     68
     508      41                                                00010000D     69
     508                       1       1                               0D     70
     508      42                                                00010000D     71
     508                       1       1                               0D     72
     508      43                                                00010000D     73
     508                       1       1                               0D     74
     508      44                                                00010000D     75
     508                       1       1                               0D     76
     508      45                                                00010000D     77
     508                       1       1                               0D     78
     508      46                                                00010000D     79
     508                       1       1                               0D     80
     508      47                                                00010000D     81
     508                       1       1                               0D     82
     508      48                                                00010000D     83
     508                       4       1                               0D     84
     126      52                                                00010000D     85
     126       0               5       0                               0D     86
     126      57                                                00010000D     87
     126       0               2       0                               0D     88
     126      59                                                00010000D     89
     126       0               4       0                               0D     90
     126      63                                                00010000D     91
     126       0               2       0                               0D     92
     126      65                                                00010000D     93
     126       0               2       0                               0D     94
     126      67                                                00010000D     95
     126       0               2       0                               0D     96
     126      69                                                00010000D     97
     126       0               2       0                               0D     98
     126      71                                                00010000D     99
     126       0               2       0                               0D    100
     126      73                                                00010000D    101
     126       0               2       0                               0D    102
     126      75                                                00010000D    103
     126       0               3       0                               0D    104
     126      78                                                00010000D    105
     126       0               2       0                               0D    106
     126      80                                                00010000D    107
     126       0               2       0                               0D    108
     126      82                                                00010000D    109
     126       0               2       0                               0D    110
     126      84                                                00010000D    111
     126       0               3       0                               0D    112
     126      87                                                00010000D    113
     126       0               2       0                               0D    114
     126      89                                                00010000D    115
     126       0               2       0                               0D    116
     126      91                                                00010000D    117
     126       0               5       0                               0D    118
     126      96                                                00010000D    119
     126       0               2       0                               0D    120
     126      98                                                00010000D    121
     126       0               2       0                               0D    122
     126     100                                                00010000D    123
     126       0               2       0                               0D    124
     126     102                                                00010000D    125
     126       0               2       0                               0D    126
     126     104                                                00010000D    127
     126       0               2       0                               0D    128
     126     106                                                00010000D    129
     126       0               5       0                               0D    130
     126     111                                                00010000D    131
     126       0               2       0                               0D    132
     126     113                                                00010000D    133
     126       0               2       0                               0D    134
     126     115                                                00010000D    135
     126       0               2       0                               0D    136
     126     117                                                00010000D    137
     126       0               3       0                               0D    138
     126     120                                                00010000D    139
     126       0               2       0                               0D    140
     126     122                                                00010000D    141
     126       0               2       0                               0D    142
     126     124                                                00010000D    143
     126       0               2       0                               0D    144
     126     126                                                00010000D    145
     126       0               3       0                               0D    146
     126     129                                                00010000D    147
     126       0               2       0                               0D    148
     126     131                                                00010000D    149
     126       0               2       0                               0D    150
     126     133                                                00010000D    151
     126       0               2       0                               0D    152
     126     135                                                00010000D    153
     126       0               5       0                               0D    154
     126     140                                                00010000D    155
     126       0               2       0                               0D    156
     126     142                                                00010000D    157
     126       0               5       0                               0D    158
     126     147                                                00010000D    159
     126       0               2       0                               0D    160
     126     149                                                00010000D    161
     126       0               4       0                               0D    162
     126     153                                                00010000D    163
     126       0               2       0                               0D    164
     126     155                                                00010000D    165
     126       0               2       0                               0D    166
     126     157                                                00010000D    167
     126       0               2       0                               0D    168
     126     159                                                00010000D    169
     126       0               4       0                               0D    170
     126     163                                                00010000D    171
     126       0               2       0                               0D    172
     126     165                                                00010000D    173
     126       0               2       0                               0D    174
     126     167                                                00010000D    175
     126       0               2       0                               0D    176
     126     169                                                00010000D    177
     126       0               2       0                               0D    178
     126     171                                                00010000D    179
     126       0               2       0                               0D    180
     126     173                                                00010000D    181
     126       0               2       0                               0D    182
     126     175                                                00010000D    183
     126       0               2       0                               0D    184
     126     177                                                00010000D    185
     126       0               2       0                               0D    186
     126     179                                                00010000D    187
     126       0               2       0                               0D    188
     126     181                                                00010000D    189
     126       0               2       0                               0D    190
     126     183                                                00010000D    191
     126       0               2       0                               0D    192
     128     185                                                00010000D    193
     128       0    -239       6       0                               0D    194
     128     191                                                00010000D    195
     128       0    -239       3       0                               0D    196
     128     194                                                00010000D    197
     128       0    -239       3       0                               0D    198
     128     197                                                00010000D    199
     128       0    -239       7       0                               0D    200
     128     204                                                00010000D    201
     128       0    -239       4       0                               0D    202
     128     208                                                00010000D    203
     128       0    -239       7       0                               0D    204
     128     215                                                00010000D    205
     128       0    -239       3       0                               0D    206
     128     218                                                00010000D    207
     128       0    -239       7       0                               0D    208
     128     225                                                00010000D    209
     128       0    -239       3       0                               0D    210
     128     228                                                00010000D    211
     128       0    -239       9       0                               0D    212
     128     237                                                00010000D    213
     128       0    -239       3       0                               0D    214
     128     240                                                00010000D    215
     128       0    -239       3       0                               0D    216
     128     243                                                00010000D    217
     128       0    -239       7       0                               0D    218
     128     250                                                00010000D    219
     128       0    -239       3       0                               0D    220
     128     253                                                00010000D    221
     128       0    -239       3       0                               0D    222
     128     256                                                00010000D    223
     128       0    -239       4       0                               0D    224
     128     260                                                00010000D    225
     128       0    -239       3       0                               0D    226
     128     263                                                00010000D    227
     128       0    -239       3       0                               0D    228
     128     266                                                00010000D    229
     128       0    -239       3       0                               0D    230
     128     269                                                00010000D    231
     128       0    -239       3       0                               0D    232
     502     272                                                00010000D    233
     502                       8       1                               0D    234
     504     280                                                00010001D    235
     504                      16       1                               0D    236
     406     296                                                00000000D    237
     406                       1      15                               0D    238
     314     297                                                00000200D    239
     314                       2       0                               0D    240
186,3,1,0,0,1,237;                                                     1P      1
514,20,5,1,7,1,9,1,11,1,13,1,15,1,17,1,19,1,21,1,23,1,25,1,27,1,       3P      2
29,1,31,1,33,1,35,1,37,1,39,1,41,1,43,1;                               3P      3
510,193,1,1,45;                                                        5P      4
510,195,1,1,47;                                                        7P      5
510,197,1,1,49;                                                        9P      6
510,199,1,1,51;                                                       11P      7
510,201,1,1,53;                                                       13P      8
510,203,1,1,55;                                                       15P      9
510,205,1,1,57;                                                       17P     10
510,207,1,1,59;                                                       19P     11
510,209,1,1,61;                                                       21P     12
510,211,1,1,63;                                                       23P     13
510,213,1,1,65;                                                       25P     14
510,215,1,1,67;                                                       27P     15
510,217,1,1,69;                                                       29P     16
510,219,1,1,71;                                                       31P     17
510,221,1,1,73;                                                       33P     18
510,223,1,1,75;                                                       35P     19
510,225,1,1,77;                                                       37P     20
510,227,1,1,79;                                                       39P     21
510,229,1,1,81;                                                       41P     22
510,231,1,1,83;                                                       43P     23
508,4,0,235,1,1,0,0,235,2,1,0,0,235,3,1,0,0,235,4,1,0;                45P     24
508,4,0,235,2,0,0,0,235,5,0,0,0,235,6,0,0,0,235,7,1,0;                47P     25
508,16,0,235,1,0,0,0,235,8,1,0,0,235,9,1,0,0,235,10,0,0,0,235,        49P     26
11,1,0,0,235,12,0,0,0,235,13,1,0,0,235,14,0,0,0,235,15,1,0,0,         49P     27
235,16,1,0,0,235,17,0,0,0,235,18,1,0,0,235,19,1,0,0,235,20,1,0,       49P     28
0,235,21,1,0,0,235,5,1,0;                                             49P     29
508,4,0,235,17,1,0,0,235,22,1,0,0,235,23,1,0,0,235,24,1,0;            51P     30
508,4,0,235,22,0,0,0,235,16,0,0,0,235,25,0,0,0,235,26,0,0;            53P     31
508,4,0,235,27,1,0,0,235,28,1,0,0,235,14,1,0,0,235,29,1,0;            55P     32
508,4,0,235,28,0,0,0,235,30,0,0,0,235,25,1,0,0,235,15,0,0;            57P     33
508,4,0,235,31,1,0,0,235,32,1,0,0,235,10,1,0,0,235,33,1,0;            59P     34
508,6,0,235,32,0,0,0,235,34,0,0,0,235,35,0,0,0,235,36,1,0,0,235,      61P     35
37,0,0,0,235,11,0,0;                                                  61P     36
508,4,0,235,35,1,0,0,235,38,1,0,0,235,39,1,0,0,235,40,1,0;            63P     37
508,4,0,235,40,0,0,0,235,41,1,0,0,235,42,0,0,0,235,36,0,0;            65P     38
508,6,0,235,29,0,0,0,235,13,0,0,0,235,43,0,0,0,235,41,0,0,0,235,      67P     39
39,0,0,0,235,44,0,0;                                                  67P     40
508,4,0,235,43,1,0,0,235,12,1,0,0,235,37,1,0,0,235,42,1,0;            69P     41
508,4,0,235,24,0,0,0,235,45,0,0,0,235,46,1,0,0,235,18,0,0;            71P     42
508,4,0,235,33,0,0,0,235,9,0,0,0,235,47,0,0,0,235,48,0,0;             73P     43
508,4,0,235,4,0,0,0,235,49,0,0,0,235,47,1,0,0,235,8,0,0;              75P     44
508,4,0,235,50,1,0,0,235,6,1,0,0,235,21,0,0,0,235,51,0,0;             77P     45
508,4,0,235,52,0,0,0,235,51,1,0,0,235,20,0,0,0,235,53,0,0;            79P     46
508,4,0,235,54,1,0,0,235,53,1,0,0,235,19,0,0,0,235,46,0,0;            81P     47
508,16,0,235,3,0,0,0,235,7,0,0,0,235,50,0,0,0,235,52,1,0,0,235,       83P     48
54,0,0,0,235,45,1,0,0,235,23,0,0,0,235,26,1,0,0,235,30,1,0,0,         83P     49
235,27,0,0,0,235,44,1,0,0,235,38,0,0,0,235,34,1,0,0,235,31,0,0,       83P     50
0,235,48,1,0,0,235,49,1,0;                                            83P     51
126,2,2,0,0,0,0,-0.785398163397449,-0.785398163397449,                85P     52
-0.785398163397449,0.785398163397448,0.785398163397448,               85P     53
0.785398163397448,1.,0.707106781186548,1.,-10.3,0.5,10.,-10.3,        85P     54
5.,10.,-5.8,5.,10.,-0.785398163397449,0.785398163397448,0.,0.,        85P     55
0.;                                                                   85P     56
126,1,1,0,0,1,0,-1.,-1.,0.,0.,1.,1.,-5.8,5.,10.,-5.8,5.,0.,-1.,       87P     57
0.,0.,0.,0.;                                                          87P     58
126,2,2,0,0,0,0,-0.785398163397448,-0.785398163397448,                89P     59
-0.785398163397448,0.785398163397449,0.785398163397449,               89P     60
0.785398163397449,1.,0.707106781186548,1.,-5.8,5.,0.,-10.3,5.,        89P     61
0.,-10.3,0.5,0.,-0.785398163397448,0.785398163397449,0.,0.,0.;        89P     62
126,1,1,0,0,1,0,0.,0.,1.,1.,1.,1.,-10.3,0.500000000000001,0.,         91P     63
-10.3,0.500000000000001,10.,0.,1.,0.,0.,0.;                           91P     64
126,1,1,0,0,1,0,0.,0.,0.0999999999999999,0.0999999999999999,1.,       93P     65
1.,-4.8,5.,10.,-5.8,5.,10.,0.,0.0999999999999999,0.,0.,0.;            93P     66
126,1,1,0,0,1,0,0.,0.,1.,1.,1.,1.,-4.8,5.,0.,-4.8,5.,10.,0.,1.,       95P     67
0.,0.,0.;                                                             95P     68
126,1,1,0,0,1,0,0.,0.,0.0999999999999999,0.0999999999999999,1.,       97P     69
1.,-4.8,5.,0.,-5.8,5.,0.,0.,0.0999999999999999,0.,0.,0.;              97P     70
126,1,1,0,0,1,0,-0.8,-0.8,0.,0.,1.,1.,-10.3,0.5,10.,-10.3,-7.5,       99P     71
10.,-0.8,0.,0.,0.,0.;                                                 99P     72
126,1,1,0,0,1,0,-0.55,-0.55,-0.4,-0.4,1.,1.,-10.3,-7.5,10.,-8.8,     101P     73
-7.5,10.,-0.55,-0.4,0.,0.,0.;                                        101P     74
126,1,1,0,0,1,0,0.328804653251745,0.328804653251745,                 103P     75
0.894490078200983,0.894490078200983,1.,1.,-4.8,-11.5,10.,-8.8,       103P     76
-7.5,10.,0.328804653251745,0.894490078200983,0.,0.,0.;               103P     77
126,1,1,0,0,1,0,-3.35,-3.35,-0.35,-0.35,1.,1.,-4.8,-11.5,10.,        105P     78
-4.8,-41.5,10.,-3.35,-0.35,0.,0.,0.;                                 105P     79
126,1,1,0,0,1,0,-0.72,-0.72,0.24,0.24,1.,1.,4.8,-41.5,10.,-4.8,      107P     80
-41.5,10.,-0.72,0.24,0.,0.,0.;                                       107P     81
126,1,1,0,0,1,0,-3.4,-3.4,-0.4,-0.4,1.,1.,4.8,-41.5,10.,4.8,         109P     82
-11.5,10.,-3.4,-0.4,0.,0.,0.;                                        109P     83
126,1,1,0,0,1,0,-0.894490078200983,-0.894490078200983,               111P     84
-0.328804653251744,-0.328804653251744,1.,1.,8.8,-7.5,10.,4.8,        111P     85
-11.5,10.,-0.894490078200983,-0.328804653251744,0.,0.,0.;            111P     86
126,1,1,0,0,1,0,-0.15,-0.15,0.,0.,1.,1.,8.8,-7.5,10.,10.3,-7.5,      113P     87
10.,-0.15,0.,0.,0.,0.;                                               113P     88
126,1,1,0,0,1,0,-1.5,-1.5,-0.7,-0.7,1.,1.,10.3,-7.5,10.,10.3,        115P     89
0.499999999999999,10.,-1.5,-0.7,0.,0.,0.;                            115P     90
126,2,2,0,0,0,0,-0.785398163397448,-0.785398163397448,               117P     91
-0.785398163397448,0.785398163397448,0.785398163397448,              117P     92
0.785398163397448,1.,0.707106781186548,1.,5.8,5.,10.,10.3,5.,        117P     93
10.,10.3,0.499999999999999,10.,-0.785398163397448,                   117P     94
0.785398163397448,0.,0.,0.;                                          117P     95
126,1,1,0,0,1,0,-0.1,-0.1,0.,0.,1.,1.,5.8,5.,10.,4.8,5.,10.,         119P     96
-0.1,0.,0.,0.,0.;                                                    119P     97
126,1,1,0,0,1,0,0.,0.,1.,1.,1.,1.,4.8,5.,10.,4.8,-5.,10.,0.,1.,      121P     98
0.,0.,0.;                                                            121P     99
126,1,1,0,0,1,0,-0.96,-0.96,0.,0.,1.,1.,4.8,-5.,10.,-4.8,-5.,        123P    100
10.,-0.96,0.,0.,0.,0.;                                               123P    101
126,1,1,0,0,1,0,0.,0.,1.,1.,1.,1.,-4.8,-5.,10.,-4.8,5.,10.,0.,       125P    102
1.,0.,0.,0.;                                                         125P    103
126,1,1,0,0,1,0,-1.,-1.,0.,0.,1.,1.,10.3,0.499999999999999,10.,      127P    104
10.3,0.499999999999999,0.,-1.,0.,0.,0.,0.;                           127P    105
126,2,2,0,0,0,0,-0.785398163397448,-0.785398163397448,               129P    106
-0.785398163397448,0.785398163397448,0.785398163397448,              129P    107
0.785398163397448,1.,0.707106781186548,1.,10.3,                      129P    108
0.499999999999999,0.,10.3,5.,0.,5.8,5.,0.,-0.785398163397448,        129P    109
0.785398163397448,0.,0.,0.;                                          129P    110
126,1,1,0,0,1,0,0.,0.,1.,1.,1.,1.,5.8,5.,0.,5.8,5.,10.,0.,1.,0.,     131P    111
0.,0.;                                                               131P    112
126,1,1,0,0,1,0,0.,0.,1.,1.,1.,1.,10.3,-7.5,0.,10.3,-7.5,10.,0.,     133P    113
1.,0.,0.,0.;                                                         133P    114
126,1,1,0,0,1,0,0.7,0.7,1.5,1.5,1.,1.,10.3,0.499999999999999,0.,     135P    115
10.3,-7.5,0.,0.7,1.5,0.,0.,0.;                                       135P    116
126,1,1,0,0,1,0,0.328804653251744,0.328804653251744,                 137P    117
0.894490078200983,0.894490078200983,1.,1.,4.8,-11.5,0.,8.8,-7.5,     137P    118
0.,0.328804653251744,0.894490078200983,0.,0.,0.;                     137P    119
126,1,1,0,0,1,0,0.,0.,1.,1.,1.,1.,8.8,-7.5,0.,8.8,-7.5,10.,0.,       139P    120
1.,0.,0.,0.;                                                         139P    121
126,1,1,0,0,1,0,-1.,-1.,0.,0.,1.,1.,4.8,-11.5,10.,4.8,-11.5,0.,      141P    122
-1.,0.,0.,0.,0.;                                                     141P    123
126,1,1,0,0,1,0,0.,0.,0.15,0.15,1.,1.,10.3,-7.5,0.,8.8,-7.5,0.,      143P    124
0.,0.15,0.,0.,0.;                                                    143P    125
126,1,1,0,0,1,0,-0.894490078200983,-0.894490078200983,               145P    126
-0.328804653251745,-0.328804653251745,1.,1.,-8.8,-7.5,0.,-4.8,       145P    127
-11.5,0.,-0.894490078200983,-0.328804653251745,0.,0.,0.;             145P    128
126,1,1,0,0,1,0,0.,0.,1.,1.,1.,1.,-4.8,-11.5,0.,-4.8,-11.5,10.,      147P    129
0.,1.,0.,0.,0.;                                                      147P    130
126,1,1,0,0,1,0,-1.,-1.,0.,0.,1.,1.,-8.8,-7.5,10.,-8.8,-7.5,0.,      149P    131
-1.,0.,0.,0.,0.;                                                     149P    132
126,1,1,0,0,1,0,0.35,0.35,3.35,3.35,1.,1.,-4.8,-41.5,0.,-4.8,        151P    133
-11.5,0.,0.35,3.35,0.,0.,0.;                                         151P    134
126,2,2,0,0,0,0,-0.785398163397449,-0.785398163397449,               153P    135
-0.785398163397449,0.785398163397448,0.785398163397448,              153P    136
0.785398163397448,1.,0.707106781186553,1.,-4.8,-45.,3.5,-4.8,        153P    137
-45.,0.,-4.8,-41.5,0.,-0.785398163397449,0.785398163397448,0.,       153P    138
0.,0.;                                                               153P    139
126,1,1,0,0,1,0,0.35,0.35,0.65,0.65,1.,1.,-4.8,-45.,3.5,-4.8,        155P    140
-45.,6.5,0.35,0.65,0.,0.,0.;                                         155P    141
126,2,2,0,0,0,0,-0.785398163397448,-0.785398163397448,               157P    142
-0.785398163397448,0.785398163397449,0.785398163397449,              157P    143
0.785398163397449,1.,0.707106781186553,1.,-4.8,-41.5,10.,-4.8,       157P    144
-45.,10.,-4.8,-45.,6.5,-0.785398163397448,0.785398163397449,0.,      157P    145
0.,0.;                                                               157P    146
126,1,1,0,0,1,0,-0.24,-0.24,0.72,0.72,1.,1.,-4.8,-41.5,0.,4.8,       159P    147
-41.5,0.,-0.24,0.72,0.,0.,0.;                                        159P    148
126,2,2,0,0,0,0,-0.785398163397448,-0.785398163397448,               161P    149
-0.785398163397448,0.785398163397449,0.785398163397449,              161P    150
0.785398163397449,1.,0.707106781186553,1.,4.8,-41.5,0.,4.8,-45.,     161P    151
0.,4.8,-45.,3.5,-0.785398163397448,0.785398163397449,0.,0.,0.;       161P    152
126,1,1,0,0,1,0,-0.72,-0.72,0.24,0.24,1.,1.,4.8,-45.,3.5,-4.8,       163P    153
-45.,3.5,-0.72,0.24,0.,0.,0.;                                        163P    154
126,1,1,0,0,1,0,0.35,0.35,0.65,0.65,1.,1.,4.8,-45.,3.5,4.8,-45.,     165P    155
6.5,0.35,0.65,0.,0.,0.;                                              165P    156
126,1,1,0,0,1,0,-0.24,-0.24,0.72,0.72,1.,1.,-4.8,-45.,6.5,4.8,       167P    157
-45.,6.5,-0.24,0.72,0.,0.,0.;                                        167P    158
126,2,2,0,0,0,0,-0.785398163397449,-0.785398163397449,               169P    159
-0.785398163397449,0.785398163397448,0.785398163397448,              169P    160
0.785398163397448,1.,0.707106781186553,1.,4.8,-45.,6.5,4.8,-45.,     169P    161
10.,4.8,-41.5,10.,-0.785398163397449,0.785398163397448,0.,0.,0.;     169P    162
126,1,1,0,0,1,0,0.4,0.4,3.4,3.4,1.,1.,4.8,-11.5,0.,4.8,-41.5,0.,     171P    163
0.4,3.4,0.,0.,0.;                                                    171P    164
126,1,1,0,0,1,0,0.,0.,0.1,0.1,1.,1.,4.8,5.,0.,5.8,5.,0.,0.,0.1,      173P    165
0.,0.,0.;                                                            173P    166
126,1,1,0,0,1,0,0.,0.,1.,1.,1.,1.,4.8,5.,0.,4.8,5.,10.,0.,1.,0.,     175P    167
0.,0.;                                                               175P    168
126,1,1,0,0,1,0,0.,0.,1.,1.,1.,1.,-10.3,-7.5,0.,-10.3,-7.5,10.,      177P    169
0.,1.,0.,0.,0.;                                                      177P    170
126,1,1,0,0,1,0,0.4,0.4,0.55,0.55,1.,1.,-8.8,-7.5,0.,-10.3,-7.5,     179P    171
0.,0.4,0.55,0.,0.,0.;                                                179P    172
126,1,1,0,0,1,0,0.,0.,0.8,0.8,1.,1.,-10.3,-7.5,0.,-10.3,0.5,0.,      181P    173
0.,0.8,0.,0.,0.;                                                     181P    174
126,1,1,0,0,1,0,0.,0.,1.,1.,1.,1.,-4.8,-5.,0.,-4.8,5.,0.,0.,1.,      183P    175
0.,0.,0.;                                                            183P    176
126,1,1,0,0,1,0,0.,0.,1.,1.,1.,1.,-4.8,-5.,0.,-4.8,-5.,10.,0.,       185P    177
1.,0.,0.,0.;                                                         185P    178
126,1,1,0,0,1,0,0.,0.,0.96,0.96,1.,1.,-4.8,-5.,0.,4.8,-5.,0.,0.,     187P    179
0.96,0.,0.,0.;                                                       187P    180
126,1,1,0,0,1,0,0.,0.,1.,1.,1.,1.,4.8,-5.,0.,4.8,-5.,10.,0.,1.,      189P    181
0.,0.,0.;                                                            189P    182
126,1,1,0,0,1,0,0.,0.,1.,1.,1.,1.,4.8,5.,0.,4.8,-5.,0.,0.,1.,0.,     191P    183
0.,0.;                                                               191P    184
128,1,2,1,2,0,0,0,0,0,0.,0.,2.22222222222222,2.22222222222222,       193P    185
-0.785398163397448,-0.785398163397448,-0.785398163397448,            193P    186
0.785398163397449,0.785398163397449,0.785398163397449,1.,1.,         193P    187
0.707106781186547,0.707106781186547,1.,1.,-5.8,5.,10.,-5.8,5.,       193P    188
0.,-10.3,5.,10.,-10.3,5.,0.,-10.3,0.5,10.,-10.3,0.5,0.,0.,           193P    189
2.22222222222222,-0.785398163397448,0.785398163397449;               193P    190
128,1,1,1,1,0,0,1,0,0,-0.001,-0.001,0.101,0.101,-0.001,-0.001,       195P    191
1.001,1.001,1.,1.,1.,1.,-4.79,5.,-0.01,-5.81,5.,-0.01,-4.79,5.,      195P    192
10.01,-5.81,5.,10.01,-0.001,0.101,-0.001,1.001;                      195P    193
128,1,1,1,1,0,0,1,0,0,-1.031,-1.031,1.031,1.031,-2.151,-2.151,       197P    194
2.501,2.501,1.,1.,1.,1.,-10.31,-41.51,10.,10.31,-41.51,10.,          197P    195
-10.31,5.01,10.,10.31,5.01,10.,-1.031,1.031,-2.151,2.501;            197P    196
128,1,2,1,2,0,0,0,0,0,0.,0.,2.22222222222222,2.22222222222222,       199P    197
-0.785398163397448,-0.785398163397448,-0.785398163397448,            199P    198
0.785398163397448,0.785398163397448,0.785398163397448,1.,1.,         199P    199
0.707106781186548,0.707106781186548,1.,1.,10.3,                      199P    200
0.499999999999999,10.,10.3,0.499999999999999,0.,10.3,5.,10.,         199P    201
10.3,5.,0.,5.8,5.,10.,5.8,5.,0.,0.,2.22222222222222,                 199P    202
-0.785398163397448,0.785398163397448;                                199P    203
128,1,1,1,1,0,0,1,0,0,-0.00100000000000011,-0.00100000000000011,     201P    204
0.801,0.801,-0.001,-0.001,1.001,1.001,1.,1.,1.,1.,10.3,-7.51,        201P    205
-0.01,10.3,0.509999999999999,-0.01,10.3,-7.51,10.01,10.3,            201P    206
0.509999999999999,10.01,-0.00100000000000011,0.801,-0.001,1.001;     201P    207
128,1,1,1,1,0,0,1,0,0,-1.001,-1.001,0.00099999999999989,             203P    208
0.00099999999999989,-0.283842712474619,-0.283842712474619,           203P    209
0.283842712474619,0.283842712474619,1.,1.,1.,1.,                     203P    210
4.79292893218814,-11.5070710678119,10.01,4.79292893218814,           203P    211
-11.5070710678119,-0.01,8.80707106781187,-7.49292893218814,          203P    212
10.01,8.80707106781187,-7.49292893218813,-0.01,-1.001,               203P    213
0.00099999999999989,-0.283842712474619,0.283842712474619;            203P    214
128,1,1,1,1,0,0,1,0,0,0.399,0.399,0.551,0.551,-0.001,-0.001,         205P    215
1.001,1.001,1.,1.,1.,1.,8.79,-7.5,-0.01,10.31,-7.5,-0.01,8.79,       205P    216
-7.5,10.01,10.31,-7.5,10.01,0.399,0.551,-0.001,1.001;                205P    217
128,1,1,1,1,0,0,1,0,0,-0.001,-0.001,1.001,1.001,                     207P    218
-0.283842712474619,-0.283842712474619,0.283842712474619,             207P    219
0.283842712474619,1.,1.,1.,1.,-4.79292893218813,                     207P    220
-11.5070710678119,-0.01,-4.79292893218813,-11.5070710678119,         207P    221
10.01,-8.80707106781187,-7.49292893218813,-0.01,                     207P    222
-8.80707106781187,-7.49292893218813,10.01,-0.001,1.001,              207P    223
-0.283842712474619,0.283842712474619;                                207P    224
128,1,1,1,1,0,0,1,0,0,0.399,0.399,3.751,3.751,-0.001,-0.001,         209P    225
1.001,1.001,1.,1.,1.,1.,-4.8,-11.49,-0.01,-4.8,-45.01,-0.01,         209P    226
-4.8,-11.49,10.01,-4.8,-45.01,10.01,0.399,3.751,-0.001,1.001;        209P    227
128,1,2,1,2,0,0,0,0,0,-2.05714285714286,-2.05714285714286,           211P    228
0.685714285714286,0.685714285714286,-0.785398163397448,              211P    229
-0.785398163397448,-0.785398163397448,0.785398163397449,             211P    230
0.785398163397449,0.785398163397449,1.,1.,0.707106781186548,         211P    231
0.707106781186548,1.,1.,-4.8,-41.5,2.77555756156289D-15,4.8,         211P    232
-41.5,2.77555756156289D-15,-4.8,-45.,-1.66533453693773D-15,4.8,      211P    233
-45.,-1.66533453693773D-15,-4.8,-45.,3.5,4.8,-45.,3.5,               211P    234
-2.05714285714286,0.685714285714286,-0.785398163397448,              211P    235
0.785398163397449;                                                   211P    236
128,1,1,1,1,0,0,1,0,0,-0.001,-0.001,0.961,0.961,0.349,0.349,         213P    237
0.651,0.651,1.,1.,1.,1.,-4.81,-45.,3.49,4.81,-45.,3.49,-4.81,        213P    238
-45.,6.51,4.81,-45.,6.51,-0.001,0.961,0.349,0.651;                   213P    239
128,1,1,1,1,0,0,1,0,0,-0.001,-0.001,3.351,3.351,-0.001,-0.001,       215P    240
1.001,1.001,1.,1.,1.,1.,4.8,-45.01,-0.01,4.8,-11.49,-0.01,4.8,       215P    241
-45.01,10.01,4.8,-11.49,10.01,-0.001,3.351,-0.001,1.001;             215P    242
128,1,2,1,2,0,0,0,0,0,-0.685714285714286,-0.685714285714286,         217P    243
2.05714285714286,2.05714285714286,-0.785398163397448,                217P    244
-0.785398163397448,-0.785398163397448,0.785398163397449,             217P    245
0.785398163397449,0.785398163397449,1.,1.,0.707106781186548,         217P    246
0.707106781186548,1.,1.,4.8,-41.5,10.,-4.8,-41.5,10.,4.8,-45.,       217P    247
10.,-4.8,-45.,10.,4.8,-45.,6.5,-4.8,-45.,6.5,-0.685714285714286,     217P    248
2.05714285714286,-0.785398163397448,0.785398163397449;               217P    249
128,1,1,1,1,0,0,1,0,0,0.449,0.449,0.551,0.551,-0.001,-0.001,         219P    250
1.001,1.001,1.,1.,1.,1.,5.81,5.,-0.01,4.79,5.,-0.01,5.81,5.,         219P    251
10.01,4.79,5.,10.01,0.449,0.551,-0.001,1.001;                        219P    252
128,1,1,1,1,0,0,1,0,0,-0.001,-0.001,0.151,0.151,-0.001,-0.001,       221P    253
1.001,1.001,1.,1.,1.,1.,-10.31,-7.5,-0.01,-8.79,-7.5,-0.01,          221P    254
-10.31,-7.5,10.01,-8.79,-7.5,10.01,-0.001,0.151,-0.001,1.001;        221P    255
128,1,1,1,1,0,0,1,0,0,0.449,0.449,1.251,1.251,-0.001,-0.001,         223P    256
1.001,1.001,1.,1.,1.,1.,-10.3,0.510000000000001,-0.01,-10.3,         223P    257
-7.51,-0.01,-10.3,0.510000000000001,10.01,-10.3,-7.51,10.01,         223P    258
0.449,1.251,-0.001,1.001;                                            223P    259
128,1,1,1,1,0,0,1,0,0,-0.001,-0.001,1.001,1.001,-0.001,-0.001,       225P    260
1.001,1.001,1.,1.,1.,1.,-4.8,-5.01,-0.01,-4.8,5.01,-0.01,-4.8,       225P    261
-5.01,10.01,-4.8,5.01,10.01,-0.001,1.001,-0.001,1.001;               225P    262
128,1,1,1,1,0,0,1,0,0,-0.001,-0.001,0.961,0.961,-0.001,-0.001,       227P    263
1.001,1.001,1.,1.,1.,1.,4.81,-5.,-0.01,-4.81,-5.,-0.01,4.81,-5.,     227P    264
10.01,-4.81,-5.,10.01,-0.001,0.961,-0.001,1.001;                     227P    265
128,1,1,1,1,0,0,1,0,0,-0.001,-0.001,1.001,1.001,-0.001,-0.001,       229P    266
1.001,1.001,1.,1.,1.,1.,4.8,5.01,-0.01,4.8,-5.01,-0.01,4.8,5.01,     229P    267
10.01,4.8,-5.01,10.01,-0.001,1.001,-0.001,1.001;                     229P    268
128,1,1,1,1,0,0,1,0,0,-1.031,-1.031,1.031,1.031,-2.151,-2.151,       231P    269
2.501,2.501,1.,1.,1.,1.,10.31,-41.51,0.,-10.31,-41.51,0.,10.31,      231P    270
5.01,0.,-10.31,5.01,0.,-1.031,1.031,-2.151,2.501;                    231P    271
502,36,-10.3,0.5,10.,-5.8,5.,10.,-5.8,5.,0.,-10.3,0.5,0.,-4.8,       233P    272
5.,10.,-4.8,5.,0.,-10.3,-7.5,10.,-8.8,-7.5,10.,-4.8,-11.5,10.,       233P    273
-4.8,-41.5,10.,4.8,-41.5,10.,4.8,-11.5,10.,8.8,-7.5,10.,10.3,        233P    274
-7.5,10.,10.3,0.499999999999999,10.,5.8,5.,10.,4.8,5.,10.,4.8,       233P    275
-5.,10.,-4.8,-5.,10.,10.3,0.499999999999999,0.,5.8,5.,0.,10.3,       233P    276
-7.5,0.,4.8,-11.5,0.,8.8,-7.5,0.,-8.8,-7.5,0.,-4.8,-11.5,0.,         233P    277
-4.8,-41.5,0.,-4.8,-45.,3.5,-4.8,-45.,6.5,4.8,-41.5,0.,4.8,-45.,     233P    278
3.5,4.8,-45.,6.5,4.8,5.,0.,-10.3,-7.5,0.,-4.8,-5.,0.,4.8,-5.,0.;     233P    279
504,54,85,233,1,233,2,87,233,2,233,3,89,233,3,233,4,91,233,4,        235P    280
233,1,93,233,5,233,2,95,233,6,233,5,97,233,6,233,3,99,233,1,233,     235P    281
7,101,233,7,233,8,103,233,9,233,8,105,233,9,233,10,107,233,11,       235P    282
233,10,109,233,11,233,12,111,233,13,233,12,113,233,13,233,14,        235P    283
115,233,14,233,15,117,233,16,233,15,119,233,16,233,17,121,233,       235P    284
17,233,18,123,233,18,233,19,125,233,19,233,5,127,233,15,233,20,      235P    285
129,233,20,233,21,131,233,21,233,16,133,233,22,233,14,135,233,       235P    286
20,233,22,137,233,23,233,24,139,233,24,233,13,141,233,12,233,23,     235P    287
143,233,22,233,24,145,233,25,233,26,147,233,26,233,9,149,233,8,      235P    288
233,25,151,233,27,233,26,153,233,28,233,27,155,233,28,233,29,        235P    289
157,233,10,233,29,159,233,27,233,30,161,233,30,233,31,163,233,       235P    290
31,233,28,165,233,31,233,32,167,233,29,233,32,169,233,32,233,11,     235P    291
171,233,23,233,30,173,233,33,233,21,175,233,33,233,17,177,233,       235P    292
34,233,7,179,233,25,233,34,181,233,34,233,4,183,233,35,233,6,        235P    293
185,233,35,233,19,187,233,35,233,36,189,233,36,233,18,191,233,       235P    294
33,233,36;                                                           235P    295
406,1,5HBody1;                                                       237P    296
314,62.7450980392157,62.7450980392157,62.7450980392157,13HSteel      239P    297
- Satin;                                                             239P    298
S      1G      3D    240P    298                                        T      1
