0
SECTION
2
HEADER
9
$INSUNITS
70
4
9
$ACADVER
1
AC1014
9
$HANDSEED
5
FFFF
0
ENDSEC
0
SECTION
2
TABLES
0
TABLE
2
VPORT
5
8
100
AcDbSymbolTable
0
ENDTAB
0
TABLE
2
LTYPE
5
5
100
AcDbSymbolTable
0
LTYPE
5
14
100
AcDbSymbolTableRecord
100
AcDbLinetypeTableRecord
2
BYBLOCK
70
0
0
LTYPE
5
15
100
AcDbSymbolTableRecord
100
AcDbLinetypeTableRecord
2
BYLAYER
70
0
0
ENDTAB
0
TABLE
2
LAYER
5
2
100
AcDbSymbolTable
70
2
0
LAYER
5
50
100
AcDbSymbolTableRecord
100
AcDbLayerTableRecord
2
0
70
0
6
CONTINUOUS
0
ENDTAB
0
TABLE
2
STYLE
5
3
100
AcDbSymbolTable
70
1
0
STYLE
5
11
100
AcDbSymbolTableRecord
100
AcDbTextStyleTableRecord
2
STANDARD
70
0
0
ENDTAB
0
TABLE
2
VIEW
5
6
100
AcDbSymbolTable
70
0
0
ENDTAB
0
TABLE
2
UCS
5
7
100
AcDbSymbolTable
70
0
0
ENDTAB
0
TABLE
2
APPID
5
9
100
AcDbSymbolTable
70
2
0
APPID
5
12
100
AcDbSymbolTableRecord
100
AcDbRegAppTableRecord
2
ACAD
70
0
0
ENDTAB
0
TABLE
2
DIMSTYLE
5
A
100
AcDbSymbolTable
70
1
0
ENDTAB
0
TABLE
2
BLOCK_RECORD
5
1
100
AcDbSymbolTable
70
1
0
BLOCK_RECORD
5
1F
100
AcDbSymbolTableRecord
100
AcDbBlockTableRecord
2
*MODEL_SPACE
0
BLOCK_RECORD
5
1B
100
AcDbSymbolTableRecord
100
AcDbBlockTableRecord
2
*PAPER_SPACE
0
ENDTAB
0
ENDSEC
0
SECTION
2
BLOCKS
0
BLOCK
5
20
100
AcDbEntity
100
AcDbBlockBegin
2
*MODEL_SPACE
0
ENDBLK
5
21
100
AcDbEntity
100
AcDbBlockEnd
0
BLOCK
5
1C
100
AcDbEntity
100
AcDbBlockBegin
2
*PAPER_SPACE
0
ENDBLK
5
1D
100
AcDbEntity
100
AcDbBlockEnd
0
ENDSEC
0
SECTION
2
ENTITIES
0
CIRCLE
5
100
100
AcDbEntity
8
0
100
AcDbCircle
10
0
20
0
30
0
40
37.5
210
0
220
0
230
1
0
CIRCLE
5
101
100
AcDbEntity
8
0
100
AcDbCircle
10
41.195558986173459
20
26.203068297713266
30
0
40
5.0000000000000018
210
0
220
0
230
1
0
SPLINE
5
102
100
AcDbEntity
8
0
100
AcDbSpline
70
4
71
5
72
123
73
117
74
0
42
0.000000001
43
0.0000000001
44
0.0000000001
40
0.92424105989962002
40
0.92424105989962002
40
0.92424105989962002
40
0.92424105989962002
40
0.92424105989962002
40
0.92424105989962002
40
0.92727272727272492
40
0.93636363636363396
40
0.94545454545454299
40
0.95454545454545203
40
0.96363636363636107
40
0.97272727272727011
40
0.98181818181817915
40
0.99090909090908819
40
1
40
1
40
1
40
1
40
1
40
1.009090909090909
40
1.0181818181818181
40
1.0272727272727273
40
1.0363636363636364
40
1.0454545454545454
40
1.0545454545454545
40
1.0636363636363637
40
1.0727272727272728
40
1.0818181818181818
40
1.0909090909090908
40
1.1000000000000001
40
1.1090909090909091
40
1.1181818181818182
40
1.1272727272727272
40
1.1363636363636365
40
1.1454545454545455
40
1.1545454545454545
40
1.1636363636363636
40
1.1727272727272728
40
1.1818181818181819
40
1.1909090909090909
40
1.2
40
1.2090909090909092
40
1.2181818181818183
40
1.2272727272727273
40
1.2363636363636363
40
1.2454545454545456
40
1.2545454545454546
40
1.2636363636363637
40
1.2727272727272727
40
1.2818181818181817
40
1.290909090909091
40
1.3
40
1.3090909090909091
40
1.3181818181818183
40
1.3272727272727274
40
1.3363636363636364
40
1.3454545454545455
40
1.3545454545454545
40
1.3636363636363638
40
1.3727272727272728
40
1.3818181818181818
40
1.3909090909090911
40
1.4000000000000001
40
1.4090909090909092
40
1.4181818181818182
40
1.4272727272727272
40
1.4363636363636365
40
1.4454545454545455
40
1.4545454545454546
40
1.4636363636363638
40
1.4727272727272729
40
1.4818181818181819
40
1.490909090909091
40
1.5
40
1.5090909090909093
40
1.5181818181818181
40
1.5272727272727273
40
1.5363636363636362
40
1.5454545454545454
40
1.5545454545454542
40
1.5636363636363635
40
1.5727272727272723
40
1.5818181818181816
40
1.5909090909090904
40
1.5999999999999996
40
1.6090909090909085
40
1.6181818181818177
40
1.6272727272727265
40
1.6363636363636358
40
1.6454545454545446
40
1.6545454545454539
40
1.6636363636363627
40
1.672727272727272
40
1.6818181818181808
40
1.69090909090909
40
1.6999999999999988
40
1.7090909090909081
40
1.7181818181818169
40
1.7272727272727262
40
1.736363636363635
40
1.7454545454545443
40
1.7545454545454531
40
1.7636363636363623
40
1.7727272727272712
40
1.7818181818181804
40
1.7909090909090892
40
1.7999999999999985
40
1.8090909090909073
40
1.8181818181818166
40
1.8272727272727254
40
1.8363636363636346
40
1.8454545454545435
40
1.8545454545454527
40
1.8636363636363615
40
1.8727272727272708
40
1.8818181818181796
40
1.8909090909090889
40
1.8953242610975654
40
1.8953242610975654
40
1.8953242610975654
40
1.8953242610975654
40
1.8953242610975654
40
1.8953242610975654
41
1
41
1
41
1
41
1
41
1
41
1
41
1
41
1
41
1
41
1
41
1
41
1
41
1
41
1
41
1
41
1
41
1
41
1
41
1
41
1
41
1
41
1
41
1
41
1
41
1
41
1
41
1
41
1
41
1
41
1
41
1
41
1
41
1
41
1
41
1
41
1
41
1
41
1
41
1
41
1
41
1
41
1
41
1
41
1
41
1
41
1
41
1
41
1
41
1
41
1
41
1
41
1
41
1
41
1
41
1
41
1
41
1
41
1
41
1
41
1
41
1
41
1
41
1
41
1
41
1
41
1
41
1
41
1
41
1
41
1
41
1
41
1
41
1
41
1
41
1
41
1
41
1
41
1
41
1
41
1
41
1
41
1
41
1
41
1
41
1
41
1
41
1
41
1
41
1
41
1
41
1
41
1
41
1
41
1
41
1
41
1
41
1
41
1
41
1
41
1
41
1
41
1
41
1
41
1
41
1
41
1
41
1
41
1
41
1
41
1
41
1
41
1
41
1
41
1
41
1
41
1
41
1
10
-34.124787569735503
20
15.548282703336485
30
0
10
-34.289183313048568
20
15.736181215061528
30
0
10
-35.001882001629227
20
16.448024421094711
30
0
10
-36.630505617435546
20
17.405479161027088
30
0
10
-39.822491950594177
20
17.975065358525018
30
0
10
-44.861058841182626
20
17.587370156560755
30
0
10
-50.220556838543757
20
16.901435743703829
30
0
10
-53.527372093335359
20
17.439403270247269
30
0
10
-53.930984591520726
20
20.02844464032778
30
0
10
-51.715011335451841
20
24.395153404035185
30
0
10
-48.549067915488912
20
28.613682429691181
30
0
10
-45.87185450599015
20
31.688106541713729
30
0
10
-44.059327605301561
20
33.575068294333811
30
0
10
-43.153662072031224
20
34.467340377720284
30
0
10
-42.247996538761129
20
35.359612461106479
30
0
10
-40.437861306369143
20
37.041739042031537
30
0
10
-37.771410403967472
20
39.194404881247053
30
0
10
-34.354441401052433
20
41.186073829431507
30
0
10
-30.017673556271163
20
42.308635044275192
30
0
10
-25.246700770188436
20
42.458380749956149
30
0
10
-19.876745556421575
20
42.191516498054327
30
0
10
-14.33940084250912
20
42.073306915126487
30
0
10
-9.6411598120789517
20
42.586237527577985
30
0
10
-6.8286760869539567
20
44.105822965576991
30
0
10
-6.6326183087175918
20
46.862689757788338
30
0
10
-8.9316245937395369
20
50.901046810502365
30
0
10
-12.862074596260557
20
56.087425762978178
30
0
10
-17.195304078271683
20
62.145412065590556
30
0
10
-20.640796400923552
20
68.681169841225483
30
0
10
-22.157271450610377
20
75.214288258086086
30
0
10
-21.314962095707244
20
81.202560391648575
30
0
10
-18.461376201230198
20
86.081248140274752
30
0
10
-14.351589459758623
20
89.337713048106053
30
0
10
-9.8763172515737772
20
90.580446095565549
30
0
10
-5.7586942684901778
20
89.608373887328185
30
0
10
-2.244752786451254
20
86.485478481953578
30
0
10
0.76978166721265029
20
81.493598660148308
30
0
10
3.5862647408702424
20
75.07805840197274
30
0
10
6.5537129623726011
20
67.795476198794361
30
0
10
9.93174837449466
20
60.261946364646171
30
0
10
13.713296282273701
20
53.098045038740203
30
0
10
17.62836819353339
20
46.889701367880114
30
0
10
21.259479114831258
20
42.159400746133755
30
0
10
24.124353549279654
20
39.333658047723375
30
0
10
25.769438882546552
20
38.713217981754852
30
0
10
25.865160557276692
20
40.439066933461163
30
0
10
24.280425464704702
20
44.469474551210155
30
0
10
21.096256396175264
20
50.585223321449504
30
0
10
16.626283394572322
20
58.391202293464517
30
0
10
11.444406459493146
20
67.3160109724015
30
0
10
6.3871026760886283
20
76.619939877322565
30
0
10
2.6215109177786502
20
85.380770253566226
30
0
10
1.4924647986358837
20
92.551181212863384
30
0
10
3.9130392973504429
20
97.133237215671272
30
0
10
9.9257462604057807
20
98.340973381066277
30
0
10
18.051225789143142
20
95.737736484916553
30
0
10
24.979525619688438
20
89.453709214436543
30
0
10
29.727180107354307
20
80.354334140385944
30
0
10
32.244348642811062
20
69.732098165649987
30
0
10
33.285060309011271
20
59.122503082054038
30
0
10
33.844230448043419
20
50.069853378666586
30
0
10
34.618750313536374
20
43.914545062683104
30
0
10
35.834664515384432
20
41.571002795967978
30
0
10
35.980126614887503
20
43.310911549459789
30
0
10
34.745820765356072
20
48.501768754007983
30
0
10
32.944989031168596
20
55.940355364246848
30
0
10
31.743020448867455
20
64.145657190506853
30
0
10
32.244588047934187
20
71.646249463875733
30
0
10
34.810960775754658
20
77.317448439953907
30
0
10
38.924154878729638
20
80.521620845799731
30
0
10
43.659833297093257
20
80.997010479501753
30
0
10
47.985592040947516
20
78.810061408772498
30
0
10
51.184537204342782
20
74.283764287997059
30
0
10
53.037749565636531
20
67.930815308926086
30
0
10
53.650819796751428
20
60.370489314242434
30
0
10
53.360153010972212
20
52.251003963006859
30
0
10
52.605789308545141
20
44.168055722855343
30
0
10
51.822496159099927
20
36.588639346571384
30
0
10
51.313744558751893
20
29.76378711271828
30
0
10
51.160911489381476
20
23.672326783232108
30
0
10
51.294008835113075
20
18.118948041826744
30
0
10
51.54066454189482
20
12.810588717346922
30
0
10
51.685165447446302
20
7.444029660973694
30
0
10
51.519260201947652
20
1.7821117838264458
30
0
10
50.906547014306881
20
-4.2482615848265768
30
0
10
49.780622761952024
20
-10.56885319700018
30
0
10
48.119284545215947
20
-17.003159347133725
30
0
10
45.92673850919374
20
-23.316031873505402
30
0
10
43.212103892230481
20
-29.259346108583465
30
0
10
39.970414550081905
20
-34.613937869121344
30
0
10
36.160128201147089
20
-39.236180432957575
30
0
10
31.725143200623222
20
-43.046675303825282
30
0
10
26.619246408842301
20
-46.014970157746681
30
0
10
20.8311816980953
20
-48.145466480041428
30
0
10
14.406101362758124
20
-49.463441775921744
30
0
10
7.4769309177666674
20
-49.999574975250042
30
0
10
0.2575920533437932
20
-49.781034043696678
30
0
10
-6.9991338951791349
20
-48.828531005829383
30
0
10
-14.033429996573595
20
-47.151993392903442
30
0
10
-20.615512860968188
20
-44.746186998880802
30
0
10
-26.578090697108188
20
-41.587762317815404
30
0
10
-31.856504450288611
20
-37.628315038649902
30
0
10
-36.508788733460094
20
-32.799134387004308
30
0
10
-40.647613327431472
20
-27.068286104084894
30
0
10
-44.37880213821478
20
-20.493847534089689
30
0
10
-47.747807241525848
20
-13.272325475162468
30
0
10
-50.6588416557816
20
-5.8036845748299442
30
0
10
-52.861404674440926
20
1.2844950214930562
30
0
10
-53.772545928148226
20
7.0104604115313007
30
0
10
-52.864267004372806
20
10.34190379235323
30
0
10
-49.900631445164052
20
10.721489666421709
30
0
10
-46.038531880673389
20
8.5959039396178376
30
0
10
-42.656214820026257
20
6.0361413125015551
30
0
10
-40.139841622852863
20
4.8256411175548095
30
0
10
-38.430186386324309
20
4.7390324171019484
30
0
10
-37.463005281954466
20
4.976216387527062
30
0
10
-37.153736274703697
20
5.084278695078126
30
0
0
ENDSEC
0
SECTION
2
OBJECTS
0
DICTIONARY
5
C
100
AcDbDictionary
3
ACAD_GROUP
350
D
3
ACAD_MLINESTYLE
350
17
0
DICTIONARY
5
D
100
AcDbDictionary
0
DICTIONARY
5
1A
330
C
100
AcDbDictionary
0
DICTIONARY
5
17
100
AcDbDictionary
0
ENDSEC
0
EOF
