0
SECTION
2
HEADER
9
$INSUNITS
70
4
9
$ACADVER
1
AC1014
9
$HANDSEED
5
FFFF
0
ENDSEC
0
SECTION
2
TABLES
0
TABLE
2
VPORT
5
8
100
AcDbSymbolTable
0
ENDTAB
0
TABLE
2
LTYPE
5
5
100
AcDbSymbolTable
0
LTYPE
5
14
100
AcDbSymbolTableRecord
100
AcDbLinetypeTableRecord
2
BYBLOCK
70
0
0
LTYPE
5
15
100
AcDbSymbolTableRecord
100
AcDbLinetypeTableRecord
2
BYLAYER
70
0
0
ENDTAB
0
TABLE
2
LAYER
5
2
100
AcDbSymbolTable
70
2
0
LAYER
5
50
100
AcDbSymbolTableRecord
100
AcDbLayerTableRecord
2
0
70
0
6
CONTINUOUS
0
ENDTAB
0
TABLE
2
STYLE
5
3
100
AcDbSymbolTable
70
1
0
STYLE
5
11
100
AcDbSymbolTableRecord
100
AcDbTextStyleTableRecord
2
STANDARD
70
0
0
ENDTAB
0
TABLE
2
VIEW
5
6
100
AcDbSymbolTable
70
0
0
ENDTAB
0
TABLE
2
UCS
5
7
100
AcDbSymbolTable
70
0
0
ENDTAB
0
TABLE
2
APPID
5
9
100
AcDbSymbolTable
70
2
0
APPID
5
12
100
AcDbSymbolTableRecord
100
AcDbRegAppTableRecord
2
ACAD
70
0
0
ENDTAB
0
TABLE
2
DIMSTYLE
5
A
100
AcDbSymbolTable
70
1
0
ENDTAB
0
TABLE
2
BLOCK_RECORD
5
1
100
AcDbSymbolTable
70
1
0
BLOCK_RECORD
5
1F
100
AcDbSymbolTableRecord
100
AcDbBlockTableRecord
2
*MODEL_SPACE
0
BLOCK_RECORD
5
1B
100
AcDbSymbolTableRecord
100
AcDbBlockTableRecord
2
*PAPER_SPACE
0
ENDTAB
0
ENDSEC
0
SECTION
2
BLOCKS
0
BLOCK
5
20
100
AcDbEntity
100
AcDbBlockBegin
2
*MODEL_SPACE
0
ENDBLK
5
21
100
AcDbEntity
100
AcDbBlockEnd
0
BLOCK
5
1C
100
AcDbEntity
100
AcDbBlockBegin
2
*PAPER_SPACE
0
ENDBLK
5
1D
100
AcDbEntity
100
AcDbBlockEnd
0
ENDSEC
0
SECTION
2
ENTITIES
0
LWPOLYLINE
5
100
100
AcDbEntity
8
0
100
AcDbPolyline
90
4
70
1
43
0.0
10
-45
20
-24.799999999999997
10
45
20
-24.799999999999997
10
45
20
4.2000000000000259
10
-45
20
4.2000000000000277
0
LINE
5
101
100
AcDbEntity
8
0
100
AcDbLine
10
0
20
4.2000000000000259
30
0
11
-2.1936430312751851e-16
21
-1.799999999999975
31
0
0
LINE
5
102
100
AcDbEntity
8
0
100
AcDbLine
10
-2.1936430312751851e-16
20
-1.799999999999975
30
0
11
28.100000000000005
21
-1.7999999999999816
31
0
0
CIRCLE
5
103
100
AcDbEntity
8
0
100
AcDbCircle
10
28.100000000000005
20
-1.7999999999999816
30
0
40
3.0000000000000004
210
0
220
0
230
1
0
LINE
5
104
100
AcDbEntity
8
0
100
AcDbLine
10
0
20
-15.799999999999986
30
0
11
0
21
4.2000000000000304
31
0
0
CIRCLE
5
105
100
AcDbEntity
8
0
100
AcDbCircle
10
-28.100000000000005
20
-1.7999999999999816
30
0
40
3.0000000000000004
210
0
220
0
230
1
0
LWPOLYLINE
5
106
100
AcDbEntity
8
0
100
AcDbPolyline
90
4
70
1
43
0.0
10
-24.721357738316435
20
-20.299999999999983
10
-24.721357738316435
20
-10.299999999999985
10
-23.398028975069899
20
-10.299999999999983
10
-23.398028975069899
20
-20.299999999999983
0
LWPOLYLINE
5
107
100
AcDbEntity
8
0
100
AcDbPolyline
90
10
70
1
43
0.0
10
-21.078793173373121
20
-20.299999999999983
10
-21.078793173373121
20
-10.299999999999985
10
-19.721358185351271
20
-10.299999999999983
10
-14.468970661700148
20
-18.151296663284285
10
-14.468970661700149
20
-10.299999999999983
10
-13.200211887896439
20
-10.299999999999983
10
-13.200211887896439
20
-20.299999999999983
10
-14.557646875918289
20
-20.299999999999983
10
-19.81003439956941
20
-12.441882777214035
10
-19.81003439956941
20
-20.299999999999983
0
LINE
5
108
100
AcDbEntity
8
0
100
AcDbLine
10
-11.467606192171951
20
-17.66016392707823
30
0
11
-10.23977554374971
21
-17.496453213691694
31
0
0
SPLINE
5
109
100
AcDbEntity
8
0
100
AcDbSpline
70
0
71
2
72
6
73
3
74
0
42
0.000000001
43
0.0000000001
44
0.0000000001
40
0
40
0
40
0
40
1
40
1
40
1
10
-10.23977554374971
20
-17.496453213691694
30
0
10
-10.028314953387161
20
-18.540109682083113
30
0
10
-9.5201305204037627
20
-19.000546026229841
30
0
0
SPLINE
5
110
100
AcDbEntity
8
0
100
AcDbSpline
70
0
71
2
72
6
73
3
74
0
42
0.000000001
43
0.0000000001
44
0.0000000001
40
0
40
0
40
0
40
1
40
1
40
1
10
-9.5201305204037627
20
-19.000546026229841
30
0
10
-9.0119448953274688
20
-19.46098237037657
30
0
10
-8.2820669465664825
20
-19.46098237037657
30
0
0
SPLINE
5
111
100
AcDbEntity
8
0
100
AcDbSpline
70
0
71
2
72
6
73
3
74
0
42
0.000000001
43
0.0000000001
44
0.0000000001
40
0
40
0
40
0
40
1
40
1
40
1
10
-8.2820669465664825
20
-19.46098237037657
30
0
10
-7.4157646947506866
20
-19.46098237037657
30
0
10
-6.818902855456253
20
-18.860709953308088
30
0
0
SPLINE
5
112
100
AcDbEntity
8
0
100
AcDbSpline
70
0
71
2
72
6
73
3
74
0
42
0.000000001
43
0.0000000001
44
0.0000000001
40
0
40
0
40
0
40
1
40
1
40
1
10
-6.818902855456253
20
-18.860709953308088
30
0
10
-6.2220398240689239
20
-18.260436344146711
30
0
10
-6.2220398240689239
20
-17.373670029640181
30
0
0
SPLINE
5
113
100
AcDbEntity
8
0
100
AcDbSpline
70
0
71
2
72
6
73
3
74
0
42
0.000000001
43
0.0000000001
44
0.0000000001
40
0
40
0
40
0
40
1
40
1
40
1
10
-6.2220398240689239
20
-17.373670029640181
30
0
10
-6.2220398240689239
20
-16.527831244468672
30
0
10
-6.7745641523007354
20
-15.978718090057356
30
0
0
SPLINE
5
114
100
AcDbEntity
8
0
100
AcDbSpline
70
0
71
2
72
6
73
3
74
0
42
0.000000001
43
0.0000000001
44
0.0000000001
40
0
40
0
40
0
40
1
40
1
40
1
10
-6.7745641523007354
20
-15.978718090057356
30
0
10
-7.3270872884396514
20
-15.429604339599592
30
0
10
-8.1797484212521514
20
-15.429604339599592
30
0
0
SPLINE
5
115
100
AcDbEntity
8
0
100
AcDbSpline
70
0
71
2
72
6
73
3
74
0
42
0.000000001
43
0.0000000001
44
0.0000000001
40
0
40
0
40
0
40
1
40
1
40
1
10
-8.1797484212521514
20
-15.429604339599592
30
0
10
-8.5276333146695098
20
-15.429604339599592
30
0
10
-9.0460506730679473
20
-15.566030430793745
30
0
0
LINE
5
116
100
AcDbEntity
8
0
100
AcDbLine
10
-9.0460506730679473
20
-15.566030430793745
30
0
11
-8.9096251779202422
21
-14.488268184661848
31
0
0
SPLINE
5
117
100
AcDbEntity
8
0
100
AcDbSpline
70
0
71
2
72
6
73
3
74
0
42
0.000000001
43
0.0000000001
44
0.0000000001
40
0
40
0
40
0
40
1
40
1
40
1
10
-8.9096251779202422
20
-14.488268184661848
30
0
10
-8.7868419938687286
20
-14.50191049575804
30
0
10
-8.7118080907467803
20
-14.50191049575804
30
0
0
SPLINE
5
118
100
AcDbEntity
8
0
100
AcDbSpline
70
0
71
2
72
6
73
3
74
0
42
0.000000001
43
0.0000000001
44
0.0000000001
40
0
40
0
40
0
40
1
40
1
40
1
10
-8.7118080907467803
20
-14.50191049575804
30
0
10
-7.9273608976010284
20
-14.50191049575804
30
0
10
-7.2998026662472686
20
-14.092634010314924
30
0
0
SPLINE
5
119
100
AcDbEntity
8
0
100
AcDbSpline
70
0
71
2
72
6
73
3
74
0
42
0.000000001
43
0.0000000001
44
0.0000000001
40
0
40
0
40
0
40
1
40
1
40
1
10
-7.2998026662472686
20
-14.092634010314924
30
0
10
-6.6722444348935088
20
-13.683356928825361
30
0
10
-6.6722444348935088
20
-12.830696392059309
30
0
0
SPLINE
5
120
100
AcDbEntity
8
0
100
AcDbSpline
70
0
71
2
72
6
73
3
74
0
42
0.000000001
43
0.0000000001
44
0.0000000001
40
0
40
0
40
0
40
1
40
1
40
1
10
-6.6722444348935088
20
-12.830696392059309
30
0
10
-6.6722444348935088
20
-12.155389475822432
30
0
10
-7.1292702012661895
20
-11.71200661659239
30
0
0
SPLINE
5
121
100
AcDbEntity
8
0
100
AcDbSpline
70
0
71
2
72
6
73
3
74
0
42
0.000000001
43
0.0000000001
44
0.0000000001
40
0
40
0
40
0
40
1
40
1
40
1
10
-7.1292702012661895
20
-11.71200661659239
30
0
10
-7.5862959676388702
20
-11.268623161315901
30
0
10
-8.3093527608517608
20
-11.268623161315901
30
0
0
SPLINE
5
122
100
AcDbEntity
8
0
100
AcDbSpline
70
0
71
2
72
6
73
3
74
0
42
0.000000001
43
0.0000000001
44
0.0000000001
40
0
40
0
40
0
40
1
40
1
40
1
10
-8.3093527608517608
20
-11.268623161315901
30
0
10
-9.0255872064236602
20
-11.268623161315901
30
0
10
-9.503076439440628
20
-11.718827772140486
30
0
0
SPLINE
5
123
100
AcDbEntity
8
0
100
AcDbSpline
70
0
71
2
72
6
73
3
74
0
42
0.000000001
43
0.0000000001
44
0.0000000001
40
0
40
0
40
0
40
1
40
1
40
1
10
-9.503076439440628
20
-11.718827772140486
30
0
10
-9.9805668645504912
20
-12.169032382965071
30
0
10
-10.116992359698196
20
-13.069441604614241
30
0
0
LINE
5
124
100
AcDbEntity
8
0
100
AcDbLine
10
-10.116992359698198
20
-13.069441604614241
30
0
11
-11.344823008120438
21
-12.851160454750044
31
0
0
SPLINE
5
125
100
AcDbEntity
8
0
100
AcDbSpline
70
0
71
2
72
6
73
3
74
0
42
0.000000001
43
0.0000000001
44
0.0000000001
40
0
40
0
40
0
40
1
40
1
40
1
10
-11.344823008120438
20
-12.851160454750044
30
0
10
-11.119721298754593
20
-11.616508650779707
30
0
10
-10.321630602419754
20
-10.937791156768782
30
0
0
SPLINE
5
126
100
AcDbEntity
8
0
100
AcDbSpline
70
0
71
2
72
6
73
3
74
0
42
0.000000001
43
0.0000000001
44
0.0000000001
40
0
40
0
40
0
40
1
40
1
40
1
10
-10.321630602419754
20
-10.937791156768782
30
0
10
-9.5235410981778106
20
-10.259073066711409
30
0
10
-8.3366373830441436
20
-10.259073066711409
30
0
0
SPLINE
5
127
100
AcDbEntity
8
0
100
AcDbSpline
70
0
71
2
72
6
73
3
74
0
42
0.000000001
43
0.0000000001
44
0.0000000001
40
0
40
0
40
0
40
1
40
1
40
1
10
-8.3366373830441436
20
-10.259073066711409
30
0
10
-7.5180832200650176
20
-10.259073066711409
30
0
10
-6.829133396685501
20
-10.610369133949263
30
0
0
SPLINE
5
128
100
AcDbEntity
8
0
100
AcDbSpline
70
0
71
2
72
6
73
3
74
0
42
0.000000001
43
0.0000000001
44
0.0000000001
40
0
40
0
40
0
40
1
40
1
40
1
10
-6.829133396685501
20
-10.610369133949263
30
0
10
-6.1401847653988799
20
-10.961665201187117
30
0
10
-5.775246983111284
20
-11.568759369850142
30
0
0
SPLINE
5
129
100
AcDbEntity
8
0
100
AcDbSpline
70
0
71
2
72
6
73
3
74
0
42
0.000000001
43
0.0000000001
44
0.0000000001
40
0
40
0
40
0
40
1
40
1
40
1
10
-5.775246983111284
20
-11.568759369850142
30
0
10
-5.4103068166378954
20
-12.175853538513167
30
0
10
-5.4103068166378954
20
-12.85798161029814
30
0
0
SPLINE
5
130
100
AcDbEntity
8
0
100
AcDbSpline
70
0
71
2
72
6
73
3
74
0
42
0.000000001
43
0.0000000001
44
0.0000000001
40
0
40
0
40
0
40
1
40
1
40
1
10
-5.4103068166378954
20
-12.85798161029814
30
0
10
-5.4103068166378954
20
-13.506003308296187
30
0
10
-5.7581929021481493
20
-14.038063573837263
30
0
0
SPLINE
5
131
100
AcDbEntity
8
0
100
AcDbSpline
70
0
71
2
72
6
73
3
74
0
42
0.000000001
43
0.0000000001
44
0.0000000001
40
0
40
0
40
0
40
1
40
1
40
1
10
-5.7581929021481493
20
-14.038063573837263
30
0
10
-6.1060789876584014
20
-14.570123243331892
30
0
10
-6.7882064633969268
20
-14.883902359008772
30
0
0
SPLINE
5
132
100
AcDbEntity
8
0
100
AcDbSpline
70
0
71
2
72
6
73
3
74
0
42
0.000000001
43
0.0000000001
44
0.0000000001
40
0
40
0
40
0
40
1
40
1
40
1
10
-6.7882064633969268
20
-14.883902359008772
30
0
10
-5.9014395528439501
20
-15.088541197776777
30
0
10
-5.4103068166378954
20
-15.733151721954329
30
0
0
SPLINE
5
133
100
AcDbEntity
8
0
100
AcDbSpline
70
0
71
2
72
6
73
3
74
0
42
0.000000001
43
0.0000000001
44
0.0000000001
40
0
40
0
40
0
40
1
40
1
40
1
10
-5.4103068166378954
20
-15.733151721954329
30
0
10
-4.9191764646176317
20
-16.377762842178328
30
0
10
-4.9191764646176317
20
-17.34638481140135
30
0
0
SPLINE
5
134
100
AcDbEntity
8
0
100
AcDbSpline
70
0
71
2
72
6
73
3
74
0
42
0.000000001
43
0.0000000001
44
0.0000000001
40
0
40
0
40
0
40
1
40
1
40
1
10
-4.9191764646176317
20
-17.34638481140135
30
0
10
-4.9191764646176317
20
-18.656071710586531
30
0
10
-5.8741549306515672
20
-19.566712665557844
30
0
0
SPLINE
5
135
100
AcDbEntity
8
0
100
AcDbSpline
70
0
71
2
72
6
73
3
74
0
42
0.000000001
43
0.0000000001
44
0.0000000001
40
0
40
0
40
0
40
1
40
1
40
1
10
-5.8741549306515672
20
-19.566712665557844
30
0
10
-6.829133396685501
20
-20.477353620529158
30
0
10
-8.2888892942074737
20
-20.477353620529158
30
0
0
SPLINE
5
136
100
AcDbEntity
8
0
100
AcDbSpline
70
0
71
2
72
6
73
3
74
0
42
0.000000001
43
0.0000000001
44
0.0000000001
40
0
40
0
40
0
40
1
40
1
40
1
10
-8.2888892942074737
20
-20.477353620529158
30
0
10
-9.6053961568478545
20
-20.477353620529158
30
0
10
-10.475108986437698
20
-19.692906427383406
30
0
0
SPLINE
5
137
100
AcDbEntity
8
0
100
AcDbSpline
70
0
71
2
72
6
73
3
74
0
42
0.000000001
43
0.0000000001
44
0.0000000001
40
0
40
0
40
0
40
1
40
1
40
1
10
-10.475108986437698
20
-19.692906427383406
30
0
10
-11.344823008120438
20
-18.908458042144758
30
0
10
-11.467606192171951
20
-17.66016392707823
30
0
0
LWPOLYLINE
5
138
100
AcDbEntity
8
0
100
AcDbPolyline
90
8
70
1
43
0.0
10
-4.3052581601742723
20
-20.299999999999983
10
-0.46487606102266155
20
-10.299999999999985
10
0.96077167457304191
20
-10.299999999999983
10
5.0535412973757765
20
-20.299999999999983
10
3.5460373110171339
20
-20.299999999999983
10
2.3795982546206496
20
-17.271350908279402
10
-1.8018487744931195
20
-17.271350908279402
10
-2.9000738912228563
20
-20.299999999999983
0
LINE
5
139
100
AcDbEntity
8
0
100
AcDbLine
10
-1.4198545270565965
20
-16.193588066101057
30
0
11
1.9703217691775339
21
-16.193588066101057
31
0
0
LINE
5
140
100
AcDbEntity
8
0
100
AcDbLine
10
1.9703217691775339
20
-16.193588066101057
30
0
11
0.92666589683256373
21
-13.424147057533247
31
0
0
SPLINE
5
141
100
AcDbEntity
8
0
100
AcDbSpline
70
0
71
2
72
6
73
3
74
0
42
0.000000001
43
0.0000000001
44
0.0000000001
40
0
40
0
40
0
40
1
40
1
40
1
10
0.92666589683256362
20
-13.424147057533247
30
0
10
0.44917547172270034
20
-12.16221003532408
30
0
10
0.2172514147158644
20
-11.350477623939497
30
0
0
SPLINE
5
142
100
AcDbEntity
8
0
100
AcDbSpline
70
0
71
2
72
6
73
3
74
0
42
0.000000001
43
0.0000000001
44
0.0000000001
40
0
40
0
40
0
40
1
40
1
40
1
10
0.2172514147158644
20
-11.350477623939497
30
0
10
0.026256675183393696
20
-12.312278437614424
30
0
10
-0.32162941032686021
20
-13.260436344146711
30
0
0
LINE
5
143
100
AcDbEntity
8
0
100
AcDbLine
10
-0.32162941032686021
20
-13.260436344146711
30
0
11
-1.4198545270565965
21
-16.193588066101057
31
0
0
SPLINE
5
144
100
AcDbEntity
8
0
100
AcDbSpline
70
0
71
2
72
6
73
3
74
0
42
0.000000001
43
0.0000000001
44
0.0000000001
40
0
40
0
40
0
40
1
40
1
40
1
10
13.689283961712935
20
-19.229058313369734
30
0
10
14.610156650006388
20
-19.863437700271589
30
0
10
15.387782687604044
20
-20.156753349304182
30
0
0
LINE
5
145
100
AcDbEntity
8
0
100
AcDbLine
10
15.387782687604044
20
-20.156753349304182
30
0
11
14.998969668805216
21
-21.077626037597639
31
0
0
SPLINE
5
146
100
AcDbEntity
8
0
100
AcDbSpline
70
0
71
2
72
6
73
3
74
0
42
0.000000001
43
0.0000000001
44
0.0000000001
40
0
40
0
40
0
40
1
40
1
40
1
10
14.998969668805216
20
-21.077626037597639
30
0
10
13.921208018719771
20
-20.688813018798811
30
0
10
12.850265139996626
20
-19.849795389175398
30
0
0
SPLINE
5
147
100
AcDbEntity
8
0
100
AcDbSpline
70
0
71
2
72
6
73
3
74
0
42
0.000000001
43
0.0000000001
44
0.0000000001
40
0
40
0
40
0
40
1
40
1
40
1
10
12.850265139996626
20
-19.849795389175398
30
0
10
11.738397712170698
20
-20.470532464981062
30
0
10
10.394603843152144
20
-20.470532464981062
30
0
0
SPLINE
5
148
100
AcDbEntity
8
0
100
AcDbSpline
70
0
71
2
72
6
73
3
74
0
42
0.000000001
43
0.0000000001
44
0.0000000001
40
0
40
0
40
0
40
1
40
1
40
1
10
10.394603843152144
20
-20.470532464981062
30
0
10
9.0371700472231886
20
-20.470532464981062
30
0
10
7.9321213907595656
20
-19.815688419342024
30
0
0
SPLINE
5
149
100
AcDbEntity
8
0
100
AcDbSpline
70
0
71
2
72
6
73
3
74
0
42
0.000000001
43
0.0000000001
44
0.0000000001
40
0
40
0
40
0
40
1
40
1
40
1
10
7.9321213907595656
20
-19.815688419342024
30
0
10
6.8270727342959425
20
-19.160845565795881
30
0
10
6.2302108950015089
20
-17.97394304275511
30
0
0
SPLINE
5
150
100
AcDbEntity
8
0
100
AcDbSpline
70
0
71
2
72
6
73
3
74
0
42
0.000000001
43
0.0000000001
44
0.0000000001
40
0
40
0
40
0
40
1
40
1
40
1
10
6.2302108950015089
20
-17.97394304275511
30
0
10
5.6333490557070753
20
-16.787039327621443
30
0
10
5.6333490557070753
20
-15.299999999999983
30
0
0
SPLINE
5
151
100
AcDbEntity
8
0
100
AcDbSpline
70
0
71
2
72
6
73
3
74
0
42
0.000000001
43
0.0000000001
44
0.0000000001
40
0
40
0
40
0
40
1
40
1
40
1
10
5.6333490557070753
20
-15.299999999999983
30
0
10
5.6333490557070753
20
-13.819781231880171
30
0
10
6.2336226648684523
20
-12.605593490600569
30
0
0
SPLINE
5
152
100
AcDbEntity
8
0
100
AcDbSpline
70
0
71
2
72
6
73
3
74
0
42
0.000000001
43
0.0000000001
44
0.0000000001
40
0
40
0
40
0
40
1
40
1
40
1
10
6.2336226648684523
20
-12.605593490600569
30
0
10
6.8338938898440382
20
-11.391405153274519
30
0
10
7.9423519319888136
20
-10.757025766372664
30
0
0
SPLINE
5
153
100
AcDbEntity
8
0
100
AcDbSpline
70
0
71
2
72
6
73
3
74
0
42
0.000000001
43
0.0000000001
44
0.0000000001
40
0
40
0
40
0
40
1
40
1
40
1
10
7.9423519319888136
20
-10.757025766372664
30
0
10
9.05081235831938
20
-10.122646379470808
30
0
10
10.421888465344527
20
-10.122646379470808
30
0
0
SPLINE
5
154
100
AcDbEntity
8
0
100
AcDbSpline
70
0
71
2
72
6
73
3
74
0
42
0.000000001
43
0.0000000001
44
0.0000000001
40
0
40
0
40
0
40
1
40
1
40
1
10
10.421888465344527
20
-10.122646379470808
30
0
10
11.806609267651655
20
-10.122646379470808
30
0
10
12.918479079663374
20
-10.780899810790999
30
0
0
SPLINE
5
155
100
AcDbEntity
8
0
100
AcDbSpline
70
0
71
2
72
6
73
3
74
0
42
0.000000001
43
0.0000000001
44
0.0000000001
40
0
40
0
40
0
40
1
40
1
40
1
10
12.918479079663374
20
-10.780899810790999
30
0
10
14.030346507489298
20
-11.439153838157637
30
0
10
14.613566035687541
20
-12.622646379470808
30
0
0
SPLINE
5
156
100
AcDbEntity
8
0
100
AcDbSpline
70
0
71
2
72
6
73
3
74
0
42
0.000000001
43
0.0000000001
44
0.0000000001
40
0
40
0
40
0
40
1
40
1
40
1
10
14.613566035687541
20
-12.622646379470808
30
0
10
15.196785563885783
20
-13.80613892078398
30
0
10
15.196785563885783
20
-15.293178248405439
30
0
0
SPLINE
5
157
100
AcDbEntity
8
0
100
AcDbSpline
70
0
71
2
72
6
73
3
74
0
42
0.000000001
43
0.0000000001
44
0.0000000001
40
0
40
0
40
0
40
1
40
1
40
1
10
15.196785563885783
20
-15.293178248405439
30
0
10
15.196785563885783
20
-16.527830648422224
30
0
10
14.821614856183146
20
-17.513506102561934
30
0
0
SPLINE
5
158
100
AcDbEntity
8
0
100
AcDbSpline
70
0
71
2
72
6
73
3
74
0
42
0.000000001
43
0.0000000001
44
0.0000000001
40
0
40
0
40
0
40
1
40
1
40
1
10
14.821614856183146
20
-17.513506102561934
30
0
10
14.446444148480509
20
-18.499181556701643
30
0
10
13.689283961712935
20
-19.229058313369734
30
0
0
SPLINE
5
159
100
AcDbEntity
8
0
100
AcDbSpline
70
0
71
2
72
6
73
3
74
0
42
0.000000001
43
0.0000000001
44
0.0000000001
40
0
40
0
40
0
40
1
40
1
40
1
10
10.776595706402876
20
-17.537380743026716
30
0
10
11.922571296155073
20
-17.857981014251692
30
0
10
12.666091556012251
20
-18.492360401153547
30
0
0
SPLINE
5
160
100
AcDbEntity
8
0
100
AcDbSpline
70
0
71
2
72
6
73
3
74
0
42
0.000000001
43
0.0000000001
44
0.0000000001
40
0
40
0
40
0
40
1
40
1
40
1
10
12.666091556012251
20
-18.492360401153547
30
0
10
13.832530612408735
20
-17.428239870071394
30
0
10
13.832530612408735
20
-15.293178248405439
30
0
0
SPLINE
5
161
100
AcDbEntity
8
0
100
AcDbSpline
70
0
71
2
72
6
73
3
74
0
42
0.000000001
43
0.0000000001
44
0.0000000001
40
0
40
0
40
0
40
1
40
1
40
1
10
13.832530612408735
20
-15.293178248405439
30
0
10
13.832530612408735
20
-14.078990507125837
30
0
10
13.419842357098677
20
-13.171759533882124
30
0
0
SPLINE
5
162
100
AcDbEntity
8
0
100
AcDbSpline
70
0
71
2
72
6
73
3
74
0
42
0.000000001
43
0.0000000001
44
0.0000000001
40
0
40
0
40
0
40
1
40
1
40
1
10
13.419842357098677
20
-13.171759533882124
30
0
10
13.007154101788618
20
-12.264529156684858
30
0
10
12.212476367413618
20
-11.76316468715666
30
0
0
SPLINE
5
163
100
AcDbEntity
8
0
100
AcDbSpline
70
0
71
2
72
6
73
3
74
0
42
0.000000001
43
0.0000000001
44
0.0000000001
40
0
40
0
40
0
40
1
40
1
40
1
10
12.212476367413618
20
-11.76316468715666
30
0
10
11.417796248852827
20
-11.26180081367491
30
0
10
10.428709620892622
20
-11.26180081367491
30
0
0
SPLINE
5
164
100
AcDbEntity
8
0
100
AcDbSpline
70
0
71
2
72
6
73
3
74
0
42
0.000000001
43
0.0000000001
44
0.0000000001
40
0
40
0
40
0
40
1
40
1
40
1
10
10.428709620892622
20
-11.26180081367491
30
0
10
8.9484926409121535
20
-11.26180081367491
30
0
10
7.9730483240481398
20
-12.274760890007002
30
0
0
SPLINE
5
165
100
AcDbEntity
8
0
100
AcDbSpline
70
0
71
2
72
6
73
3
74
0
42
0.000000001
43
0.0000000001
44
0.0000000001
40
0
40
0
40
0
40
1
40
1
40
1
10
7.9730483240481398
20
-12.274760890007002
30
0
10
6.9976063913699171
20
-13.287721562385542
30
0
10
6.9976063913699171
20
-15.299999999999983
30
0
0
SPLINE
5
166
100
AcDbEntity
8
0
100
AcDbSpline
70
0
71
2
72
6
73
3
74
0
42
0.000000001
43
0.0000000001
44
0.0000000001
40
0
40
0
40
0
40
1
40
1
40
1
10
6.9976063913699171
20
-15.299999999999983
30
0
10
6.9976063913699171
20
-17.250886845588667
30
0
10
7.9628177828188917
20
-18.294543313980085
30
0
0
SPLINE
5
167
100
AcDbEntity
8
0
100
AcDbSpline
70
0
71
2
72
6
73
3
74
0
42
0.000000001
43
0.0000000001
44
0.0000000001
40
0
40
0
40
0
40
1
40
1
40
1
10
7.9628177828188917
20
-18.294543313980085
30
0
10
8.9280291742678664
20
-19.338199186325056
30
0
10
10.428709620892622
20
-19.338199186325056
30
0
0
SPLINE
5
168
100
AcDbEntity
8
0
100
AcDbSpline
70
0
71
2
72
6
73
3
74
0
42
0.000000001
43
0.0000000001
44
0.0000000001
40
0
40
0
40
0
40
1
40
1
40
1
10
10.428709620892622
20
-19.338199186325056
30
0
10
11.138124103009321
20
-19.338199186325056
30
0
10
11.765682334363081
20
-19.072169351577742
30
0
0
SPLINE
5
169
100
AcDbEntity
8
0
100
AcDbSpline
70
0
71
2
72
6
73
3
74
0
42
0.000000001
43
0.0000000001
44
0.0000000001
40
0
40
0
40
0
40
1
40
1
40
1
10
11.765682334363081
20
-19.072169351577742
30
0
10
11.144945258557417
20
-18.669714021682722
30
0
10
10.455996627270796
20
-18.499181556701643
30
0
0
LINE
5
170
100
AcDbEntity
8
0
100
AcDbLine
10
10.455996627270794
20
-18.499181556701643
30
0
11
10.776595706402876
21
-17.537380743026716
31
0
0
LWPOLYLINE
5
171
100
AcDbEntity
8
0
100
AcDbPolyline
90
12
70
1
43
0.0
10
16.922573680340861
20
-20.299999999999983
10
16.922573680340861
20
-10.299999999999985
10
18.245901698529337
20
-10.299999999999983
10
18.245901698529337
20
-15.259072470664961
10
23.21179830497465
20
-10.299999999999983
10
25.005793208539103
20
-10.299999999999983
10
20.810703868329142
20
-14.351841497421248
10
25.189966792523478
20
-20.299999999999983
10
23.443722361981486
20
-20.299999999999983
10
19.88301240867338
20
-15.238608407974228
10
18.245901698529337
20
-16.834788608551008
10
18.245901698529337
20
-20.299999999999983
0
ENDSEC
0
SECTION
2
OBJECTS
0
DICTIONARY
5
C
100
AcDbDictionary
3
ACAD_GROUP
350
D
3
ACAD_MLINESTYLE
350
17
0
DICTIONARY
5
D
100
AcDbDictionary
0
DICTIONARY
5
1A
330
C
100
AcDbDictionary
0
DICTIONARY
5
17
100
AcDbDictionary
0
ENDSEC
0
EOF
