0
SECTION
2
HEADER
9
$INSUNITS
70
4
9
$ACADVER
1
AC1014
9
$HANDSEED
5
FFFF
0
ENDSEC
0
SECTION
2
TABLES
0
TABLE
2
VPORT
5
8
100
AcDbSymbolTable
0
ENDTAB
0
TABLE
2
LTYPE
5
5
100
AcDbSymbolTable
0
LTYPE
5
14
100
AcDbSymbolTableRecord
100
AcDbLinetypeTableRecord
2
BYBLOCK
70
0
0
LTYPE
5
15
100
AcDbSymbolTableRecord
100
AcDbLinetypeTableRecord
2
BYLAYER
70
0
0
ENDTAB
0
TABLE
2
LAYER
5
2
100
AcDbSymbolTable
70
2
0
LAYER
5
50
100
AcDbSymbolTableRecord
100
AcDbLayerTableRecord
2
0
70
0
6
CONTINUOUS
0
ENDTAB
0
TABLE
2
STYLE
5
3
100
AcDbSymbolTable
70
1
0
STYLE
5
11
100
AcDbSymbolTableRecord
100
AcDbTextStyleTableRecord
2
STANDARD
70
0
0
ENDTAB
0
TABLE
2
VIEW
5
6
100
AcDbSymbolTable
70
0
0
ENDTAB
0
TABLE
2
UCS
5
7
100
AcDbSymbolTable
70
0
0
ENDTAB
0
TABLE
2
APPID
5
9
100
AcDbSymbolTable
70
2
0
APPID
5
12
100
AcDbSymbolTableRecord
100
AcDbRegAppTableRecord
2
ACAD
70
0
0
ENDTAB
0
TABLE
2
DIMSTYLE
5
A
100
AcDbSymbolTable
70
1
0
ENDTAB
0
TABLE
2
BLOCK_RECORD
5
1
100
AcDbSymbolTable
70
1
0
BLOCK_RECORD
5
1F
100
AcDbSymbolTableRecord
100
AcDbBlockTableRecord
2
*MODEL_SPACE
0
BLOCK_RECORD
5
1B
100
AcDbSymbolTableRecord
100
AcDbBlockTableRecord
2
*PAPER_SPACE
0
ENDTAB
0
ENDSEC
0
SECTION
2
BLOCKS
0
BLOCK
5
20
100
AcDbEntity
100
AcDbBlockBegin
2
*MODEL_SPACE
0
ENDBLK
5
21
100
AcDbEntity
100
AcDbBlockEnd
0
BLOCK
5
1C
100
AcDbEntity
100
AcDbBlockBegin
2
*PAPER_SPACE
0
ENDBLK
5
1D
100
AcDbEntity
100
AcDbBlockEnd
0
ENDSEC
0
SECTION
2
ENTITIES
0
LINE
5
100
100
AcDbEntity
8
0
100
AcDbLine
10
45
20
15.800000000000011
30
0
11
-45
21
15.800000000000011
31
0
0
LINE
5
101
100
AcDbEntity
8
0
100
AcDbLine
10
-45
20
15.800000000000011
30
0
11
-45
21
-15.79999999999999
31
0
0
LINE
5
102
100
AcDbEntity
8
0
100
AcDbLine
10
-45
20
-15.79999999999999
30
0
11
45
21
-15.79999999999999
31
0
0
LINE
5
103
100
AcDbEntity
8
0
100
AcDbLine
10
45
20
-15.79999999999999
30
0
11
45
21
15.800000000000011
31
0
0
LWPOLYLINE
5
104
100
AcDbEntity
8
0
100
AcDbPolyline
90
4
70
1
43
0.0
10
-19.427471160888622
20
-5.5538580148068046
10
-19.427471160888622
20
2.4461421044024831
10
-18.368808180093716
20
2.4461421044024831
10
-18.368808180093716
20
-5.5538580148068046
0
LWPOLYLINE
5
105
100
AcDbEntity
8
0
100
AcDbPolyline
90
10
70
1
43
0.0
10
-16.513419598340938
20
-5.5538580148068046
10
-16.513419598340938
20
2.4461421044024831
10
-15.427471250295589
20
2.4461421044024831
10
-11.22556135058398
20
-3.8348946301785092
10
-11.22556135058398
20
2.4461421044024827
10
-10.210554450750301
20
2.4461421044024831
10
-10.210554450750301
20
-5.5538580148068046
10
-11.29650279879565
20
-5.5538580148068046
10
-15.498412698507259
20
0.73263552500337448
10
-15.498412698507259
20
-5.5538580148068046
0
LINE
5
106
100
AcDbEntity
8
0
100
AcDbLine
10
-8.8244698941707114
20
-3.4419891564694032
30
0
11
-7.8422056138514984
21
-3.3110204665508851
31
0
0
SPLINE
5
107
100
AcDbEntity
8
0
100
AcDbSpline
70
0
71
3
72
9
73
5
74
0
42
0.000000001
43
0.0000000001
44
0.0000000001
40
0
40
0
40
0
40
0
40
0.075375429380883097
40
0.1350217694712757
40
0.1350217694712757
40
0.1350217694712757
40
0.1350217694712757
10
-7.8422056138514984
20
-3.3110204665508851
30
0
10
-7.7855962492079911
20
-3.5602531060240321
30
0
10
-7.6841905703867486
20
-4.0067093619693637
30
0
10
-7.3944729104506042
20
-4.3587703995778995
30
0
10
-7.2664891183375824
20
-4.5142945973721131
30
0
0
SPLINE
5
108
100
AcDbEntity
8
0
100
AcDbSpline
70
0
71
3
72
9
73
5
74
0
42
0.000000001
43
0.0000000001
44
0.0000000001
40
0
40
0
40
0
40
0
40
0.052879121968543823
40
0.10761559120026448
40
0.10761559120026448
40
0.10761559120026448
40
0.10761559120026448
10
-7.2664891183375824
20
-4.5142945973721131
30
0
10
-7.1219558777036358
20
-4.6217206003491693
30
0
10
-6.8278127535389599
20
-4.840345879859945
30
0
10
-6.4620675518019866
20
-4.8683834254557281
30
0
10
-6.2760387361049164
20
-4.8826441495266542
30
0
0
SPLINE
5
109
100
AcDbEntity
8
0
100
AcDbSpline
70
0
71
3
72
9
73
5
74
0
42
0.000000001
43
0.0000000001
44
0.0000000001
40
0
40
0
40
0
40
0
40
0.065033111215230519
40
0.12922660764983018
40
0.12922660764983018
40
0.12922660764983018
40
0.12922660764983018
10
-6.2760387361049164
20
-4.8826441495266542
30
0
10
-6.0545307554050476
20
-4.8631602349883778
30
0
10
-5.6143745891334813
20
-4.8244439544280375
30
0
10
-5.2743933676981936
20
-4.5424877534174044
30
0
10
-5.1055072247981537
20
-4.4024256198254212
30
0
0
SPLINE
5
110
100
AcDbEntity
8
0
100
AcDbSpline
70
0
71
3
72
9
73
5
74
0
42
0.000000001
43
0.0000000001
44
0.0000000001
40
0
40
0
40
0
40
0
40
0.064588978495201108
40
0.13088397736787757
40
0.13088397736787757
40
0.13088397736787757
40
0.13088397736787757
10
-5.1055072247981537
20
-4.4024256198254212
30
0
10
-4.966245857655518
20
-4.2312980765611794
30
0
10
-4.6840447445558482
20
-3.8845229142742892
30
0
10
-4.6468543685440178
20
-3.4386408032442435
30
0
10
-4.6280167996882904
20
-3.2127938001003846
30
0
0
SPLINE
5
111
100
AcDbEntity
8
0
100
AcDbSpline
70
0
71
3
72
9
73
5
74
0
42
0.000000001
43
0.0000000001
44
0.0000000001
40
0
40
0
40
0
40
0
40
0.062713896212141879
40
0.12259204579426977
40
0.12259204579426977
40
0.12259204579426977
40
0.12259204579426977
10
-4.6280167996882904
20
-3.2127938001003846
30
0
10
-4.6446695062415788
20
-2.9989119738385233
30
0
10
-4.6772219306272955
20
-2.5808194580911152
30
0
10
-4.9411332048095353
20
-2.2556540432033327
30
0
10
-5.0700365006923187
20
-2.0968321292248353
30
0
0
SPLINE
5
112
100
AcDbEntity
8
0
100
AcDbSpline
70
0
71
3
72
9
73
5
74
0
42
0.000000001
43
0.0000000001
44
0.0000000001
40
0
40
0
40
0
40
0
40
0.060049935002607566
40
0.12322196039530522
40
0.12322196039530522
40
0.12322196039530522
40
0.12322196039530522
10
-5.0700365006923187
20
-2.0968321292248353
30
0
10
-5.2301314364247675
20
-1.9687287547820183
30
0
10
-5.5586448949232086
20
-1.7058617103562019
30
0
10
-5.9787890018119461
20
-1.6739181725409176
30
0
10
-6.1941836774348724
20
-1.6575417249050721
30
0
0
SPLINE
5
113
100
AcDbEntity
8
0
100
AcDbSpline
70
0
71
3
72
9
73
5
74
0
42
0.000000001
43
0.0000000001
44
0.0000000001
40
0
40
0
40
0
40
0
40
0.0313603406105466
40
0.070293361039772378
40
0.070293361039772378
40
0.070293361039772378
40
0.070293361039772378
10
-6.1941836774348724
20
-1.6575417249050721
30
0
10
-6.2987545039211446
20
-1.663763048021361
30
0
10
-6.5331472023842103
20
-1.67770797666194
30
0
10
-6.761016928638373
20
-1.7349677996923947
30
0
10
-6.8872259557246673
20
-1.7666820018139466
30
0
0
LINE
5
114
100
AcDbEntity
8
0
100
AcDbLine
10
-6.8872259557246682
20
-1.7666820018139471
30
0
11
-6.7780850827693451
21
-0.90447160886198152
31
0
0
SPLINE
5
115
100
AcDbEntity
8
0
100
AcDbSpline
70
0
71
3
72
9
73
5
74
0
42
0.000000001
43
0.0000000001
44
0.0000000001
40
0
40
0
40
0
40
0
40
0.0089053260651134041
40
0.015868444117443883
40
0.015868444117443883
40
0.015868444117443883
40
0.015868444117443883
10
-6.7780850827693451
20
-0.90447160886198141
30
0
10
-6.7485552127681085
20
-0.90763956699526804
30
0
10
-6.6959357928295438
20
-0.91328456710384531
30
0
10
-6.6430413884832928
20
-0.91474539570240376
30
0
10
-6.6198311746119964
20
-0.91538641141325094
30
0
0
SPLINE
5
116
100
AcDbEntity
8
0
100
AcDbSpline
70
0
71
3
72
9
73
5
74
0
42
0.000000001
43
0.0000000001
44
0.0000000001
40
0
40
0
40
0
40
0
40
0.060177186416985239
40
0.11890077058327189
40
0.11890077058327189
40
0.11890077058327189
40
0.11890077058327189
10
-6.6198311746119964
20
-0.91538641141325094
30
0
10
-6.4169253622915434
20
-0.90242352730153963
30
0
10
-6.0160150027816677
20
-0.87681088235027682
30
0
10
-5.6640551223495468
20
-0.68345901984262214
30
0
10
-5.490226596593808
20
-0.58796498464017966
30
0
0
SPLINE
5
117
100
AcDbEntity
8
0
100
AcDbSpline
70
0
71
3
72
9
73
5
74
0
42
0.000000001
43
0.0000000001
44
0.0000000001
40
0
40
0
40
0
40
0
40
0.056117314102511695
40
0.11677520614658213
40
0.11677520614658213
40
0.11677520614658213
40
0.11677520614658213
10
-5.490226596593808
20
-0.58796498464017966
30
0
10
-5.3438579362076322
20
-0.45991223782798352
30
0
10
-5.0392775983323768
20
-0.19344570881139
30
0
10
-5.0056493505744593
20
0.21132854909996446
30
0
10
-4.9881814420222748
20
0.42158510996431253
30
0
0
SPLINE
5
118
100
AcDbEntity
8
0
100
AcDbSpline
70
0
71
3
72
9
73
5
74
0
42
0.000000001
43
0.0000000001
44
0.0000000001
40
0
40
0
40
0
40
0
40
0.050224833352930466
40
0.09881168117966331
40
0.09881168117966331
40
0.09881168117966331
40
0.09881168117966331
10
-4.9881814420222748
20
0.42158510996431253
30
0
10
-5.002379917313835
20
0.59291881740992036
30
0
10
-5.0303138121639845
20
0.92999851574319947
30
0
10
-5.2471702700247791
20
1.1891230113568096
30
0
10
-5.3538011014461029
20
1.3165375263842956
30
0
0
SPLINE
5
119
100
AcDbEntity
8
0
100
AcDbSpline
70
0
71
3
72
9
73
5
74
0
42
0.000000001
43
0.0000000001
44
0.0000000001
40
0
40
0
40
0
40
0
40
0.049617373568063103
40
0.10288453730065394
40
0.10288453730065394
40
0.10288453730065394
40
0.10288453730065394
10
-5.3538011014461029
20
1.3165375263842956
30
0
10
-5.4877499311843581
20
1.4199576344161318
30
0
10
-5.7655006942447962
20
1.6344053005716808
30
0
10
-6.116263932949475
20
1.6586775317057623
30
0
10
-6.2978671491145599
20
1.6712441713961974
30
0
0
SPLINE
5
120
100
AcDbEntity
8
0
100
AcDbSpline
70
0
71
3
72
9
73
5
74
0
42
0.000000001
43
0.0000000001
44
0.0000000001
40
0
40
0
40
0
40
0
40
0.053290046644001492
40
0.10404867392867791
40
0.10404867392867791
40
0.10404867392867791
40
0.10404867392867791
10
-6.2978671491145599
20
1.6712441713961974
30
0
10
-6.4792689368842415
20
1.6577523017179507
30
0
10
-6.8334554436406814
20
1.6314094621588464
30
0
10
-7.1153356579314364
20
1.4161105551997399
30
0
10
-7.252846807241391
20
1.3110801251086608
30
0
0
SPLINE
5
121
100
AcDbEntity
8
0
100
AcDbSpline
70
0
71
3
72
9
73
5
74
0
42
0.000000001
43
0.0000000001
44
0.0000000001
40
0
40
0
40
0
40
0
40
0.05487636331269418
40
0.12035267575859954
40
0.12035267575859954
40
0.12035267575859954
40
0.12035267575859954
10
-7.252846807241391
20
1.3110801251086608
30
0
10
-7.3699893329626676
20
1.1669428428624651
30
0
10
-7.6269017004120414
20
0.85082664004387631
30
0
10
-7.7027267282827179
20
0.44912807383438447
30
0
10
-7.7439783513545501
20
0.23058917833894632
30
0
0
LINE
5
122
100
AcDbEntity
8
0
100
AcDbLine
10
-7.743978351354551
20
0.23058917833894629
30
0
11
-8.7262438237666586
21
0.40521409823030369
31
0
0
SPLINE
5
123
100
AcDbEntity
8
0
100
AcDbSpline
70
0
71
3
72
9
73
5
74
0
42
0.000000001
43
0.0000000001
44
0.0000000001
40
0
40
0
40
0
40
0
40
0.092474257106738178
40
0.17628185502489452
40
0.17628185502489452
40
0.17628185502489452
40
0.17628185502489452
10
-8.7262438237666586
20
0.40521409823030319
30
0
10
-8.6527924783886654
20
0.71092002590637138
30
0
10
-8.5127736253324855
20
1.2936812149001975
30
0
10
-8.1026634785778739
20
1.7289669200098512
30
0
10
-7.9076896607875335
20
1.9359096558246025
30
0
0
SPLINE
5
124
100
AcDbEntity
8
0
100
AcDbSpline
70
0
71
3
72
9
73
5
74
0
42
0.000000001
43
0.0000000001
44
0.0000000001
40
0
40
0
40
0
40
0
40
0.082391042317034452
40
0.17061764037978464
40
0.17061764037978464
40
0.17061764037978464
40
0.17061764037978464
10
-7.9076896607875335
20
1.9359096558246025
30
0
10
-7.6768213811848485
20
2.0942258553355861
30
0
10
-7.1987329871482686
20
2.4220714030411346
30
0
10
-6.6193131184363674
20
2.459519218824934
30
0
10
-6.319694370031308
20
2.478883531824053
30
0
0
SPLINE
5
125
100
AcDbEntity
8
0
100
AcDbSpline
70
0
71
3
72
9
73
5
74
0
42
0.000000001
43
0.0000000001
44
0.0000000001
40
0
40
0
40
0
40
0
40
0.06328342662300937
40
0.12472028162813505
40
0.12472028162813505
40
0.12472028162813505
40
0.12472028162813505
10
-6.319694370031308
20
2.478883531824053
30
0
10
-6.1071364147138141
20
2.4678828012433347
30
0
10
-5.6882228149900671
20
2.4462023346605792
30
0
10
-5.3033026902188896
20
2.2798109548016923
30
0
10
-5.1136921346187103
20
2.1978470356616384
30
0
0
SPLINE
5
126
100
AcDbEntity
8
0
100
AcDbSpline
70
0
71
3
72
9
73
5
74
0
42
0.000000001
43
0.0000000001
44
0.0000000001
40
0
40
0
40
0
40
0
40
0.058898043593999513
40
0.11511873107517395
40
0.11511873107517395
40
0.11511873107517395
40
0.11511873107517395
10
-5.1136921346187103
20
2.1978470356616384
30
0
10
-4.9419702233319152
20
2.0976042072425782
30
0
10
-4.6063324445729315
20
1.9016753358774134
30
0
10
-4.3807500322062953
20
1.5855306220181835
30
0
10
-4.2705820500850189
20
1.4311346085223571
30
0
0
SPLINE
5
127
100
AcDbEntity
8
0
100
AcDbSpline
70
0
71
3
72
9
73
5
74
0
42
0.000000001
43
0.0000000001
44
0.0000000001
40
0
40
0
40
0
40
0
40
0.054646775534683799
40
0.10821593104801841
40
0.10821593104801841
40
0.10821593104801841
40
0.10821593104801841
10
-4.2705820500850189
20
1.4311346085223571
30
0
10
-4.1854324986494484
20
1.2676651775837533
30
0
10
-4.0168125225069762
20
0.94394988983209027
30
0
10
-3.9912736332397158
20
0.579946171758291
30
0
10
-3.9786313474177826
20
0.39975669695466898
30
0
0
SPLINE
5
128
100
AcDbEntity
8
0
100
AcDbSpline
70
0
71
3
72
9
73
5
74
0
42
0.000000001
43
0.0000000001
44
0.0000000001
40
0
40
0
40
0
40
0
40
0.05000890374824335
40
0.099509013201119934
40
0.099509013201119934
40
0.099509013201119934
40
0.099509013201119934
10
-3.9786313474177826
20
0.39975669695466898
30
0
10
-3.9899888337940004
20
0.23118288006962751
30
0
10
-4.0125882546377811
20
-0.10424967118612682
30
0
10
-4.1757673583659631
20
-0.39812325669193571
30
0
10
-4.2569397389888275
20
-0.5443087546673403
30
0
0
SPLINE
5
129
100
AcDbEntity
8
0
100
AcDbSpline
70
0
71
3
72
9
73
5
74
0
42
0.000000001
43
0.0000000001
44
0.0000000001
40
0
40
0
40
0
40
0
40
0.051483019106730997
40
0.10770910520954823
40
0.10770910520954823
40
0.10770910520954823
40
0.10770910520954823
10
-4.2569397389888275
20
-0.5443087546673403
30
0
10
-4.3645589227500921
20
-0.68057506350181429
30
0
10
-4.5897121128199503
20
-0.96566172798707883
30
0
10
-4.9124665185187038
20
-1.1334111934209838
30
0
10
-5.0809501111506927
20
-1.2209794251766786
30
0
0
SPLINE
5
130
100
AcDbEntity
8
0
100
AcDbSpline
70
0
71
3
72
9
73
5
74
0
42
0.000000001
43
0.0000000001
44
0.0000000001
40
0
40
0
40
0
40
0
40
0.067868796153080183
40
0.1315662436779145
40
0.1315662436779145
40
0.1315662436779145
40
0.1315662436779145
10
-5.0809501111506927
20
-1.2209794251766786
30
0
10
-4.8599060794332267
20
-1.2873425706031356
30
0
10
-4.4314038134597178
20
-1.4159900530590912
30
0
10
-4.1263313638353267
20
-1.7423655581939808
30
0
10
-3.9786313474177826
20
-1.9003793923702821
30
0
0
SPLINE
5
131
100
AcDbEntity
8
0
100
AcDbSpline
70
0
71
3
72
9
73
5
74
0
42
0.000000001
43
0.0000000001
44
0.0000000001
40
0
40
0
40
0
40
0
40
0.065100403546051594
40
0.13678607208105648
40
0.13678607208105648
40
0.13678607208105648
40
0.13678607208105648
10
-3.9786313474177826
20
-1.9003793923702821
30
0
10
-3.864105682975516
20
-2.0887701902836158
30
0
10
-3.6234694512746013
20
-2.4846085547040779
30
0
10
-3.598703702363133
20
-2.9480755757222004
30
0
10
-3.5857246816157806
20
-3.1909653870907411
30
0
0
SPLINE
5
132
100
AcDbEntity
8
0
100
AcDbSpline
70
0
71
3
72
9
73
5
74
0
42
0.000000001
43
0.0000000001
44
0.0000000001
40
0
40
0
40
0
40
0
40
0.098660423835377695
40
0.19774113826838952
40
0.19774113826838952
40
0.19774113826838952
40
0.19774113826838952
10
-3.5857246816157806
20
-3.1909653870907411
30
0
10
-3.6178277070423204
20
-3.5271704125972474
30
0
10
-3.6821705158700513
20
-4.2010126874504214
30
0
10
-4.1268807063391861
20
-4.7114611893249645
30
0
10
-4.3497084081172455
20
-4.9672279088345155
30
0
0
SPLINE
5
133
100
AcDbEntity
8
0
100
AcDbSpline
70
0
71
3
72
9
73
5
74
0
42
0.000000001
43
0.0000000001
44
0.0000000001
40
0
40
0
40
0
40
0
40
0.1023061692763084
40
0.21053453313398213
40
0.21053453313398213
40
0.21053453313398213
40
0.21053453313398213
10
-4.3497084081172455
20
-4.9672279088345155
30
0
10
-4.6263965861408751
20
-5.1796642915630393
30
0
10
-5.1957895836107522
20
-5.616834356426164
30
0
10
-5.9128702870917866
20
-5.6689500663586845
30
0
10
-6.2814961373805511
20
-5.6957409112301445
30
0
0
SPLINE
5
134
100
AcDbEntity
8
0
100
AcDbSpline
70
0
71
3
72
9
73
5
74
0
42
0.000000001
43
0.0000000001
44
0.0000000001
40
0
40
0
40
0
40
0
40
0.097653285352973018
40
0.18919328853800998
40
0.18919328853800998
40
0.18919328853800998
40
0.18919328853800998
10
-6.2814961373805511
20
-5.6957409112301445
30
0
10
-6.6136425304564161
20
-5.6731418807969947
30
0
10
-7.257142318045986
20
-5.6293585623969644
30
0
10
-7.7783093823183265
20
-5.2511678960508101
30
0
10
-8.0304728448390463
20
-5.0681826798763847
30
0
0
SPLINE
5
135
100
AcDbEntity
8
0
100
AcDbSpline
70
0
71
3
72
9
73
5
74
0
42
0.000000001
43
0.0000000001
44
0.0000000001
40
0
40
0
40
0
40
0
40
0.090410636814588483
40
0.18432043188169378
40
0.18432043188169378
40
0.18432043188169378
40
0.18432043188169378
10
-8.0304728448390463
20
-5.0681826798763847
30
0
10
-8.2377805441166956
20
-4.8404821553157538
30
0
10
-8.6604193619542258
20
-4.3762684244383294
30
0
10
-8.769098657083898
20
-3.7573322288328277
30
0
10
-8.8244698941707114
20
-3.4419891564694032
30
0
0
LWPOLYLINE
5
136
100
AcDbEntity
8
0
100
AcDbPolyline
90
8
70
1
43
0.0
10
-3.0945931375026214
20
-5.5538580148068046
10
-0.022287219762753274
20
2.4461421044024831
10
1.1182309687138092
20
2.4461421044024836
10
4.3924452364445221
20
-5.5538580148068046
10
3.1864430010319245
20
-5.5538580148068046
10
2.253291755914737
20
-3.1309387414303402
10
-1.0918651521205414
20
-3.1309387414303407
10
-1.9704459607600677
20
-5.5538580148068046
0
LINE
5
137
100
AcDbEntity
8
0
100
AcDbLine
10
-0.78627094626421812
20
-2.2687283484783753
30
0
11
1.9258715212345612
21
-2.2687283484783753
31
0
0
LINE
5
138
100
AcDbEntity
8
0
100
AcDbLine
10
1.9258715212345612
20
-2.2687283484783753
30
0
11
1.0909463465214264
21
-0.05317601846128589
31
0
0
SPLINE
5
139
100
AcDbEntity
8
0
100
AcDbSpline
70
0
71
3
72
9
73
5
74
0
42
0.000000001
43
0.0000000001
44
0.0000000001
40
0
40
0
40
0
40
0
40
0.097790916532366351
40
0.17536755694333869
40
0.17536755694333869
40
0.17536755694333869
40
0.17536755694333869
10
1.0909463465214264
20
-0.053176018461285612
30
0
10
0.97653970612411545
20
0.25215682699312514
30
0
10
0.77137532341857717
20
0.79970742842527087
30
0
10
0.5994629469552315
20
1.3585480484108203
30
0
10
0.52341476082806704
20
1.6057601244601623
30
0
0
SPLINE
5
140
100
AcDbEntity
8
0
100
AcDbSpline
70
0
71
3
72
9
73
5
74
0
42
0.000000001
43
0.0000000001
44
0.0000000001
40
0
40
0
40
0
40
0
40
0.078852313420801248
40
0.15888253894460169
40
0.15888253894460169
40
0.15888253894460169
40
0.15888253894460169
10
0.52341476082806704
20
1.6057601244601623
30
0
10
0.46691289266919789
20
1.3488111249361034
30
0
10
0.35306511980441435
20
0.83107476879657527
30
0
10
0.17965602281280191
20
0.33012467333770168
30
0
10
0.092308670282412741
20
0.077792671457232454
30
0
0
LINE
5
141
100
AcDbEntity
8
0
100
AcDbLine
10
0.092308670282412741
20
0.07779267145723244
30
0
11
-0.78627094626421812
21
-2.2687283484783753
31
0
0
SPLINE
5
142
100
AcDbEntity
8
0
100
AcDbSpline
70
0
71
3
72
9
73
5
74
0
42
0.000000001
43
0.0000000001
44
0.0000000001
40
0
40
0
40
0
40
0
40
0.083325379838808805
40
0.15510295600766283
40
0.15510295600766283
40
0.15510295600766283
40
0.15510295600766283
10
11.301040798425724
20
-4.6971050231304741
30
0
10
11.532814240714885
20
-4.8513875198646135
30
0
10
11.96424036913653
20
-5.1385709848545025
30
0
10
12.439775539876852
20
-5.3441324726576678
30
0
10
12.659840732812931
20
-5.4392609326687431
30
0
0
LINE
5
143
100
AcDbEntity
8
0
100
AcDbLine
10
12.659840732812931
20
-5.4392609326687431
30
0
11
12.348790317773869
21
-6.1759588448849296
31
0
0
SPLINE
5
144
100
AcDbEntity
8
0
100
AcDbSpline
70
0
71
3
72
9
73
5
74
0
42
0.000000001
43
0.0000000001
44
0.0000000001
40
0
40
0
40
0
40
0
40
0.09497001427568498
40
0.19861001810662121
40
0.19861001810662121
40
0.19861001810662121
40
0.19861001810662121
10
12.348790317773869
20
-6.1759588448849296
30
0
10
12.055903084698553
20
-6.0527386865844708
30
0
10
11.443390397320968
20
-5.7950493721434571
30
0
10
10.908794513577575
20
-5.3998960866088979
30
0
10
10.629828125238468
20
-5.1936945645657158
30
0
0
SPLINE
5
145
100
AcDbEntity
8
0
100
AcDbSpline
70
0
71
3
72
9
73
5
74
0
42
0.000000001
43
0.0000000001
44
0.0000000001
40
0
40
0
40
0
40
0
40
0.10072690879008736
40
0.20433810426185145
40
0.20433810426185145
40
0.20433810426185145
40
0.20433810426185145
10
10.629828125238468
20
-5.1936945645657158
30
0
10
10.323135587318975
20
-5.3385250242989457
30
0
10
9.7009684569811796
20
-5.6323331232145479
30
0
10
9.0137543425954689
20
-5.670785791163226
30
0
10
8.6652971804142496
20
-5.6902835099545097
30
0
0
SPLINE
5
146
100
AcDbEntity
8
0
100
AcDbSpline
70
0
71
3
72
9
73
5
74
0
42
0.000000001
43
0.0000000001
44
0.0000000001
40
0
40
0
40
0
40
0
40
0.10437206311287135
40
0.20574728018958055
40
0.20574728018958055
40
0.20574728018958055
40
0.20574728018958055
10
8.6652971804142496
20
-5.6902835099545097
30
0
10
8.3139403591939054
20
-5.6697556049600557
30
0
10
7.6213152621507918
20
-5.629289214868372
30
0
10
7.000967306134811
20
-5.3191970696995083
30
0
10
6.6953112185001862
20
-5.1664093463268852
30
0
0
SPLINE
5
147
100
AcDbEntity
8
0
100
AcDbSpline
70
0
71
3
72
9
73
5
74
0
42
0.000000001
43
0.0000000001
44
0.0000000001
40
0
40
0
40
0
40
0
40
0.10046955106338078
40
0.20275456492065461
40
0.20275456492065461
40
0.20275456492065461
40
0.20275456492065461
10
6.6953112185001862
20
-5.1664093463268852
30
0
10
6.4168738267675751
20
-4.9726545915798983
30
0
10
5.8549677405865586
20
-4.581643976082562
30
0
10
5.5085457172730612
20
-3.9909857948123002
30
0
10
5.3337837755680573
20
-3.6930123298016166
30
0
0
SPLINE
5
148
100
AcDbEntity
8
0
100
AcDbSpline
70
0
71
3
72
9
73
5
74
0
42
0.000000001
43
0.0000000001
44
0.0000000001
40
0
40
0
40
0
40
0
40
0.10711859857302601
40
0.22070803633922301
40
0.22070803633922301
40
0.22070803633922301
40
0.22070803633922301
10
5.3337837755680573
20
-3.6930123298016166
30
0
10
5.1945483792801772
20
-3.361001814307933
30
0
10
4.9076666303310246
20
-2.676924633549929
30
0
10
4.873749246565624
20
-1.9354599361473275
30
0
10
4.856293350458194
20
-1.5538582532253837
30
0
0
SPLINE
5
149
100
AcDbEntity
8
0
100
AcDbSpline
70
0
71
3
72
9
73
5
74
0
42
0.000000001
43
0.0000000001
44
0.0000000001
40
0
40
0
40
0
40
0
40
0.1137322957484337
40
0.22233409664938364
40
0.22233409664938364
40
0.22233409664938364
40
0.22233409664938364
10
4.856293350458194
20
-1.5538582532253837
30
0
10
4.874389501592864
20
-1.171922829693441
30
0
10
4.9097654815542358
20
-0.42528119364308059
30
0
10
5.1964679614397324
20
0.2646581465272102
30
0
10
5.3365112841129791
20
0.60166743113130472
30
0
0
SPLINE
5
150
100
AcDbEntity
8
0
100
AcDbSpline
70
0
71
3
72
9
73
5
74
0
42
0.000000001
43
0.0000000001
44
0.0000000001
40
0
40
0
40
0
40
0
40
0.10345268819194917
40
0.20370918365081486
40
0.20370918365081486
40
0.20370918365081486
40
0.20370918365081486
10
5.3365112841129791
20
0.60166743113130472
30
0
10
5.5111394247417111
20
0.90474483751196155
30
0
10
5.8550005325742527
20
1.5015360095524244
30
0
10
6.423638234196023
20
1.8895555109999673
30
0
10
6.7034961283207428
20
2.08052125288576
30
0
0
SPLINE
5
151
100
AcDbEntity
8
0
100
AcDbSpline
70
0
71
3
72
9
73
5
74
0
42
0.000000001
43
0.0000000001
44
0.0000000001
40
0
40
0
40
0
40
0
40
0.10134810692639164
40
0.20654999761099213
40
0.20654999761099213
40
0.20654999761099213
40
0.20654999761099213
10
6.7034961283207428
20
2.08052125288576
30
0
10
7.0111307322564542
20
2.228528552673009
30
0
10
7.6380978126986143
20
2.5301711619392
30
0
10
8.3331278669320277
20
2.5685016023280527
30
0
10
8.6871267855167886
20
2.5880244047793752
30
0
0
SPLINE
5
152
100
AcDbEntity
8
0
100
AcDbSpline
70
0
71
3
72
9
73
5
74
0
42
0.000000001
43
0.0000000001
44
0.0000000001
40
0
40
0
40
0
40
0
40
0.10614008227876702
40
0.20847521318342804
40
0.20847521318342804
40
0.20847521318342804
40
0.20847521318342804
10
8.6871267855167886
20
2.5880244047793752
30
0
10
9.0444773122597013
20
2.567729156114547
30
0
10
9.7463679236526257
20
2.5278662108334382
30
0
10
10.375548684334234
20
2.2149996864954566
30
0
10
10.684397369623234
20
2.0614215405139342
30
0
0
SPLINE
5
153
100
AcDbEntity
8
0
100
AcDbSpline
70
0
71
3
72
9
73
5
74
0
42
0.000000001
43
0.0000000001
44
0.0000000001
40
0
40
0
40
0
40
0
40
0.10066134610849069
40
0.20244884944294256
40
0.20244884944294256
40
0.20244884944294256
40
0.20244884944294256
10
10.684397369623234
20
2.0614215405139342
30
0
10
10.963700887482798
20
1.8675101314660565
30
0
10
11.525432654660754
20
1.4775179132684968
30
0
10
11.868153677144647
20
0.88561983270425471
30
0
10
12.040467411279728
20
0.58802452398866556
30
0
0
SPLINE
5
154
100
AcDbEntity
8
0
100
AcDbSpline
70
0
71
3
72
9
73
5
74
0
42
0.000000001
43
0.0000000001
44
0.0000000001
40
0
40
0
40
0
40
0
40
0.10665432233483264
40
0.22014756408953842
40
0.22014756408953842
40
0.22014756408953842
40
0.22014756408953842
10
12.040467411279728
20
0.58802452398866556
30
0
10
12.176515576197309
20
0.25650134514631995
30
0
10
12.45733562595985
20
-0.42780303805753483
30
0
10
12.490134266203992
20
-1.167211631764145
30
0
10
12.507043033838322
20
-1.548400851949749
30
0
0
SPLINE
5
155
100
AcDbEntity
8
0
100
AcDbSpline
70
0
71
3
72
9
73
5
74
0
42
0.000000001
43
0.0000000001
44
0.0000000001
40
0
40
0
40
0
40
0
40
0.094092342409040311
40
0.18089534220749548
40
0.18089534220749548
40
0.18089534220749548
40
0.18089534220749548
10
12.507043033838322
20
-1.548400851949749
30
0
10
12.496679429669694
20
-1.8635737869728359
30
0
10
12.476755090721511
20
-2.4695031801182683
30
0
10
12.294407355098729
20
-3.0473714884455534
30
0
10
12.206907421350529
20
-3.3246627776470756
30
0
0
SPLINE
5
156
100
AcDbEntity
8
0
100
AcDbSpline
70
0
71
3
72
9
73
5
74
0
42
0.000000001
43
0.0000000001
44
0.0000000001
40
0
40
0
40
0
40
0
40
0.082795574055262222
40
0.16546919872786192
40
0.16546919872786192
40
0.16546919872786192
40
0.16546919872786192
10
12.206907421350529
20
-3.3246627776470756
30
0
10
12.094202381929776
20
-3.5789112444594244
30
0
10
11.868958306043588
20
-4.0870336961879055
30
0
10
11.490253600256487
20
-4.4938478536665478
30
0
10
11.301040798425724
20
-4.6971050231304741
30
0
0
SPLINE
5
157
100
AcDbEntity
8
0
100
AcDbSpline
70
0
71
3
72
9
73
5
74
0
42
0.000000001
43
0.0000000001
44
0.0000000001
40
0
40
0
40
0
40
0
40
0.08951508890918311
40
0.17037538240918948
40
0.17037538240918948
40
0.17037538240918948
40
0.17037538240918948
10
8.9708901941776773
20
-3.3437624900189018
30
0
10
9.2574214932259036
20
-3.4350156926722648
30
0
10
9.8027807197253871
20
-3.6086992524786305
30
0
10
10.263723848128574
20
-3.9471277699694611
30
0
10
10.482487827539494
20
-4.1077462165203666
30
0
0
SPLINE
5
158
100
AcDbEntity
8
0
100
AcDbSpline
70
0
71
3
72
9
73
5
74
0
42
0.000000001
43
0.0000000001
44
0.0000000001
40
0
40
0
40
0
40
0
40
0.1274781102196608
40
0.27867474861043529
40
0.27867474861043529
40
0.27867474861043529
40
0.27867474861043529
10
10.482487827539494
20
-4.1077462165203666
30
0
10
10.754137810233306
20
-3.7673776161210419
30
0
10
11.347980866949356
20
-3.0233115644065527
30
0
10
11.391841970612138
20
-2.0671642504761629
30
0
10
11.415639072656681
20
-1.548400851949749
30
0
0
SPLINE
5
159
100
AcDbEntity
8
0
100
AcDbSpline
70
0
71
3
72
9
73
5
74
0
42
0.000000001
43
0.0000000001
44
0.0000000001
40
0
40
0
40
0
40
0
40
0.091369473342663765
40
0.17388962785391954
40
0.17388962785391954
40
0.17388962785391954
40
0.17388962785391954
10
11.415639072656681
20
-1.548400851949749
30
0
10
11.404907976207554
20
-1.2417211297557391
30
0
10
11.384485111767869
20
-0.65806423854589624
30
0
10
11.181714641598264
20
-0.11091714856740265
30
0
10
11.085488945245793
20
0.14873411966890238
30
0
0
SPLINE
5
160
100
AcDbEntity
8
0
100
AcDbSpline
70
0
71
3
72
9
73
5
74
0
42
0.000000001
43
0.0000000001
44
0.0000000001
40
0
40
0
40
0
40
0
40
0.076210727953200871
40
0.15006499882753416
40
0.15006499882753416
40
0.15006499882753416
40
0.15006499882753416
10
11.085488945245793
20
0.14873411966890238
30
0
10
10.964415107096951
20
0.37604336767362023
30
0
10
10.726011067825635
20
0.82363339799405466
30
0
10
10.319605299942495
20
1.126536617969716
30
0
10
10.119593292474796
20
1.2756099970492736
30
0
0
SPLINE
5
161
100
AcDbEntity
8
0
100
AcDbSpline
70
0
71
3
72
9
73
5
74
0
42
0.000000001
43
0.0000000001
44
0.0000000001
40
0
40
0
40
0
40
0
40
0.073865419408278829
40
0.14976936670126556
40
0.14976936670126556
40
0.14976936670126556
40
0.14976936670126556
10
10.119593292474796
20
1.2756099970492736
30
0
10
9.8994495269479632
20
1.3925889308248025
30
0
10
9.4530864979378073
20
1.6297751672165854
30
0
10
8.9483732707638097
20
1.6609181406688123
30
0
10
8.6925818026066324
20
1.6767015726718322
30
0
0
SPLINE
5
162
100
AcDbEntity
8
0
100
AcDbSpline
70
0
71
3
72
9
73
5
74
0
42
0.000000001
43
0.0000000001
44
0.0000000001
40
0
40
0
40
0
40
0
40
0.11019990347981518
40
0.21725610834122505
40
0.21725610834122505
40
0.21725610834122505
40
0.21725610834122505
10
8.6925818026066324
20
1.6767015726718322
30
0
10
8.3166285642359394
20
1.6449336697886296
30
0
10
7.5754469941299485
20
1.5823041144748111
30
0
10
7.0077797754255489
20
1.1026765763630948
30
0
10
6.7280532419682038
20
0.86633291555971048
30
0
0
SPLINE
5
163
100
AcDbEntity
8
0
100
AcDbSpline
70
0
71
3
72
9
73
5
74
0
42
0.000000001
43
0.0000000001
44
0.0000000001
40
0
40
0
40
0
40
0
40
0.11675213627164291
40
0.25909135280357243
40
0.25909135280357243
40
0.25909135280357243
40
0.25909135280357243
10
6.7280532419682038
20
0.86633291555971048
30
0
10
6.5010263742343843
20
0.54057455279975242
30
0
10
5.9972180486457516
20
-0.18233448843767264
30
0
10
5.9652563702814687
20
-1.0675434754097317
30
0
10
5.9476973116398346
20
-1.5538582532253837
30
0
0
SPLINE
5
164
100
AcDbEntity
8
0
100
AcDbSpline
70
0
71
3
72
9
73
5
74
0
42
0.000000001
43
0.0000000001
44
0.0000000001
40
0
40
0
40
0
40
0
40
0.13927070886342072
40
0.25624929041966915
40
0.25624929041966915
40
0.25624929041966915
40
0.25624929041966915
10
5.9476973116398346
20
-1.5538582532253837
30
0
10
5.9670752700261342
20
-2.0289399838577578
30
0
10
6.002729487103049
20
-2.9030603021888797
30
0
10
6.4950997894659945
20
-3.6215153779980529
30
0
10
6.7198683321476471
20
-3.949492308363018
30
0
0
SPLINE
5
165
100
AcDbEntity
8
0
100
AcDbSpline
70
0
71
3
72
9
73
5
74
0
42
0.000000001
43
0.0000000001
44
0.0000000001
40
0
40
0
40
0
40
0
40
0.10794552994775233
40
0.21926492468634104
40
0.21926492468634104
40
0.21926492468634104
40
0.21926492468634104
10
6.7198683321476471
20
-3.949492308363018
30
0
10
6.9981013162610184
20
-4.1929959272221202
30
0
10
7.5632635266499326
20
-4.6876139320235701
30
0
10
8.3123005262127201
20
-4.7518203147335489
30
0
10
8.6925818026066324
20
-4.7844174830761528
30
0
0
SPLINE
5
166
100
AcDbEntity
8
0
100
AcDbSpline
70
0
71
3
72
9
73
5
74
0
42
0.000000001
43
0.0000000001
44
0.0000000001
40
0
40
0
40
0
40
0
40
0.055372154719113602
40
0.10961552810687136
40
0.10961552810687136
40
0.10961552810687136
40
0.10961552810687136
10
8.6925818026066324
20
-4.7844174830761528
30
0
10
8.8781499344647727
20
-4.7759207163505808
30
0
10
9.2455033249300698
20
-4.7591003925515709
30
0
10
9.5911265046734009
20
-4.6336653923180853
30
0
10
9.762158542871525
20
-4.5715937344875908
30
0
0
SPLINE
5
167
100
AcDbEntity
8
0
100
AcDbSpline
70
0
71
3
72
9
73
5
74
0
42
0.000000001
43
0.0000000001
44
0.0000000001
40
0
40
0
40
0
40
0
40
0.057989767859220907
40
0.11476493038539272
40
0.11476493038539272
40
0.11476493038539272
40
0.11476493038539272
10
9.762158542871525
20
-4.5715937344875908
30
0
10
9.5953470487595141
20
-4.4722506570337375
30
0
10
9.2652179550248412
20
-4.2756452594066925
30
0
10
8.8967135780854569
20
-4.1669670385899433
30
0
10
8.7144114077091714
20
-4.1132030217495537
30
0
0
LINE
5
168
100
AcDbEntity
8
0
100
AcDbLine
10
8.7144114077091714
20
-4.1132030217495537
30
0
11
8.9708901941776773
21
-3.3437624900189018
31
0
0
LWPOLYLINE
5
169
100
AcDbEntity
8
0
100
AcDbPolyline
90
12
70
1
43
0.0
10
13.887670189142277
20
-5.5538580148068046
10
13.887670189142277
20
2.4461421044024831
10
14.9463321268559
20
2.446142104402484
10
14.9463321268559
20
-1.5211162297573666
10
18.919048458337834
20
2.4461421044024845
10
20.354244858026554
20
2.446142104402484
10
16.998174339532902
20
-0.7953319279995541
10
20.50158753991132
20
-5.5538580148068037
10
19.104588180780461
20
-5.5538580148068046
10
16.256020218133976
20
-1.5047452180233583
10
14.9463321268559
20
-2.7816889016476241
10
14.9463321268559
20
-5.5538580148068037
0
ENDSEC
0
SECTION
2
OBJECTS
0
DICTIONARY
5
C
100
AcDbDictionary
3
ACAD_GROUP
350
D
3
ACAD_MLINESTYLE
350
17
0
DICTIONARY
5
D
100
AcDbDictionary
0
DICTIONARY
5
1A
330
C
100
AcDbDictionary
0
DICTIONARY
5
17
100
AcDbDictionary
0
ENDSEC
0
EOF
