0
SECTION
2
HEADER
9
$INSUNITS
70
4
9
$ACADVER
1
AC1014
9
$HANDSEED
5
FFFF
0
ENDSEC
0
SECTION
2
TABLES
0
TABLE
2
VPORT
5
8
100
AcDbSymbolTable
0
ENDTAB
0
TABLE
2
LTYPE
5
5
100
AcDbSymbolTable
0
LTYPE
5
14
100
AcDbSymbolTableRecord
100
AcDbLinetypeTableRecord
2
BYBLOCK
70
0
0
LTYPE
5
15
100
AcDbSymbolTableRecord
100
AcDbLinetypeTableRecord
2
BYLAYER
70
0
0
ENDTAB
0
TABLE
2
LAYER
5
2
100
AcDbSymbolTable
70
2
0
LAYER
5
50
100
AcDbSymbolTableRecord
100
AcDbLayerTableRecord
2
0
70
0
6
CONTINUOUS
0
ENDTAB
0
TABLE
2
STYLE
5
3
100
AcDbSymbolTable
70
1
0
STYLE
5
11
100
AcDbSymbolTableRecord
100
AcDbTextStyleTableRecord
2
STANDARD
70
0
0
ENDTAB
0
TABLE
2
VIEW
5
6
100
AcDbSymbolTable
70
0
0
ENDTAB
0
TABLE
2
UCS
5
7
100
AcDbSymbolTable
70
0
0
ENDTAB
0
TABLE
2
APPID
5
9
100
AcDbSymbolTable
70
2
0
APPID
5
12
100
AcDbSymbolTableRecord
100
AcDbRegAppTableRecord
2
ACAD
70
0
0
ENDTAB
0
TABLE
2
DIMSTYLE
5
A
100
AcDbSymbolTable
70
1
0
ENDTAB
0
TABLE
2
BLOCK_RECORD
5
1
100
AcDbSymbolTable
70
1
0
BLOCK_RECORD
5
1F
100
AcDbSymbolTableRecord
100
AcDbBlockTableRecord
2
*MODEL_SPACE
0
BLOCK_RECORD
5
1B
100
AcDbSymbolTableRecord
100
AcDbBlockTableRecord
2
*PAPER_SPACE
0
ENDTAB
0
ENDSEC
0
SECTION
2
BLOCKS
0
BLOCK
5
20
100
AcDbEntity
100
AcDbBlockBegin
2
*MODEL_SPACE
0
ENDBLK
5
21
100
AcDbEntity
100
AcDbBlockEnd
0
BLOCK
5
1C
100
AcDbEntity
100
AcDbBlockBegin
2
*PAPER_SPACE
0
ENDBLK
5
1D
100
AcDbEntity
100
AcDbBlockEnd
0
ENDSEC
0
SECTION
2
ENTITIES
0
LINE
5
100
100
AcDbEntity
8
0
100
AcDbLine
10
-4.5
20
-15.79999999999999
30
0
11
-4.5000000000000124
21
15.799999999999992
31
0
0
LINE
5
101
100
AcDbEntity
8
0
100
AcDbLine
10
25.900000000000006
20
15.800000000000015
30
0
11
25.900000000000016
21
-15.79999999999999
31
0
0
LINE
5
102
100
AcDbEntity
8
0
100
AcDbLine
10
13.000000000000004
20
-19.999999999999993
30
0
11
-13.000000000000005
21
20.000000000000004
31
0
0
LINE
5
103
100
AcDbEntity
8
0
100
AcDbLine
10
-12.999999999999988
20
-19.999999999999986
30
0
11
12.999999999999998
21
20.000000000000004
31
0
0
LWPOLYLINE
5
104
100
AcDbEntity
8
0
100
AcDbPolyline
90
4
70
1
43
0.0
10
-8.699999999999994
20
-15.799999999999986
10
-8.7000000000000082
20
15.799999999999994
10
21.70000000000001
20
15.800000000000015
10
21.700000000000017
20
-15.79999999999999
0
LINE
5
105
100
AcDbEntity
8
0
100
AcDbLine
10
-8.7000000000000082
20
15.799999999999994
30
0
11
-4.5000000000000124
21
15.799999999999992
31
0
0
LINE
5
106
100
AcDbEntity
8
0
100
AcDbLine
10
21.70000000000001
20
15.800000000000015
30
0
11
25.900000000000006
21
15.800000000000015
31
0
0
LINE
5
107
100
AcDbEntity
8
0
100
AcDbLine
10
6.5000000000000124
20
-15.79999999999999
30
0
11
-34.799999999999997
21
-15.79999999999999
31
0
0
LINE
5
108
100
AcDbEntity
8
0
100
AcDbLine
10
8.6000000000000139
20
-15.79999999999999
30
0
11
26.000000000000014
21
-15.79999999999999
31
0
0
LINE
5
109
100
AcDbEntity
8
0
100
AcDbLine
10
26.000000000000014
20
-15.79999999999999
30
0
11
26.000000000000014
21
-24.79999999999999
31
0
0
LINE
5
110
100
AcDbEntity
8
0
100
AcDbLine
10
26.000000000000014
20
-24.79999999999999
30
0
11
1.2490009027033011e-14
21
-24.79999999999999
31
0
0
LINE
5
111
100
AcDbEntity
8
0
100
AcDbLine
10
8.6000000000000139
20
-15.79999999999999
30
0
11
8.6000000000000085
21
30
31
0
0
LINE
5
112
100
AcDbEntity
8
0
100
AcDbLine
10
-8.699999999999994
20
-15.799999999999986
30
0
11
-8.7000000000000082
21
15.799999999999994
31
0
0
LINE
5
113
100
AcDbEntity
8
0
100
AcDbLine
10
-4.5
20
-15.79999999999999
30
0
11
-4.5000000000000124
21
15.799999999999992
31
0
0
LINE
5
114
100
AcDbEntity
8
0
100
AcDbLine
10
-8.699999999999994
20
-15.799999999999986
30
0
11
-8.7000000000000082
21
15.799999999999994
31
0
0
LINE
5
115
100
AcDbEntity
8
0
100
AcDbLine
10
-4.5
20
-15.79999999999999
30
0
11
-4.5000000000000124
21
15.799999999999992
31
0
0
LINE
5
116
100
AcDbEntity
8
0
100
AcDbLine
10
-31.549999999999994
20
-15.79999999999999
30
0
11
-31.550000000000011
21
15.799999999999992
31
0
0
LINE
5
117
100
AcDbEntity
8
0
100
AcDbLine
10
-35.75
20
-15.799999999999986
30
0
11
-35.750000000000014
21
15.799999999999994
31
0
0
LINE
5
118
100
AcDbEntity
8
0
100
AcDbLine
10
-31.550000000000011
20
15.799999999999992
30
0
11
-35.750000000000014
21
15.799999999999994
31
0
0
LINE
5
119
100
AcDbEntity
8
0
100
AcDbLine
10
-23.949999999999996
20
-15.799999999999986
30
0
11
-23.950000000000003
21
15.799999999999994
31
0
0
LINE
5
120
100
AcDbEntity
8
0
100
AcDbLine
10
-19.749999999999993
20
-15.799999999999986
30
0
11
-19.750000000000011
21
15.79999999999999
31
0
0
LINE
5
121
100
AcDbEntity
8
0
100
AcDbLine
10
-19.750000000000011
20
15.79999999999999
30
0
11
-23.950000000000003
21
15.799999999999994
31
0
0
LINE
5
122
100
AcDbEntity
8
0
100
AcDbLine
10
-34.799999999999997
20
-15.79999999999999
30
0
11
-35.75
21
-15.799999999999986
31
0
0
LINE
5
123
100
AcDbEntity
8
0
100
AcDbLine
10
-34.799999999999997
20
-19.999999999999986
30
0
11
-35.75
21
-19.999999999999986
31
0
0
LINE
5
124
100
AcDbEntity
8
0
100
AcDbLine
10
-35
20
-24.800000000000011
30
0
11
-8.9999999999999929
21
-24.799999999999997
31
0
0
LINE
5
125
100
AcDbEntity
8
0
100
AcDbLine
10
-8.9999999999999929
20
-24.799999999999997
30
0
11
1.2490009027033011e-14
21
-24.79999999999999
31
0
0
LINE
5
126
100
AcDbEntity
8
0
100
AcDbLine
10
-35.75
20
-15.799999999999986
30
0
11
-35.75
21
-24.800000000000011
31
0
0
LINE
5
127
100
AcDbEntity
8
0
100
AcDbLine
10
-35
20
-24.800000000000011
30
0
11
-35.75
21
-24.800000000000011
31
0
0
ENDSEC
0
SECTION
2
OBJECTS
0
DICTIONARY
5
C
100
AcDbDictionary
3
ACAD_GROUP
350
D
3
ACAD_MLINESTYLE
350
17
0
DICTIONARY
5
D
100
AcDbDictionary
0
DICTIONARY
5
1A
330
C
100
AcDbDictionary
0
DICTIONARY
5
17
100
AcDbDictionary
0
ENDSEC
0
EOF
