                                                                        S      1
,,19Hrt_holder_joiner v1,17Hrtholderjoiner v1,7Hunknown,7Hunknown,32,38,G      1
7,99,15,,1.,2,2HMM,1,0.08,15H20230101.152140,0.01,10000.,7Hunknown,7HunkG      2
nown,11,0,15H20210314.210427;                                           G      3
     186       1                                                00000000D      1
     186            -141       1       0                               0D      2
     186       2                                                00000000D      3
     186            -141       1       0                               0D      4
     514       3                                                00010000D      5
     514                       1       1                               0D      6
     514       4                                                00010000D      7
     514                       1       1                               0D      8
     510       5                                                00010000D      9
     510            -141       1       1                               0D     10
     510       6                                                00010000D     11
     510            -141       1       1                               0D     12
     510       7                                                00010000D     13
     510            -141       1       1                               0D     14
     510       8                                                00010000D     15
     510            -141       1       1                               0D     16
     510       9                                                00010000D     17
     510            -141       1       1                               0D     18
     510      10                                                00010000D     19
     510            -141       1       1                               0D     20
     510      11                                                00010000D     21
     510            -141       1       1                               0D     22
     510      12                                                00010000D     23
     510            -141       1       1                               0D     24
     510      13                                                00010000D     25
     510            -141       1       1                               0D     26
     510      14                                                00010000D     27
     510            -141       1       1                               0D     28
     510      15                                                00010000D     29
     510            -141       1       1                               0D     30
     510      16                                                00010000D     31
     510            -141       1       1                               0D     32
     508      17                                                00010000D     33
     508                       1       1                               0D     34
     508      18                                                00010000D     35
     508                       1       1                               0D     36
     508      19                                                00010000D     37
     508                       1       1                               0D     38
     508      20                                                00010000D     39
     508                       1       1                               0D     40
     508      21                                                00010000D     41
     508                       1       1                               0D     42
     508      22                                                00010000D     43
     508                       1       1                               0D     44
     508      23                                                00010000D     45
     508                       1       1                               0D     46
     508      24                                                00010000D     47
     508                       1       1                               0D     48
     508      25                                                00010000D     49
     508                       1       1                               0D     50
     508      26                                                00010000D     51
     508                       1       1                               0D     52
     508      27                                                00010000D     53
     508                       1       1                               0D     54
     508      28                                                00010000D     55
     508                       1       1                               0D     56
     126      29                                                00010000D     57
     126       0               3       0                               0D     58
     126      32                                                00010000D     59
     126       0               3       0                               0D     60
     126      35                                                00010000D     61
     126       0               3       0                               0D     62
     126      38                                                00010000D     63
     126       0               3       0                               0D     64
     126      41                                                00010000D     65
     126       0               3       0                               0D     66
     126      44                                                00010000D     67
     126       0               3       0                               0D     68
     126      47                                                00010000D     69
     126       0               3       0                               0D     70
     126      50                                                00010000D     71
     126       0               3       0                               0D     72
     126      53                                                00010000D     73
     126       0               3       0                               0D     74
     126      56                                                00010000D     75
     126       0               3       0                               0D     76
     126      59                                                00010000D     77
     126       0               3       0                               0D     78
     126      62                                                00010000D     79
     126       0               3       0                               0D     80
     126      65                                                00010000D     81
     126       0               3       0                               0D     82
     126      68                                                00010000D     83
     126       0               3       0                               0D     84
     126      71                                                00010000D     85
     126       0               3       0                               0D     86
     126      74                                                00010000D     87
     126       0               3       0                               0D     88
     126      77                                                00010000D     89
     126       0               3       0                               0D     90
     126      80                                                00010000D     91
     126       0               3       0                               0D     92
     126      83                                                00010000D     93
     126       0               3       0                               0D     94
     126      86                                                00010000D     95
     126       0               3       0                               0D     96
     126      89                                                00010000D     97
     126       0               3       0                               0D     98
     126      92                                                00010000D     99
     126       0               3       0                               0D    100
     126      95                                                00010000D    101
     126       0               3       0                               0D    102
     126      98                                                00010000D    103
     126       0               3       0                               0D    104
     128     101                                                00010000D    105
     128       0    -141       5       0                               0D    106
     128     106                                                00010000D    107
     128       0    -141       5       0                               0D    108
     128     111                                                00010000D    109
     128       0    -141       5       0                               0D    110
     128     116                                                00010000D    111
     128       0    -141       5       0                               0D    112
     128     121                                                00010000D    113
     128       0    -141       5       0                               0D    114
     128     126                                                00010000D    115
     128       0    -141       5       0                               0D    116
     128     131                                                00010000D    117
     128       0    -141       5       0                               0D    118
     128     136                                                00010000D    119
     128       0    -141       5       0                               0D    120
     128     141                                                00010000D    121
     128       0    -141       5       0                               0D    122
     128     146                                                00010000D    123
     128       0    -141       5       0                               0D    124
     128     151                                                00010000D    125
     128       0    -141       5       0                               0D    126
     128     156                                                00010000D    127
     128       0    -141       5       0                               0D    128
     502     161                                                00010000D    129
     502                       6       1                               0D    130
     502     167                                                00010000D    131
     502                       6       1                               0D    132
     504     173                                                00010001D    133
     504                       3       1                               0D    134
     504     176                                                00010001D    135
     504                       3       1                               0D    136
     406     179                                                00000000D    137
     406                       1      15                               0D    138
     406     180                                                00000000D    139
     406                       1      15                               0D    140
     314     181                                                00000200D    141
     314                       2       0                               0D    142
186,5,1,0,0,1,137;                                                     1P      1
186,7,1,0,0,1,139;                                                     3P      2
514,6,9,1,11,1,13,1,15,1,17,1,19,1;                                    5P      3
514,6,21,1,23,1,25,1,27,1,29,1,31,1;                                   7P      4
510,105,1,1,33;                                                        9P      5
510,107,1,1,35;                                                       11P      6
510,109,1,1,37;                                                       13P      7
510,111,1,1,39;                                                       15P      8
510,113,1,1,41;                                                       17P      9
510,115,1,1,43;                                                       19P     10
510,117,1,1,45;                                                       21P     11
510,119,1,1,47;                                                       23P     12
510,121,1,1,49;                                                       25P     13
510,123,1,1,51;                                                       27P     14
510,125,1,1,53;                                                       29P     15
510,127,1,1,55;                                                       31P     16
508,4,0,133,1,1,0,0,133,2,1,0,0,133,3,0,0,0,133,4,0,0;                33P     17
508,4,0,133,5,1,0,0,133,4,1,0,0,133,6,0,0,0,133,7,0,0;                35P     18
508,4,0,133,8,1,0,0,133,7,1,0,0,133,9,0,0,0,133,10,0,0;               37P     19
508,4,0,133,11,1,0,0,133,10,1,0,0,133,12,0,0,0,133,2,0,0;             39P     20
508,4,0,133,12,1,0,0,133,9,1,0,0,133,6,1,0,0,133,3,1,0;               41P     21
508,4,0,133,11,0,0,0,133,1,0,0,0,133,5,0,0,0,133,8,0,0;               43P     22
508,4,0,135,1,0,0,0,135,2,1,0,0,135,3,0,0,0,135,4,0,0;                45P     23
508,4,0,135,5,0,0,0,135,4,1,0,0,135,6,0,0,0,135,7,0,0;                47P     24
508,4,0,135,8,0,0,0,135,7,1,0,0,135,9,0,0,0,135,10,0,0;               49P     25
508,4,0,135,11,0,0,0,135,10,1,0,0,135,12,0,0,0,135,2,0,0;             51P     26
508,4,0,135,12,1,0,0,135,9,1,0,0,135,6,1,0,0,135,3,1,0;               53P     27
508,4,0,135,11,1,0,0,135,1,1,0,0,135,5,1,0,0,135,8,1,0;               55P     28
126,1,1,0,0,1,0,0.,0.,0.5,0.5,1.,1.,-13.2283407518708,0.,             57P     29
5.01800151389711,-8.22834075187076,0.,5.01800151389711,0.,0.5,        57P     30
0.,0.,0.;                                                             57P     31
126,1,1,0,0,1,0,0.,0.,9.36,9.36,1.,1.,-8.22834075187076,0.,           59P     32
5.01800151389711,-8.22834075187076,93.6,5.01800151389711,0.,          59P     33
9.36,0.,0.,0.;                                                        59P     34
126,1,1,0,0,1,0,0.,0.,0.5,0.5,1.,1.,-13.2283407518708,93.6,           61P     35
5.01800151389711,-8.22834075187076,93.6,5.01800151389711,0.,0.5,      61P     36
0.,0.,0.;                                                             61P     37
126,1,1,0,0,1,0,0.,0.,9.36,9.36,1.,1.,-13.2283407518708,0.,           63P     38
5.01800151389711,-13.2283407518708,93.6,5.01800151389711,0.,          63P     39
9.36,0.,0.,0.;                                                        63P     40
126,1,1,0,0,1,0,0.,0.,0.5,0.5,1.,1.,-13.2283407518708,0.,             65P     41
0.0180015138971112,-13.2283407518708,0.,5.01800151389711,0.,0.5,      65P     42
0.,0.,0.;                                                             65P     43
126,1,1,0,0,1,0,0.,0.,0.5,0.5,1.,1.,-13.2283407518708,93.6,           67P     44
0.0180015138971112,-13.2283407518708,93.6,5.01800151389711,0.,        67P     45
0.5,0.,0.,0.;                                                         67P     46
126,1,1,0,0,1,0,0.,0.,9.36,9.36,1.,1.,-13.2283407518708,0.,           69P     47
0.0180015138971112,-13.2283407518708,93.6,0.0180015138971112,0.,      69P     48
9.36,0.,0.,0.;                                                        69P     49
126,1,1,0,0,1,0,0.,0.,0.5,0.5,1.,1.,-8.22834075187076,0.,             71P     50
0.0180015138971112,-13.2283407518708,0.,0.0180015138971112,0.,        71P     51
0.5,0.,0.,0.;                                                         71P     52
126,1,1,0,0,1,0,0.,0.,0.5,0.5,1.,1.,-8.22834075187076,93.6,           73P     53
0.0180015138971112,-13.2283407518708,93.6,0.0180015138971112,0.,      73P     54
0.5,0.,0.,0.;                                                         73P     55
126,1,1,0,0,1,0,0.,0.,9.36,9.36,1.,1.,-8.22834075187076,0.,           75P     56
0.0180015138971112,-8.22834075187076,93.6,0.0180015138971112,0.,      75P     57
9.36,0.,0.,0.;                                                        75P     58
126,1,1,0,0,1,0,0.,0.,0.5,0.5,1.,1.,-8.22834075187076,0.,             77P     59
5.01800151389711,-8.22834075187076,0.,0.0180015138971112,0.,0.5,      77P     60
0.,0.,0.;                                                             77P     61
126,1,1,0,0,1,0,0.,0.,0.5,0.5,1.,1.,-8.22834075187076,93.6,           79P     62
5.01800151389711,-8.22834075187076,93.6,0.0180015138971112,0.,        79P     63
0.5,0.,0.,0.;                                                         79P     64
126,1,1,0,0,1,0,0.,0.,0.8,0.8,1.,1.,6.37156890325329,0.,              81P     65
8.01800151389711,6.37156890325329,0.,0.0180015138971112,0.,0.8,       81P     66
0.,0.,0.;                                                             81P     67
126,1,1,0,0,1,0,0.,0.,9.36,9.36,1.,1.,6.37156890325329,0.,            83P     68
8.01800151389711,6.37156890325329,93.6,8.01800151389711,0.,9.36,      83P     69
0.,0.,0.;                                                             83P     70
126,1,1,0,0,1,0,-0.8,-0.8,0.,0.,1.,1.,6.37156890325329,93.6,          85P     71
0.0180015138971112,6.37156890325329,93.6,8.01800151389711,-0.8,       85P     72
0.,0.,0.,0.;                                                          85P     73
126,1,1,0,0,1,0,0.,0.,9.36,9.36,1.,1.,6.37156890325329,0.,            87P     74
0.0180015138971112,6.37156890325329,93.6,0.0180015138971112,0.,       87P     75
9.36,0.,0.,0.;                                                        87P     76
126,1,1,0,0,1,0,0.,0.,0.8,0.8,1.,1.,6.37156890325329,0.,              89P     77
0.0180015138971112,14.3715689032533,0.,0.0180015138971112,0.,         89P     78
0.8,0.,0.,0.;                                                         89P     79
126,1,1,0,0,1,0,-0.8,-0.8,0.,0.,1.,1.,14.3715689032533,93.6,          91P     80
0.0180015138971112,6.37156890325329,93.6,0.0180015138971112,          91P     81
-0.8,0.,0.,0.,0.;                                                     91P     82
126,1,1,0,0,1,0,0.,0.,9.36,9.36,1.,1.,14.3715689032533,0.,            93P     83
0.0180015138971112,14.3715689032533,93.6,0.0180015138971112,0.,       93P     84
9.36,0.,0.,0.;                                                        93P     85
126,1,1,0,0,1,0,0.,0.,0.8,0.8,1.,1.,14.3715689032533,0.,              95P     86
0.0180015138971112,14.3715689032533,0.,8.01800151389711,0.,0.8,       95P     87
0.,0.,0.;                                                             95P     88
126,1,1,0,0,1,0,-0.8,-0.8,0.,0.,1.,1.,14.3715689032533,93.6,          97P     89
8.01800151389711,14.3715689032533,93.6,0.0180015138971112,-0.8,       97P     90
0.,0.,0.,0.;                                                          97P     91
126,1,1,0,0,1,0,0.,0.,9.36,9.36,1.,1.,14.3715689032533,0.,            99P     92
8.01800151389711,14.3715689032533,93.6,8.01800151389711,0.,9.36,      99P     93
0.,0.,0.;                                                             99P     94
126,1,1,0,0,1,0,0.,0.,0.8,0.8,1.,1.,14.3715689032533,0.,             101P     95
8.01800151389711,6.37156890325329,0.,8.01800151389711,0.,0.8,0.,     101P     96
0.,0.;                                                               101P     97
126,1,1,0,0,1,0,-0.8,-0.8,0.,0.,1.,1.,6.37156890325329,93.6,         103P     98
8.01800151389711,14.3715689032533,93.6,8.01800151389711,-0.8,0.,     103P     99
0.,0.,0.;                                                            103P    100
128,1,1,1,1,0,0,1,0,0,-0.001,-0.001,0.501,0.501,-0.001,-0.001,       105P    101
9.361,9.361,1.,1.,1.,1.,-13.2383407518708,-0.01,                     105P    102
5.01800151389711,-8.21834075187076,-0.01,5.01800151389711,           105P    103
-13.2383407518708,93.61,5.01800151389711,-8.21834075187076,          105P    104
93.61,5.01800151389711,-0.001,0.501,-0.001,9.361;                    105P    105
128,1,1,1,1,0,0,1,0,0,-0.001,-0.001,0.501,0.501,-0.001,-0.001,       107P    106
9.361,9.361,1.,1.,1.,1.,-13.2283407518708,-0.01,                     107P    107
0.00800151389711124,-13.2283407518708,-0.01,5.02800151389711,        107P    108
-13.2283407518708,93.61,0.00800151389711124,-13.2283407518708,       107P    109
93.61,5.02800151389711,-0.001,0.501,-0.001,9.361;                    107P    110
128,1,1,1,1,0,0,1,0,0,-0.001,-0.001,0.501,0.501,-0.001,-0.001,       109P    111
9.361,9.361,1.,1.,1.,1.,-8.21834075187076,-0.01,                     109P    112
0.0180015138971112,-13.2383407518708,-0.01,0.0180015138971112,       109P    113
-8.21834075187076,93.61,0.0180015138971112,-13.2383407518708,        109P    114
93.61,0.0180015138971112,-0.001,0.501,-0.001,9.361;                  109P    115
128,1,1,1,1,0,0,1,0,0,-0.001,-0.001,0.501,0.501,-0.001,-0.001,       111P    116
9.361,9.361,1.,1.,1.,1.,-8.22834075187076,-0.01,                     111P    117
5.02800151389711,-8.22834075187076,-0.01,0.00800151389711123,        111P    118
-8.22834075187076,93.61,5.02800151389711,-8.22834075187076,          111P    119
93.61,0.00800151389711123,-0.001,0.501,-0.001,9.361;                 111P    120
128,1,1,1,1,0,0,1,0,0,-0.251,-0.251,0.251,0.251,-0.251,-0.251,       113P    121
0.251,0.251,1.,1.,1.,1.,-13.2383407518708,93.6,                      113P    122
0.00800151389711123,-13.2383407518708,93.6,5.02800151389711,         113P    123
-8.21834075187076,93.6,0.00800151389711123,-8.21834075187076,        113P    124
93.6,5.02800151389711,-0.251,0.251,-0.251,0.251;                     113P    125
128,1,1,1,1,0,0,1,0,0,-0.251,-0.251,0.251,0.251,-0.251,-0.251,       115P    126
0.251,0.251,1.,1.,1.,1.,-8.21834075187076,0.,5.02800151389711,       115P    127
-13.2383407518708,0.,5.02800151389711,-8.21834075187076,0.,          115P    128
0.00800151389711123,-13.2383407518708,0.,0.00800151389711123,        115P    129
-0.251,0.251,-0.251,0.251;                                           115P    130
128,1,1,1,1,0,0,1,0,0,-0.001,-0.001,0.801,0.801,-0.001,-0.001,       117P    131
9.361,9.361,1.,1.,1.,1.,6.37156890325329,-0.01,                      117P    132
0.00800151389711124,6.37156890325329,-0.01,8.02800151389711,         117P    133
6.37156890325329,93.61,0.00800151389711124,6.37156890325329,         117P    134
93.61,8.02800151389711,-0.001,0.801,-0.001,9.361;                    117P    135
128,1,1,1,1,0,0,1,0,0,-0.001,-0.001,0.801,0.801,-0.001,-0.001,       119P    136
9.361,9.361,1.,1.,1.,1.,14.3815689032533,-0.01,                      119P    137
0.0180015138971112,6.36156890325329,-0.01,0.0180015138971112,        119P    138
14.3815689032533,93.61,0.0180015138971112,6.36156890325329,          119P    139
93.61,0.0180015138971112,-0.001,0.801,-0.001,9.361;                  119P    140
128,1,1,1,1,0,0,1,0,0,-0.001,-0.001,0.801,0.801,-0.001,-0.001,       121P    141
9.361,9.361,1.,1.,1.,1.,14.3715689032533,-0.01,8.02800151389711,     121P    142
14.3715689032533,-0.01,0.00800151389711123,14.3715689032533,         121P    143
93.61,8.02800151389711,14.3715689032533,93.61,                       121P    144
0.00800151389711123,-0.001,0.801,-0.001,9.361;                       121P    145
128,1,1,1,1,0,0,1,0,0,-0.001,-0.001,0.801,0.801,-0.001,-0.001,       123P    146
9.361,9.361,1.,1.,1.,1.,6.36156890325329,-0.01,8.01800151389711,     123P    147
14.3815689032533,-0.01,8.01800151389711,6.36156890325329,93.61,      123P    148
8.01800151389711,14.3815689032533,93.61,8.01800151389711,-0.001,     123P    149
0.801,-0.001,9.361;                                                  123P    150
128,1,1,1,1,0,0,1,0,0,-0.401,-0.401,0.401,0.401,-0.401,-0.401,       125P    151
0.401,0.401,1.,1.,1.,1.,6.36156890325329,93.6,                       125P    152
0.00800151389711123,6.36156890325329,93.6,8.02800151389711,          125P    153
14.3815689032533,93.6,0.00800151389711123,14.3815689032533,93.6,     125P    154
8.02800151389711,-0.401,0.401,-0.401,0.401;                          125P    155
128,1,1,1,1,0,0,1,0,0,-0.401,-0.401,0.401,0.401,-0.401,-0.401,       127P    156
0.401,0.401,1.,1.,1.,1.,14.3815689032533,0.,8.02800151389711,        127P    157
6.36156890325329,0.,8.02800151389711,14.3815689032533,0.,            127P    158
0.00800151389711123,6.36156890325329,0.,0.00800151389711123,         127P    159
-0.401,0.401,-0.401,0.401;                                           127P    160
502,8,-13.2283407518708,0.,5.01800151389711,-8.22834075187076,       129P    161
0.,5.01800151389711,-8.22834075187076,93.6,5.01800151389711,         129P    162
-13.2283407518708,93.6,5.01800151389711,-13.2283407518708,0.,        129P    163
0.0180015138971112,-13.2283407518708,93.6,0.0180015138971112,        129P    164
-8.22834075187076,0.,0.0180015138971112,-8.22834075187076,93.6,      129P    165
0.0180015138971112;                                                  129P    166
502,8,6.37156890325329,0.,8.01800151389711,6.37156890325329,0.,      131P    167
0.0180015138971112,6.37156890325329,93.6,8.01800151389711,           131P    168
6.37156890325329,93.6,0.0180015138971112,14.3715689032533,0.,        131P    169
0.0180015138971112,14.3715689032533,93.6,0.0180015138971112,         131P    170
14.3715689032533,0.,8.01800151389711,14.3715689032533,93.6,          131P    171
8.01800151389711;                                                    131P    172
504,12,57,129,1,129,2,59,129,2,129,3,61,129,4,129,3,63,129,1,        133P    173
129,4,65,129,5,129,1,67,129,6,129,4,69,129,5,129,6,71,129,7,129,     133P    174
5,73,129,8,129,6,75,129,7,129,8,77,129,2,129,7,79,129,3,129,8;       133P    175
504,12,81,131,1,131,2,83,131,1,131,3,85,131,4,131,3,87,131,2,        135P    176
131,4,89,131,2,131,5,91,131,6,131,4,93,131,5,131,6,95,131,5,131,     135P    177
7,97,131,8,131,6,99,131,7,131,8,101,131,7,131,1,103,131,3,131,8;     135P    178
406,1,5HBody1;                                                       137P    179
406,1,5HBody2;                                                       139P    180
314,62.7450980392157,62.7450980392157,62.7450980392157,13HSteel      141P    181
- Satin;                                                             141P    182
S      1G      3D    142P    182                                        T      1
