                                                                        S      1
,,17Hpcb_raiser_3mm v2,15Hpcbraiser3mm v2,7Hunknown,7Hunknown,32,38,7,  G      1
99,15,,1.,2,2HMM,1,0.08,15H20230101.152030,0.01,10000.,7Hunknown,7HunknoG      2
wn,11,0,15H20211205.094803;                                             G      3
     186       1                                                00000000D      1
     186             -75       1       0                               0D      2
     514       2                                                00010000D      3
     514                       1       1                               0D      4
     510       3                                                00010000D      5
     510             -75       1       1                               0D      6
     510       4                                                00010000D      7
     510             -75       1       1                               0D      8
     510       5                                                00010000D      9
     510             -75       1       1                               0D     10
     510       6                                                00010000D     11
     510             -75       1       1                               0D     12
     510       7                                                00010000D     13
     510             -75       1       1                               0D     14
     510       8                                                00010000D     15
     510             -75       1       1                               0D     16
     510       9                                                00010000D     17
     510             -75       1       1                               0D     18
     508      10                                                00010000D     19
     508                       1       1                               0D     20
     508      11                                                00010000D     21
     508                       1       1                               0D     22
     508      12                                                00010000D     23
     508                       1       1                               0D     24
     508      13                                                00010000D     25
     508                       1       1                               0D     26
     508      14                                                00010000D     27
     508                       1       1                               0D     28
     508      15                                                00010000D     29
     508                       1       1                               0D     30
     508      16                                                00010000D     31
     508                       1       1                               0D     32
     508      17                                                00010000D     33
     508                       1       1                               0D     34
     508      18                                                00010000D     35
     508                       1       1                               0D     36
     126      19                                                00010000D     37
     126       0              10       0                               0D     38
     126      29                                                00010000D     39
     126       0               3       0                               0D     40
     126      32                                                00010000D     41
     126       0               9       0                               0D     42
     126      41                                                00010000D     43
     126       0               9       0                               0D     44
     126      50                                                00010000D     45
     126       0               3       0                               0D     46
     126      53                                                00010000D     47
     126       0               9       0                               0D     48
     126      62                                                00010000D     49
     126       0               9       0                               0D     50
     126      71                                                00010000D     51
     126       0               2       0                               0D     52
     126      73                                                00010000D     53
     126       0               9       0                               0D     54
     128      82                                                00010000D     55
     128       0     -75      13       0                               0D     56
     128      95                                                00010000D     57
     128       0     -75       3       0                               0D     58
     128      98                                                00010000D     59
     128       0     -75      12       0                               0D     60
     128     110                                                00010000D     61
     128       0     -75       3       0                               0D     62
     128     113                                                00010000D     63
     128       0     -75      11       0                               0D     64
     128     124                                                00010000D     65
     128       0     -75       3       0                               0D     66
     128     127                                                00010000D     67
     128       0     -75       3       0                               0D     68
     502     130                                                00010000D     69
     502                       3       1                               0D     70
     504     133                                                00010001D     71
     504                       2       1                               0D     72
     406     135                                                00000000D     73
     406                       1      15                               0D     74
     314     136                                                00000200D     75
     314                       2       0                               0D     76
186,3,1,0,0,1,73;                                                      1P      1
514,7,5,1,7,1,9,1,11,1,13,1,15,1,17,1;                                 3P      2
510,55,1,1,19;                                                         5P      3
510,57,1,1,21;                                                         7P      4
510,59,1,1,23;                                                         9P      5
510,61,2,1,25,27;                                                     11P      6
510,63,1,1,29;                                                        13P      7
510,65,2,1,31,33;                                                     15P      8
510,67,1,1,35;                                                        17P      9
508,4,0,71,1,0,0,0,71,2,1,0,0,71,3,0,0,0,71,2,0,0;                    19P     10
508,1,0,71,1,1,0;                                                     21P     11
508,4,0,71,4,0,0,0,71,5,1,0,0,71,6,0,0,0,71,5,0,0;                    23P     12
508,1,0,71,4,1,0;                                                     25P     13
508,1,0,71,3,1,0;                                                     27P     14
508,4,0,71,7,0,0,0,71,8,1,0,0,71,9,1,0,0,71,8,0,0;                    29P     15
508,1,0,71,7,1,0;                                                     31P     16
508,1,0,71,6,1,0;                                                     33P     17
508,1,0,71,9,0,0;                                                     35P     18
126,8,2,0,1,0,0,-3.14159265358979,-3.14159265358979,                  37P     19
-3.14159265358979,-1.5707963267949,-1.5707963267949,0.,0.,            37P     20
1.5707963267949,1.5707963267949,3.14159265358979,                     37P     21
3.14159265358979,3.14159265358979,1.,0.707106781186548,1.,            37P     22
0.707106781186548,1.,0.707106781186548,1.,0.707106781186548,1.,       37P     23
-1.4,-1.71450551880629D-16,11.,-1.4,-1.4,11.,                         37P     24
8.57252759403147D-17,-1.4,11.,1.4,-1.4,11.,1.4,0.,11.,1.4,1.4,        37P     25
11.,8.57252759403147D-17,1.4,11.,-1.4,1.4,11.,-1.4,                   37P     26
1.71450551880629D-16,11.,-3.14159265358979,3.14159265358979,0.,       37P     27
0.,0.;                                                                37P     28
126,1,1,0,0,1,0,-7.85714285714286,-7.85714285714286,                  39P     29
-5.71428571428572,-5.71428571428572,1.,1.,-1.4,0.,11.,-1.4,0.,        39P     30
8.,-7.85714285714286,-5.71428571428572,0.,0.,0.;                      39P     31
126,8,2,0,1,0,0,-3.14159265358979,-3.14159265358979,                  41P     32
-3.14159265358979,-1.5707963267949,-1.5707963267949,0.,0.,            41P     33
1.5707963267949,1.5707963267949,3.14159265358979,                     41P     34
3.14159265358979,3.14159265358979,1.,0.707106781186548,1.,            41P     35
0.707106781186548,1.,0.707106781186548,1.,0.707106781186548,1.,       41P     36
-1.4,1.71450551880629D-16,8.,-1.4,1.4,8.,8.57252759403147D-17,        41P     37
1.4,8.,1.4,1.4,8.,1.4,0.,8.,1.4,-1.4,8.,8.57252759403147D-17,         41P     38
-1.4,8.,-1.4,-1.4,8.,-1.4,-1.71450551880629D-16,8.,                   41P     39
-3.14159265358979,3.14159265358979,0.,0.,0.;                          41P     40
126,8,2,0,1,0,0,-3.14159265358979,-3.14159265358979,                  43P     41
-3.14159265358979,-1.5707963267949,-1.5707963267949,0.,0.,            43P     42
1.5707963267949,1.5707963267949,3.14159265358979,                     43P     43
3.14159265358979,3.14159265358979,1.,0.707106781186548,1.,            43P     44
0.707106781186548,1.,0.707106781186548,1.,0.707106781186548,1.,       43P     45
-3.,-3.67394039744206D-16,8.,-3.,-3.,8.,1.83697019872103D-16,         43P     46
-3.,8.,3.,-3.,8.,3.,0.,8.,3.,3.,8.,1.83697019872103D-16,3.,8.,        43P     47
-3.,3.,8.,-3.,3.67394039744206D-16,8.,-3.14159265358979,              43P     48
3.14159265358979,0.,0.,0.;                                            43P     49
126,1,1,0,0,1,0,-2.66666666666667,-2.66666666666667,                  45P     50
-0.666666666666667,-0.666666666666667,1.,1.,-3.,0.,8.,-3.,0.,2.,      45P     51
-2.66666666666667,-0.666666666666667,0.,0.,0.;                        45P     52
126,8,2,0,1,0,0,-3.14159265358979,-3.14159265358979,                  47P     53
-3.14159265358979,-1.5707963267949,-1.5707963267949,0.,0.,            47P     54
1.5707963267949,1.5707963267949,3.14159265358979,                     47P     55
3.14159265358979,3.14159265358979,1.,0.707106781186548,1.,            47P     56
0.707106781186548,1.,0.707106781186548,1.,0.707106781186548,1.,       47P     57
-3.,3.67394039744206D-16,2.,-3.,3.,2.,1.83697019872103D-16,3.,        47P     58
2.,3.,3.,2.,3.,0.,2.,3.,-3.,2.,1.83697019872103D-16,-3.,2.,-3.,       47P     59
-3.,2.,-3.,-3.67394039744206D-16,2.,-3.14159265358979,                47P     60
3.14159265358979,0.,0.,0.;                                            47P     61
126,8,2,0,1,0,0,-3.14159265358979,-3.14159265358979,                  49P     62
-3.14159265358979,-1.5707963267949,-1.5707963267949,0.,0.,            49P     63
1.5707963267949,1.5707963267949,3.14159265358979,                     49P     64
3.14159265358979,3.14159265358979,1.,0.707106781186548,1.,            49P     65
0.707106781186548,1.,0.707106781186548,1.,0.707106781186548,1.,       49P     66
-5.,-6.12323399573677D-16,2.,-5.,-5.,2.,3.06161699786838D-16,         49P     67
-5.,2.,5.,-5.,2.,5.,0.,2.,5.,5.,2.,3.06161699786838D-16,5.,2.,        49P     68
-5.,5.,2.,-5.,6.12323399573677D-16,2.,-3.14159265358979,              49P     69
3.14159265358979,0.,0.,0.;                                            49P     70
126,1,1,0,0,1,0,-0.4,-0.4,0.,0.,1.,1.,-5.,0.,2.,-5.,0.,0.,-0.4,       51P     71
0.,0.,0.,0.;                                                          51P     72
126,8,2,0,1,0,0,-3.14159265358979,-3.14159265358979,                  53P     73
-3.14159265358979,-1.5707963267949,-1.5707963267949,0.,0.,            53P     74
1.5707963267949,1.5707963267949,3.14159265358979,                     53P     75
3.14159265358979,3.14159265358979,1.,0.707106781186548,1.,            53P     76
0.707106781186548,1.,0.707106781186548,1.,0.707106781186548,1.,       53P     77
-5.,-6.12323399573677D-16,0.,-5.,-5.,0.,3.06161699786838D-16,         53P     78
-5.,0.,5.,-5.,0.,5.,0.,0.,5.,5.,0.,3.06161699786838D-16,5.,0.,        53P     79
-5.,5.,0.,-5.,6.12323399573677D-16,0.,-3.14159265358979,              53P     80
3.14159265358979,0.,0.,0.;                                            53P     81
128,1,8,1,2,0,1,0,0,1,5.71428571428572,5.71428571428572,              55P     82
7.85714285714286,7.85714285714286,-3.14159265358979,                  55P     83
-3.14159265358979,-3.14159265358979,-1.5707963267949,                 55P     84
-1.5707963267949,0.,0.,1.5707963267949,1.5707963267949,               55P     85
3.14159265358979,3.14159265358979,3.14159265358979,1.,1.,             55P     86
0.707106781186548,0.707106781186548,1.,1.,0.707106781186548,          55P     87
0.707106781186548,1.,1.,0.707106781186548,0.707106781186548,1.,       55P     88
1.,0.707106781186548,0.707106781186548,1.,1.,-1.4,0.,11.,-1.4,        55P     89
0.,8.,-1.4,-1.4,11.,-1.4,-1.4,8.,0.,-1.4,11.,0.,-1.4,8.,1.4,          55P     90
-1.4,11.,1.4,-1.4,8.,1.4,0.,11.,1.4,0.,8.,1.4,1.4,11.,1.4,1.4,        55P     91
8.,0.,1.4,11.,0.,1.4,8.,-1.4,1.4,11.,-1.4,1.4,8.,-1.4,0.,11.,         55P     92
-1.4,0.,8.,5.71428571428572,7.85714285714286,-3.14159265358979,       55P     93
3.14159265358979;                                                     55P     94
128,1,1,1,1,0,0,1,0,0,-0.141,-0.141,0.141,0.141,-0.141,-0.141,        57P     95
0.141,0.141,1.,1.,1.,1.,-1.41,-1.41,11.,1.41,-1.41,11.,-1.41,         57P     96
1.41,11.,1.41,1.41,11.,-0.141,0.141,-0.141,0.141;                     57P     97
128,1,8,1,2,0,1,0,0,1,0.666666666666667,0.666666666666667,            59P     98
2.66666666666667,2.66666666666667,-3.14159265358979,                  59P     99
-3.14159265358979,-3.14159265358979,-1.5707963267949,                 59P    100
-1.5707963267949,0.,0.,1.5707963267949,1.5707963267949,               59P    101
3.14159265358979,3.14159265358979,3.14159265358979,1.,1.,             59P    102
0.707106781186548,0.707106781186548,1.,1.,0.707106781186548,          59P    103
0.707106781186548,1.,1.,0.707106781186548,0.707106781186548,1.,       59P    104
1.,0.707106781186548,0.707106781186548,1.,1.,-3.,0.,8.,-3.,0.,        59P    105
2.,-3.,-3.,8.,-3.,-3.,2.,0.,-3.,8.,0.,-3.,2.,3.,-3.,8.,3.,-3.,        59P    106
2.,3.,0.,8.,3.,0.,2.,3.,3.,8.,3.,3.,2.,0.,3.,8.,0.,3.,2.,-3.,3.,      59P    107
8.,-3.,3.,2.,-3.,0.,8.,-3.,0.,2.,0.666666666666667,                   59P    108
2.66666666666667,-3.14159265358979,3.14159265358979;                  59P    109
128,1,1,1,1,0,0,1,0,0,-0.301,-0.301,0.301,0.301,-0.301,-0.301,        61P    110
0.301,0.301,1.,1.,1.,1.,-3.01,-3.01,8.,3.01,-3.01,8.,-3.01,3.01,      61P    111
8.,3.01,3.01,8.,-0.301,0.301,-0.301,0.301;                            61P    112
128,1,8,1,2,0,1,0,0,1,0.,0.,0.4,0.4,-3.14159265358979,                63P    113
-3.14159265358979,-3.14159265358979,-1.5707963267949,                 63P    114
-1.5707963267949,0.,0.,1.5707963267949,1.5707963267949,               63P    115
3.14159265358979,3.14159265358979,3.14159265358979,1.,1.,             63P    116
0.707106781186548,0.707106781186548,1.,1.,0.707106781186548,          63P    117
0.707106781186548,1.,1.,0.707106781186548,0.707106781186548,1.,       63P    118
1.,0.707106781186548,0.707106781186548,1.,1.,-5.,0.,2.,-5.,0.,        63P    119
0.,-5.,-5.,2.,-5.,-5.,0.,0.,-5.,2.,0.,-5.,0.,5.,-5.,2.,5.,-5.,        63P    120
0.,5.,0.,2.,5.,0.,0.,5.,5.,2.,5.,5.,0.,0.,5.,2.,0.,5.,0.,-5.,5.,      63P    121
2.,-5.,5.,0.,-5.,0.,2.,-5.,0.,0.,0.,0.4,-3.14159265358979,            63P    122
3.14159265358979;                                                     63P    123
128,1,1,1,1,0,0,1,0,0,-0.501,-0.501,0.501,0.501,-0.501,-0.501,        65P    124
0.501,0.501,1.,1.,1.,1.,-5.01,-5.01,2.,5.01,-5.01,2.,-5.01,5.01,      65P    125
2.,5.01,5.01,2.,-0.501,0.501,-0.501,0.501;                            65P    126
128,1,1,1,1,0,0,1,0,0,-0.501,-0.501,0.501,0.501,-0.501,-0.501,        67P    127
0.501,0.501,1.,1.,1.,1.,5.01,-5.01,0.,-5.01,-5.01,0.,5.01,5.01,       67P    128
0.,-5.01,5.01,0.,-0.501,0.501,-0.501,0.501;                           67P    129
502,6,-1.4,-1.71450551880629D-16,11.,-1.4,1.71450551880629D-16,       69P    130
8.,-3.,-3.67394039744206D-16,8.,-3.,3.67394039744206D-16,2.,-5.,      69P    131
-6.12323399573677D-16,2.,-5.,-6.12323399573677D-16,0.;                69P    132
504,9,37,69,1,69,1,39,69,1,69,2,41,69,2,69,2,43,69,3,69,3,45,69,      71P    133
3,69,4,47,69,4,69,4,49,69,5,69,5,51,69,5,69,6,53,69,6,69,6;           71P    134
406,1,5HBody1;                                                        73P    135
314,62.7450980392157,62.7450980392157,62.7450980392157,13HSteel       75P    136
- Satin;                                                              75P    137
S      1G      3D     76P    137                                        T      1
