                                                                        S      1
,,14Hrtx_support v2,13Hrtxsupport v2,7Hunknown,7Hunknown,32,38,7,99,15,,G      1
1.,2,2HMM,1,0.08,15H20230101.152146,0.01,10000.,7Hunknown,7Hunknown,11, G      2
0,15H20210314.210451;                                                   G      3
     186       1                                                00000000D      1
     186            -271       1       0                               0D      2
     514       2                                                00010000D      3
     514                       2       1                               0D      4
     510       4                                                00010000D      5
     510            -271       1       1                               0D      6
     510       5                                                00010000D      7
     510            -271       1       1                               0D      8
     510       6                                                00010000D      9
     510            -271       1       1                               0D     10
     510       7                                                00010000D     11
     510            -271       1       1                               0D     12
     510       8                                                00010000D     13
     510            -271       1       1                               0D     14
     510       9                                                00010000D     15
     510            -271       1       1                               0D     16
     510      10                                                00010000D     17
     510            -271       1       1                               0D     18
     510      11                                                00010000D     19
     510            -271       1       1                               0D     20
     510      12                                                00010000D     21
     510            -271       1       1                               0D     22
     510      13                                                00010000D     23
     510            -271       1       1                               0D     24
     510      14                                                00010000D     25
     510            -271       1       1                               0D     26
     510      15                                                00010000D     27
     510            -271       1       1                               0D     28
     510      16                                                00010000D     29
     510            -271       1       1                               0D     30
     510      17                                                00010000D     31
     510            -271       1       1                               0D     32
     510      18                                                00010000D     33
     510            -271       1       1                               0D     34
     510      19                                                00010000D     35
     510            -271       1       1                               0D     36
     510      20                                                00010000D     37
     510            -271       1       1                               0D     38
     510      21                                                00010000D     39
     510            -271       1       1                               0D     40
     510      22                                                00010000D     41
     510            -271       1       1                               0D     42
     510      23                                                00010000D     43
     510            -271       1       1                               0D     44
     510      24                                                00010000D     45
     510            -271       1       1                               0D     46
     510      25                                                00010000D     47
     510            -271       1       1                               0D     48
     508      26                                                00010000D     49
     508                       1       1                               0D     50
     508      27                                                00010000D     51
     508                       1       1                               0D     52
     508      28                                                00010000D     53
     508                       3       1                               0D     54
     508      31                                                00010000D     55
     508                       1       1                               0D     56
     508      32                                                00010000D     57
     508                       1       1                               0D     58
     508      33                                                00010000D     59
     508                       1       1                               0D     60
     508      34                                                00010000D     61
     508                       1       1                               0D     62
     508      35                                                00010000D     63
     508                       1       1                               0D     64
     508      36                                                00010000D     65
     508                       1       1                               0D     66
     508      37                                                00010000D     67
     508                       1       1                               0D     68
     508      38                                                00010000D     69
     508                       1       1                               0D     70
     508      39                                                00010000D     71
     508                       1       1                               0D     72
     508      40                                                00010000D     73
     508                       1       1                               0D     74
     508      41                                                00010000D     75
     508                       1       1                               0D     76
     508      42                                                00010000D     77
     508                       1       1                               0D     78
     508      43                                                00010000D     79
     508                       1       1                               0D     80
     508      44                                                00010000D     81
     508                       1       1                               0D     82
     508      45                                                00010000D     83
     508                       1       1                               0D     84
     508      46                                                00010000D     85
     508                       1       1                               0D     86
     508      47                                                00010000D     87
     508                       1       1                               0D     88
     508      48                                                00010000D     89
     508                       1       1                               0D     90
     508      49                                                00010000D     91
     508                       1       1                               0D     92
     508      50                                                00010000D     93
     508                       1       1                               0D     94
     508      51                                                00010000D     95
     508                       3       1                               0D     96
     508      54                                                00010000D     97
     508                       1       1                               0D     98
     508      55                                                00010000D     99
     508                       1       1                               0D    100
     126      56                                                00010000D    101
     126       0               6       0                               0D    102
     126      62                                                00010000D    103
     126       0               3       0                               0D    104
     126      65                                                00010000D    105
     126       0               6       0                               0D    106
     126      71                                                00010000D    107
     126       0               2       0                               0D    108
     126      73                                                00010000D    109
     126       0               4       0                               0D    110
     126      77                                                00010000D    111
     126       0               2       0                               0D    112
     126      79                                                00010000D    113
     126       0               3       0                               0D    114
     126      82                                                00010000D    115
     126       0               4       0                               0D    116
     126      86                                                00010000D    117
     126       0               6       0                               0D    118
     126      92                                                00010000D    119
     126       0               4       0                               0D    120
     126      96                                                00010000D    121
     126       0               8       0                               0D    122
     126     104                                                00010000D    123
     126       0               3       0                               0D    124
     126     107                                                00010000D    125
     126       0               4       0                               0D    126
     126     111                                                00010000D    127
     126       0               2       0                               0D    128
     126     113                                                00010000D    129
     126       0               5       0                               0D    130
     126     118                                                00010000D    131
     126       0               2       0                               0D    132
     126     120                                                00010000D    133
     126       0               5       0                               0D    134
     126     125                                                00010000D    135
     126       0               2       0                               0D    136
     126     127                                                00010000D    137
     126       0               2       0                               0D    138
     126     129                                                00010000D    139
     126       0               2       0                               0D    140
     126     131                                                00010000D    141
     126       0               2       0                               0D    142
     126     133                                                00010000D    143
     126       0               2       0                               0D    144
     126     135                                                00010000D    145
     126       0               2       0                               0D    146
     126     137                                                00010000D    147
     126       0               2       0                               0D    148
     126     139                                                00010000D    149
     126       0               2       0                               0D    150
     126     141                                                00010000D    151
     126       0               6       0                               0D    152
     126     147                                                00010000D    153
     126       0               3       0                               0D    154
     126     150                                                00010000D    155
     126       0               3       0                               0D    156
     126     153                                                00010000D    157
     126       0               4       0                               0D    158
     126     157                                                00010000D    159
     126       0               3       0                               0D    160
     126     160                                                00010000D    161
     126       0               8       0                               0D    162
     126     168                                                00010000D    163
     126       0               2       0                               0D    164
     126     170                                                00010000D    165
     126       0               5       0                               0D    166
     126     175                                                00010000D    167
     126       0               2       0                               0D    168
     126     177                                                00010000D    169
     126       0               2       0                               0D    170
     126     179                                                00010000D    171
     126       0               2       0                               0D    172
     126     181                                                00010000D    173
     126       0               2       0                               0D    174
     126     183                                                00010000D    175
     126       0               4       0                               0D    176
     126     187                                                00010000D    177
     126       0               2       0                               0D    178
     126     189                                                00010000D    179
     126       0               2       0                               0D    180
     126     191                                                00010000D    181
     126       0               5       0                               0D    182
     126     196                                                00010000D    183
     126       0               2       0                               0D    184
     126     198                                                00010000D    185
     126       0               2       0                               0D    186
     126     200                                                00010000D    187
     126       0               2       0                               0D    188
     126     202                                                00010000D    189
     126       0               2       0                               0D    190
     126     204                                                00010000D    191
     126       0               2       0                               0D    192
     126     206                                                00010000D    193
     126       0               2       0                               0D    194
     126     208                                                00010000D    195
     126       0               2       0                               0D    196
     126     210                                                00010000D    197
     126       0               2       0                               0D    198
     126     212                                                00010000D    199
     126       0               2       0                               0D    200
     126     214                                                00010000D    201
     126       0               2       0                               0D    202
     126     216                                                00010000D    203
     126       0               2       0                               0D    204
     126     218                                                00010000D    205
     126       0               2       0                               0D    206
     126     220                                                00010000D    207
     126       0               2       0                               0D    208
     126     222                                                00010000D    209
     126       0               2       0                               0D    210
     126     224                                                00010000D    211
     126       0               2       0                               0D    212
     126     226                                                00010000D    213
     126       0               2       0                               0D    214
     126     228                                                00010000D    215
     126       0               2       0                               0D    216
     126     230                                                00010000D    217
     126       0               4       0                               0D    218
     126     234                                                00010000D    219
     126       0               3       0                               0D    220
     128     237                                                00010000D    221
     128       0    -271       9       0                               0D    222
     128     246                                                00010000D    223
     128       0    -271       4       0                               0D    224
     128     250                                                00010000D    225
     128       0    -271       6       0                               0D    226
     128     256                                                00010000D    227
     128       0    -271       9       0                               0D    228
     128     265                                                00010000D    229
     128       0    -271       6       0                               0D    230
     128     271                                                00010000D    231
     128       0    -271      12       0                               0D    232
     128     283                                                00010000D    233
     128       0    -271       6       0                               0D    234
     128     289                                                00010000D    235
     128       0    -271       3       0                               0D    236
     128     292                                                00010000D    237
     128       0    -271       6       0                               0D    238
     128     298                                                00010000D    239
     128       0    -271       7       0                               0D    240
     128     305                                                00010000D    241
     128       0    -271       3       0                               0D    242
     128     308                                                00010000D    243
     128       0    -271       4       0                               0D    244
     128     312                                                00010000D    245
     128       0    -271       4       0                               0D    246
     128     316                                                00010000D    247
     128       0    -271       4       0                               0D    248
     128     320                                                00010000D    249
     128       0    -271       4       0                               0D    250
     128     324                                                00010000D    251
     128       0    -271       4       0                               0D    252
     128     328                                                00010000D    253
     128       0    -271       4       0                               0D    254
     128     332                                                00010000D    255
     128       0    -271       4       0                               0D    256
     128     336                                                00010000D    257
     128       0    -271       4       0                               0D    258
     128     340                                                00010000D    259
     128       0    -271       6       0                               0D    260
     128     346                                                00010000D    261
     128       0    -271       4       0                               0D    262
     128     350                                                00010000D    263
     128       0    -271       6       0                               0D    264
     502     356                                                00010000D    265
     502                      17       1                               0D    266
     504     373                                                00010001D    267
     504                      17       1                               0D    268
     406     390                                                00000000D    269
     406                       1      15                               0D    270
     314     391                                                00000200D    271
     314                       2       0                               0D    272
186,3,1,0,0,1,269;                                                     1P      1
514,22,5,1,7,1,9,1,11,1,13,1,15,1,17,1,19,1,21,1,23,1,25,1,27,1,       3P      2
29,1,31,1,33,1,35,1,37,1,39,1,41,1,43,1,45,1,47,1;                     3P      3
510,221,1,1,49;                                                        5P      4
510,223,1,1,51;                                                        7P      5
510,225,3,1,53,55,57;                                                  9P      6
510,227,1,1,59;                                                       11P      7
510,229,1,1,61;                                                       13P      8
510,231,1,1,63;                                                       15P      9
510,233,1,1,65;                                                       17P     10
510,235,1,1,67;                                                       19P     11
510,237,1,1,69;                                                       21P     12
510,239,1,1,71;                                                       23P     13
510,241,1,1,73;                                                       25P     14
510,243,1,1,75;                                                       27P     15
510,245,1,1,77;                                                       29P     16
510,247,1,1,79;                                                       31P     17
510,249,1,1,81;                                                       33P     18
510,251,1,1,83;                                                       35P     19
510,253,1,1,85;                                                       37P     20
510,255,1,1,87;                                                       39P     21
510,257,1,1,89;                                                       41P     22
510,259,1,1,91;                                                       43P     23
510,261,1,1,93;                                                       45P     24
510,263,3,1,95,97,99;                                                 47P     25
508,4,0,267,1,1,0,0,267,2,1,0,0,267,3,1,0,0,267,4,1,0;                49P     26
508,4,0,267,4,0,0,0,267,5,0,0,0,267,6,0,0,0,267,7,0,0;                51P     27
508,12,0,267,3,0,0,0,267,8,1,0,0,267,9,0,0,0,267,10,0,0,0,267,        53P     28
11,0,0,0,267,12,0,0,0,267,13,0,0,0,267,14,0,0,0,267,15,0,0,0,         53P     29
267,16,0,0,0,267,17,0,0,0,267,5,1,0;                                  53P     30
508,4,0,267,18,0,0,0,267,19,0,0,0,267,20,0,0,0,267,21,0,0;            55P     31
508,4,0,267,22,0,0,0,267,23,0,0,0,267,24,0,0,0,267,25,0,0;            57P     32
508,4,0,267,26,1,0,0,267,27,1,0,0,267,9,1,0,0,267,28,1,0;             59P     33
508,4,0,267,27,0,0,0,267,29,0,0,0,267,30,0,0,0,267,10,1,0;            61P     34
508,4,0,267,31,1,0,0,267,32,1,0,0,267,11,1,0,0,267,30,1,0;            63P     35
508,4,0,267,33,1,0,0,267,34,1,0,0,267,15,1,0,0,267,35,1,0;            65P     36
508,4,0,267,35,0,0,0,267,14,1,0,0,267,36,0,0,0,267,37,0,0;            67P     37
508,4,0,267,38,1,0,0,267,36,1,0,0,267,13,1,0,0,267,39,1,0;            69P     38
508,4,0,267,17,1,0,0,267,40,1,0,0,267,41,1,0,0,267,6,1,0;             71P     39
508,4,0,267,34,0,0,0,267,42,0,0,0,267,40,0,0,0,267,16,1,0;            73P     40
508,4,0,267,19,1,0,0,267,43,1,0,0,267,44,0,0,0,267,45,0,0;            75P     41
508,4,0,267,20,1,0,0,267,45,1,0,0,267,46,0,0,0,267,47,0,0;            77P     42
508,4,0,267,21,1,0,0,267,47,1,0,0,267,48,0,0,0,267,49,0,0;            79P     43
508,4,0,267,18,1,0,0,267,49,1,0,0,267,50,0,0,0,267,43,0,0;            81P     44
508,4,0,267,23,1,0,0,267,51,1,0,0,267,52,0,0,0,267,53,0,0;            83P     45
508,4,0,267,24,1,0,0,267,53,1,0,0,267,54,0,0,0,267,55,0,0;            85P     46
508,4,0,267,25,1,0,0,267,55,1,0,0,267,56,0,0,0,267,57,0,0;            87P     47
508,4,0,267,22,1,0,0,267,57,1,0,0,267,58,0,0,0,267,51,0,0;            89P     48
508,4,0,267,2,0,0,0,267,59,0,0,0,267,28,0,0,0,267,8,0,0;              91P     49
508,4,0,267,32,0,0,0,267,60,0,0,0,267,39,0,0,0,267,12,1,0;            93P     50
508,12,0,267,1,0,0,0,267,7,1,0,0,267,41,0,0,0,267,42,1,0,0,267,       95P     51
33,0,0,0,267,37,1,0,0,267,38,0,0,0,267,60,1,0,0,267,31,0,0,0,         95P     52
267,29,1,0,0,267,26,0,0,0,267,59,1,0;                                 95P     53
508,4,0,267,58,1,0,0,267,56,1,0,0,267,54,1,0,0,267,52,1,0;            97P     54
508,4,0,267,50,1,0,0,267,48,1,0,0,267,46,1,0,0,267,44,1,0;            99P     55
126,2,2,0,0,0,0,-0.719122397249109,-0.719122397249109,               101P     56
-0.719122397249109,0.719122397249107,0.719122397249107,              101P     57
0.719122397249107,1.,0.752384117353312,1.,48.9493803239663,8.,       101P     58
-4.16333634234434D-16,50.,8.,7.55704983209925D-15,                   101P     59
50.1388538047854,8.,1.04140353589078,-0.719122397249109,             101P     60
0.719122397249107,0.,0.,0.;                                          101P     61
126,1,1,0,0,1,0,-0.8,-0.8,0.,0.,1.,1.,50.1388538047854,8.,           103P     62
1.04140353589078,50.1388538047854,0.,1.04140353589078,-0.8,0.,       103P     63
0.,0.,0.;                                                            103P     64
126,2,2,0,0,0,0,-0.719122397249107,-0.719122397249107,               105P     65
-0.719122397249107,0.719122397249109,0.719122397249109,              105P     66
0.719122397249109,1.,0.752384117353312,1.,50.1388538047854,0.,       105P     67
1.04140353589078,50.,0.,7.55704983209925D-15,48.9493803239663,       105P     68
0.,-4.16333634234434D-16,-0.719122397249107,0.719122397249109,       105P     69
0.,0.,0.;                                                            105P     70
126,1,1,0,0,1,0,0.,0.,0.8,0.8,1.,1.,48.9493803239663,0.,0.,          107P     71
48.9493803239663,8.,0.,0.,0.8,0.,0.,0.;                              107P     72
126,1,1,0,0,1,0,0.199999999999999,0.199999999999999,                 109P     73
11.8949380323966,11.8949380323966,1.,1.,-68.,0.,0.,                  109P     74
48.9493803239663,0.,0.,0.199999999999999,11.8949380323966,0.,0.,     109P     75
0.;                                                                  109P     76
126,1,1,0,0,1,0,-0.8,-0.8,0.,0.,1.,1.,-68.,8.,0.,-68.,0.,0.,         111P     77
-0.8,0.,0.,0.,0.;                                                    111P     78
126,1,1,0,0,1,0,-11.8949380323966,-11.8949380323966,                 113P     79
-0.199999999999999,-0.199999999999999,1.,1.,48.9493803239663,8.,     113P     80
0.,-68.,8.,0.,-11.8949380323966,-0.199999999999999,0.,0.,0.;         113P     81
126,1,1,0,0,1,0,0.105061967603372,0.105061967603372,                 115P     82
0.144327440182036,0.144327440182036,1.,1.,50.1388538047854,0.,       115P     83
1.04140353589078,50.1907485140567,0.,1.43061385542538,               115P     84
0.105061967603372,0.144327440182036,0.,0.,0.;                        115P     85
126,2,2,0,0,0,0,-0.785398163397449,-0.785398163397449,               117P     86
-0.785398163397449,0.785398163397449,0.785398163397449,              117P     87
0.785398163397449,1.,0.707106781186543,1.,49.1598714973468,0.,       117P     88
2.77868380035377,50.3493449781659,0.,2.62008733624454,               117P     89
50.1907485140567,0.,1.43061385542538,-0.785398163397449,             117P     90
0.785398163397449,0.,0.,0.;                                          117P     91
126,1,1,0,0,1,0,0.285545765840359,0.285545765840359,                 119P     92
13.0302901490563,13.0302901490563,1.,1.,-77.1695906997725,0.,        119P     93
19.622612093303,49.1598714973468,0.,2.77868380035376,                119P     94
0.285545765840359,13.0302901490563,0.,0.,0.;                         119P     95
126,4,2,0,0,0,0,-0.851673929545783,-0.851673929545783,               121P     96
-0.851673929545783,2.16493489801906D-15,2.16493489801906D-15,        121P     97
0.851673929545788,0.851673929545788,0.851673929545788,1.,            121P     98
0.910693315928986,1.,0.910693315928988,1.,-80.,0.,                   121P     99
17.1445423415964,-80.,0.,18.278522182389,-79.1468115783888,0.,       121P    100
19.0255026349797,-78.2936231567777,0.,19.7724830875704,              121P    101
-77.1695906997725,0.,19.622612093303,-0.851673929545783,             121P    102
0.851673929545788,0.,0.,0.;                                          121P    103
126,1,1,0,0,1,0,0.6,0.6,3.71445423415964,3.71445423415964,1.,1.,     123P    104
-80.,0.,-14.,-80.,0.,17.1445423415964,0.6,3.71445423415964,0.,       123P    105
0.,0.;                                                               123P    106
126,2,2,0,0,0,0,-0.785398163397448,-0.785398163397448,               125P    107
-0.785398163397448,0.785398163397449,0.785398163397449,              125P    108
0.785398163397449,1.,0.707106781186549,1.,-74.,0.,-20.,-80.,0.,      125P    109
-20.,-80.,0.,-14.,-0.785398163397448,0.785398163397449,0.,0.,0.;     125P    110
126,1,1,0,0,1,0,0.25,0.25,0.4,0.4,1.,1.,-72.5,0.,-20.,-74.,0.,       127P    111
-20.,0.25,0.4,0.,0.,0.;                                              127P    112
126,2,2,0,0,0,0,-0.785398163397448,-0.785398163397448,               129P    113
-0.785398163397448,0.785398163397448,0.785398163397448,              129P    114
0.785398163397448,1.,0.707106781186545,1.,-70.,0.,-17.5,-70.,0.,     129P    115
-20.,-72.5,0.,-20.,-0.785398163397448,0.785398163397448,0.,0.,       129P    116
0.;                                                                  129P    117
126,1,1,0,0,1,0,0.2,0.2,1.75,1.75,1.,1.,-70.,0.,-2.,-70.,0.,         131P    118
-17.5,0.2,1.75,0.,0.,0.;                                             131P    119
126,2,2,0,0,0,0,-0.785398163397447,-0.785398163397447,               133P    120
-0.785398163397447,0.78539816339745,0.78539816339745,                133P    121
0.78539816339745,1.,0.707106781186541,1.,-68.,0.,0.,-70.,0.,         133P    122
-2.08166817117217D-16,-70.,0.,-2.,-0.785398163397447,                133P    123
0.78539816339745,0.,0.,0.;                                           133P    124
126,1,1,0,0,1,0,-0.52,-0.52,0.,0.,1.,1.,-9.65660888083077,0.,        135P    125
8.2,-9.65660888083077,0.,3.,-0.52,0.,0.,0.,0.;                       135P    126
126,1,1,0,0,1,0,-0.52,-0.52,0.,0.,1.,1.,-4.45660888083077,0.,        137P    127
8.2,-9.65660888083077,0.,8.2,-0.52,0.,0.,0.,0.;                      137P    128
126,1,1,0,0,1,0,-0.52,-0.52,0.,0.,1.,1.,-4.45660888083077,0.,3.,     139P    129
-4.45660888083077,0.,8.2,-0.52,0.,0.,0.,0.;                          139P    130
126,1,1,0,0,1,0,-0.52,-0.52,0.,0.,1.,1.,-9.65660888083077,0.,3.,     141P    131
-4.45660888083077,0.,3.,-0.52,0.,0.,0.,0.;                           141P    132
126,1,1,0,0,1,0,-0.82,-0.82,0.,0.,1.,1.,-70.3109153954755,0.,        143P    133
13.2,-70.3109153954755,0.,5.,-0.82,0.,0.,0.,0.;                      143P    134
126,1,1,0,0,1,0,-0.82,-0.82,0.,0.,1.,1.,-62.1109153954755,0.,        145P    135
13.2,-70.3109153954755,0.,13.2,-0.82,0.,0.,0.,0.;                    145P    136
126,1,1,0,0,1,0,-0.82,-0.82,0.,0.,1.,1.,-62.1109153954755,0.,5.,     147P    137
-62.1109153954755,0.,13.2,-0.82,0.,0.,0.,0.;                         147P    138
126,1,1,0,0,1,0,-0.82,-0.82,0.,0.,1.,1.,-70.3109153954755,0.,5.,     149P    139
-62.1109153954755,0.,5.,-0.82,0.,0.,0.,0.;                           149P    140
126,2,2,0,0,0,0,-0.785398163397449,-0.785398163397449,               151P    141
-0.785398163397449,0.785398163397449,0.785398163397449,              151P    142
0.785398163397449,1.,0.707106781186543,1.,50.1907485140567,8.,       151P    143
1.43061385542538,50.3493449781659,8.,2.62008733624454,               151P    144
49.1598714973468,8.,2.77868380035377,-0.785398163397449,             151P    145
0.785398163397449,0.,0.,0.;                                          151P    146
126,1,1,0,0,1,0,-0.8,-0.8,0.,0.,1.,1.,49.1598714973468,8.,           153P    147
2.77868380035376,49.1598714973468,0.,2.77868380035376,-0.8,0.,       153P    148
0.,0.,0.;                                                            153P    149
126,1,1,0,0,1,0,0.,0.,0.8,0.8,1.,1.,50.1907485140567,0.,             155P    150
1.43061385542538,50.1907485140567,8.,1.43061385542538,0.,0.8,0.,     155P    151
0.,0.;                                                               155P    152
126,1,1,0,0,1,0,0.285545765840359,0.285545765840359,                 157P    153
13.0302901490563,13.0302901490563,1.,1.,-77.1695906997725,8.,        157P    154
19.622612093303,49.1598714973468,8.,2.77868380035376,                157P    155
0.285545765840359,13.0302901490563,0.,0.,0.;                         157P    156
126,1,1,0,0,1,0,0.,0.,0.8,0.8,1.,1.,-77.1695906997725,0.,            159P    157
19.622612093303,-77.1695906997725,8.,19.622612093303,0.,0.8,0.,      159P    158
0.,0.;                                                               159P    159
126,4,2,0,0,0,0,-0.851673929545788,-0.851673929545788,               161P    160
-0.851673929545788,-2.16493489801906D-15,-2.16493489801906D-15,      161P    161
0.851673929545783,0.851673929545783,0.851673929545783,1.,            161P    162
0.910693315928988,1.,0.910693315928986,1.,-77.1695906997725,8.,      161P    163
19.622612093303,-78.2936231567777,8.,19.7724830875704,               161P    164
-79.1468115783888,8.,19.0255026349797,-80.,8.,18.278522182389,       161P    165
-80.,8.,17.1445423415964,-0.851673929545788,0.851673929545783,       161P    166
0.,0.,0.;                                                            161P    167
126,1,1,0,0,1,0,-0.8,-0.8,0.,0.,1.,1.,-80.,8.,17.1445423415964,      163P    168
-80.,0.,17.1445423415964,-0.8,0.,0.,0.,0.;                           163P    169
126,2,2,0,0,0,0,-0.785398163397448,-0.785398163397448,               165P    170
-0.785398163397448,0.785398163397448,0.785398163397448,              165P    171
0.785398163397448,1.,0.707106781186545,1.,-72.5,8.,-20.,-70.,8.,     165P    172
-20.,-70.,8.,-17.5,-0.785398163397448,0.785398163397448,0.,0.,       165P    173
0.;                                                                  165P    174
126,1,1,0,0,1,0,-0.8,-0.8,0.,0.,1.,1.,-70.,8.,-17.5,-70.,0.,         167P    175
-17.5,-0.8,0.,0.,0.,0.;                                              167P    176
126,1,1,0,0,1,0,0.,0.,0.8,0.8,1.,1.,-72.5,0.,-20.,-72.5,8.,-20.,     169P    177
0.,0.8,0.,0.,0.;                                                     169P    178
126,1,1,0,0,1,0,-0.8,-0.8,0.,0.,1.,1.,-74.,8.,-20.,-74.,0.,-20.,     171P    179
-0.8,0.,0.,0.,0.;                                                    171P    180
126,1,1,0,0,1,0,0.25,0.25,0.4,0.4,1.,1.,-72.5,8.,-20.,-74.,8.,       173P    181
-20.,0.25,0.4,0.,0.,0.;                                              173P    182
126,2,2,0,0,0,0,-0.785398163397449,-0.785398163397449,               175P    183
-0.785398163397449,0.785398163397448,0.785398163397448,              175P    184
0.785398163397448,1.,0.707106781186549,1.,-80.,8.,-14.,-80.,8.,      175P    185
-20.,-74.,8.,-20.,-0.785398163397449,0.785398163397448,0.,0.,0.;     175P    186
126,1,1,0,0,1,0,0.,0.,0.8,0.8,1.,1.,-80.,0.,-14.,-80.,8.,-14.,       177P    187
0.,0.8,0.,0.,0.;                                                     177P    188
126,1,1,0,0,1,0,0.,0.,0.8,0.8,1.,1.,-70.,0.,-2.,-70.,8.,-2.,0.,      179P    189
0.8,0.,0.,0.;                                                        179P    190
126,2,2,0,0,0,0,-0.78539816339745,-0.78539816339745,                 181P    191
-0.78539816339745,0.785398163397447,0.785398163397447,               181P    192
0.785398163397447,1.,0.707106781186541,1.,-70.,8.,-2.,-70.,8.,       181P    193
-2.08166817117217D-16,-68.,8.,0.,-0.78539816339745,                  181P    194
0.785398163397447,0.,0.,0.;                                          181P    195
126,1,1,0,0,1,0,0.2,0.2,1.75,1.75,1.,1.,-70.,8.,-2.,-70.,8.,         183P    196
-17.5,0.2,1.75,0.,0.,0.;                                             183P    197
126,1,1,0,0,1,0,0.,0.,0.8,0.8,1.,1.,-9.65660888083077,0.,8.2,        185P    198
-9.65660888083077,8.,8.2,0.,0.8,0.,0.,0.;                            185P    199
126,1,1,0,0,1,0,-0.52,-0.52,0.,0.,1.,1.,-4.45660888083077,8.,        187P    200
8.2,-9.65660888083077,8.,8.2,-0.52,0.,0.,0.,0.;                      187P    201
126,1,1,0,0,1,0,0.,0.,0.8,0.8,1.,1.,-4.45660888083077,0.,8.2,        189P    202
-4.45660888083077,8.,8.2,0.,0.8,0.,0.,0.;                            189P    203
126,1,1,0,0,1,0,-0.52,-0.52,0.,0.,1.,1.,-4.45660888083077,8.,3.,     191P    204
-4.45660888083077,8.,8.2,-0.52,0.,0.,0.,0.;                          191P    205
126,1,1,0,0,1,0,0.,0.,0.8,0.8,1.,1.,-4.45660888083077,0.,3.,         193P    206
-4.45660888083077,8.,3.,0.,0.8,0.,0.,0.;                             193P    207
126,1,1,0,0,1,0,-0.52,-0.52,0.,0.,1.,1.,-9.65660888083077,8.,3.,     195P    208
-4.45660888083077,8.,3.,-0.52,0.,0.,0.,0.;                           195P    209
126,1,1,0,0,1,0,0.,0.,0.8,0.8,1.,1.,-9.65660888083077,0.,3.,         197P    210
-9.65660888083077,8.,3.,0.,0.8,0.,0.,0.;                             197P    211
126,1,1,0,0,1,0,-0.52,-0.52,0.,0.,1.,1.,-9.65660888083077,8.,        199P    212
8.2,-9.65660888083077,8.,3.,-0.52,0.,0.,0.,0.;                       199P    213
126,1,1,0,0,1,0,0.,0.,0.8,0.8,1.,1.,-70.3109153954755,0.,13.2,       201P    214
-70.3109153954755,8.,13.2,0.,0.8,0.,0.,0.;                           201P    215
126,1,1,0,0,1,0,-0.82,-0.82,0.,0.,1.,1.,-62.1109153954755,8.,        203P    216
13.2,-70.3109153954755,8.,13.2,-0.82,0.,0.,0.,0.;                    203P    217
126,1,1,0,0,1,0,0.,0.,0.8,0.8,1.,1.,-62.1109153954755,0.,13.2,       205P    218
-62.1109153954755,8.,13.2,0.,0.8,0.,0.,0.;                           205P    219
126,1,1,0,0,1,0,-0.82,-0.82,0.,0.,1.,1.,-62.1109153954755,8.,5.,     207P    220
-62.1109153954755,8.,13.2,-0.82,0.,0.,0.,0.;                         207P    221
126,1,1,0,0,1,0,0.,0.,0.8,0.8,1.,1.,-62.1109153954755,0.,5.,         209P    222
-62.1109153954755,8.,5.,0.,0.8,0.,0.,0.;                             209P    223
126,1,1,0,0,1,0,-0.82,-0.82,0.,0.,1.,1.,-70.3109153954755,8.,5.,     211P    224
-62.1109153954755,8.,5.,-0.82,0.,0.,0.,0.;                           211P    225
126,1,1,0,0,1,0,0.,0.,0.8,0.8,1.,1.,-70.3109153954755,0.,5.,         213P    226
-70.3109153954755,8.,5.,0.,0.8,0.,0.,0.;                             213P    227
126,1,1,0,0,1,0,-0.82,-0.82,0.,0.,1.,1.,-70.3109153954755,8.,        215P    228
13.2,-70.3109153954755,8.,5.,-0.82,0.,0.,0.,0.;                      215P    229
126,1,1,0,0,1,0,-0.144327440182036,-0.144327440182036,               217P    230
-0.105061967603372,-0.105061967603372,1.,1.,50.1907485140567,8.,     217P    231
1.43061385542538,50.1388538047854,8.,1.04140353589078,               217P    232
-0.144327440182036,-0.105061967603372,0.,0.,0.;                      217P    233
126,1,1,0,0,1,0,0.6,0.6,3.71445423415964,3.71445423415964,1.,1.,     219P    234
-80.,8.,-14.,-80.,8.,17.1445423415964,0.6,3.71445423415964,0.,       219P    235
0.,0.;                                                               219P    236
128,1,2,1,2,0,0,0,0,0,0.,0.,6.66666666666667,6.66666666666667,       221P    237
-0.719122397249108,-0.719122397249108,-0.719122397249108,            221P    238
0.719122397249116,0.719122397249116,0.719122397249116,1.,1.,         221P    239
0.752384117353303,0.752384117353303,1.,1.,50.1388538047854,8.,       221P    240
1.04140353589078,50.1388538047854,0.,1.04140353589078,50.,8.,        221P    241
4.16333634234434D-15,50.,0.,4.16333634234434D-15,                    221P    242
48.9493803239663,8.,-2.08166817117217D-15,48.9493803239663,0.,       221P    243
-2.08166817117217D-15,0.,6.66666666666667,-0.719122397249108,        221P    244
0.719122397249116;                                                   221P    245
128,1,1,1,1,0,0,1,0,0,0.104061967603373,0.104061967603373,           223P    246
11.801,11.801,-0.001,-0.001,0.801,0.801,1.,1.,1.,1.,                 223P    247
48.9593803239663,-0.01,0.,-68.01,-0.01,0.,48.9593803239663,8.01,     223P    248
0.,-68.01,8.01,0.,0.104061967603373,11.801,-0.001,0.801;             223P    249
128,1,1,1,1,0,0,1,0,0,-6.5184672489083,-6.5184672489083,             225P    250
6.5184672489083,6.5184672489083,-1.97824830875704,                   225P    251
-1.97824830875704,2.001,2.001,1.,1.,1.,1.,50.3593449781659,0.,       225P    252
19.7824830875704,-80.01,0.,19.7824830875704,50.3593449781659,0.,     225P    253
-20.01,-80.01,0.,-20.01,-6.5184672489083,6.5184672489083,            225P    254
-1.97824830875704,2.001;                                             225P    255
128,1,2,1,2,0,0,0,0,0,0.,0.,6.66666666666667,6.66666666666667,       227P    256
-0.785398163397449,-0.785398163397449,-0.785398163397449,            227P    257
0.785398163397449,0.785398163397449,0.785398163397449,1.,1.,         227P    258
0.707106781186547,0.707106781186547,1.,1.,49.1598714973468,8.,       227P    259
2.77868380035377,49.1598714973468,0.,2.77868380035377,               227P    260
50.3493449781659,8.,2.62008733624455,50.3493449781659,0.,            227P    261
2.62008733624455,50.1907485140567,8.,1.43061385542538,               227P    262
50.1907485140567,0.,1.43061385542538,0.,6.66666666666667,            227P    263
-0.785398163397449,0.785398163397449;                                227P    264
128,1,1,1,1,0,0,1,0,0,0.284545765840358,0.284545765840358,           229P    265
13.0312901490563,13.0312901490563,-0.001,-0.001,0.801,0.801,1.,      229P    266
1.,1.,1.,-77.1795029787793,-0.01,19.6239337305039,                   229P    267
49.1697837763536,-0.01,2.77736216315285,-77.1795029787793,8.01,      229P    268
19.6239337305039,49.1697837763536,8.01,2.77736216315285,             229P    269
0.284545765840358,13.0312901490563,-0.001,0.801;                     229P    270
128,1,4,1,2,0,0,0,0,0,0.,0.,3.2,3.2,-0.851673929545783,              231P    271
-0.851673929545783,-0.851673929545783,2.22044604925031D-16,          231P    272
2.22044604925031D-16,0.851673929545791,0.851673929545791,            231P    273
0.851673929545791,1.,1.,0.910693315929006,0.910693315929006,1.,      231P    274
1.,0.910693315929006,0.910693315929006,1.,1.,-80.,8.,                231P    275
17.1445423415964,-80.,0.,17.1445423415964,-80.,8.,                   231P    276
18.278522182389,-80.,0.,18.278522182389,-79.1468115783888,8.,        231P    277
19.0255026349797,-79.1468115783888,0.,19.0255026349797,              231P    278
-78.2936231567777,8.,19.7724830875704,-78.2936231567777,0.,          231P    279
19.7724830875704,-77.1695906997724,8.,19.622612093303,               231P    280
-77.1695906997724,0.,19.622612093303,0.,3.2,-0.851673929545783,      231P    281
0.851673929545791;                                                   231P    282
128,1,2,1,2,0,0,0,0,0,0.,0.,3.2,3.2,-0.785398163397448,              233P    283
-0.785398163397448,-0.785398163397448,0.785398163397448,             233P    284
0.785398163397448,0.785398163397448,1.,1.,0.707106781186548,         233P    285
0.707106781186548,1.,1.,-70.,8.,-17.5,-70.,0.,-17.5,-70.,8.,         233P    286
-20.,-70.,0.,-20.,-72.5,8.,-20.,-72.5,0.,-20.,0.,3.2,                233P    287
-0.785398163397448,0.785398163397448;                                233P    288
128,1,1,1,1,0,0,1,0,0,0.249,0.249,0.401,0.401,-0.001,-0.001,         235P    289
0.801,0.801,1.,1.,1.,1.,-72.49,-0.01,-20.,-74.01,-0.01,-20.,         235P    290
-72.49,8.01,-20.,-74.01,8.01,-20.,0.249,0.401,-0.001,0.801;          235P    291
128,1,2,1,2,0,0,0,0,0,0.,0.,1.33333333333333,1.33333333333333,       237P    292
-0.785398163397448,-0.785398163397448,-0.785398163397448,            237P    293
0.785398163397449,0.785398163397449,0.785398163397449,1.,1.,         237P    294
0.707106781186548,0.707106781186548,1.,1.,-74.,8.,-20.,-74.,0.,      237P    295
-20.,-80.,8.,-20.,-80.,0.,-20.,-80.,8.,-14.,-80.,0.,-14.,0.,         237P    296
1.33333333333333,-0.785398163397448,0.785398163397449;               237P    297
128,1,2,1,2,0,0,0,0,0,0.,0.,4.,4.,-0.78539816339745,                 239P    298
-0.78539816339745,-0.78539816339745,0.785398163397447,               239P    299
0.785398163397447,0.785398163397447,1.,1.,0.707106781186548,         239P    300
0.707106781186548,1.,1.,-70.,0.,-2.,-70.,8.,-2.,-70.,0.,             239P    301
3.33066907387547D-15,-70.,8.,3.33066907387547D-15,-68.,0.,           239P    302
-4.16333634234434D-16,-68.,8.,-4.16333634234434D-16,0.,4.,           239P    303
-0.78539816339745,0.785398163397447;                                 239P    304
128,1,1,1,1,0,0,1,0,0,0.199,0.199,1.751,1.751,-0.001,-0.001,         241P    305
0.801,0.801,1.,1.,1.,1.,-70.,-0.01,-1.99,-70.,-0.01,-17.51,-70.,     241P    306
8.01,-1.99,-70.,8.01,-17.51,0.199,1.751,-0.001,0.801;                241P    307
128,1,1,1,1,0,0,1,0,0,-0.001,-0.001,0.521,0.521,-0.001,-0.001,       243P    308
0.801,0.801,1.,1.,1.,1.,-4.44660888083077,-0.01,8.2,                 243P    309
-9.66660888083077,-0.01,8.2,-4.44660888083077,8.01,8.2,              243P    310
-9.66660888083077,8.01,8.2,-0.001,0.521,-0.001,0.801;                243P    311
128,1,1,1,1,0,0,1,0,0,-0.001,-0.001,0.521,0.521,-0.001,-0.001,       245P    312
0.801,0.801,1.,1.,1.,1.,-4.45660888083077,-0.01,2.99,                245P    313
-4.45660888083077,-0.01,8.21,-4.45660888083077,8.01,2.99,            245P    314
-4.45660888083077,8.01,8.21,-0.001,0.521,-0.001,0.801;               245P    315
128,1,1,1,1,0,0,1,0,0,-0.001,-0.001,0.521,0.521,-0.001,-0.001,       247P    316
0.801,0.801,1.,1.,1.,1.,-9.66660888083077,-0.01,3.,                  247P    317
-4.44660888083077,-0.01,3.,-9.66660888083077,8.01,3.,                247P    318
-4.44660888083077,8.01,3.,-0.001,0.521,-0.001,0.801;                 247P    319
128,1,1,1,1,0,0,1,0,0,-0.001,-0.001,0.521,0.521,-0.001,-0.001,       249P    320
0.801,0.801,1.,1.,1.,1.,-9.65660888083077,-0.01,8.21,                249P    321
-9.65660888083077,-0.01,2.99,-9.65660888083077,8.01,8.21,            249P    322
-9.65660888083077,8.01,2.99,-0.001,0.521,-0.001,0.801;               249P    323
128,1,1,1,1,0,0,1,0,0,-0.001,-0.001,0.821,0.821,-0.001,-0.001,       251P    324
0.801,0.801,1.,1.,1.,1.,-62.1009153954755,-0.01,13.2,                251P    325
-70.3209153954755,-0.01,13.2,-62.1009153954755,8.01,13.2,            251P    326
-70.3209153954755,8.01,13.2,-0.001,0.821,-0.001,0.801;               251P    327
128,1,1,1,1,0,0,1,0,0,-0.001,-0.001,0.821,0.821,-0.001,-0.001,       253P    328
0.801,0.801,1.,1.,1.,1.,-62.1109153954755,-0.01,4.99,                253P    329
-62.1109153954755,-0.01,13.21,-62.1109153954755,8.01,4.99,           253P    330
-62.1109153954755,8.01,13.21,-0.001,0.821,-0.001,0.801;              253P    331
128,1,1,1,1,0,0,1,0,0,-0.001,-0.001,0.821,0.821,-0.001,-0.001,       255P    332
0.801,0.801,1.,1.,1.,1.,-70.3209153954755,-0.01,5.,                  255P    333
-62.1009153954755,-0.01,5.,-70.3209153954755,8.01,5.,                255P    334
-62.1009153954755,8.01,5.,-0.001,0.821,-0.001,0.801;                 255P    335
128,1,1,1,1,0,0,1,0,0,-0.001,-0.001,0.821,0.821,-0.001,-0.001,       257P    336
0.801,0.801,1.,1.,1.,1.,-70.3109153954755,-0.01,13.21,               257P    337
-70.3109153954755,-0.01,4.99,-70.3109153954755,8.01,13.21,           257P    338
-70.3109153954755,8.01,4.99,-0.001,0.821,-0.001,0.801;               257P    339
128,1,1,1,1,0,0,1,0,0,0.119,0.119,0.160265472578664,                 259P    340
0.160265472578664,-0.001,-0.001,0.801,0.801,1.,1.,1.,1.,             259P    341
50.1920701512576,-0.01,1.44052613443221,50.1375321675845,-0.01,      259P    342
1.03149125688395,50.1920701512576,8.01,1.44052613443221,             259P    343
50.1375321675845,8.01,1.03149125688395,0.119,0.160265472578664,      259P    344
-0.001,0.801;                                                        259P    345
128,1,1,1,1,0,0,1,0,0,0.599,0.599,3.71545423415964,                  261P    346
3.71545423415964,-0.001,-0.001,0.801,0.801,1.,1.,1.,1.,-80.,         261P    347
-0.01,-14.01,-80.,-0.01,17.1545423415964,-80.,8.01,-14.01,-80.,      261P    348
8.01,17.1545423415964,0.599,3.71545423415964,-0.001,0.801;           261P    349
128,1,1,1,1,0,0,1,0,0,-2.001,-2.001,1.97824830875704,                263P    350
1.97824830875704,-6.5184672489083,-6.5184672489083,                  263P    351
6.5184672489083,6.5184672489083,1.,1.,1.,1.,-80.01,8.,-20.01,        263P    352
-80.01,8.,19.7824830875704,50.3593449781659,8.,-20.01,               263P    353
50.3593449781659,8.,19.7824830875704,-2.001,1.97824830875704,        263P    354
-6.5184672489083,6.5184672489083;                                    263P    355
502,40,48.9493803239663,8.,0.,50.1388538047854,8.,                   265P    356
1.04140353589078,50.1388538047854,0.,1.04140353589078,               265P    357
48.9493803239663,0.,0.,-68.,0.,0.,-68.,8.,0.,50.1907485140567,       265P    358
0.,1.43061385542538,49.1598714973468,0.,2.77868380035376,            265P    359
-77.1695906997725,0.,19.622612093303,-80.,0.,17.1445423415964,       265P    360
-80.,0.,-14.,-74.,0.,-20.,-72.5,0.,-20.,-70.,0.,-17.5,-70.,0.,       265P    361
-2.,-9.65660888083077,0.,8.2,-9.65660888083077,0.,3.,                265P    362
-4.45660888083077,0.,8.2,-4.45660888083077,0.,3.,                    265P    363
-70.3109153954755,0.,13.2,-70.3109153954755,0.,5.,                   265P    364
-62.1109153954755,0.,13.2,-62.1109153954755,0.,5.,                   265P    365
50.1907485140567,8.,1.43061385542538,49.1598714973468,8.,            265P    366
2.77868380035376,-77.1695906997725,8.,19.622612093303,-80.,8.,       265P    367
17.1445423415964,-72.5,8.,-20.,-70.,8.,-17.5,-74.,8.,-20.,-80.,      265P    368
8.,-14.,-70.,8.,-2.,-9.65660888083077,8.,8.2,-4.45660888083077,      265P    369
8.,8.2,-4.45660888083077,8.,3.,-9.65660888083077,8.,3.,              265P    370
-70.3109153954755,8.,13.2,-62.1109153954755,8.,13.2,                 265P    371
-62.1109153954755,8.,5.,-70.3109153954755,8.,5.;                     265P    372
504,60,101,265,1,265,2,103,265,2,265,3,105,265,3,265,4,107,265,      267P    373
4,265,1,109,265,5,265,4,111,265,6,265,5,113,265,1,265,6,115,265,     267P    374
3,265,7,117,265,8,265,7,119,265,9,265,8,121,265,10,265,9,123,        267P    375
265,11,265,10,125,265,12,265,11,127,265,13,265,12,129,265,14,        267P    376
265,13,131,265,15,265,14,133,265,5,265,15,135,265,16,265,17,137,     267P    377
265,18,265,16,139,265,19,265,18,141,265,17,265,19,143,265,20,        267P    378
265,21,145,265,22,265,20,147,265,23,265,22,149,265,21,265,23,        267P    379
151,265,24,265,25,153,265,25,265,8,155,265,7,265,24,157,265,26,      267P    380
265,25,159,265,9,265,26,161,265,26,265,27,163,265,27,265,10,165,     267P    381
265,28,265,29,167,265,29,265,14,169,265,13,265,28,171,265,30,        267P    382
265,12,173,265,28,265,30,175,265,31,265,30,177,265,11,265,31,        267P    383
179,265,15,265,32,181,265,32,265,6,183,265,32,265,29,185,265,16,     267P    384
265,33,187,265,34,265,33,189,265,18,265,34,191,265,35,265,34,        267P    385
193,265,19,265,35,195,265,36,265,35,197,265,17,265,36,199,265,       267P    386
33,265,36,201,265,20,265,37,203,265,38,265,37,205,265,22,265,38,     267P    387
207,265,39,265,38,209,265,23,265,39,211,265,40,265,39,213,265,       267P    388
21,265,40,215,265,37,265,40,217,265,24,265,2,219,265,31,265,27;      267P    389
406,1,5HBody1;                                                       269P    390
314,62.7450980392157,62.7450980392157,62.7450980392157,13HSteel      271P    391
- Satin;                                                             271P    392
S      1G      3D    272P    392                                        T      1
