0
SECTION
2
HEADER
9
$INSUNITS
70
4
9
$ACADVER
1
AC1014
9
$HANDSEED
5
FFFF
0
ENDSEC
0
SECTION
2
TABLES
0
TABLE
2
VPORT
5
8
100
AcDbSymbolTable
0
ENDTAB
0
TABLE
2
LTYPE
5
5
100
AcDbSymbolTable
0
LTYPE
5
14
100
AcDbSymbolTableRecord
100
AcDbLinetypeTableRecord
2
BYBLOCK
70
0
0
LTYPE
5
15
100
AcDbSymbolTableRecord
100
AcDbLinetypeTableRecord
2
BYLAYER
70
0
0
ENDTAB
0
TABLE
2
LAYER
5
2
100
AcDbSymbolTable
70
2
0
LAYER
5
50
100
AcDbSymbolTableRecord
100
AcDbLayerTableRecord
2
0
70
0
6
CONTINUOUS
0
ENDTAB
0
TABLE
2
STYLE
5
3
100
AcDbSymbolTable
70
1
0
STYLE
5
11
100
AcDbSymbolTableRecord
100
AcDbTextStyleTableRecord
2
STANDARD
70
0
0
ENDTAB
0
TABLE
2
VIEW
5
6
100
AcDbSymbolTable
70
0
0
ENDTAB
0
TABLE
2
UCS
5
7
100
AcDbSymbolTable
70
0
0
ENDTAB
0
TABLE
2
APPID
5
9
100
AcDbSymbolTable
70
2
0
APPID
5
12
100
AcDbSymbolTableRecord
100
AcDbRegAppTableRecord
2
ACAD
70
0
0
ENDTAB
0
TABLE
2
DIMSTYLE
5
A
100
AcDbSymbolTable
70
1
0
ENDTAB
0
TABLE
2
BLOCK_RECORD
5
1
100
AcDbSymbolTable
70
1
0
BLOCK_RECORD
5
1F
100
AcDbSymbolTableRecord
100
AcDbBlockTableRecord
2
*MODEL_SPACE
0
BLOCK_RECORD
5
1B
100
AcDbSymbolTableRecord
100
AcDbBlockTableRecord
2
*PAPER_SPACE
0
ENDTAB
0
ENDSEC
0
SECTION
2
BLOCKS
0
BLOCK
5
20
100
AcDbEntity
100
AcDbBlockBegin
2
*MODEL_SPACE
0
ENDBLK
5
21
100
AcDbEntity
100
AcDbBlockEnd
0
BLOCK
5
1C
100
AcDbEntity
100
AcDbBlockBegin
2
*PAPER_SPACE
0
ENDBLK
5
1D
100
AcDbEntity
100
AcDbBlockEnd
0
ENDSEC
0
SECTION
2
ENTITIES
0
LWPOLYLINE
5
100
100
AcDbEntity
8
0
100
AcDbPolyline
90
5
70
1
43
0.0
10
-15
20
-10
10
-15
20
8
10
15
20
-10
10
15
20
-16.500002961611777
10
-15
20
-16.500002961611777
0
LINE
5
101
100
AcDbEntity
8
0
100
AcDbLine
10
-15
20
8
30
0
11
15
21
8
31
0
0
LINE
5
102
100
AcDbEntity
8
0
100
AcDbLine
10
15
20
8
30
0
11
15
21
-10
31
0
0
LINE
5
103
100
AcDbEntity
8
0
100
AcDbLine
10
-15
20
-10
30
0
11
15
21
8
31
0
0
LINE
5
104
100
AcDbEntity
8
0
100
AcDbLine
10
6.1644180866803229
20
-16.500002961611777
30
0
11
-15
21
-16.500002961611777
31
0
0
LWPOLYLINE
5
105
100
AcDbEntity
8
0
100
AcDbPolyline
90
4
70
1
43
0.0
10
6
20
6.0000000000000009
10
-6
20
6.0000000000000009
10
-6
20
-6.0000000000000009
10
6
20
-6.0000000000000009
0
LINE
5
106
100
AcDbEntity
8
0
100
AcDbLine
10
6
20
6.0000000000000009
30
0
11
-6
21
-6.0000000000000009
31
0
0
LINE
5
107
100
AcDbEntity
8
0
100
AcDbLine
10
-6
20
6.0000000000000009
30
0
11
6
21
-6.0000000000000009
31
0
0
CIRCLE
5
108
100
AcDbEntity
8
0
100
AcDbCircle
10
-11.792010080183601
20
0
30
0
40
1.7500000000000004
210
0
220
0
230
1
0
CIRCLE
5
109
100
AcDbEntity
8
0
100
AcDbCircle
10
11.792010080183601
20
0
30
0
40
1.7500000000000004
210
0
220
0
230
1
0
CIRCLE
5
110
100
AcDbEntity
8
0
100
AcDbCircle
10
-11.792010080183601
20
-26
30
0
40
1.7500000000000004
210
0
220
0
230
1
0
LWPOLYLINE
5
111
100
AcDbEntity
8
0
100
AcDbPolyline
90
3
70
1
43
0.0
10
-6
20
-32
10
6
20
-32
10
-6
20
-20
0
LWPOLYLINE
5
112
100
AcDbEntity
8
0
100
AcDbPolyline
90
5
70
1
43
0.0
10
15
20
-36
10
15
20
-42.50000296161177
10
-15
20
-42.50000296161177
10
-15
20
-36
10
-15
20
-18
0
LINE
5
113
100
AcDbEntity
8
0
100
AcDbLine
10
15
20
-18
30
0
11
15
21
-36
31
0
0
LINE
5
114
100
AcDbEntity
8
0
100
AcDbLine
10
6
20
-32
30
0
11
6
21
-20
31
0
0
LINE
5
115
100
AcDbEntity
8
0
100
AcDbLine
10
-15
20
-36
30
0
11
15
21
-18
31
0
0
LINE
5
116
100
AcDbEntity
8
0
100
AcDbLine
10
6
20
-20
30
0
11
-6
21
-20
31
0
0
LINE
5
117
100
AcDbEntity
8
0
100
AcDbLine
10
6
20
-20
30
0
11
-6
21
-32
31
0
0
CIRCLE
5
118
100
AcDbEntity
8
0
100
AcDbCircle
10
11.792010080183601
20
-26
30
0
40
1.7500000000000004
210
0
220
0
230
1
0
LINE
5
119
100
AcDbEntity
8
0
100
AcDbLine
10
6.1644180866803229
20
-42.50000296161177
30
0
11
-15
21
-42.50000296161177
31
0
0
LINE
5
120
100
AcDbEntity
8
0
100
AcDbLine
10
-15
20
-18
30
0
11
15
21
-18
31
0
0
LWPOLYLINE
5
121
100
AcDbEntity
8
0
100
AcDbPolyline
90
5
70
1
43
0.0
10
-48.000000000000007
20
-16.500002961611774
10
-18.000000000000004
20
-16.500002961611774
10
-18.000000000000004
20
-10
10
-18.000000000000004
20
8
10
-48.000000000000007
20
-10
0
CIRCLE
5
122
100
AcDbEntity
8
0
100
AcDbCircle
10
-21.207989919816402
20
0
30
0
40
1.7500000000000004
210
0
220
0
230
1
0
LWPOLYLINE
5
123
100
AcDbEntity
8
0
100
AcDbPolyline
90
3
70
1
43
0.0
10
-27
20
-6.0000000000000009
10
-27
20
6.0000000000000009
10
-39
20
6.0000000000000036
0
LINE
5
124
100
AcDbEntity
8
0
100
AcDbLine
10
-27
20
6.0000000000000009
30
0
11
-39
21
-5.9999999999999964
31
0
0
CIRCLE
5
125
100
AcDbEntity
8
0
100
AcDbCircle
10
-44.792010080183609
20
0
30
0
40
1.7500000000000004
210
0
220
0
230
1
0
LINE
5
126
100
AcDbEntity
8
0
100
AcDbLine
10
-18.000000000000004
20
-10
30
0
11
-48.000000000000007
21
8
31
0
0
LINE
5
127
100
AcDbEntity
8
0
100
AcDbLine
10
-39
20
6.0000000000000036
30
0
11
-39
21
-5.9999999999999964
31
0
0
LINE
5
128
100
AcDbEntity
8
0
100
AcDbLine
10
-26.835581913319679
20
-16.500002961611774
30
0
11
-48.000000000000007
21
-16.500002961611774
31
0
0
LINE
5
129
100
AcDbEntity
8
0
100
AcDbLine
10
-39
20
-5.9999999999999964
30
0
11
-27
21
-6.0000000000000009
31
0
0
LINE
5
130
100
AcDbEntity
8
0
100
AcDbLine
10
-48.000000000000007
20
8
30
0
11
-18.000000000000004
21
8
31
0
0
LINE
5
131
100
AcDbEntity
8
0
100
AcDbLine
10
-48.000000000000007
20
-10
30
0
11
-48.000000000000007
21
8
31
0
0
LWPOLYLINE
5
132
100
AcDbEntity
8
0
100
AcDbPolyline
90
3
70
1
43
0.0
10
-18.000000000000004
20
-36
10
-48.000000000000007
20
-18
10
-18.000000000000004
20
-18
0
LINE
5
133
100
AcDbEntity
8
0
100
AcDbLine
10
-48.000000000000007
20
-36
30
0
11
-48.000000000000007
21
-18
31
0
0
LINE
5
134
100
AcDbEntity
8
0
100
AcDbLine
10
-48.000000000000007
20
-42.50000296161177
30
0
11
-18.000000000000004
21
-42.50000296161177
31
0
0
LWPOLYLINE
5
135
100
AcDbEntity
8
0
100
AcDbPolyline
90
4
70
1
43
0.0
10
-27
20
-32
10
-27
20
-20
10
-39
20
-31.999999999999989
10
-39
20
-19.999999999999986
0
LINE
5
136
100
AcDbEntity
8
0
100
AcDbLine
10
-48.000000000000007
20
-36
30
0
11
-48.000000000000007
21
-42.50000296161177
31
0
0
CIRCLE
5
137
100
AcDbEntity
8
0
100
AcDbCircle
10
-44.792010080183609
20
-26
30
0
40
1.7500000000000004
210
0
220
0
230
1
0
LINE
5
138
100
AcDbEntity
8
0
100
AcDbLine
10
-39
20
-31.999999999999989
30
0
11
-27
21
-32
31
0
0
LINE
5
139
100
AcDbEntity
8
0
100
AcDbLine
10
-27
20
-20
30
0
11
-39
21
-19.999999999999986
31
0
0
CIRCLE
5
140
100
AcDbEntity
8
0
100
AcDbCircle
10
-21.207989919816402
20
-26
30
0
40
1.7500000000000004
210
0
220
0
230
1
0
LINE
5
141
100
AcDbEntity
8
0
100
AcDbLine
10
-26.835581913319679
20
-42.50000296161177
30
0
11
-48.000000000000007
21
-42.50000296161177
31
0
0
LINE
5
142
100
AcDbEntity
8
0
100
AcDbLine
10
-18.000000000000004
20
-36
30
0
11
-18.000000000000004
21
-42.50000296161177
31
0
0
LINE
5
143
100
AcDbEntity
8
0
100
AcDbLine
10
-48.000000000000007
20
-36
30
0
11
-18.000000000000004
21
-18
31
0
0
LWPOLYLINE
5
144
100
AcDbEntity
8
0
100
AcDbPolyline
90
3
70
1
43
0.0
10
38
20
-6.0000000000000009
10
38
20
6.0000000000000009
10
26
20
6.0000000000000009
0
LINE
5
145
100
AcDbEntity
8
0
100
AcDbLine
10
38
20
6.0000000000000009
30
0
11
26
21
-6.0000000000000009
31
0
0
CIRCLE
5
146
100
AcDbEntity
8
0
100
AcDbCircle
10
20.207989919816399
20
0
30
0
40
1.7500000000000004
210
0
220
0
230
1
0
CIRCLE
5
147
100
AcDbEntity
8
0
100
AcDbCircle
10
43.792010080183601
20
0
30
0
40
1.7500000000000004
210
0
220
0
230
1
0
LINE
5
148
100
AcDbEntity
8
0
100
AcDbLine
10
26
20
-6.0000000000000009
30
0
11
38
21
-6.0000000000000009
31
0
0
LWPOLYLINE
5
149
100
AcDbEntity
8
0
100
AcDbPolyline
90
6
70
1
43
0.0
10
47
20
-10
10
47
20
-16.500002961611777
10
17
20
-16.500002961611777
10
17
20
-10
10
47
20
8
10
17
20
8
0
LINE
5
150
100
AcDbEntity
8
0
100
AcDbLine
10
47
20
8
30
0
11
47
21
-10
31
0
0
LINE
5
151
100
AcDbEntity
8
0
100
AcDbLine
10
17
20
-10
30
0
11
17
21
8
31
0
0
LINE
5
152
100
AcDbEntity
8
0
100
AcDbLine
10
38.164418086680321
20
-16.500002961611777
30
0
11
17
21
-16.500002961611777
31
0
0
LINE
5
153
100
AcDbEntity
8
0
100
AcDbLine
10
26
20
6.0000000000000009
30
0
11
26
21
-6.0000000000000009
31
0
0
LINE
5
154
100
AcDbEntity
8
0
100
AcDbLine
10
17
20
-36
30
0
11
47
21
-18
31
0
0
LWPOLYLINE
5
155
100
AcDbEntity
8
0
100
AcDbPolyline
90
5
70
1
43
0.0
10
47
20
-36
10
17
20
-18
10
17
20
-36
10
17
20
-42.50000296161177
10
47
20
-42.50000296161177
0
LINE
5
156
100
AcDbEntity
8
0
100
AcDbLine
10
38.164418086680321
20
-42.50000296161177
30
0
11
17
21
-42.50000296161177
31
0
0
CIRCLE
5
157
100
AcDbEntity
8
0
100
AcDbCircle
10
43.792010080183601
20
-26
30
0
40
1.7500000000000004
210
0
220
0
230
1
0
LINE
5
158
100
AcDbEntity
8
0
100
AcDbLine
10
17
20
-18
30
0
11
47
21
-18
31
0
0
LWPOLYLINE
5
159
100
AcDbEntity
8
0
100
AcDbPolyline
90
3
70
1
43
0.0
10
38
20
-32
10
38
20
-20
10
26
20
-32
0
CIRCLE
5
160
100
AcDbEntity
8
0
100
AcDbCircle
10
20.207989919816399
20
-26
30
0
40
1.7500000000000004
210
0
220
0
230
1
0
LINE
5
161
100
AcDbEntity
8
0
100
AcDbLine
10
26
20
-20
30
0
11
26
21
-32
31
0
0
LINE
5
162
100
AcDbEntity
8
0
100
AcDbLine
10
26
20
-20
30
0
11
38
21
-32
31
0
0
LINE
5
163
100
AcDbEntity
8
0
100
AcDbLine
10
38
20
-20
30
0
11
26
21
-20
31
0
0
LINE
5
164
100
AcDbEntity
8
0
100
AcDbLine
10
47
20
-18
30
0
11
47
21
-36
31
0
0
LWPOLYLINE
5
165
100
AcDbEntity
8
0
100
AcDbPolyline
90
5
70
1
43
0.0
10
-18.000000000000004
20
-63.000000000000007
10
-18.000000000000004
20
-69.50000296161177
10
-48.000000000000007
20
-69.50000296161177
10
-48.000000000000007
20
-63.000000000000007
10
-48.000000000000007
20
-45
0
LWPOLYLINE
5
166
100
AcDbEntity
8
0
100
AcDbPolyline
90
3
70
1
43
0.0
10
-27
20
-47
10
-39.000000000000043
20
-58.99999999999995
10
-27
20
-59
0
LINE
5
167
100
AcDbEntity
8
0
100
AcDbLine
10
-48.000000000000007
20
-63.000000000000007
30
0
11
-18.000000000000004
21
-45
31
0
0
CIRCLE
5
168
100
AcDbEntity
8
0
100
AcDbCircle
10
-21.207989919816402
20
-53.000000000000007
30
0
40
1.7500000000000004
210
0
220
0
230
1
0
LINE
5
169
100
AcDbEntity
8
0
100
AcDbLine
10
-39.000000000000028
20
-46.999999999999943
30
0
11
-39.000000000000043
21
-58.99999999999995
31
0
0
LINE
5
170
100
AcDbEntity
8
0
100
AcDbLine
10
-26.835581913319679
20
-69.50000296161177
30
0
11
-48.000000000000007
21
-69.50000296161177
31
0
0
LINE
5
171
100
AcDbEntity
8
0
100
AcDbLine
10
-48.000000000000007
20
-45
30
0
11
-18.000000000000004
21
-45
31
0
0
LINE
5
172
100
AcDbEntity
8
0
100
AcDbLine
10
-27
20
-47
30
0
11
-39.000000000000028
21
-46.999999999999943
31
0
0
LINE
5
173
100
AcDbEntity
8
0
100
AcDbLine
10
-18.000000000000004
20
-45
30
0
11
-18.000000000000004
21
-63.000000000000007
31
0
0
CIRCLE
5
174
100
AcDbEntity
8
0
100
AcDbCircle
10
-44.792010080183609
20
-53.000000000000007
30
0
40
1.7500000000000004
210
0
220
0
230
1
0
LINE
5
175
100
AcDbEntity
8
0
100
AcDbLine
10
-39.000000000000028
20
-46.999999999999943
30
0
11
-27
21
-59
31
0
0
LINE
5
176
100
AcDbEntity
8
0
100
AcDbLine
10
-42.735649747801332
20
-14.401741911233408
30
0
11
-42.735649747801332
21
-14.991782594979746
31
0
0
LINE
5
177
100
AcDbEntity
8
0
100
AcDbLine
10
-42.735649747801332
20
-14.991782594979746
30
0
11
-46.040561245781689
21
-14.991782594979743
31
0
0
SPLINE
5
178
100
AcDbEntity
8
0
100
AcDbSpline
70
0
71
2
72
6
73
3
74
0
42
0.000000001
43
0.0000000001
44
0.0000000001
40
0
40
0
40
0
40
1
40
1
40
1
10
-46.040561245781689
20
-14.991782594979743
30
0
10
-46.047382531714945
20
-14.770090867341498
30
0
10
-45.968937790048628
20
-14.56545262461994
30
0
0
SPLINE
5
179
100
AcDbEntity
8
0
100
AcDbSpline
70
0
71
2
72
6
73
3
74
0
42
0.000000001
43
0.0000000001
44
0.0000000001
40
0
40
0
40
0
40
1
40
1
40
1
10
-45.968937790048628
20
-14.56545262461994
30
0
10
-45.842744065475969
20
-14.227798868478278
30
0
10
-45.564776761484652
20
-13.900377441705206
30
0
0
SPLINE
5
180
100
AcDbEntity
8
0
100
AcDbSpline
70
0
71
2
72
6
73
3
74
0
42
0.000000001
43
0.0000000001
44
0.0000000001
40
0
40
0
40
0
40
1
40
1
40
1
10
-45.564776761484652
20
-13.900377441705206
30
0
10
-45.28680953199914
20
-13.572956014932139
30
0
10
-44.761570794535189
20
-13.143214870751841
30
0
0
SPLINE
5
181
100
AcDbEntity
8
0
100
AcDbSpline
70
0
71
2
72
6
73
3
74
0
42
0.000000001
43
0.0000000001
44
0.0000000001
40
0
40
0
40
0
40
1
40
1
40
1
10
-44.761570794535189
20
-13.143214870751841
30
0
10
-43.946427507353334
20
-12.474729408086283
30
0
10
-43.659933609915285
20
-12.084211100400431
30
0
0
SPLINE
5
182
100
AcDbEntity
8
0
100
AcDbSpline
70
0
71
2
72
6
73
3
74
0
42
0.000000001
43
0.0000000001
44
0.0000000001
40
0
40
0
40
0
40
1
40
1
40
1
10
-43.659933609915285
20
-12.084211100400431
30
0
10
-43.373439712477236
20
-11.693692494691355
30
0
10
-43.373439712477236
20
-11.345807005227549
30
0
0
SPLINE
5
183
100
AcDbEntity
8
0
100
AcDbSpline
70
0
71
2
72
6
73
3
74
0
42
0.000000001
43
0.0000000001
44
0.0000000001
40
0
40
0
40
0
40
1
40
1
40
1
10
-43.373439712477236
20
-11.345807005227549
30
0
10
-43.373439712477236
20
-10.980868626893503
30
0
10
-43.634353978586702
20
-10.730186392129404
30
0
0
SPLINE
5
184
100
AcDbEntity
8
0
100
AcDbSpline
70
0
71
2
72
6
73
3
74
0
42
0.000000001
43
0.0000000001
44
0.0000000001
40
0
40
0
40
0
40
1
40
1
40
1
10
-43.634353978586702
20
-10.730186392129404
30
0
10
-43.895267946672945
20
-10.479504157365305
30
0
10
-44.314776761484652
20
-10.479504157365305
30
0
0
SPLINE
5
185
100
AcDbEntity
8
0
100
AcDbSpline
70
0
71
2
72
6
73
3
74
0
42
0.000000001
43
0.0000000001
44
0.0000000001
40
0
40
0
40
0
40
1
40
1
40
1
10
-44.314776761484652
20
-10.479504157365305
30
0
10
-44.758160216761141
20
-10.479504157365305
30
0
10
-45.024190200520067
20
-10.745534290135843
30
0
0
SPLINE
5
186
100
AcDbEntity
8
0
100
AcDbSpline
70
0
71
2
72
6
73
3
74
0
42
0.000000001
43
0.0000000001
44
0.0000000001
40
0
40
0
40
0
40
1
40
1
40
1
10
-45.024190200520067
20
-10.745534290135843
30
0
10
-45.290220184278994
20
-11.011564422906382
30
0
10
-45.293630836558847
20
-11.482232798398478
30
0
0
LINE
5
187
100
AcDbEntity
8
0
100
AcDbLine
10
-45.293630836558847
20
-11.482232798398478
30
0
11
-45.92459945942214
21
-11.417430628598673
31
0
0
SPLINE
5
188
100
AcDbEntity
8
0
100
AcDbSpline
70
0
71
2
72
6
73
3
74
0
42
0.000000001
43
0.0000000001
44
0.0000000001
40
0
40
0
40
0
40
1
40
1
40
1
10
-45.92459945942214
20
-11.41743062859867
30
0
10
-45.859797252369432
20
-10.711427916348917
30
0
10
-45.436877710772066
20
-10.341373373330576
30
0
0
SPLINE
5
189
100
AcDbEntity
8
0
100
AcDbSpline
70
0
71
2
72
6
73
3
74
0
42
0.000000001
43
0.0000000001
44
0.0000000001
40
0
40
0
40
0
40
1
40
1
40
1
10
-45.436877710772066
20
-10.341373373330576
30
0
10
-45.013958243680506
20
-9.9713185322890112
30
0
10
-44.301134152365236
20
-9.9713185322890112
30
0
0
SPLINE
5
190
100
AcDbEntity
8
0
100
AcDbSpline
70
0
71
2
72
6
73
3
74
0
42
0.000000001
43
0.0000000001
44
0.0000000001
40
0
40
0
40
0
40
1
40
1
40
1
10
-44.301134152365236
20
-9.9713185322890112
30
0
10
-43.581488830996065
20
-9.9713185322890112
30
0
10
-43.161980016184359
20
-10.370363880456431
30
0
0
SPLINE
5
191
100
AcDbEntity
8
0
100
AcDbSpline
70
0
71
2
72
6
73
3
74
0
42
0.000000001
43
0.0000000001
44
0.0000000001
40
0
40
0
40
0
40
1
40
1
40
1
10
-43.161980016184359
20
-10.370363880456431
30
0
10
-42.742471201372652
20
-10.769408632577402
30
0
10
-42.742471201372652
20
-11.359449614346964
30
0
0
SPLINE
5
192
100
AcDbEntity
8
0
100
AcDbSpline
70
0
71
2
72
6
73
3
74
0
42
0.000000001
43
0.0000000001
44
0.0000000001
40
0
40
0
40
0
40
1
40
1
40
1
10
-42.742471201372652
20
-11.359449614346964
30
0
10
-42.742471201372652
20
-11.659586120904429
30
0
10
-42.865254087400942
20
-11.949490596116526
30
0
0
SPLINE
5
193
100
AcDbEntity
8
0
100
AcDbSpline
70
0
71
2
72
6
73
3
74
0
42
0.000000001
43
0.0000000001
44
0.0000000001
40
0
40
0
40
0
40
1
40
1
40
1
10
-42.865254087400942
20
-11.949490596116526
30
0
10
-42.988037271452455
20
-12.239395071328623
30
0
10
-43.272825880003481
20
-12.559995342553599
30
0
0
SPLINE
5
194
100
AcDbEntity
8
0
100
AcDbSpline
70
0
71
2
72
6
73
3
74
0
42
0.000000001
43
0.0000000001
44
0.0000000001
40
0
40
0
40
0
40
1
40
1
40
1
10
-43.272825880003481
20
-12.559995342553599
30
0
10
-43.557614488554506
20
-12.880595613778574
30
0
10
-44.219278795671968
20
-13.439940799535258
30
0
0
SPLINE
5
195
100
AcDbEntity
8
0
100
AcDbSpline
70
0
71
2
72
6
73
3
74
0
42
0.000000001
43
0.0000000001
44
0.0000000001
40
0
40
0
40
0
40
1
40
1
40
1
10
-44.219278795671968
20
-13.439940799535258
30
0
10
-44.771802825880556
20
-13.903788019479258
30
0
10
-44.928692234707384
20
-14.069204021752814
30
0
0
SPLINE
5
196
100
AcDbEntity
8
0
100
AcDbSpline
70
0
71
2
72
6
73
3
74
0
42
0.000000001
43
0.0000000001
44
0.0000000001
40
0
40
0
40
0
40
1
40
1
40
1
10
-44.928692234707384
20
-14.069204021752814
30
0
10
-45.085581718040018
20
-14.234620024026373
30
0
10
-45.187900913906603
20
-14.401741911233405
30
0
0
LINE
5
197
100
AcDbEntity
8
0
100
AcDbLine
10
-45.187900913906603
20
-14.401741911233405
30
0
11
-42.735649747801332
21
-14.401741911233408
31
0
0
SPLINE
5
198
100
AcDbEntity
8
0
100
AcDbSpline
70
0
71
2
72
6
73
3
74
0
42
0.000000001
43
0.0000000001
44
0.0000000001
40
0
40
0
40
0
40
1
40
1
40
1
10
-42.077396316481142
20
-12.525888968766672
30
0
10
-42.077396316481142
20
-11.639122058213694
30
0
10
-41.894927127314119
20
-11.098535646260721
30
0
0
SPLINE
5
199
100
AcDbEntity
8
0
100
AcDbSpline
70
0
71
2
72
6
73
3
74
0
42
0.000000001
43
0.0000000001
44
0.0000000001
40
0
40
0
40
0
40
1
40
1
40
1
10
-41.894927127314119
20
-11.098535646260721
30
0
10
-41.712457640123873
20
-10.557948936284525
30
0
10
-41.352634830427675
20
-10.26463388329838
30
0
0
SPLINE
5
200
100
AcDbEntity
8
0
100
AcDbSpline
70
0
71
2
72
6
73
3
74
0
42
0.000000001
43
0.0000000001
44
0.0000000001
40
0
40
0
40
0
40
1
40
1
40
1
10
-41.352634830427675
20
-10.26463388329838
30
0
10
-40.992812318754702
20
-9.971319128335459
30
0
10
-40.447109742117433
20
-9.971319128335459
30
0
0
SPLINE
5
201
100
AcDbEntity
8
0
100
AcDbSpline
70
0
71
2
72
6
73
3
74
0
42
0.000000001
43
0.0000000001
44
0.0000000001
40
0
40
0
40
0
40
1
40
1
40
1
10
-40.447109742117433
20
-9.971319128335459
30
0
10
-40.044653816175966
20
-9.971319128335459
30
0
10
-39.741107029867678
20
-10.133323956788525
30
0
0
SPLINE
5
202
100
AcDbEntity
8
0
100
AcDbSpline
70
0
71
2
72
6
73
3
74
0
42
0.000000001
43
0.0000000001
44
0.0000000001
40
0
40
0
40
0
40
1
40
1
40
1
10
-39.741107029867678
20
-10.133323956788525
30
0
10
-39.437559647512941
20
-10.29532967931126
30
0
10
-39.239742560339479
20
-10.600582052529797
30
0
0
SPLINE
5
203
100
AcDbEntity
8
0
100
AcDbSpline
70
0
71
2
72
6
73
3
74
0
42
0.000000001
43
0.0000000001
44
0.0000000001
40
0
40
0
40
0
40
1
40
1
40
1
10
-39.239742560339479
20
-10.600582052529797
30
0
10
-39.041925473166017
20
-10.905834425748333
30
0
10
-38.929374618483095
20
-11.344101716340527
30
0
0
SPLINE
5
204
100
AcDbEntity
8
0
100
AcDbSpline
70
0
71
2
72
6
73
3
74
0
42
0.000000001
43
0.0000000001
44
0.0000000001
40
0
40
0
40
0
40
1
40
1
40
1
10
-38.929374618483095
20
-11.344101716340527
30
0
10
-38.816823167753725
20
-11.78236900693272
30
0
10
-38.816823167753725
20
-12.525888968766674
30
0
0
SPLINE
5
205
100
AcDbEntity
8
0
100
AcDbSpline
70
0
71
2
72
6
73
3
74
0
42
0.000000001
43
0.0000000001
44
0.0000000001
40
0
40
0
40
0
40
1
40
1
40
1
10
-38.816823167753725
20
-12.525888968766674
30
0
10
-38.816823167753725
20
-13.405834425748333
30
0
10
-38.997587366056948
20
-13.946420837701305
30
0
0
SPLINE
5
206
100
AcDbEntity
8
0
100
AcDbSpline
70
0
71
2
72
6
73
3
74
0
42
0.000000001
43
0.0000000001
44
0.0000000001
40
0
40
0
40
0
40
1
40
1
40
1
10
-38.997587366056948
20
-13.946420837701305
30
0
10
-39.178350968313723
20
-14.487007547677502
30
0
10
-39.538174076033144
20
-14.782027889550671
30
0
0
SPLINE
5
207
100
AcDbEntity
8
0
100
AcDbSpline
70
0
71
2
72
6
73
3
74
0
42
0.000000001
43
0.0000000001
44
0.0000000001
40
0
40
0
40
0
40
1
40
1
40
1
10
-39.538174076033144
20
-14.782027889550671
30
0
10
-39.897996587706118
20
-15.077048827470287
30
0
10
-40.447109742117433
20
-15.077048827470287
30
0
0
SPLINE
5
208
100
AcDbEntity
8
0
100
AcDbSpline
70
0
71
2
72
6
73
3
74
0
42
0.000000001
43
0.0000000001
44
0.0000000001
40
0
40
0
40
0
40
1
40
1
40
1
10
-40.447109742117433
20
-15.077048827470287
30
0
10
-41.170165939283876
20
-15.077048827470287
30
0
10
-41.582853300524263
20
-14.55863146907185
30
0
0
SPLINE
5
209
100
AcDbEntity
8
0
100
AcDbSpline
70
0
71
2
72
6
73
3
74
0
42
0.000000001
43
0.0000000001
44
0.0000000001
40
0
40
0
40
0
40
1
40
1
40
1
10
-41.582853300524263
20
-14.55863146907185
30
0
10
-42.077396316481142
20
-13.934483815492138
30
0
10
-42.077396316481142
20
-12.525888968766672
30
0
0
SPLINE
5
210
100
AcDbEntity
8
0
100
AcDbSpline
70
0
71
2
72
6
73
3
74
0
42
0.000000001
43
0.0000000001
44
0.0000000001
40
0
40
0
40
0
40
1
40
1
40
1
10
-41.446427507353334
20
-12.525888968766674
30
0
10
-41.446427507353334
20
-13.757130194962963
30
0
10
-41.158228321028261
20
-14.164701987565502
30
0
0
SPLINE
5
211
100
AcDbEntity
8
0
100
AcDbSpline
70
0
71
2
72
6
73
3
74
0
42
0.000000001
43
0.0000000001
44
0.0000000001
40
0
40
0
40
0
40
1
40
1
40
1
10
-41.158228321028261
20
-14.164701987565502
30
0
10
-40.870029134703188
20
-14.572273780168041
30
0
10
-40.447109742117433
20
-14.572273780168041
30
0
0
SPLINE
5
212
100
AcDbEntity
8
0
100
AcDbSpline
70
0
71
2
72
6
73
3
74
0
42
0.000000001
43
0.0000000001
44
0.0000000001
40
0
40
0
40
0
40
1
40
1
40
1
10
-40.447109742117433
20
-14.572273780168041
30
0
10
-40.024190349531679
20
-14.572273780168041
30
0
10
-39.735991163206606
20
-14.162996698678478
30
0
0
SPLINE
5
213
100
AcDbEntity
8
0
100
AcDbSpline
70
0
71
2
72
6
73
3
74
0
42
0.000000001
43
0.0000000001
44
0.0000000001
40
0
40
0
40
0
40
1
40
1
40
1
10
-39.735991163206606
20
-14.162996698678478
30
0
10
-39.447791976881533
20
-13.753719617188915
30
0
10
-39.447791976881533
20
-12.525888968766674
30
0
0
SPLINE
5
214
100
AcDbEntity
8
0
100
AcDbSpline
70
0
71
2
72
6
73
3
74
0
42
0.000000001
43
0.0000000001
44
0.0000000001
40
0
40
0
40
0
40
1
40
1
40
1
10
-39.447791976881533
20
-12.525888968766674
30
0
10
-39.447791976881533
20
-11.291236866773113
30
0
10
-39.735991163206606
20
-10.885370363057598
30
0
0
SPLINE
5
215
100
AcDbEntity
8
0
100
AcDbSpline
70
0
71
2
72
6
73
3
74
0
42
0.000000001
43
0.0000000001
44
0.0000000001
40
0
40
0
40
0
40
1
40
1
40
1
10
-39.735991163206606
20
-10.885370363057598
30
0
10
-40.024190349531679
20
-10.479504157365307
30
0
10
-40.453930897665529
20
-10.479504157365307
30
0
0
SPLINE
5
216
100
AcDbEntity
8
0
100
AcDbSpline
70
0
71
2
72
6
73
3
74
0
42
0.000000001
43
0.0000000001
44
0.0000000001
40
0
40
0
40
0
40
1
40
1
40
1
10
-40.453930897665529
20
-10.479504157365307
30
0
10
-40.876850290251284
20
-10.479504157365307
30
0
10
-41.129237813902407
20
-10.837621380151257
30
0
0
SPLINE
5
217
100
AcDbEntity
8
0
100
AcDbSpline
70
0
71
2
72
6
73
3
74
0
42
0.000000001
43
0.0000000001
44
0.0000000001
40
0
40
0
40
0
40
1
40
1
40
1
10
-41.129237813902407
20
-10.837621380151257
30
0
10
-41.446427507353334
20
-11.294647444547161
30
0
10
-41.446427507353334
20
-12.525888968766674
30
0
0
LWPOLYLINE
5
218
100
AcDbEntity
8
0
100
AcDbPolyline
90
4
70
1
43
0.0
10
-38.482580585432558
20
-15.077048827470287
10
-37.033058209372072
20
-9.9065169585356578
10
-36.541926069212465
20
-9.9065169585356561
10
-37.988037867498903
20
-15.077048827470287
0
LWPOLYLINE
5
219
100
AcDbEntity
8
0
100
AcDbPolyline
90
11
70
1
43
0.0
10
-34.284080667448549
20
-14.991782594979748
10
-34.284080667448549
20
-13.794647742570385
10
-36.45324866290143
20
-13.794647742570385
10
-36.45324866290143
20
-13.23189168101643
10
-34.171529216719179
20
-9.9917825949797496
10
-33.670164747190981
20
-9.9917825949797496
10
-33.670164747190981
20
-13.231891681016432
10
-32.994858427000551
20
-13.231891681016432
10
-32.994858427000551
20
-13.794647742570387
10
-33.670164747190981
20
-13.794647742570387
10
-33.670164747190981
20
-14.99178259497975
0
LWPOLYLINE
5
220
100
AcDbEntity
8
0
100
AcDbPolyline
90
3
70
1
43
0.0
10
-34.284080667448549
20
-13.231891681016432
10
-34.284080667448549
20
-10.977457751096235
10
-35.849565668058901
20
-13.231891681016432
0
SPLINE
5
221
100
AcDbEntity
8
0
100
AcDbSpline
70
0
71
2
72
6
73
3
74
0
42
0.000000001
43
0.0000000001
44
0.0000000001
40
0
40
0
40
0
40
1
40
1
40
1
10
-32.367300195646791
20
-12.525888968766676
30
0
10
-32.367300195646791
20
-11.639122058213697
30
0
10
-32.184831304502993
20
-11.098535646260725
30
0
0
SPLINE
5
222
100
AcDbEntity
8
0
100
AcDbSpline
70
0
71
2
72
6
73
3
74
0
42
0.000000001
43
0.0000000001
44
0.0000000001
40
0
40
0
40
0
40
1
40
1
40
1
10
-32.184831304502993
20
-11.098535646260725
30
0
10
-32.002361221266298
20
-10.557948936284529
30
0
10
-31.642538709593325
20
-10.264633883298384
30
0
0
SPLINE
5
223
100
AcDbEntity
8
0
100
AcDbSpline
70
0
71
2
72
6
73
3
74
0
42
0.000000001
43
0.0000000001
44
0.0000000001
40
0
40
0
40
0
40
1
40
1
40
1
10
-31.642538709593325
20
-10.264633883298384
30
0
10
-31.282716197920351
20
-9.9713191283354625
30
0
10
-30.737013025236635
20
-9.9713191283354643
30
0
0
SPLINE
5
224
100
AcDbEntity
8
0
100
AcDbSpline
70
0
71
2
72
6
73
3
74
0
42
0.000000001
43
0.0000000001
44
0.0000000001
40
0
40
0
40
0
40
1
40
1
40
1
10
-30.737013025236635
20
-9.9713191283354643
30
0
10
-30.334557695341616
20
-9.9713191283354643
30
0
10
-30.031010312986879
20
-10.13332395678853
30
0
0
SPLINE
5
225
100
AcDbEntity
8
0
100
AcDbSpline
70
0
71
2
72
6
73
3
74
0
42
0.000000001
43
0.0000000001
44
0.0000000001
40
0
40
0
40
0
40
1
40
1
40
1
10
-30.031010312986879
20
-10.13332395678853
30
0
10
-29.727462930632143
20
-10.295329679311266
30
0
10
-29.529647035551577
20
-10.600582052529802
30
0
0
SPLINE
5
226
100
AcDbEntity
8
0
100
AcDbSpline
70
0
71
2
72
6
73
3
74
0
42
0.000000001
43
0.0000000001
44
0.0000000001
40
0
40
0
40
0
40
1
40
1
40
1
10
-29.529647035551577
20
-10.600582052529802
30
0
10
-29.331828756285219
20
-10.905834425748338
30
0
10
-29.219278497648745
20
-11.344101716340532
30
0
0
SPLINE
5
227
100
AcDbEntity
8
0
100
AcDbSpline
70
0
71
2
72
6
73
3
74
0
42
0.000000001
43
0.0000000001
44
0.0000000001
40
0
40
0
40
0
40
1
40
1
40
1
10
-29.219278497648745
20
-11.344101716340532
30
0
10
-29.106727046919374
20
-11.782369006932726
30
0
10
-29.106727046919374
20
-12.525888968766679
30
0
0
SPLINE
5
228
100
AcDbEntity
8
0
100
AcDbSpline
70
0
71
2
72
6
73
3
74
0
42
0.000000001
43
0.0000000001
44
0.0000000001
40
0
40
0
40
0
40
1
40
1
40
1
10
-29.106727046919374
20
-12.525888968766679
30
0
10
-29.106727046919374
20
-13.405834425748338
30
0
10
-29.287491245222597
20
-13.946420837701311
30
0
0
SPLINE
5
229
100
AcDbEntity
8
0
100
AcDbSpline
70
0
71
2
72
6
73
3
74
0
42
0.000000001
43
0.0000000001
44
0.0000000001
40
0
40
0
40
0
40
1
40
1
40
1
10
-29.287491245222597
20
-13.946420837701311
30
0
10
-29.468254251432924
20
-14.487007547677507
30
0
10
-29.828077955198793
20
-14.782027889550676
30
0
0
SPLINE
5
230
100
AcDbEntity
8
0
100
AcDbSpline
70
0
71
2
72
6
73
3
74
0
42
0.000000001
43
0.0000000001
44
0.0000000001
40
0
40
0
40
0
40
1
40
1
40
1
10
-29.828077955198793
20
-14.782027889550676
30
0
10
-30.187900466871767
20
-15.077048827470293
30
0
10
-30.737013025236635
20
-15.077048827470293
30
0
0
SPLINE
5
231
100
AcDbEntity
8
0
100
AcDbSpline
70
0
71
2
72
6
73
3
74
0
42
0.000000001
43
0.0000000001
44
0.0000000001
40
0
40
0
40
0
40
1
40
1
40
1
10
-30.737013025236635
20
-15.077048827470293
30
0
10
-31.460069818449526
20
-15.077048827470293
30
0
10
-31.872756881666689
20
-14.558631469071852
30
0
0
SPLINE
5
232
100
AcDbEntity
8
0
100
AcDbSpline
70
0
71
2
72
6
73
3
74
0
42
0.000000001
43
0.0000000001
44
0.0000000001
40
0
40
0
40
0
40
1
40
1
40
1
10
-31.872756881666689
20
-14.558631469071852
30
0
10
-32.367300195646791
20
-13.93448381549214
30
0
10
-32.367300195646791
20
-12.525888968766676
30
0
0
SPLINE
5
233
100
AcDbEntity
8
0
100
AcDbSpline
70
0
71
2
72
6
73
3
74
0
42
0.000000001
43
0.0000000001
44
0.0000000001
40
0
40
0
40
0
40
1
40
1
40
1
10
-31.736331386518984
20
-12.525888968766676
30
0
10
-31.736331386518984
20
-13.757130194962965
30
0
10
-31.448132200193911
20
-14.164701987565508
30
0
0
SPLINE
5
234
100
AcDbEntity
8
0
100
AcDbSpline
70
0
71
2
72
6
73
3
74
0
42
0.000000001
43
0.0000000001
44
0.0000000001
40
0
40
0
40
0
40
1
40
1
40
1
10
-31.448132200193911
20
-14.164701987565508
30
0
10
-31.159933013868837
20
-14.572273780168047
30
0
10
-30.737013025236635
20
-14.572273780168047
30
0
0
SPLINE
5
235
100
AcDbEntity
8
0
100
AcDbSpline
70
0
71
2
72
6
73
3
74
0
42
0.000000001
43
0.0000000001
44
0.0000000001
40
0
40
0
40
0
40
1
40
1
40
1
10
-30.737013025236635
20
-14.572273780168047
30
0
10
-30.314094228697329
20
-14.572273780168047
30
0
10
-30.025895042372255
20
-14.162996698678484
30
0
0
SPLINE
5
236
100
AcDbEntity
8
0
100
AcDbSpline
70
0
71
2
72
6
73
3
74
0
42
0.000000001
43
0.0000000001
44
0.0000000001
40
0
40
0
40
0
40
1
40
1
40
1
10
-30.025895042372255
20
-14.162996698678484
30
0
10
-29.737695856047182
20
-13.753719617188921
30
0
10
-29.737695856047182
20
-12.525888968766679
30
0
0
SPLINE
5
237
100
AcDbEntity
8
0
100
AcDbSpline
70
0
71
2
72
6
73
3
74
0
42
0.000000001
43
0.0000000001
44
0.0000000001
40
0
40
0
40
0
40
1
40
1
40
1
10
-29.737695856047182
20
-12.525888968766679
30
0
10
-29.737695856047182
20
-11.291236866773119
30
0
10
-30.025895042372255
20
-10.885370363057604
30
0
0
SPLINE
5
238
100
AcDbEntity
8
0
100
AcDbSpline
70
0
71
2
72
6
73
3
74
0
42
0.000000001
43
0.0000000001
44
0.0000000001
40
0
40
0
40
0
40
1
40
1
40
1
10
-30.025895042372255
20
-10.885370363057604
30
0
10
-30.314094228697329
20
-10.479504157365312
30
0
10
-30.743834180784731
20
-10.479504157365309
30
0
0
SPLINE
5
239
100
AcDbEntity
8
0
100
AcDbSpline
70
0
71
2
72
6
73
3
74
0
42
0.000000001
43
0.0000000001
44
0.0000000001
40
0
40
0
40
0
40
1
40
1
40
1
10
-30.743834180784731
20
-10.479504157365309
30
0
10
-31.166754169416933
20
-10.479504157365309
30
0
10
-31.419141693068056
20
-10.837621380151258
30
0
0
SPLINE
5
240
100
AcDbEntity
8
0
100
AcDbSpline
70
0
71
2
72
6
73
3
74
0
42
0.000000001
43
0.0000000001
44
0.0000000001
40
0
40
0
40
0
40
1
40
1
40
1
10
-31.419141693068056
20
-10.837621380151258
30
0
10
-31.736331386518984
20
-11.294647444547163
30
0
10
-31.736331386518984
20
-12.525888968766676
30
0
0
LWPOLYLINE
5
241
100
AcDbEntity
8
0
100
AcDbPolyline
90
4
70
1
43
0.0
10
-28.772484464598207
20
-15.077048827470293
10
-27.322961492491274
20
-9.9065169585356614
10
-26.831829948378115
20
-9.9065169585356614
10
-28.277941150618105
20
-15.077048827470293
0
LINE
5
242
100
AcDbEntity
8
0
100
AcDbLine
10
-23.356386823606996
20
-11.216202665627948
30
0
11
-23.966890973997621
21
-11.26395164853429
31
0
0
SPLINE
5
243
100
AcDbEntity
8
0
100
AcDbSpline
70
0
71
2
72
6
73
3
74
0
42
0.000000001
43
0.0000000001
44
0.0000000001
40
0
40
0
40
0
40
1
40
1
40
1
10
-23.966890973997621
20
-11.26395164853429
30
0
10
-24.048747224760561
20
-10.902423549951068
30
0
10
-24.198815031004457
20
-10.738712836564533
30
0
0
SPLINE
5
244
100
AcDbEntity
8
0
100
AcDbSpline
70
0
71
2
72
6
73
3
74
0
42
0.000000001
43
0.0000000001
44
0.0000000001
40
0
40
0
40
0
40
1
40
1
40
1
10
-24.198815031004457
20
-10.738712836564533
30
0
10
-24.447790784788637
20
-10.476093579591266
30
0
10
-24.812730951262026
20
-10.476093579591264
30
0
0
SPLINE
5
245
100
AcDbEntity
8
0
100
AcDbSpline
70
0
71
2
72
6
73
3
74
0
42
0.000000001
43
0.0000000001
44
0.0000000001
40
0
40
0
40
0
40
1
40
1
40
1
10
-24.812730951262026
20
-10.476093579591264
30
0
10
-25.106045408201723
20
-10.476093579591264
30
0
10
-25.32773653979352
20
-10.6398042929778
30
0
0
SPLINE
5
246
100
AcDbEntity
8
0
100
AcDbSpline
70
0
71
2
72
6
73
3
74
0
42
0.000000001
43
0.0000000001
44
0.0000000001
40
0
40
0
40
0
40
1
40
1
40
1
10
-25.32773653979352
20
-10.6398042929778
30
0
10
-25.617641611052065
20
-10.851263989270677
30
0
10
-25.784763498259096
20
-11.257130492986192
30
0
0
SPLINE
5
247
100
AcDbEntity
8
0
100
AcDbSpline
70
0
71
2
72
6
73
3
74
0
42
0.000000001
43
0.0000000001
44
0.0000000001
40
0
40
0
40
0
40
1
40
1
40
1
10
-25.784763498259096
20
-11.257130492986192
30
0
10
-25.951885385466127
20
-11.662996698678484
30
0
10
-25.958706541014223
20
-12.413337816060533
30
0
0
SPLINE
5
248
100
AcDbEntity
8
0
100
AcDbSpline
70
0
71
2
72
6
73
3
74
0
42
0.000000001
43
0.0000000001
44
0.0000000001
40
0
40
0
40
0
40
1
40
1
40
1
10
-25.958706541014223
20
-12.413337816060533
30
0
10
-25.737013025236635
20
-12.075684357942094
30
0
10
-25.416413946104555
20
-11.911973346532335
30
0
0
SPLINE
5
249
100
AcDbEntity
8
0
100
AcDbSpline
70
0
71
2
72
6
73
3
74
0
42
0.000000001
43
0.0000000001
44
0.0000000001
40
0
40
0
40
0
40
1
40
1
40
1
10
-25.416413946104555
20
-11.911973346532335
30
0
10
-25.095814866972475
20
-11.748262633145799
30
0
10
-24.744517011595278
20
-11.748262633145799
30
0
0
SPLINE
5
250
100
AcDbEntity
8
0
100
AcDbSpline
70
0
71
2
72
6
73
3
74
0
42
0.000000001
43
0.0000000001
44
0.0000000001
40
0
40
0
40
0
40
1
40
1
40
1
10
-24.744517011595278
20
-11.748262633145799
30
0
10
-24.130601091337709
20
-11.748262633145801
30
0
10
-23.699156446409731
20
-12.20017253285741
30
0
0
SPLINE
5
251
100
AcDbEntity
8
0
100
AcDbSpline
70
0
71
2
72
6
73
3
74
0
42
0.000000001
43
0.0000000001
44
0.0000000001
40
0
40
0
40
0
40
1
40
1
40
1
10
-23.699156446409731
20
-12.20017253285741
30
0
10
-23.267709417295961
20
-12.652082730592243
30
0
10
-23.267709417295961
20
-13.368317474187366
30
0
0
SPLINE
5
252
100
AcDbEntity
8
0
100
AcDbSpline
70
0
71
2
72
6
73
3
74
0
42
0.000000001
43
0.0000000001
44
0.0000000001
40
0
40
0
40
0
40
1
40
1
40
1
10
-23.267709417295961
20
-13.368317474187366
30
0
10
-23.267709417295961
20
-13.838985849679462
30
0
10
-23.470644159269838
20
-14.243147064507953
30
0
0
SPLINE
5
253
100
AcDbEntity
8
0
100
AcDbSpline
70
0
71
2
72
6
73
3
74
0
42
0.000000001
43
0.0000000001
44
0.0000000001
40
0
40
0
40
0
40
1
40
1
40
1
10
-23.470644159269838
20
-14.243147064507953
30
0
10
-23.673576517057924
20
-14.647307683289995
30
0
10
-24.028283758116274
20
-14.862178255380144
30
0
0
SPLINE
5
254
100
AcDbEntity
8
0
100
AcDbSpline
70
0
71
2
72
6
73
3
74
0
42
0.000000001
43
0.0000000001
44
0.0000000001
40
0
40
0
40
0
40
1
40
1
40
1
10
-24.028283758116274
20
-14.862178255380144
30
0
10
-24.382988614988832
20
-15.077048827470293
30
0
10
-24.833194417906313
20
-15.077048827470293
30
0
0
SPLINE
5
255
100
AcDbEntity
8
0
100
AcDbSpline
70
0
71
2
72
6
73
3
74
0
42
0.000000001
43
0.0000000001
44
0.0000000001
40
0
40
0
40
0
40
1
40
1
40
1
10
-24.833194417906313
20
-15.077048827470293
30
0
10
-25.60058753008893
20
-15.077048827470293
30
0
10
-26.084899110746889
20
-14.512587477029314
30
0
0
SPLINE
5
256
100
AcDbEntity
8
0
100
AcDbSpline
70
0
71
2
72
6
73
3
74
0
42
0.000000001
43
0.0000000001
44
0.0000000001
40
0
40
0
40
0
40
1
40
1
40
1
10
-26.084899110746889
20
-14.512587477029314
30
0
10
-26.569210691404848
20
-13.948126126588335
30
0
10
-26.569210691404848
20
-12.652082730592241
30
0
0
SPLINE
5
257
100
AcDbEntity
8
0
100
AcDbSpline
70
0
71
2
72
6
73
3
74
0
42
0.000000001
43
0.0000000001
44
0.0000000001
40
0
40
0
40
0
40
1
40
1
40
1
10
-26.569210691404848
20
-12.652082730592241
30
0
10
-26.569210691404848
20
-11.202560056508531
30
0
10
-26.033739252043276
20
-10.544306327165117
30
0
0
SPLINE
5
258
100
AcDbEntity
8
0
100
AcDbSpline
70
0
71
2
72
6
73
3
74
0
42
0.000000001
43
0.0000000001
44
0.0000000001
40
0
40
0
40
0
40
1
40
1
40
1
10
-26.033739252043276
20
-10.544306327165117
30
0
10
-25.566481752348452
20
-9.9713191283354661
30
0
10
-24.775213403654604
20
-9.9713191283354661
30
0
0
SPLINE
5
259
100
AcDbEntity
8
0
100
AcDbSpline
70
0
71
2
72
6
73
3
74
0
42
0.000000001
43
0.0000000001
44
0.0000000001
40
0
40
0
40
0
40
1
40
1
40
1
10
-24.775213403654604
20
-9.9713191283354661
30
0
10
-24.185172719908266
20
-9.9713191283354661
30
0
10
-23.808297319365053
20
-10.302150834859363
30
0
0
SPLINE
5
260
100
AcDbEntity
8
0
100
AcDbSpline
70
0
71
2
72
6
73
3
74
0
42
0.000000001
43
0.0000000001
44
0.0000000001
40
0
40
0
40
0
40
1
40
1
40
1
10
-23.808297319365053
20
-10.302150834859363
30
0
10
-23.431419534636049
20
-10.632983137429706
30
0
10
-23.356386823606996
20
-11.216202665627948
30
0
0
SPLINE
5
261
100
AcDbEntity
8
0
100
AcDbSpline
70
0
71
2
72
6
73
3
74
0
42
0.000000001
43
0.0000000001
44
0.0000000001
40
0
40
0
40
0
40
1
40
1
40
1
10
-25.863207979155092
20
-13.371728051961412
30
0
10
-25.863207979155092
20
-13.688917447389116
30
0
10
-25.728487176847963
20
-13.978821922601213
30
0
0
SPLINE
5
262
100
AcDbEntity
8
0
100
AcDbSpline
70
0
71
2
72
6
73
3
74
0
42
0.000000001
43
0.0000000001
44
0.0000000001
40
0
40
0
40
0
40
1
40
1
40
1
10
-25.728487176847963
20
-13.978821922601213
30
0
10
-25.593766374540834
20
-14.26872639781331
30
0
10
-25.35161177630475
20
-14.420500088990678
30
0
0
SPLINE
5
263
100
AcDbEntity
8
0
100
AcDbSpline
70
0
71
2
72
6
73
3
74
0
42
0.000000001
43
0.0000000001
44
0.0000000001
40
0
40
0
40
0
40
1
40
1
40
1
10
-25.35161177630475
20
-14.420500088990678
30
0
10
-25.109457178068666
20
-14.572273780168047
30
0
10
-24.843427343321352
20
-14.572273780168047
30
0
0
SPLINE
5
264
100
AcDbEntity
8
0
100
AcDbSpline
70
0
71
2
72
6
73
3
74
0
42
0.000000001
43
0.0000000001
44
0.0000000001
40
0
40
0
40
0
40
1
40
1
40
1
10
-24.843427343321352
20
-14.572273780168047
30
0
10
-24.454611940336733
20
-14.572273780168047
30
0
10
-24.174939794493227
20
-14.258494664491167
30
0
0
SPLINE
5
265
100
AcDbEntity
8
0
100
AcDbSpline
70
0
71
2
72
6
73
3
74
0
42
0.000000001
43
0.0000000001
44
0.0000000001
40
0
40
0
40
0
40
1
40
1
40
1
10
-24.174939794493227
20
-14.258494664491167
30
0
10
-23.895267648649721
20
-13.944715548814287
30
0
10
-23.895267648649721
20
-13.40583442574834
30
0
0
SPLINE
5
266
100
AcDbEntity
8
0
100
AcDbSpline
70
0
71
2
72
6
73
3
74
0
42
0.000000001
43
0.0000000001
44
0.0000000001
40
0
40
0
40
0
40
1
40
1
40
1
10
-23.895267648649721
20
-13.40583442574834
30
0
10
-23.895267648649721
20
-12.887417067349903
30
0
10
-24.171530408812075
20
-12.58898584967946
30
0
0
SPLINE
5
267
100
AcDbEntity
8
0
100
AcDbSpline
70
0
71
2
72
6
73
3
74
0
42
0.000000001
43
0.0000000001
44
0.0000000001
40
0
40
0
40
0
40
1
40
1
40
1
10
-24.171530408812075
20
-12.58898584967946
30
0
10
-24.447790784788637
20
-12.29055463200902
30
0
10
-24.867300195646791
20
-12.29055463200902
30
0
0
SPLINE
5
268
100
AcDbEntity
8
0
100
AcDbSpline
70
0
71
2
72
6
73
3
74
0
42
0.000000001
43
0.0000000001
44
0.0000000001
40
0
40
0
40
0
40
1
40
1
40
1
10
-24.867300195646791
20
-12.29055463200902
30
0
10
-25.283397836638002
20
-12.29055463200902
30
0
10
-25.573302907896547
20
-12.58898584967946
30
0
0
SPLINE
5
269
100
AcDbEntity
8
0
100
AcDbSpline
70
0
71
2
72
6
73
3
74
0
42
0.000000001
43
0.0000000001
44
0.0000000001
40
0
40
0
40
0
40
1
40
1
40
1
10
-25.573302907896547
20
-12.58898584967946
30
0
10
-25.863207979155092
20
-12.887417067349901
30
0
10
-25.863207979155092
20
-13.371728051961412
30
0
0
SPLINE
5
270
100
AcDbEntity
8
0
100
AcDbSpline
70
0
71
2
72
6
73
3
74
0
42
0.000000001
43
0.0000000001
44
0.0000000001
40
0
40
0
40
0
40
1
40
1
40
1
10
-22.657205266905336
20
-12.525888968766681
30
0
10
-22.657205266905336
20
-11.639122058213703
30
0
10
-22.474736375761537
20
-11.09853564626073
30
0
0
SPLINE
5
271
100
AcDbEntity
8
0
100
AcDbSpline
70
0
71
2
72
6
73
3
74
0
42
0.000000001
43
0.0000000001
44
0.0000000001
40
0
40
0
40
0
40
1
40
1
40
1
10
-22.474736375761537
20
-11.09853564626073
30
0
10
-22.292267484617739
20
-10.557948936284534
30
0
10
-21.93244378085187
20
-10.264633883298389
30
0
0
SPLINE
5
272
100
AcDbEntity
8
0
100
AcDbSpline
70
0
71
2
72
6
73
3
74
0
42
0.000000001
43
0.0000000001
44
0.0000000001
40
0
40
0
40
0
40
1
40
1
40
1
10
-21.93244378085187
20
-10.264633883298389
30
0
10
-21.572622461271791
20
-9.9713191283354679
30
0
10
-21.02691809649518
20
-9.9713191283354679
30
0
0
SPLINE
5
273
100
AcDbEntity
8
0
100
AcDbSpline
70
0
71
2
72
6
73
3
74
0
42
0.000000001
43
0.0000000001
44
0.0000000001
40
0
40
0
40
0
40
1
40
1
40
1
10
-21.02691809649518
20
-9.9713191283354679
30
0
10
-20.624462766600161
20
-9.9713191283354679
30
0
10
-20.320915384245424
20
-10.133323956788532
30
0
0
SPLINE
5
274
100
AcDbEntity
8
0
100
AcDbSpline
70
0
71
2
72
6
73
3
74
0
42
0.000000001
43
0.0000000001
44
0.0000000001
40
0
40
0
40
0
40
1
40
1
40
1
10
-20.320915384245424
20
-10.133323956788532
30
0
10
-20.017368001890688
20
-10.295329679311267
30
0
10
-19.819552106810121
20
-10.600582052529804
30
0
0
SPLINE
5
275
100
AcDbEntity
8
0
100
AcDbSpline
70
0
71
2
72
6
73
3
74
0
42
0.000000001
43
0.0000000001
44
0.0000000001
40
0
40
0
40
0
40
1
40
1
40
1
10
-19.819552106810121
20
-10.600582052529804
30
0
10
-19.621733827543764
20
-10.905834425748342
30
0
10
-19.509183568907289
20
-11.344101716340536
30
0
0
SPLINE
5
276
100
AcDbEntity
8
0
100
AcDbSpline
70
0
71
2
72
6
73
3
74
0
42
0.000000001
43
0.0000000001
44
0.0000000001
40
0
40
0
40
0
40
1
40
1
40
1
10
-19.509183568907289
20
-11.344101716340536
30
0
10
-19.396633310270815
20
-11.782369006932729
30
0
10
-19.396633310270815
20
-12.525888968766683
30
0
0
SPLINE
5
277
100
AcDbEntity
8
0
100
AcDbSpline
70
0
71
2
72
6
73
3
74
0
42
0.000000001
43
0.0000000001
44
0.0000000001
40
0
40
0
40
0
40
1
40
1
40
1
10
-19.396633310270815
20
-12.525888968766683
30
0
10
-19.396633310270815
20
-13.405834425748342
30
0
10
-19.577395124388246
20
-13.946420837701314
30
0
0
SPLINE
5
278
100
AcDbEntity
8
0
100
AcDbSpline
70
0
71
2
72
6
73
3
74
0
42
0.000000001
43
0.0000000001
44
0.0000000001
40
0
40
0
40
0
40
1
40
1
40
1
10
-19.577395124388246
20
-13.946420837701314
30
0
10
-19.758159322691469
20
-14.487007547677511
30
0
10
-20.117983026457338
20
-14.78202788955068
30
0
0
SPLINE
5
279
100
AcDbEntity
8
0
100
AcDbSpline
70
0
71
2
72
6
73
3
74
0
42
0.000000001
43
0.0000000001
44
0.0000000001
40
0
40
0
40
0
40
1
40
1
40
1
10
-20.117983026457338
20
-14.78202788955068
30
0
10
-20.477804346037416
20
-15.077048827470296
30
0
10
-21.02691809649518
20
-15.077048827470295
30
0
0
SPLINE
5
280
100
AcDbEntity
8
0
100
AcDbSpline
70
0
71
2
72
6
73
3
74
0
42
0.000000001
43
0.0000000001
44
0.0000000001
40
0
40
0
40
0
40
1
40
1
40
1
10
-21.02691809649518
20
-15.077048827470295
30
0
10
-21.749974889708071
20
-15.077048827470295
30
0
10
-22.162663145018129
20
-14.558631469071857
30
0
0
SPLINE
5
281
100
AcDbEntity
8
0
100
AcDbSpline
70
0
71
2
72
6
73
3
74
0
42
0.000000001
43
0.0000000001
44
0.0000000001
40
0
40
0
40
0
40
1
40
1
40
1
10
-22.162663145018129
20
-14.558631469071857
30
0
10
-22.657205266905336
20
-13.934483815492145
30
0
10
-22.657205266905336
20
-12.525888968766681
30
0
0
SPLINE
5
282
100
AcDbEntity
8
0
100
AcDbSpline
70
0
71
2
72
6
73
3
74
0
42
0.000000001
43
0.0000000001
44
0.0000000001
40
0
40
0
40
0
40
1
40
1
40
1
10
-22.026237649870424
20
-12.525888968766681
30
0
10
-22.026237649870424
20
-13.75713019496297
30
0
10
-21.738037271452455
20
-14.164701987565509
30
0
0
SPLINE
5
283
100
AcDbEntity
8
0
100
AcDbSpline
70
0
71
2
72
6
73
3
74
0
42
0.000000001
43
0.0000000001
44
0.0000000001
40
0
40
0
40
0
40
1
40
1
40
1
10
-21.738037271452455
20
-14.164701987565509
30
0
10
-21.449839277220278
20
-14.572273780168048
30
0
10
-21.02691809649518
20
-14.572273780168048
30
0
0
SPLINE
5
284
100
AcDbEntity
8
0
100
AcDbSpline
70
0
71
2
72
6
73
3
74
0
42
0.000000001
43
0.0000000001
44
0.0000000001
40
0
40
0
40
0
40
1
40
1
40
1
10
-21.02691809649518
20
-14.572273780168048
30
0
10
-20.603999299955873
20
-14.57227378016805
30
0
10
-20.315798921537905
20
-14.162996698678487
30
0
0
SPLINE
5
285
100
AcDbEntity
8
0
100
AcDbSpline
70
0
71
2
72
6
73
3
74
0
42
0.000000001
43
0.0000000001
44
0.0000000001
40
0
40
0
40
0
40
1
40
1
40
1
10
-20.315798921537905
20
-14.162996698678487
30
0
10
-20.027600927305727
20
-13.753719617188924
30
0
10
-20.027600927305727
20
-12.525888968766683
30
0
0
SPLINE
5
286
100
AcDbEntity
8
0
100
AcDbSpline
70
0
71
2
72
6
73
3
74
0
42
0.000000001
43
0.0000000001
44
0.0000000001
40
0
40
0
40
0
40
1
40
1
40
1
10
-20.027600927305727
20
-12.525888968766683
30
0
10
-20.027600927305727
20
-11.291236866773122
30
0
10
-20.315798921537905
20
-10.885370363057605
30
0
0
SPLINE
5
287
100
AcDbEntity
8
0
100
AcDbSpline
70
0
71
2
72
6
73
3
74
0
42
0.000000001
43
0.0000000001
44
0.0000000001
40
0
40
0
40
0
40
1
40
1
40
1
10
-20.315798921537905
20
-10.885370363057605
30
0
10
-20.603999299955873
20
-10.479504157365314
30
0
10
-21.033739252043276
20
-10.479504157365314
30
0
0
SPLINE
5
288
100
AcDbEntity
8
0
100
AcDbSpline
70
0
71
2
72
6
73
3
74
0
42
0.000000001
43
0.0000000001
44
0.0000000001
40
0
40
0
40
0
40
1
40
1
40
1
10
-21.033739252043276
20
-10.479504157365314
30
0
10
-21.456660432768373
20
-10.479504157365314
30
0
10
-21.709047956419496
20
-10.837621380151264
30
0
0
SPLINE
5
289
100
AcDbEntity
8
0
100
AcDbSpline
70
0
71
2
72
6
73
3
74
0
42
0.000000001
43
0.0000000001
44
0.0000000001
40
0
40
0
40
0
40
1
40
1
40
1
10
-21.709047956419496
20
-10.837621380151264
30
0
10
-22.026237649870424
20
-11.294647444547168
30
0
10
-22.026237649870424
20
-12.525888968766681
30
0
0
LINE
5
290
100
AcDbEntity
8
0
100
AcDbLine
10
-5.9415642523929968
20
-14.912023925924027
30
0
11
-6.5554795766041174
21
-14.912023925924027
31
0
0
LINE
5
291
100
AcDbEntity
8
0
100
AcDbLine
10
-6.5554795766041174
20
-14.912023925924027
30
0
11
-6.5554795766041174
21
-11.000018501424515
31
0
0
SPLINE
5
292
100
AcDbEntity
8
0
100
AcDbSpline
70
0
71
2
72
6
73
3
74
0
42
0.000000001
43
0.0000000001
44
0.0000000001
40
0
40
0
40
0
40
1
40
1
40
1
10
-6.5554795766041174
20
-11.000018501424515
30
0
10
-6.777171304242362
20
-11.211478197717392
30
0
10
-7.1369938159153357
20
-11.422937894010269
30
0
0
SPLINE
5
293
100
AcDbEntity
8
0
100
AcDbSpline
70
0
71
2
72
6
73
3
74
0
42
0.000000001
43
0.0000000001
44
0.0000000001
40
0
40
0
40
0
40
1
40
1
40
1
10
-7.1369938159153357
20
-11.422937894010269
30
0
10
-7.4968164765999212
20
-11.634397590303147
30
0
10
-7.7833103740379705
20
-11.740127587461197
30
0
0
LINE
5
294
100
AcDbEntity
8
0
100
AcDbLine
10
-7.7833103740379705
20
-11.740127587461197
30
0
11
-7.7833103740379705
21
-11.146676027917588
31
0
0
SPLINE
5
295
100
AcDbEntity
8
0
100
AcDbSpline
70
0
71
2
72
6
73
3
74
0
42
0.000000001
43
0.0000000001
44
0.0000000001
40
0
40
0
40
0
40
1
40
1
40
1
10
-7.7833103740379705
20
-11.146676027917588
30
0
10
-7.2683035934135809
20
-10.904520535611832
30
0
10
-6.8829010033771887
20
-10.560045623922074
30
0
0
SPLINE
5
296
100
AcDbEntity
8
0
100
AcDbSpline
70
0
71
2
72
6
73
3
74
0
42
0.000000001
43
0.0000000001
44
0.0000000001
40
0
40
0
40
0
40
1
40
1
40
1
10
-6.8829010033771887
20
-10.560045623922074
30
0
10
-6.4974985623524084
20
-10.215571010255539
30
0
10
-6.3371984267399206
20
-9.8915598632332919
30
0
0
LINE
5
297
100
AcDbEntity
8
0
100
AcDbLine
10
-6.3371984267399206
20
-9.8915598632332919
30
0
11
-5.9415642523929968
21
-9.8915598632332919
31
0
0
LINE
5
298
100
AcDbEntity
8
0
100
AcDbLine
10
-5.9415642523929968
20
-9.8915598632332919
30
0
11
-5.9415642523929968
21
-14.912023925924027
31
0
0
LINE
5
299
100
AcDbEntity
8
0
100
AcDbLine
10
-4.3692586922809973
20
-13.602337622785294
30
0
11
-3.7246475720569983
21
-13.547767186307633
31
0
0
SPLINE
5
300
100
AcDbEntity
8
0
100
AcDbSpline
70
0
71
2
72
6
73
3
74
0
42
0.000000001
43
0.0000000001
44
0.0000000001
40
0
40
0
40
0
40
1
40
1
40
1
10
-3.7246475720569983
20
-13.547767186307633
30
0
10
-3.653023948685874
20
-14.018435859822953
30
0
10
-3.3921096825764074
20
-14.255475187444413
30
0
0
SPLINE
5
301
100
AcDbEntity
8
0
100
AcDbSpline
70
0
71
2
72
6
73
3
74
0
42
0.000000001
43
0.0000000001
44
0.0000000001
40
0
40
0
40
0
40
1
40
1
40
1
10
-3.3921096825764074
20
-14.255475187444413
30
0
10
-3.1311957144901648
20
-14.49251511111232
30
0
10
-2.7628467583820715
20
-14.49251511111232
30
0
0
SPLINE
5
302
100
AcDbEntity
8
0
100
AcDbSpline
70
0
71
2
72
6
73
3
74
0
42
0.000000001
43
0.0000000001
44
0.0000000001
40
0
40
0
40
0
40
1
40
1
40
1
10
-2.7628467583820715
20
-14.49251511111232
30
0
10
-2.3194633031055822
20
-14.49251511111232
30
0
10
-2.0125053429767981
20
-14.158271932744706
30
0
0
SPLINE
5
303
100
AcDbEntity
8
0
100
AcDbSpline
70
0
71
2
72
6
73
3
74
0
42
0.000000001
43
0.0000000001
44
0.0000000001
40
0
40
0
40
0
40
1
40
1
40
1
10
-2.0125053429767981
20
-14.158271932744706
30
0
10
-1.7055479788944616
20
-13.824029350423539
30
0
10
-1.7055479788944616
20
-13.271505618238175
30
0
0
SPLINE
5
304
100
AcDbEntity
8
0
100
AcDbSpline
70
0
71
2
72
6
73
3
74
0
42
0.000000001
43
0.0000000001
44
0.0000000001
40
0
40
0
40
0
40
1
40
1
40
1
10
-1.7055479788944616
20
-13.271505618238175
30
0
10
-1.7055479788944616
20
-12.746266508245194
30
0
10
-2.0005683207676306
20
-12.442719721936905
30
0
0
SPLINE
5
305
100
AcDbEntity
8
0
100
AcDbSpline
70
0
71
2
72
6
73
3
74
0
42
0.000000001
43
0.0000000001
44
0.0000000001
40
0
40
0
40
0
40
1
40
1
40
1
10
-2.0005683207676306
20
-12.442719721936905
30
0
10
-2.2955886626407995
20
-12.139172339582169
30
0
10
-2.7730784917042151
20
-12.139172339582169
30
0
0
SPLINE
5
306
100
AcDbEntity
8
0
100
AcDbSpline
70
0
71
2
72
6
73
3
74
0
42
0.000000001
43
0.0000000001
44
0.0000000001
40
0
40
0
40
0
40
1
40
1
40
1
10
-2.7730784917042151
20
-12.139172339582169
30
0
10
-3.0698047185108557
20
-12.139172339582169
30
0
10
-3.3085493350193396
20
-12.27389254584285
30
0
0
SPLINE
5
307
100
AcDbEntity
8
0
100
AcDbSpline
70
0
71
2
72
6
73
3
74
0
42
0.000000001
43
0.0000000001
44
0.0000000001
40
0
40
0
40
0
40
1
40
1
40
1
10
-3.3085493350193396
20
-12.27389254584285
30
0
10
-3.5472942495510473
20
-12.408613050126755
30
0
10
-3.6837197446987524
20
-12.62348332419368
30
0
0
LINE
5
308
100
AcDbEntity
8
0
100
AcDbLine
10
-3.6837197446987529
20
-12.62348332419368
30
0
11
-4.2601181173488989
21
-12.548449421071732
31
0
0
LINE
5
309
100
AcDbEntity
8
0
100
AcDbLine
10
-4.2601181173488989
20
-12.548449421071732
30
0
11
-3.7758071327373877
21
-9.9802363754746555
31
0
0
LINE
5
310
100
AcDbEntity
8
0
100
AcDbLine
10
-3.7758071327373877
20
-9.9802363754746555
30
0
11
-1.2894497418568029
21
-9.9802363754746555
31
0
0
LINE
5
311
100
AcDbEntity
8
0
100
AcDbLine
10
-1.2894497418568029
20
-9.9802363754746555
30
0
11
-1.2894497418568029
21
-10.566866481446946
31
0
0
LINE
5
312
100
AcDbEntity
8
0
100
AcDbLine
10
-1.2894497418568029
20
-10.566866481446946
30
0
11
-3.2846746945545569
21
-10.566866481446946
31
0
0
LINE
5
313
100
AcDbEntity
8
0
100
AcDbLine
10
-3.2846746945545569
20
-10.566866481446946
30
0
11
-3.554115405099143
21
-11.910659158372605
31
0
0
SPLINE
5
314
100
AcDbEntity
8
0
100
AcDbSpline
70
0
71
2
72
6
73
3
74
0
42
0.000000001
43
0.0000000001
44
0.0000000001
40
0
40
0
40
0
40
1
40
1
40
1
10
-3.554115405099143
20
-11.910659158372605
30
0
10
-3.1039104962513342
20
-11.596880340718949
30
0
10
-2.6093677783176794
20
-11.596880340718949
30
0
0
SPLINE
5
315
100
AcDbEntity
8
0
100
AcDbSpline
70
0
71
2
72
6
73
3
74
0
42
0.000000001
43
0.0000000001
44
0.0000000001
40
0
40
0
40
0
40
1
40
1
40
1
10
-2.6093677783176794
20
-11.596880340718949
30
0
10
-1.9545249247715368
20
-11.596880340718949
30
0
10
-1.5043197179005041
20
-12.050495529317582
30
0
0
SPLINE
5
316
100
AcDbEntity
8
0
100
AcDbSpline
70
0
71
2
72
6
73
3
74
0
42
0.000000001
43
0.0000000001
44
0.0000000001
40
0
40
0
40
0
40
1
40
1
40
1
10
-1.5043197179005041
20
-12.050495529317582
30
0
10
-1.0541151070759192
20
-12.504111015939438
30
0
10
-1.0541151070759192
20
-13.216935181760514
30
0
0
SPLINE
5
317
100
AcDbEntity
8
0
100
AcDbSpline
70
0
71
2
72
6
73
3
74
0
42
0.000000001
43
0.0000000001
44
0.0000000001
40
0
40
0
40
0
40
1
40
1
40
1
10
-1.0541151070759192
20
-13.216935181760514
30
0
10
-1.0541151070759192
20
-13.895652675771439
30
0
10
-1.4497498774692907
20
-14.390195989751541
30
0
0
SPLINE
5
318
100
AcDbEntity
8
0
100
AcDbSpline
70
0
71
2
72
6
73
3
74
0
42
0.000000001
43
0.0000000001
44
0.0000000001
40
0
40
0
40
0
40
1
40
1
40
1
10
-1.4497498774692907
20
-14.390195989751541
30
0
10
-1.9306502843067541
20
-14.997290158414566
30
0
10
-2.7628467583820715
20
-14.997290158414566
30
0
0
SPLINE
5
319
100
AcDbEntity
8
0
100
AcDbSpline
70
0
71
2
72
6
73
3
74
0
42
0.000000001
43
0.0000000001
44
0.0000000001
40
0
40
0
40
0
40
1
40
1
40
1
10
-2.7628467583820715
20
-14.997290158414566
30
0
10
-3.4449748301670446
20
-14.997290158414566
30
0
10
-3.8764209652111425
20
-14.615298295163834
30
0
0
SPLINE
5
320
100
AcDbEntity
8
0
100
AcDbSpline
70
0
71
2
72
6
73
3
74
0
42
0.000000001
43
0.0000000001
44
0.0000000001
40
0
40
0
40
0
40
1
40
1
40
1
10
-3.8764209652111425
20
-14.615298295163834
30
0
10
-4.3078671002552404
20
-14.233306431913102
30
0
10
-4.3692586922809973
20
-13.602337622785294
30
0
0
LINE
5
321
100
AcDbEntity
8
0
100
AcDbLine
10
1.6266490912273035
20
-14.912023925924027
30
0
11
1.6266490912273035
21
-11.289922976636612
31
0
0
LINE
5
322
100
AcDbEntity
8
0
100
AcDbLine
10
1.6266490912273035
20
-11.289922976636612
30
0
11
2.1757628416850672
21
-11.289922976636612
31
0
0
LINE
5
323
100
AcDbEntity
8
0
100
AcDbLine
10
2.1757628416850672
20
-11.289922976636612
30
0
11
2.1757628416850672
21
-11.798108601712906
31
0
0
SPLINE
5
324
100
AcDbEntity
8
0
100
AcDbSpline
70
0
71
2
72
6
73
3
74
0
42
0.000000001
43
0.0000000001
44
0.0000000001
40
0
40
0
40
0
40
1
40
1
40
1
10
2.1757628416850672
20
-11.798108601712906
30
0
10
2.3462941145732508
20
-11.532078468942368
30
0
10
2.6293780302837
20
-11.370073044442856
30
0
0
SPLINE
5
325
100
AcDbEntity
8
0
100
AcDbSpline
70
0
71
2
72
6
73
3
74
0
42
0.000000001
43
0.0000000001
44
0.0000000001
40
0
40
0
40
0
40
1
40
1
40
1
10
2.6293780302837
20
-11.370073044442856
30
0
10
2.9124607539012537
20
-11.208067619943344
30
0
10
3.273989150507699
20
-11.208067619943344
30
0
0
SPLINE
5
326
100
AcDbEntity
8
0
100
AcDbSpline
70
0
71
2
72
6
73
3
74
0
42
0.000000001
43
0.0000000001
44
0.0000000001
40
0
40
0
40
0
40
1
40
1
40
1
10
3.273989150507699
20
-11.208067619943344
30
0
10
3.6764444804027185
20
-11.208067619943344
30
0
10
3.9339484667613611
20
-11.375188911103928
30
0
0
SPLINE
5
327
100
AcDbEntity
8
0
100
AcDbSpline
70
0
71
2
72
6
73
3
74
0
42
0.000000001
43
0.0000000001
44
0.0000000001
40
0
40
0
40
0
40
1
40
1
40
1
10
3.9339484667613611
20
-11.375188911103928
30
0
10
4.1914512610271082
20
-11.542310500287735
30
0
10
4.2971815562083826
20
-11.842446708821976
30
0
0
SPLINE
5
328
100
AcDbEntity
8
0
100
AcDbSpline
70
0
71
2
72
6
73
3
74
0
42
0.000000001
43
0.0000000001
44
0.0000000001
40
0
40
0
40
0
40
1
40
1
40
1
10
4.2971815562083826
20
-11.842446708821976
30
0
10
4.7269215082957849
20
-11.208067619943344
30
0
10
5.4158713316753015
20
-11.208067619943344
30
0
0
SPLINE
5
329
100
AcDbEntity
8
0
100
AcDbSpline
70
0
71
2
72
6
73
3
74
0
42
0.000000001
43
0.0000000001
44
0.0000000001
40
0
40
0
40
0
40
1
40
1
40
1
10
5.4158713316753015
20
-11.208067619943344
30
0
10
5.9547533488109217
20
-11.208067619943344
30
0
10
6.2446572279765711
20
-11.506498539590561
30
0
0
SPLINE
5
330
100
AcDbEntity
8
0
100
AcDbSpline
70
0
71
2
72
6
73
3
74
0
42
0.000000001
43
0.0000000001
44
0.0000000001
40
0
40
0
40
0
40
1
40
1
40
1
10
6.2446572279765711
20
-11.506498539590561
30
0
10
6.5345611071422205
20
-11.804929757261002
30
0
10
6.5345611071422205
20
-12.425666535043442
30
0
0
LINE
5
331
100
AcDbEntity
8
0
100
AcDbLine
10
6.5345611071422205
20
-12.425666535043442
30
0
11
6.5345611071422205
21
-14.912023925924027
31
0
0
LINE
5
332
100
AcDbEntity
8
0
100
AcDbLine
10
6.5345611071422205
20
-14.912023925924027
30
0
11
5.9240569567515955
21
-14.912023925924027
31
0
0
LINE
5
333
100
AcDbEntity
8
0
100
AcDbLine
10
5.9240569567515955
20
-14.912023925924027
30
0
11
5.9240569567515955
21
-12.630305075788224
31
0
0
SPLINE
5
334
100
AcDbEntity
8
0
100
AcDbSpline
70
0
71
2
72
6
73
3
74
0
42
0.000000001
43
0.0000000001
44
0.0000000001
40
0
40
0
40
0
40
1
40
1
40
1
10
5.9240569567515955
20
-12.630305075788224
30
0
10
5.9240569567515955
20
-12.261955821656906
30
0
10
5.8643712496593103
20
-12.099950099134171
30
0
0
SPLINE
5
335
100
AcDbEntity
8
0
100
AcDbSpline
70
0
71
2
72
6
73
3
74
0
42
0.000000001
43
0.0000000001
44
0.0000000001
40
0
40
0
40
0
40
1
40
1
40
1
10
5.8643712496593103
20
-12.099950099134171
30
0
10
5.8046843504741297
20
-11.937944674634659
30
0
10
5.6477953886821375
20
-11.839036131047928
30
0
0
SPLINE
5
336
100
AcDbEntity
8
0
100
AcDbSpline
70
0
71
2
72
6
73
3
74
0
42
0.000000001
43
0.0000000001
44
0.0000000001
40
0
40
0
40
0
40
1
40
1
40
1
10
5.6477953886821375
20
-11.839036131047928
30
0
10
5.4909052347972498
20
-11.740127587461197
30
0
10
5.2794458365275965
20
-11.740127587461197
30
0
0
SPLINE
5
337
100
AcDbEntity
8
0
100
AcDbSpline
70
0
71
2
72
6
73
3
74
0
42
0.000000001
43
0.0000000001
44
0.0000000001
40
0
40
0
40
0
40
1
40
1
40
1
10
5.2794458365275965
20
-11.740127587461197
30
0
10
4.897453973276864
20
-11.740127587461197
30
0
10
4.645066449625741
20
-11.994220399999344
30
0
0
SPLINE
5
338
100
AcDbEntity
8
0
100
AcDbSpline
70
0
71
2
72
6
73
3
74
0
42
0.000000001
43
0.0000000001
44
0.0000000001
40
0
40
0
40
0
40
1
40
1
40
1
10
4.645066449625741
20
-11.994220399999344
30
0
10
4.392678925974618
20
-12.248313212537491
30
0
10
4.392678925974618
20
-12.807658100270951
30
0
0
LINE
5
339
100
AcDbEntity
8
0
100
AcDbLine
10
4.392678925974618
20
-12.807658100270951
30
0
11
4.392678925974618
21
-14.912023925924027
31
0
0
LINE
5
340
100
AcDbEntity
8
0
100
AcDbLine
10
4.392678925974618
20
-14.912023925924027
30
0
11
3.7787641978099451
21
-14.912023925924027
31
0
0
LINE
5
341
100
AcDbEntity
8
0
100
AcDbLine
10
3.7787641978099451
20
-14.912023925924027
30
0
11
3.7787641978099451
21
-12.558681452417099
31
0
0
SPLINE
5
342
100
AcDbEntity
8
0
100
AcDbSpline
70
0
71
2
72
6
73
3
74
0
42
0.000000001
43
0.0000000001
44
0.0000000001
40
0
40
0
40
0
40
1
40
1
40
1
10
3.7787641978099451
20
-12.558681452417099
30
0
10
3.7787641978099451
20
-12.14940466895076
30
0
10
3.6286951994731531
20
-11.944766128205979
30
0
0
SPLINE
5
343
100
AcDbEntity
8
0
100
AcDbSpline
70
0
71
2
72
6
73
3
74
0
42
0.000000001
43
0.0000000001
44
0.0000000001
40
0
40
0
40
0
40
1
40
1
40
1
10
3.6286951994731531
20
-11.944766128205979
30
0
10
3.4786273932292566
20
-11.740127587461197
30
0
10
3.1375636553599939
20
-11.740127587461197
30
0
0
SPLINE
5
344
100
AcDbEntity
8
0
100
AcDbSpline
70
0
71
2
72
6
73
3
74
0
42
0.000000001
43
0.0000000001
44
0.0000000001
40
0
40
0
40
0
40
1
40
1
40
1
10
3.1375636553599939
20
-11.740127587461197
30
0
10
2.8783549761607752
20
-11.740127587461197
30
0
10
2.6583685374095545
20
-11.876553380632126
30
0
0
SPLINE
5
345
100
AcDbEntity
8
0
100
AcDbSpline
70
0
71
2
72
6
73
3
74
0
42
0.000000001
43
0.0000000001
44
0.0000000001
40
0
40
0
40
0
40
1
40
1
40
1
10
2.6583685374095545
20
-11.876553380632126
30
0
10
2.4383820986583338
20
-12.012978875779831
30
0
10
2.3394729590251551
20
-12.275598132753098
30
0
0
SPLINE
5
346
100
AcDbEntity
8
0
100
AcDbSpline
70
0
71
2
72
6
73
3
74
0
42
0.000000001
43
0.0000000001
44
0.0000000001
40
0
40
0
40
0
40
1
40
1
40
1
10
2.3394729590251551
20
-12.275598132753098
30
0
10
2.2405650114848719
20
-12.538217687749588
30
0
10
2.2405650114848719
20
-13.032760405683243
30
0
0
LINE
5
347
100
AcDbEntity
8
0
100
AcDbLine
10
2.2405650114848719
20
-13.032760405683245
30
0
11
2.2405650114848719
21
-14.912023925924027
31
0
0
LINE
5
348
100
AcDbEntity
8
0
100
AcDbLine
10
2.2405650114848719
20
-14.912023925924027
30
0
11
1.6266490912273035
21
-14.912023925924027
31
0
0
LINE
5
349
100
AcDbEntity
8
0
100
AcDbLine
10
26.058435747607007
20
-14.912023925924027
30
0
11
25.444520423395886
21
-14.912023925924027
31
0
0
LINE
5
350
100
AcDbEntity
8
0
100
AcDbLine
10
25.444520423395886
20
-14.912023925924027
30
0
11
25.444520423395886
21
-11.000018501424515
31
0
0
SPLINE
5
351
100
AcDbEntity
8
0
100
AcDbSpline
70
0
71
2
72
6
73
3
74
0
42
0.000000001
43
0.0000000001
44
0.0000000001
40
0
40
0
40
0
40
1
40
1
40
1
10
25.444520423395886
20
-11.000018501424515
30
0
10
25.222828695757642
20
-11.211478197717392
30
0
10
24.863006184084668
20
-11.422937894010269
30
0
0
SPLINE
5
352
100
AcDbEntity
8
0
100
AcDbSpline
70
0
71
2
72
6
73
3
74
0
42
0.000000001
43
0.0000000001
44
0.0000000001
40
0
40
0
40
0
40
1
40
1
40
1
10
24.863006184084668
20
-11.422937894010269
30
0
10
24.503183523400082
20
-11.634397590303147
30
0
10
24.216689625962033
20
-11.740127587461197
30
0
0
LINE
5
353
100
AcDbEntity
8
0
100
AcDbLine
10
24.216689625962033
20
-11.740127587461197
30
0
11
24.216689625962033
21
-11.146676027917588
31
0
0
SPLINE
5
354
100
AcDbEntity
8
0
100
AcDbSpline
70
0
71
2
72
6
73
3
74
0
42
0.000000001
43
0.0000000001
44
0.0000000001
40
0
40
0
40
0
40
1
40
1
40
1
10
24.216689625962033
20
-11.146676027917588
30
0
10
24.731696406586423
20
-10.904520535611832
30
0
10
25.117098996622815
20
-10.560045623922074
30
0
0
SPLINE
5
355
100
AcDbEntity
8
0
100
AcDbSpline
70
0
71
2
72
6
73
3
74
0
42
0.000000001
43
0.0000000001
44
0.0000000001
40
0
40
0
40
0
40
1
40
1
40
1
10
25.117098996622815
20
-10.560045623922074
30
0
10
25.502501437647595
20
-10.215571010255539
30
0
10
25.662801573260083
20
-9.8915598632332919
30
0
0
LINE
5
356
100
AcDbEntity
8
0
100
AcDbLine
10
25.662801573260086
20
-9.8915598632332919
30
0
11
26.058435747607007
21
-9.8915598632332919
31
0
0
LINE
5
357
100
AcDbEntity
8
0
100
AcDbLine
10
26.058435747607007
20
-9.8915598632332919
30
0
11
26.058435747607007
21
-14.912023925924027
31
0
0
LINE
5
358
100
AcDbEntity
8
0
100
AcDbLine
10
30.857208082659497
20
-14.321983242177689
30
0
11
30.857208082659497
21
-14.912023925924027
31
0
0
LINE
5
359
100
AcDbEntity
8
0
100
AcDbLine
10
30.857208082659497
20
-14.912023925924027
30
0
11
27.552296528799786
21
-14.912023925924027
31
0
0
SPLINE
5
360
100
AcDbEntity
8
0
100
AcDbSpline
70
0
71
2
72
6
73
3
74
0
42
0.000000001
43
0.0000000001
44
0.0000000001
40
0
40
0
40
0
40
1
40
1
40
1
10
27.552296528799786
20
-14.912023925924027
30
0
10
27.545475373251691
20
-14.690332198285782
30
0
10
27.623920152170911
20
-14.485693955564225
30
0
0
SPLINE
5
361
100
AcDbEntity
8
0
100
AcDbSpline
70
0
71
2
72
6
73
3
74
0
42
0.000000001
43
0.0000000001
44
0.0000000001
40
0
40
0
40
0
40
1
40
1
40
1
10
27.623920152170911
20
-14.485693955564225
30
0
10
27.750113913996472
20
-14.148040199422562
30
0
10
28.028081068976178
20
-13.820618772649491
30
0
0
SPLINE
5
362
100
AcDbEntity
8
0
100
AcDbSpline
70
0
71
2
72
6
73
3
74
0
42
0.000000001
43
0.0000000001
44
0.0000000001
40
0
40
0
40
0
40
1
40
1
40
1
10
28.028081068976178
20
-13.820618772649491
30
0
10
28.306048223955884
20
-13.493197345876419
30
0
10
28.831287333948865
20
-13.063456201696122
30
0
0
SPLINE
5
363
100
AcDbEntity
8
0
100
AcDbSpline
70
0
71
2
72
6
73
3
74
0
42
0.000000001
43
0.0000000001
44
0.0000000001
40
0
40
0
40
0
40
1
40
1
40
1
10
28.831287333948865
20
-13.063456201696122
30
0
10
29.646430323107495
20
-12.394970739030564
30
0
10
29.932924220545544
20
-12.004452431344712
30
0
0
SPLINE
5
364
100
AcDbEntity
8
0
100
AcDbSpline
70
0
71
2
72
6
73
3
74
0
42
0.000000001
43
0.0000000001
44
0.0000000001
40
0
40
0
40
0
40
1
40
1
40
1
10
29.932924220545544
20
-12.004452431344712
30
0
10
30.219418117983594
20
-11.613933825635636
30
0
10
30.219418117983594
20
-11.26604833617183
30
0
0
SPLINE
5
365
100
AcDbEntity
8
0
100
AcDbSpline
70
0
71
2
72
6
73
3
74
0
42
0.000000001
43
0.0000000001
44
0.0000000001
40
0
40
0
40
0
40
1
40
1
40
1
10
30.219418117983594
20
-11.26604833617183
30
0
10
30.219418117983594
20
-10.901109957837784
30
0
10
29.958504149897351
20
-10.650427723073685
30
0
0
SPLINE
5
366
100
AcDbEntity
8
0
100
AcDbSpline
70
0
71
2
72
6
73
3
74
0
42
0.000000001
43
0.0000000001
44
0.0000000001
40
0
40
0
40
0
40
1
40
1
40
1
10
29.958504149897351
20
-10.650427723073685
30
0
10
29.697590181811108
20
-10.399745488309586
30
0
10
29.278081366999402
20
-10.399745488309586
30
0
0
SPLINE
5
367
100
AcDbEntity
8
0
100
AcDbSpline
70
0
71
2
72
6
73
3
74
0
42
0.000000001
43
0.0000000001
44
0.0000000001
40
0
40
0
40
0
40
1
40
1
40
1
10
29.278081366999402
20
-10.399745488309586
30
0
10
28.834697911722913
20
-10.399745488309586
30
0
10
28.56866748092915
20
-10.665775621080124
30
0
0
SPLINE
5
368
100
AcDbEntity
8
0
100
AcDbSpline
70
0
71
2
72
6
73
3
74
0
42
0.000000001
43
0.0000000001
44
0.0000000001
40
0
40
0
40
0
40
1
40
1
40
1
10
28.56866748092915
20
-10.665775621080124
30
0
10
28.302637646181836
20
-10.931805753850663
30
0
10
28.299227068407788
20
-11.402474129342759
30
0
0
LINE
5
369
100
AcDbEntity
8
0
100
AcDbLine
10
28.299227068407788
20
-11.402474129342759
30
0
11
27.668258557303204
21
-11.337671959542954
31
0
0
SPLINE
5
370
100
AcDbEntity
8
0
100
AcDbSpline
70
0
71
2
72
6
73
3
74
0
42
0.000000001
43
0.0000000001
44
0.0000000001
40
0
40
0
40
0
40
1
40
1
40
1
10
27.668258557303204
20
-11.337671959542954
30
0
10
27.733060727103009
20
-10.631669247293198
30
0
10
28.155980119688763
20
-10.261614704274857
30
0
0
SPLINE
5
371
100
AcDbEntity
8
0
100
AcDbSpline
70
0
71
2
72
6
73
3
74
0
42
0.000000001
43
0.0000000001
44
0.0000000001
40
0
40
0
40
0
40
1
40
1
40
1
10
28.155980119688763
20
-10.261614704274857
30
0
10
28.578899810297742
20
-9.8915598632332919
30
0
10
29.291723678095593
20
-9.8915598632332919
30
0
0
SPLINE
5
372
100
AcDbEntity
8
0
100
AcDbSpline
70
0
71
2
72
6
73
3
74
0
42
0.000000001
43
0.0000000001
44
0.0000000001
40
0
40
0
40
0
40
1
40
1
40
1
10
29.291723678095593
20
-9.8915598632332919
30
0
10
30.01136870144154
20
-9.8915598632332919
30
0
10
30.430878112299695
20
-10.290605211400711
30
0
0
SPLINE
5
373
100
AcDbEntity
8
0
100
AcDbSpline
70
0
71
2
72
6
73
3
74
0
42
0.000000001
43
0.0000000001
44
0.0000000001
40
0
40
0
40
0
40
1
40
1
40
1
10
30.430878112299695
20
-10.290605211400711
30
0
10
30.850386331064954
20
-10.689649963521683
30
0
10
30.850386331064954
20
-11.279690945291245
30
0
0
SPLINE
5
374
100
AcDbEntity
8
0
100
AcDbSpline
70
0
71
2
72
6
73
3
74
0
42
0.000000001
43
0.0000000001
44
0.0000000001
40
0
40
0
40
0
40
1
40
1
40
1
10
30.850386331064954
20
-11.279690945291245
30
0
10
30.850386331064954
20
-11.579827451848709
30
0
10
30.727603743059888
20
-11.869731927060807
30
0
0
SPLINE
5
375
100
AcDbEntity
8
0
100
AcDbSpline
70
0
71
2
72
6
73
3
74
0
42
0.000000001
43
0.0000000001
44
0.0000000001
40
0
40
0
40
0
40
1
40
1
40
1
10
30.727603743059888
20
-11.869731927060807
30
0
10
30.604820559008374
20
-12.159636402272904
30
0
10
30.320031950457349
20
-12.480236673497879
30
0
0
SPLINE
5
376
100
AcDbEntity
8
0
100
AcDbSpline
70
0
71
2
72
6
73
3
74
0
42
0.000000001
43
0.0000000001
44
0.0000000001
40
0
40
0
40
0
40
1
40
1
40
1
10
30.320031950457349
20
-12.480236673497879
30
0
10
30.035243341906323
20
-12.800836944722855
30
0
10
29.373578736765637
20
-13.360182130479538
30
0
0
SPLINE
5
377
100
AcDbEntity
8
0
100
AcDbSpline
70
0
71
2
72
6
73
3
74
0
42
0.000000001
43
0.0000000001
44
0.0000000001
40
0
40
0
40
0
40
1
40
1
40
1
10
29.373578736765637
20
-13.360182130479538
30
0
10
28.821055004580273
20
-13.824029350423539
30
0
10
28.664165446741833
20
-13.989445352697098
30
0
0
SPLINE
5
378
100
AcDbEntity
8
0
100
AcDbSpline
70
0
71
2
72
6
73
3
74
0
42
0.000000001
43
0.0000000001
44
0.0000000001
40
0
40
0
40
0
40
1
40
1
40
1
10
28.664165446741833
20
-13.989445352697098
30
0
10
28.507276484949841
20
-14.154861354970658
30
0
10
28.404957065565839
20
-14.321983242177689
30
0
0
LINE
5
379
100
AcDbEntity
8
0
100
AcDbLine
10
28.404957065565839
20
-14.321983242177689
30
0
11
30.857208082659497
21
-14.321983242177689
31
0
0
LINE
5
380
100
AcDbEntity
8
0
100
AcDbLine
10
33.626649091227307
20
-14.912023925924027
30
0
11
33.626649091227307
21
-11.289922976636612
31
0
0
LINE
5
381
100
AcDbEntity
8
0
100
AcDbLine
10
33.626649091227307
20
-11.289922976636612
30
0
11
34.175762841685071
21
-11.289922976636612
31
0
0
LINE
5
382
100
AcDbEntity
8
0
100
AcDbLine
10
34.175762841685071
20
-11.289922976636612
30
0
11
34.175762841685071
21
-11.798108601712906
31
0
0
SPLINE
5
383
100
AcDbEntity
8
0
100
AcDbSpline
70
0
71
2
72
6
73
3
74
0
42
0.000000001
43
0.0000000001
44
0.0000000001
40
0
40
0
40
0
40
1
40
1
40
1
10
34.175762841685071
20
-11.798108601712906
30
0
10
34.346294114573254
20
-11.532078468942368
30
0
10
34.629378030283704
20
-11.370073044442856
30
0
0
SPLINE
5
384
100
AcDbEntity
8
0
100
AcDbSpline
70
0
71
2
72
6
73
3
74
0
42
0.000000001
43
0.0000000001
44
0.0000000001
40
0
40
0
40
0
40
1
40
1
40
1
10
34.629378030283704
20
-11.370073044442856
30
0
10
34.912460753901257
20
-11.208067619943344
30
0
10
35.273989150507703
20
-11.208067619943344
30
0
0
SPLINE
5
385
100
AcDbEntity
8
0
100
AcDbSpline
70
0
71
2
72
6
73
3
74
0
42
0.000000001
43
0.0000000001
44
0.0000000001
40
0
40
0
40
0
40
1
40
1
40
1
10
35.273989150507703
20
-11.208067619943344
30
0
10
35.676444480402722
20
-11.208067619943344
30
0
10
35.933948466761365
20
-11.375188911103928
30
0
0
SPLINE
5
386
100
AcDbEntity
8
0
100
AcDbSpline
70
0
71
2
72
6
73
3
74
0
42
0.000000001
43
0.0000000001
44
0.0000000001
40
0
40
0
40
0
40
1
40
1
40
1
10
35.933948466761365
20
-11.375188911103928
30
0
10
36.191451261027112
20
-11.542310500287735
30
0
10
36.297181556208386
20
-11.842446708821976
30
0
0
SPLINE
5
387
100
AcDbEntity
8
0
100
AcDbSpline
70
0
71
2
72
6
73
3
74
0
42
0.000000001
43
0.0000000001
44
0.0000000001
40
0
40
0
40
0
40
1
40
1
40
1
10
36.297181556208386
20
-11.842446708821976
30
0
10
36.726921508295788
20
-11.208067619943344
30
0
10
37.415871331675305
20
-11.208067619943344
30
0
0
SPLINE
5
388
100
AcDbEntity
8
0
100
AcDbSpline
70
0
71
2
72
6
73
3
74
0
42
0.000000001
43
0.0000000001
44
0.0000000001
40
0
40
0
40
0
40
1
40
1
40
1
10
37.415871331675305
20
-11.208067619943344
30
0
10
37.954753348810925
20
-11.208067619943344
30
0
10
38.244657227976575
20
-11.506498539590561
30
0
0
SPLINE
5
389
100
AcDbEntity
8
0
100
AcDbSpline
70
0
71
2
72
6
73
3
74
0
42
0.000000001
43
0.0000000001
44
0.0000000001
40
0
40
0
40
0
40
1
40
1
40
1
10
38.244657227976575
20
-11.506498539590561
30
0
10
38.534561107142224
20
-11.804929757261002
30
0
10
38.534561107142224
20
-12.425666535043442
30
0
0
LINE
5
390
100
AcDbEntity
8
0
100
AcDbLine
10
38.534561107142224
20
-12.425666535043442
30
0
11
38.534561107142224
21
-14.912023925924027
31
0
0
LINE
5
391
100
AcDbEntity
8
0
100
AcDbLine
10
38.534561107142224
20
-14.912023925924027
30
0
11
37.924056956751599
21
-14.912023925924027
31
0
0
LINE
5
392
100
AcDbEntity
8
0
100
AcDbLine
10
37.924056956751599
20
-14.912023925924027
30
0
11
37.924056956751599
21
-12.630305075788224
31
0
0
SPLINE
5
393
100
AcDbEntity
8
0
100
AcDbSpline
70
0
71
2
72
6
73
3
74
0
42
0.000000001
43
0.0000000001
44
0.0000000001
40
0
40
0
40
0
40
1
40
1
40
1
10
37.924056956751599
20
-12.630305075788224
30
0
10
37.924056956751599
20
-12.261955821656906
30
0
10
37.864371249659314
20
-12.099950099134171
30
0
0
SPLINE
5
394
100
AcDbEntity
8
0
100
AcDbSpline
70
0
71
2
72
6
73
3
74
0
42
0.000000001
43
0.0000000001
44
0.0000000001
40
0
40
0
40
0
40
1
40
1
40
1
10
37.864371249659314
20
-12.099950099134171
30
0
10
37.804684350474133
20
-11.937944674634659
30
0
10
37.647795388682141
20
-11.839036131047928
30
0
0
SPLINE
5
395
100
AcDbEntity
8
0
100
AcDbSpline
70
0
71
2
72
6
73
3
74
0
42
0.000000001
43
0.0000000001
44
0.0000000001
40
0
40
0
40
0
40
1
40
1
40
1
10
37.647795388682141
20
-11.839036131047928
30
0
10
37.490905234797253
20
-11.740127587461197
30
0
10
37.2794458365276
20
-11.740127587461197
30
0
0
SPLINE
5
396
100
AcDbEntity
8
0
100
AcDbSpline
70
0
71
2
72
6
73
3
74
0
42
0.000000001
43
0.0000000001
44
0.0000000001
40
0
40
0
40
0
40
1
40
1
40
1
10
37.2794458365276
20
-11.740127587461197
30
0
10
36.897453973276868
20
-11.740127587461197
30
0
10
36.645066449625745
20
-11.994220399999344
30
0
0
SPLINE
5
397
100
AcDbEntity
8
0
100
AcDbSpline
70
0
71
2
72
6
73
3
74
0
42
0.000000001
43
0.0000000001
44
0.0000000001
40
0
40
0
40
0
40
1
40
1
40
1
10
36.645066449625745
20
-11.994220399999344
30
0
10
36.392678925974622
20
-12.248313212537491
30
0
10
36.392678925974622
20
-12.807658100270951
30
0
0
LINE
5
398
100
AcDbEntity
8
0
100
AcDbLine
10
36.392678925974622
20
-12.807658100270951
30
0
11
36.392678925974622
21
-14.912023925924027
31
0
0
LINE
5
399
100
AcDbEntity
8
0
100
AcDbLine
10
36.392678925974622
20
-14.912023925924027
30
0
11
35.778764197809949
21
-14.912023925924027
31
0
0
LINE
5
400
100
AcDbEntity
8
0
100
AcDbLine
10
35.778764197809949
20
-14.912023925924027
30
0
11
35.778764197809949
21
-12.558681452417099
31
0
0
SPLINE
5
401
100
AcDbEntity
8
0
100
AcDbSpline
70
0
71
2
72
6
73
3
74
0
42
0.000000001
43
0.0000000001
44
0.0000000001
40
0
40
0
40
0
40
1
40
1
40
1
10
35.778764197809949
20
-12.558681452417099
30
0
10
35.778764197809949
20
-12.14940466895076
30
0
10
35.628695199473157
20
-11.944766128205979
30
0
0
SPLINE
5
402
100
AcDbEntity
8
0
100
AcDbSpline
70
0
71
2
72
6
73
3
74
0
42
0.000000001
43
0.0000000001
44
0.0000000001
40
0
40
0
40
0
40
1
40
1
40
1
10
35.628695199473157
20
-11.944766128205979
30
0
10
35.47862739322926
20
-11.740127587461197
30
0
10
35.137563655359997
20
-11.740127587461197
30
0
0
SPLINE
5
403
100
AcDbEntity
8
0
100
AcDbSpline
70
0
71
2
72
6
73
3
74
0
42
0.000000001
43
0.0000000001
44
0.0000000001
40
0
40
0
40
0
40
1
40
1
40
1
10
35.137563655359997
20
-11.740127587461197
30
0
10
34.878354976160779
20
-11.740127587461197
30
0
10
34.658368537409558
20
-11.876553380632126
30
0
0
SPLINE
5
404
100
AcDbEntity
8
0
100
AcDbSpline
70
0
71
2
72
6
73
3
74
0
42
0.000000001
43
0.0000000001
44
0.0000000001
40
0
40
0
40
0
40
1
40
1
40
1
10
34.658368537409558
20
-11.876553380632126
30
0
10
34.438382098658337
20
-12.012978875779831
30
0
10
34.339472959025159
20
-12.275598132753098
30
0
0
SPLINE
5
405
100
AcDbEntity
8
0
100
AcDbSpline
70
0
71
2
72
6
73
3
74
0
42
0.000000001
43
0.0000000001
44
0.0000000001
40
0
40
0
40
0
40
1
40
1
40
1
10
34.339472959025159
20
-12.275598132753098
30
0
10
34.240565011484875
20
-12.538217687749588
30
0
10
34.240565011484875
20
-13.032760405683243
30
0
0
LINE
5
406
100
AcDbEntity
8
0
100
AcDbLine
10
34.240565011484875
20
-13.032760405683245
30
0
11
34.240565011484875
21
-14.912023925924027
31
0
0
LINE
5
407
100
AcDbEntity
8
0
100
AcDbLine
10
34.240565011484875
20
-14.912023925924027
30
0
11
33.626649091227307
21
-14.912023925924027
31
0
0
LINE
5
408
100
AcDbEntity
8
0
100
AcDbLine
10
-38.941564252393007
20
-40.912023925924032
30
0
11
-39.555479576604128
21
-40.912023925924032
31
0
0
LINE
5
409
100
AcDbEntity
8
0
100
AcDbLine
10
-39.555479576604128
20
-40.912023925924032
30
0
11
-39.555479576604128
21
-37.00001850142452
31
0
0
SPLINE
5
410
100
AcDbEntity
8
0
100
AcDbSpline
70
0
71
2
72
6
73
3
74
0
42
0.000000001
43
0.0000000001
44
0.0000000001
40
0
40
0
40
0
40
1
40
1
40
1
10
-39.555479576604128
20
-37.00001850142452
30
0
10
-39.777171304242373
20
-37.211478197717398
30
0
10
-40.136993815915346
20
-37.422937894010275
30
0
0
SPLINE
5
411
100
AcDbEntity
8
0
100
AcDbSpline
70
0
71
2
72
6
73
3
74
0
42
0.000000001
43
0.0000000001
44
0.0000000001
40
0
40
0
40
0
40
1
40
1
40
1
10
-40.136993815915346
20
-37.422937894010275
30
0
10
-40.496816476599932
20
-37.634397590303152
30
0
10
-40.783310374037981
20
-37.740127587461203
30
0
0
LINE
5
412
100
AcDbEntity
8
0
100
AcDbLine
10
-40.783310374037981
20
-37.740127587461203
30
0
11
-40.783310374037981
21
-37.146676027917593
31
0
0
SPLINE
5
413
100
AcDbEntity
8
0
100
AcDbSpline
70
0
71
2
72
6
73
3
74
0
42
0.000000001
43
0.0000000001
44
0.0000000001
40
0
40
0
40
0
40
1
40
1
40
1
10
-40.783310374037981
20
-37.146676027917593
30
0
10
-40.268303593413592
20
-36.904520535611837
30
0
10
-39.882901003377199
20
-36.560045623922079
30
0
0
SPLINE
5
414
100
AcDbEntity
8
0
100
AcDbSpline
70
0
71
2
72
6
73
3
74
0
42
0.000000001
43
0.0000000001
44
0.0000000001
40
0
40
0
40
0
40
1
40
1
40
1
10
-39.882901003377199
20
-36.560045623922079
30
0
10
-39.497498562352419
20
-36.215571010255545
30
0
10
-39.337198426739931
20
-35.891559863233297
30
0
0
LINE
5
415
100
AcDbEntity
8
0
100
AcDbLine
10
-39.337198426739924
20
-35.891559863233297
30
0
11
-38.941564252393007
21
-35.891559863233297
31
0
0
LINE
5
416
100
AcDbEntity
8
0
100
AcDbLine
10
-38.941564252393007
20
-35.891559863233297
30
0
11
-38.941564252393007
21
-40.912023925924032
31
0
0
LINE
5
417
100
AcDbEntity
8
0
100
AcDbLine
10
-37.328330864922762
20
-36.566867077493399
30
0
11
-37.328330864922762
21
-35.976826095723837
31
0
0
LINE
5
418
100
AcDbEntity
8
0
100
AcDbLine
10
-37.328330864922762
20
-35.976826095723837
30
0
11
-34.091632654683352
21
-35.976826095723837
31
0
0
LINE
5
419
100
AcDbEntity
8
0
100
AcDbLine
10
-34.091632654683352
20
-35.976826095723837
30
0
11
-34.091632654683352
21
-36.454315924787252
31
0
0
SPLINE
5
420
100
AcDbEntity
8
0
100
AcDbSpline
70
0
71
2
72
6
73
3
74
0
42
0.000000001
43
0.0000000001
44
0.0000000001
40
0
40
0
40
0
40
1
40
1
40
1
10
-34.091632654683352
20
-36.454315924787252
30
0
10
-34.569121887700319
20
-36.962501251840322
30
0
10
-35.038085272328615
20
-37.804929757261007
30
0
0
SPLINE
5
421
100
AcDbEntity
8
0
100
AcDbSpline
70
0
71
2
72
6
73
3
74
0
42
0.000000001
43
0.0000000001
44
0.0000000001
40
0
40
0
40
0
40
1
40
1
40
1
10
-35.038085272328615
20
-37.804929757261007
30
0
10
-35.507048656956911
20
-38.647357964658468
30
0
10
-35.762846758382082
20
-39.537535452985495
30
0
0
SPLINE
5
422
100
AcDbEntity
8
0
100
AcDbSpline
70
0
71
2
72
6
73
3
74
0
42
0.000000001
43
0.0000000001
44
0.0000000001
40
0
40
0
40
0
40
1
40
1
40
1
10
-35.762846758382082
20
-39.537535452985495
30
0
10
-35.947021534459353
20
-40.165093684339254
30
0
10
-35.998180797116518
20
-40.912023925924032
30
0
0
LINE
5
423
100
AcDbEntity
8
0
100
AcDbLine
10
-35.998180797116518
20
-40.912023925924018
30
0
11
-36.629149308221102
21
-40.912023925924032
31
0
0
SPLINE
5
424
100
AcDbEntity
8
0
100
AcDbSpline
70
0
71
2
72
6
73
3
74
0
42
0.000000001
43
0.0000000001
44
0.0000000001
40
0
40
0
40
0
40
1
40
1
40
1
10
-36.629149308221102
20
-40.912023925924032
30
0
10
-36.618917574898958
20
-40.321983242177694
30
0
10
-36.397226145283938
20
-39.486375892305105
30
0
0
SPLINE
5
425
100
AcDbEntity
8
0
100
AcDbSpline
70
0
71
2
72
6
73
3
74
0
42
0.000000001
43
0.0000000001
44
0.0000000001
40
0
40
0
40
0
40
1
40
1
40
1
10
-36.397226145283938
20
-39.486375892305105
30
0
10
-36.175533821599245
20
-38.65076884045574
30
0
10
-35.76114087344861
20
-37.874847793721884
30
0
0
SPLINE
5
426
100
AcDbEntity
8
0
100
AcDbSpline
70
0
71
2
72
6
73
3
74
0
42
0.000000001
43
0.0000000001
44
0.0000000001
40
0
40
0
40
0
40
1
40
1
40
1
10
-35.76114087344861
20
-37.874847793721884
30
0
10
-35.346748521344423
20
-37.098927045011251
30
0
10
-34.879490425603151
20
-36.566867077493399
30
0
0
LINE
5
427
100
AcDbEntity
8
0
100
AcDbLine
10
-34.879490425603151
20
-36.566867077493399
30
0
11
-37.328330864922762
21
-36.566867077493399
31
0
0
LINE
5
428
100
AcDbEntity
8
0
100
AcDbLine
10
-31.373350908772704
20
-40.912023925924032
30
0
11
-31.373350908772704
21
-37.289922976636618
31
0
0
LINE
5
429
100
AcDbEntity
8
0
100
AcDbLine
10
-31.373350908772704
20
-37.289922976636618
30
0
11
-30.82423715831494
21
-37.289922976636618
31
0
0
LINE
5
430
100
AcDbEntity
8
0
100
AcDbLine
10
-30.82423715831494
20
-37.289922976636618
30
0
11
-30.82423715831494
21
-37.798108601712912
31
0
0
SPLINE
5
431
100
AcDbEntity
8
0
100
AcDbSpline
70
0
71
2
72
6
73
3
74
0
42
0.000000001
43
0.0000000001
44
0.0000000001
40
0
40
0
40
0
40
1
40
1
40
1
10
-30.82423715831494
20
-37.798108601712912
30
0
10
-30.653705885426756
20
-37.532078468942373
30
0
10
-30.370621969716307
20
-37.370073044442861
30
0
0
SPLINE
5
432
100
AcDbEntity
8
0
100
AcDbSpline
70
0
71
2
72
6
73
3
74
0
42
0.000000001
43
0.0000000001
44
0.0000000001
40
0
40
0
40
0
40
1
40
1
40
1
10
-30.370621969716307
20
-37.370073044442861
30
0
10
-30.087539246098753
20
-37.20806761994335
30
0
10
-29.726010849492308
20
-37.20806761994335
30
0
0
SPLINE
5
433
100
AcDbEntity
8
0
100
AcDbSpline
70
0
71
2
72
6
73
3
74
0
42
0.000000001
43
0.0000000001
44
0.0000000001
40
0
40
0
40
0
40
1
40
1
40
1
10
-29.726010849492308
20
-37.20806761994335
30
0
10
-29.323555519597289
20
-37.20806761994335
30
0
10
-29.066051533238646
20
-37.375188911103933
30
0
0
SPLINE
5
434
100
AcDbEntity
8
0
100
AcDbSpline
70
0
71
2
72
6
73
3
74
0
42
0.000000001
43
0.0000000001
44
0.0000000001
40
0
40
0
40
0
40
1
40
1
40
1
10
-29.066051533238646
20
-37.375188911103933
30
0
10
-28.808548738972899
20
-37.542310500287741
30
0
10
-28.702818443791625
20
-37.842446708821981
30
0
0
SPLINE
5
435
100
AcDbEntity
8
0
100
AcDbSpline
70
0
71
2
72
6
73
3
74
0
42
0.000000001
43
0.0000000001
44
0.0000000001
40
0
40
0
40
0
40
1
40
1
40
1
10
-28.702818443791625
20
-37.842446708821981
30
0
10
-28.273078491704222
20
-37.20806761994335
30
0
10
-27.584128668324706
20
-37.20806761994335
30
0
0
SPLINE
5
436
100
AcDbEntity
8
0
100
AcDbSpline
70
0
71
2
72
6
73
3
74
0
42
0.000000001
43
0.0000000001
44
0.0000000001
40
0
40
0
40
0
40
1
40
1
40
1
10
-27.584128668324706
20
-37.20806761994335
30
0
10
-27.045246651189085
20
-37.20806761994335
30
0
10
-26.755342772023436
20
-37.506498539590567
30
0
0
SPLINE
5
437
100
AcDbEntity
8
0
100
AcDbSpline
70
0
71
2
72
6
73
3
74
0
42
0.000000001
43
0.0000000001
44
0.0000000001
40
0
40
0
40
0
40
1
40
1
40
1
10
-26.755342772023436
20
-37.506498539590567
30
0
10
-26.465438892857787
20
-37.804929757261007
30
0
10
-26.465438892857787
20
-38.425666535043447
30
0
0
LINE
5
438
100
AcDbEntity
8
0
100
AcDbLine
10
-26.465438892857787
20
-38.425666535043447
30
0
11
-26.465438892857787
21
-40.912023925924032
31
0
0
LINE
5
439
100
AcDbEntity
8
0
100
AcDbLine
10
-26.465438892857787
20
-40.912023925924032
30
0
11
-27.075943043248412
21
-40.912023925924032
31
0
0
LINE
5
440
100
AcDbEntity
8
0
100
AcDbLine
10
-27.075943043248412
20
-40.912023925924032
30
0
11
-27.075943043248412
21
-38.630305075788229
31
0
0
SPLINE
5
441
100
AcDbEntity
8
0
100
AcDbSpline
70
0
71
2
72
6
73
3
74
0
42
0.000000001
43
0.0000000001
44
0.0000000001
40
0
40
0
40
0
40
1
40
1
40
1
10
-27.075943043248412
20
-38.630305075788229
30
0
10
-27.075943043248412
20
-38.261955821656912
30
0
10
-27.135628750340697
20
-38.099950099134176
30
0
0
SPLINE
5
442
100
AcDbEntity
8
0
100
AcDbSpline
70
0
71
2
72
6
73
3
74
0
42
0.000000001
43
0.0000000001
44
0.0000000001
40
0
40
0
40
0
40
1
40
1
40
1
10
-27.135628750340697
20
-38.099950099134176
30
0
10
-27.195315649525877
20
-37.937944674634664
30
0
10
-27.35220461131787
20
-37.839036131047934
30
0
0
SPLINE
5
443
100
AcDbEntity
8
0
100
AcDbSpline
70
0
71
2
72
6
73
3
74
0
42
0.000000001
43
0.0000000001
44
0.0000000001
40
0
40
0
40
0
40
1
40
1
40
1
10
-27.35220461131787
20
-37.839036131047934
30
0
10
-27.509094765202757
20
-37.740127587461203
30
0
10
-27.720554163472411
20
-37.740127587461203
30
0
0
SPLINE
5
444
100
AcDbEntity
8
0
100
AcDbSpline
70
0
71
2
72
6
73
3
74
0
42
0.000000001
43
0.0000000001
44
0.0000000001
40
0
40
0
40
0
40
1
40
1
40
1
10
-27.720554163472411
20
-37.740127587461203
30
0
10
-28.102546026723143
20
-37.740127587461203
30
0
10
-28.354933550374266
20
-37.99422039999935
30
0
0
SPLINE
5
445
100
AcDbEntity
8
0
100
AcDbSpline
70
0
71
2
72
6
73
3
74
0
42
0.000000001
43
0.0000000001
44
0.0000000001
40
0
40
0
40
0
40
1
40
1
40
1
10
-28.354933550374266
20
-37.99422039999935
30
0
10
-28.607321074025389
20
-38.248313212537496
30
0
10
-28.607321074025389
20
-38.807658100270956
30
0
0
LINE
5
446
100
AcDbEntity
8
0
100
AcDbLine
10
-28.607321074025389
20
-38.807658100270956
30
0
11
-28.607321074025389
21
-40.912023925924032
31
0
0
LINE
5
447
100
AcDbEntity
8
0
100
AcDbLine
10
-28.607321074025389
20
-40.912023925924032
30
0
11
-29.221235802190062
21
-40.912023925924032
31
0
0
LINE
5
448
100
AcDbEntity
8
0
100
AcDbLine
10
-29.221235802190062
20
-40.912023925924032
30
0
11
-29.221235802190062
21
-38.558681452417105
31
0
0
SPLINE
5
449
100
AcDbEntity
8
0
100
AcDbSpline
70
0
71
2
72
6
73
3
74
0
42
0.000000001
43
0.0000000001
44
0.0000000001
40
0
40
0
40
0
40
1
40
1
40
1
10
-29.221235802190062
20
-38.558681452417105
30
0
10
-29.221235802190062
20
-38.149404668950766
30
0
10
-29.371304800526854
20
-37.944766128205984
30
0
0
SPLINE
5
450
100
AcDbEntity
8
0
100
AcDbSpline
70
0
71
2
72
6
73
3
74
0
42
0.000000001
43
0.0000000001
44
0.0000000001
40
0
40
0
40
0
40
1
40
1
40
1
10
-29.371304800526854
20
-37.944766128205984
30
0
10
-29.52137260677075
20
-37.740127587461203
30
0
10
-29.862436344640013
20
-37.740127587461203
30
0
0
SPLINE
5
451
100
AcDbEntity
8
0
100
AcDbSpline
70
0
71
2
72
6
73
3
74
0
42
0.000000001
43
0.0000000001
44
0.0000000001
40
0
40
0
40
0
40
1
40
1
40
1
10
-29.862436344640013
20
-37.740127587461203
30
0
10
-30.121645023839232
20
-37.740127587461203
30
0
10
-30.341631462590453
20
-37.876553380632132
30
0
0
SPLINE
5
452
100
AcDbEntity
8
0
100
AcDbSpline
70
0
71
2
72
6
73
3
74
0
42
0.000000001
43
0.0000000001
44
0.0000000001
40
0
40
0
40
0
40
1
40
1
40
1
10
-30.341631462590453
20
-37.876553380632132
30
0
10
-30.561617901341673
20
-38.012978875779837
30
0
10
-30.660527040974852
20
-38.275598132753103
30
0
0
SPLINE
5
453
100
AcDbEntity
8
0
100
AcDbSpline
70
0
71
2
72
6
73
3
74
0
42
0.000000001
43
0.0000000001
44
0.0000000001
40
0
40
0
40
0
40
1
40
1
40
1
10
-30.660527040974852
20
-38.275598132753103
30
0
10
-30.759434988515135
20
-38.538217687749594
30
0
10
-30.759434988515135
20
-39.032760405683248
30
0
0
LINE
5
454
100
AcDbEntity
8
0
100
AcDbLine
10
-30.759434988515135
20
-39.032760405683241
30
0
11
-30.759434988515135
21
-40.912023925924032
31
0
0
LINE
5
455
100
AcDbEntity
8
0
100
AcDbLine
10
-30.759434988515135
20
-40.912023925924032
30
0
11
-31.373350908772704
21
-40.912023925924032
31
0
0
LINE
5
456
100
AcDbEntity
8
0
100
AcDbLine
10
-7.7833103740379705
20
-39.592105889463156
30
0
11
-7.1693949194416895
21
-39.510250532769888
31
0
0
SPLINE
5
457
100
AcDbEntity
8
0
100
AcDbSpline
70
0
71
2
72
6
73
3
74
0
42
0.000000001
43
0.0000000001
44
0.0000000001
40
0
40
0
40
0
40
1
40
1
40
1
10
-7.1693949194416895
20
-39.510250532769888
30
0
10
-7.0636650712952509
20
-40.032078766965597
30
0
10
-6.8095723332629099
20
-40.262296939038961
30
0
0
SPLINE
5
458
100
AcDbEntity
8
0
100
AcDbSpline
70
0
71
2
72
6
73
3
74
0
42
0.000000001
43
0.0000000001
44
0.0000000001
40
0
40
0
40
0
40
1
40
1
40
1
10
-6.8095723332629099
20
-40.262296939038961
30
0
10
-6.5554795207247629
20
-40.492515111112326
30
0
10
-6.1905408443674936
20
-40.492515111112326
30
0
0
SPLINE
5
459
100
AcDbEntity
8
0
100
AcDbSpline
70
0
71
2
72
6
73
3
74
0
42
0.000000001
43
0.0000000001
44
0.0000000001
40
0
40
0
40
0
40
1
40
1
40
1
10
-6.1905408443674936
20
-40.492515111112326
30
0
10
-5.7573894204363718
20
-40.492515111112326
30
0
10
-5.458958500789155
20
-40.192378902578085
30
0
0
SPLINE
5
460
100
AcDbEntity
8
0
100
AcDbSpline
70
0
71
2
72
6
73
3
74
0
42
0.000000001
43
0.0000000001
44
0.0000000001
40
0
40
0
40
0
40
1
40
1
40
1
10
-5.458958500789155
20
-40.192378902578085
30
0
10
-5.1605272831187143
20
-39.892242097997396
30
0
10
-5.1605272831187143
20
-39.448858940744131
30
0
0
SPLINE
5
461
100
AcDbEntity
8
0
100
AcDbSpline
70
0
71
2
72
6
73
3
74
0
42
0.000000001
43
0.0000000001
44
0.0000000001
40
0
40
0
40
0
40
1
40
1
40
1
10
-5.1605272831187143
20
-39.448858940744131
30
0
10
-5.1605272831187143
20
-39.025939548158377
30
0
10
-5.4367891492113962
20
-38.751382970952719
30
0
0
SPLINE
5
462
100
AcDbEntity
8
0
100
AcDbSpline
70
0
71
2
72
6
73
3
74
0
42
0.000000001
43
0.0000000001
44
0.0000000001
40
0
40
0
40
0
40
1
40
1
40
1
10
-5.4367891492113962
20
-38.751382970952719
30
0
10
-5.71305116431569
20
-38.476826095723837
30
0
10
-6.1393812836871042
20
-38.476826095723837
30
0
0
SPLINE
5
463
100
AcDbEntity
8
0
100
AcDbSpline
70
0
71
2
72
6
73
3
74
0
42
0.000000001
43
0.0000000001
44
0.0000000001
40
0
40
0
40
0
40
1
40
1
40
1
10
-6.1393812836871042
20
-38.476826095723837
30
0
10
-6.3133238794073954
20
-38.476826095723837
30
0
10
-6.5725327076182261
20
-38.545039141320913
30
0
0
LINE
5
464
100
AcDbEntity
8
0
100
AcDbLine
10
-6.5725327076182252
20
-38.545039141320913
30
0
11
-6.5043198110327616
21
-38.006158018254965
31
0
0
SPLINE
5
465
100
AcDbEntity
8
0
100
AcDbSpline
70
0
71
2
72
6
73
3
74
0
42
0.000000001
43
0.0000000001
44
0.0000000001
40
0
40
0
40
0
40
1
40
1
40
1
10
-6.5043198110327616
20
-38.006158018254965
30
0
10
-6.4429283680186167
20
-38.01297917380306
30
0
10
-6.4054112674460306
20
-38.01297917380306
30
0
0
SPLINE
5
466
100
AcDbEntity
8
0
100
AcDbSpline
70
0
71
2
72
6
73
3
74
0
42
0.000000001
43
0.0000000001
44
0.0000000001
40
0
40
0
40
0
40
1
40
1
40
1
10
-6.4054112674460306
20
-38.01297917380306
30
0
10
-6.0131875218615427
20
-38.01297917380306
30
0
10
-5.6994085551962748
20
-37.808340931081503
30
0
0
SPLINE
5
467
100
AcDbEntity
8
0
100
AcDbSpline
70
0
71
2
72
6
73
3
74
0
42
0.000000001
43
0.0000000001
44
0.0000000001
40
0
40
0
40
0
40
1
40
1
40
1
10
-5.6994085551962748
20
-37.808340931081503
30
0
10
-5.3856295885310068
20
-37.603702390336721
30
0
10
-5.3856295885310068
20
-37.177372121953695
30
0
0
SPLINE
5
468
100
AcDbEntity
8
0
100
AcDbSpline
70
0
71
2
72
6
73
3
74
0
42
0.000000001
43
0.0000000001
44
0.0000000001
40
0
40
0
40
0
40
1
40
1
40
1
10
-5.3856295885310068
20
-37.177372121953695
30
0
10
-5.3856295885310068
20
-36.839718663835257
30
0
10
-5.6141424717173471
20
-36.618027234220236
30
0
0
SPLINE
5
469
100
AcDbEntity
8
0
100
AcDbSpline
70
0
71
2
72
6
73
3
74
0
42
0.000000001
43
0.0000000001
44
0.0000000001
40
0
40
0
40
0
40
1
40
1
40
1
10
-5.6141424717173471
20
-36.618027234220236
30
0
10
-5.8426555039152994
20
-36.396335506581991
30
0
10
-6.2041834534869089
20
-36.396335506581991
30
0
0
SPLINE
5
470
100
AcDbEntity
8
0
100
AcDbSpline
70
0
71
2
72
6
73
3
74
0
42
0.000000001
43
0.0000000001
44
0.0000000001
40
0
40
0
40
0
40
1
40
1
40
1
10
-6.2041834534869089
20
-36.396335506581991
30
0
10
-6.5623008252844706
20
-36.396335506581991
30
0
10
-6.8010457398161783
20
-36.621437811994284
30
0
0
SPLINE
5
471
100
AcDbEntity
8
0
100
AcDbSpline
70
0
71
2
72
6
73
3
74
0
42
0.000000001
43
0.0000000001
44
0.0000000001
40
0
40
0
40
0
40
1
40
1
40
1
10
-6.8010457398161783
20
-36.621437811994284
30
0
10
-7.0397905798420801
20
-36.846540117406576
30
0
10
-7.1080034019217386
20
-37.296744728231161
30
0
0
LINE
5
472
100
AcDbEntity
8
0
100
AcDbLine
10
-7.1080034019217386
20
-37.296744728231161
30
0
11
-7.7219188378915682
21
-37.187604153299063
31
0
0
SPLINE
5
473
100
AcDbEntity
8
0
100
AcDbSpline
70
0
71
2
72
6
73
3
74
0
42
0.000000001
43
0.0000000001
44
0.0000000001
40
0
40
0
40
0
40
1
40
1
40
1
10
-7.7219188378915682
20
-37.187604153299063
30
0
10
-7.609367647932519
20
-36.570278251313894
30
0
10
-7.2103226722941294
20
-36.230919504308432
30
0
0
SPLINE
5
474
100
AcDbEntity
8
0
100
AcDbSpline
70
0
71
2
72
6
73
3
74
0
42
0.000000001
43
0.0000000001
44
0.0000000001
40
0
40
0
40
0
40
1
40
1
40
1
10
-7.2103226722941294
20
-36.230919504308432
30
0
10
-6.8112776221499338
20
-35.891560459279745
30
0
10
-6.2178260626063242
20
-35.891560459279745
30
0
0
SPLINE
5
475
100
AcDbEntity
8
0
100
AcDbSpline
70
0
71
2
72
6
73
3
74
0
42
0.000000001
43
0.0000000001
44
0.0000000001
40
0
40
0
40
0
40
1
40
1
40
1
10
-6.2178260626063242
20
-35.891560459279745
30
0
10
-5.8085489811167612
20
-35.891560459279745
30
0
10
-5.4640743674502268
20
-36.067208492898672
30
0
0
SPLINE
5
476
100
AcDbEntity
8
0
100
AcDbSpline
70
0
71
2
72
6
73
3
74
0
42
0.000000001
43
0.0000000001
44
0.0000000001
40
0
40
0
40
0
40
1
40
1
40
1
10
-5.4640743674502268
20
-36.067208492898672
30
0
10
-5.1195997537836924
20
-36.242856526517599
30
0
10
-4.9371302665934458
20
-36.546403610849111
30
0
0
SPLINE
5
477
100
AcDbEntity
8
0
100
AcDbSpline
70
0
71
2
72
6
73
3
74
0
42
0.000000001
43
0.0000000001
44
0.0000000001
40
0
40
0
40
0
40
1
40
1
40
1
10
-4.9371302665934458
20
-36.546403610849111
30
0
10
-4.7546610774264231
20
-36.849950695180624
30
0
10
-4.7546610774264231
20
-37.191014731073111
30
0
0
SPLINE
5
478
100
AcDbEntity
8
0
100
AcDbSpline
70
0
71
2
72
6
73
3
74
0
42
0.000000001
43
0.0000000001
44
0.0000000001
40
0
40
0
40
0
40
1
40
1
40
1
10
-4.7546610774264231
20
-37.191014731073111
30
0
10
-4.7546610774264231
20
-37.515025580072134
30
0
10
-4.9286038221583262
20
-37.781055712842672
30
0
0
SPLINE
5
479
100
AcDbEntity
8
0
100
AcDbSpline
70
0
71
2
72
6
73
3
74
0
42
0.000000001
43
0.0000000001
44
0.0000000001
40
0
40
0
40
0
40
1
40
1
40
1
10
-4.9286038221583262
20
-37.781055712842672
30
0
10
-5.1025465668902292
20
-38.047085547589987
30
0
10
-5.4436106027827158
20
-38.203975105428427
30
0
0
SPLINE
5
480
100
AcDbEntity
8
0
100
AcDbSpline
70
0
71
2
72
6
73
3
74
0
42
0.000000001
43
0.0000000001
44
0.0000000001
40
0
40
0
40
0
40
1
40
1
40
1
10
-5.4436106027827158
20
-38.203975105428427
30
0
10
-5.0002271475062265
20
-38.306294524812429
30
0
10
-4.7546610774264231
20
-38.628599786901205
30
0
0
SPLINE
5
481
100
AcDbEntity
8
0
100
AcDbSpline
70
0
71
2
72
6
73
3
74
0
42
0.000000001
43
0.0000000001
44
0.0000000001
40
0
40
0
40
0
40
1
40
1
40
1
10
-4.7546610774264231
20
-38.628599786901205
30
0
10
-4.5090950073466196
20
-38.950905347013205
30
0
10
-4.5090950073466196
20
-39.435216331624716
30
0
0
SPLINE
5
482
100
AcDbEntity
8
0
100
AcDbSpline
70
0
71
2
72
6
73
3
74
0
42
0.000000001
43
0.0000000001
44
0.0000000001
40
0
40
0
40
0
40
1
40
1
40
1
10
-4.5090950073466196
20
-39.435216331624716
30
0
10
-4.5090950073466196
20
-40.090059781217306
30
0
10
-4.9865845383868113
20
-40.545380258702963
30
0
0
SPLINE
5
483
100
AcDbEntity
8
0
100
AcDbSpline
70
0
71
2
72
6
73
3
74
0
42
0.000000001
43
0.0000000001
44
0.0000000001
40
0
40
0
40
0
40
1
40
1
40
1
10
-4.9865845383868113
20
-40.545380258702963
30
0
10
-5.4640743674502268
20
-41.00070073618862
30
0
10
-6.1939515711531534
20
-41.00070073618862
30
0
0
SPLINE
5
484
100
AcDbEntity
8
0
100
AcDbSpline
70
0
71
2
72
6
73
3
74
0
42
0.000000001
43
0.0000000001
44
0.0000000001
40
0
40
0
40
0
40
1
40
1
40
1
10
-6.1939515711531534
20
-41.00070073618862
30
0
10
-6.8522053750023737
20
-41.00070073618862
30
0
10
-7.2870620878205195
20
-40.608477139615744
30
0
0
SPLINE
5
485
100
AcDbEntity
8
0
100
AcDbSpline
70
0
71
2
72
6
73
3
74
0
42
0.000000001
43
0.0000000001
44
0.0000000001
40
0
40
0
40
0
40
1
40
1
40
1
10
-7.2870620878205195
20
-40.608477139615744
30
0
10
-7.7219188378915682
20
-40.21625294699642
30
0
10
-7.7833103740379705
20
-39.592105889463156
30
0
0
SPLINE
5
486
100
AcDbEntity
8
0
100
AcDbSpline
70
0
71
2
72
6
73
3
74
0
42
0.000000001
43
0.0000000001
44
0.0000000001
40
0
40
0
40
0
40
1
40
1
40
1
10
-3.9020008386835947
20
-38.446130299710958
30
0
10
-3.9020008386835947
20
-37.55936338915798
30
0
10
-3.719531649516572
20
-37.018776977205007
30
0
0
SPLINE
5
487
100
AcDbEntity
8
0
100
AcDbSpline
70
0
71
2
72
6
73
3
74
0
42
0.000000001
43
0.0000000001
44
0.0000000001
40
0
40
0
40
0
40
1
40
1
40
1
10
-3.719531649516572
20
-37.018776977205007
30
0
10
-3.5370621623263254
20
-36.478190267228811
30
0
10
-3.1772393526301279
20
-36.184875214242666
30
0
0
SPLINE
5
488
100
AcDbEntity
8
0
100
AcDbSpline
70
0
71
2
72
6
73
3
74
0
42
0.000000001
43
0.0000000001
44
0.0000000001
40
0
40
0
40
0
40
1
40
1
40
1
10
-3.1772393526301279
20
-36.184875214242666
30
0
10
-2.8174168409571543
20
-35.891560459279745
30
0
10
-2.2717142643198862
20
-35.891560459279745
30
0
0
SPLINE
5
489
100
AcDbEntity
8
0
100
AcDbSpline
70
0
71
2
72
6
73
3
74
0
42
0.000000001
43
0.0000000001
44
0.0000000001
40
0
40
0
40
0
40
1
40
1
40
1
10
-2.2717142643198862
20
-35.891560459279745
30
0
10
-1.8692583383784189
20
-35.891560459279745
30
0
10
-1.5657115520701304
20
-36.053565287732809
30
0
0
SPLINE
5
490
100
AcDbEntity
8
0
100
AcDbSpline
70
0
71
2
72
6
73
3
74
0
42
0.000000001
43
0.0000000001
44
0.0000000001
40
0
40
0
40
0
40
1
40
1
40
1
10
-1.5657115520701304
20
-36.053565287732809
30
0
10
-1.262164169715394
20
-36.215571010255545
30
0
10
-1.0643470825419321
20
-36.520823383474081
30
0
0
SPLINE
5
491
100
AcDbEntity
8
0
100
AcDbSpline
70
0
71
2
72
6
73
3
74
0
42
0.000000001
43
0.0000000001
44
0.0000000001
40
0
40
0
40
0
40
1
40
1
40
1
10
-1.0643470825419321
20
-36.520823383474081
30
0
10
-0.8665299953684702
20
-36.826075756692617
30
0
10
-0.75397914068554783
20
-37.264343047284811
30
0
0
SPLINE
5
492
100
AcDbEntity
8
0
100
AcDbSpline
70
0
71
2
72
6
73
3
74
0
42
0.000000001
43
0.0000000001
44
0.0000000001
40
0
40
0
40
0
40
1
40
1
40
1
10
-0.75397914068554783
20
-37.264343047284811
30
0
10
-0.64142768995617772
20
-37.702610337877005
30
0
10
-0.64142768995617772
20
-38.446130299710958
30
0
0
SPLINE
5
493
100
AcDbEntity
8
0
100
AcDbSpline
70
0
71
2
72
6
73
3
74
0
42
0.000000001
43
0.0000000001
44
0.0000000001
40
0
40
0
40
0
40
1
40
1
40
1
10
-0.64142768995617772
20
-38.446130299710958
30
0
10
-0.64142768995617772
20
-39.326075756692617
30
0
10
-0.82219188825940037
20
-39.86666216864559
30
0
0
SPLINE
5
494
100
AcDbEntity
8
0
100
AcDbSpline
70
0
71
2
72
6
73
3
74
0
42
0.000000001
43
0.0000000001
44
0.0000000001
40
0
40
0
40
0
40
1
40
1
40
1
10
-0.82219188825940037
20
-39.86666216864559
30
0
10
-1.0029554905161753
20
-40.407248878621786
30
0
10
-1.3627785982355967
20
-40.702269220494955
30
0
0
SPLINE
5
495
100
AcDbEntity
8
0
100
AcDbSpline
70
0
71
2
72
6
73
3
74
0
42
0.000000001
43
0.0000000001
44
0.0000000001
40
0
40
0
40
0
40
1
40
1
40
1
10
-1.3627785982355967
20
-40.702269220494955
30
0
10
-1.7226011099085703
20
-40.997290158414572
30
0
10
-2.2717142643198862
20
-40.997290158414572
30
0
0
SPLINE
5
496
100
AcDbEntity
8
0
100
AcDbSpline
70
0
71
2
72
6
73
3
74
0
42
0.000000001
43
0.0000000001
44
0.0000000001
40
0
40
0
40
0
40
1
40
1
40
1
10
-2.2717142643198862
20
-40.997290158414572
30
0
10
-2.9947704614863291
20
-40.997290158414572
30
0
10
-3.407457822726716
20
-40.478872800016134
30
0
0
SPLINE
5
497
100
AcDbEntity
8
0
100
AcDbSpline
70
0
71
2
72
6
73
3
74
0
42
0.000000001
43
0.0000000001
44
0.0000000001
40
0
40
0
40
0
40
1
40
1
40
1
10
-3.407457822726716
20
-40.478872800016134
30
0
10
-3.9020008386835947
20
-39.854725146436422
30
0
10
-3.9020008386835947
20
-38.446130299710958
30
0
0
SPLINE
5
498
100
AcDbEntity
8
0
100
AcDbSpline
70
0
71
2
72
6
73
3
74
0
42
0.000000001
43
0.0000000001
44
0.0000000001
40
0
40
0
40
0
40
1
40
1
40
1
10
-3.2710320295557871
20
-38.446130299710958
30
0
10
-3.2710320295557871
20
-39.677371525907247
30
0
10
-2.9828328432307138
20
-40.084943318509787
30
0
0
SPLINE
5
499
100
AcDbEntity
8
0
100
AcDbSpline
70
0
71
2
72
6
73
3
74
0
42
0.000000001
43
0.0000000001
44
0.0000000001
40
0
40
0
40
0
40
1
40
1
40
1
10
-2.9828328432307138
20
-40.084943318509787
30
0
10
-2.6946336569056406
20
-40.492515111112326
30
0
10
-2.2717142643198862
20
-40.492515111112326
30
0
0
SPLINE
5
500
100
AcDbEntity
8
0
100
AcDbSpline
70
0
71
2
72
6
73
3
74
0
42
0.000000001
43
0.0000000001
44
0.0000000001
40
0
40
0
40
0
40
1
40
1
40
1
10
-2.2717142643198862
20
-40.492515111112326
30
0
10
-1.8487948717341318
20
-40.492515111112326
30
0
10
-1.5605956854090586
20
-40.083238029622763
30
0
0
SPLINE
5
501
100
AcDbEntity
8
0
100
AcDbSpline
70
0
71
2
72
6
73
3
74
0
42
0.000000001
43
0.0000000001
44
0.0000000001
40
0
40
0
40
0
40
1
40
1
40
1
10
-1.5605956854090586
20
-40.083238029622763
30
0
10
-1.2723964990839853
20
-39.6739609481332
30
0
10
-1.2723964990839853
20
-38.446130299710958
30
0
0
SPLINE
5
502
100
AcDbEntity
8
0
100
AcDbSpline
70
0
71
2
72
6
73
3
74
0
42
0.000000001
43
0.0000000001
44
0.0000000001
40
0
40
0
40
0
40
1
40
1
40
1
10
-1.2723964990839853
20
-38.446130299710958
30
0
10
-1.2723964990839853
20
-37.211478197717398
30
0
10
-1.5605956854090586
20
-36.805611694001882
30
0
0
SPLINE
5
503
100
AcDbEntity
8
0
100
AcDbSpline
70
0
71
2
72
6
73
3
74
0
42
0.000000001
43
0.0000000001
44
0.0000000001
40
0
40
0
40
0
40
1
40
1
40
1
10
-1.5605956854090586
20
-36.805611694001882
30
0
10
-1.8487948717341318
20
-36.399745488309591
30
0
10
-2.2785354198679819
20
-36.399745488309591
30
0
0
SPLINE
5
504
100
AcDbEntity
8
0
100
AcDbSpline
70
0
71
2
72
6
73
3
74
0
42
0.000000001
43
0.0000000001
44
0.0000000001
40
0
40
0
40
0
40
1
40
1
40
1
10
-2.2785354198679819
20
-36.399745488309591
30
0
10
-2.7014548124537363
20
-36.399745488309591
30
0
10
-2.9538423361048594
20
-36.757862711095541
30
0
0
SPLINE
5
505
100
AcDbEntity
8
0
100
AcDbSpline
70
0
71
2
72
6
73
3
74
0
42
0.000000001
43
0.0000000001
44
0.0000000001
40
0
40
0
40
0
40
1
40
1
40
1
10
-2.9538423361048594
20
-36.757862711095541
30
0
10
-3.2710320295557871
20
-37.214888775491445
30
0
10
-3.2710320295557871
20
-38.446130299710958
30
0
0
LINE
5
506
100
AcDbEntity
8
0
100
AcDbLine
10
2.0939069448247061
20
-40.912023925924032
30
0
11
2.0939069448247061
21
-37.289922976636618
31
0
0
LINE
5
507
100
AcDbEntity
8
0
100
AcDbLine
10
2.0939069448247061
20
-37.289922976636618
30
0
11
2.6430206952824697
21
-37.289922976636618
31
0
0
LINE
5
508
100
AcDbEntity
8
0
100
AcDbLine
10
2.6430206952824697
20
-37.289922976636618
30
0
11
2.6430206952824697
21
-37.798108601712912
31
0
0
SPLINE
5
509
100
AcDbEntity
8
0
100
AcDbSpline
70
0
71
2
72
6
73
3
74
0
42
0.000000001
43
0.0000000001
44
0.0000000001
40
0
40
0
40
0
40
1
40
1
40
1
10
2.6430206952824697
20
-37.798108601712912
30
0
10
2.8135519681706533
20
-37.532078468942373
30
0
10
3.0966358838811026
20
-37.370073044442861
30
0
0
SPLINE
5
510
100
AcDbEntity
8
0
100
AcDbSpline
70
0
71
2
72
6
73
3
74
0
42
0.000000001
43
0.0000000001
44
0.0000000001
40
0
40
0
40
0
40
1
40
1
40
1
10
3.0966358838811026
20
-37.370073044442861
30
0
10
3.3797186074986563
20
-37.20806761994335
30
0
10
3.7412470041051016
20
-37.20806761994335
30
0
0
SPLINE
5
511
100
AcDbEntity
8
0
100
AcDbSpline
70
0
71
2
72
6
73
3
74
0
42
0.000000001
43
0.0000000001
44
0.0000000001
40
0
40
0
40
0
40
1
40
1
40
1
10
3.7412470041051016
20
-37.20806761994335
30
0
10
4.1437023340001211
20
-37.20806761994335
30
0
10
4.4012063203587637
20
-37.375188911103933
30
0
0
SPLINE
5
512
100
AcDbEntity
8
0
100
AcDbSpline
70
0
71
2
72
6
73
3
74
0
42
0.000000001
43
0.0000000001
44
0.0000000001
40
0
40
0
40
0
40
1
40
1
40
1
10
4.4012063203587637
20
-37.375188911103933
30
0
10
4.6587091146245108
20
-37.542310500287741
30
0
10
4.7644394098057852
20
-37.842446708821981
30
0
0
SPLINE
5
513
100
AcDbEntity
8
0
100
AcDbSpline
70
0
71
2
72
6
73
3
74
0
42
0.000000001
43
0.0000000001
44
0.0000000001
40
0
40
0
40
0
40
1
40
1
40
1
10
4.7644394098057852
20
-37.842446708821981
30
0
10
5.1941793618931875
20
-37.20806761994335
30
0
10
5.8831291852727041
20
-37.20806761994335
30
0
0
SPLINE
5
514
100
AcDbEntity
8
0
100
AcDbSpline
70
0
71
2
72
6
73
3
74
0
42
0.000000001
43
0.0000000001
44
0.0000000001
40
0
40
0
40
0
40
1
40
1
40
1
10
5.8831291852727041
20
-37.20806761994335
30
0
10
6.4220112024083242
20
-37.20806761994335
30
0
10
6.7119150815739737
20
-37.506498539590567
30
0
0
SPLINE
5
515
100
AcDbEntity
8
0
100
AcDbSpline
70
0
71
2
72
6
73
3
74
0
42
0.000000001
43
0.0000000001
44
0.0000000001
40
0
40
0
40
0
40
1
40
1
40
1
10
6.7119150815739737
20
-37.506498539590567
30
0
10
7.0018189607396231
20
-37.804929757261007
30
0
10
7.0018189607396231
20
-38.425666535043447
30
0
0
LINE
5
516
100
AcDbEntity
8
0
100
AcDbLine
10
7.0018189607396231
20
-38.425666535043447
30
0
11
7.0018189607396231
21
-40.912023925924032
31
0
0
LINE
5
517
100
AcDbEntity
8
0
100
AcDbLine
10
7.0018189607396231
20
-40.912023925924032
30
0
11
6.3913148103489981
21
-40.912023925924032
31
0
0
LINE
5
518
100
AcDbEntity
8
0
100
AcDbLine
10
6.3913148103489981
20
-40.912023925924032
30
0
11
6.3913148103489981
21
-38.630305075788229
31
0
0
SPLINE
5
519
100
AcDbEntity
8
0
100
AcDbSpline
70
0
71
2
72
6
73
3
74
0
42
0.000000001
43
0.0000000001
44
0.0000000001
40
0
40
0
40
0
40
1
40
1
40
1
10
6.3913148103489981
20
-38.630305075788229
30
0
10
6.3913148103489981
20
-38.261955821656912
30
0
10
6.3316291032567129
20
-38.099950099134176
30
0
0
SPLINE
5
520
100
AcDbEntity
8
0
100
AcDbSpline
70
0
71
2
72
6
73
3
74
0
42
0.000000001
43
0.0000000001
44
0.0000000001
40
0
40
0
40
0
40
1
40
1
40
1
10
6.3316291032567129
20
-38.099950099134176
30
0
10
6.2719422040715322
20
-37.937944674634664
30
0
10
6.1150532422795401
20
-37.839036131047934
30
0
0
SPLINE
5
521
100
AcDbEntity
8
0
100
AcDbSpline
70
0
71
2
72
6
73
3
74
0
42
0.000000001
43
0.0000000001
44
0.0000000001
40
0
40
0
40
0
40
1
40
1
40
1
10
6.1150532422795401
20
-37.839036131047934
30
0
10
5.9581630883946524
20
-37.740127587461203
30
0
10
5.746703690124999
20
-37.740127587461203
30
0
0
SPLINE
5
522
100
AcDbEntity
8
0
100
AcDbSpline
70
0
71
2
72
6
73
3
74
0
42
0.000000001
43
0.0000000001
44
0.0000000001
40
0
40
0
40
0
40
1
40
1
40
1
10
5.746703690124999
20
-37.740127587461203
30
0
10
5.3647118268742666
20
-37.740127587461203
30
0
10
5.1123243032231436
20
-37.99422039999935
30
0
0
SPLINE
5
523
100
AcDbEntity
8
0
100
AcDbSpline
70
0
71
2
72
6
73
3
74
0
42
0.000000001
43
0.0000000001
44
0.0000000001
40
0
40
0
40
0
40
1
40
1
40
1
10
5.1123243032231436
20
-37.99422039999935
30
0
10
4.8599367795720205
20
-38.248313212537496
30
0
10
4.8599367795720205
20
-38.807658100270956
30
0
0
LINE
5
524
100
AcDbEntity
8
0
100
AcDbLine
10
4.8599367795720205
20
-38.807658100270956
30
0
11
4.8599367795720205
21
-40.912023925924032
31
0
0
LINE
5
525
100
AcDbEntity
8
0
100
AcDbLine
10
4.8599367795720205
20
-40.912023925924032
30
0
11
4.2460220514073477
21
-40.912023925924032
31
0
0
LINE
5
526
100
AcDbEntity
8
0
100
AcDbLine
10
4.2460220514073477
20
-40.912023925924032
30
0
11
4.2460220514073477
21
-38.558681452417105
31
0
0
SPLINE
5
527
100
AcDbEntity
8
0
100
AcDbSpline
70
0
71
2
72
6
73
3
74
0
42
0.000000001
43
0.0000000001
44
0.0000000001
40
0
40
0
40
0
40
1
40
1
40
1
10
4.2460220514073477
20
-38.558681452417105
30
0
10
4.2460220514073477
20
-38.149404668950766
30
0
10
4.0959530530705557
20
-37.944766128205984
30
0
0
SPLINE
5
528
100
AcDbEntity
8
0
100
AcDbSpline
70
0
71
2
72
6
73
3
74
0
42
0.000000001
43
0.0000000001
44
0.0000000001
40
0
40
0
40
0
40
1
40
1
40
1
10
4.0959530530705557
20
-37.944766128205984
30
0
10
3.9458852468266592
20
-37.740127587461203
30
0
10
3.6048215089573965
20
-37.740127587461203
30
0
0
SPLINE
5
529
100
AcDbEntity
8
0
100
AcDbSpline
70
0
71
2
72
6
73
3
74
0
42
0.000000001
43
0.0000000001
44
0.0000000001
40
0
40
0
40
0
40
1
40
1
40
1
10
3.6048215089573965
20
-37.740127587461203
30
0
10
3.3456128297581778
20
-37.740127587461203
30
0
10
3.125626391006957
20
-37.876553380632132
30
0
0
SPLINE
5
530
100
AcDbEntity
8
0
100
AcDbSpline
70
0
71
2
72
6
73
3
74
0
42
0.000000001
43
0.0000000001
44
0.0000000001
40
0
40
0
40
0
40
1
40
1
40
1
10
3.125626391006957
20
-37.876553380632132
30
0
10
2.9056399522557363
20
-38.012978875779837
30
0
10
2.8067308126225576
20
-38.275598132753103
30
0
0
SPLINE
5
531
100
AcDbEntity
8
0
100
AcDbSpline
70
0
71
2
72
6
73
3
74
0
42
0.000000001
43
0.0000000001
44
0.0000000001
40
0
40
0
40
0
40
1
40
1
40
1
10
2.8067308126225576
20
-38.275598132753103
30
0
10
2.7078228650822744
20
-38.538217687749594
30
0
10
2.7078228650822744
20
-39.032760405683248
30
0
0
LINE
5
532
100
AcDbEntity
8
0
100
AcDbLine
10
2.7078228650822744
20
-39.032760405683241
30
0
11
2.7078228650822744
21
-40.912023925924032
31
0
0
LINE
5
533
100
AcDbEntity
8
0
100
AcDbLine
10
2.7078228650822744
20
-40.912023925924032
30
0
11
2.0939069448247061
21
-40.912023925924032
31
0
0
LINE
5
534
100
AcDbEntity
8
0
100
AcDbLine
10
26.058435747607007
20
-40.912023925924032
30
0
11
25.444520423395886
21
-40.912023925924032
31
0
0
LINE
5
535
100
AcDbEntity
8
0
100
AcDbLine
10
25.444520423395886
20
-40.912023925924032
30
0
11
25.444520423395886
21
-37.00001850142452
31
0
0
SPLINE
5
536
100
AcDbEntity
8
0
100
AcDbSpline
70
0
71
2
72
6
73
3
74
0
42
0.000000001
43
0.0000000001
44
0.0000000001
40
0
40
0
40
0
40
1
40
1
40
1
10
25.444520423395886
20
-37.00001850142452
30
0
10
25.222828695757642
20
-37.211478197717398
30
0
10
24.863006184084668
20
-37.422937894010275
30
0
0
SPLINE
5
537
100
AcDbEntity
8
0
100
AcDbSpline
70
0
71
2
72
6
73
3
74
0
42
0.000000001
43
0.0000000001
44
0.0000000001
40
0
40
0
40
0
40
1
40
1
40
1
10
24.863006184084668
20
-37.422937894010275
30
0
10
24.503183523400082
20
-37.634397590303152
30
0
10
24.216689625962033
20
-37.740127587461203
30
0
0
LINE
5
538
100
AcDbEntity
8
0
100
AcDbLine
10
24.216689625962033
20
-37.740127587461203
30
0
11
24.216689625962033
21
-37.146676027917593
31
0
0
SPLINE
5
539
100
AcDbEntity
8
0
100
AcDbSpline
70
0
71
2
72
6
73
3
74
0
42
0.000000001
43
0.0000000001
44
0.0000000001
40
0
40
0
40
0
40
1
40
1
40
1
10
24.216689625962033
20
-37.146676027917593
30
0
10
24.731696406586423
20
-36.904520535611837
30
0
10
25.117098996622815
20
-36.560045623922079
30
0
0
SPLINE
5
540
100
AcDbEntity
8
0
100
AcDbSpline
70
0
71
2
72
6
73
3
74
0
42
0.000000001
43
0.0000000001
44
0.0000000001
40
0
40
0
40
0
40
1
40
1
40
1
10
25.117098996622815
20
-36.560045623922079
30
0
10
25.502501437647595
20
-36.215571010255545
30
0
10
25.662801573260083
20
-35.891559863233297
30
0
0
LINE
5
541
100
AcDbEntity
8
0
100
AcDbLine
10
25.662801573260086
20
-35.891559863233297
30
0
11
26.058435747607007
21
-35.891559863233297
31
0
0
LINE
5
542
100
AcDbEntity
8
0
100
AcDbLine
10
26.058435747607007
20
-35.891559863233297
30
0
11
26.058435747607007
21
-40.912023925924032
31
0
0
SPLINE
5
543
100
AcDbEntity
8
0
100
AcDbSpline
70
0
71
2
72
6
73
3
74
0
42
0.000000001
43
0.0000000001
44
0.0000000001
40
0
40
0
40
0
40
1
40
1
40
1
10
27.630741307719006
20
-38.446130299710958
30
0
10
27.630741307719006
20
-37.55936338915798
30
0
10
27.813210496886029
20
-37.018776977205007
30
0
0
SPLINE
5
544
100
AcDbEntity
8
0
100
AcDbSpline
70
0
71
2
72
6
73
3
74
0
42
0.000000001
43
0.0000000001
44
0.0000000001
40
0
40
0
40
0
40
1
40
1
40
1
10
27.813210496886029
20
-37.018776977205007
30
0
10
27.995679984076276
20
-36.478190267228811
30
0
10
28.355502793772473
20
-36.184875214242666
30
0
0
SPLINE
5
545
100
AcDbEntity
8
0
100
AcDbSpline
70
0
71
2
72
6
73
3
74
0
42
0.000000001
43
0.0000000001
44
0.0000000001
40
0
40
0
40
0
40
1
40
1
40
1
10
28.355502793772473
20
-36.184875214242666
30
0
10
28.715325305445447
20
-35.891560459279745
30
0
10
29.261027882082715
20
-35.891560459279745
30
0
0
SPLINE
5
546
100
AcDbEntity
8
0
100
AcDbSpline
70
0
71
2
72
6
73
3
74
0
42
0.000000001
43
0.0000000001
44
0.0000000001
40
0
40
0
40
0
40
1
40
1
40
1
10
29.261027882082715
20
-35.891560459279745
30
0
10
29.663483808024182
20
-35.891560459279745
30
0
10
29.967030594332471
20
-36.053565287732809
30
0
0
SPLINE
5
547
100
AcDbEntity
8
0
100
AcDbSpline
70
0
71
2
72
6
73
3
74
0
42
0.000000001
43
0.0000000001
44
0.0000000001
40
0
40
0
40
0
40
1
40
1
40
1
10
29.967030594332471
20
-36.053565287732809
30
0
10
30.270577976687207
20
-36.215571010255545
30
0
10
30.468395063860669
20
-36.520823383474081
30
0
0
SPLINE
5
548
100
AcDbEntity
8
0
100
AcDbSpline
70
0
71
2
72
6
73
3
74
0
42
0.000000001
43
0.0000000001
44
0.0000000001
40
0
40
0
40
0
40
1
40
1
40
1
10
30.468395063860669
20
-36.520823383474081
30
0
10
30.666212151034131
20
-36.826075756692617
30
0
10
30.778763005717053
20
-37.264343047284811
30
0
0
SPLINE
5
549
100
AcDbEntity
8
0
100
AcDbSpline
70
0
71
2
72
6
73
3
74
0
42
0.000000001
43
0.0000000001
44
0.0000000001
40
0
40
0
40
0
40
1
40
1
40
1
10
30.778763005717053
20
-37.264343047284811
30
0
10
30.891314456446423
20
-37.702610337877005
30
0
10
30.891314456446423
20
-38.446130299710958
30
0
0
SPLINE
5
550
100
AcDbEntity
8
0
100
AcDbSpline
70
0
71
2
72
6
73
3
74
0
42
0.000000001
43
0.0000000001
44
0.0000000001
40
0
40
0
40
0
40
1
40
1
40
1
10
30.891314456446423
20
-38.446130299710958
30
0
10
30.891314456446423
20
-39.326075756692617
30
0
10
30.710550258143201
20
-39.86666216864559
30
0
0
SPLINE
5
551
100
AcDbEntity
8
0
100
AcDbSpline
70
0
71
2
72
6
73
3
74
0
42
0.000000001
43
0.0000000001
44
0.0000000001
40
0
40
0
40
0
40
1
40
1
40
1
10
30.710550258143201
20
-39.86666216864559
30
0
10
30.529786655886426
20
-40.407248878621786
30
0
10
30.169963548167004
20
-40.702269220494955
30
0
0
SPLINE
5
552
100
AcDbEntity
8
0
100
AcDbSpline
70
0
71
2
72
6
73
3
74
0
42
0.000000001
43
0.0000000001
44
0.0000000001
40
0
40
0
40
0
40
1
40
1
40
1
10
30.169963548167004
20
-40.702269220494955
30
0
10
29.810141036494031
20
-40.997290158414572
30
0
10
29.261027882082715
20
-40.997290158414572
30
0
0
SPLINE
5
553
100
AcDbEntity
8
0
100
AcDbSpline
70
0
71
2
72
6
73
3
74
0
42
0.000000001
43
0.0000000001
44
0.0000000001
40
0
40
0
40
0
40
1
40
1
40
1
10
29.261027882082715
20
-40.997290158414572
30
0
10
28.537971684916272
20
-40.997290158414572
30
0
10
28.125284323675885
20
-40.478872800016134
30
0
0
SPLINE
5
554
100
AcDbEntity
8
0
100
AcDbSpline
70
0
71
2
72
6
73
3
74
0
42
0.000000001
43
0.0000000001
44
0.0000000001
40
0
40
0
40
0
40
1
40
1
40
1
10
28.125284323675885
20
-40.478872800016134
30
0
10
27.630741307719006
20
-39.854725146436422
30
0
10
27.630741307719006
20
-38.446130299710958
30
0
0
SPLINE
5
555
100
AcDbEntity
8
0
100
AcDbSpline
70
0
71
2
72
6
73
3
74
0
42
0.000000001
43
0.0000000001
44
0.0000000001
40
0
40
0
40
0
40
1
40
1
40
1
10
28.261710116846814
20
-38.446130299710958
30
0
10
28.261710116846814
20
-39.677371525907247
30
0
10
28.549909303171887
20
-40.084943318509787
30
0
0
SPLINE
5
556
100
AcDbEntity
8
0
100
AcDbSpline
70
0
71
2
72
6
73
3
74
0
42
0.000000001
43
0.0000000001
44
0.0000000001
40
0
40
0
40
0
40
1
40
1
40
1
10
28.549909303171887
20
-40.084943318509787
30
0
10
28.83810848949696
20
-40.492515111112326
30
0
10
29.261027882082715
20
-40.492515111112326
30
0
0
SPLINE
5
557
100
AcDbEntity
8
0
100
AcDbSpline
70
0
71
2
72
6
73
3
74
0
42
0.000000001
43
0.0000000001
44
0.0000000001
40
0
40
0
40
0
40
1
40
1
40
1
10
29.261027882082715
20
-40.492515111112326
30
0
10
29.683947274668469
20
-40.492515111112326
30
0
10
29.972146460993542
20
-40.083238029622763
30
0
0
SPLINE
5
558
100
AcDbEntity
8
0
100
AcDbSpline
70
0
71
2
72
6
73
3
74
0
42
0.000000001
43
0.0000000001
44
0.0000000001
40
0
40
0
40
0
40
1
40
1
40
1
10
29.972146460993542
20
-40.083238029622763
30
0
10
30.260345647318616
20
-39.6739609481332
30
0
10
30.260345647318616
20
-38.446130299710958
30
0
0
SPLINE
5
559
100
AcDbEntity
8
0
100
AcDbSpline
70
0
71
2
72
6
73
3
74
0
42
0.000000001
43
0.0000000001
44
0.0000000001
40
0
40
0
40
0
40
1
40
1
40
1
10
30.260345647318616
20
-38.446130299710958
30
0
10
30.260345647318616
20
-37.211478197717398
30
0
10
29.972146460993542
20
-36.805611694001882
30
0
0
SPLINE
5
560
100
AcDbEntity
8
0
100
AcDbSpline
70
0
71
2
72
6
73
3
74
0
42
0.000000001
43
0.0000000001
44
0.0000000001
40
0
40
0
40
0
40
1
40
1
40
1
10
29.972146460993542
20
-36.805611694001882
30
0
10
29.683947274668469
20
-36.399745488309591
30
0
10
29.254206726534619
20
-36.399745488309591
30
0
0
SPLINE
5
561
100
AcDbEntity
8
0
100
AcDbSpline
70
0
71
2
72
6
73
3
74
0
42
0.000000001
43
0.0000000001
44
0.0000000001
40
0
40
0
40
0
40
1
40
1
40
1
10
29.254206726534619
20
-36.399745488309591
30
0
10
28.831287333948865
20
-36.399745488309591
30
0
10
28.578899810297742
20
-36.757862711095541
30
0
0
SPLINE
5
562
100
AcDbEntity
8
0
100
AcDbSpline
70
0
71
2
72
6
73
3
74
0
42
0.000000001
43
0.0000000001
44
0.0000000001
40
0
40
0
40
0
40
1
40
1
40
1
10
28.578899810297742
20
-36.757862711095541
30
0
10
28.261710116846814
20
-37.214888775491445
30
0
10
28.261710116846814
20
-38.446130299710958
30
0
0
LINE
5
563
100
AcDbEntity
8
0
100
AcDbLine
10
33.626649091227307
20
-40.912023925924032
30
0
11
33.626649091227307
21
-37.289922976636618
31
0
0
LINE
5
564
100
AcDbEntity
8
0
100
AcDbLine
10
33.626649091227307
20
-37.289922976636618
30
0
11
34.175762841685071
21
-37.289922976636618
31
0
0
LINE
5
565
100
AcDbEntity
8
0
100
AcDbLine
10
34.175762841685071
20
-37.289922976636618
30
0
11
34.175762841685071
21
-37.798108601712912
31
0
0
SPLINE
5
566
100
AcDbEntity
8
0
100
AcDbSpline
70
0
71
2
72
6
73
3
74
0
42
0.000000001
43
0.0000000001
44
0.0000000001
40
0
40
0
40
0
40
1
40
1
40
1
10
34.175762841685071
20
-37.798108601712912
30
0
10
34.346294114573254
20
-37.532078468942373
30
0
10
34.629378030283704
20
-37.370073044442861
30
0
0
SPLINE
5
567
100
AcDbEntity
8
0
100
AcDbSpline
70
0
71
2
72
6
73
3
74
0
42
0.000000001
43
0.0000000001
44
0.0000000001
40
0
40
0
40
0
40
1
40
1
40
1
10
34.629378030283704
20
-37.370073044442861
30
0
10
34.912460753901257
20
-37.20806761994335
30
0
10
35.273989150507703
20
-37.20806761994335
30
0
0
SPLINE
5
568
100
AcDbEntity
8
0
100
AcDbSpline
70
0
71
2
72
6
73
3
74
0
42
0.000000001
43
0.0000000001
44
0.0000000001
40
0
40
0
40
0
40
1
40
1
40
1
10
35.273989150507703
20
-37.20806761994335
30
0
10
35.676444480402722
20
-37.20806761994335
30
0
10
35.933948466761365
20
-37.375188911103933
30
0
0
SPLINE
5
569
100
AcDbEntity
8
0
100
AcDbSpline
70
0
71
2
72
6
73
3
74
0
42
0.000000001
43
0.0000000001
44
0.0000000001
40
0
40
0
40
0
40
1
40
1
40
1
10
35.933948466761365
20
-37.375188911103933
30
0
10
36.191451261027112
20
-37.542310500287741
30
0
10
36.297181556208386
20
-37.842446708821981
30
0
0
SPLINE
5
570
100
AcDbEntity
8
0
100
AcDbSpline
70
0
71
2
72
6
73
3
74
0
42
0.000000001
43
0.0000000001
44
0.0000000001
40
0
40
0
40
0
40
1
40
1
40
1
10
36.297181556208386
20
-37.842446708821981
30
0
10
36.726921508295788
20
-37.20806761994335
30
0
10
37.415871331675305
20
-37.20806761994335
30
0
0
SPLINE
5
571
100
AcDbEntity
8
0
100
AcDbSpline
70
0
71
2
72
6
73
3
74
0
42
0.000000001
43
0.0000000001
44
0.0000000001
40
0
40
0
40
0
40
1
40
1
40
1
10
37.415871331675305
20
-37.20806761994335
30
0
10
37.954753348810925
20
-37.20806761994335
30
0
10
38.244657227976575
20
-37.506498539590567
30
0
0
SPLINE
5
572
100
AcDbEntity
8
0
100
AcDbSpline
70
0
71
2
72
6
73
3
74
0
42
0.000000001
43
0.0000000001
44
0.0000000001
40
0
40
0
40
0
40
1
40
1
40
1
10
38.244657227976575
20
-37.506498539590567
30
0
10
38.534561107142224
20
-37.804929757261007
30
0
10
38.534561107142224
20
-38.425666535043447
30
0
0
LINE
5
573
100
AcDbEntity
8
0
100
AcDbLine
10
38.534561107142224
20
-38.425666535043447
30
0
11
38.534561107142224
21
-40.912023925924032
31
0
0
LINE
5
574
100
AcDbEntity
8
0
100
AcDbLine
10
38.534561107142224
20
-40.912023925924032
30
0
11
37.924056956751599
21
-40.912023925924032
31
0
0
LINE
5
575
100
AcDbEntity
8
0
100
AcDbLine
10
37.924056956751599
20
-40.912023925924032
30
0
11
37.924056956751599
21
-38.630305075788229
31
0
0
SPLINE
5
576
100
AcDbEntity
8
0
100
AcDbSpline
70
0
71
2
72
6
73
3
74
0
42
0.000000001
43
0.0000000001
44
0.0000000001
40
0
40
0
40
0
40
1
40
1
40
1
10
37.924056956751599
20
-38.630305075788229
30
0
10
37.924056956751599
20
-38.261955821656912
30
0
10
37.864371249659314
20
-38.099950099134176
30
0
0
SPLINE
5
577
100
AcDbEntity
8
0
100
AcDbSpline
70
0
71
2
72
6
73
3
74
0
42
0.000000001
43
0.0000000001
44
0.0000000001
40
0
40
0
40
0
40
1
40
1
40
1
10
37.864371249659314
20
-38.099950099134176
30
0
10
37.804684350474133
20
-37.937944674634664
30
0
10
37.647795388682141
20
-37.839036131047934
30
0
0
SPLINE
5
578
100
AcDbEntity
8
0
100
AcDbSpline
70
0
71
2
72
6
73
3
74
0
42
0.000000001
43
0.0000000001
44
0.0000000001
40
0
40
0
40
0
40
1
40
1
40
1
10
37.647795388682141
20
-37.839036131047934
30
0
10
37.490905234797253
20
-37.740127587461203
30
0
10
37.2794458365276
20
-37.740127587461203
30
0
0
SPLINE
5
579
100
AcDbEntity
8
0
100
AcDbSpline
70
0
71
2
72
6
73
3
74
0
42
0.000000001
43
0.0000000001
44
0.0000000001
40
0
40
0
40
0
40
1
40
1
40
1
10
37.2794458365276
20
-37.740127587461203
30
0
10
36.897453973276868
20
-37.740127587461203
30
0
10
36.645066449625745
20
-37.99422039999935
30
0
0
SPLINE
5
580
100
AcDbEntity
8
0
100
AcDbSpline
70
0
71
2
72
6
73
3
74
0
42
0.000000001
43
0.0000000001
44
0.0000000001
40
0
40
0
40
0
40
1
40
1
40
1
10
36.645066449625745
20
-37.99422039999935
30
0
10
36.392678925974622
20
-38.248313212537496
30
0
10
36.392678925974622
20
-38.807658100270956
30
0
0
LINE
5
581
100
AcDbEntity
8
0
100
AcDbLine
10
36.392678925974622
20
-38.807658100270956
30
0
11
36.392678925974622
21
-40.912023925924032
31
0
0
LINE
5
582
100
AcDbEntity
8
0
100
AcDbLine
10
36.392678925974622
20
-40.912023925924032
30
0
11
35.778764197809949
21
-40.912023925924032
31
0
0
LINE
5
583
100
AcDbEntity
8
0
100
AcDbLine
10
35.778764197809949
20
-40.912023925924032
30
0
11
35.778764197809949
21
-38.558681452417105
31
0
0
SPLINE
5
584
100
AcDbEntity
8
0
100
AcDbSpline
70
0
71
2
72
6
73
3
74
0
42
0.000000001
43
0.0000000001
44
0.0000000001
40
0
40
0
40
0
40
1
40
1
40
1
10
35.778764197809949
20
-38.558681452417105
30
0
10
35.778764197809949
20
-38.149404668950766
30
0
10
35.628695199473157
20
-37.944766128205984
30
0
0
SPLINE
5
585
100
AcDbEntity
8
0
100
AcDbSpline
70
0
71
2
72
6
73
3
74
0
42
0.000000001
43
0.0000000001
44
0.0000000001
40
0
40
0
40
0
40
1
40
1
40
1
10
35.628695199473157
20
-37.944766128205984
30
0
10
35.47862739322926
20
-37.740127587461203
30
0
10
35.137563655359997
20
-37.740127587461203
30
0
0
SPLINE
5
586
100
AcDbEntity
8
0
100
AcDbSpline
70
0
71
2
72
6
73
3
74
0
42
0.000000001
43
0.0000000001
44
0.0000000001
40
0
40
0
40
0
40
1
40
1
40
1
10
35.137563655359997
20
-37.740127587461203
30
0
10
34.878354976160779
20
-37.740127587461203
30
0
10
34.658368537409558
20
-37.876553380632132
30
0
0
SPLINE
5
587
100
AcDbEntity
8
0
100
AcDbSpline
70
0
71
2
72
6
73
3
74
0
42
0.000000001
43
0.0000000001
44
0.0000000001
40
0
40
0
40
0
40
1
40
1
40
1
10
34.658368537409558
20
-37.876553380632132
30
0
10
34.438382098658337
20
-38.012978875779837
30
0
10
34.339472959025159
20
-38.275598132753103
30
0
0
SPLINE
5
588
100
AcDbEntity
8
0
100
AcDbSpline
70
0
71
2
72
6
73
3
74
0
42
0.000000001
43
0.0000000001
44
0.0000000001
40
0
40
0
40
0
40
1
40
1
40
1
10
34.339472959025159
20
-38.275598132753103
30
0
10
34.240565011484875
20
-38.538217687749594
30
0
10
34.240565011484875
20
-39.032760405683248
30
0
0
LINE
5
589
100
AcDbEntity
8
0
100
AcDbLine
10
34.240565011484875
20
-39.032760405683241
30
0
11
34.240565011484875
21
-40.912023925924032
31
0
0
LINE
5
590
100
AcDbEntity
8
0
100
AcDbLine
10
34.240565011484875
20
-40.912023925924032
30
0
11
33.626649091227307
21
-40.912023925924032
31
0
0
LINE
5
591
100
AcDbEntity
8
0
100
AcDbLine
10
-37.570486319975615
20
-64.136443996572226
30
0
11
-38.180991364435911
21
-64.184192979478567
31
0
0
SPLINE
5
592
100
AcDbEntity
8
0
100
AcDbSpline
70
0
71
2
72
6
73
3
74
0
42
0.000000001
43
0.0000000001
44
0.0000000001
40
0
40
0
40
0
40
1
40
1
40
1
10
-38.180991364435911
20
-64.184192979478567
30
0
10
-38.262846721129179
20
-63.822664880895346
30
0
10
-38.4129148253963
20
-63.65895416750881
30
0
0
SPLINE
5
593
100
AcDbEntity
8
0
100
AcDbSpline
70
0
71
2
72
6
73
3
74
0
42
0.000000001
43
0.0000000001
44
0.0000000001
40
0
40
0
40
0
40
1
40
1
40
1
10
-38.4129148253963
20
-63.65895416750881
30
0
10
-38.661891473250151
20
-63.396334910535543
30
0
10
-39.02683014960742
20
-63.396334910535543
30
0
0
SPLINE
5
594
100
AcDbEntity
8
0
100
AcDbSpline
70
0
71
2
72
6
73
3
74
0
42
0.000000001
43
0.0000000001
44
0.0000000001
40
0
40
0
40
0
40
1
40
1
40
1
10
-39.02683014960742
20
-63.396334910535543
30
0
10
-39.320145202593565
20
-63.396334910535543
30
0
10
-39.54183693023181
20
-63.560045623922079
30
0
0
SPLINE
5
595
100
AcDbEntity
8
0
100
AcDbSpline
70
0
71
2
72
6
73
3
74
0
42
0.000000001
43
0.0000000001
44
0.0000000001
40
0
40
0
40
0
40
1
40
1
40
1
10
-39.54183693023181
20
-63.560045623922079
30
0
10
-39.831741405443907
20
-63.771505320214956
30
0
10
-39.998862845616102
20
-64.177371823930471
30
0
0
SPLINE
5
596
100
AcDbEntity
8
0
100
AcDbSpline
70
0
71
2
72
6
73
3
74
0
42
0.000000001
43
0.0000000001
44
0.0000000001
40
0
40
0
40
0
40
1
40
1
40
1
10
-39.998862845616102
20
-64.177371823930471
30
0
10
-40.165984285788298
20
-64.583238029622763
30
0
10
-40.172805590348005
20
-65.333579147004812
30
0
0
SPLINE
5
597
100
AcDbEntity
8
0
100
AcDbSpline
70
0
71
2
72
6
73
3
74
0
42
0.000000001
43
0.0000000001
44
0.0000000001
40
0
40
0
40
0
40
1
40
1
40
1
10
-40.172805590348005
20
-65.333579147004812
30
0
10
-39.951113862709761
20
-64.995925688886373
30
0
10
-39.630513591484785
20
-64.832214677476614
30
0
0
SPLINE
5
598
100
AcDbEntity
8
0
100
AcDbSpline
70
0
71
2
72
6
73
3
74
0
42
0.000000001
43
0.0000000001
44
0.0000000001
40
0
40
0
40
0
40
1
40
1
40
1
10
-39.630513591484785
20
-64.832214677476614
30
0
10
-39.30991332025981
20
-64.668503964090078
30
0
10
-38.958617253021956
20
-64.668503964090078
30
0
0
SPLINE
5
599
100
AcDbEntity
8
0
100
AcDbSpline
70
0
71
2
72
6
73
3
74
0
42
0.000000001
43
0.0000000001
44
0.0000000001
40
0
40
0
40
0
40
1
40
1
40
1
10
-38.958617253021956
20
-64.668503964090078
30
0
10
-38.344702077822447
20
-64.668503964090078
30
0
10
-37.913255942778349
20
-65.120413863801687
30
0
0
SPLINE
5
600
100
AcDbEntity
8
0
100
AcDbSpline
70
0
71
2
72
6
73
3
74
0
42
0.000000001
43
0.0000000001
44
0.0000000001
40
0
40
0
40
0
40
1
40
1
40
1
10
-37.913255942778349
20
-65.120413863801687
30
0
10
-37.481809807734251
20
-65.57232406153652
30
0
10
-37.481809807734251
20
-66.288558805131643
30
0
0
SPLINE
5
601
100
AcDbEntity
8
0
100
AcDbSpline
70
0
71
2
72
6
73
3
74
0
42
0.000000001
43
0.0000000001
44
0.0000000001
40
0
40
0
40
0
40
1
40
1
40
1
10
-37.481809807734251
20
-66.288558805131643
30
0
10
-37.481809807734251
20
-66.759227180623739
30
0
10
-37.684743059592009
20
-67.16338839545223
30
0
0
SPLINE
5
602
100
AcDbEntity
8
0
100
AcDbSpline
70
0
71
2
72
6
73
3
74
0
42
0.000000001
43
0.0000000001
44
0.0000000001
40
0
40
0
40
0
40
1
40
1
40
1
10
-37.684743059592009
20
-67.16338839545223
30
0
10
-37.887676013426542
20
-67.567549014234274
30
0
10
-38.242382658438444
20
-67.782419586324423
30
0
0
SPLINE
5
603
100
AcDbEntity
8
0
100
AcDbSpline
70
0
71
2
72
6
73
3
74
0
42
0.000000001
43
0.0000000001
44
0.0000000001
40
0
40
0
40
0
40
1
40
1
40
1
10
-38.242382658438444
20
-67.782419586324423
30
0
10
-38.597089303450346
20
-67.997290158414572
30
0
10
-39.047293914274931
20
-67.997290158414572
30
0
0
SPLINE
5
604
100
AcDbEntity
8
0
100
AcDbSpline
70
0
71
2
72
6
73
3
74
0
42
0.000000001
43
0.0000000001
44
0.0000000001
40
0
40
0
40
0
40
1
40
1
40
1
10
-39.047293914274931
20
-67.997290158414572
30
0
10
-39.814688218550444
20
-67.997290158414572
30
0
10
-40.298999352173567
20
-67.432828807973593
30
0
0
SPLINE
5
605
100
AcDbEntity
8
0
100
AcDbSpline
70
0
71
2
72
6
73
3
74
0
42
0.000000001
43
0.0000000001
44
0.0000000001
40
0
40
0
40
0
40
1
40
1
40
1
10
-40.298999352173567
20
-67.432828807973593
30
0
10
-40.783310374037981
20
-66.868367457532614
30
0
10
-40.783310374037981
20
-65.57232406153652
30
0
0
SPLINE
5
606
100
AcDbEntity
8
0
100
AcDbSpline
70
0
71
2
72
6
73
3
74
0
42
0.000000001
43
0.0000000001
44
0.0000000001
40
0
40
0
40
0
40
1
40
1
40
1
10
-40.783310374037981
20
-65.57232406153652
30
0
10
-40.783310374037981
20
-64.12280138745281
30
0
10
-40.247839716987372
20
-63.464547658109396
30
0
0
SPLINE
5
607
100
AcDbEntity
8
0
100
AcDbSpline
70
0
71
2
72
6
73
3
74
0
42
0.000000001
43
0.0000000001
44
0.0000000001
40
0
40
0
40
0
40
1
40
1
40
1
10
-40.247839716987372
20
-63.464547658109396
30
0
10
-39.780581844763518
20
-62.891560459279745
30
0
10
-38.989313049034834
20
-62.891560459279745
30
0
0
SPLINE
5
608
100
AcDbEntity
8
0
100
AcDbSpline
70
0
71
2
72
6
73
3
74
0
42
0.000000001
43
0.0000000001
44
0.0000000001
40
0
40
0
40
0
40
1
40
1
40
1
10
-38.989313049034834
20
-62.891560459279745
30
0
10
-38.399272216276884
20
-62.891560459279745
30
0
10
-38.022396517710447
20
-63.22239216580364
30
0
0
SPLINE
5
609
100
AcDbEntity
8
0
100
AcDbSpline
70
0
71
2
72
6
73
3
74
0
42
0.000000001
43
0.0000000001
44
0.0000000001
40
0
40
0
40
0
40
1
40
1
40
1
10
-38.022396517710447
20
-63.22239216580364
30
0
10
-37.645520521120787
20
-63.553224468373983
30
0
10
-37.570486319975615
20
-64.136443996572226
30
0
0
SPLINE
5
610
100
AcDbEntity
8
0
100
AcDbSpline
70
0
71
2
72
6
73
3
74
0
42
0.000000001
43
0.0000000001
44
0.0000000001
40
0
40
0
40
0
40
1
40
1
40
1
10
-40.077307624535322
20
-66.291969382905691
30
0
10
-40.077307624535322
20
-66.609158778333395
30
0
10
-39.942587269263029
20
-66.899063253545492
30
0
0
SPLINE
5
611
100
AcDbEntity
8
0
100
AcDbSpline
70
0
71
2
72
6
73
3
74
0
42
0.000000001
43
0.0000000001
44
0.0000000001
40
0
40
0
40
0
40
1
40
1
40
1
10
-39.942587269263029
20
-66.899063253545492
30
0
10
-39.807866913990736
20
-67.188967728757589
30
0
10
-39.565711421684981
20
-67.340741419934957
30
0
0
SPLINE
5
612
100
AcDbEntity
8
0
100
AcDbSpline
70
0
71
2
72
6
73
3
74
0
42
0.000000001
43
0.0000000001
44
0.0000000001
40
0
40
0
40
0
40
1
40
1
40
1
10
-39.565711421684981
20
-67.340741419934957
30
0
10
-39.323555929379225
20
-67.492515111112326
30
0
10
-39.057525945620299
20
-67.492515111112326
30
0
0
SPLINE
5
613
100
AcDbEntity
8
0
100
AcDbSpline
70
0
71
2
72
6
73
3
74
0
42
0.000000001
43
0.0000000001
44
0.0000000001
40
0
40
0
40
0
40
1
40
1
40
1
10
-39.057525945620299
20
-67.492515111112326
30
0
10
-38.668712777809858
20
-67.492515111112326
30
0
10
-38.389040184931517
20
-67.178735995435446
30
0
0
SPLINE
5
614
100
AcDbEntity
8
0
100
AcDbSpline
70
0
71
2
72
6
73
3
74
0
42
0.000000001
43
0.0000000001
44
0.0000000001
40
0
40
0
40
0
40
1
40
1
40
1
10
-38.389040184931517
20
-67.178735995435446
30
0
10
-38.109367741064787
20
-66.864956879758566
30
0
10
-38.109367741064787
20
-66.326075756692617
30
0
0
SPLINE
5
615
100
AcDbEntity
8
0
100
AcDbSpline
70
0
71
2
72
6
73
3
74
0
42
0.000000001
43
0.0000000001
44
0.0000000001
40
0
40
0
40
0
40
1
40
1
40
1
10
-38.109367741064787
20
-66.326075756692617
30
0
10
-38.109367741064787
20
-65.80765839829418
30
0
10
-38.385629607157469
20
-65.509227180623739
30
0
0
SPLINE
5
616
100
AcDbEntity
8
0
100
AcDbSpline
70
0
71
2
72
6
73
3
74
0
42
0.000000001
43
0.0000000001
44
0.0000000001
40
0
40
0
40
0
40
1
40
1
40
1
10
-38.385629607157469
20
-65.509227180623739
30
0
10
-38.661891473250151
20
-65.210795962953298
30
0
10
-39.081400437073469
20
-65.210795962953298
30
0
0
SPLINE
5
617
100
AcDbEntity
8
0
100
AcDbSpline
70
0
71
2
72
6
73
3
74
0
42
0.000000001
43
0.0000000001
44
0.0000000001
40
0
40
0
40
0
40
1
40
1
40
1
10
-39.081400437073469
20
-65.210795962953298
30
0
10
-39.497498525099516
20
-65.210795962953298
30
0
10
-39.787403149323225
20
-65.509227180623739
30
0
0
SPLINE
5
618
100
AcDbEntity
8
0
100
AcDbSpline
70
0
71
2
72
6
73
3
74
0
42
0.000000001
43
0.0000000001
44
0.0000000001
40
0
40
0
40
0
40
1
40
1
40
1
10
-39.787403149323225
20
-65.509227180623739
30
0
10
-40.077307624535322
20
-65.80765839829418
30
0
10
-40.077307624535322
20
-66.291969382905691
30
0
0
LINE
5
619
100
AcDbEntity
8
0
100
AcDbLine
10
-34.760118080096007
20
-67.912023925924032
30
0
11
-34.760118080096007
21
-64.289922976636618
31
0
0
LINE
5
620
100
AcDbEntity
8
0
100
AcDbLine
10
-34.760118080096007
20
-64.289922976636618
30
0
11
-34.211004925684691
21
-64.289922976636618
31
0
0
LINE
5
621
100
AcDbEntity
8
0
100
AcDbLine
10
-34.211004925684691
20
-64.289922976636618
30
0
11
-34.211004925684691
21
-64.798108601712912
31
0
0
SPLINE
5
622
100
AcDbEntity
8
0
100
AcDbSpline
70
0
71
2
72
6
73
3
74
0
42
0.000000001
43
0.0000000001
44
0.0000000001
40
0
40
0
40
0
40
1
40
1
40
1
10
-34.211004925684691
20
-64.798108601712912
30
0
10
-34.040473056750059
20
-64.532078468942373
30
0
10
-33.757389737086058
20
-64.370073044442861
30
0
0
SPLINE
5
623
100
AcDbEntity
8
0
100
AcDbSpline
70
0
71
2
72
6
73
3
74
0
42
0.000000001
43
0.0000000001
44
0.0000000001
40
0
40
0
40
0
40
1
40
1
40
1
10
-33.757389737086058
20
-64.370073044442861
30
0
10
-33.474306417422056
20
-64.20806761994335
30
0
10
-33.112778020815611
20
-64.20806761994335
30
0
0
SPLINE
5
624
100
AcDbEntity
8
0
100
AcDbSpline
70
0
71
2
72
6
73
3
74
0
42
0.000000001
43
0.0000000001
44
0.0000000001
40
0
40
0
40
0
40
1
40
1
40
1
10
-33.112778020815611
20
-64.20806761994335
30
0
10
-32.710322690920592
20
-64.20806761994335
30
0
10
-32.452819300608397
20
-64.375188911103933
30
0
0
SPLINE
5
625
100
AcDbEntity
8
0
100
AcDbSpline
70
0
71
2
72
6
73
3
74
0
42
0.000000001
43
0.0000000001
44
0.0000000001
40
0
40
0
40
0
40
1
40
1
40
1
10
-32.452819300608397
20
-64.375188911103933
30
0
10
-32.195315910296202
20
-64.542310500287741
30
0
10
-32.089585615114927
20
-64.842446708821981
30
0
0
SPLINE
5
626
100
AcDbEntity
8
0
100
AcDbSpline
70
0
71
2
72
6
73
3
74
0
42
0.000000001
43
0.0000000001
44
0.0000000001
40
0
40
0
40
0
40
1
40
1
40
1
10
-32.089585615114927
20
-64.842446708821981
30
0
10
-31.659845066981074
20
-64.20806761994335
30
0
10
-30.970895839648005
20
-64.20806761994335
30
0
0
SPLINE
5
627
100
AcDbEntity
8
0
100
AcDbSpline
70
0
71
2
72
6
73
3
74
0
42
0.000000001
43
0.0000000001
44
0.0000000001
40
0
40
0
40
0
40
1
40
1
40
1
10
-30.970895839648005
20
-64.20806761994335
30
0
10
-30.432013822512385
20
-64.20806761994335
30
0
10
-30.142109943346735
20
-64.506498539590567
30
0
0
SPLINE
5
628
100
AcDbEntity
8
0
100
AcDbSpline
70
0
71
2
72
6
73
3
74
0
42
0.000000001
43
0.0000000001
44
0.0000000001
40
0
40
0
40
0
40
1
40
1
40
1
10
-30.142109943346735
20
-64.506498539590567
30
0
10
-29.852206064181086
20
-64.804929757261007
30
0
10
-29.852206064181086
20
-65.425666535043447
30
0
0
LINE
5
629
100
AcDbEntity
8
0
100
AcDbLine
10
-29.852206064181086
20
-65.425666535043447
30
0
11
-29.852206064181086
21
-67.912023925924032
31
0
0
LINE
5
630
100
AcDbEntity
8
0
100
AcDbLine
10
-29.852206064181086
20
-67.912023925924032
30
0
11
-30.462710214571711
21
-67.912023925924032
31
0
0
LINE
5
631
100
AcDbEntity
8
0
100
AcDbLine
10
-30.462710214571711
20
-67.912023925924032
30
0
11
-30.462710214571711
21
-65.630305075788229
31
0
0
SPLINE
5
632
100
AcDbEntity
8
0
100
AcDbSpline
70
0
71
2
72
6
73
3
74
0
42
0.000000001
43
0.0000000001
44
0.0000000001
40
0
40
0
40
0
40
1
40
1
40
1
10
-30.462710214571711
20
-65.630305075788229
30
0
10
-30.462710214571711
20
-65.261955821656912
30
0
10
-30.522395921663996
20
-65.099950099134176
30
0
0
SPLINE
5
633
100
AcDbEntity
8
0
100
AcDbSpline
70
0
71
2
72
6
73
3
74
0
42
0.000000001
43
0.0000000001
44
0.0000000001
40
0
40
0
40
0
40
1
40
1
40
1
10
-30.522395921663996
20
-65.099950099134176
30
0
10
-30.582082820849177
20
-64.937944674634664
30
0
10
-30.738971782641169
20
-64.839036131047934
30
0
0
SPLINE
5
634
100
AcDbEntity
8
0
100
AcDbSpline
70
0
71
2
72
6
73
3
74
0
42
0.000000001
43
0.0000000001
44
0.0000000001
40
0
40
0
40
0
40
1
40
1
40
1
10
-30.738971782641169
20
-64.839036131047934
30
0
10
-30.895861936526057
20
-64.740127587461203
30
0
10
-31.10732133479571
20
-64.740127587461203
30
0
0
SPLINE
5
635
100
AcDbEntity
8
0
100
AcDbSpline
70
0
71
2
72
6
73
3
74
0
42
0.000000001
43
0.0000000001
44
0.0000000001
40
0
40
0
40
0
40
1
40
1
40
1
10
-31.10732133479571
20
-64.740127587461203
30
0
10
-31.489313198046442
20
-64.740127587461203
30
0
10
-31.741700721697566
20
-64.99422039999935
30
0
0
SPLINE
5
636
100
AcDbEntity
8
0
100
AcDbSpline
70
0
71
2
72
6
73
3
74
0
42
0.000000001
43
0.0000000001
44
0.0000000001
40
0
40
0
40
0
40
1
40
1
40
1
10
-31.741700721697566
20
-64.99422039999935
30
0
10
-31.994088245348689
20
-65.248313212537496
30
0
10
-31.994088245348689
20
-65.807658100270956
30
0
0
LINE
5
637
100
AcDbEntity
8
0
100
AcDbLine
10
-31.994088245348689
20
-65.807658100270956
30
0
11
-31.994088245348689
21
-67.912023925924032
31
0
0
LINE
5
638
100
AcDbEntity
8
0
100
AcDbLine
10
-31.994088245348689
20
-67.912023925924032
30
0
11
-32.608003569559813
21
-67.912023925924032
31
0
0
LINE
5
639
100
AcDbEntity
8
0
100
AcDbLine
10
-32.608003569559813
20
-67.912023925924032
30
0
11
-32.608003569559813
21
-65.558681452417105
31
0
0
SPLINE
5
640
100
AcDbEntity
8
0
100
AcDbSpline
70
0
71
2
72
6
73
3
74
0
42
0.000000001
43
0.0000000001
44
0.0000000001
40
0
40
0
40
0
40
1
40
1
40
1
10
-32.608003569559813
20
-65.558681452417105
30
0
10
-32.608003569559813
20
-65.149404668950766
30
0
10
-32.758071971850157
20
-64.944766128205984
30
0
0
SPLINE
5
641
100
AcDbEntity
8
0
100
AcDbSpline
70
0
71
2
72
6
73
3
74
0
42
0.000000001
43
0.0000000001
44
0.0000000001
40
0
40
0
40
0
40
1
40
1
40
1
10
-32.758071971850157
20
-64.944766128205984
30
0
10
-32.908139778094053
20
-64.740127587461203
30
0
10
-33.249204112009764
20
-64.740127587461203
30
0
0
SPLINE
5
642
100
AcDbEntity
8
0
100
AcDbSpline
70
0
71
2
72
6
73
3
74
0
42
0.000000001
43
0.0000000001
44
0.0000000001
40
0
40
0
40
0
40
1
40
1
40
1
10
-33.249204112009764
20
-64.740127587461203
30
0
10
-33.508412791208983
20
-64.740127587461203
30
0
10
-33.728399229960203
20
-64.876553380632132
30
0
0
SPLINE
5
643
100
AcDbEntity
8
0
100
AcDbSpline
70
0
71
2
72
6
73
3
74
0
42
0.000000001
43
0.0000000001
44
0.0000000001
40
0
40
0
40
0
40
1
40
1
40
1
10
-33.728399229960203
20
-64.876553380632132
30
0
10
-33.948385668711424
20
-65.012978875779837
30
0
10
-34.047294212298155
20
-65.275598132753103
30
0
0
SPLINE
5
644
100
AcDbEntity
8
0
100
AcDbSpline
70
0
71
2
72
6
73
3
74
0
42
0.000000001
43
0.0000000001
44
0.0000000001
40
0
40
0
40
0
40
1
40
1
40
1
10
-34.047294212298155
20
-65.275598132753103
30
0
10
-34.146202755884886
20
-65.538217687749594
30
0
10
-34.146202755884886
20
-66.032760405683248
30
0
0
LINE
5
645
100
AcDbEntity
8
0
100
AcDbLine
10
-34.146202755884886
20
-66.032760405683248
30
0
11
-34.146202755884886
21
-67.912023925924032
31
0
0
LINE
5
646
100
AcDbEntity
8
0
100
AcDbLine
10
-34.146202755884886
20
-67.912023925924032
30
0
11
-34.760118080096007
21
-67.912023925924032
31
0
0
ENDSEC
0
SECTION
2
OBJECTS
0
DICTIONARY
5
C
100
AcDbDictionary
3
ACAD_GROUP
350
D
3
ACAD_MLINESTYLE
350
17
0
DICTIONARY
5
D
100
AcDbDictionary
0
DICTIONARY
5
1A
330
C
100
AcDbDictionary
0
DICTIONARY
5
17
100
AcDbDictionary
0
ENDSEC
0
EOF
