                                                                        S      1
,,20HAntenna_stand_end v3,18HAntennastandend v3,7Hunknown,7Hunknown,32, G      1
38,7,99,15,,1.,2,2HMM,1,0.08,15H20230101.151813,0.01,10000.,7Hunknown,7HG      2
unknown,11,0,15H20210602.153516;                                        G      3
     186       1                                                00000000D      1
     186            -203       1       0                               0D      2
     514       2                                                00010000D      3
     514                       2       1                               0D      4
     510       4                                                00010000D      5
     510            -203       1       1                               0D      6
     510       5                                                00010000D      7
     510            -203       1       1                               0D      8
     510       6                                                00010000D      9
     510            -203       1       1                               0D     10
     510       7                                                00010000D     11
     510            -203       1       1                               0D     12
     510       8                                                00010000D     13
     510            -203       1       1                               0D     14
     510       9                                                00010000D     15
     510            -203       1       1                               0D     16
     510      10                                                00010000D     17
     510            -203       1       1                               0D     18
     510      11                                                00010000D     19
     510            -203       1       1                               0D     20
     510      12                                                00010000D     21
     510            -203       1       1                               0D     22
     510      13                                                00010000D     23
     510            -203       1       1                               0D     24
     510      14                                                00010000D     25
     510            -203       1       1                               0D     26
     510      15                                                00010000D     27
     510            -203       1       1                               0D     28
     510      16                                                00010000D     29
     510            -203       1       1                               0D     30
     510      17                                                00010000D     31
     510            -203       1       1                               0D     32
     510      18                                                00010000D     33
     510            -203       1       1                               0D     34
     510      19                                                00010000D     35
     510            -203       1       1                               0D     36
     510      20                                                00010000D     37
     510            -203       1       1                               0D     38
     508      21                                                00010000D     39
     508                       1       1                               0D     40
     508      22                                                00010000D     41
     508                       2       1                               0D     42
     508      24                                                00010000D     43
     508                       1       1                               0D     44
     508      25                                                00010000D     45
     508                       1       1                               0D     46
     508      26                                                00010000D     47
     508                       1       1                               0D     48
     508      27                                                00010000D     49
     508                       1       1                               0D     50
     508      28                                                00010000D     51
     508                       2       1                               0D     52
     508      30                                                00010000D     53
     508                       2       1                               0D     54
     508      32                                                00010000D     55
     508                       1       1                               0D     56
     508      33                                                00010000D     57
     508                       1       1                               0D     58
     508      34                                                00010000D     59
     508                       1       1                               0D     60
     508      35                                                00010000D     61
     508                       2       1                               0D     62
     508      37                                                00010000D     63
     508                       1       1                               0D     64
     508      38                                                00010000D     65
     508                       2       1                               0D     66
     508      40                                                00010000D     67
     508                       2       1                               0D     68
     508      42                                                00010000D     69
     508                       1       1                               0D     70
     508      43                                                00010000D     71
     508                       1       1                               0D     72
     508      44                                                00010000D     73
     508                       2       1                               0D     74
     508      46                                                00010000D     75
     508                       2       1                               0D     76
     508      48                                                00010000D     77
     508                       1       1                               0D     78
     126      49                                                00010000D     79
     126       0               7       0                               0D     80
     126      56                                                00010000D     81
     126       0               4       0                               0D     82
     126      60                                                00010000D     83
     126       0               8       0                               0D     84
     126      68                                                00010000D     85
     126       0               4       0                               0D     86
     126      72                                                00010000D     87
     126       0               4       0                               0D     88
     126      76                                                00010000D     89
     126       0               4       0                               0D     90
     126      80                                                00010000D     91
     126       0               3       0                               0D     92
     126      83                                                00010000D     93
     126       0               3       0                               0D     94
     126      86                                                00010000D     95
     126       0               4       0                               0D     96
     126      90                                                00010000D     97
     126       0               4       0                               0D     98
     126      94                                                00010000D     99
     126       0               4       0                               0D    100
     126      98                                                00010000D    101
     126       0               4       0                               0D    102
     126     102                                                00010000D    103
     126       0               8       0                               0D    104
     126     110                                                00010000D    105
     126       0               4       0                               0D    106
     126     114                                                00010000D    107
     126       0               4       0                               0D    108
     126     118                                                00010000D    109
     126       0               8       0                               0D    110
     126     126                                                00010000D    111
     126       0               4       0                               0D    112
     126     130                                                00010000D    113
     126       0               3       0                               0D    114
     126     133                                                00010000D    115
     126       0               4       0                               0D    116
     126     137                                                00010000D    117
     126       0               4       0                               0D    118
     126     141                                                00010000D    119
     126       0               4       0                               0D    120
     126     145                                                00010000D    121
     126       0               3       0                               0D    122
     126     148                                                00010000D    123
     126       0               4       0                               0D    124
     126     152                                                00010000D    125
     126       0               4       0                               0D    126
     126     156                                                00010000D    127
     126       0               6       0                               0D    128
     126     162                                                00010000D    129
     126       0               2       0                               0D    130
     126     164                                                00010000D    131
     126       0               4       0                               0D    132
     126     168                                                00010000D    133
     126       0               4       0                               0D    134
     126     172                                                00010000D    135
     126       0               7       0                               0D    136
     126     179                                                00010000D    137
     126       0               9       0                               0D    138
     126     188                                                00010000D    139
     126       0               3       0                               0D    140
     126     191                                                00010000D    141
     126       0               5       0                               0D    142
     126     196                                                00010000D    143
     126       0               8       0                               0D    144
     126     204                                                00010000D    145
     126       0               3       0                               0D    146
     126     207                                                00010000D    147
     126       0               5       0                               0D    148
     126     212                                                00010000D    149
     126       0               7       0                               0D    150
     126     219                                                00010000D    151
     126       0              12       0                               0D    152
     126     231                                                00010000D    153
     126       0               8       0                               0D    154
     126     239                                                00010000D    155
     126       0               8       0                               0D    156
     126     247                                                00010000D    157
     126       0               8       0                               0D    158
     126     255                                                00010000D    159
     126       0              10       0                               0D    160
     126     265                                                00010000D    161
     126       0               4       0                               0D    162
     128     269                                                00010000D    163
     128       0    -203      13       0                               0D    164
     128     282                                                00010000D    165
     128       0    -203       8       0                               0D    166
     128     290                                                00010000D    167
     128       0    -203       7       0                               0D    168
     128     297                                                00010000D    169
     128       0    -203       7       0                               0D    170
     128     304                                                00010000D    171
     128       0    -203       7       0                               0D    172
     128     311                                                00010000D    173
     128       0    -203       7       0                               0D    174
     128     318                                                00010000D    175
     128       0    -203       6       0                               0D    176
     128     324                                                00010000D    177
     128       0    -203      12       0                               0D    178
     128     336                                                00010000D    179
     128       0    -203       7       0                               0D    180
     128     343                                                00010000D    181
     128       0    -203       9       0                               0D    182
     128     352                                                00010000D    183
     128       0    -203       7       0                               0D    184
     128     359                                                00010000D    185
     128       0    -203      16       0                               0D    186
     128     375                                                00010000D    187
     128       0    -203      14       0                               0D    188
     128     389                                                00010000D    189
     128       0    -203       6       0                               0D    190
     128     395                                                00010000D    191
     128       0    -203      21       0                               0D    192
     128     416                                                00010000D    193
     128       0    -203      19       0                               0D    194
     128     435                                                00010000D    195
     128       0    -203       9       0                               0D    196
     502     444                                                00010000D    197
     502                      14       1                               0D    198
     504     458                                                00010001D    199
     504                      12       1                               0D    200
     406     470                                                00000000D    201
     406                       1      15                               0D    202
     314     471                                                00000200D    203
     314                       2       0                               0D    204
186,3,1,0,0,1,201;                                                     1P      1
514,17,5,1,7,1,9,1,11,1,13,1,15,1,17,1,19,1,21,1,23,1,25,1,27,1,       3P      2
29,1,31,1,33,1,35,1,37,1;                                              3P      3
510,163,1,1,39;                                                        5P      4
510,165,1,1,41;                                                        7P      5
510,167,2,1,43,45;                                                     9P      6
510,169,2,1,47,49;                                                    11P      7
510,171,1,1,51;                                                       13P      8
510,173,1,1,53;                                                       15P      9
510,175,1,1,55;                                                       17P     10
510,177,1,1,57;                                                       19P     11
510,179,1,1,59;                                                       21P     12
510,181,1,1,61;                                                       23P     13
510,183,1,1,63;                                                       25P     14
510,185,1,1,65;                                                       27P     15
510,187,1,1,67;                                                       29P     16
510,189,2,1,69,71;                                                    31P     17
510,191,1,1,73;                                                       33P     18
510,193,1,1,75;                                                       35P     19
510,195,1,1,77;                                                       37P     20
508,4,0,199,1,1,0,0,199,2,1,0,0,199,3,1,0,0,199,4,1,0;                39P     21
508,7,0,199,4,0,0,0,199,5,0,0,0,199,6,1,0,0,199,7,0,0,0,199,8,0,      41P     22
0,0,199,9,0,0,0,199,10,0,0;                                           41P     23
508,4,0,199,3,0,0,0,199,11,1,0,0,199,12,0,0,0,199,5,1,0;              43P     24
508,1,0,199,13,1,0;                                                   45P     25
508,4,0,199,1,0,0,0,199,10,1,0,0,199,14,0,0,0,199,15,1,0;             47P     26
508,1,0,199,16,1,0;                                                   49P     27
508,6,0,199,17,0,0,0,199,18,1,0,0,199,19,1,0,0,199,6,0,0,0,199,       51P     28
12,1,0,0,199,20,1,0;                                                  51P     29
508,6,0,199,21,0,0,0,199,22,1,0,0,199,23,1,0,0,199,24,0,0,0,199,      53P     30
14,1,0,0,199,9,1,0;                                                   53P     31
508,3,0,199,25,0,0,0,199,21,1,0,0,199,8,1,0;                          55P     32
508,4,0,199,13,0,0,0,199,26,1,0,0,199,16,0,0,0,199,26,0,0;            57P     33
508,3,0,199,27,0,0,0,199,7,1,0,0,199,19,0,0;                          59P     34
508,6,0,199,2,0,0,0,199,15,0,0,0,199,24,1,0,0,199,28,1,0,0,199,       61P     35
20,0,0,0,199,11,0,0;                                                  61P     36
508,2,0,199,29,0,0,0,199,30,0,0;                                      63P     37
508,6,0,199,29,1,0,0,199,31,1,0,0,199,32,0,0,0,199,33,0,0,0,199,      65P     38
31,0,0,0,199,30,1,0;                                                  65P     39
508,6,0,199,32,1,0,0,199,34,1,0,0,199,35,0,0,0,199,36,0,0,0,199,      67P     40
34,0,0,0,199,33,1,0;                                                  67P     41
508,4,0,199,17,1,0,0,199,28,0,0,0,199,23,0,0,0,199,37,0,0;            69P     42
508,2,0,199,35,1,0,0,199,36,1,0;                                      71P     43
508,5,0,199,18,0,0,0,199,37,1,0,0,199,22,0,0,0,199,38,0,0,0,199,      73P     44
39,0,0;                                                               73P     45
508,8,0,199,40,0,0,0,199,41,0,0,0,199,42,1,0,0,199,38,1,0,0,199,      75P     46
25,1,0,0,199,27,1,0,0,199,39,1,0,0,199,42,0,0;                        75P     47
508,2,0,199,40,1,0,0,199,41,1,0;                                      77P     48
126,4,2,0,0,0,0,0.,0.,0.,1.24904577239825,1.24904577239825,           79P     49
2.49809154479651,2.49809154479651,2.49809154479651,1.,                79P     50
0.811242185175563,1.,0.811242185175563,1.,24.0276507409392,-1.2,      79P     51
16.6407830863536,28.8140563788213,-1.2,15.0453145403929,              79P     52
28.8140563788213,-1.2,10.,28.8140563788213,-1.2,                      79P     53
4.95468545960711,24.0276507409392,-1.2,3.3592169136464,0.,            79P     54
2.49809154479651,0.,0.,0.;                                            79P     55
126,1,1,0,0,1,0,-0.171428571428571,-0.171428571428571,                81P     56
0.171428571428571,0.171428571428571,1.,1.,24.0276507409392,-1.2,      81P     57
3.3592169136464,24.0276507409392,1.2,3.3592169136464,                 81P     58
-0.171428571428571,0.171428571428571,0.,0.,0.;                        81P     59
126,4,2,0,0,0,0,3.78509376238308,3.78509376238308,                    83P     60
3.78509376238308,5.03413953478133,5.03413953478133,                   83P     61
6.28318530717959,6.28318530717959,6.28318530717959,1.,                83P     62
0.81124218517556,1.,0.811242185175562,1.,24.0276507409392,1.2,        83P     63
3.3592169136464,28.8140563788213,1.2,4.95468545960711,                83P     64
28.8140563788213,1.2,10.,28.8140563788213,1.2,15.0453145403929,       83P     65
24.0276507409392,1.2,16.6407830863536,3.78509376238308,               83P     66
6.28318530717959,0.,0.,0.;                                            83P     67
126,1,1,0,0,1,0,-0.171428571428571,-0.171428571428571,                85P     68
0.171428571428571,0.171428571428571,1.,1.,24.0276507409392,1.2,       85P     69
16.6407830863536,24.0276507409392,-1.2,16.6407830863536,              85P     70
-0.171428571428571,0.171428571428571,0.,0.,0.;                        85P     71
126,1,1,0,0,1,0,0.205367931097957,0.205367931097957,                  87P     72
1.06227766016838,1.06227766016838,1.,1.,15.8982912618782,1.2,         87P     73
19.3505695793739,24.0276507409392,1.2,16.6407830863536,               87P     74
0.205367931097957,1.06227766016838,0.,0.,0.;                          87P     75
126,1,1,0,0,1,0,-0.000878855301186088,-0.000878855301186088,          89P     76
0.263356586486557,0.263356586486557,1.,1.,15.8982912618782,1.2,       89P     77
19.3505695793739,13.95,2.86265996443375,20.,                          89P     78
-0.000878855301186088,0.263356586486557,0.,0.,0.;                     89P     79
126,1,1,0,0,1,0,0.,0.,0.286265996443375,0.286265996443375,1.,1.,      91P     80
13.95,0.,20.,13.95,2.86265996443375,20.,0.,0.286265996443375,0.,      91P     81
0.,0.;                                                                91P     82
126,1,1,0,0,1,0,-0.286265996443375,-0.286265996443375,0.,0.,1.,       93P     83
1.,13.95,-2.86265996443375,20.,13.95,0.,20.,-0.286265996443375,       93P     84
0.,0.,0.,0.;                                                          93P     85
126,1,1,0,0,1,0,-0.000878855301186086,-0.000878855301186086,          95P     86
0.263356586486557,0.263356586486557,1.,1.,15.8982912618782,-1.2,      95P     87
19.3505695793739,13.95,-2.86265996443375,20.,                         95P     88
-0.000878855301186086,0.263356586486557,0.,0.,0.;                     95P     89
126,1,1,0,0,1,0,-1.06227766016838,-1.06227766016838,                  97P     90
-0.205367931097957,-0.205367931097957,1.,1.,24.0276507409392,         97P     91
-1.2,16.6407830863536,15.8982912618782,-1.2,19.3505695793739,         97P     92
-1.06227766016838,-0.205367931097957,0.,0.,0.;                        97P     93
126,1,1,0,0,1,0,0.518861169915811,0.518861169915811,                  99P     94
1.37577089898623,1.37577089898623,1.,1.,24.0276507409392,1.2,         99P     95
3.3592169136464,15.8982912618782,1.2,0.649430420626066,               99P     96
0.518861169915811,1.37577089898623,0.,0.,0.;                          99P     97
126,1,1,0,0,1,0,-0.935056957937393,-0.935056957937393,               101P     98
0.935056957937393,0.935056957937393,1.,1.,15.8982912618782,1.2,      101P     99
19.3505695793739,15.8982912618782,1.2,0.649430420626067,             101P    100
-0.935056957937393,0.935056957937393,0.,0.,0.;                       101P    101
126,8,2,0,1,0,0,-3.14159265358979,-3.14159265358979,                 103P    102
-3.14159265358979,-1.5707963267949,-1.5707963267949,0.,0.,           103P    103
1.5707963267949,1.5707963267949,3.14159265358979,                    103P    104
3.14159265358979,3.14159265358979,1.,0.707106781186548,1.,           103P    105
0.707106781186548,1.,0.70710678118655,1.,0.70710678118655,1.,        103P    106
18.95,1.2,10.,18.95,1.2,7.5,21.45,1.2,7.5,23.95,1.2,7.5,23.95,       103P    107
1.2,10.,23.95,1.2,12.5,21.45,1.2,12.5,18.95,1.2,12.5,18.95,1.2,      103P    108
10.,-3.14159265358979,3.14159265358979,0.,0.,0.;                     103P    109
126,1,1,0,0,1,0,-0.935056957937393,-0.935056957937393,               105P    110
0.935056957937393,0.935056957937393,1.,1.,15.8982912618782,-1.2,     105P    111
0.649430420626067,15.8982912618782,-1.2,19.3505695793739,            105P    112
-0.935056957937393,0.935056957937393,0.,0.,0.;                       105P    113
126,1,1,0,0,1,0,-1.37577089898623,-1.37577089898623,                 107P    114
-0.518861169915811,-0.518861169915811,1.,1.,15.8982912618782,        107P    115
-1.2,0.649430420626066,24.0276507409392,-1.2,3.3592169136464,        107P    116
-1.37577089898623,-0.518861169915811,0.,0.,0.;                       107P    117
126,8,2,0,1,0,0,-3.14159265358979,-3.14159265358979,                 109P    118
-3.14159265358979,-1.5707963267949,-1.5707963267949,0.,0.,           109P    119
1.5707963267949,1.5707963267949,3.14159265358979,                    109P    120
3.14159265358979,3.14159265358979,1.,0.70710678118655,1.,            109P    121
0.70710678118655,1.,0.707106781186548,1.,0.707106781186548,1.,       109P    122
18.95,-1.2,10.,18.95,-1.2,12.5,21.45,-1.2,12.5,23.95,-1.2,12.5,      109P    123
23.95,-1.2,10.,23.95,-1.2,7.5,21.45,-1.2,7.5,18.95,-1.2,7.5,         109P    124
18.95,-1.2,10.,-3.14159265358979,3.14159265358979,0.,0.,0.;          109P    125
126,1,1,0,0,1,0,-0.193048181284713,-0.193048181284713,               111P    126
-0.144913006384093,-0.144913006384093,1.,1.,13.5838531111644,        111P    127
3.17512750205542,0.,13.95,2.86265996443375,0.,                       111P    128
-0.193048181284713,-0.144913006384093,0.,0.,0.;                      111P    129
126,1,1,0,0,1,0,-1.,-1.,1.,1.,1.,1.,13.5838531111644,                113P    130
3.17512750205542,0.,13.5838531111644,3.17512750205542,20.,-1.,       113P    131
1.,0.,0.,0.;                                                         113P    132
126,1,1,0,0,1,0,-0.181042071678077,-0.181042071678077,               115P    133
-0.132906896777457,-0.132906896777457,1.,1.,13.5838531111644,        115P    134
3.17512750205542,20.,13.95,2.86265996443375,20.,                     115P    135
-0.181042071678077,-0.132906896777457,0.,0.,0.;                      115P    136
126,1,1,0,0,1,0,0.613564097763894,0.613564097763894,                 117P    137
0.877799539551636,0.877799539551636,1.,1.,15.8982912618782,1.2,      117P    138
0.649430420626067,13.95,2.86265996443375,0.,0.613564097763894,       117P    139
0.877799539551636,0.,0.,0.;                                          117P    140
126,1,1,0,0,1,0,-0.181042071678077,-0.181042071678077,               119P    141
-0.132906896777457,-0.132906896777457,1.,1.,13.5838531111644,        119P    142
-3.17512750205542,20.,13.95,-2.86265996443375,20.,                   119P    143
-0.181042071678077,-0.132906896777457,0.,0.,0.;                      119P    144
126,1,1,0,0,1,0,-1.,-1.,1.,1.,1.,1.,13.5838531111644,                121P    145
-3.17512750205542,20.,13.5838531111644,-3.17512750205542,0.,-1.,     121P    146
1.,0.,0.,0.;                                                         121P    147
126,1,1,0,0,1,0,-0.193048181284713,-0.193048181284713,               123P    148
-0.144913006384093,-0.144913006384093,1.,1.,13.5838531111644,        123P    149
-3.17512750205542,0.,13.95,-2.86265996443375,0.,                     123P    150
-0.193048181284713,-0.144913006384093,0.,0.,0.;                      123P    151
126,1,1,0,0,1,0,0.613564097763894,0.613564097763894,                 125P    152
0.877799539551636,0.877799539551636,1.,1.,15.8982912618782,-1.2,     125P    153
0.649430420626067,13.95,-2.86265996443375,0.,0.613564097763894,      125P    154
0.877799539551636,0.,0.,0.;                                          125P    155
126,2,2,0,0,0,0,6.05356510960738,6.05356510960738,                   127P    156
6.05356510960738,6.28318530717959,6.28318530717959,                  127P    157
6.28318530717959,1.,0.993416556937359,1.,13.5838531111644,           127P    158
-3.17512750205542,20.,13.95,-1.60867527239453,20.,13.95,             127P    159
-3.41676456962112D-15,20.,6.05356510960738,6.28318530717959,0.,      127P    160
0.,0.;                                                               127P    161
126,1,1,0,0,1,0,-0.48,-0.48,0.48,0.48,1.,1.,18.95,1.2,10.,18.95,     129P    162
-1.2,10.,-0.48,0.48,0.,0.,0.;                                        129P    163
126,2,2,0,0,0,0,0.,0.,0.,0.229620197572209,0.229620197572209,        131P    164
0.229620197572209,1.,0.993416556937362,1.,13.95,0.,20.,13.95,        131P    165
1.60867527239452,20.,13.5838531111644,3.17512750205542,20.,0.,       131P    166
0.229620197572209,0.,0.,0.;                                          131P    167
126,1,1,0,0,1,0,-0.286265996443375,-0.286265996443375,               133P    168
0.286265996443375,0.286265996443375,1.,1.,13.95,                     133P    169
-2.86265996443375,0.,13.95,2.86265996443375,0.,                      133P    170
-0.286265996443375,0.286265996443375,0.,0.,0.;                       133P    171
126,4,2,0,0,0,0,0.,0.,0.,1.5707963267949,1.5707963267949,            135P    172
3.14159265358979,3.14159265358979,3.14159265358979,1.,               135P    173
0.707106781186548,1.,0.707106781186548,1.,2.55000000000001,0.,       135P    174
30.,2.55000000000001,2.55000000000001,30.,1.56142466891288D-16,      135P    175
2.55000000000001,30.,-2.55000000000001,2.55000000000001,30.,         135P    176
-2.55000000000001,3.12284933782576D-16,30.,0.,3.14159265358979,      135P    177
0.,0.,0.;                                                            135P    178
126,4,2,0,0,0,0,3.14159265358979,3.14159265358979,                   137P    179
3.14159265358979,4.71238898038469,4.71238898038469,                  137P    180
6.28318530717959,6.28318530717959,6.28318530717959,1.,               137P    181
0.707106781186548,1.,0.707106781186548,1.,-2.55000000000001,         137P    182
3.12284933782576D-16,30.,-2.55000000000001,-2.55000000000001,        137P    183
30.,-4.68427400673864D-16,-2.55000000000001,30.,                     137P    184
2.55000000000001,-2.55000000000001,30.,2.55000000000001,             137P    185
-6.24569867565152D-16,30.,3.14159265358979,6.28318530717959,0.,      137P    186
0.,0.;                                                               137P    187
126,1,1,0,0,1,0,-0.936565273094764,-0.936565273094764,               139P    188
0.936565273094764,0.936565273094764,1.,1.,-2.55000000000001,0.,      139P    189
30.,-12.55,0.,20.,-0.936565273094764,0.936565273094764,0.,0.,0.;     139P    190
126,4,2,0,0,0,0,0.,0.,0.,1.5707963267949,1.5707963267949,            141P    191
3.14159265358979,3.14159265358979,3.14159265358979,1.,               141P    192
0.707106781186548,1.,0.707106781186548,1.,12.55,0.,20.,12.55,        141P    193
12.55,20.,7.68465866464964D-16,12.55,20.,-12.55,12.55,20.,           141P    194
-12.55,1.53693173292993D-15,20.,0.,3.14159265358979,0.,0.,0.;        141P    195
126,4,2,0,0,0,0,3.14159265358979,3.14159265358979,                   143P    196
3.14159265358979,4.71238898038469,4.71238898038469,                  143P    197
6.28318530717959,6.28318530717959,6.28318530717959,1.,               143P    198
0.707106781186548,1.,0.707106781186547,1.,-12.55,                    143P    199
1.53693173292993D-15,20.,-12.55,-12.55,20.,                          143P    200
-2.30539759939489D-15,-12.55,20.,12.55,-12.55,20.,12.55,             143P    201
-3.07386346585986D-15,20.,3.14159265358979,6.28318530717959,0.,      143P    202
0.,0.;                                                               143P    203
126,1,1,0,0,1,0,-0.796812749003984,-0.796812749003984,               145P    204
0.796812749003984,0.796812749003984,1.,1.,-12.55,0.,20.,-12.55,      145P    205
0.,0.,-0.796812749003984,0.796812749003984,0.,0.,0.;                 145P    206
126,4,2,0,0,0,0,0.,0.,0.,1.5707963267949,1.5707963267949,            147P    207
3.14159265358979,3.14159265358979,3.14159265358979,1.,               147P    208
0.707106781186548,1.,0.707106781186548,1.,12.55,0.,0.,12.55,         147P    209
12.55,0.,7.68465866464964D-16,12.55,0.,-12.55,12.55,0.,-12.55,       147P    210
1.53693173292993D-15,0.,0.,3.14159265358979,0.,0.,0.;                147P    211
126,4,2,0,0,0,0,3.14159265358979,3.14159265358979,                   149P    212
3.14159265358979,4.71238898038469,4.71238898038469,                  149P    213
6.28318530717959,6.28318530717959,6.28318530717959,1.,               149P    214
0.707106781186548,1.,0.707106781186547,1.,-12.55,                    149P    215
1.53693173292993D-15,0.,-12.55,-12.55,0.,-2.30539759939489D-15,      149P    216
-12.55,0.,12.55,-12.55,0.,12.55,-3.07386346585986D-15,0.,            149P    217
3.14159265358979,6.28318530717959,0.,0.,0.;                          149P    218
126,8,2,0,0,0,0,0.229620197572209,0.229620197572209,                 151P    219
0.229620197572209,1.685606425581,1.685606425581,                     151P    220
3.14159265358979,3.14159265358979,4.59757888159859,                  151P    221
4.59757888159859,6.05356510960738,6.05356510960738,                  151P    222
6.05356510960738,1.,0.746511232149374,1.,0.746511232149374,1.,       151P    223
0.746511232149374,1.,0.746511232149375,1.,13.5838531111644,          151P    224
3.17512750205542,0.,10.7538306993351,15.282549556353,0.,             151P    225
-1.59808465033244,13.8581609692763,0.,-13.95,12.4337723821995,       151P    226
0.,-13.95,1.70838228481056D-15,0.,-13.95,-12.4337723821995,0.,       151P    227
-1.59808465033244,-13.8581609692763,0.,10.7538306993351,             151P    228
-15.282549556353,0.,13.5838531111644,-3.17512750205542,0.,           151P    229
0.229620197572209,6.05356510960738,0.,0.,0.;                         151P    230
126,4,2,0,0,0,0,3.14159265358979,3.14159265358979,                   153P    231
3.14159265358979,4.59757888159858,4.59757888159858,                  153P    232
6.05356510960738,6.05356510960738,6.05356510960738,1.,               153P    233
0.746511232149374,1.,0.746511232149374,1.,-13.95,                    153P    234
1.70838228481056D-15,20.,-13.95,-12.4337723821995,20.,               153P    235
-1.59808465033245,-13.8581609692763,20.,10.7538306993351,            153P    236
-15.282549556353,20.,13.5838531111644,-3.17512750205542,20.,         153P    237
3.14159265358979,6.05356510960738,0.,0.,0.;                          153P    238
126,4,2,0,0,0,0,0.229620197572209,0.229620197572209,                 155P    239
0.229620197572209,1.685606425581,1.685606425581,                     155P    240
3.14159265358979,3.14159265358979,3.14159265358979,1.,               155P    241
0.746511232149374,1.,0.746511232149374,1.,13.5838531111644,          155P    242
3.17512750205542,20.,10.7538306993351,15.282549556353,20.,           155P    243
-1.59808465033244,13.8581609692763,20.,-13.95,12.4337723821995,      155P    244
20.,-13.95,1.70838228481056D-15,20.,0.229620197572209,               155P    245
3.14159265358979,0.,0.,0.;                                           155P    246
126,4,2,0,0,0,0,0.,0.,0.,1.5707963267949,1.5707963267949,            157P    247
3.14159265358979,3.14159265358979,3.14159265358979,1.,               157P    248
0.707106781186548,1.,0.707106781186548,1.,0.472207098870135,0.,      157P    249
33.4777929011299,0.472207098870135,0.472207098870135,                157P    250
33.4777929011299,2.89143456082984D-17,0.472207098870135,             157P    251
33.4777929011299,-0.472207098870135,0.472207098870135,               157P    252
33.4777929011299,-0.472207098870135,5.78286912165968D-17,            157P    253
33.4777929011299,0.,3.14159265358979,0.,0.,0.;                       157P    254
126,4,2,0,0,0,0,3.14159265358979,3.14159265358979,                   159P    255
3.14159265358979,4.71238898038469,4.71238898038469,                  159P    256
6.28318530717959,6.28318530717959,6.28318530717959,1.,               159P    257
0.707106781186548,1.,0.707106781186548,1.,-0.472207098870135,        159P    258
5.78286912165968D-17,33.4777929011299,-0.472207098870135,            159P    259
-0.472207098870135,33.4777929011299,-8.67430368248952D-17,           159P    260
-0.472207098870135,33.4777929011299,0.472207098870135,               159P    261
-0.472207098870135,33.4777929011299,0.472207098870135,               159P    262
-1.15657382433194D-16,33.4777929011299,3.14159265358979,             159P    263
6.28318530717959,0.,0.,0.;                                           159P    264
126,1,1,0,0,1,0,-1.32160614398104,-1.32160614398104,                 161P    265
1.32160614398104,1.32160614398104,1.,1.,-0.472207098870132,0.,       161P    266
33.4777929011299,-13.95,0.,20.,-1.32160614398104,                    161P    267
1.32160614398104,0.,0.,0.;                                           161P    268
128,1,4,1,2,0,0,0,0,0,-0.171428571428571,-0.171428571428571,         163P    269
0.171428571428571,0.171428571428571,3.96508223080413D-17,            163P    270
3.96508223080413D-17,3.96508223080413D-17,1.24904577239825,          163P    271
1.24904577239825,2.49809154479651,2.49809154479651,                  163P    272
2.49809154479651,1.,1.,0.811242185175561,0.811242185175561,1.,       163P    273
1.,0.811242185175561,0.811242185175561,1.,1.,24.0276507409392,       163P    274
1.2,16.6407830863536,24.0276507409392,-1.2,16.6407830863536,         163P    275
28.8140563788213,1.2,15.0453145403929,28.8140563788213,-1.2,         163P    276
15.0453145403929,28.8140563788213,1.2,10.,28.8140563788213,-1.2,     163P    277
10.,28.8140563788213,1.2,4.95468545960711,28.8140563788213,-1.2,     163P    278
4.95468545960711,24.0276507409392,1.2,3.3592169136464,               163P    279
24.0276507409392,-1.2,3.3592169136464,-0.171428571428571,            163P    280
0.171428571428571,3.96508223080413D-17,2.49809154479651;             163P    281
128,1,1,1,1,0,0,1,0,0,-0.001,-0.001,1.06327766016838,                165P    282
1.06327766016838,-0.287265996443375,-0.287265996443375,              165P    283
0.287265996443375,0.287265996443375,1.,1.,1.,1.,                     165P    284
13.9405131670195,-2.87265996443375,20.0031622776602,                 165P    285
24.0371375739197,-2.87265996443375,16.6376208086934,                 165P    286
13.9405131670195,2.87265996443375,20.0031622776602,                  165P    287
24.0371375739197,2.87265996443375,16.6376208086934,-0.001,           165P    288
1.06327766016838,-0.287265996443375,0.287265996443375;               165P    289
128,1,1,1,1,0,0,1,0,0,-0.540387148662164,-0.540387148662164,         167P    290
0.75318936303215,0.75318936303215,-0.936056957937393,                167P    291
-0.936056957937393,0.936056957937393,0.936056957937393,1.,1.,1.,     167P    292
1.,15.8882912618782,1.2,19.3605695793739,28.8240563788213,1.2,       167P    293
19.3605695793739,15.8882912618782,1.2,0.639430420626066,             167P    294
28.8240563788213,1.2,0.639430420626066,-0.540387148662164,           167P    295
0.75318936303215,-0.936056957937393,0.936056957937393;               167P    296
128,1,1,1,1,0,0,1,0,0,-0.540387148662164,-0.540387148662164,         169P    297
0.75318936303215,0.75318936303215,-0.936056957937393,                169P    298
-0.936056957937393,0.936056957937393,0.936056957937393,1.,1.,1.,     169P    299
1.,28.8240563788213,-1.2,19.3605695793739,15.8882912618782,-1.2,     169P    300
19.3605695793739,28.8240563788213,-1.2,0.639430420626066,            169P    301
15.8882912618782,-1.2,0.639430420626066,-0.540387148662164,          169P    302
0.75318936303215,-0.936056957937393,0.936056957937393;               169P    303
128,1,1,1,1,0,0,1,0,0,-1.001,-1.001,1.001,1.001,                     171P    304
-0.153132775913469,-0.153132775913469,0.153132775913469,             171P    305
0.153132775913469,1.,1.,1.,1.,15.9058979006739,1.19350854051602,     171P    306
20.01,15.9058979006739,1.19350854051602,-0.0099999999999989,         171P    307
13.5762464723687,3.1816189615394,20.01,13.5762464723687,             171P    308
3.1816189615394,-0.0099999999999989,-1.001,1.001,                    171P    309
-0.153132775913469,0.153132775913469;                                171P    310
128,1,1,1,1,0,0,1,0,0,-1.001,-1.001,1.001,1.001,                     173P    311
-0.153132775913469,-0.153132775913469,0.153132775913469,             173P    312
0.153132775913469,1.,1.,1.,1.,13.5762464723687,-3.1816189615394,     173P    313
20.01,13.5762464723687,-3.1816189615394,-0.0099999999999989,         173P    314
15.9058979006739,-1.19350854051602,20.01,15.9058979006739,           173P    315
-1.19350854051602,-0.0099999999999989,-1.001,1.001,                  173P    316
-0.153132775913469,0.153132775913469;                                173P    317
128,1,1,1,1,0,0,1,0,0,-0.00604723858352563,-0.00604723858352563,     175P    318
0.0325674503000323,0.0325674503000323,-0.318512750205542,            175P    319
-0.318512750205542,0.001,0.001,1.,1.,1.,1.,13.5738531111644,         175P    320
-3.18512750205542,20.,13.96,-3.18512750205542,20.,                   175P    321
13.5738531111644,0.01,20.,13.96,0.01,20.,-0.00604723858352563,       175P    322
0.0325674503000323,-0.318512750205542,0.001;                         175P    323
128,1,8,1,2,0,1,0,0,1,-0.48,-0.48,0.48,0.48,-3.14159265358979,       177P    324
-3.14159265358979,-3.14159265358979,-1.5707963267949,                177P    325
-1.5707963267949,0.,0.,1.5707963267949,1.5707963267949,              177P    326
3.14159265358979,3.14159265358979,3.14159265358979,1.,1.,            177P    327
0.707106781186548,0.707106781186548,1.,1.,0.707106781186548,         177P    328
0.707106781186548,1.,1.,0.707106781186548,0.707106781186548,1.,      177P    329
1.,0.707106781186548,0.707106781186548,1.,1.,18.95,-1.2,10.,         177P    330
18.95,1.2,10.,18.95,-1.2,12.5,18.95,1.2,12.5,21.45,-1.2,12.5,        177P    331
21.45,1.2,12.5,23.95,-1.2,12.5,23.95,1.2,12.5,23.95,-1.2,10.,        177P    332
23.95,1.2,10.,23.95,-1.2,7.5,23.95,1.2,7.5,21.45,-1.2,7.5,21.45,     177P    333
1.2,7.5,18.95,-1.2,7.5,18.95,1.2,7.5,18.95,-1.2,10.,18.95,1.2,       177P    334
10.,-0.48,0.48,-3.14159265358979,3.14159265358979;                   177P    335
128,1,1,1,1,0,0,1,0,0,-0.00604723858352563,-0.00604723858352563,     179P    336
0.0325674503000323,0.0325674503000323,-0.001,-0.001,                 179P    337
0.318512750205542,0.318512750205542,1.,1.,1.,1.,                     179P    338
13.5738531111644,-0.01,20.,13.96,-0.01,20.,13.5738531111644,         179P    339
3.18512750205542,20.,13.96,3.18512750205542,20.,                     179P    340
-0.00604723858352563,0.0325674503000323,-0.001,                      179P    341
0.318512750205542;                                                   179P    342
128,1,1,1,1,0,0,1,0,0,0.517861169915811,0.517861169915811,           181P    343
1.58213883008419,1.58213883008419,-0.287265996443375,                181P    344
-0.287265996443375,0.287265996443375,0.287265996443375,1.,1.,1.,     181P    345
1.,24.0371375739197,-2.87265996443375,3.36237919130657,              181P    346
13.9405131670195,-2.87265996443375,-0.00316227766016808,             181P    347
24.0371375739197,2.87265996443375,3.36237919130657,                  181P    348
13.9405131670195,2.87265996443375,-0.00316227766016808,              181P    349
0.517861169915811,1.58213883008419,-0.287265996443375,               181P    350
0.287265996443375;                                                   181P    351
128,1,1,1,1,0,0,1,0,0,-0.001,-0.001,0.511000000000002,               183P    352
0.511000000000002,-0.256000000000001,-0.256000000000001,             183P    353
0.256000000000001,0.256000000000001,1.,1.,1.,1.,                     183P    354
2.56000000000001,-2.56000000000001,30.,-2.56000000000001,            183P    355
-2.56000000000001,30.,2.56000000000001,2.56000000000001,30.,         183P    356
-2.56000000000001,2.56000000000001,30.,-0.001,0.511000000000002,     183P    357
-0.256000000000001,0.256000000000001;                                183P    358
128,1,8,1,2,0,1,0,0,1,-0.936565273094764,-0.936565273094764,         185P    359
0.936565273094764,0.936565273094764,-3.14159265358979,               185P    360
-3.14159265358979,-3.14159265358979,-1.5707963267949,                185P    361
-1.5707963267949,0.,0.,1.5707963267949,1.5707963267949,              185P    362
3.14159265358979,3.14159265358979,3.14159265358979,1.,1.,            185P    363
0.707106781186548,0.707106781186548,1.,1.,0.707106781186548,         185P    364
0.707106781186548,1.,1.,0.707106781186548,0.707106781186548,1.,      185P    365
1.,0.707106781186548,0.707106781186548,1.,1.,-12.55,0.,20.,          185P    366
-2.55000000000001,0.,30.,-12.55,-12.55,20.,-2.55000000000001,        185P    367
-2.55000000000001,30.,0.,-12.55,20.,0.,-2.55000000000001,30.,        185P    368
12.55,-12.55,20.,2.55000000000001,-2.55000000000001,30.,12.55,       185P    369
0.,20.,2.55000000000001,0.,30.,12.55,12.55,20.,2.55000000000001,     185P    370
2.55000000000001,30.,0.,12.55,20.,0.,2.55000000000001,30.,           185P    371
-12.55,12.55,20.,-2.55000000000001,2.55000000000001,30.,-12.55,      185P    372
0.,20.,-2.55000000000001,0.,30.,-0.936565273094764,                  185P    373
0.936565273094764,-3.14159265358979,3.14159265358979;                185P    374
128,1,8,1,2,0,1,0,0,1,-0.796812749003984,-0.796812749003984,         187P    375
0.796812749003984,0.796812749003984,-3.14159265358979,               187P    376
-3.14159265358979,-3.14159265358979,-1.5707963267949,                187P    377
-1.5707963267949,0.,0.,1.5707963267949,1.5707963267949,              187P    378
3.14159265358979,3.14159265358979,3.14159265358979,1.,1.,            187P    379
0.707106781186548,0.707106781186548,1.,1.,0.707106781186548,         187P    380
0.707106781186548,1.,1.,0.707106781186548,0.707106781186548,1.,      187P    381
1.,0.707106781186548,0.707106781186548,1.,1.,-12.55,0.,0.,           187P    382
-12.55,0.,20.,-12.55,-12.55,0.,-12.55,-12.55,20.,0.,-12.55,0.,       187P    383
0.,-12.55,20.,12.55,-12.55,0.,12.55,-12.55,20.,12.55,0.,0.,          187P    384
12.55,0.,20.,12.55,12.55,0.,12.55,12.55,20.,0.,12.55,0.,0.,          187P    385
12.55,20.,-12.55,12.55,0.,-12.55,12.55,20.,-12.55,0.,0.,-12.55,      187P    386
0.,20.,-0.796812749003984,0.796812749003984,-3.14159265358979,       187P    387
3.14159265358979;                                                    187P    388
128,1,1,1,1,0,0,1,0,0,-0.00100000000000022,-0.00100000000000022,     189P    389
2.791,2.791,-1.5292549556353,-1.5292549556353,1.5292549556353,       189P    390
1.5292549556353,1.,1.,1.,1.,13.96,-15.292549556353,0.,-13.96,        189P    391
-15.292549556353,0.,13.96,15.292549556353,0.,-13.96,                 189P    392
15.292549556353,0.,-0.00100000000000022,2.791,-1.5292549556353,      189P    393
1.5292549556353;                                                     189P    394
128,1,8,1,2,0,0,0,0,0,-0.716845878136201,-0.716845878136201,         191P    395
0.716845878136201,0.716845878136201,0.229620197572209,               191P    396
0.229620197572209,0.229620197572209,1.685606425581,                  191P    397
1.685606425581,3.14159265358979,3.14159265358979,                    191P    398
4.59757888159859,4.59757888159859,6.05356510960738,                  191P    399
6.05356510960738,6.05356510960738,1.,1.,0.746511232149374,           191P    400
0.746511232149374,1.,1.,0.746511232149374,0.746511232149374,1.,      191P    401
1.,0.746511232149374,0.746511232149374,1.,1.,0.746511232149374,      191P    402
0.746511232149374,1.,1.,13.5838531111644,3.17512750205542,20.,       191P    403
13.5838531111644,3.17512750205542,0.,10.7538306993351,               191P    404
15.282549556353,20.,10.7538306993351,15.282549556353,0.,             191P    405
-1.59808465033244,13.8581609692763,20.,-1.59808465033244,            191P    406
13.8581609692763,0.,-13.95,12.4337723821995,20.,-13.95,              191P    407
12.4337723821995,0.,-13.95,0.,20.,-13.95,0.,0.,-13.95,               191P    408
-12.4337723821995,20.,-13.95,-12.4337723821995,0.,                   191P    409
-1.59808465033245,-13.8581609692763,20.,-1.59808465033245,           191P    410
-13.8581609692763,0.,10.7538306993351,-15.282549556353,20.,          191P    411
10.7538306993351,-15.282549556353,0.,13.5838531111644,               191P    412
-3.17512750205544,20.,13.5838531111644,-3.17512750205544,0.,         191P    413
-0.716845878136201,0.716845878136201,0.229620197572209,              191P    414
6.05356510960738;                                                    191P    415
128,1,8,1,2,0,1,0,0,1,-1.32160614398104,-1.32160614398104,           193P    416
1.32160614398104,1.32160614398104,-3.14159265358979,                 193P    417
-3.14159265358979,-3.14159265358979,-1.5707963267949,                193P    418
-1.5707963267949,0.,0.,1.5707963267949,1.5707963267949,              193P    419
3.14159265358979,3.14159265358979,3.14159265358979,1.,1.,            193P    420
0.707106781186548,0.707106781186548,1.,1.,0.707106781186548,         193P    421
0.707106781186548,1.,1.,0.707106781186548,0.707106781186548,1.,      193P    422
1.,0.707106781186548,0.707106781186548,1.,1.,-0.472207098870132,     193P    423
0.,33.4777929011299,-13.95,0.,20.,-0.472207098870132,                193P    424
-0.472207098870132,33.4777929011299,-13.95,-13.95,20.,0.,            193P    425
-0.472207098870132,33.4777929011299,0.,-13.95,20.,                   193P    426
0.472207098870132,-0.472207098870132,33.4777929011299,13.95,         193P    427
-13.95,20.,0.472207098870132,0.,33.4777929011299,13.95,0.,20.,       193P    428
0.472207098870132,0.472207098870132,33.4777929011299,13.95,          193P    429
13.95,20.,0.,0.472207098870132,33.4777929011299,0.,13.95,20.,        193P    430
-0.472207098870132,0.472207098870132,33.4777929011299,-13.95,        193P    431
13.95,20.,-0.472207098870132,0.,33.4777929011299,-13.95,0.,20.,      193P    432
-1.32160614398104,1.32160614398104,-3.14159265358979,                193P    433
3.14159265358979;                                                    193P    434
128,1,1,1,1,0,0,1,0,0,-0.0482207098870135,-0.0482207098870135,       195P    435
0.0482207098870135,0.0482207098870135,-0.0482207098870135,           195P    436
-0.0482207098870135,0.0482207098870135,0.0482207098870135,1.,1.,     195P    437
1.,1.,-0.482207098870135,-0.482207098870135,33.4777929011299,        195P    438
0.482207098870135,-0.482207098870135,33.4777929011299,               195P    439
-0.482207098870135,0.482207098870135,33.4777929011299,               195P    440
0.482207098870135,0.482207098870135,33.4777929011299,                195P    441
-0.0482207098870135,0.0482207098870135,-0.0482207098870135,          195P    442
0.0482207098870135;                                                  195P    443
502,28,24.0276507409392,-1.2,16.6407830863536,24.0276507409392,      197P    444
-1.2,3.3592169136464,24.0276507409392,1.2,3.3592169136464,           197P    445
24.0276507409392,1.2,16.6407830863536,15.8982912618782,1.2,          197P    446
19.3505695793739,13.95,2.86265996443375,20.,13.95,0.,20.,13.95,      197P    447
-2.86265996443375,20.,15.8982912618782,-1.2,19.3505695793739,        197P    448
15.8982912618782,1.2,0.649430420626066,18.95,1.2,10.,                197P    449
15.8982912618782,-1.2,0.649430420626066,18.95,-1.2,10.,              197P    450
13.5838531111644,3.17512750205542,0.,13.95,2.86265996443375,0.,      197P    451
13.5838531111644,3.17512750205542,20.,13.5838531111644,              197P    452
-3.17512750205542,20.,13.5838531111644,-3.17512750205542,0.,         197P    453
13.95,-2.86265996443375,0.,2.55000000000001,0.,30.,                  197P    454
-2.55000000000001,0.,30.,-12.55,0.,20.,12.55,0.,20.,-12.55,0.,       197P    455
0.,12.55,0.,0.,-13.95,0.,20.,0.472207098870135,0.,                   197P    456
33.4777929011299,-0.472207098870132,0.,33.4777929011299;             197P    457
504,42,79,197,1,197,2,81,197,2,197,3,83,197,3,197,4,85,197,4,        199P    458
197,1,87,197,5,197,4,89,197,5,197,6,91,197,7,197,6,93,197,8,197,     199P    459
7,95,197,9,197,8,97,197,1,197,9,99,197,3,197,10,101,197,5,197,       199P    460
10,103,197,11,197,11,105,197,12,197,9,107,197,12,197,2,109,197,      199P    461
13,197,13,111,197,14,197,15,113,197,14,197,16,115,197,16,197,6,      199P    462
117,197,10,197,15,119,197,17,197,8,121,197,17,197,18,123,197,18,     199P    463
197,19,125,197,12,197,19,127,197,17,197,7,129,197,11,197,13,131,     199P    464
197,7,197,16,133,197,19,197,15,135,197,20,197,21,137,197,21,197,     199P    465
20,139,197,21,197,22,141,197,23,197,22,143,197,22,197,23,145,        199P    466
197,22,197,24,147,197,25,197,24,149,197,24,197,25,151,197,14,        199P    467
197,18,153,197,26,197,17,155,197,16,197,26,157,197,27,197,28,        199P    468
159,197,28,197,27,161,197,28,197,26;                                 199P    469
406,1,5HBody1;                                                       201P    470
314,62.7450980392157,62.7450980392157,62.7450980392157,13HSteel      203P    471
- Satin;                                                             203P    472
S      1G      3D    204P    472                                        T      1
