                                                                        S      1
,,14Hqcx_encoder v2,13Hqcxencoder v2,7Hunknown,7Hunknown,32,38,7,99,15,,G      1
1.,2,2HMM,1,0.08,15H20230101.152052,0.01,10000.,7Hunknown,7Hunknown,11, G      2
0,15H20211030.190244;                                                   G      3
     186       1                                                00000000D      1
     186             -87       1       0                               0D      2
     514       2                                                00010000D      3
     514                       1       1                               0D      4
     510       3                                                00010000D      5
     510             -87       1       1                               0D      6
     510       4                                                00010000D      7
     510             -87       1       1                               0D      8
     510       5                                                00010000D      9
     510             -87       1       1                               0D     10
     510       6                                                00010000D     11
     510             -87       1       1                               0D     12
     510       7                                                00010000D     13
     510             -87       1       1                               0D     14
     510       8                                                00010000D     15
     510             -87       1       1                               0D     16
     510       9                                                00010000D     17
     510             -87       1       1                               0D     18
     510      10                                                00010000D     19
     510             -87       1       1                               0D     20
     508      11                                                00010000D     21
     508                       1       1                               0D     22
     508      12                                                00010000D     23
     508                       1       1                               0D     24
     508      13                                                00010000D     25
     508                       1       1                               0D     26
     508      14                                                00010000D     27
     508                       1       1                               0D     28
     508      15                                                00010000D     29
     508                       1       1                               0D     30
     508      16                                                00010000D     31
     508                       1       1                               0D     32
     508      17                                                00010000D     33
     508                       1       1                               0D     34
     508      18                                                00010000D     35
     508                       1       1                               0D     36
     508      19                                                00010000D     37
     508                       1       1                               0D     38
     508      20                                                00010000D     39
     508                       1       1                               0D     40
     126      21                                                00010000D     41
     126       0               4       0                               0D     42
     126      25                                                00010000D     43
     126       0               3       0                               0D     44
     126      28                                                00010000D     45
     126       0               4       0                               0D     46
     126      32                                                00010000D     47
     126       0               3       0                               0D     48
     126      35                                                00010000D     49
     126       0               9       0                               0D     50
     126      44                                                00010000D     51
     126       0               9       0                               0D     52
     126      53                                                00010000D     53
     126       0               9       0                               0D     54
     126      62                                                00010000D     55
     126       0               9       0                               0D     56
     126      71                                                00010000D     57
     126       0               9       0                               0D     58
     126      80                                                00010000D     59
     126       0               2       0                               0D     60
     126      82                                                00010000D     61
     126       0               9       0                               0D     62
     126      91                                                00010000D     63
     126       0               2       0                               0D     64
     128      93                                                00010000D     65
     128       0     -87       6       0                               0D     66
     128      99                                                00010000D     67
     128       0     -87      17       0                               0D     68
     128     116                                                00010000D     69
     128       0     -87       7       0                               0D     70
     128     123                                                00010000D     71
     128       0     -87       3       0                               0D     72
     128     126                                                00010000D     73
     128       0     -87      11       0                               0D     74
     128     137                                                00010000D     75
     128       0     -87       3       0                               0D     76
     128     140                                                00010000D     77
     128       0     -87      11       0                               0D     78
     128     151                                                00010000D     79
     128       0     -87       3       0                               0D     80
     502     154                                                00010000D     81
     502                       5       1                               0D     82
     504     159                                                00010001D     83
     504                       3       1                               0D     84
     406     162                                                00000000D     85
     406                       1      15                               0D     86
     314     163                                                00000200D     87
     314                       2       0                               0D     88
186,3,1,0,0,1,85;                                                      1P      1
514,8,5,1,7,1,9,1,11,1,13,1,15,1,17,1,19,1;                            3P      2
510,65,1,1,21;                                                         5P      3
510,67,1,1,23;                                                         7P      4
510,69,1,1,25;                                                         9P      5
510,71,2,1,27,29;                                                     11P      6
510,73,1,1,31;                                                        13P      7
510,75,2,1,33,35;                                                     15P      8
510,77,1,1,37;                                                        17P      9
510,79,1,1,39;                                                        19P     10
508,4,0,83,1,0,0,0,83,2,1,0,0,83,3,1,0,0,83,4,0,0;                    21P     11
508,4,0,83,5,0,0,0,83,4,1,0,0,83,6,1,0,0,83,2,0,0;                    23P     12
508,2,0,83,3,0,0,0,83,6,0,0;                                          25P     13
508,1,0,83,7,1,0;                                                     27P     14
508,1,0,83,8,0,0;                                                     29P     15
508,4,0,83,9,0,0,0,83,10,1,0,0,83,7,0,0,0,83,10,0,0;                  31P     16
508,1,0,83,9,1,0;                                                     33P     17
508,2,0,83,5,1,0,0,83,1,1,0;                                          35P     18
508,4,0,83,11,0,0,0,83,12,1,0,0,83,8,1,0,0,83,12,0,0;                 37P     19
508,1,0,83,11,1,0;                                                    39P     20
126,1,1,0,0,1,0,-0.128854994127465,-0.128854994127465,                41P     21
0.386564982382396,0.386564982382396,1.,1.,-2.57709988254931,          41P     22
-2.06120260900387,-9.,2.57709988254931,-2.06120260900387,-9.,         41P     23
-0.128854994127465,0.386564982382396,0.,0.,0.;                        41P     24
126,1,1,0,0,1,0,0.6,0.6,1.3,1.3,1.,1.,-2.57709988254931,              43P     25
-2.06120260900387,-9.,-2.57709988254931,-2.06120260900387,-2.,        43P     26
0.6,1.3,0.,0.,0.;                                                     43P     27
126,1,1,0,0,1,0,-0.256822175842571,-0.256822175842571,                45P     28
0.258597800667291,0.258597800667291,1.,1.,-2.57709988254931,          45P     29
-2.06120260900387,-2.,2.57709988254931,-2.06120260900387,-2.,         45P     30
-0.256822175842571,0.258597800667291,0.,0.,0.;                        45P     31
126,1,1,0,0,1,0,0.6,0.6,1.3,1.3,1.,1.,2.57709988254931,               47P     32
-2.06120260900387,-9.,2.57709988254931,-2.06120260900387,-2.,         47P     33
0.6,1.3,0.,0.,0.;                                                     47P     34
126,6,2,0,0,0,0,0.,0.,0.,1.4969495517964,1.4969495517964,             49P     35
2.9938991035928,2.9938991035928,4.49084865538919,                     49P     36
4.49084865538919,4.49084865538919,1.,0.732727669269364,1.,            49P     37
0.732727669269364,1.,0.732727669269363,1.,2.57709988254931,           49P     38
-2.06120260900387,-9.,4.49144505550825,0.332282970162722,-9.,         49P     39
2.24572252775412,2.4180013085889,-9.,4.16333634234434D-16,            49P     40
4.50371964701508,-9.,-2.24572252775412,2.4180013085889,-9.,           49P     41
-4.49144505550825,0.332282970162722,-9.,-2.57709988254931,            49P     42
-2.06120260900387,-9.,0.,4.49084865538919,0.,0.,0.;                   49P     43
126,6,2,0,0,0,0,0.,0.,0.,1.4969495517964,1.4969495517964,             51P     44
2.9938991035928,2.9938991035928,4.49084865538919,                     51P     45
4.49084865538919,4.49084865538919,1.,0.732727669269364,1.,            51P     46
0.732727669269364,1.,0.732727669269363,1.,2.57709988254931,           51P     47
-2.06120260900387,-2.,4.49144505550825,0.332282970162722,-2.,         51P     48
2.24572252775412,2.4180013085889,-2.,4.16333634234434D-16,            51P     49
4.50371964701508,-2.,-2.24572252775412,2.4180013085889,-2.,           51P     50
-4.49144505550825,0.332282970162722,-2.,-2.57709988254931,            51P     51
-2.06120260900387,-2.,0.,4.49084865538919,0.,0.,0.;                   51P     52
126,8,2,0,1,0,0,-3.14159265358979,-3.14159265358979,                  53P     53
-3.14159265358979,-1.5707963267949,-1.5707963267949,0.,0.,            53P     54
1.5707963267949,1.5707963267949,3.14159265358979,                     53P     55
3.14159265358979,3.14159265358979,1.,0.707106781186548,1.,            53P     56
0.707106781186548,1.,0.707106781186548,1.,0.707106781186548,1.,       53P     57
-5.,-6.12323399573677D-16,0.,-5.,-5.,0.,3.06161699786838D-16,         53P     58
-5.,0.,5.,-5.,0.,5.,0.,0.,5.,5.,0.,3.06161699786838D-16,5.,0.,        53P     59
-5.,5.,0.,-5.,6.12323399573677D-16,0.,-3.14159265358979,              53P     60
3.14159265358979,0.,0.,0.;                                            53P     61
126,8,2,0,1,0,0,-3.14159265358979,-3.14159265358979,                  55P     62
-3.14159265358979,-1.5707963267949,-1.5707963267949,0.,0.,            55P     63
1.5707963267949,1.5707963267949,3.14159265358979,                     55P     64
3.14159265358979,3.14159265358979,1.,0.707106781186548,1.,            55P     65
0.707106781186548,1.,0.707106781186548,1.,0.707106781186548,1.,       55P     66
-3.,-3.67394039744206D-16,0.,-3.,-3.,0.,1.83697019872103D-16,         55P     67
-3.,0.,3.,-3.,0.,3.,0.,0.,3.,3.,0.,1.83697019872103D-16,3.,0.,        55P     68
-3.,3.,0.,-3.,3.67394039744206D-16,0.,-3.14159265358979,              55P     69
3.14159265358979,0.,0.,0.;                                            55P     70
126,8,2,0,1,0,0,-3.14159265358979,-3.14159265358979,                  57P     71
-3.14159265358979,-1.5707963267949,-1.5707963267949,0.,0.,            57P     72
1.5707963267949,1.5707963267949,3.14159265358979,                     57P     73
3.14159265358979,3.14159265358979,1.,0.707106781186548,1.,            57P     74
0.707106781186548,1.,0.707106781186548,1.,0.707106781186548,1.,       57P     75
-5.,6.12323399573677D-16,-9.,-5.,5.,-9.,3.06161699786838D-16,5.,      57P     76
-9.,5.,5.,-9.,5.,0.,-9.,5.,-5.,-9.,3.06161699786838D-16,-5.,-9.,      57P     77
-5.,-5.,-9.,-5.,-6.12323399573677D-16,-9.,-3.14159265358979,          57P     78
3.14159265358979,0.,0.,0.;                                            57P     79
126,1,1,0,0,1,0,-1.8,-1.8,0.,0.,1.,1.,-5.,0.,-9.,-5.,0.,0.,-1.8,      59P     80
0.,0.,0.,0.;                                                          59P     81
126,8,2,0,1,0,0,-3.14159265358979,-3.14159265358979,                  61P     82
-3.14159265358979,-1.5707963267949,-1.5707963267949,0.,0.,            61P     83
1.5707963267949,1.5707963267949,3.14159265358979,                     61P     84
3.14159265358979,3.14159265358979,1.,0.707106781186548,1.,            61P     85
0.707106781186548,1.,0.707106781186548,1.,0.707106781186548,1.,       61P     86
-3.,-3.67394039744206D-16,11.,-3.,-3.,11.,1.83697019872103D-16,       61P     87
-3.,11.,3.,-3.,11.,3.,0.,11.,3.,3.,11.,1.83697019872103D-16,3.,       61P     88
11.,-3.,3.,11.,-3.,3.67394039744206D-16,11.,-3.14159265358979,        61P     89
3.14159265358979,0.,0.,0.;                                            61P     90
126,1,1,0,0,1,0,-3.66666666666667,-3.66666666666667,0.,0.,1.,1.,      63P     91
-3.,0.,11.,-3.,0.,0.,-3.66666666666667,0.,0.,0.,0.;                   63P     92
128,1,1,1,1,0,0,1,0,0,-0.001,-0.001,0.516419976509861,                65P     93
0.516419976509861,0.599,0.599,1.301,1.301,1.,1.,1.,1.,                65P     94
2.58709988254931,-2.06120260900387,-9.01,-2.58709988254931,           65P     95
-2.06120260900387,-9.01,2.58709988254931,-2.06120260900387,           65P     96
-1.99,-2.58709988254931,-2.06120260900387,-1.99,-0.001,               65P     97
0.516419976509861,0.599,1.301;                                        65P     98
128,1,6,1,2,0,0,0,0,0,1.81818181818182,1.81818181818182,              67P     99
3.93939393939394,3.93939393939394,0.,0.,0.,1.4969495517964,           67P    100
1.4969495517964,2.9938991035928,2.9938991035928,                      67P    101
4.49084865538919,4.49084865538919,4.49084865538919,1.,1.,             67P    102
0.732727669269364,0.732727669269364,1.,1.,0.732727669269364,          67P    103
0.732727669269364,1.,1.,0.732727669269364,0.732727669269364,1.,       67P    104
1.,2.57709988254931,-2.06120260900387,-9.,2.57709988254931,           67P    105
-2.06120260900387,-2.,4.49144505550825,0.332282970162722,-9.,         67P    106
4.49144505550825,0.332282970162722,-2.,2.24572252775412,              67P    107
2.4180013085889,-9.,2.24572252775412,2.4180013085889,-2.,             67P    108
2.77555756156289D-16,4.50371964701508,-9.,2.77555756156289D-16,       67P    109
4.50371964701508,-2.,-2.24572252775412,2.4180013085889,-9.,           67P    110
-2.24572252775412,2.4180013085889,-2.,-4.49144505550825,              67P    111
0.332282970162722,-9.,-4.49144505550825,0.332282970162722,-2.,        67P    112
-2.57709988254931,-2.06120260900387,-9.,-2.57709988254931,            67P    113
-2.06120260900387,-2.,1.81818181818182,3.93939393939394,0.,           67P    114
4.49084865538919;                                                     67P    115
128,1,1,1,1,0,0,1,0,0,-0.450144505550825,-0.450144505550825,          69P    116
0.450144505550825,0.450144505550825,-0.269060130450194,               69P    117
-0.269060130450194,0.389432095151701,0.389432095151701,1.,1.,1.,      69P    118
1.,4.50144505550825,-2.07120260900387,-2.,-4.50144505550825,          69P    119
-2.07120260900387,-2.,4.50144505550825,4.51371964701508,-2.,          69P    120
-4.50144505550825,4.51371964701508,-2.,-0.450144505550825,            69P    121
0.450144505550825,-0.269060130450194,0.389432095151701;               69P    122
128,1,1,1,1,0,0,1,0,0,-0.501,-0.501,0.501,0.501,-0.501,-0.501,        71P    123
0.501,0.501,1.,1.,1.,1.,-5.01,-5.01,0.,5.01,-5.01,0.,-5.01,5.01,      71P    124
0.,5.01,5.01,0.,-0.501,0.501,-0.501,0.501;                            71P    125
128,1,8,1,2,0,1,0,0,1,0.,0.,1.8,1.8,-3.14159265358979,                73P    126
-3.14159265358979,-3.14159265358979,-1.5707963267949,                 73P    127
-1.5707963267949,0.,0.,1.5707963267949,1.5707963267949,               73P    128
3.14159265358979,3.14159265358979,3.14159265358979,1.,1.,             73P    129
0.707106781186548,0.707106781186548,1.,1.,0.707106781186548,          73P    130
0.707106781186548,1.,1.,0.707106781186548,0.707106781186548,1.,       73P    131
1.,0.707106781186548,0.707106781186548,1.,1.,-5.,0.,-9.,-5.,0.,       73P    132
0.,-5.,5.,-9.,-5.,5.,0.,0.,5.,-9.,0.,5.,0.,5.,5.,-9.,5.,5.,0.,        73P    133
5.,0.,-9.,5.,0.,0.,5.,-5.,-9.,5.,-5.,0.,0.,-5.,-9.,0.,-5.,0.,         73P    134
-5.,-5.,-9.,-5.,-5.,0.,-5.,0.,-9.,-5.,0.,0.,0.,1.8,                   73P    135
-3.14159265358979,3.14159265358979;                                   73P    136
128,1,1,1,1,0,0,1,0,0,-0.501,-0.501,0.501,0.501,-0.501,-0.501,        75P    137
0.501,0.501,1.,1.,1.,1.,5.01,-5.01,-9.,-5.01,-5.01,-9.,5.01,          75P    138
5.01,-9.,-5.01,5.01,-9.,-0.501,0.501,-0.501,0.501;                    75P    139
128,1,8,1,2,0,1,0,0,1,0.,0.,3.66666666666667,3.66666666666667,        77P    140
-3.14159265358979,-3.14159265358979,-3.14159265358979,                77P    141
-1.5707963267949,-1.5707963267949,0.,0.,1.5707963267949,              77P    142
1.5707963267949,3.14159265358979,3.14159265358979,                    77P    143
3.14159265358979,1.,1.,0.707106781186548,0.707106781186548,1.,        77P    144
1.,0.707106781186548,0.707106781186548,1.,1.,0.707106781186548,       77P    145
0.707106781186548,1.,1.,0.707106781186548,0.707106781186548,1.,       77P    146
1.,-3.,0.,11.,-3.,0.,0.,-3.,-3.,11.,-3.,-3.,0.,0.,-3.,11.,0.,         77P    147
-3.,0.,3.,-3.,11.,3.,-3.,0.,3.,0.,11.,3.,0.,0.,3.,3.,11.,3.,3.,       77P    148
0.,0.,3.,11.,0.,3.,0.,-3.,3.,11.,-3.,3.,0.,-3.,0.,11.,-3.,0.,0.,      77P    149
0.,3.66666666666667,-3.14159265358979,3.14159265358979;               77P    150
128,1,1,1,1,0,0,1,0,0,-0.301,-0.301,0.301,0.301,-0.301,-0.301,        79P    151
0.301,0.301,1.,1.,1.,1.,-3.01,-3.01,11.,3.01,-3.01,11.,-3.01,         79P    152
3.01,11.,3.01,3.01,11.,-0.301,0.301,-0.301,0.301;                     79P    153
502,8,-2.57709988254931,-2.06120260900387,-9.,2.57709988254931,       81P    154
-2.06120260900387,-9.,-2.57709988254931,-2.06120260900387,-2.,        81P    155
2.57709988254931,-2.06120260900387,-2.,-5.,                           81P    156
-6.12323399573677D-16,0.,-3.,-3.67394039744206D-16,0.,-5.,            81P    157
-6.12323399573677D-16,-9.,-3.,-3.67394039744206D-16,11.;              81P    158
504,12,41,81,1,81,2,43,81,1,81,3,45,81,3,81,4,47,81,2,81,4,49,        83P    159
81,2,81,1,51,81,4,81,3,53,81,5,81,5,55,81,6,81,6,57,81,7,81,7,        83P    160
59,81,7,81,5,61,81,8,81,8,63,81,8,81,6;                               83P    161
406,1,5HBody1;                                                        85P    162
314,62.7450980392157,62.7450980392157,62.7450980392157,13HSteel       87P    163
- Satin;                                                              87P    164
S      1G      3D     88P    164                                        T      1
