                                                                        S      1
,,15HTappoVouxung v2,15HTappoVouxung v2,7Hunknown,7Hunknown,32,38,7,99, G      1
15,,1.,2,2HMM,1,0.08,15H20230101.152238,0.01,10000.,7Hunknown,7Hunknown,G      2
11,0,15H20210218.210412;                                                G      3
     186       1                                                00000000D      1
     186             -65       1       0                               0D      2
     514       2                                                00010000D      3
     514                       1       1                               0D      4
     510       3                                                00010000D      5
     510             -65       1       1                               0D      6
     510       4                                                00010000D      7
     510             -65       1       1                               0D      8
     510       5                                                00010000D      9
     510             -65       1       1                               0D     10
     510       6                                                00010000D     11
     510             -65       1       1                               0D     12
     510       7                                                00010000D     13
     510             -65       1       1                               0D     14
     510       8                                                00010000D     15
     510             -65       1       1                               0D     16
     508       9                                                00010000D     17
     508                       1       1                               0D     18
     508      10                                                00010000D     19
     508                       1       1                               0D     20
     508      11                                                00010000D     21
     508                       1       1                               0D     22
     508      12                                                00010000D     23
     508                       1       1                               0D     24
     508      13                                                00010000D     25
     508                       1       1                               0D     26
     508      14                                                00010000D     27
     508                       1       1                               0D     28
     508      15                                                00010000D     29
     508                       1       1                               0D     30
     126      16                                                00010000D     31
     126       0              10       0                               0D     32
     126      26                                                00010000D     33
     126       0               4       0                               0D     34
     126      30                                                00010000D     35
     126       0               9       0                               0D     36
     126      39                                                00010000D     37
     126       0              10       0                               0D     38
     126      49                                                00010000D     39
     126       0               3       0                               0D     40
     126      52                                                00010000D     41
     126       0              10       0                               0D     42
     126      62                                                00010000D     43
     126       0               2       0                               0D     44
     126      64                                                00010000D     45
     126       0              10       0                               0D     46
     128      74                                                00010000D     47
     128       0     -65      16       0                               0D     48
     128      90                                                00010000D     49
     128       0     -65      13       0                               0D     50
     128     103                                                00010000D     51
     128       0     -65       3       0                               0D     52
     128     106                                                00010000D     53
     128       0     -65      12       0                               0D     54
     128     118                                                00010000D     55
     128       0     -65       3       0                               0D     56
     128     121                                                00010000D     57
     128       0     -65       3       0                               0D     58
     502     124                                                00010000D     59
     502                       3       1                               0D     60
     504     127                                                00010001D     61
     504                       2       1                               0D     62
     406     129                                                00000000D     63
     406                       1      15                               0D     64
     314     130                                                00000200D     65
     314                       2       0                               0D     66
186,3,1,0,0,1,63;                                                      1P      1
514,6,5,1,7,1,9,1,11,1,13,1,15,1;                                      3P      2
510,47,1,1,17;                                                         5P      3
510,49,1,1,19;                                                         7P      4
510,51,1,1,21;                                                         9P      5
510,53,1,1,23;                                                        11P      6
510,55,1,1,25;                                                        13P      7
510,57,2,1,27,29;                                                     15P      8
508,4,0,61,1,1,0,0,61,2,1,0,0,61,3,1,0,0,61,2,0,0;                    17P      9
508,4,0,61,4,0,0,0,61,5,1,0,0,61,1,0,0,0,61,5,0,0;                    19P     10
508,1,0,61,3,0,0;                                                     21P     11
508,4,0,61,6,0,0,0,61,7,1,0,0,61,8,0,0,0,61,7,0,0;                    23P     12
508,1,0,61,6,1,0;                                                     25P     13
508,1,0,61,4,1,0;                                                     27P     14
508,1,0,61,8,1,0;                                                     29P     15
126,8,2,0,1,0,0,-3.14159265358979,-3.14159265358979,                  31P     16
-3.14159265358979,-1.5707963267949,-1.5707963267949,0.,0.,            31P     17
1.5707963267949,1.5707963267949,3.14159265358979,                     31P     18
3.14159265358979,3.14159265358979,1.,0.707106781186548,1.,            31P     19
0.707106781186548,1.,0.707106781186548,1.,0.707106781186548,1.,       31P     20
-5.5,6.73555739531044D-16,0.6,-5.5,5.5,0.6,3.36777869765522D-16,      31P     21
5.5,0.6,5.5,5.5,0.6,5.5,0.,0.6,5.5,-5.5,0.6,                          31P     22
3.36777869765522D-16,-5.5,0.6,-5.5,-5.5,0.6,-5.5,                     31P     23
-6.73555739531044D-16,0.6,-3.14159265358979,3.14159265358979,0.,      31P     24
0.,0.;                                                                31P     25
126,1,1,0,0,1,0,-0.0815892439830632,-0.0815892439830632,              33P     26
0.0815892439830631,0.0815892439830631,1.,1.,-5.5,0.,0.6,-4.9,0.,      33P     27
2.08166817117217D-16,-0.0815892439830632,0.0815892439830631,0.,       33P     28
0.,0.;                                                                33P     29
126,8,2,0,1,0,0,-3.14159265358979,-3.14159265358979,                  35P     30
-3.14159265358979,-1.5707963267949,-1.5707963267949,0.,0.,            35P     31
1.5707963267949,1.5707963267949,3.14159265358979,                     35P     32
3.14159265358979,3.14159265358979,1.,0.707106781186548,1.,            35P     33
0.707106781186548,1.,0.707106781186548,1.,0.707106781186548,1.,       35P     34
-4.9,-6.00076931582203D-16,0.,-4.9,-4.9,0.,3.00038465791102D-16,      35P     35
-4.9,0.,4.9,-4.9,0.,4.9,0.,0.,4.9,4.9,0.,3.00038465791102D-16,        35P     36
4.9,0.,-4.9,4.9,0.,-4.9,6.00076931582203D-16,0.,                      35P     37
-3.14159265358979,3.14159265358979,0.,0.,0.;                          35P     38
126,8,2,0,1,0,0,-3.14159265358979,-3.14159265358979,                  37P     39
-3.14159265358979,-1.5707963267949,-1.5707963267949,0.,0.,            37P     40
1.5707963267949,1.5707963267949,3.14159265358979,                     37P     41
3.14159265358979,3.14159265358979,1.,0.707106781186548,1.,            37P     42
0.707106781186548,1.,0.707106781186548,1.,0.707106781186548,1.,       37P     43
-5.5,-6.73555739531044D-16,1.8,-5.5,-5.5,1.8,                         37P     44
3.36777869765522D-16,-5.5,1.8,5.5,-5.5,1.8,5.5,0.,1.8,5.5,5.5,        37P     45
1.8,3.36777869765522D-16,5.5,1.8,-5.5,5.5,1.8,-5.5,                   37P     46
6.73555739531044D-16,1.8,-3.14159265358979,3.14159265358979,0.,       37P     47
0.,0.;                                                                37P     48
126,1,1,0,0,1,0,-0.327272727272727,-0.327272727272727,                39P     49
-0.109090909090909,-0.109090909090909,1.,1.,-5.5,0.,1.8,-5.5,0.,      39P     50
0.6,-0.327272727272727,-0.109090909090909,0.,0.,0.;                   39P     51
126,8,2,0,1,0,0,-3.14159265358979,-3.14159265358979,                  41P     52
-3.14159265358979,-1.5707963267949,-1.5707963267949,0.,0.,            41P     53
1.5707963267949,1.5707963267949,3.14159265358979,                     41P     54
3.14159265358979,3.14159265358979,1.,0.707106781186548,1.,            41P     55
0.707106781186548,1.,0.707106781186548,1.,0.707106781186548,1.,       41P     56
2.3,2.81668763803891D-16,4.,2.3,2.3,4.,-1.40834381901946D-16,         41P     57
2.3,4.,-2.3,2.3,4.,-2.3,0.,4.,-2.3,-2.3,4.,                           41P     58
-1.40834381901946D-16,-2.3,4.,2.3,-2.3,4.,2.3,                        41P     59
-2.81668763803891D-16,4.,-3.14159265358979,3.14159265358979,0.,       41P     60
0.,0.;                                                                41P     61
126,1,1,0,0,1,0,-0.956521739130435,-0.956521739130435,0.,0.,1.,       43P     62
1.,2.3,0.,4.,2.3,0.,1.8,-0.956521739130435,0.,0.,0.,0.;               43P     63
126,8,2,0,1,0,0,-3.14159265358979,-3.14159265358979,                  45P     64
-3.14159265358979,-1.5707963267949,-1.5707963267949,0.,0.,            45P     65
1.5707963267949,1.5707963267949,3.14159265358979,                     45P     66
3.14159265358979,3.14159265358979,1.,0.707106781186548,1.,            45P     67
0.707106781186548,1.,0.707106781186548,1.,0.707106781186548,1.,       45P     68
2.3,-2.81668763803891D-16,1.8,2.3,-2.3,1.8,                           45P     69
-1.40834381901946D-16,-2.3,1.8,-2.3,-2.3,1.8,-2.3,0.,1.8,-2.3,        45P     70
2.3,1.8,-1.40834381901946D-16,2.3,1.8,2.3,2.3,1.8,2.3,                45P     71
2.81668763803891D-16,1.8,-3.14159265358979,3.14159265358979,0.,       45P     72
0.,0.;                                                                45P     73
128,1,8,1,2,0,1,0,0,1,-0.0815892439830631,-0.0815892439830631,        47P     74
0.0815892439830632,0.0815892439830632,-3.14159265358979,              47P     75
-3.14159265358979,-3.14159265358979,-1.5707963267949,                 47P     76
-1.5707963267949,0.,0.,1.5707963267949,1.5707963267949,               47P     77
3.14159265358979,3.14159265358979,3.14159265358979,1.,1.,             47P     78
0.707106781186548,0.707106781186548,1.,1.,0.707106781186548,          47P     79
0.707106781186548,1.,1.,0.707106781186548,0.707106781186548,1.,       47P     80
1.,0.707106781186548,0.707106781186548,1.,1.,-5.5,0.,0.6,-4.9,        47P     81
0.,2.08166817117217D-16,-5.5,-5.5,0.6,-4.9,-4.9,                      47P     82
2.08166817117217D-16,0.,-5.5,0.6,0.,-4.9,2.08166817117217D-16,        47P     83
5.5,-5.5,0.6,4.9,-4.9,2.08166817117217D-16,5.5,0.,0.6,4.9,0.,         47P     84
2.08166817117217D-16,5.5,5.5,0.6,4.9,4.9,2.08166817117217D-16,        47P     85
0.,5.5,0.6,0.,4.9,2.08166817117217D-16,-5.5,5.5,0.6,-4.9,4.9,         47P     86
2.08166817117217D-16,-5.5,0.,0.6,-4.9,0.,2.08166817117217D-16,        47P     87
-0.0815892439830631,0.0815892439830632,-3.14159265358979,             47P     88
3.14159265358979;                                                     47P     89
128,1,8,1,2,0,1,0,0,1,0.109090909090909,0.109090909090909,            49P     90
0.327272727272727,0.327272727272727,-3.14159265358979,                49P     91
-3.14159265358979,-3.14159265358979,-1.5707963267949,                 49P     92
-1.5707963267949,0.,0.,1.5707963267949,1.5707963267949,               49P     93
3.14159265358979,3.14159265358979,3.14159265358979,1.,1.,             49P     94
0.707106781186548,0.707106781186548,1.,1.,0.707106781186548,          49P     95
0.707106781186548,1.,1.,0.707106781186548,0.707106781186548,1.,       49P     96
1.,0.707106781186548,0.707106781186548,1.,1.,-5.5,0.,1.8,-5.5,        49P     97
0.,0.6,-5.5,-5.5,1.8,-5.5,-5.5,0.6,0.,-5.5,1.8,0.,-5.5,0.6,5.5,       49P     98
-5.5,1.8,5.5,-5.5,0.6,5.5,0.,1.8,5.5,0.,0.6,5.5,5.5,1.8,5.5,5.5,      49P     99
0.6,0.,5.5,1.8,0.,5.5,0.6,-5.5,5.5,1.8,-5.5,5.5,0.6,-5.5,0.,1.8,      49P    100
-5.5,0.,0.6,0.109090909090909,0.327272727272727,                      49P    101
-3.14159265358979,3.14159265358979;                                   49P    102
128,1,1,1,1,0,0,1,0,0,-0.491,-0.491,0.491,0.491,-0.491,-0.491,        51P    103
0.491,0.491,1.,1.,1.,1.,4.91,-4.91,0.,-4.91,-4.91,0.,4.91,4.91,       51P    104
0.,-4.91,4.91,0.,-0.491,0.491,-0.491,0.491;                           51P    105
128,1,8,1,2,0,1,0,0,1,0.,0.,0.956521739130435,0.956521739130435,      53P    106
-3.14159265358979,-3.14159265358979,-3.14159265358979,                53P    107
-1.5707963267949,-1.5707963267949,0.,0.,1.5707963267949,              53P    108
1.5707963267949,3.14159265358979,3.14159265358979,                    53P    109
3.14159265358979,1.,1.,0.707106781186548,0.707106781186548,1.,        53P    110
1.,0.707106781186548,0.707106781186548,1.,1.,0.707106781186548,       53P    111
0.707106781186548,1.,1.,0.707106781186548,0.707106781186548,1.,       53P    112
1.,2.3,0.,4.,2.3,0.,1.8,2.3,2.3,4.,2.3,2.3,1.8,0.,2.3,4.,0.,2.3,      53P    113
1.8,-2.3,2.3,4.,-2.3,2.3,1.8,-2.3,0.,4.,-2.3,0.,1.8,-2.3,-2.3,        53P    114
4.,-2.3,-2.3,1.8,0.,-2.3,4.,0.,-2.3,1.8,2.3,-2.3,4.,2.3,-2.3,         53P    115
1.8,2.3,0.,4.,2.3,0.,1.8,0.,0.956521739130435,-3.14159265358979,      53P    116
3.14159265358979;                                                     53P    117
128,1,1,1,1,0,0,1,0,0,-0.231,-0.231,0.231,0.231,-0.231,-0.231,        55P    118
0.231,0.231,1.,1.,1.,1.,2.31,2.31,4.,-2.31,2.31,4.,2.31,-2.31,        55P    119
4.,-2.31,-2.31,4.,-0.231,0.231,-0.231,0.231;                          55P    120
128,1,1,1,1,0,0,1,0,0,-0.551,-0.551,0.551,0.551,-0.551,-0.551,        57P    121
0.551,0.551,1.,1.,1.,1.,-5.51,-5.51,1.8,5.51,-5.51,1.8,-5.51,         57P    122
5.51,1.8,5.51,5.51,1.8,-0.551,0.551,-0.551,0.551;                     57P    123
502,5,-5.5,6.73555739531044D-16,0.6,-4.9,-6.00076931582203D-16,       59P    124
0.,-5.5,-6.73555739531044D-16,1.8,2.3,2.81668763803891D-16,4.,        59P    125
2.3,2.81668763803891D-16,1.8;                                         59P    126
504,8,31,59,1,59,1,33,59,1,59,2,35,59,2,59,2,37,59,3,59,3,39,59,      61P    127
3,59,1,41,59,4,59,4,43,59,4,59,5,45,59,5,59,5;                        61P    128
406,1,5HBody1;                                                        63P    129
314,62.7450980392157,62.7450980392157,62.7450980392157,13HSteel       65P    130
- Satin;                                                              65P    131
S      1G      3D     66P    131                                        T      1
