0
SECTION
2
HEADER
9
$INSUNITS
70
4
9
$ACADVER
1
AC1014
9
$HANDSEED
5
FFFF
0
ENDSEC
0
SECTION
2
TABLES
0
TABLE
2
VPORT
5
8
100
AcDbSymbolTable
0
ENDTAB
0
TABLE
2
LTYPE
5
5
100
AcDbSymbolTable
0
LTYPE
5
14
100
AcDbSymbolTableRecord
100
AcDbLinetypeTableRecord
2
BYBLOCK
70
0
0
LTYPE
5
15
100
AcDbSymbolTableRecord
100
AcDbLinetypeTableRecord
2
BYLAYER
70
0
0
ENDTAB
0
TABLE
2
LAYER
5
2
100
AcDbSymbolTable
70
2
0
LAYER
5
50
100
AcDbSymbolTableRecord
100
AcDbLayerTableRecord
2
0
70
0
6
CONTINUOUS
0
ENDTAB
0
TABLE
2
STYLE
5
3
100
AcDbSymbolTable
70
1
0
STYLE
5
11
100
AcDbSymbolTableRecord
100
AcDbTextStyleTableRecord
2
STANDARD
70
0
0
ENDTAB
0
TABLE
2
VIEW
5
6
100
AcDbSymbolTable
70
0
0
ENDTAB
0
TABLE
2
UCS
5
7
100
AcDbSymbolTable
70
0
0
ENDTAB
0
TABLE
2
APPID
5
9
100
AcDbSymbolTable
70
2
0
APPID
5
12
100
AcDbSymbolTableRecord
100
AcDbRegAppTableRecord
2
ACAD
70
0
0
ENDTAB
0
TABLE
2
DIMSTYLE
5
A
100
AcDbSymbolTable
70
1
0
ENDTAB
0
TABLE
2
BLOCK_RECORD
5
1
100
AcDbSymbolTable
70
1
0
BLOCK_RECORD
5
1F
100
AcDbSymbolTableRecord
100
AcDbBlockTableRecord
2
*MODEL_SPACE
0
BLOCK_RECORD
5
1B
100
AcDbSymbolTableRecord
100
AcDbBlockTableRecord
2
*PAPER_SPACE
0
ENDTAB
0
ENDSEC
0
SECTION
2
BLOCKS
0
BLOCK
5
20
100
AcDbEntity
100
AcDbBlockBegin
2
*MODEL_SPACE
0
ENDBLK
5
21
100
AcDbEntity
100
AcDbBlockEnd
0
BLOCK
5
1C
100
AcDbEntity
100
AcDbBlockBegin
2
*PAPER_SPACE
0
ENDBLK
5
1D
100
AcDbEntity
100
AcDbBlockEnd
0
ENDSEC
0
SECTION
2
ENTITIES
0
LWPOLYLINE
5
100
100
AcDbEntity
8
0
100
AcDbPolyline
90
4
70
1
43
0.0
10
16.299999999999518
20
0
10
-16.300000000000484
20
0
10
-16.300000000000484
20
-10.4
10
16.299999999999514
20
-10.4
0
LINE
5
101
100
AcDbEntity
8
0
100
AcDbLine
10
-12.300000000000484
20
0
30
0
11
-5.3000000000004821
21
0
31
0
0
LWPOLYLINE
5
102
100
AcDbEntity
8
0
100
AcDbPolyline
90
4
70
1
43
0.0
10
-4.3000000000004839
20
-2.4000000000000004
10
-12.300000000000484
20
-2.4000000000000004
10
-12.300000000000484
20
-6.4000000000000004
10
-4.3000000000004839
20
-6.4000000000000004
0
LWPOLYLINE
5
103
100
AcDbEntity
8
0
100
AcDbPolyline
90
4
70
1
43
0.0
10
13.560388283668633
20
-3.0012833689593448
10
13.560388283668633
20
-6.0012834881686334
10
13.163389647244095
20
-6.0012834881686334
10
13.163389647244095
20
-3.0012833689593448
0
LWPOLYLINE
5
104
100
AcDbEntity
8
0
100
AcDbPolyline
90
10
70
1
43
0.0
10
12.467618891833897
20
-3.0012833689593457
10
12.467618891833897
20
-6.0012834881686334
10
12.060388335822701
20
-6.0012834881686334
10
10.484672048925042
20
-3.6458944891833456
10
10.484672048925038
20
-6.0012834881686352
10
10.104044535993218
20
-6.0012834881686352
10
10.104044535993218
20
-3.0012833689593461
10
10.511275092004414
20
-3.0012833689593461
10
12.086991378902074
20
-5.3587185953997754
10
12.086991378902077
20
-3.0012833689593457
0
LINE
5
105
100
AcDbEntity
8
0
100
AcDbLine
10
9.5842628272758699
20
-3.7932341908358724
30
0
11
9.2159135731445527
21
-3.8423475240611227
31
0
0
SPLINE
5
106
100
AcDbEntity
8
0
100
AcDbSpline
70
0
71
3
72
9
73
5
74
0
42
0.000000001
43
0.0000000001
44
0.0000000001
40
0
40
0
40
0
40
0
40
0.028265802800108777
40
0.050633189008016943
40
0.050633189008016943
40
0.050633189008016943
40
0.050633189008016943
10
9.2159135731445527
20
-3.8423475240611227
30
0
10
9.194685146278152
20
-3.7488851930257399
30
0
10
9.1566581722179929
20
-3.5814639488491484
30
0
10
9.0480138791925402
20
-3.449441066132529
30
0
10
9.0000198873268342
20
-3.3911195014857443
30
0
0
SPLINE
5
107
100
AcDbEntity
8
0
100
AcDbSpline
70
0
71
3
72
9
73
5
74
0
42
0.000000001
43
0.0000000001
44
0.0000000001
40
0
40
0
40
0
40
0
40
0.019829627699750635
40
0.04035582551837176
40
0.04035582551837176
40
0.04035582551837176
40
0.04035582551837176
10
9.0000198873268342
20
-3.3911195014857443
30
0
10
8.9458201378172255
20
-3.3508346537542004
30
0
10
8.8355167237810281
20
-3.2688498424050305
30
0
10
8.69836223048706
20
-3.2583362497862982
30
0
10
8.6286012920128083
20
-3.2529887174510153
30
0
0
SPLINE
5
108
100
AcDbEntity
8
0
100
AcDbSpline
70
0
71
3
72
9
73
5
74
0
42
0.000000001
43
0.0000000001
44
0.0000000001
40
0
40
0
40
0
40
0
40
0.024387434101597136
40
0.048459974363477133
40
0.048459974363477133
40
0.048459974363477133
40
0.048459974363477133
10
8.6286012920128083
20
-3.2529887174510153
30
0
10
8.5455357613692211
20
-3.2602952550257562
30
0
10
8.3804772534217538
20
-3.274813987176203
30
0
10
8.2529841511094144
20
-3.3805473098236529
30
0
10
8.1896518262611604
20
-3.4330704425715597
30
0
0
SPLINE
5
109
100
AcDbEntity
8
0
100
AcDbSpline
70
0
71
3
72
9
73
5
74
0
42
0.000000001
43
0.0000000001
44
0.0000000001
40
0
40
0
40
0
40
0
40
0.024220864874127321
40
0.049081506792131677
40
0.049081506792131677
40
0.049081506792131677
40
0.049081506792131677
10
8.1896518262611604
20
-3.4330704425715597
30
0
10
8.1374288875986256
20
-3.4972433068503586
30
0
10
8.0316035782221515
20
-3.6272841163069569
30
0
10
8.0176570681858497
20
-3.7944899289546092
30
0
10
8.0105929168449617
20
-3.8791825984858663
30
0
0
SPLINE
5
110
100
AcDbEntity
8
0
100
AcDbSpline
70
0
71
3
72
9
73
5
74
0
42
0.000000001
43
0.0000000001
44
0.0000000001
40
0
40
0
40
0
40
0
40
0.023517691160257124
40
0.045972028208110194
40
0.045972028208110194
40
0.045972028208110194
40
0.045972028208110194
10
8.0105929168449617
20
-3.8791825984858663
30
0
10
8.0168375500659064
20
-3.9593882481626927
30
0
10
8.0290444649635599
20
-4.1161730432459773
30
0
10
8.1280115085235121
20
-4.2381099335336447
30
0
10
8.1763504537330842
20
-4.2976681505583914
30
0
0
SPLINE
5
111
100
AcDbEntity
8
0
100
AcDbSpline
70
0
71
3
72
9
73
5
74
0
42
0.000000001
43
0.0000000001
44
0.0000000001
40
0
40
0
40
0
40
0
40
0.022518717255701568
40
0.046208226777963192
40
0.046208226777963192
40
0.046208226777963192
40
0.046208226777963192
10
8.1763504537330842
20
-4.2976681505583914
30
0
10
8.236386000072546
20
-4.3457069467367671
30
0
10
8.3595784585279844
20
-4.4442821703050059
30
0
10
8.5171324849920484
20
-4.4562609710200398
30
0
10
8.5979054959999299
20
-4.4624021266841085
30
0
0
SPLINE
5
112
100
AcDbEntity
8
0
100
AcDbSpline
70
0
71
3
72
9
73
5
74
0
42
0.000000001
43
0.0000000001
44
0.0000000001
40
0
40
0
40
0
40
0
40
0.011760127080715898
40
0.02635998373840048
40
0.02635998373840048
40
0.02635998373840048
40
0.02635998373840048
10
8.5979054959999299
20
-4.4624021266841085
30
0
10
8.6371195591821373
20
-4.460069174018785
30
0
10
8.7250167443660107
20
-4.4548399282888447
30
0
10
8.8104677706645216
20
-4.43336734684231
30
0
10
8.8577960523353791
20
-4.4214744483374746
30
0
0
LINE
5
113
100
AcDbEntity
8
0
100
AcDbLine
10
8.8577960523353791
20
-4.4214744483374755
30
0
11
8.8168685230003572
21
-4.7448032711886556
31
0
0
SPLINE
5
114
100
AcDbEntity
8
0
100
AcDbSpline
70
0
71
3
72
9
73
5
74
0
42
0.000000001
43
0.0000000001
44
0.0000000001
40
0
40
0
40
0
40
0
40
0.0033395390492613679
40
0.0059506785394555662
40
0.0059506785394555662
40
0.0059506785394555662
40
0.0059506785394555662
10
8.8168685230003572
20
-4.7448032711886556
30
0
10
8.8057946700278453
20
-4.7436154153037418
30
0
10
8.7860623242577933
20
-4.7414987912972375
30
0
10
8.7662268873168472
20
-4.7409509217374648
30
0
10
8.7575231584297395
20
-4.7407105182551534
30
0
0
SPLINE
5
115
100
AcDbEntity
8
0
100
AcDbSpline
70
0
71
3
72
9
73
5
74
0
42
0.000000001
43
0.0000000001
44
0.0000000001
40
0
40
0
40
0
40
0
40
0.022566491221270423
40
0.044587747838011518
40
0.044587747838011518
40
0.044587747838011518
40
0.044587747838011518
10
8.7575231584297395
20
-4.7407105182551534
30
0
10
8.6814333142929527
20
-4.7455716109941637
30
0
10
8.5310920516598454
20
-4.7551763464020276
30
0
10
8.3991072910580051
20
-4.8276833647398378
30
0
10
8.3339218887077546
20
-4.8634935532950552
30
0
0
SPLINE
5
116
100
AcDbEntity
8
0
100
AcDbSpline
70
0
71
3
72
9
73
5
74
0
42
0.000000001
43
0.0000000001
44
0.0000000001
40
0
40
0
40
0
40
0
40
0.021044008972283885
40
0.043790731383459555
40
0.043790731383459555
40
0.043790731383459555
40
0.043790731383459555
10
8.3339218887077546
20
-4.8634935532950552
30
0
10
8.2790334892548678
20
-4.9115132498295715
30
0
10
8.164815558646918
20
-5.0114380139193306
30
0
10
8.1522046768201744
20
-5.1632284438641074
30
0
10
8.1456540616737581
20
-5.2420746897601278
30
0
0
SPLINE
5
117
100
AcDbEntity
8
0
100
AcDbSpline
70
0
71
3
72
9
73
5
74
0
42
0.000000001
43
0.0000000001
44
0.0000000001
40
0
40
0
40
0
40
0
40
0.01883431983350568
40
0.037054396806099954
40
0.037054396806099954
40
0.037054396806099954
40
0.037054396806099954
10
8.1456540616737581
20
-5.2420746897601278
30
0
10
8.1509784389969617
20
-5.3063248885747409
30
0
10
8.161453549955219
20
-5.4327298972394118
30
0
10
8.2427752206720601
20
-5.5299013106361521
30
0
10
8.2827620300041431
20
-5.5776816224002035
30
0
0
SPLINE
5
118
100
AcDbEntity
8
0
100
AcDbSpline
70
0
71
3
72
9
73
5
74
0
42
0.000000001
43
0.0000000001
44
0.0000000001
40
0
40
0
40
0
40
0
40
0.018606501915648041
40
0.038581717701818508
40
0.038581717701818508
40
0.038581717701818508
40
0.038581717701818508
10
8.2827620300041431
20
-5.5776816224002035
30
0
10
8.332992730076878
20
-5.6164642545713086
30
0
10
8.4371491534044232
20
-5.6968824101678024
30
0
10
8.5686854682865103
20
-5.7059843954538749
30
0
10
8.6367867978798145
20
-5.7106968377970846
30
0
0
SPLINE
5
119
100
AcDbEntity
8
0
100
AcDbSpline
70
0
71
3
72
9
73
5
74
0
42
0.000000001
43
0.0000000001
44
0.0000000001
40
0
40
0
40
0
40
0
40
0.019983736858788816
40
0.039018234706413392
40
0.039018234706413392
40
0.039018234706413392
40
0.039018234706413392
10
8.6367867978798145
20
-5.7106968377970846
30
0
10
8.7048123593295674
20
-5.7056373912943865
30
0
10
8.8376322288783768
20
-5.6957588249120477
30
0
10
8.9433372907192865
20
-5.61502181257885
30
0
10
8.9949040206657642
20
-5.5756353949450643
30
0
0
SPLINE
5
120
100
AcDbEntity
8
0
100
AcDbSpline
70
0
71
3
72
9
73
5
74
0
42
0.000000001
43
0.0000000001
44
0.0000000001
40
0
40
0
40
0
40
0
40
0.020578644762641211
40
0.045132277174334989
40
0.045132277174334989
40
0.045132277174334989
40
0.045132277174334989
10
8.9949040206657642
20
-5.5756353949450643
30
0
10
9.038832510170856
20
-5.5215839154843325
30
0
10
9.1351747517062627
20
-5.4030403291188573
30
0
10
9.1636093311132782
20
-5.2524033293232888
30
0
10
9.1790787967430347
20
-5.1704512154006155
30
0
0
LINE
5
121
100
AcDbEntity
8
0
100
AcDbLine
10
9.1790787967430347
20
-5.1704512154006146
30
0
11
9.547427752851128
21
-5.2359355603598745
31
0
0
SPLINE
5
122
100
AcDbEntity
8
0
100
AcDbSpline
70
0
71
3
72
9
73
5
74
0
42
0.000000001
43
0.0000000001
44
0.0000000001
40
0
40
0
40
0
40
0
40
0.034677858225620396
40
0.066105677184617712
40
0.066105677184617712
40
0.066105677184617712
40
0.066105677184617712
10
9.547427752851128
20
-5.2359355603598745
30
0
10
9.5198834373448999
20
-5.3505753012603394
30
0
10
9.4673762837231497
20
-5.5691106460670561
30
0
10
9.3135851438866375
20
-5.7323428272341372
30
0
10
9.2404700907455677
20
-5.8099463199519308
30
0
0
SPLINE
5
123
100
AcDbEntity
8
0
100
AcDbSpline
70
0
71
3
72
9
73
5
74
0
42
0.000000001
43
0.0000000001
44
0.0000000001
40
0
40
0
40
0
40
0
40
0.030896636200920723
40
0.063981581886734501
40
0.063981581886734501
40
0.063981581886734501
40
0.063981581886734501
10
9.2404700907455677
20
-5.8099463199519308
30
0
10
9.1538945437660821
20
-5.8693149603330772
30
0
10
8.9746115819434724
20
-5.9922571311684028
30
0
10
8.7573292396318063
20
-6.006300108232784
30
0
10
8.6449723037468189
20
-6.0135617469691427
30
0
0
SPLINE
5
124
100
AcDbEntity
8
0
100
AcDbSpline
70
0
71
3
72
9
73
5
74
0
42
0.000000001
43
0.0000000001
44
0.0000000001
40
0
40
0
40
0
40
0
40
0.023731314808504669
40
0.046770109359029977
40
0.046770109359029977
40
0.046770109359029977
40
0.046770109359029977
10
8.6449723037468189
20
-6.0135617469691427
30
0
10
8.5652629637384425
20
-6.009436492010888
30
0
10
8.4081703382682438
20
-6.0013063640728319
30
0
10
8.2638253224054417
20
-5.938909477505697
30
0
10
8.1927214654670948
20
-5.9081729864024313
30
0
0
SPLINE
5
125
100
AcDbEntity
8
0
100
AcDbSpline
70
0
71
3
72
9
73
5
74
0
42
0.000000001
43
0.0000000001
44
0.0000000001
40
0
40
0
40
0
40
0
40
0.022086797260766601
40
0.043169576856704001
40
0.043169576856704001
40
0.043169576856704001
40
0.043169576856704001
10
8.1927214654670948
20
-5.9081729864024313
30
0
10
8.1283256543346063
20
-5.870581888321845
30
0
10
8.002461325291673
20
-5.7971085015488191
30
0
10
7.9178676872612721
20
-5.6785541919129257
30
0
10
7.8765545877205128
20
-5.6206556772135885
30
0
0
SPLINE
5
126
100
AcDbEntity
8
0
100
AcDbSpline
70
0
71
3
72
9
73
5
74
0
42
0.000000001
43
0.0000000001
44
0.0000000001
40
0
40
0
40
0
40
0
40
0.020492514375805147
40
0.040580945663019563
40
0.040580945663019563
40
0.040580945663019563
40
0.040580945663019563
10
7.8765545877205128
20
-5.6206556772135885
30
0
10
7.844623555240692
20
-5.5593547128466483
30
0
10
7.7813911245948164
20
-5.4379615514978097
30
0
10
7.771814168980768
20
-5.3014602376985485
30
0
10
7.7670733722435212
20
-5.2338891838931234
30
0
0
SPLINE
5
127
100
AcDbEntity
8
0
100
AcDbSpline
70
0
71
3
72
9
73
5
74
0
42
0.000000001
43
0.0000000001
44
0.0000000001
40
0
40
0
40
0
40
0
40
0.01875333475919912
40
0.03731586904824398
40
0.03731586904824398
40
0.03731586904824398
40
0.03731586904824398
10
7.7670733722435212
20
-5.2338891838931234
30
0
10
7.7713323040697606
20
-5.1706739981978274
30
0
10
7.7798068364318196
20
-5.0448867917326456
30
0
10
7.840999053875267
20
-4.9346842470383638
30
0
10
7.8714387210594392
20
-4.8798647140406759
30
0
0
SPLINE
5
128
100
AcDbEntity
8
0
100
AcDbSpline
70
0
71
3
72
9
73
5
74
0
42
0.000000001
43
0.0000000001
44
0.0000000001
40
0
40
0
40
0
40
0
40
0.019306168729754217
40
0.040390951018310681
40
0.040390951018310681
40
0.040390951018310681
40
0.040390951018310681
10
7.8714387210594392
20
-4.8798647140406759
30
0
10
7.9117960104890637
20
-4.8287647678690533
30
0
10
7.9962285731275298
20
-4.7218572062628308
30
0
10
8.117261569440883
20
-4.6589510841491952
30
0
10
8.1804429086433625
20
-4.6261129890822561
30
0
0
SPLINE
5
129
100
AcDbEntity
8
0
100
AcDbSpline
70
0
71
3
72
9
73
5
74
0
42
0.000000001
43
0.0000000001
44
0.0000000001
40
0
40
0
40
0
40
0
40
0.025450779192522515
40
0.049337343062218722
40
0.049337343062218722
40
0.049337343062218722
40
0.049337343062218722
10
8.1804429086433625
20
-4.6261129890822561
30
0
10
8.0975514495193295
20
-4.6012268563257237
30
0
10
7.9368630743307254
20
-4.552984102734051
30
0
10
7.8224609189240564
20
-4.4305932553497023
30
0
10
7.7670733722435212
20
-4.3713380013846548
30
0
0
SPLINE
5
130
100
AcDbEntity
8
0
100
AcDbSpline
70
0
71
3
72
9
73
5
74
0
42
0.000000001
43
0.0000000001
44
0.0000000001
40
0
40
0
40
0
40
0
40
0.024412677904070382
40
0.051294784760487794
40
0.051294784760487794
40
0.051294784760487794
40
0.051294784760487794
10
7.7670733722435212
20
-4.3713380013846548
30
0
10
7.7241262256257706
20
-4.3006913545748713
30
0
10
7.6338876761929209
20
-4.1522519020740924
30
0
10
7.6246007033313319
20
-3.9784517277561804
30
0
10
7.6197336705909944
20
-3.8873681043528712
30
0
0
SPLINE
5
131
100
AcDbEntity
8
0
100
AcDbSpline
70
0
71
3
72
9
73
5
74
0
42
0.000000001
43
0.0000000001
44
0.0000000001
40
0
40
0
40
0
40
0
40
0.036997662018697176
40
0.074152905617685422
40
0.074152905617685422
40
0.074152905617685422
40
0.074152905617685422
10
7.6197336705909944
20
-3.8873681043528712
30
0
10
7.6317720393802588
20
-3.7612911496837835
30
0
10
7.6559000511494943
20
-3.5086002495015665
30
0
10
7.8226665337901222
20
-3.3171822151423709
30
0
10
7.9062269719825959
20
-3.2212698077105673
30
0
0
SPLINE
5
132
100
AcDbEntity
8
0
100
AcDbSpline
70
0
71
3
72
9
73
5
74
0
42
0.000000001
43
0.0000000001
44
0.0000000001
40
0
40
0
40
0
40
0
40
0.038364843314558264
40
0.078950455399057484
40
0.078950455399057484
40
0.078950455399057484
40
0.078950455399057484
10
7.9062269719825959
20
-3.2212698077105673
30
0
10
8.009985201481749
20
-3.1416062478963309
30
0
10
8.2235077591836756
20
-2.9776677619633682
30
0
10
8.4924129537595956
20
-2.9581240221151521
30
0
10
8.6306475194679475
20
-2.9480772828005941
30
0
0
SPLINE
5
133
100
AcDbEntity
8
0
100
AcDbSpline
70
0
71
3
72
9
73
5
74
0
42
0.000000001
43
0.0000000001
44
0.0000000001
40
0
40
0
40
0
40
0
40
0.036619957380208804
40
0.070947468812367298
40
0.070947468812367298
40
0.070947468812367298
40
0.070947468812367298
10
8.6306475194679475
20
-2.9480772828005941
30
0
10
8.755202288858273
20
-2.9565520924961888
30
0
10
8.996514574533613
20
-2.9729711803265291
30
0
10
9.1919523687341425
20
-3.114792308809049
30
0
10
9.2865137847648835
20
-3.183411619558254
30
0
0
SPLINE
5
134
100
AcDbEntity
8
0
100
AcDbSpline
70
0
71
3
72
9
73
5
74
0
42
0.000000001
43
0.0000000001
44
0.0000000001
40
0
40
0
40
0
40
0
40
0.033904003746887942
40
0.069120169710126106
40
0.069120169710126106
40
0.069120169710126106
40
0.069120169710126106
10
9.2865137847648835
20
-3.183411619558254
30
0
10
9.3642542322361813
20
-3.2687993342911899
30
0
10
9.5227438596758471
20
-3.4428794629262063
30
0
10
9.5634986116370175
20
-3.6749805626588419
30
0
10
9.5842628272758699
20
-3.7932341908358724
30
0
0
LWPOLYLINE
5
135
100
AcDbEntity
8
0
100
AcDbPolyline
90
8
70
1
43
0.0
10
7.4355588945137239
20
-3.001283368959347
10
6.2834440263496631
20
-6.0012834881686361
10
5.8557497056709522
20
-6.0012834881686361
10
4.6279190572487092
20
-3.0012833689593474
10
5.0801698955284333
20
-3.0012833689593474
10
5.4301016124473787
20
-3.9098780964755218
10
6.68453560197222
20
-3.9098780964755213
10
7.0140038522468782
20
-3.001283368959347
0
LINE
5
136
100
AcDbEntity
8
0
100
AcDbLine
10
6.5699379237877107
20
-4.2332070683383147
30
0
11
5.5528847964988923
21
-4.2332070683383147
31
0
0
LINE
5
137
100
AcDbEntity
8
0
100
AcDbLine
10
5.5528847964988923
20
-4.2332070683383147
30
0
11
5.865981438993094
21
-5.0640391920947234
31
0
0
SPLINE
5
138
100
AcDbEntity
8
0
100
AcDbSpline
70
0
71
3
72
9
73
5
74
0
42
0.000000001
43
0.0000000001
44
0.0000000001
40
0
40
0
40
0
40
0
40
0.036671583191180523
40
0.065762841099221897
40
0.065762841099221897
40
0.065762841099221897
40
0.065762841099221897
10
5.865981438993094
20
-5.0640391920947225
30
0
10
5.9088839378749105
20
-5.1785389689869943
30
0
10
5.9858206275731902
20
-5.3838704539792683
30
0
10
6.0502877207850245
20
-5.5934357272688988
30
0
10
6.0788057836281055
20
-5.6861403201960714
30
0
0
SPLINE
5
139
100
AcDbEntity
8
0
100
AcDbSpline
70
0
71
3
72
9
73
5
74
0
42
0.000000001
43
0.0000000001
44
0.0000000001
40
0
40
0
40
0
40
0
40
0.029569624493766527
40
0.059580954848599446
40
0.059580954848599446
40
0.059580954848599446
40
0.059580954848599446
10
6.0788057836281055
20
-5.6861403201960714
30
0
10
6.0999941535725082
20
-5.5897844661665106
30
0
10
6.1426874016128696
20
-5.3956334112708433
30
0
10
6.2077152846149151
20
-5.2077769485020999
30
0
10
6.2404702695595002
20
-5.1131523763083608
30
0
0
LINE
5
140
100
AcDbEntity
8
0
100
AcDbLine
10
6.2404702695595002
20
-5.1131523763083608
30
0
11
6.5699379237877107
21
-4.2332070683383147
31
0
0
SPLINE
5
141
100
AcDbEntity
8
0
100
AcDbSpline
70
0
71
3
72
9
73
5
74
0
42
0.000000001
43
0.0000000001
44
0.0000000001
40
0
40
0
40
0
40
0
40
0.031246978574836937
40
0.058163665140594775
40
0.058163665140594775
40
0.058163665140594775
40
0.058163665140594775
10
2.0371960195289818
20
-3.3225658153437787
30
0
10
1.9502812295544958
20
-3.2647097035331676
30
0
10
1.788496539628921
20
-3.1570153386002611
30
0
10
1.610170342854973
20
-3.0799304010271795
30
0
10
1.5276454480873314
20
-3.0442574237727338
30
0
0
LINE
5
142
100
AcDbEntity
8
0
100
AcDbLine
10
1.5276454480873314
20
-3.0442574237727342
30
0
11
1.6442893537269798
21
-2.7679955576800519
31
0
0
SPLINE
5
143
100
AcDbEntity
8
0
100
AcDbSpline
70
0
71
3
72
9
73
5
74
0
42
0.000000001
43
0.0000000001
44
0.0000000001
40
0
40
0
40
0
40
0
40
0.035613782367396339
40
0.074478792159989177
40
0.074478792159989177
40
0.074478792159989177
40
0.074478792159989177
10
1.6442893537269798
20
-2.7679955576800519
30
0
10
1.7541221770810922
20
-2.8142030963955689
30
0
10
1.9838146017313973
20
-2.9108365187238929
30
0
10
2.1842880892671057
20
-3.0590191718719013
30
0
10
2.2889004739509788
20
-3.136344811811369
30
0
0
SPLINE
5
144
100
AcDbEntity
8
0
100
AcDbSpline
70
0
71
3
72
9
73
5
74
0
42
0.000000001
43
0.0000000001
44
0.0000000001
40
0
40
0
40
0
40
0
40
0.037772419145232737
40
0.076626798543752428
40
0.076626798543752428
40
0.076626798543752428
40
0.076626798543752428
10
2.2889004739509788
20
-3.136344811811369
30
0
10
2.4039095827266266
20
-3.0820334771015938
30
0
10
2.6372221427446485
20
-2.9718551036316083
30
0
10
2.8949275111905393
20
-2.957435441304344
30
0
10
3.0255995782600609
20
-2.9501238082789589
30
0
0
SPLINE
5
145
100
AcDbEntity
8
0
100
AcDbSpline
70
0
71
3
72
9
73
5
74
0
42
0.000000001
43
0.0000000001
44
0.0000000001
40
0
40
0
40
0
40
0
40
0.039139527406991274
40
0.077155219372439465
40
0.077155219372439465
40
0.077155219372439465
40
0.077155219372439465
10
3.0255995782600609
20
-2.9501238082789589
30
0
10
3.1573583722618559
20
-2.9578219214895145
30
0
10
3.4170926953094183
20
-2.9729971076213784
30
0
10
3.6497232658637602
20
-3.0892813275187296
30
0
10
3.7643443139778343
20
-3.1465765451335121
30
0
0
SPLINE
5
146
100
AcDbEntity
8
0
100
AcDbSpline
70
0
71
3
72
9
73
5
74
0
42
0.000000001
43
0.0000000001
44
0.0000000001
40
0
40
0
40
0
40
0
40
0.037676109531230337
40
0.076032978995323408
40
0.076032978995323408
40
0.076032978995323408
40
0.076032978995323408
10
3.7643443139778343
20
-3.1465765451335121
30
0
10
3.8687584694432076
20
-3.2192345737981487
30
0
10
4.0794734128938384
20
-3.3658634703597916
30
0
10
4.2093814977693249
20
-3.5873604838169895
30
0
10
4.2749171050773835
20
-3.6991005753420998
30
0
0
SPLINE
5
147
100
AcDbEntity
8
0
100
AcDbSpline
70
0
71
3
72
9
73
5
74
0
42
0.000000001
43
0.0000000001
44
0.0000000001
40
0
40
0
40
0
40
0
40
0.040169467443013744
40
0.082765521423986493
40
0.082765521423986493
40
0.082765521423986493
40
0.082765521423986493
10
4.2749171050773835
20
-3.6991005753420998
30
0
10
4.3271303784664985
20
-3.8236044937677476
30
0
10
4.4347110628117372
20
-4.0801334542884931
30
0
10
4.4474300619628346
20
-4.3581827457560864
30
0
10
4.4539760144935823
20
-4.5012834285639922
30
0
0
SPLINE
5
148
100
AcDbEntity
8
0
100
AcDbSpline
70
0
71
3
72
9
73
5
74
0
42
0.000000001
43
0.0000000001
44
0.0000000001
40
0
40
0
40
0
40
0
40
0.042649609788483679
40
0.083375272388156174
40
0.083375272388156174
40
0.083375272388156174
40
0.083375272388156174
10
4.4539760144935823
20
-4.5012834285639922
30
0
10
4.4471896597084895
20
-4.6445091649776176
30
0
10
4.4339230863087362
20
-4.9244996466186644
30
0
10
4.3264102417377313
20
-5.183227032081918
30
0
10
4.2738942893730396
20
-5.3096055601977508
30
0
0
SPLINE
5
149
100
AcDbEntity
8
0
100
AcDbSpline
70
0
71
3
72
9
73
5
74
0
42
0.000000001
43
0.0000000001
44
0.0000000001
40
0
40
0
40
0
40
0
40
0.038794730708625699
40
0.076390986522161516
40
0.076390986522161516
40
0.076390986522161516
40
0.076390986522161516
10
4.2738942893730396
20
-5.3096055601977508
30
0
10
4.2084089886724847
20
-5.4232596626579896
30
0
10
4.0794614065694486
20
-5.6470567827987947
30
0
10
3.8662217681483968
20
-5.792563744291308
30
0
10
3.7612746747719039
20
-5.8641758178614776
30
0
0
SPLINE
5
150
100
AcDbEntity
8
0
100
AcDbSpline
70
0
71
3
72
9
73
5
74
0
42
0.000000001
43
0.0000000001
44
0.0000000001
40
0
40
0
40
0
40
0
40
0.0380055145753471
40
0.077456223806711411
40
0.077456223806711411
40
0.077456223806711411
40
0.077456223806711411
10
3.7612746747719039
20
-5.8641758178614776
30
0
10
3.6459118004075486
20
-5.9196785768155777
30
0
10
3.4107992722496672
20
-6.0327946381944013
30
0
10
3.1501630767904598
20
-6.0471685318970252
30
0
10
3.0174134763466109
20
-6.0544895743273894
30
0
0
SPLINE
5
151
100
AcDbEntity
8
0
100
AcDbSpline
70
0
71
3
72
9
73
5
74
0
42
0.000000001
43
0.0000000001
44
0.0000000001
40
0
40
0
40
0
40
0
40
0.039802590229940302
40
0.078178211489096261
40
0.078178211489096261
40
0.078178211489096261
40
0.078178211489096261
10
3.0174134763466109
20
-6.0544895743273894
30
0
10
2.8834068131561996
20
-6.0468789030506898
30
0
10
2.6201977808965982
20
-6.0319304118794719
30
0
10
2.3842550623874792
20
-5.914605251355689
30
0
10
2.268437007306694
20
-5.8570134257220445
30
0
0
SPLINE
5
152
100
AcDbEntity
8
0
100
AcDbSpline
70
0
71
3
72
9
73
5
74
0
42
0.000000001
43
0.0000000001
44
0.0000000001
40
0
40
0
40
0
40
0
40
0.037747986261372615
40
0.075918339686157341
40
0.075918339686157341
40
0.075918339686157341
40
0.075918339686157341
10
2.268437007306694
20
-5.8570134257220445
30
0
10
2.1636983392877429
20
-5.7842965780385374
30
0
10
1.9530490685722035
20
-5.6380492443366013
30
0
10
1.8245283244685773
20
-5.4160876351875338
30
0
10
1.7599104436622848
20
-5.3044893955134569
30
0
0
SPLINE
5
153
100
AcDbEntity
8
0
100
AcDbSpline
70
0
71
3
72
9
73
5
74
0
42
0.000000001
43
0.0000000001
44
0.0000000001
40
0
40
0
40
0
40
0
40
0.03999539550905834
40
0.082555342639257609
40
0.082555342639257609
40
0.082555342639257609
40
0.082555342639257609
10
1.7599104436622848
20
-5.3044893955134569
30
0
10
1.7088923813637824
20
-5.1801681159800967
30
0
10
1.6035849188362561
20
-4.9235539308071372
30
0
10
1.5912853898749746
20
-4.646275696047204
30
0
10
1.5849445852028121
20
-4.5033298050307451
30
0
0
SPLINE
5
154
100
AcDbEntity
8
0
100
AcDbSpline
70
0
71
3
72
9
73
5
74
0
42
0.000000001
43
0.0000000001
44
0.0000000001
40
0
40
0
40
0
40
0
40
0.035284613549686192
40
0.06783576112673563
40
0.06783576112673563
40
0.06783576112673563
40
0.06783576112673563
10
1.5849445852028121
20
-4.5033298050307451
30
0
10
1.5888308925582728
20
-4.3851399915005587
30
0
10
1.5963024386773417
20
-4.1579164186263027
30
0
10
1.6646833140282302
20
-3.9412159031864054
30
0
10
1.6974960359321822
20
-3.8372316574000531
30
0
0
SPLINE
5
155
100
AcDbEntity
8
0
100
AcDbSpline
70
0
71
3
72
9
73
5
74
0
42
0.000000001
43
0.0000000001
44
0.0000000001
40
0
40
0
40
0
40
0
40
0.031048272503661854
40
0.06205097716292652
40
0.06205097716292652
40
0.06205097716292652
40
0.06205097716292652
10
1.6974960359321822
20
-3.8372316574000531
30
0
10
1.7397597801146936
20
-3.7418883860588688
30
0
10
1.8242252403034875
20
-3.5513417734596398
30
0
10
1.9662405233026425
20
-3.3987871246323156
30
0
10
2.0371960195289818
20
-3.3225658153437787
30
0
0
SPLINE
5
156
100
AcDbEntity
8
0
100
AcDbSpline
70
0
71
3
72
9
73
5
74
0
42
0.000000001
43
0.0000000001
44
0.0000000001
40
0
40
0
40
0
40
0
40
0.033568097341349745
40
0.063890616042007575
40
0.063890616042007575
40
0.063890616042007575
40
0.063890616042007575
10
2.9110013040291061
20
-3.8300692652606179
30
0
10
2.8035522299039672
20
-3.7958494139891914
30
0
10
2.5990429463068265
20
-3.7307183058312035
30
0
10
2.4261900511558454
20
-3.6038073646981914
30
0
10
2.344153979657766
20
-3.543575367822569
30
0
0
SPLINE
5
157
100
AcDbEntity
8
0
100
AcDbSpline
70
0
71
3
72
9
73
5
74
0
42
0.000000001
43
0.0000000001
44
0.0000000001
40
0
40
0
40
0
40
0
40
0.04780432564258498
40
0.10450309448456316
40
0.10450309448456316
40
0.10450309448456316
40
0.10450309448456316
10
2.344153979657766
20
-3.543575367822569
30
0
10
2.2422847474644891
20
-3.6712134134958321
30
0
10
2.01959255687576
20
-3.9502377605088079
30
0
10
2.003144863480808
20
-4.3087933565458894
30
0
10
1.9942210706459274
20
-4.5033298050307451
30
0
0
SPLINE
5
158
100
AcDbEntity
8
0
100
AcDbSpline
70
0
71
3
72
9
73
5
74
0
42
0.000000001
43
0.0000000001
44
0.0000000001
40
0
40
0
40
0
40
0
40
0.034263549811334823
40
0.065208657737989478
40
0.065208657737989478
40
0.065208657737989478
40
0.065208657737989478
10
1.9942210706459274
20
-4.5033298050307451
30
0
10
1.9982450110919725
20
-4.6183347338753133
30
0
10
2.0059031713453312
20
-4.8372063068588709
30
0
10
2.0819431126004573
20
-5.0423863235571549
30
0
10
2.1180282624946822
20
-5.1397555683993517
30
0
0
SPLINE
5
159
100
AcDbEntity
8
0
100
AcDbSpline
70
0
71
3
72
9
73
5
74
0
42
0.000000001
43
0.0000000001
44
0.0000000001
40
0
40
0
40
0
40
0
40
0.028578959389614165
40
0.056274356109818249
40
0.056274356109818249
40
0.056274356109818249
40
0.056274356109818249
10
2.1180282624946822
20
-5.1397555683993517
30
0
10
2.1634304823789119
20
-5.2249965884456753
30
0
10
2.2528312423964381
20
-5.3928432707497977
30
0
10
2.4052337278661651
20
-5.5064315879138102
30
0
10
2.480238536237358
20
-5.562334022416989
30
0
0
SPLINE
5
160
100
AcDbEntity
8
0
100
AcDbSpline
70
0
71
3
72
9
73
5
74
0
42
0.000000001
43
0.0000000001
44
0.0000000001
40
0
40
0
40
0
40
0
40
0.027699477840259692
40
0.056163517157384449
40
0.056163517157384449
40
0.056163517157384449
40
0.056163517157384449
10
2.480238536237358
20
-5.562334022416989
30
0
10
2.5627922477899023
20
-5.6062011219073078
30
0
10
2.7301783199001917
20
-5.6951461413433178
30
0
10
2.9194458286151259
20
-5.7068246290260527
30
0
10
3.0153678449379195
20
-5.7127433632754485
30
0
0
SPLINE
5
161
100
AcDbEntity
8
0
100
AcDbSpline
70
0
71
3
72
9
73
5
74
0
42
0.000000001
43
0.0000000001
44
0.0000000001
40
0
40
0
40
0
40
0
40
0.041325023763397889
40
0.081471026984537509
40
0.081471026984537509
40
0.081471026984537509
40
0.081471026984537509
10
3.0153678449379195
20
-5.7127433632754485
30
0
10
3.1563505507780065
20
-5.7008304554032341
30
0
10
3.4342936657683976
20
-5.6773445199981314
30
0
10
3.6471686109009527
20
-5.4974839080317768
30
0
10
3.7520657571541061
20
-5.408855042352597
30
0
0
SPLINE
5
162
100
AcDbEntity
8
0
100
AcDbSpline
70
0
71
3
72
9
73
5
74
0
42
0.000000001
43
0.0000000001
44
0.0000000001
40
0
40
0
40
0
40
0
40
0.043782045832497736
40
0.097159233581299256
40
0.097159233581299256
40
0.097159233581299256
40
0.097159233581299256
10
3.7520657571541061
20
-5.408855042352597
30
0
10
3.8372007112976569
20
-5.286695607045468
30
0
10
4.0261285409201513
20
-5.0156046407947521
30
0
10
4.0381142454176446
20
-4.6836513875327572
30
0
10
4.0446989330040193
20
-4.5012834285639922
30
0
0
SPLINE
5
163
100
AcDbEntity
8
0
100
AcDbSpline
70
0
71
3
72
9
73
5
74
0
42
0.000000001
43
0.0000000001
44
0.0000000001
40
0
40
0
40
0
40
0
40
0.052226507562032336
40
0.096093495065980694
40
0.096093495065980694
40
0.096093495065980694
40
0.096093495065980694
10
4.0446989330040193
20
-4.5012834285639922
30
0
10
4.0374324325832669
20
-4.3231277805593677
30
0
10
4.0240625280094386
20
-3.9953325730744509
30
0
10
3.8394236390619918
20
-3.725911853582502
30
0
10
3.7551353963600365
20
-3.6029204343699623
30
0
0
SPLINE
5
164
100
AcDbEntity
8
0
100
AcDbSpline
70
0
71
3
72
9
73
5
74
0
42
0.000000001
43
0.0000000001
44
0.0000000001
40
0
40
0
40
0
40
0
40
0.040479538146117496
40
0.082224365529457472
40
0.082224365529457472
40
0.082224365529457472
40
0.082224365529457472
10
3.7551353963600365
20
-3.6029204343699623
30
0
10
3.6507982450005505
20
-3.5116064675239356
30
0
10
3.4388626235831987
20
-3.3261242873471195
30
0
10
3.1579735683189547
20
-3.3020472594728831
30
0
10
3.0153678449379173
20
-3.2898234938525368
30
0
0
SPLINE
5
165
100
AcDbEntity
8
0
100
AcDbSpline
70
0
71
3
72
9
73
5
74
0
42
0.000000001
43
0.0000000001
44
0.0000000001
40
0
40
0
40
0
40
0
40
0.020764588400002591
40
0.041105857805262977
40
0.041105857805262977
40
0.041105857805262977
40
0.041105857805262977
10
3.0153678449379173
20
-3.2898234938525368
30
0
10
2.9457796914746792
20
-3.2930097911196965
30
0
10
2.808022049180634
20
-3.299317427941872
30
0
10
2.6784132808125705
20
-3.3463556955476625
30
0
10
2.6142762693153587
20
-3.3696326230906659
30
0
0
SPLINE
5
166
100
AcDbEntity
8
0
100
AcDbSpline
70
0
71
3
72
9
73
5
74
0
42
0.000000001
43
0.0000000001
44
0.0000000001
40
0
40
0
40
0
40
0
40
0.021746129643799291
40
0.043036867223357353
40
0.043036867223357353
40
0.043036867223357353
40
0.043036867223357353
10
2.6142762693153587
20
-3.3696326230906659
30
0
10
2.6768304748954552
20
-3.406886245572109
30
0
10
2.8006289201319268
20
-3.4806133515254256
30
0
10
2.9388182160130771
20
-3.5213674243413724
30
0
10
3.0071817430244652
20
-3.5415288423442055
30
0
0
LINE
5
167
100
AcDbEntity
8
0
100
AcDbLine
10
3.0071817430244652
20
-3.5415288423442046
30
0
11
2.9110013040291061
21
-3.8300692652606179
31
0
0
LWPOLYLINE
5
168
100
AcDbEntity
8
0
100
AcDbPolyline
90
12
70
1
43
0.0
10
1.0672091039406029
20
-3.0012833689593488
10
1.067209103940604
20
-6.0012834881686388
10
0.67020998322832481
20
-6.0012834881686388
10
0.67020998322832426
20
-4.5135616873645006
10
-0.81955804503095198
20
-6.0012834881686388
10
-1.3577569929374467
20
-6.0012834881686388
10
-0.099229952455879844
20
-4.7857309495352922
10
-1.4130093065513387
20
-3.0012833689593501
10
-0.88913454687726823
20
-3.0012833689593501
10
0.17907843911516397
20
-4.5197008167647539
10
0.67020998322832459
20
-4.0408467863940416
10
0.67020998322832437
20
-3.0012833689593492
0
ENDSEC
0
SECTION
2
OBJECTS
0
DICTIONARY
5
C
100
AcDbDictionary
3
ACAD_GROUP
350
D
3
ACAD_MLINESTYLE
350
17
0
DICTIONARY
5
D
100
AcDbDictionary
0
DICTIONARY
5
1A
330
C
100
AcDbDictionary
0
DICTIONARY
5
17
100
AcDbDictionary
0
ENDSEC
0
EOF
