0
SECTION
2
HEADER
9
$INSUNITS
70
4
9
$ACADVER
1
AC1014
9
$HANDSEED
5
FFFF
0
ENDSEC
0
SECTION
2
TABLES
0
TABLE
2
VPORT
5
8
100
AcDbSymbolTable
0
ENDTAB
0
TABLE
2
LTYPE
5
5
100
AcDbSymbolTable
0
LTYPE
5
14
100
AcDbSymbolTableRecord
100
AcDbLinetypeTableRecord
2
BYBLOCK
70
0
0
LTYPE
5
15
100
AcDbSymbolTableRecord
100
AcDbLinetypeTableRecord
2
BYLAYER
70
0
0
ENDTAB
0
TABLE
2
LAYER
5
2
100
AcDbSymbolTable
70
2
0
LAYER
5
50
100
AcDbSymbolTableRecord
100
AcDbLayerTableRecord
2
0
70
0
6
CONTINUOUS
0
ENDTAB
0
TABLE
2
STYLE
5
3
100
AcDbSymbolTable
70
1
0
STYLE
5
11
100
AcDbSymbolTableRecord
100
AcDbTextStyleTableRecord
2
STANDARD
70
0
0
ENDTAB
0
TABLE
2
VIEW
5
6
100
AcDbSymbolTable
70
0
0
ENDTAB
0
TABLE
2
UCS
5
7
100
AcDbSymbolTable
70
0
0
ENDTAB
0
TABLE
2
APPID
5
9
100
AcDbSymbolTable
70
2
0
APPID
5
12
100
AcDbSymbolTableRecord
100
AcDbRegAppTableRecord
2
ACAD
70
0
0
ENDTAB
0
TABLE
2
DIMSTYLE
5
A
100
AcDbSymbolTable
70
1
0
ENDTAB
0
TABLE
2
BLOCK_RECORD
5
1
100
AcDbSymbolTable
70
1
0
BLOCK_RECORD
5
1F
100
AcDbSymbolTableRecord
100
AcDbBlockTableRecord
2
*MODEL_SPACE
0
BLOCK_RECORD
5
1B
100
AcDbSymbolTableRecord
100
AcDbBlockTableRecord
2
*PAPER_SPACE
0
ENDTAB
0
ENDSEC
0
SECTION
2
BLOCKS
0
BLOCK
5
20
100
AcDbEntity
100
AcDbBlockBegin
2
*MODEL_SPACE
0
ENDBLK
5
21
100
AcDbEntity
100
AcDbBlockEnd
0
BLOCK
5
1C
100
AcDbEntity
100
AcDbBlockBegin
2
*PAPER_SPACE
0
ENDBLK
5
1D
100
AcDbEntity
100
AcDbBlockEnd
0
ENDSEC
0
SECTION
2
ENTITIES
0
LINE
5
100
100
AcDbEntity
8
0
100
AcDbLine
10
0
20
0
30
0
11
0
21
18.157987276126903
31
0
0
LWPOLYLINE
5
101
100
AcDbEntity
8
0
100
AcDbPolyline
90
3
70
1
43
0.0
10
34.572893558297054
20
7.1252127138393195
10
34.917672372357217
20
12.395411395955772
0
LINE
5
102
100
AcDbEntity
8
0
100
AcDbLine
10
14.299999999999997
20
2.3999999999999999
30
0
11
-14.299999999999997
21
2.3999999999999999
31
0
0
LINE
5
103
100
AcDbEntity
8
0
100
AcDbLine
10
-25.500000000000007
20
2.3999999999999999
30
0
11
-14.300000000000006
21
2.3999999999999999
31
0
0
LINE
5
104
100
AcDbEntity
8
0
100
AcDbLine
10
25.5
20
2.3999999999999999
30
0
11
14.299999999999997
21
2.3999999999999999
31
0
0
LINE
5
105
100
AcDbEntity
8
0
100
AcDbLine
10
-30.016880678897309
20
12.395411395955772
30
0
11
-34.917672372357217
21
12.395411395955772
31
0
0
LINE
5
106
100
AcDbEntity
8
0
100
AcDbLine
10
-34.917672372357217
20
12.395411395955772
30
0
11
-34.572893558297054
21
7.1252127138393195
31
0
0
SPLINE
5
107
100
AcDbEntity
8
0
100
AcDbSpline
70
4
71
5
72
31
73
25
74
0
42
0.000000001
43
0.0000000001
44
0.0000000001
40
0
40
0
40
0
40
0
40
0
40
0
40
0.050000000000000003
40
0.10000000000000001
40
0.15000000000000002
40
0.20000000000000001
40
0.25
40
0.29999999999999999
40
0.34999999999999998
40
0.39999999999999997
40
0.44999999999999996
40
0.49999999999999994
40
0.54999999999999993
40
0.59999999999999998
40
0.65000000000000002
40
0.70000000000000007
40
0.75000000000000011
40
0.80000000000000016
40
0.8500000000000002
40
0.90000000000000024
40
0.95000000000000029
40
1
40
1
40
1
40
1
40
1
40
1
41
1
41
1
41
1
41
1
41
1
41
1
41
1
41
1
41
1
41
1
41
1
41
1
41
1
41
1
41
1
41
1
41
1
41
1
41
1
41
1
41
1
41
1
41
1
41
1
41
1
10
-30.016880678897309
20
12.395411395955772
30
0
10
-30.115020990469308
20
12.137229657213274
30
0
10
-30.281228747481741
20
11.646901315102951
30
0
10
-30.440318075105807
20
10.989518830663215
30
0
10
-30.471288196809692
20
10.269826519766724
30
0
10
-30.211366072649906
20
9.627568919154978
30
0
10
-29.670949363212049
20
9.2232263013587321
30
0
10
-28.891443070624881
20
9.0138383364361037
30
0
10
-27.950824210100155
20
8.9189676907998781
30
0
10
-26.953596733309162
20
8.8355535819833424
30
0
10
-26.012877970785663
20
8.6625043767792178
30
0
10
-25.235081459232617
20
8.322504343803903
30
0
10
-24.704094716531269
20
7.7841763172581988
30
0
10
-24.463503004303263
20
7.0880603476169588
30
0
10
-24.526041968227744
20
6.322747261157323
30
0
10
-24.885051158011944
20
5.5971007532002712
30
0
10
-25.524574538550592
20
5.0142244572751657
30
0
10
-26.429327572867738
20
4.6453154521910065
30
0
10
-27.585315317548492
20
4.5364877545722964
30
0
10
-28.98051689294504
20
4.7143119426962645
30
0
10
-30.605296721797938
20
5.191226721468496
30
0
10
-32.083219560684931
20
5.8145832201949412
30
0
10
-33.289978042425957
20
6.4174691502630328
30
0
10
-34.138001991777898
20
6.879311729559455
30
0
10
-34.572893558297054
20
7.1252127138393195
30
0
0
ENDSEC
0
SECTION
2
OBJECTS
0
DICTIONARY
5
C
100
AcDbDictionary
3
ACAD_GROUP
350
D
3
ACAD_MLINESTYLE
350
17
0
DICTIONARY
5
D
100
AcDbDictionary
0
DICTIONARY
5
1A
330
C
100
AcDbDictionary
0
DICTIONARY
5
17
100
AcDbDictionary
0
ENDSEC
0
EOF
