0
SECTION
2
HEADER
9
$INSUNITS
70
4
9
$ACADVER
1
AC1014
9
$HANDSEED
5
FFFF
0
ENDSEC
0
SECTION
2
TABLES
0
TABLE
2
VPORT
5
8
100
AcDbSymbolTable
0
ENDTAB
0
TABLE
2
LTYPE
5
5
100
AcDbSymbolTable
0
LTYPE
5
14
100
AcDbSymbolTableRecord
100
AcDbLinetypeTableRecord
2
BYBLOCK
70
0
0
LTYPE
5
15
100
AcDbSymbolTableRecord
100
AcDbLinetypeTableRecord
2
BYLAYER
70
0
0
ENDTAB
0
TABLE
2
LAYER
5
2
100
AcDbSymbolTable
70
2
0
LAYER
5
50
100
AcDbSymbolTableRecord
100
AcDbLayerTableRecord
2
0
70
0
6
CONTINUOUS
0
ENDTAB
0
TABLE
2
STYLE
5
3
100
AcDbSymbolTable
70
1
0
STYLE
5
11
100
AcDbSymbolTableRecord
100
AcDbTextStyleTableRecord
2
STANDARD
70
0
0
ENDTAB
0
TABLE
2
VIEW
5
6
100
AcDbSymbolTable
70
0
0
ENDTAB
0
TABLE
2
UCS
5
7
100
AcDbSymbolTable
70
0
0
ENDTAB
0
TABLE
2
APPID
5
9
100
AcDbSymbolTable
70
2
0
APPID
5
12
100
AcDbSymbolTableRecord
100
AcDbRegAppTableRecord
2
ACAD
70
0
0
ENDTAB
0
TABLE
2
DIMSTYLE
5
A
100
AcDbSymbolTable
70
1
0
ENDTAB
0
TABLE
2
BLOCK_RECORD
5
1
100
AcDbSymbolTable
70
1
0
BLOCK_RECORD
5
1F
100
AcDbSymbolTableRecord
100
AcDbBlockTableRecord
2
*MODEL_SPACE
0
BLOCK_RECORD
5
1B
100
AcDbSymbolTableRecord
100
AcDbBlockTableRecord
2
*PAPER_SPACE
0
ENDTAB
0
ENDSEC
0
SECTION
2
BLOCKS
0
BLOCK
5
20
100
AcDbEntity
100
AcDbBlockBegin
2
*MODEL_SPACE
0
ENDBLK
5
21
100
AcDbEntity
100
AcDbBlockEnd
0
BLOCK
5
1C
100
AcDbEntity
100
AcDbBlockBegin
2
*PAPER_SPACE
0
ENDBLK
5
1D
100
AcDbEntity
100
AcDbBlockEnd
0
ENDSEC
0
SECTION
2
ENTITIES
0
LINE
5
100
100
AcDbEntity
8
0
100
AcDbLine
10
0
20
0
30
0
11
0
21
18.157987276126903
31
0
0
LWPOLYLINE
5
101
100
AcDbEntity
8
0
100
AcDbPolyline
90
3
70
1
43
0.0
10
26.572893558297057
20
7.1252127138393195
10
26.917672372357224
20
12.395411395955772
0
LINE
5
102
100
AcDbEntity
8
0
100
AcDbLine
10
-22.016880678897309
20
12.395411395955772
30
0
11
-26.917672372357224
21
12.395411395955772
31
0
0
SPLINE
5
103
100
AcDbEntity
8
0
100
AcDbSpline
70
4
71
5
72
31
73
25
74
0
42
0.000000001
43
0.0000000001
44
0.0000000001
40
0
40
0
40
0
40
0
40
0
40
0
40
0.050000000000000003
40
0.10000000000000001
40
0.15000000000000002
40
0.20000000000000001
40
0.25
40
0.29999999999999999
40
0.34999999999999998
40
0.39999999999999997
40
0.44999999999999996
40
0.49999999999999994
40
0.54999999999999993
40
0.59999999999999998
40
0.65000000000000002
40
0.70000000000000007
40
0.75000000000000011
40
0.80000000000000016
40
0.8500000000000002
40
0.90000000000000024
40
0.95000000000000029
40
1
40
1
40
1
40
1
40
1
40
1
41
1
41
1
41
1
41
1
41
1
41
1
41
1
41
1
41
1
41
1
41
1
41
1
41
1
41
1
41
1
41
1
41
1
41
1
41
1
41
1
41
1
41
1
41
1
41
1
41
1
10
-22.016880678897309
20
12.395411395955772
30
0
10
-22.115020990469311
20
12.137229657213274
30
0
10
-22.281228747481631
20
11.646901315102953
30
0
10
-22.440318075105147
20
10.989518830663197
30
0
10
-22.471288196808437
20
10.269826519766671
30
0
10
-22.211366072648964
20
9.6275689191549549
30
0
10
-21.670949363211896
20
9.2232263013587321
30
0
10
-20.891443070625403
20
9.0138383364361125
30
0
10
-19.950824210100905
20
8.9189676907998852
30
0
10
-18.953596733309787
20
8.8355535819833477
30
0
10
-18.012877970785979
20
8.6625043767792214
30
0
10
-17.235081459232614
20
8.3225043438039012
30
0
10
-16.704094716531067
20
7.784176317258197
30
0
10
-16.463503004302996
20
7.0880603476169615
30
0
10
-16.526041968227506
20
6.3227472611573194
30
0
10
-16.885051158011926
20
5.597100753200265
30
0
10
-17.524574538550905
20
5.0142244572751791
30
0
10
-18.429327572868402
20
4.6453154521910331
30
0
10
-19.585315317549338
20
4.5364877545723212
30
0
10
-20.980516892945825
20
4.7143119426962707
30
0
10
-22.605296721798481
20
5.1912267214684924
30
0
10
-24.08321956068518
20
5.814583220194935
30
0
10
-25.289978042426014
20
6.4174691502630328
30
0
10
-26.138001991777902
20
6.879311729559455
30
0
10
-26.572893558297057
20
7.1252127138393195
30
0
0
LINE
5
104
100
AcDbEntity
8
0
100
AcDbLine
10
-26.917672372357224
20
12.395411395955772
30
0
11
-26.572893558297057
21
7.1252127138393195
31
0
0
CIRCLE
5
105
100
AcDbEntity
8
0
100
AcDbCircle
10
-7.6182105632604724
20
6.6000000000000005
30
0
40
1.9999999999999998
210
0
220
0
230
1
0
LINE
5
106
100
AcDbEntity
8
0
100
AcDbLine
10
14.299999999999997
20
2.3999999999999999
30
0
11
-14.299999999999997
21
2.3999999999999999
31
0
0
LINE
5
107
100
AcDbEntity
8
0
100
AcDbLine
10
-25.500000000000007
20
2.3999999999999999
30
0
11
-14.300000000000006
21
2.3999999999999999
31
0
0
LINE
5
108
100
AcDbEntity
8
0
100
AcDbLine
10
25.5
20
2.3999999999999999
30
0
11
14.299999999999997
21
2.3999999999999999
31
0
0
CIRCLE
5
109
100
AcDbEntity
8
0
100
AcDbCircle
10
7.6182105632604724
20
6.6000000000000005
30
0
40
1.9999999999999998
210
0
220
0
230
1
0
LINE
5
110
100
AcDbEntity
8
0
100
AcDbLine
10
-14.299999999999997
20
11.400000000000002
30
0
11
14.299999999999997
21
11.400000000000002
31
0
0
LINE
5
111
100
AcDbEntity
8
0
100
AcDbLine
10
-11.536072498420813
20
2.3999999999999999
30
0
11
-11.536072498420813
21
14.439963183934628
31
0
0
LINE
5
112
100
AcDbEntity
8
0
100
AcDbLine
10
11.536072498420813
20
2.3999999999999999
30
0
11
11.536072498420813
21
14.439963183934628
31
0
0
LWPOLYLINE
5
113
100
AcDbEntity
8
0
100
AcDbPolyline
90
4
70
1
43
0.0
10
-11.536072498420813
20
11.400000000000002
10
11.536072498420813
20
11.400000000000002
10
11.536072498420813
20
5.4000000000000004
10
-11.536072498420813
20
5.4000000000000004
0
ENDSEC
0
SECTION
2
OBJECTS
0
DICTIONARY
5
C
100
AcDbDictionary
3
ACAD_GROUP
350
D
3
ACAD_MLINESTYLE
350
17
0
DICTIONARY
5
D
100
AcDbDictionary
0
DICTIONARY
5
1A
330
C
100
AcDbDictionary
0
DICTIONARY
5
17
100
AcDbDictionary
0
ENDSEC
0
EOF
