                                                                        S      1
,,23Hspessori_frigo_bosch v2,21Hspessorifrigobosch v2,7Hunknown,7HunknowG      1
n,32,38,7,99,15,,1.,2,2HMM,1,0.08,15H20230101.152218,0.01,10000.,7HunknoG      2
wn,7Hunknown,11,0,15H20211106.085619;                                   G      3
     186       1                                                00000000D      1
     186            -199       1       0                               0D      2
     514       2                                                00010000D      3
     514                       2       1                               0D      4
     510       4                                                00010000D      5
     510            -199       1       1                               0D      6
     510       5                                                00010000D      7
     510            -199       1       1                               0D      8
     510       6                                                00010000D      9
     510            -199       1       1                               0D     10
     510       7                                                00010000D     11
     510            -199       1       1                               0D     12
     510       8                                                00010000D     13
     510            -199       1       1                               0D     14
     510       9                                                00010000D     15
     510            -199       1       1                               0D     16
     510      10                                                00010000D     17
     510            -199       1       1                               0D     18
     510      11                                                00010000D     19
     510            -199       1       1                               0D     20
     510      12                                                00010000D     21
     510            -199       1       1                               0D     22
     510      13                                                00010000D     23
     510            -199       1       1                               0D     24
     510      14                                                00010000D     25
     510            -199       1       1                               0D     26
     510      15                                                00010000D     27
     510            -199       1       1                               0D     28
     510      16                                                00010000D     29
     510            -199       1       1                               0D     30
     510      17                                                00010000D     31
     510            -199       1       1                               0D     32
     510      18                                                00010000D     33
     510            -199       1       1                               0D     34
     510      19                                                00010000D     35
     510            -199       1       1                               0D     36
     508      20                                                00010000D     37
     508                       1       1                               0D     38
     508      21                                                00010000D     39
     508                       1       1                               0D     40
     508      22                                                00010000D     41
     508                       3       1                               0D     42
     508      25                                                00010000D     43
     508                       1       1                               0D     44
     508      26                                                00010000D     45
     508                       1       1                               0D     46
     508      27                                                00010000D     47
     508                       1       1                               0D     48
     508      28                                                00010000D     49
     508                       1       1                               0D     50
     508      29                                                00010000D     51
     508                       1       1                               0D     52
     508      30                                                00010000D     53
     508                       1       1                               0D     54
     508      31                                                00010000D     55
     508                       1       1                               0D     56
     508      32                                                00010000D     57
     508                       1       1                               0D     58
     508      33                                                00010000D     59
     508                       1       1                               0D     60
     508      34                                                00010000D     61
     508                       1       1                               0D     62
     508      35                                                00010000D     63
     508                       1       1                               0D     64
     508      36                                                00010000D     65
     508                       1       1                               0D     66
     508      37                                                00010000D     67
     508                       1       1                               0D     68
     508      38                                                00010000D     69
     508                       1       1                               0D     70
     508      39                                                00010000D     71
     508                       3       1                               0D     72
     508      42                                                00010000D     73
     508                       1       1                               0D     74
     508      43                                                00010000D     75
     508                       1       1                               0D     76
     126      44                                                00010000D     77
     126       0               5       0                               0D     78
     126      49                                                00010000D     79
     126       0               2       0                               0D     80
     126      51                                                00010000D     81
     126       0               5       0                               0D     82
     126      56                                                00010000D     83
     126       0               3       0                               0D     84
     126      59                                                00010000D     85
     126       0               4       0                               0D     86
     126      63                                                00010000D     87
     126       0               3       0                               0D     88
     126      66                                                00010000D     89
     126       0               4       0                               0D     90
     126      70                                                00010000D     91
     126       0               4       0                               0D     92
     126      74                                                00010000D     93
     126       0               5       0                               0D     94
     126      79                                                00010000D     95
     126       0               4       0                               0D     96
     126      83                                                00010000D     97
     126       0               5       0                               0D     98
     126      88                                                00010000D     99
     126       0               3       0                               0D    100
     126      91                                                00010000D    101
     126       0               5       0                               0D    102
     126      96                                                00010000D    103
     126       0               2       0                               0D    104
     126      98                                                00010000D    105
     126       0               5       0                               0D    106
     126     103                                                00010000D    107
     126       0               3       0                               0D    108
     126     106                                                00010000D    109
     126       0               5       0                               0D    110
     126     111                                                00010000D    111
     126       0               9       0                               0D    112
     126     120                                                00010000D    113
     126       0               9       0                               0D    114
     126     129                                                00010000D    115
     126       0               6       0                               0D    116
     126     135                                                00010000D    117
     126       0               2       0                               0D    118
     126     137                                                00010000D    119
     126       0               2       0                               0D    120
     126     139                                                00010000D    121
     126       0               3       0                               0D    122
     126     142                                                00010000D    123
     126       0               5       0                               0D    124
     126     147                                                00010000D    125
     126       0               2       0                               0D    126
     126     149                                                00010000D    127
     126       0               2       0                               0D    128
     126     151                                                00010000D    129
     126       0               2       0                               0D    130
     126     153                                                00010000D    131
     126       0               5       0                               0D    132
     126     158                                                00010000D    133
     126       0               2       0                               0D    134
     126     160                                                00010000D    135
     126       0               2       0                               0D    136
     126     162                                                00010000D    137
     126       0               3       0                               0D    138
     126     165                                                00010000D    139
     126       0               5       0                               0D    140
     126     170                                                00010000D    141
     126       0               3       0                               0D    142
     126     173                                                00010000D    143
     126       0               3       0                               0D    144
     126     176                                                00010000D    145
     126       0               4       0                               0D    146
     126     180                                                00010000D    147
     126       0               5       0                               0D    148
     126     185                                                00010000D    149
     126       0               2       0                               0D    150
     126     187                                                00010000D    151
     126       0               9       0                               0D    152
     126     196                                                00010000D    153
     126       0               2       0                               0D    154
     126     198                                                00010000D    155
     126       0               9       0                               0D    156
     126     207                                                00010000D    157
     126       0               3       0                               0D    158
     126     210                                                00010000D    159
     126       0               4       0                               0D    160
     128     214                                                00010000D    161
     128       0    -199       7       0                               0D    162
     128     221                                                00010000D    163
     128       0    -199       6       0                               0D    164
     128     227                                                00010000D    165
     128       0    -199       3       0                               0D    166
     128     230                                                00010000D    167
     128       0    -199       7       0                               0D    168
     128     237                                                00010000D    169
     128       0    -199       5       0                               0D    170
     128     242                                                00010000D    171
     128       0    -199       6       0                               0D    172
     128     248                                                00010000D    173
     128       0    -199       3       0                               0D    174
     128     251                                                00010000D    175
     128       0    -199       6       0                               0D    176
     128     257                                                00010000D    177
     128       0    -199       4       0                               0D    178
     128     261                                                00010000D    179
     128       0    -199       7       0                               0D    180
     128     268                                                00010000D    181
     128       0    -199       6       0                               0D    182
     128     274                                                00010000D    183
     128       0    -199       7       0                               0D    184
     128     281                                                00010000D    185
     128       0    -199      13       0                               0D    186
     128     294                                                00010000D    187
     128       0    -199      14       0                               0D    188
     128     308                                                00010000D    189
     128       0    -199       5       0                               0D    190
     128     313                                                00010000D    191
     128       0    -199       3       0                               0D    192
     502     316                                                00010000D    193
     502                      12       1                               0D    194
     504     328                                                00010001D    195
     504                      12       1                               0D    196
     406     340                                                00000000D    197
     406                       1      15                               0D    198
     314     341                                                00000200D    199
     314                       2       0                               0D    200
186,3,1,0,0,1,197;                                                     1P      1
514,16,5,1,7,1,9,1,11,1,13,1,15,1,17,1,19,1,21,1,23,1,25,1,27,1,       3P      2
29,1,31,1,33,1,35,1;                                                   3P      3
510,161,1,1,37;                                                        5P      4
510,163,1,1,39;                                                        7P      5
510,165,3,1,41,43,45;                                                  9P      6
510,167,1,1,47;                                                       11P      7
510,169,1,1,49;                                                       13P      8
510,171,1,1,51;                                                       15P      9
510,173,1,1,53;                                                       17P     10
510,175,1,1,55;                                                       19P     11
510,177,1,1,57;                                                       21P     12
510,179,1,1,59;                                                       23P     13
510,181,1,1,61;                                                       25P     14
510,183,1,1,63;                                                       27P     15
510,185,1,1,65;                                                       29P     16
510,187,1,1,67;                                                       31P     17
510,189,1,1,69;                                                       33P     18
510,191,3,1,71,73,75;                                                 35P     19
508,4,0,195,1,1,0,0,195,2,1,0,0,195,3,1,0,0,195,4,1,0;                37P     20
508,4,0,195,4,0,0,0,195,5,0,0,0,195,6,0,0,0,195,7,0,0;                39P     21
508,12,0,195,3,0,0,0,195,8,1,0,0,195,9,0,0,0,195,10,0,0,0,195,        41P     22
11,0,0,0,195,12,1,0,0,195,13,0,0,0,195,14,1,0,0,195,15,0,0,0,         41P     23
195,16,1,0,0,195,17,0,0,0,195,5,1,0;                                  41P     24
508,1,0,195,18,0,0;                                                   43P     25
508,1,0,195,19,0,0;                                                   45P     26
508,4,0,195,20,1,0,0,195,6,1,0,0,195,17,1,0,0,195,21,1,0;             47P     27
508,4,0,195,21,0,0,0,195,16,0,0,0,195,22,0,0,0,195,23,0,0;            49P     28
508,4,0,195,24,1,0,0,195,22,1,0,0,195,15,1,0,0,195,25,1,0;            51P     29
508,4,0,195,25,0,0,0,195,14,0,0,0,195,26,0,0,0,195,27,0,0;            53P     30
508,4,0,195,28,1,0,0,195,26,1,0,0,195,13,1,0,0,195,29,1,0;            55P     31
508,4,0,195,29,0,0,0,195,12,0,0,0,195,30,0,0,0,195,31,0,0;            57P     32
508,4,0,195,32,1,0,0,195,30,1,0,0,195,11,1,0,0,195,33,1,0;            59P     33
508,4,0,195,33,0,0,0,195,10,1,0,0,195,34,0,0,0,195,35,0,0;            61P     34
508,4,0,195,36,1,0,0,195,34,1,0,0,195,9,1,0,0,195,37,1,0;             63P     35
508,4,0,195,38,0,0,0,195,39,1,0,0,195,19,1,0,0,195,39,0,0;            65P     36
508,4,0,195,40,0,0,0,195,41,1,0,0,195,18,1,0,0,195,41,0,0;            67P     37
508,4,0,195,2,0,0,0,195,42,0,0,0,195,37,0,0,0,195,8,0,0;              69P     38
508,12,0,195,1,0,0,0,195,7,1,0,0,195,20,0,0,0,195,23,1,0,0,195,       71P     39
24,0,0,0,195,27,1,0,0,195,28,0,0,0,195,31,1,0,0,195,32,0,0,0,         71P     40
195,35,1,0,0,195,36,0,0,0,195,42,1,0;                                 71P     41
508,1,0,195,40,1,0;                                                   73P     42
508,1,0,195,38,1,0;                                                   75P     43
126,2,2,0,0,0,0,-0.459549340125849,-0.459549340125849,                77P     44
-0.459549340125849,0.45954934012585,0.45954934012585,                 77P     45
0.45954934012585,1.,0.896252476125185,1.,-16.2504191200475,           77P     46
17.5163425048026,3.,-15.5,18.5,3.,-14.2627809718603,18.5,3.,          77P     47
-0.459549340125849,0.45954934012585,0.,0.,0.;                         77P     48
126,1,1,0,0,1,0,-0.3,-0.3,0.,0.,1.,1.,-14.2627809718603,18.5,3.,      79P     49
-14.2627809718603,18.5,0.,-0.3,0.,0.,0.,0.;                           79P     50
126,2,2,0,0,0,0,-0.45954934012585,-0.45954934012585,                  81P     51
-0.45954934012585,0.459549340125849,0.459549340125849,                81P     52
0.459549340125849,1.,0.896252476125185,1.,-14.2627809718603,          81P     53
18.5,0.,-15.5,18.5,0.,-16.2504191200475,17.5163425048026,0.,          81P     54
-0.45954934012585,0.459549340125849,0.,0.,0.;                         81P     55
126,1,1,0,0,1,0,0.,0.,0.3,0.3,1.,1.,-16.2504191200475,                83P     56
17.5163425048026,0.,-16.2504191200475,17.5163425048026,3.,0.,         83P     57
0.3,0.,0.,0.;                                                         83P     58
126,1,1,0,0,1,0,0.0844733050399313,0.0844733050399313,                85P     59
1.09631908010423,1.09631908010423,1.,1.,-22.3876381481872,            85P     60
9.47160945440328,0.,-16.2504191200475,17.5163425048026,0.,            85P     61
0.0844733050399313,1.09631908010423,0.,0.,0.;                         85P     62
126,1,1,0,0,1,0,-0.3,-0.3,0.,0.,1.,1.,-22.3876381481872,              87P     63
9.47160945440328,3.,-22.3876381481872,9.47160945440328,0.,-0.3,       87P     64
0.,0.,0.,0.;                                                          87P     65
126,1,1,0,0,1,0,-1.09631908010423,-1.09631908010423,                  89P     66
-0.0844733050399313,-0.0844733050399313,1.,1.,-16.2504191200475,      89P     67
17.5163425048026,3.,-22.3876381481872,9.47160945440328,3.,            89P     68
-1.09631908010423,-0.0844733050399313,0.,0.,0.;                       89P     69
126,1,1,0,0,1,0,0.123721902813968,0.123721902813968,                  91P     70
2.97627809718603,2.97627809718603,1.,1.,-14.2627809718603,18.5,       91P     71
0.,14.2627809718603,18.5,0.,0.123721902813968,2.97627809718603,       91P     72
0.,0.,0.;                                                             91P     73
126,2,2,0,0,0,0,-0.45954934012585,-0.45954934012585,                  93P     74
-0.45954934012585,0.459549340125849,0.459549340125849,                93P     75
0.459549340125849,1.,0.89625247612518,1.,16.2504191200475,            93P     76
17.5163425048026,0.,15.5,18.5,0.,14.2627809718603,18.5,0.,            93P     77
-0.45954934012585,0.459549340125849,0.,0.,0.;                         93P     78
126,1,1,0,0,1,0,0.0844733050399313,0.0844733050399313,                95P     79
1.09631908010423,1.09631908010423,1.,1.,22.3876381481872,             95P     80
9.47160945440328,0.,16.2504191200475,17.5163425048026,0.,             95P     81
0.0844733050399313,1.09631908010423,0.,0.,0.;                         95P     82
126,2,2,0,0,0,0,-0.325848823271599,-0.325848823271599,                97P     83
-0.325848823271599,0.325848823271598,0.325848823271598,               97P     84
0.325848823271598,1.,0.947379348327513,1.,22.9,7.95526694960069,      97P     85
0.,22.9,8.8,0.,22.3876381481872,9.47160945440328,0.,                  97P     86
-0.325848823271599,0.325848823271598,0.,0.,0.;                        97P     87
126,1,1,0,0,1,0,0.0844733050399316,0.0844733050399316,2.48,2.48,      99P     88
1.,1.,22.9,7.95526694960069,0.,22.9,-16.,0.,0.0844733050399316,       99P     89
2.48,0.,0.,0.;                                                        99P     90
126,2,2,0,0,0,0,-0.785398163397448,-0.785398163397448,               101P     91
-0.785398163397448,0.785398163397448,0.785398163397448,              101P     92
0.785398163397448,1.,0.707106781186547,1.,20.4,-18.5,0.,22.9,        101P     93
-18.5,0.,22.9,-16.,0.,-0.785398163397448,0.785398163397448,0.,       101P     94
0.,0.;                                                               101P     95
126,1,1,0,0,1,0,0.25,0.25,4.33,4.33,1.,1.,20.4,-18.5,0.,-20.4,       103P     96
-18.5,0.,0.25,4.33,0.,0.,0.;                                         103P     97
126,2,2,0,0,0,0,-0.785398163397448,-0.785398163397448,               105P     98
-0.785398163397448,0.785398163397448,0.785398163397448,              105P     99
0.785398163397448,1.,0.707106781186547,1.,-22.9,-16.,0.,-22.9,       105P    100
-18.5,0.,-20.4,-18.5,0.,-0.785398163397448,0.785398163397448,0.,     105P    101
0.,0.;                                                               105P    102
126,1,1,0,0,1,0,0.25,0.25,2.64552669496007,2.64552669496007,1.,      107P    103
1.,-22.9,-16.,0.,-22.9,7.95526694960069,0.,0.25,                     107P    104
2.64552669496007,0.,0.,0.;                                           107P    105
126,2,2,0,0,0,0,-0.325848823271598,-0.325848823271598,               109P    106
-0.325848823271598,0.325848823271599,0.325848823271599,              109P    107
0.325848823271599,1.,0.947379348327513,1.,-22.3876381481872,         109P    108
9.47160945440328,0.,-22.9,8.8,0.,-22.9,7.95526694960069,0.,          109P    109
-0.325848823271598,0.325848823271599,0.,0.,0.;                       109P    110
126,8,2,0,1,0,0,-3.14159265358979,-3.14159265358979,                 111P    111
-3.14159265358979,-1.5707963267949,-1.5707963267949,0.,0.,           111P    112
1.5707963267949,1.5707963267949,3.14159265358979,                    111P    113
3.14159265358979,3.14159265358979,1.,0.707106781186548,1.,           111P    114
0.707106781186549,1.,0.707106781186549,1.,0.707106781186548,1.,      111P    115
6.69999999999999,11.3,0.,6.69999999999999,14.6,0.,10.,14.6,0.,       111P    116
13.3,14.6,0.,13.3,11.3,0.,13.3,8.,0.,10.,8.,0.,6.69999999999999,     111P    117
8.,0.,6.69999999999999,11.3,0.,-3.14159265358979,                    111P    118
3.14159265358979,0.,0.,0.;                                           111P    119
126,8,2,0,1,0,0,-3.14159265358979,-3.14159265358979,                 113P    120
-3.14159265358979,-1.5707963267949,-1.5707963267949,0.,0.,           113P    121
1.5707963267949,1.5707963267949,3.14159265358979,                    113P    122
3.14159265358979,3.14159265358979,1.,0.707106781186549,1.,           113P    123
0.707106781186549,1.,0.707106781186549,1.,0.707106781186549,1.,      113P    124
-13.3,11.3,0.,-13.3,14.6,0.,-10.,14.6,0.,-6.69999999999999,14.6,     113P    125
0.,-6.69999999999999,11.3,0.,-6.69999999999999,8.,0.,-10.,8.,0.,     113P    126
-13.3,8.,0.,-13.3,11.3,0.,-3.14159265358979,3.14159265358979,0.,     113P    127
0.,0.;                                                               113P    128
126,2,2,0,0,0,0,-0.325848823271599,-0.325848823271599,               115P    129
-0.325848823271599,0.325848823271598,0.325848823271598,              115P    130
0.325848823271598,1.,0.947379348327513,1.,-22.9,                     115P    131
7.95526694960069,3.,-22.9,8.8,3.,-22.3876381481872,                  115P    132
9.47160945440328,3.,-0.325848823271599,0.325848823271598,0.,0.,      115P    133
0.;                                                                  115P    134
126,1,1,0,0,1,0,0.,0.,0.3,0.3,1.,1.,-22.9,7.95526694960069,0.,       117P    135
-22.9,7.95526694960069,3.,0.,0.3,0.,0.,0.;                           117P    136
126,1,1,0,0,1,0,-0.3,-0.3,0.,0.,1.,1.,-22.9,-16.,3.,-22.9,-16.,      119P    137
0.,-0.3,0.,0.,0.,0.;                                                 119P    138
126,1,1,0,0,1,0,-2.64552669496007,-2.64552669496007,-0.25,-0.25,     121P    139
1.,1.,-22.9,7.95526694960069,3.,-22.9,-16.,3.,-2.64552669496007,     121P    140
-0.25,0.,0.,0.;                                                      121P    141
126,2,2,0,0,0,0,-0.785398163397448,-0.785398163397448,               123P    142
-0.785398163397448,0.785398163397448,0.785398163397448,              123P    143
0.785398163397448,1.,0.707106781186547,1.,-20.4,-18.5,3.,-22.9,      123P    144
-18.5,3.,-22.9,-16.,3.,-0.785398163397448,0.785398163397448,0.,      123P    145
0.,0.;                                                               123P    146
126,1,1,0,0,1,0,0.,0.,0.3,0.3,1.,1.,-20.4,-18.5,0.,-20.4,-18.5,      125P    147
3.,0.,0.3,0.,0.,0.;                                                  125P    148
126,1,1,0,0,1,0,-0.3,-0.3,0.,0.,1.,1.,20.4,-18.5,3.,20.4,-18.5,      127P    149
0.,-0.3,0.,0.,0.,0.;                                                 127P    150
126,1,1,0,0,1,0,-4.33,-4.33,-0.25,-0.25,1.,1.,-20.4,-18.5,3.,        129P    151
20.4,-18.5,3.,-4.33,-0.25,0.,0.,0.;                                  129P    152
126,2,2,0,0,0,0,-0.785398163397448,-0.785398163397448,               131P    153
-0.785398163397448,0.785398163397448,0.785398163397448,              131P    154
0.785398163397448,1.,0.707106781186547,1.,22.9,-16.,3.,22.9,         131P    155
-18.5,3.,20.4,-18.5,3.,-0.785398163397448,0.785398163397448,0.,      131P    156
0.,0.;                                                               131P    157
126,1,1,0,0,1,0,0.,0.,0.3,0.3,1.,1.,22.9,-16.,0.,22.9,-16.,3.,       133P    158
0.,0.3,0.,0.,0.;                                                     133P    159
126,1,1,0,0,1,0,-0.3,-0.3,0.,0.,1.,1.,22.9,7.95526694960069,3.,      135P    160
22.9,7.95526694960069,0.,-0.3,0.,0.,0.,0.;                           135P    161
126,1,1,0,0,1,0,-2.48,-2.48,-0.0844733050399316,                     137P    162
-0.0844733050399316,1.,1.,22.9,-16.,3.,22.9,7.95526694960069,3.,     137P    163
-2.48,-0.0844733050399316,0.,0.,0.;                                  137P    164
126,2,2,0,0,0,0,-0.325848823271598,-0.325848823271598,               139P    165
-0.325848823271598,0.325848823271599,0.325848823271599,              139P    166
0.325848823271599,1.,0.947379348327513,1.,22.3876381481872,          139P    167
9.47160945440328,3.,22.9,8.8,3.,22.9,7.95526694960069,3.,            139P    168
-0.325848823271598,0.325848823271599,0.,0.,0.;                       139P    169
126,1,1,0,0,1,0,0.,0.,0.3,0.3,1.,1.,22.3876381481872,                141P    170
9.47160945440328,0.,22.3876381481872,9.47160945440328,3.,0.,0.3,     141P    171
0.,0.,0.;                                                            141P    172
126,1,1,0,0,1,0,-0.3,-0.3,0.,0.,1.,1.,16.2504191200475,              143P    173
17.5163425048026,3.,16.2504191200475,17.5163425048026,0.,-0.3,       143P    174
0.,0.,0.,0.;                                                         143P    175
126,1,1,0,0,1,0,0.0844733050399313,0.0844733050399313,               145P    176
1.09631908010423,1.09631908010423,1.,1.,22.3876381481872,            145P    177
9.47160945440328,3.,16.2504191200475,17.5163425048026,3.,            145P    178
0.0844733050399313,1.09631908010423,0.,0.,0.;                        145P    179
126,2,2,0,0,0,0,-0.459549340125849,-0.459549340125849,               147P    180
-0.459549340125849,0.45954934012585,0.45954934012585,                147P    181
0.45954934012585,1.,0.89625247612518,1.,14.2627809718603,18.5,       147P    182
3.,15.5,18.5,3.,16.2504191200475,17.5163425048026,3.,                147P    183
-0.459549340125849,0.45954934012585,0.,0.,0.;                        147P    184
126,1,1,0,0,1,0,0.,0.,0.3,0.3,1.,1.,14.2627809718603,18.5,0.,        149P    185
14.2627809718603,18.5,3.,0.,0.3,0.,0.,0.;                            149P    186
126,8,2,0,1,0,0,-3.14159265358979,-3.14159265358979,                 151P    187
-3.14159265358979,-1.5707963267949,-1.5707963267949,0.,0.,           151P    188
1.5707963267949,1.5707963267949,3.14159265358979,                    151P    189
3.14159265358979,3.14159265358979,1.,0.707106781186549,1.,           151P    190
0.707106781186549,1.,0.707106781186549,1.,0.707106781186549,1.,      151P    191
-13.3,11.3,3.,-13.3,14.6,3.,-10.,14.6,3.,-6.69999999999999,14.6,     151P    192
3.,-6.69999999999999,11.3,3.,-6.69999999999999,8.,3.,-10.,8.,3.,     151P    193
-13.3,8.,3.,-13.3,11.3,3.,-3.14159265358979,3.14159265358979,0.,     151P    194
0.,0.;                                                               151P    195
126,1,1,0,0,1,0,-0.909090909090909,-0.909090909090909,0.,0.,1.,      153P    196
1.,-13.3,11.3,3.,-13.3,11.3,0.,-0.909090909090909,0.,0.,0.,0.;       153P    197
126,8,2,0,1,0,0,-3.14159265358979,-3.14159265358979,                 155P    198
-3.14159265358979,-1.5707963267949,-1.5707963267949,0.,0.,           155P    199
1.5707963267949,1.5707963267949,3.14159265358979,                    155P    200
3.14159265358979,3.14159265358979,1.,0.707106781186548,1.,           155P    201
0.707106781186549,1.,0.707106781186549,1.,0.707106781186548,1.,      155P    202
6.69999999999999,11.3,3.,6.69999999999999,14.6,3.,10.,14.6,3.,       155P    203
13.3,14.6,3.,13.3,11.3,3.,13.3,8.,3.,10.,8.,3.,6.69999999999999,     155P    204
8.,3.,6.69999999999999,11.3,3.,-3.14159265358979,                    155P    205
3.14159265358979,0.,0.,0.;                                           155P    206
126,1,1,0,0,1,0,-0.909090909090909,-0.909090909090909,0.,0.,1.,      157P    207
1.,6.69999999999999,11.3,3.,6.69999999999999,11.3,0.,                157P    208
-0.909090909090909,0.,0.,0.,0.;                                      157P    209
126,1,1,0,0,1,0,-2.97627809718603,-2.97627809718603,                 159P    210
-0.123721902813968,-0.123721902813968,1.,1.,14.2627809718603,        159P    211
18.5,3.,-14.2627809718603,18.5,3.,-2.97627809718603,                 159P    212
-0.123721902813968,0.,0.,0.;                                         159P    213
128,1,2,1,2,0,0,0,0,0,0.,0.,1.2,1.2,-0.45954934012585,               161P    214
-0.45954934012585,-0.45954934012585,0.45954934012585,                161P    215
0.45954934012585,0.45954934012585,1.,1.,0.896252476125182,           161P    216
0.896252476125182,1.,1.,-14.2627809718603,18.5,3.,                   161P    217
-14.2627809718603,18.5,0.,-15.5,18.5,3.,-15.5,18.5,0.,               161P    218
-16.2504191200475,17.5163425048026,3.,-16.2504191200475,             161P    219
17.5163425048026,0.,0.,1.2,-0.45954934012585,0.45954934012585;       161P    220
128,1,1,1,1,0,0,1,0,0,0.122721902813968,0.122721902813968,           163P    221
1.13656767787827,1.13656767787827,-0.001,-0.001,0.301,0.301,1.,      163P    222
1.,1.,1.,-16.2443537500283,17.5242930573954,-0.01,                   163P    223
-22.3937035182064,9.46365890181054,-0.01,-16.2443537500283,          163P    224
17.5242930573954,3.01,-22.3937035182064,9.46365890181053,3.01,       163P    225
0.122721902813968,1.13656767787827,-0.001,0.301;                     163P    226
128,1,1,1,1,0,0,1,0,0,-2.291,-2.291,2.291,2.291,-1.851,-1.851,       165P    227
1.851,1.851,1.,1.,1.,1.,22.91,-18.51,0.,-22.91,-18.51,0.,22.91,      165P    228
18.51,0.,-22.91,18.51,0.,-2.291,2.291,-1.851,1.851;                  165P    229
128,1,2,1,2,0,0,0,0,0,0.,0.,1.2,1.2,-0.325848823271598,              167P    230
-0.325848823271598,-0.325848823271598,0.325848823271599,             167P    231
0.325848823271599,0.325848823271599,1.,1.,0.947379348327499,         167P    232
0.947379348327499,1.,1.,-22.3876381481872,9.47160945440328,3.,       167P    233
-22.3876381481872,9.47160945440328,0.,-22.9,8.8,3.,-22.9,8.8,0.,     167P    234
-22.9,7.95526694960069,3.,-22.9,7.95526694960069,0.,0.,1.2,          167P    235
-0.325848823271598,0.325848823271599;                                167P    236
128,1,1,1,1,0,0,1,0,0,0.0834733050399316,0.0834733050399316,         169P    237
2.481,2.481,-0.001,-0.001,0.301,0.301,1.,1.,1.,1.,-22.9,             169P    238
7.96526694960069,-0.01,-22.9,-16.01,-0.01,-22.9,                     169P    239
7.96526694960069,3.01,-22.9,-16.01,3.01,0.0834733050399316,          169P    240
2.481,-0.001,0.301;                                                  169P    241
128,1,2,1,2,0,0,0,0,0,0.,0.,1.2,1.2,-0.785398163397448,              171P    242
-0.785398163397448,-0.785398163397448,0.785398163397448,             171P    243
0.785398163397448,0.785398163397448,1.,1.,0.707106781186548,         171P    244
0.707106781186548,1.,1.,-22.9,-16.,3.,-22.9,-16.,0.,-22.9,-18.5,     171P    245
3.,-22.9,-18.5,0.,-20.4,-18.5,3.,-20.4,-18.5,0.,0.,1.2,              171P    246
-0.785398163397448,0.785398163397448;                                171P    247
128,1,1,1,1,0,0,1,0,0,0.249,0.249,4.331,4.331,-0.001,-0.001,         173P    248
0.301,0.301,1.,1.,1.,1.,-20.41,-18.5,-0.01,20.41,-18.5,-0.01,        173P    249
-20.41,-18.5,3.01,20.41,-18.5,3.01,0.249,4.331,-0.001,0.301;         173P    250
128,1,2,1,2,0,0,0,0,0,0.,0.,1.2,1.2,-0.785398163397448,              175P    251
-0.785398163397448,-0.785398163397448,0.785398163397448,             175P    252
0.785398163397448,0.785398163397448,1.,1.,0.707106781186548,         175P    253
0.707106781186548,1.,1.,20.4,-18.5,3.,20.4,-18.5,0.,22.9,-18.5,      175P    254
3.,22.9,-18.5,0.,22.9,-16.,3.,22.9,-16.,0.,0.,1.2,                   175P    255
-0.785398163397448,0.785398163397448;                                175P    256
128,1,1,1,1,0,0,1,0,0,0.249,0.249,2.64652669496007,                  177P    257
2.64652669496007,-0.001,-0.001,0.301,0.301,1.,1.,1.,1.,22.9,         177P    258
-16.01,-0.01,22.9,7.96526694960068,-0.01,22.9,-16.01,3.01,22.9,      177P    259
7.96526694960068,3.01,0.249,2.64652669496007,-0.001,0.301;           177P    260
128,1,2,1,2,0,0,0,0,0,0.,0.,1.2,1.2,-0.325848823271599,              179P    261
-0.325848823271599,-0.325848823271599,0.325848823271598,             179P    262
0.325848823271598,0.325848823271598,1.,1.,0.947379348327499,         179P    263
0.947379348327499,1.,1.,22.9,7.95526694960069,3.,22.9,               179P    264
7.95526694960069,0.,22.9,8.8,3.,22.9,8.8,0.,22.3876381481872,        179P    265
9.47160945440328,3.,22.3876381481872,9.47160945440328,0.,0.,1.2,     179P    266
-0.325848823271599,0.325848823271598;                                179P    267
128,1,1,1,1,0,0,1,0,0,0.0834733050399313,0.0834733050399313,         181P    268
1.09731908010423,1.09731908010423,-0.001,-0.001,0.301,0.301,1.,      181P    269
1.,1.,1.,22.3937035182064,9.46365890181053,-0.01,                    181P    270
16.2443537500283,17.5242930573954,-0.01,22.3937035182064,            181P    271
9.46365890181053,3.01,16.2443537500283,17.5242930573954,3.01,        181P    272
0.0834733050399313,1.09731908010423,-0.001,0.301;                    181P    273
128,1,2,1,2,0,0,0,0,0,0.,0.,1.2,1.2,-0.45954934012585,               183P    274
-0.45954934012585,-0.45954934012585,0.459549340125849,               183P    275
0.459549340125849,0.459549340125849,1.,1.,0.896252476125182,         183P    276
0.896252476125182,1.,1.,16.2504191200475,17.5163425048026,3.,        183P    277
16.2504191200475,17.5163425048026,0.,15.5,18.5,3.,15.5,18.5,0.,      183P    278
14.2627809718603,18.5,3.,14.2627809718603,18.5,0.,0.,1.2,            183P    279
-0.45954934012585,0.459549340125849;                                 183P    280
128,1,8,1,2,0,1,0,0,1,0.,0.,0.909090909090909,0.909090909090909,     185P    281
-3.14159265358979,-3.14159265358979,-3.14159265358979,               185P    282
-1.5707963267949,-1.5707963267949,0.,0.,1.5707963267949,             185P    283
1.5707963267949,3.14159265358979,3.14159265358979,                   185P    284
3.14159265358979,1.,1.,0.707106781186548,0.707106781186548,1.,       185P    285
1.,0.707106781186548,0.707106781186548,1.,1.,0.707106781186548,      185P    286
0.707106781186548,1.,1.,0.707106781186548,0.707106781186548,1.,      185P    287
1.,-13.3,11.3,0.,-13.3,11.3,3.,-13.3,8.,0.,-13.3,8.,3.,-10.,8.,      185P    288
0.,-10.,8.,3.,-6.69999999999999,8.,0.,-6.69999999999999,8.,3.,       185P    289
-6.69999999999999,11.3,0.,-6.69999999999999,11.3,3.,                 185P    290
-6.69999999999999,14.6,0.,-6.69999999999999,14.6,3.,-10.,14.6,       185P    291
0.,-10.,14.6,3.,-13.3,14.6,0.,-13.3,14.6,3.,-13.3,11.3,0.,-13.3,     185P    292
11.3,3.,0.,0.909090909090909,-3.14159265358979,3.14159265358979;     185P    293
128,1,8,1,2,0,1,0,0,1,0.,0.,0.909090909090909,0.909090909090909,     187P    294
-3.14159265358979,-3.14159265358979,-3.14159265358979,               187P    295
-1.5707963267949,-1.5707963267949,0.,0.,1.5707963267949,             187P    296
1.5707963267949,3.14159265358979,3.14159265358979,                   187P    297
3.14159265358979,1.,1.,0.707106781186548,0.707106781186548,1.,       187P    298
1.,0.707106781186548,0.707106781186548,1.,1.,0.707106781186548,      187P    299
0.707106781186548,1.,1.,0.707106781186548,0.707106781186548,1.,      187P    300
1.,6.69999999999999,11.3,0.,6.69999999999999,11.3,3.,                187P    301
6.69999999999999,8.,0.,6.69999999999999,8.,3.,10.,8.,0.,10.,8.,      187P    302
3.,13.3,8.,0.,13.3,8.,3.,13.3,11.3,0.,13.3,11.3,3.,13.3,14.6,0.,     187P    303
13.3,14.6,3.,10.,14.6,0.,10.,14.6,3.,6.69999999999999,14.6,0.,       187P    304
6.69999999999999,14.6,3.,6.69999999999999,11.3,0.,                   187P    305
6.69999999999999,11.3,3.,0.,0.909090909090909,-3.14159265358979,     187P    306
3.14159265358979;                                                    187P    307
128,1,1,1,1,0,0,1,0,0,0.122721902813968,0.122721902813968,           189P    308
2.97727809718603,2.97727809718603,-0.001,-0.001,0.301,0.301,1.,      189P    309
1.,1.,1.,14.2727809718603,18.5,-0.01,-14.2727809718603,18.5,         189P    310
-0.01,14.2727809718603,18.5,3.01,-14.2727809718603,18.5,3.01,        189P    311
0.122721902813968,2.97727809718603,-0.001,0.301;                     189P    312
128,1,1,1,1,0,0,1,0,0,-2.291,-2.291,2.291,2.291,-1.851,-1.851,       191P    313
1.851,1.851,1.,1.,1.,1.,-22.91,-18.51,3.,22.91,-18.51,3.,-22.91,     191P    314
18.51,3.,22.91,18.51,3.,-2.291,2.291,-1.851,1.851;                   191P    315
502,28,-16.2504191200475,17.5163425048026,3.,-14.2627809718603,      193P    316
18.5,3.,-14.2627809718603,18.5,0.,-16.2504191200475,                 193P    317
17.5163425048026,0.,-22.3876381481872,9.47160945440328,0.,           193P    318
-22.3876381481872,9.47160945440328,3.,14.2627809718603,18.5,0.,      193P    319
16.2504191200475,17.5163425048026,0.,22.3876381481872,               193P    320
9.47160945440328,0.,22.9,7.95526694960069,0.,22.9,-16.,0.,20.4,      193P    321
-18.5,0.,-20.4,-18.5,0.,-22.9,-16.,0.,-22.9,7.95526694960069,0.,     193P    322
6.69999999999999,11.3,0.,-13.3,11.3,0.,-22.9,7.95526694960069,       193P    323
3.,-22.9,-16.,3.,-20.4,-18.5,3.,20.4,-18.5,3.,22.9,-16.,3.,22.9,     193P    324
7.95526694960069,3.,22.3876381481872,9.47160945440328,3.,            193P    325
16.2504191200475,17.5163425048026,3.,14.2627809718603,18.5,3.,       193P    326
-13.3,11.3,3.,6.69999999999999,11.3,3.;                              193P    327
504,42,77,193,1,193,2,79,193,2,193,3,81,193,3,193,4,83,193,4,        195P    328
193,1,85,193,5,193,4,87,193,6,193,5,89,193,1,193,6,91,193,3,193,     195P    329
7,93,193,8,193,7,95,193,9,193,8,97,193,10,193,9,99,193,10,193,       195P    330
11,101,193,12,193,11,103,193,12,193,13,105,193,14,193,13,107,        195P    331
193,14,193,15,109,193,5,193,15,111,193,16,193,16,113,193,17,193,     195P    332
17,115,193,18,193,6,117,193,15,193,18,119,193,19,193,14,121,193,     195P    333
18,193,19,123,193,20,193,19,125,193,13,193,20,127,193,21,193,12,     195P    334
129,193,20,193,21,131,193,22,193,21,133,193,11,193,22,135,193,       195P    335
23,193,10,137,193,22,193,23,139,193,24,193,23,141,193,9,193,24,      195P    336
143,193,25,193,8,145,193,24,193,25,147,193,26,193,25,149,193,7,      195P    337
193,26,151,193,27,193,27,153,193,27,193,17,155,193,28,193,28,        195P    338
157,193,28,193,16,159,193,26,193,2;                                  195P    339
406,1,5HBody1;                                                       197P    340
314,62.7450980392157,62.7450980392157,62.7450980392157,13HSteel      199P    341
- Satin;                                                             199P    342
S      1G      3D    200P    342                                        T      1
