0
SECTION
2
HEADER
9
$INSUNITS
70
4
9
$ACADVER
1
AC1014
9
$HANDSEED
5
FFFF
0
ENDSEC
0
SECTION
2
TABLES
0
TABLE
2
VPORT
5
8
100
AcDbSymbolTable
0
ENDTAB
0
TABLE
2
LTYPE
5
5
100
AcDbSymbolTable
0
LTYPE
5
14
100
AcDbSymbolTableRecord
100
AcDbLinetypeTableRecord
2
BYBLOCK
70
0
0
LTYPE
5
15
100
AcDbSymbolTableRecord
100
AcDbLinetypeTableRecord
2
BYLAYER
70
0
0
ENDTAB
0
TABLE
2
LAYER
5
2
100
AcDbSymbolTable
70
2
0
LAYER
5
50
100
AcDbSymbolTableRecord
100
AcDbLayerTableRecord
2
0
70
0
6
CONTINUOUS
0
ENDTAB
0
TABLE
2
STYLE
5
3
100
AcDbSymbolTable
70
1
0
STYLE
5
11
100
AcDbSymbolTableRecord
100
AcDbTextStyleTableRecord
2
STANDARD
70
0
0
ENDTAB
0
TABLE
2
VIEW
5
6
100
AcDbSymbolTable
70
0
0
ENDTAB
0
TABLE
2
UCS
5
7
100
AcDbSymbolTable
70
0
0
ENDTAB
0
TABLE
2
APPID
5
9
100
AcDbSymbolTable
70
2
0
APPID
5
12
100
AcDbSymbolTableRecord
100
AcDbRegAppTableRecord
2
ACAD
70
0
0
ENDTAB
0
TABLE
2
DIMSTYLE
5
A
100
AcDbSymbolTable
70
1
0
ENDTAB
0
TABLE
2
BLOCK_RECORD
5
1
100
AcDbSymbolTable
70
1
0
BLOCK_RECORD
5
1F
100
AcDbSymbolTableRecord
100
AcDbBlockTableRecord
2
*MODEL_SPACE
0
BLOCK_RECORD
5
1B
100
AcDbSymbolTableRecord
100
AcDbBlockTableRecord
2
*PAPER_SPACE
0
ENDTAB
0
ENDSEC
0
SECTION
2
BLOCKS
0
BLOCK
5
20
100
AcDbEntity
100
AcDbBlockBegin
2
*MODEL_SPACE
0
ENDBLK
5
21
100
AcDbEntity
100
AcDbBlockEnd
0
BLOCK
5
1C
100
AcDbEntity
100
AcDbBlockBegin
2
*PAPER_SPACE
0
ENDBLK
5
1D
100
AcDbEntity
100
AcDbBlockEnd
0
ENDSEC
0
SECTION
2
ENTITIES
0
LINE
5
100
100
AcDbEntity
8
0
100
AcDbLine
10
2.6000000000000001
20
-2.5999999999999934
30
0
11
28.284271247461902
21
-28.284271247461902
31
0
0
LINE
5
101
100
AcDbEntity
8
0
100
AcDbLine
10
0
20
0
30
0
11
40
21
0
31
0
0
LINE
5
102
100
AcDbEntity
8
0
100
AcDbLine
10
0
20
0
30
0
11
0
21
-50
31
0
0
LINE
5
103
100
AcDbEntity
8
0
100
AcDbLine
10
-2.6000000000000005
20
-2.6000000000000005
30
0
11
-28.284271247461902
21
-28.284271247461902
31
0
0
CIRCLE
5
104
100
AcDbEntity
8
0
100
AcDbCircle
10
-0.044012291260540827
20
4.9998062880693688
30
0
40
4.9999999999999991
210
0
220
0
230
1
0
LINE
5
105
100
AcDbEntity
8
0
100
AcDbLine
10
28.284271247461902
20
-28.284271247461902
30
0
11
42.426406871192853
21
-14.142135623730955
31
0
0
LINE
5
106
100
AcDbEntity
8
0
100
AcDbLine
10
28.284271247461902
20
-28.284271247461902
30
0
11
14.142135623730951
21
-42.426406871192853
31
0
0
LINE
5
107
100
AcDbEntity
8
0
100
AcDbLine
10
-28.284271247461902
20
-28.284271247461902
30
0
11
-14.142135623730951
21
-42.426406871192853
31
0
0
LINE
5
108
100
AcDbEntity
8
0
100
AcDbLine
10
-28.284271247461902
20
-28.284271247461902
30
0
11
-42.426406871192853
21
-14.142135623730955
31
0
0
LINE
5
109
100
AcDbEntity
8
0
100
AcDbLine
10
-0.044012291260540827
20
4.9998062880693688
30
0
11
7.4559877087394586
21
4.9998062880693688
31
0
0
LINE
5
110
100
AcDbEntity
8
0
100
AcDbLine
10
7.4559877087394586
20
4.9998062880693688
30
0
11
42.426406871192853
21
-14.142135623730955
31
0
0
LINE
5
111
100
AcDbEntity
8
0
100
AcDbLine
10
-7.4559877087394586
20
4.9998062880693688
30
0
11
-42.426406871192853
21
-14.142135623730955
31
0
0
LINE
5
112
100
AcDbEntity
8
0
100
AcDbLine
10
6.2276293883398601
20
-29.875690222596091
30
0
11
14.142135623730951
21
-42.426406871192853
31
0
0
LINE
5
113
100
AcDbEntity
8
0
100
AcDbLine
10
-6.2276293883398619
20
-29.875690222596091
30
0
11
-14.142135623730951
21
-42.426406871192853
31
0
0
LINE
5
114
100
AcDbEntity
8
0
100
AcDbLine
10
-6.2276293883398619
20
-29.875690222596091
30
0
11
6.2276293883398601
21
-29.875690222596091
31
0
0
ARC
5
115
100
AcDbEntity
8
0
100
AcDbCircle
10
-0.044012291260540827
20
4.9998062880693688
30
0
40
7.5
210
0
220
0
230
1
100
AcDbArc
50
0
51
180.3674446021316
0
CIRCLE
5
116
100
AcDbEntity
8
0
100
AcDbCircle
10
3.9000000000000004
20
-28.075690222596087
30
0
40
1.3
210
0
220
0
230
1
0
CIRCLE
5
117
100
AcDbEntity
8
0
100
AcDbCircle
10
-3.9000000000000004
20
-28.075690222596087
30
0
40
1.3
210
0
220
0
230
1
0
LINE
5
118
100
AcDbEntity
8
0
100
AcDbLine
10
0
20
-9.8756902225960896
30
0
11
12.914220239702898
21
-9.8756902225960896
31
0
0
CIRCLE
5
119
100
AcDbEntity
8
0
100
AcDbCircle
10
3.9000000000000004
20
-9.8756902225960896
30
0
40
1.3
210
0
220
0
230
1
0
CIRCLE
5
120
100
AcDbEntity
8
0
100
AcDbCircle
10
-3.9000000000000004
20
-9.8756902225960896
30
0
40
1.3
210
0
220
0
230
1
0
LINE
5
121
100
AcDbEntity
8
0
100
AcDbLine
10
0
20
-5.1134175477263355
30
0
11
38.890872965260115
21
-17.677669529663692
31
0
0
LINE
5
122
100
AcDbEntity
8
0
100
AcDbLine
10
0
20
-5.1134175477263355
30
0
11
17.677669529663689
21
-38.890872965260122
31
0
0
CIRCLE
5
123
100
AcDbEntity
8
0
100
AcDbCircle
10
28.890872965260115
20
-14.447026701676631
30
0
40
0.70000000000000184
210
0
220
0
230
1
0
CIRCLE
5
124
100
AcDbEntity
8
0
100
AcDbCircle
10
13.890872965260117
20
-9.6010624596960348
30
0
40
0.69999999999999929
210
0
220
0
230
1
0
CIRCLE
5
125
100
AcDbEntity
8
0
100
AcDbCircle
10
13.040745628392422
20
-30.030910395710563
30
0
40
0.7000000000000004
210
0
220
0
230
1
0
CIRCLE
5
126
100
AcDbEntity
8
0
100
AcDbCircle
10
6.0853597764855207
20
-16.740966541386221
30
0
40
0.7000000000000004
210
0
220
0
230
1
0
CIRCLE
5
127
100
AcDbEntity
8
0
100
AcDbCircle
10
-13.890872965260117
20
-9.6010624596960348
30
0
40
0.69999999999999929
210
0
220
0
230
1
0
CIRCLE
5
128
100
AcDbEntity
8
0
100
AcDbCircle
10
-28.890872965260115
20
-14.447026701676631
30
0
40
0.70000000000000184
210
0
220
0
230
1
0
CIRCLE
5
129
100
AcDbEntity
8
0
100
AcDbCircle
10
-6.0853597764855207
20
-16.740966541386221
30
0
40
0.7000000000000004
210
0
220
0
230
1
0
CIRCLE
5
130
100
AcDbEntity
8
0
100
AcDbCircle
10
-13.040745628392422
20
-30.030910395710563
30
0
40
0.7000000000000004
210
0
220
0
230
1
0
LINE
5
131
100
AcDbEntity
8
0
100
AcDbLine
10
-2.6000000000000001
20
-29.875690222596091
30
0
11
-2.6000000000000005
21
-2.6000000000000005
31
0
0
LINE
5
132
100
AcDbEntity
8
0
100
AcDbLine
10
-2.6000000000000001
20
0.70249005200146597
30
0
11
-2.6000000000000001
21
0.75608162644684673
31
0
0
LINE
5
133
100
AcDbEntity
8
0
100
AcDbLine
10
2.6000000000000001
20
-29.875690222596091
30
0
11
2.6000000000000001
21
-2.5999999999999934
31
0
0
LINE
5
134
100
AcDbEntity
8
0
100
AcDbLine
10
2.6000000000000001
20
0
30
0
11
2.6000000000000001
21
0.75608162644684673
31
0
0
ENDSEC
0
SECTION
2
OBJECTS
0
DICTIONARY
5
C
100
AcDbDictionary
3
ACAD_GROUP
350
D
3
ACAD_MLINESTYLE
350
17
0
DICTIONARY
5
D
100
AcDbDictionary
0
DICTIONARY
5
1A
330
C
100
AcDbDictionary
0
DICTIONARY
5
17
100
AcDbDictionary
0
ENDSEC
0
EOF
