0
SECTION
2
HEADER
9
$INSUNITS
70
4
9
$ACADVER
1
AC1014
9
$HANDSEED
5
FFFF
0
ENDSEC
0
SECTION
2
TABLES
0
TABLE
2
VPORT
5
8
100
AcDbSymbolTable
0
ENDTAB
0
TABLE
2
LTYPE
5
5
100
AcDbSymbolTable
0
LTYPE
5
14
100
AcDbSymbolTableRecord
100
AcDbLinetypeTableRecord
2
BYBLOCK
70
0
0
LTYPE
5
15
100
AcDbSymbolTableRecord
100
AcDbLinetypeTableRecord
2
BYLAYER
70
0
0
ENDTAB
0
TABLE
2
LAYER
5
2
100
AcDbSymbolTable
70
2
0
LAYER
5
50
100
AcDbSymbolTableRecord
100
AcDbLayerTableRecord
2
0
70
0
6
CONTINUOUS
0
ENDTAB
0
TABLE
2
STYLE
5
3
100
AcDbSymbolTable
70
1
0
STYLE
5
11
100
AcDbSymbolTableRecord
100
AcDbTextStyleTableRecord
2
STANDARD
70
0
0
ENDTAB
0
TABLE
2
VIEW
5
6
100
AcDbSymbolTable
70
0
0
ENDTAB
0
TABLE
2
UCS
5
7
100
AcDbSymbolTable
70
0
0
ENDTAB
0
TABLE
2
APPID
5
9
100
AcDbSymbolTable
70
2
0
APPID
5
12
100
AcDbSymbolTableRecord
100
AcDbRegAppTableRecord
2
ACAD
70
0
0
ENDTAB
0
TABLE
2
DIMSTYLE
5
A
100
AcDbSymbolTable
70
1
0
ENDTAB
0
TABLE
2
BLOCK_RECORD
5
1
100
AcDbSymbolTable
70
1
0
BLOCK_RECORD
5
1F
100
AcDbSymbolTableRecord
100
AcDbBlockTableRecord
2
*MODEL_SPACE
0
BLOCK_RECORD
5
1B
100
AcDbSymbolTableRecord
100
AcDbBlockTableRecord
2
*PAPER_SPACE
0
ENDTAB
0
ENDSEC
0
SECTION
2
BLOCKS
0
BLOCK
5
20
100
AcDbEntity
100
AcDbBlockBegin
2
*MODEL_SPACE
0
ENDBLK
5
21
100
AcDbEntity
100
AcDbBlockEnd
0
BLOCK
5
1C
100
AcDbEntity
100
AcDbBlockBegin
2
*PAPER_SPACE
0
ENDBLK
5
1D
100
AcDbEntity
100
AcDbBlockEnd
0
ENDSEC
0
SECTION
2
ENTITIES
0
LWPOLYLINE
5
100
100
AcDbEntity
8
0
100
AcDbPolyline
90
4
70
1
43
0.0
10
6.4470229528862255
20
1.3085748007884668
10
6.4470229528862255
20
-1.0914251455673527
10
6.1294240362960117
20
-1.0914251455673525
10
6.1294240362960117
20
1.3085748007884668
0
LWPOLYLINE
5
101
100
AcDbEntity
8
0
100
AcDbPolyline
90
10
70
1
43
0.0
10
5.5728073276597279
20
1.3085748007884668
10
5.5728073276597279
20
-1.0914251455673527
10
5.2470228679496067
20
-1.0914251455673525
10
3.9864497490245121
20
0.79288584500462289
10
3.9864497490245125
20
-1.0914251455673527
10
3.6819477982836983
20
-1.0914251455673525
10
3.6819477982836983
20
1.3085748007884668
10
4.007732183488014
20
1.3085748007884668
10
5.2683053024131077
20
-0.57737338036387675
10
5.2683053024131077
20
1.3085748007884668
0
LINE
5
102
100
AcDbEntity
8
0
100
AcDbLine
10
3.2661225505191109
20
0.67501408368260152
30
0
11
2.9714431472140572
21
0.63572359591633565
31
0
0
SPLINE
5
103
100
AcDbEntity
8
0
100
AcDbSpline
70
0
71
3
72
9
73
5
74
0
42
0.000000001
43
0.0000000001
44
0.0000000001
40
0
40
0
40
0
40
0
40
0.0226126270072491
40
0.04050651934127969
40
0.04050651934127969
40
0.04050651934127969
40
0.04050651934127969
10
2.9714431472140572
20
0.63572359591633565
30
0
10
2.9544603700875003
20
0.71049339447475401
30
0
10
2.9240387304467372
20
0.84443025596719512
30
0
10
2.8371234001681644
20
0.95004849885608422
30
0
10
2.7987282581645272
20
0.99670571595341428
30
0
0
SPLINE
5
104
100
AcDbEntity
8
0
100
AcDbSpline
70
0
71
3
72
9
73
5
74
0
42
0.000000001
43
0.0000000001
44
0.0000000001
40
0
40
0
40
0
40
0
40
0.0158637419958212
40
0.032284690505242644
40
0.032284690505242644
40
0.032284690505242644
40
0.032284690505242644
10
2.7987282581645272
20
0.99670571595341428
30
0
10
2.7553683431172677
20
1.0289336594367753
30
0
10
2.6671255162985279
20
1.0945215378361377
30
0
10
2.5574018470749267
20
1.1029325510847421
30
0
10
2.5015931434947274
20
1.1072106412044214
30
0
0
SPLINE
5
105
100
AcDbEntity
8
0
100
AcDbSpline
70
0
71
3
72
9
73
5
74
0
42
0.000000001
43
0.0000000001
44
0.0000000001
40
0
40
0
40
0
40
0
40
0.019509957896984058
40
0.038767996959516715
40
0.038767996959516715
40
0.038767996959516715
40
0.038767996959516715
10
2.5015931434947274
20
1.1072106412044214
30
0
10
2.4351406614282203
20
1.1013654636404047
30
0
10
2.3030937530591888
20
1.0897505833199976
30
0
10
2.2010993746082241
20
1.0051636577592098
30
0
10
2.150433570893409
20
0.96314502268940672
30
0
0
SPLINE
5
106
100
AcDbEntity
8
0
100
AcDbSpline
70
0
71
3
72
9
73
5
74
0
42
0.000000001
43
0.0000000001
44
0.0000000001
40
0
40
0
40
0
40
0
40
0.01937666544187475
40
0.03926517468324997
40
0.03926517468324997
40
0.03926517468324997
40
0.03926517468324997
10
2.150433570893409
20
0.96314502268940672
30
0
10
2.1086551762636851
20
0.91180686046318016
30
0
10
2.0239947909129259
20
0.80777441412834883
30
0
10
2.0128378242147016
20
0.67400980757897222
30
0
10
2.0071866221743844
20
0.60625565558583028
30
0
0
SPLINE
5
107
100
AcDbEntity
8
0
100
AcDbSpline
70
0
71
3
72
9
73
5
74
0
42
0.000000001
43
0.0000000001
44
0.0000000001
40
0
40
0
40
0
40
0
40
0.018814165096962019
40
0.036777603398738312
40
0.036777603398738312
40
0.036777603398738312
40
0.036777603398738312
10
2.0071866221743844
20
0.60625565558583028
30
0
10
2.0121825086922178
20
0.54209114531929981
30
0
10
2.0219483809502266
20
0.41666347426958739
30
0
10
2.1011214978051078
20
0.31911372555861989
30
0
10
2.1397923536616585
20
0.27146709471852076
30
0
0
SPLINE
5
108
100
AcDbEntity
8
0
100
AcDbSpline
70
0
71
3
72
9
73
5
74
0
42
0.000000001
43
0.0000000001
44
0.0000000001
40
0
40
0
40
0
40
0
40
0.018015011801720892
40
0.036966612513618782
40
0.036966612513618782
40
0.036966612513618782
40
0.036966612513618782
10
2.1397923536616585
20
0.27146709471852076
30
0
10
2.1878208804798098
20
0.23303595367362345
30
0
10
2.2863749064237155
20
0.15417566120757953
30
0
10
2.412418238251985
20
0.14459264243635833
30
0
10
2.4770366258937142
20
0.13967973500401271
30
0
0
SPLINE
5
109
100
AcDbEntity
8
0
100
AcDbSpline
70
0
71
3
72
9
73
5
74
0
42
0.000000001
43
0.0000000001
44
0.0000000001
40
0
40
0
40
0
40
0
40
0.0094081207746407429
40
0.021088006727374382
40
0.021088006727374382
40
0.021088006727374382
40
0.021088006727374382
10
2.4770366258937142
20
0.13967973500401271
30
0
10
2.5084079359572424
20
0.14154615224883288
30
0
10
2.5787257404915391
20
0.14572966778372581
30
0
10
2.6470866235139621
20
0.16290774140028524
30
0
10
2.6849492497760079
20
0.17242205649525416
30
0
0
LINE
5
110
100
AcDbEntity
8
0
100
AcDbLine
10
2.6849492497760079
20
0.17242205649525416
30
0
11
2.6522072263079903
21
-0.08624094218104586
31
0
0
SPLINE
5
111
100
AcDbEntity
8
0
100
AcDbSpline
70
0
71
3
72
9
73
5
74
0
42
0.000000001
43
0.0000000001
44
0.0000000001
40
0
40
0
40
0
40
0
40
0.0026716442055936917
40
0.0047605435356231803
40
0.0047605435356231803
40
0.0047605435356231803
40
0.0047605435356231803
10
2.6522072263079903
20
-0.086240942181045888
30
0
10
2.643348105599546
20
-0.085290596321141166
30
0
10
2.6275622349616858
20
-0.083597196118186112
30
0
10
2.611693878770764
20
-0.083158991650882641
30
0
10
2.6047309346514962
20
-0.082966710031921742
30
0
0
SPLINE
5
112
100
AcDbEntity
8
0
100
AcDbSpline
70
0
71
3
72
9
73
5
74
0
42
0.000000001
43
0.0000000001
44
0.0000000001
40
0
40
0
40
0
40
0
40
0.018053181572268661
40
0.035670227258195082
40
0.035670227258195082
40
0.035670227258195082
40
0.035670227258195082
10
2.6047309346514962
20
-0.082966710031921742
30
0
10
2.5438591065562228
20
-0.086855616348618381
30
0
10
2.423586016016019
20
-0.094539479248191005
30
0
10
2.3179980819452304
20
-0.15254505395861984
30
0
10
2.2658496208506844
20
-0.18119322747081029
30
0
0
SPLINE
5
113
100
AcDbEntity
8
0
100
AcDbSpline
70
0
71
3
72
9
73
5
74
0
42
0.000000001
43
0.0000000001
44
0.0000000001
40
0
40
0
40
0
40
0
40
0.016835207177827109
40
0.035032575240136914
40
0.035032575240136914
40
0.035032575240136914
40
0.035032575240136914
10
2.2658496208506844
20
-0.18119322747081029
30
0
10
2.2219388657062837
20
-0.21960897664611928
30
0
10
2.1305644729115518
20
-0.29954874864742381
30
0
10
2.1204761355868817
20
-0.42098113456478625
30
0
10
2.1152358360606454
20
-0.48405813664286823
30
0
0
SPLINE
5
114
100
AcDbEntity
8
0
100
AcDbSpline
70
0
71
3
72
9
73
5
74
0
42
0.000000001
43
0.0000000001
44
0.0000000001
40
0
40
0
40
0
40
0
40
0.015067451414450428
40
0.029643512490414671
40
0.029643512490414671
40
0.029643512490414671
40
0.029643512490414671
10
2.1152358360606454
20
-0.48405813664286823
30
0
10
2.1194954714144347
20
-0.53545823993184805
30
0
10
2.127875823893524
20
-0.63658215013700681
30
0
10
2.1929328114306506
20
-0.71431947957177544
30
0
10
2.2249220915156624
20
-0.75254383176654072
30
0
0
SPLINE
5
115
100
AcDbEntity
8
0
100
AcDbSpline
70
0
71
3
72
9
73
5
74
0
42
0.000000001
43
0.0000000001
44
0.0000000001
40
0
40
0
40
0
40
0
40
0.014885198574366442
40
0.030865335939564507
40
0.030865335939564507
40
0.030865335939564507
40
0.030865335939564507
10
2.2249220915156624
20
-0.75254383176654072
30
0
10
2.2651066775540913
20
-0.78356987645459886
30
0
10
2.3484317834619404
20
-0.84790420746056683
30
0
10
2.4536606782316954
20
-0.85518586761173632
30
0
10
2.5081416077929757
20
-0.85895585507243366
30
0
0
SPLINE
5
116
100
AcDbEntity
8
0
100
AcDbSpline
70
0
71
3
72
9
73
5
74
0
42
0.000000001
43
0.0000000001
44
0.0000000001
40
0
40
0
40
0
40
0
40
0.015987000229459994
40
0.031214596921566619
40
0.031214596921566619
40
0.031214596921566619
40
0.031214596921566619
10
2.5081416077929757
20
-0.85895585507243366
30
0
10
2.5625620986162452
20
-0.85490832766846458
30
0
10
2.6688180353736546
20
-0.84700553573561221
30
0
10
2.7533821203511759
20
-0.78241591639970853
30
0
10
2.794635505231025
20
-0.75090679019778461
30
0
0
SPLINE
5
117
100
AcDbEntity
8
0
100
AcDbSpline
70
0
71
3
72
9
73
5
74
0
42
0.000000001
43
0.0000000001
44
0.0000000001
40
0
40
0
40
0
40
0
40
0.016462907067465119
40
0.036105810488154963
40
0.036105810488154963
40
0.036105810488154963
40
0.036105810488154963
10
2.794635505231025
20
-0.75090679019778461
30
0
10
2.829778192192018
20
-0.70766557318724932
30
0
10
2.9068517728335412
20
-0.6128306099416021
30
0
10
2.9295995631337171
20
-0.49232110055145983
30
0
10
2.9419752068835519
20
-0.4267594465622257
30
0
0
LINE
5
118
100
AcDbEntity
8
0
100
AcDbLine
10
2.9419752068835519
20
-0.4267594465622257
30
0
11
3.2366546101886056
21
-0.47914686292498815
31
0
0
SPLINE
5
119
100
AcDbEntity
8
0
100
AcDbSpline
70
0
71
3
72
9
73
5
74
0
42
0.000000001
43
0.0000000001
44
0.0000000001
40
0
40
0
40
0
40
0
40
0.027742271872502611
40
0.052884552884075592
40
0.052884552884075592
40
0.052884552884075592
40
0.052884552884075592
10
3.2366546101886056
20
-0.47914686292498798
30
0
10
3.2146193387119135
20
-0.57085867155507319
30
0
10
3.1726139295990747
20
-0.74568710723193943
30
0
10
3.04958075522807
20
-0.87627271885964531
30
0
10
2.9910885401088021
20
-0.93835550040095539
30
0
0
SPLINE
5
120
100
AcDbEntity
8
0
100
AcDbSpline
70
0
71
3
72
9
73
5
74
0
42
0.000000001
43
0.0000000001
44
0.0000000001
40
0
40
0
40
0
40
0
40
0.024717314142232372
40
0.051185288359362494
40
0.051185288359362494
40
0.051185288359362494
40
0.051185288359362494
10
2.9910885401088021
20
-0.93835550040095539
30
0
10
2.9218280817390334
20
-0.98585041250394312
30
0
10
2.7784016352748928
20
-1.084204172042901
30
0
10
2.6045756818327188
20
-1.0954385379055107
30
0
10
2.514690072091224
20
-1.1012478420147249
30
0
0
SPLINE
5
121
100
AcDbEntity
8
0
100
AcDbSpline
70
0
71
3
72
9
73
5
74
0
42
0.000000001
43
0.0000000001
44
0.0000000001
40
0
40
0
40
0
40
0
40
0.018985040165008946
40
0.03741609973392003
40
0.03741609973392003
40
0.03741609973392003
40
0.03741609973392003
10
2.514690072091224
20
-1.1012478420147249
30
0
10
2.4509226426373871
20
-1.0979476216626414
30
0
10
2.3252485076614744
20
-1.0914434808884201
30
0
10
2.2097724467792719
20
-1.041525984417629
30
0
10
2.1528892822581551
20
-1.016936773956711
30
0
0
SPLINE
5
122
100
AcDbEntity
8
0
100
AcDbSpline
70
0
71
3
72
9
73
5
74
0
42
0.000000001
43
0.0000000001
44
0.0000000001
40
0
40
0
40
0
40
0
40
0.017669406475369253
40
0.034535630152119176
40
0.034535630152119176
40
0.034535630152119176
40
0.034535630152119176
10
2.1528892822581551
20
-1.016936773956711
30
0
10
2.1013727436466696
20
-0.98686392201868578
30
0
10
2.0006814087858329
20
-0.92808521354317208
30
0
10
1.9330065583875233
20
-0.83324185570699871
30
0
10
1.8999560780841134
20
-0.78692304581492634
30
0
0
SPLINE
5
123
100
AcDbEntity
8
0
100
AcDbSpline
70
0
71
3
72
9
73
5
74
0
42
0.000000001
43
0.0000000001
44
0.0000000001
40
0
40
0
40
0
40
0
40
0.016394046990115478
40
0.032464792019887015
40
0.032464792019887015
40
0.032464792019887015
40
0.032464792019887015
10
1.8999560780841134
20
-0.78692304581492634
30
0
10
1.8744110531821394
20
-0.73788223035865008
30
0
10
1.823824768960467
20
-0.64076771829011658
30
0
10
1.8161632430238384
20
-0.53156652614566913
30
0
10
1.8123706288653634
20
-0.47750967234461994
30
0
0
SPLINE
5
124
100
AcDbEntity
8
0
100
AcDbSpline
70
0
71
3
72
9
73
5
74
0
42
0.000000001
43
0.0000000001
44
0.0000000001
40
0
40
0
40
0
40
0
40
0.015002670295191095
40
0.029852715886950633
40
0.029852715886950633
40
0.029852715886950633
40
0.029852715886950633
10
1.8123706288653634
20
-0.47750967234461994
30
0
10
1.8157778362017862
20
-0.42693751986104089
30
0
10
1.8225575887778827
20
-0.32630769395813081
30
0
10
1.8715115068006201
20
-0.23814565723411812
30
0
10
1.8958633251506112
20
-0.19429000705569494
30
0
0
SPLINE
5
125
100
AcDbEntity
8
0
100
AcDbSpline
70
0
71
3
72
9
73
5
74
0
42
0.000000001
43
0.0000000001
44
0.0000000001
40
0
40
0
40
0
40
0
40
0.015444944760731497
40
0.032312760439018665
40
0.032312760439018665
40
0.032312760439018665
40
0.032312760439018665
10
1.8958633251506112
20
-0.19429000705569494
30
0
10
1.9281492248616821
20
-0.15341006866184143
30
0
10
1.9956953740440646
20
-0.067884113305827498
30
0
10
2.0925217199787705
20
-0.017559151110649041
30
0
10
2.1430667348223946
20
0.0087113431087185167
30
0
0
SPLINE
5
126
100
AcDbEntity
8
0
100
AcDbSpline
70
0
71
3
72
9
73
5
74
0
42
0.000000001
43
0.0000000001
44
0.0000000001
40
0
40
0
40
0
40
0
40
0.020360642179748027
40
0.039469908942526
40
0.039469908942526
40
0.039469908942526
40
0.039469908942526
10
2.1430667348223946
20
0.0087113431087185167
30
0
10
2.0767534905848866
20
0.028620213056852473
30
0
10
1.9482026478054126
20
0.067214343687125311
30
0
10
1.8566807485213683
20
0.16512701610481878
30
0
10
1.8123706288653634
20
0.21253121405751002
30
0
0
SPLINE
5
127
100
AcDbEntity
8
0
100
AcDbSpline
70
0
71
3
72
9
73
5
74
0
42
0.000000001
43
0.0000000001
44
0.0000000001
40
0
40
0
40
0
40
0
40
0.019530099560753564
40
0.041035825371679095
40
0.041035825371679095
40
0.041035825371679095
40
0.041035825371679095
10
1.8123706288653634
20
0.21253121405751002
30
0
10
1.7780130866973249
20
0.26904844840058034
30
0
10
1.7058224613386641
20
0.38780008874823579
30
0
10
1.6983926325483945
20
0.52684017794323723
30
0
10
1.6944988675433426
20
0.59970719128758199
30
0
0
SPLINE
5
128
100
AcDbEntity
8
0
100
AcDbSpline
70
0
71
3
72
9
73
5
74
0
42
0.000000001
43
0.0000000001
44
0.0000000001
40
0
40
0
40
0
40
0
40
0.029598115455199348
40
0.059322343572923812
40
0.059322343572923812
40
0.059322343572923812
40
0.059322343572923812
10
1.6944988675433426
20
0.59970719128758199
30
0
10
1.7041297717315496
20
0.70056866478772128
30
0
10
1.7234326157938828
20
0.90272136580354045
30
0
10
1.8568458140306676
20
1.0558558254284889
30
0
10
1.9236942239123604
20
1.1325858286014245
30
0
0
SPLINE
5
129
100
AcDbEntity
8
0
100
AcDbSpline
70
0
71
3
72
9
73
5
74
0
42
0.000000001
43
0.0000000001
44
0.0000000001
40
0
40
0
40
0
40
0
40
0.030691857678042556
40
0.063160319831645551
40
0.063160319831645551
40
0.063160319831645551
40
0.063160319831645551
10
1.9236942239123604
20
1.1325858286014245
30
0
10
2.006700719241584
20
1.1963167195457074
30
0
10
2.1775185579040017
20
1.3274675771256446
30
0
10
2.3926426044222566
20
1.3431023777371198
30
0
10
2.5032301850634835
20
1.3511396697154687
30
0
0
SPLINE
5
130
100
AcDbEntity
8
0
100
AcDbSpline
70
0
71
3
72
9
73
5
74
0
42
0.000000001
43
0.0000000001
44
0.0000000001
40
0
40
0
40
0
40
0
40
0.029295963988951818
40
0.056757992553163439
40
0.056757992553163439
40
0.056757992553163439
40
0.056757992553163439
10
2.5032301850634835
20
1.3511396697154687
30
0
10
2.6028740051152672
20
1.3443598750207097
30
0
10
2.7959239146045323
20
1.3312247026487656
30
0
10
2.9522741523627909
20
1.2177676727127307
30
0
10
3.0279233165103219
20
1.162872140704696
30
0
0
SPLINE
5
131
100
AcDbEntity
8
0
100
AcDbSpline
70
0
71
3
72
9
73
5
74
0
42
0.000000001
43
0.0000000001
44
0.0000000001
40
0
40
0
40
0
40
0
40
0.027123177944500348
40
0.055296132678505514
40
0.055296132678505514
40
0.055296132678505514
40
0.055296132678505514
10
3.0279233165103219
20
1.162872140704696
30
0
10
3.0901155895938333
20
1.0945620175533533
30
0
10
3.2169072285028335
20
0.95529789294410472
30
0
10
3.2495111188817702
20
0.76961704767541694
30
0
10
3.2661225505191109
20
0.67501408368260152
30
0
0
LWPOLYLINE
5
132
100
AcDbEntity
8
0
100
AcDbPolyline
90
8
70
1
43
0.0
10
1.5471591658908157
20
1.3085748007884668
10
0.62546750977814491
20
-1.0914251455673527
10
0.28331181481659701
20
-1.0914251455673525
10
-0.6989524655026168
20
1.3085748007884668
10
-0.33715167566954812
20
1.3085748007884668
10
-0.057206540552970954
20
0.58169883996159311
10
0.94634077027619157
20
0.58169883996159322
10
1.20991489365876
20
1.3085748007884668
0
LINE
5
133
100
AcDbEntity
8
0
100
AcDbLine
10
0.85466286614716336
20
0.32303584128529322
30
0
11
0.041020125897529708
21
0.32303584128529322
31
0
0
LINE
5
134
100
AcDbEntity
8
0
100
AcDbLine
10
0.041020125897529708
20
0.32303584128529322
30
0
11
0.29149732068360129
21
-0.34162985771983356
31
0
0
SPLINE
5
135
100
AcDbEntity
8
0
100
AcDbSpline
70
0
71
3
72
9
73
5
74
0
42
0.000000001
43
0.0000000001
44
0.0000000001
40
0
40
0
40
0
40
0
40
0.02933726655294442
40
0.052610258676236123
40
0.052610258676236123
40
0.052610258676236123
40
0.052610258676236123
10
0.29149732068360135
20
-0.34162985771983373
30
0
10
0.32581931503502637
20
-0.4332296807361119
30
0
10
0.38736864165187845
20
-0.5974948270777769
30
0
10
0.43894234233115226
20
-0.76514698773327816
30
0
10
0.46175679639160916
20
-0.83931061118930073
30
0
0
SPLINE
5
136
100
AcDbEntity
8
0
100
AcDbSpline
70
0
71
3
72
9
73
5
74
0
42
0.000000001
43
0.0000000001
44
0.0000000001
40
0
40
0
40
0
40
0
40
0.02365566839976416
40
0.04766473889172923
40
0.04766473889172923
40
0.04766473889172923
40
0.04766473889172923
10
0.46175679639160916
20
-0.83931061118930073
30
0
10
0.47870716659262125
20
-0.76222595364677059
30
0
10
0.51286113578494663
20
-0.60690503807459872
30
0
10
0.56488390508482755
20
-0.45662009639533846
30
0
10
0.59108814671814724
20
-0.38092049449771154
30
0
0
LINE
5
137
100
AcDbEntity
8
0
100
AcDbLine
10
0.59108814671814724
20
-0.38092049449771154
30
0
11
0.85466286614716336
21
0.32303584128529322
31
0
0
SPLINE
5
138
100
AcDbEntity
8
0
100
AcDbSpline
70
0
71
3
72
9
73
5
74
0
42
0.000000001
43
0.0000000001
44
0.0000000001
40
0
40
0
40
0
40
0
40
0.024997580420155593
40
0.046530859048523013
40
0.046530859048523013
40
0.046530859048523013
40
0.046530859048523013
10
-2.7715311340969775
20
1.0515488436809228
30
0
10
-2.8410630367750835
20
1.0978335933345307
30
0
10
-2.9704907297161967
20
1.1839886981898684
30
0
10
-3.1131512673226345
20
1.2456569603020413
30
0
10
-3.1791708759945605
20
1.2741954377284692
30
0
0
LINE
5
139
100
AcDbEntity
8
0
100
AcDbLine
10
-3.1791708759945605
20
1.2741954377284692
30
0
11
-3.0858556322735522
21
1.4952049902072595
31
0
0
SPLINE
5
140
100
AcDbEntity
8
0
100
AcDbSpline
70
0
71
3
72
9
73
5
74
0
42
0.000000001
43
0.0000000001
44
0.0000000001
40
0
40
0
40
0
40
0
40
0.028491004282705495
40
0.059583061468105533
40
0.059583061468105533
40
0.059583061468105533
40
0.059583061468105533
10
-3.0858556322735522
20
1.4952049902072595
30
0
10
-2.9979894736720505
20
1.4582389255191575
30
0
10
-2.8142355183192933
20
1.3809320225160182
30
0
10
-2.6538564994851632
20
1.2623860762626138
30
0
10
-2.5701663784664843
20
1.2005255869022058
30
0
0
SPLINE
5
141
100
AcDbEntity
8
0
100
AcDbSpline
70
0
71
3
72
9
73
5
74
0
42
0.000000001
43
0.0000000001
44
0.0000000001
40
0
40
0
40
0
40
0
40
0.030217935259694535
40
0.061301402559188527
40
0.061301402559188527
40
0.061301402559188527
40
0.061301402559188527
10
-2.5701663784664843
20
1.2005255869022058
30
0
10
-2.4781591420187601
20
1.2439747834559034
30
0
10
-2.2915093067018075
20
1.3321176914978095
30
0
10
-2.0853451138774561
20
1.3436533574743987
30
0
10
-1.9808075718563767
20
1.3495026281467126
30
0
0
SPLINE
5
142
100
AcDbEntity
8
0
100
AcDbSpline
70
0
71
3
72
9
73
5
74
0
42
0.000000001
43
0.0000000001
44
0.0000000001
40
0
40
0
40
0
40
0
40
0.031311525068158923
40
0.061724165366678005
40
0.061724165366678005
40
0.061724165366678005
40
0.061724165366678005
10
-1.9808075718563767
20
1.3495026281467126
30
0
10
-1.8754008578045289
20
1.3433441776749733
30
0
10
-1.6676134237931883
20
1.3312040722507668
30
0
10
-1.4815090808213061
20
1.2381764933653827
30
0
10
-1.389812021700737
20
1.1923400810352014
30
0
0
SPLINE
5
143
100
AcDbEntity
8
0
100
AcDbSpline
70
0
71
3
72
9
73
5
74
0
42
0.000000001
43
0.0000000001
44
0.0000000001
40
0
40
0
40
0
40
0
40
0.030140883885744547
40
0.06082640154191632
40
0.06082640154191632
40
0.06082640154191632
40
0.06082640154191632
10
-1.389812021700737
20
1.1923400810352014
30
0
10
-1.3062807263703091
20
1.1342136586595171
30
0
10
-1.1377087584630197
20
1.0169104926003874
30
0
10
-1.0337819776224233
20
0.8397130179875073
30
0
10
-0.98135331198394016
20
0.75032097607762105
30
0
0
SPLINE
5
144
100
AcDbEntity
8
0
100
AcDbSpline
70
0
71
3
72
9
73
5
74
0
42
0.000000001
43
0.0000000001
44
0.0000000001
40
0
40
0
40
0
40
0
40
0.03213556127704232
40
0.066212389184997167
40
0.066212389184997167
40
0.066212389184997167
40
0.066212389184997167
10
-0.98135331198394016
20
0.75032097607762105
30
0
10
-0.93958300771736281
20
0.65071777974595713
30
0
10
-0.85351911050918439
20
0.4454944901097091
30
0
10
-0.84334358899551987
20
0.22305521500795011
30
0
10
-0.83810666128813938
20
0.10857475310475123
30
0
0
SPLINE
5
145
100
AcDbEntity
8
0
100
AcDbSpline
70
0
71
3
72
9
73
5
74
0
42
0.000000001
43
0.0000000001
44
0.0000000001
40
0
40
0
40
0
40
0
40
0.034119672201386585
40
0.066700213613533427
40
0.066700213613533427
40
0.066700213613533427
40
0.066700213613533427
10
-0.83810666128813938
20
0.10857475310475123
30
0
10
-0.84353555256297286
20
-0.0060058156412573505
30
0
10
-0.8541484390402776
20
-0.22999824927924295
30
0
10
-0.94015924268797457
20
-0.43697997072125544
30
0
10
-0.98217227980315402
20
-0.53808274358599872
30
0
0
SPLINE
5
146
100
AcDbEntity
8
0
100
AcDbSpline
70
0
71
3
72
9
73
5
74
0
42
0.000000001
43
0.0000000001
44
0.0000000001
40
0
40
0
40
0
40
0
40
0.03103582233129978
40
0.061112750444599379
40
0.061112750444599379
40
0.061112750444599379
40
0.061112750444599379
10
-0.98217227980315402
20
-0.53808274358599872
30
0
10
-1.0345608145019003
20
-0.62900596422059207
30
0
10
-1.1377192684016024
20
-0.80804320811721442
30
0
10
-1.3083104695448611
20
-0.92444915487502133
30
0
10
-1.3922677330654831
20
-0.98173889011233539
30
0
0
SPLINE
5
147
100
AcDbEntity
8
0
100
AcDbSpline
70
0
71
3
72
9
73
5
74
0
42
0.000000001
43
0.0000000001
44
0.0000000001
40
0
40
0
40
0
40
0
40
0.030404415018089374
40
0.061964947260853234
40
0.061964947260853234
40
0.061964947260853234
40
0.061964947260853234
10
-1.3922677330654831
20
-0.98173889011233539
30
0
10
-1.4845580295004213
20
-1.0261411323233196
30
0
10
-1.6726479285455775
20
-1.1166339964428993
30
0
10
-1.8811567740607371
20
-1.1281331595471658
30
0
10
-1.9873563341778488
20
-1.1339900144943544
30
0
0
SPLINE
5
148
100
AcDbEntity
8
0
100
AcDbSpline
70
0
71
3
72
9
73
5
74
0
42
0.000000001
43
0.0000000001
44
0.0000000001
40
0
40
0
40
0
40
0
40
0.031842072183952241
40
0.062542613180636822
40
0.062542613180636822
40
0.062542613180636822
40
0.062542613180636822
10
-1.9873563341778488
20
-1.1339900144943544
30
0
10
-2.0945616571536965
20
-1.1279014575540955
30
0
10
-2.3051290161826357
20
-1.1159426170821867
30
0
10
-2.4938833812143359
20
-1.0220825564519866
30
0
10
-2.5865379862469409
20
-0.97600909561007709
30
0
0
SPLINE
5
149
100
AcDbEntity
8
0
100
AcDbSpline
70
0
71
3
72
9
73
5
74
0
42
0.000000001
43
0.0000000001
44
0.0000000001
40
0
40
0
40
0
40
0
40
0.030198405702645214
40
0.060734674346235654
40
0.060734674346235654
40
0.060734674346235654
40
0.060734674346235654
10
-2.5865379862469409
20
-0.97600909561007709
30
0
10
-2.6703290181502357
20
-0.91783564607925094
30
0
10
-2.8388485448395508
20
-0.80083789634233615
30
0
10
-2.9416650986515047
20
-0.62326856133662689
30
0
10
-2.9933593563717578
20
-0.53398999065249653
30
0
0
SPLINE
5
150
100
AcDbEntity
8
0
100
AcDbSpline
70
0
71
3
72
9
73
5
74
0
42
0.000000001
43
0.0000000001
44
0.0000000001
40
0
40
0
40
0
40
0
40
0.031996330956246058
40
0.066044283759690958
40
0.066044283759690958
40
0.066044283759690958
40
0.066044283759690958
10
-2.9933593563717578
20
-0.53398999065249653
30
0
10
-3.0341739906854279
20
-0.43453297046873701
30
0
10
-3.1184203154857979
20
-0.22924169279406131
30
0
10
-3.1282595051494666
20
-0.0074190146712363458
30
0
10
-3.1333319239300463
20
0.10693771153599513
30
0
0
SPLINE
5
151
100
AcDbEntity
8
0
100
AcDbSpline
70
0
71
3
72
9
73
5
74
0
42
0.000000001
43
0.0000000001
44
0.0000000001
40
0
40
0
40
0
40
0
40
0.028227671114014037
40
0.054268624141237509
40
0.054268624141237509
40
0.054268624141237509
40
0.054268624141237509
10
-3.1333319239300463
20
0.10693771153599513
30
0
10
-3.130222983331433
20
0.20148950675353688
30
0
10
-3.1242459429960059
20
0.38326843622365409
30
0
10
-3.0695410575815671
20
0.55662885892050018
30
0
10
-3.0432907633465502
20
0.63981634884983785
30
0
0
SPLINE
5
152
100
AcDbEntity
8
0
100
AcDbSpline
70
0
71
3
72
9
73
5
74
0
42
0.000000001
43
0.0000000001
44
0.0000000001
40
0
40
0
40
0
40
0
40
0.024838586039451632
40
0.049640743658805185
40
0.049640743658805185
40
0.049640743658805185
40
0.049640743658805185
10
-3.0432907633465502
20
0.63981634884983785
30
0
10
-3.009479781968091
20
0.71609084701061509
30
0
10
-2.9419074066003956
20
0.86852797869312104
30
0
10
-2.8282954338847865
20
0.99057174226333367
30
0
10
-2.7715311340969775
20
1.0515488436809228
30
0
0
SPLINE
5
153
100
AcDbEntity
8
0
100
AcDbSpline
70
0
71
3
72
9
73
5
74
0
42
0.000000001
43
0.0000000001
44
0.0000000001
40
0
40
0
40
0
40
0
40
0.026854510221492076
40
0.051112563365924631
40
0.051112563365924631
40
0.051112563365924631
40
0.051112563365924631
10
-2.072486072031853
20
0.64554614335209615
30
0
10
-2.1584454424810753
20
0.67292202029097492
30
0
10
-2.3220531096007937
20
0.72502690819231463
30
0
10
-2.4603357446779994
20
0.82655561616748141
30
0
10
-2.5259647659939501
20
0.8747412016978906
30
0
0
SPLINE
5
154
100
AcDbEntity
8
0
100
AcDbSpline
70
0
71
3
72
9
73
5
74
0
42
0.000000001
43
0.0000000001
44
0.0000000001
40
0
40
0
40
0
40
0
40
0.038243401905370754
40
0.08360239121218524
40
0.08360239121218524
40
0.08360239121218524
40
0.08360239121218524
10
-2.5259647659939501
20
0.8747412016978906
30
0
10
-2.6074595488392927
20
0.77263061824600632
30
0
10
-2.7856120765366708
20
0.54941070267018866
30
0
10
-2.7987706412476774
20
0.26256668815394651
30
0
10
-2.8059099011105273
20
0.10693771153599513
30
0
0
SPLINE
5
155
100
AcDbEntity
8
0
100
AcDbSpline
70
0
71
3
72
9
73
5
74
0
42
0.000000001
43
0.0000000001
44
0.0000000001
40
0
40
0
40
0
40
0
40
0.027410843631453113
40
0.052166898607164058
40
0.052166898607164058
40
0.052166898607164058
40
0.052166898607164058
10
-2.8059099011105273
20
0.10693771153599513
30
0
10
-2.8026908163459572
20
0.014933757533475978
30
0
10
-2.7965644208661611
20
-0.16016340490483144
30
0
10
-2.7357328026268632
20
-0.3243074340768054
30
0
10
-2.7068648628872607
20
-0.40220277994960058
30
0
0
SPLINE
5
156
100
AcDbEntity
8
0
100
AcDbSpline
70
0
71
3
72
9
73
5
74
0
42
0.000000001
43
0.0000000001
44
0.0000000001
40
0
40
0
40
0
40
0
40
0.022863159834706211
40
0.045019475264795765
40
0.045019475264795765
40
0.045019475264795765
40
0.045019475264795765
10
-2.7068648628872607
20
-0.40220277994960058
30
0
10
-2.6705431824701789
20
-0.47039562618073599
30
0
10
-2.5990227537571475
20
-0.60467304786408338
30
0
10
-2.4771007460689187
20
-0.69554364673272073
30
0
10
-2.4170968823116992
20
-0.74026557296603412
30
0
0
SPLINE
5
157
100
AcDbEntity
8
0
100
AcDbSpline
70
0
71
3
72
9
73
5
74
0
42
0.000000001
43
0.0000000001
44
0.0000000001
40
0
40
0
40
0
40
0
40
0.022159644563365291
40
0.044930780501199641
40
0.044930780501199641
40
0.044930780501199641
40
0.044930780501199641
10
-2.4170968823116992
20
-0.74026557296603412
30
0
10
-2.3510536711000904
20
-0.77535922849537542
30
0
10
-2.2171447982362693
20
-0.84651494261636417
30
0
10
-2.06573094418777
20
-0.85585786074136316
30
0
10
-1.9889936737698288
20
-0.86059289664118976
30
0
0
SPLINE
5
158
100
AcDbEntity
8
0
100
AcDbSpline
70
0
71
3
72
9
73
5
74
0
42
0.000000001
43
0.0000000001
44
0.0000000001
40
0
40
0
40
0
40
0
40
0.033060042446218518
40
0.065176856190639287
40
0.065176856190639287
40
0.065176856190639287
40
0.065176856190639287
10
-1.9889936737698288
20
-0.86059289664118976
30
0
10
-1.8762074377319593
20
-0.8510625650160597
30
0
10
-1.653852844616045
20
-0.83227380953304164
30
0
10
-1.4835526743294747
20
-0.68838541944578779
30
0
10
-1.3996348671597214
20
-0.61748238891452045
30
0
0
SPLINE
5
159
100
AcDbEntity
8
0
100
AcDbSpline
70
0
71
3
72
9
73
5
74
0
42
0.000000001
43
0.0000000001
44
0.0000000001
40
0
40
0
40
0
40
0
40
0.035025616978116236
40
0.077727367808443387
40
0.077727367808443387
40
0.077727367808443387
40
0.077727367808443387
10
-1.3996348671597214
20
-0.61748238891452045
30
0
10
-1.3315270315550232
20
-0.51975485743764416
30
0
10
-1.1803850033648866
20
-0.30288205291687326
30
0
10
-1.1707960523424066
20
-0.037319580481455505
30
0
10
-1.1655280880612107
20
0.10857475310475123
30
0
0
SPLINE
5
160
100
AcDbEntity
8
0
100
AcDbSpline
70
0
71
3
72
9
73
5
74
0
42
0.000000001
43
0.0000000001
44
0.0000000001
40
0
40
0
40
0
40
0
40
0.041781201206426109
40
0.076874759834597031
40
0.076874759834597031
40
0.076874759834597031
40
0.076874759834597031
10
-1.1655280880612107
20
0.10857475310475123
30
0
10
-1.1713416236590823
20
0.25109919402844044
30
0
10
-1.1820381603782648
20
0.51333512430809991
30
0
10
-1.3297488037129279
20
0.72887177980586526
30
0
10
-1.3971791557949753
20
0.82726491004139646
30
0
0
SPLINE
5
161
100
AcDbEntity
8
0
100
AcDbSpline
70
0
71
3
72
9
73
5
74
0
42
0.000000001
43
0.0000000001
44
0.0000000001
40
0
40
0
40
0
40
0
40
0.032383669357356148
40
0.065779535734525205
40
0.065779535734525205
40
0.065779535734525205
40
0.065779535734525205
10
-1.3971791557949753
20
0.82726491004139646
30
0
10
-1.480649044732546
20
0.90031606488310156
30
0
10
-1.6501977910940713
20
1.0487016909013192
30
0
10
-1.8749091146345709
20
1.0679635654446429
30
0
10
-1.9889936737698288
20
1.077742700873916
30
0
0
SPLINE
5
162
100
AcDbEntity
8
0
100
AcDbSpline
70
0
71
3
72
9
73
5
74
0
42
0.000000001
43
0.0000000001
44
0.0000000001
40
0
40
0
40
0
40
0
40
0.016611610818428168
40
0.032884628096579951
40
0.032884628096579951
40
0.032884628096579951
40
0.032884628096579951
10
-1.9889936737698288
20
1.077742700873916
30
0
10
-2.0446639962969626
20
1.0751936726918543
30
0
10
-2.15486991626052
20
1.0701475730275278
30
0
10
-2.2585567314777721
20
1.0325169693179652
30
0
10
-2.3098663382214282
20
1.0138953974834131
30
0
0
SPLINE
5
163
100
AcDbEntity
8
0
100
AcDbSpline
70
0
71
3
72
9
73
5
74
0
42
0.000000001
43
0.0000000001
44
0.0000000001
40
0
40
0
40
0
40
0
40
0.017396915045210255
40
0.034429514475709161
40
0.034429514475709161
40
0.034429514475709161
40
0.034429514475709161
10
-2.3098663382214282
20
1.0138953974834131
30
0
10
-2.2598229854660454
20
0.98409239518547631
30
0
10
-2.1607842574141509
20
0.92511050693863395
30
0
10
-2.0502327124234752
20
0.89250733442639174
30
0
10
-1.9955418400448532
20
0.87637824326664671
30
0
0
LINE
5
164
100
AcDbEntity
8
0
100
AcDbLine
10
-1.9955418400448532
20
0.87637824326664671
30
0
11
-2.072486072031853
21
0.64554614335209615
31
0
0
LWPOLYLINE
5
165
100
AcDbEntity
8
0
100
AcDbPolyline
90
12
70
1
43
0.0
10
-3.5475204281491002
20
1.3085748007884668
10
-3.5475204281491002
20
-1.0914251455673527
10
-3.8651190094631871
20
-1.0914251455673525
10
-3.8651190094631871
20
0.098752205668990733
10
-5.0569341473263467
20
-1.0914251455673525
10
-5.4874930672329629
20
-1.0914251455673525
10
-4.4806716732662881
20
-0.1189831146606754
10
-5.5316946797054971
20
1.3085748007884668
10
-5.1125953488033975
20
1.3085748007884668
10
-4.2580256752651895
20
0.093840782939498407
10
-3.8651190094631871
20
0.47692400723606831
10
-3.8651190094631871
20
1.3085748007884668
0
ENDSEC
0
SECTION
2
OBJECTS
0
DICTIONARY
5
C
100
AcDbDictionary
3
ACAD_GROUP
350
D
3
ACAD_MLINESTYLE
350
17
0
DICTIONARY
5
D
100
AcDbDictionary
0
DICTIONARY
5
1A
330
C
100
AcDbDictionary
0
DICTIONARY
5
17
100
AcDbDictionary
0
ENDSEC
0
EOF
