0
SECTION
2
HEADER
9
$INSUNITS
70
4
9
$ACADVER
1
AC1014
9
$HANDSEED
5
FFFF
0
ENDSEC
0
SECTION
2
TABLES
0
TABLE
2
VPORT
5
8
100
AcDbSymbolTable
0
ENDTAB
0
TABLE
2
LTYPE
5
5
100
AcDbSymbolTable
0
LTYPE
5
14
100
AcDbSymbolTableRecord
100
AcDbLinetypeTableRecord
2
BYBLOCK
70
0
0
LTYPE
5
15
100
AcDbSymbolTableRecord
100
AcDbLinetypeTableRecord
2
BYLAYER
70
0
0
ENDTAB
0
TABLE
2
LAYER
5
2
100
AcDbSymbolTable
70
2
0
LAYER
5
50
100
AcDbSymbolTableRecord
100
AcDbLayerTableRecord
2
0
70
0
6
CONTINUOUS
0
ENDTAB
0
TABLE
2
STYLE
5
3
100
AcDbSymbolTable
70
1
0
STYLE
5
11
100
AcDbSymbolTableRecord
100
AcDbTextStyleTableRecord
2
STANDARD
70
0
0
ENDTAB
0
TABLE
2
VIEW
5
6
100
AcDbSymbolTable
70
0
0
ENDTAB
0
TABLE
2
UCS
5
7
100
AcDbSymbolTable
70
0
0
ENDTAB
0
TABLE
2
APPID
5
9
100
AcDbSymbolTable
70
2
0
APPID
5
12
100
AcDbSymbolTableRecord
100
AcDbRegAppTableRecord
2
ACAD
70
0
0
ENDTAB
0
TABLE
2
DIMSTYLE
5
A
100
AcDbSymbolTable
70
1
0
ENDTAB
0
TABLE
2
BLOCK_RECORD
5
1
100
AcDbSymbolTable
70
1
0
BLOCK_RECORD
5
1F
100
AcDbSymbolTableRecord
100
AcDbBlockTableRecord
2
*MODEL_SPACE
0
BLOCK_RECORD
5
1B
100
AcDbSymbolTableRecord
100
AcDbBlockTableRecord
2
*PAPER_SPACE
0
ENDTAB
0
ENDSEC
0
SECTION
2
BLOCKS
0
BLOCK
5
20
100
AcDbEntity
100
AcDbBlockBegin
2
*MODEL_SPACE
0
ENDBLK
5
21
100
AcDbEntity
100
AcDbBlockEnd
0
BLOCK
5
1C
100
AcDbEntity
100
AcDbBlockBegin
2
*PAPER_SPACE
0
ENDBLK
5
1D
100
AcDbEntity
100
AcDbBlockEnd
0
ENDSEC
0
SECTION
2
ENTITIES
0
LWPOLYLINE
5
100
100
AcDbEntity
8
0
100
AcDbPolyline
90
4
70
1
43
0.0
10
-28.48043171332327
20
-41.512030305819181
10
-28.48043171332327
20
-31.512030305819181
10
-27.157102950076734
20
-31.512030305819184
10
-27.157102950076734
20
-41.512030305819181
0
LWPOLYLINE
5
101
100
AcDbEntity
8
0
100
AcDbPolyline
90
10
70
1
43
0.0
10
-24.837867148379956
20
-41.512030305819181
10
-24.837867148379956
20
-31.512030305819181
10
-23.480432160358106
20
-31.512030305819184
10
-18.228044636706983
20
-39.36332696910349
10
-18.228044636706983
20
-31.512030305819184
10
-16.959285862903272
20
-31.512030305819184
10
-16.959285862903272
20
-41.512030305819181
10
-18.316720850925122
20
-41.512030305819181
10
-23.569108374576246
20
-33.653913083033231
10
-23.569108374576246
20
-41.512030305819181
0
LINE
5
102
100
AcDbEntity
8
0
100
AcDbLine
10
-15.226680167178785
20
-38.872194232897435
30
0
11
-13.998849518756543
21
-38.708483519510899
31
0
0
SPLINE
5
103
100
AcDbEntity
8
0
100
AcDbSpline
70
0
71
3
72
9
73
5
74
0
42
0.000000001
43
0.0000000001
44
0.0000000001
40
0
40
0
40
0
40
0
40
0.094219330620288033
40
0.16877722461587469
40
0.16877722461587469
40
0.16877722461587469
40
0.16877722461587469
10
-13.998849518756543
20
-38.708483519510899
30
0
10
-13.92808828381192
20
-39.020024648432994
30
0
10
-13.801332078204009
20
-39.578095341007469
30
0
10
-13.439184416074003
20
-40.01817132079448
30
0
10
-13.279204495410596
20
-40.212576332049039
30
0
0
SPLINE
5
104
100
AcDbEntity
8
0
100
AcDbSpline
70
0
71
3
72
9
73
5
74
0
42
0.000000001
43
0.0000000001
44
0.0000000001
40
0
40
0
40
0
40
0
40
0.066098949170479926
40
0.1345195693958306
40
0.1345195693958306
40
0.1345195693958306
40
0.1345195693958306
10
-13.279204495410596
20
-40.212576332049039
30
0
10
-13.098538003997177
20
-40.346859325044093
30
0
10
-12.730859259717793
20
-40.620141890373354
30
0
10
-12.273677200191822
20
-40.655187463927447
30
0
10
-12.041140921573316
20
-40.673012676195768
30
0
0
SPLINE
5
105
100
AcDbEntity
8
0
100
AcDbSpline
70
0
71
3
72
9
73
5
74
0
42
0.000000001
43
0.0000000001
44
0.0000000001
40
0
40
0
40
0
40
0
40
0.081291354227276041
40
0.1615331996891966
40
0.1615331996891966
40
0.1615331996891966
40
0.1615331996891966
10
-12.041140921573316
20
-40.673012676195768
30
0
10
-11.764256064128112
20
-40.64865786348841
30
0
10
-11.214061060074357
20
-40.600262669905462
30
0
10
-10.789084525309466
20
-40.247817764487301
30
0
10
-10.577976830463086
20
-40.072740259127286
30
0
0
SPLINE
5
106
100
AcDbEntity
8
0
100
AcDbSpline
70
0
71
3
72
9
73
5
74
0
42
0.000000001
43
0.0000000001
44
0.0000000001
40
0
40
0
40
0
40
0
40
0.080736227242165615
40
0.16360499978193707
40
0.16360499978193707
40
0.16360499978193707
40
0.16360499978193707
10
-10.577976830463086
20
-40.072740259127286
30
0
10
-10.403899973952669
20
-39.858830899101143
30
0
10
-10.051148241003801
20
-39.425362033935315
30
0
10
-10.004660597517702
20
-38.868009214192895
30
0
10
-9.9811137990757572
20
-38.585700335459386
30
0
0
SPLINE
5
107
100
AcDbEntity
8
0
100
AcDbSpline
70
0
71
3
72
9
73
5
74
0
42
0.000000001
43
0.0000000001
44
0.0000000001
40
0
40
0
40
0
40
0
40
0.078392351431778973
40
0.15324000131830123
40
0.15324000131830123
40
0.15324000131830123
40
0.15324000131830123
10
-9.9811137990757572
20
-38.585700335459386
30
0
10
-10.001929999014752
20
-38.318348203636241
30
0
10
-10.042621143594967
20
-37.795732919303532
30
0
10
-10.37250942484987
20
-37.389275889833534
30
0
10
-10.533638127307569
20
-37.190748395876561
30
0
0
SPLINE
5
108
100
AcDbEntity
8
0
100
AcDbSpline
70
0
71
3
72
9
73
5
74
0
42
0.000000001
43
0.0000000001
44
0.0000000001
40
0
40
0
40
0
40
0
40
0.075062517250017835
40
0.15402753862881557
40
0.15402753862881557
40
0.15402753862881557
40
0.15402753862881557
10
-10.533638127307569
20
-37.190748395876561
30
0
10
-10.733756827149143
20
-37.030618574230651
30
0
10
-11.144398408319795
20
-36.702033773283482
30
0
10
-11.669579004154972
20
-36.662104906026855
30
0
10
-11.938822396258985
20
-36.641634645418797
30
0
0
SPLINE
5
109
100
AcDbEntity
8
0
100
AcDbSpline
70
0
71
3
72
9
73
5
74
0
42
0.000000001
43
0.0000000001
44
0.0000000001
40
0
40
0
40
0
40
0
40
0.039200429652657076
40
0.087866653182627236
40
0.087866653182627236
40
0.087866653182627236
40
0.087866653182627236
10
-11.938822396258985
20
-36.641634645418797
30
0
10
-12.069535932136288
20
-36.649411454235405
30
0
10
-12.362526621906119
20
-36.66684295101264
30
0
10
-12.647363565220074
20
-36.738417906659791
30
0
10
-12.805124648074781
20
-36.77806073661295
30
0
0
LINE
5
110
100
AcDbEntity
8
0
100
AcDbLine
10
-12.805124648074781
20
-36.77806073661295
30
0
11
-12.668699152927076
21
-35.700298490481053
31
0
0
SPLINE
5
111
100
AcDbEntity
8
0
100
AcDbSpline
70
0
71
3
72
9
73
5
74
0
42
0.000000001
43
0.0000000001
44
0.0000000001
40
0
40
0
40
0
40
0
40
0.011131797743955091
40
0.019835515464927206
40
0.019835515464927206
40
0.019835515464927206
40
0.019835515464927206
10
-12.668699152927076
20
-35.700298490481053
30
0
10
-12.631786311936622
20
-35.704258086593555
30
0
10
-12.566012099616049
20
-35.711313607339704
30
0
10
-12.499894231432062
20
-35.713139576229217
30
0
10
-12.470882065753614
20
-35.713940801577245
30
0
0
SPLINE
5
112
100
AcDbEntity
8
0
100
AcDbSpline
70
0
71
3
72
9
73
5
74
0
42
0.000000001
43
0.0000000001
44
0.0000000001
40
0
40
0
40
0
40
0
40
0.075221642809344721
40
0.14862591073834275
40
0.14862591073834275
40
0.14862591073834275
40
0.14862591073834275
10
-12.470882065753614
20
-35.713940801577245
30
0
10
-12.21724929955724
20
-35.697736897400745
30
0
10
-11.71611160219844
20
-35.665720579678833
30
0
10
-11.276161748418495
20
-35.424031290775837
30
0
10
-11.058876641254102
20
-35.304664316134129
30
0
0
SPLINE
5
113
100
AcDbEntity
8
0
100
AcDbSpline
70
0
71
3
72
9
73
5
74
0
42
0.000000001
43
0.0000000001
44
0.0000000001
40
0
40
0
40
0
40
0
40
0.070146828122439886
40
0.14596916738835924
40
0.14596916738835924
40
0.14596916738835924
40
0.14596916738835924
10
-11.058876641254102
20
-35.304664316134129
30
0
10
-10.875914634902985
20
-35.144598530975998
30
0
10
-10.495187345507087
20
-34.811516194792333
30
0
10
-10.453152844307589
20
-34.305547483662423
30
0
10
-10.431318409900342
20
-34.042726697878514
30
0
0
SPLINE
5
114
100
AcDbEntity
8
0
100
AcDbSpline
70
0
71
3
72
9
73
5
74
0
42
0.000000001
43
0.0000000001
44
0.0000000001
40
0
40
0
40
0
40
0
40
0.062781027038849718
40
0.123514604897309
40
0.123514604897309
40
0.123514604897309
40
0.123514604897309
10
-10.431318409900342
20
-34.042726697878514
30
0
10
-10.449066420871249
20
-33.828559552547006
30
0
10
-10.483983634975246
20
-33.407209797927102
30
0
10
-10.755055141610736
20
-33.083304802372801
30
0
10
-10.888344176273023
20
-32.924036922411595
30
0
0
SPLINE
5
115
100
AcDbEntity
8
0
100
AcDbSpline
70
0
71
3
72
9
73
5
74
0
42
0.000000001
43
0.0000000001
44
0.0000000001
40
0
40
0
40
0
40
0
40
0.062021581999622891
40
0.12860571050338682
40
0.12860571050338682
40
0.12860571050338682
40
0.12860571050338682
10
-10.888344176273023
20
-32.924036922411595
30
0
10
-11.055779592631163
20
-32.794761658868239
30
0
10
-11.402967619603782
20
-32.526701145374602
30
0
10
-11.841422012989344
20
-32.49636148011772
30
0
10
-12.068426735858594
20
-32.480653467135106
30
0
0
SPLINE
5
116
100
AcDbEntity
8
0
100
AcDbSpline
70
0
71
3
72
9
73
5
74
0
42
0.000000001
43
0.0000000001
44
0.0000000001
40
0
40
0
40
0
40
0
40
0.066612494521816459
40
0.13006074546595203
40
0.13006074546595203
40
0.13006074546595203
40
0.13006074546595203
10
-12.068426735858594
20
-32.480653467135106
30
0
10
-12.295178766976008
20
-32.497518210346719
30
0
10
-12.737911596826589
20
-32.530446583468603
30
0
10
-13.090261578930084
20
-32.79957007866922
30
0
10
-13.262150414447461
20
-32.930858077959691
30
0
0
SPLINE
5
117
100
AcDbEntity
8
0
100
AcDbSpline
70
0
71
3
72
9
73
5
74
0
42
0.000000001
43
0.0000000001
44
0.0000000001
40
0
40
0
40
0
40
0
40
0.068595505263170514
40
0.15044092630949918
40
0.15044092630949918
40
0.15044092630949918
40
0.15044092630949918
10
-13.262150414447461
20
-32.930858077959691
30
0
10
-13.408578897521121
20
-33.111029651068634
30
0
10
-13.729720006507506
20
-33.506174759325511
30
0
10
-13.824501630251852
20
-34.008298206981792
30
0
10
-13.87606633470503
20
-34.281471910433446
30
0
0
LINE
5
118
100
AcDbEntity
8
0
100
AcDbLine
10
-13.87606633470503
20
-34.281471910433446
30
0
11
-15.103896983127271
21
-34.063190760569249
31
0
0
SPLINE
5
119
100
AcDbEntity
8
0
100
AcDbSpline
70
0
71
3
72
9
73
5
74
0
42
0.000000001
43
0.0000000001
44
0.0000000001
40
0
40
0
40
0
40
0
40
0.11559280701728772
40
0.22035231841117195
40
0.22035231841117195
40
0.22035231841117195
40
0.22035231841117195
10
-15.103896983127271
20
-34.063190760569249
30
0
10
-15.012083215009824
20
-33.681058241254654
30
0
10
-14.837060415678373
20
-32.952606456545595
30
0
10
-14.32442215639835
20
-32.408499726531097
30
0
10
-14.080704577426587
20
-32.149821462587987
30
0
0
SPLINE
5
120
100
AcDbEntity
8
0
100
AcDbSpline
70
0
71
3
72
9
73
5
74
0
42
0.000000001
43
0.0000000001
44
0.0000000001
40
0
40
0
40
0
40
0
40
0.10298890823798976
40
0.21327198199746322
40
0.21327198199746322
40
0.21327198199746322
40
0.21327198199746322
10
-14.080704577426587
20
-32.149821462587987
30
0
10
-13.792118949637363
20
-31.951925991185558
30
0
10
-13.19450868395354
20
-31.542119147551595
30
0
10
-12.470234161459919
20
-31.495308953050451
30
0
10
-12.095711358050977
20
-31.47110337253061
30
0
0
SPLINE
5
121
100
AcDbEntity
8
0
100
AcDbSpline
70
0
71
3
72
9
73
5
74
0
42
0.000000001
43
0.0000000001
44
0.0000000001
40
0
40
0
40
0
40
0
40
0.079104342101329203
40
0.15590048345968749
40
0.15590048345968749
40
0.15590048345968749
40
0.15590048345968749
10
-12.095711358050977
20
-31.47110337253061
30
0
10
-11.83001370442048
20
-31.484854234176677
30
0
10
-11.306371239863498
20
-31.511954718444187
30
0
10
-10.825220753307406
20
-31.719944336599617
30
0
10
-10.588207371692334
20
-31.822399439768464
30
0
0
SPLINE
5
122
100
AcDbEntity
8
0
100
AcDbSpline
70
0
71
3
72
9
73
5
74
0
42
0.000000001
43
0.0000000001
44
0.0000000001
40
0
40
0
40
0
40
0
40
0.073622492666469988
40
0.14389830843697649
40
0.14389830843697649
40
0.14389830843697649
40
0.14389830843697649
10
-10.588207371692334
20
-31.822399439768464
30
0
10
-10.373555171383725
20
-31.947702900445453
30
0
10
-9.954008271951567
20
-32.192613869629874
30
0
10
-9.6720307232791356
20
-32.587794678076378
30
0
10
-9.5343209581181156
20
-32.780789675669347
30
0
0
SPLINE
5
123
100
AcDbEntity
8
0
100
AcDbSpline
70
0
71
3
72
9
73
5
74
0
42
0.000000001
43
0.0000000001
44
0.0000000001
40
0
40
0
40
0
40
0
40
0.06830857008345334
40
0.13526995948691886
40
0.13526995948691886
40
0.13526995948691886
40
0.13526995948691886
10
-9.5343209581181156
20
-32.780789675669347
30
0
10
-9.4278834229982422
20
-32.985126566586032
30
0
10
-9.2171075123626736
20
-33.389770419066245
30
0
10
-9.1851837200654707
20
-33.844775245233421
30
0
10
-9.169380791644727
20
-34.070011916117345
30
0
0
SPLINE
5
124
100
AcDbEntity
8
0
100
AcDbSpline
70
0
71
3
72
9
73
5
74
0
42
0.000000001
43
0.0000000001
44
0.0000000001
40
0
40
0
40
0
40
0
40
0.062511108465700654
40
0.12438628581650402
40
0.12438628581650402
40
0.12438628581650402
40
0.12438628581650402
10
-9.169380791644727
20
-34.070011916117345
30
0
10
-9.1835779274990905
20
-34.2807290701463
30
0
10
-9.2118277704710181
20
-34.700019733690809
30
0
10
-9.4158014501441034
20
-35.067361849321543
30
0
10
-9.5172668771549809
20
-35.250093879656468
30
0
0
SPLINE
5
125
100
AcDbEntity
8
0
100
AcDbSpline
70
0
71
3
72
9
73
5
74
0
42
0.000000001
43
0.0000000001
44
0.0000000001
40
0
40
0
40
0
40
0
40
0.064353824900294371
40
0.13463644814813741
40
0.13463644814813741
40
0.13463644814813741
40
0.13463644814813741
10
-9.5172668771549809
20
-35.250093879656468
30
0
10
-9.6517910753450273
20
-35.42042679349953
30
0
10
-9.9332329362187988
20
-35.776785076135944
30
0
10
-10.336675983882547
20
-35.986472234504461
30
0
10
-10.54728043840376
20
-36.095932664827977
30
0
0
SPLINE
5
126
100
AcDbEntity
8
0
100
AcDbSpline
70
0
71
3
72
9
73
5
74
0
42
0.000000001
43
0.0000000001
44
0.0000000001
40
0
40
0
40
0
40
0
40
0.084836000762697511
40
0.16445787642406229
40
0.16445787642406229
40
0.16445787642406229
40
0.16445787642406229
10
-10.54728043840376
20
-36.095932664827977
30
0
10
-10.270975319345803
20
-36.178886392355096
30
0
10
-9.7353471341785713
20
-36.339695409139509
30
0
10
-9.3540061092662228
20
-36.747664700540973
30
0
10
-9.169380791644727
20
-36.945182027773534
30
0
0
SPLINE
5
127
100
AcDbEntity
8
0
100
AcDbSpline
70
0
71
3
72
9
73
5
74
0
42
0.000000001
43
0.0000000001
44
0.0000000001
40
0
40
0
40
0
40
0
40
0.081375477046202405
40
0.17098256773468756
40
0.17098256773468756
40
0.17098256773468756
40
0.17098256773468756
10
-9.169380791644727
20
-36.945182027773534
30
0
10
-9.0262240749260449
20
-37.180670653091198
30
0
10
-8.7254294878893255
20
-37.675468979204425
30
0
10
-8.6944735594598654
20
-38.254802782252987
30
0
10
-8.6782504396244633
20
-38.558415117220555
30
0
0
SPLINE
5
128
100
AcDbEntity
8
0
100
AcDbSpline
70
0
71
3
72
9
73
5
74
0
42
0.000000001
43
0.0000000001
44
0.0000000001
40
0
40
0
40
0
40
0
40
0.1233255359550425
40
0.24717638036952172
40
0.24717638036952172
40
0.24717638036952172
40
0.24717638036952172
10
-8.6782504396244633
20
-38.558415117220555
30
0
10
-8.7183786899163138
20
-38.978671539311989
30
0
10
-8.7988061178686028
20
-39.820974477103206
30
0
10
-9.3546941783843742
20
-40.459034796758715
30
0
10
-9.6332289056583988
20
-40.778742971377042
30
0
0
SPLINE
5
129
100
AcDbEntity
8
0
100
AcDbSpline
70
0
71
3
72
9
73
5
74
0
42
0.000000001
43
0.0000000001
44
0.0000000001
40
0
40
0
40
0
40
0
40
0.12788262009057216
40
0.26316813366728986
40
0.26316813366728986
40
0.26316813366728986
40
0.26316813366728986
10
-9.6332289056583988
20
-40.778742971377042
30
0
10
-9.9790888381036957
20
-41.044288323957055
30
0
10
-10.690829908684346
20
-41.590750969100007
30
0
10
-11.587180729159009
20
-41.655895438115849
30
0
10
-12.047963269214307
20
-41.689383926348356
30
0
0
SPLINE
5
130
100
AcDbEntity
8
0
100
AcDbSpline
70
0
71
3
72
9
73
5
74
0
42
0.000000001
43
0.0000000001
44
0.0000000001
40
0
40
0
40
0
40
0
40
0.12206643020008834
40
0.23649145465690435
40
0.23649145465690435
40
0.23649145465690435
40
0.23649145465690435
10
-12.047963269214307
20
-41.689383926348356
30
0
10
-12.463145591648743
20
-41.661134966697368
30
0
10
-13.267519662549361
20
-41.606405443195634
30
0
10
-13.918978409361525
20
-41.133668009942198
30
0
10
-14.234182961444532
20
-40.904936733202604
30
0
0
SPLINE
5
131
100
AcDbEntity
8
0
100
AcDbSpline
70
0
71
3
72
9
73
5
74
0
42
0.000000001
43
0.0000000001
44
0.0000000001
40
0
40
0
40
0
40
0
40
0.11301326613540363
40
0.2304006132705067
40
0.2304006132705067
40
0.2304006132705067
40
0.2304006132705067
10
-14.234182961444532
20
-40.904936733202604
30
0
10
-14.493317377539805
20
-40.620311086958836
30
0
10
-15.02161578381993
20
-40.040043604303207
30
0
10
-15.157465683945041
20
-39.266373316620857
30
0
10
-15.226680167178785
20
-38.872194232897435
30
0
0
LWPOLYLINE
5
132
100
AcDbEntity
8
0
100
AcDbPolyline
90
8
70
1
43
0.0
10
-8.0643321351811039
20
-41.512030305819181
10
-4.2239500360294935
20
-31.512030305819181
10
-2.7983023004337904
20
-31.512030305819184
10
1.294467322368944
20
-41.512030305819181
10
-0.21303666398969856
20
-41.512030305819181
10
-1.3794757203861829
20
-38.4833812140986
10
-5.5609227494999525
20
-38.483381214098607
10
-6.6591478662296888
20
-41.512030305819181
0
LINE
5
133
100
AcDbEntity
8
0
100
AcDbLine
10
-5.178928502063429
20
-37.405618371920262
30
0
11
-1.7887522058292982
21
-37.405618371920262
31
0
0
LINE
5
134
100
AcDbEntity
8
0
100
AcDbLine
10
-1.7887522058292982
20
-37.405618371920262
30
0
11
-2.8324080781742689
21
-34.636177363352452
31
0
0
SPLINE
5
135
100
AcDbEntity
8
0
100
AcDbSpline
70
0
71
3
72
9
73
5
74
0
42
0.000000001
43
0.0000000001
44
0.0000000001
40
0
40
0
40
0
40
0
40
0.12223847343469203
40
0.21920936736952792
40
0.21920936736952792
40
0.21920936736952792
40
0.21920936736952792
10
-2.8324080781742689
20
-34.636177363352452
30
0
10
-2.9754151600388967
20
-34.254511487169907
30
0
10
-3.2318687221954656
20
-33.570072841024597
30
0
10
-3.446761278999535
20
-32.871523014191105
30
0
10
-3.5418225602909681
20
-32.562507929758702
30
0
0
SPLINE
5
136
100
AcDbEntity
8
0
100
AcDbSpline
70
0
71
3
72
9
73
5
74
0
42
0.000000001
43
0.0000000001
44
0.0000000001
40
0
40
0
40
0
40
0
40
0.098565264210900533
40
0.19860308289727419
40
0.19860308289727419
40
0.19860308289727419
40
0.19860308289727419
10
-3.5418225602909681
20
-32.562507929758702
30
0
10
-3.6124486053370664
20
-32.883694058618794
30
0
10
-3.7547558409670945
20
-33.530864802654634
30
0
10
-3.9715184707031037
20
-34.157051734003048
30
0
10
-4.0807033853336927
20
-34.472466649965916
30
0
0
LINE
5
137
100
AcDbEntity
8
0
100
AcDbLine
10
-4.0807033853336927
20
-34.472466649965916
30
0
11
-5.178928502063429
21
-37.405618371920262
31
0
0
SPLINE
5
138
100
AcDbEntity
8
0
100
AcDbSpline
70
0
71
3
72
9
73
5
74
0
42
0.000000001
43
0.0000000001
44
0.0000000001
40
0
40
0
40
0
40
0
40
0.104156662780822
40
0.19387860784172406
40
0.19387860784172406
40
0.19387860784172406
40
0.19387860784172406
10
9.9302099867061031
20
-40.441088619188932
30
0
10
10.21992631288272
20
-40.633942128093466
30
0
10
10.759208164744084
20
-40.992922233883569
30
0
10
11.353627160088088
20
-41.249873386995063
30
0
10
11.628708712597216
20
-41.36878365512338
30
0
0
LINE
5
139
100
AcDbEntity
8
0
100
AcDbLine
10
11.628708712597213
20
-41.36878365512338
30
0
11
11.239895693798388
21
-42.289656343416837
31
0
0
SPLINE
5
140
100
AcDbEntity
8
0
100
AcDbSpline
70
0
71
3
72
9
73
5
74
0
42
0.000000001
43
0.0000000001
44
0.0000000001
40
0
40
0
40
0
40
0
40
0.11871224770455048
40
0.24826266401597502
40
0.24826266401597502
40
0.24826266401597502
40
0.24826266401597502
10
11.239895693798388
20
-42.289656343416837
30
0
10
10.873787825635709
20
-42.135630840795997
30
0
10
10.108147241578326
20
-41.813517643999162
30
0
10
9.4399008575666379
20
-41.319577504029638
30
0
10
9.0911911649897945
20
-41.061825694994596
30
0
0
SPLINE
5
141
100
AcDbEntity
8
0
100
AcDbSpline
70
0
71
3
72
9
73
5
74
0
42
0.000000001
43
0.0000000001
44
0.0000000001
40
0
40
0
40
0
40
0
40
0.12590809320299243
40
0.25542244973591316
40
0.25542244973591316
40
0.25542244973591316
40
0.25542244973591316
10
9.0911911649897945
20
-41.061825694994596
30
0
10
8.7078275010859443
20
-41.242863840799338
30
0
10
7.930119859876652
20
-41.61012543233614
30
0
10
7.0711026349540695
20
-41.658190782652191
30
0
10
6.6355298681453112
20
-41.68256277080026
30
0
0
SPLINE
5
142
100
AcDbEntity
8
0
100
AcDbSpline
70
0
71
3
72
9
73
5
74
0
42
0.000000001
43
0.0000000001
44
0.0000000001
40
0
40
0
40
0
40
0
40
0.1304648573156911
40
0.25718410422017696
40
0.25718410422017696
40
0.25718410422017696
40
0.25718410422017696
10
6.6355298681453112
20
-41.68256277080026
30
0
10
6.1963347050538031
20
-41.656902206125245
30
0
10
5.330553552017272
20
-41.606317784576696
30
0
10
4.5551183339801016
20
-41.218703348905663
30
0
10
4.1730474157527331
20
-41.027718725161222
30
0
0
SPLINE
5
143
100
AcDbEntity
8
0
100
AcDbSpline
70
0
71
3
72
9
73
5
74
0
42
0.000000001
43
0.0000000001
44
0.0000000001
40
0
40
0
40
0
40
0
40
0.12558679023071256
40
0.25344316487658303
40
0.25344316487658303
40
0.25344316487658303
40
0.25344316487658303
10
4.1730474157527331
20
-41.027718725161222
30
0
10
3.825001565287347
20
-40.785525089501078
30
0
10
3.1226200353345535
20
-40.296760933478708
30
0
10
2.6895905519468011
20
-39.558439766407886
30
0
10
2.4711369199946764
20
-39.185973348574315
30
0
0
SPLINE
5
144
100
AcDbEntity
8
0
100
AcDbSpline
70
0
71
3
72
9
73
5
74
0
42
0.000000001
43
0.0000000001
44
0.0000000001
40
0
40
0
40
0
40
0
40
0.13389827858100162
40
0.27588504615145021
40
0.27588504615145021
40
0.27588504615145021
40
0.27588504615145021
10
2.4711369199946764
20
-39.185973348574315
30
0
10
2.2970931678199014
20
-38.770959921024108
30
0
10
1.938492078172116
20
-37.915863053263443
30
0
10
1.8960950828987588
20
-36.98903226544838
30
0
10
1.8742750807002428
20
-36.512030305819188
30
0
0
SPLINE
5
145
100
AcDbEntity
8
0
100
AcDbSpline
70
0
71
3
72
9
73
5
74
0
42
0.000000001
43
0.0000000001
44
0.0000000001
40
0
40
0
40
0
40
0
40
0.14216539708696965
40
0.27791757792387661
40
0.27791757792387661
40
0.27791757792387661
40
0.27791757792387661
10
1.8742750807002428
20
-36.512030305819188
30
0
10
1.8968957305459799
20
-36.034610976606963
30
0
10
1.9411165912125439
20
-35.101309158109359
30
0
10
2.2994946299831476
20
-34.238885161717079
30
0
10
2.4745486898616198
20
-33.817623796419774
30
0
0
SPLINE
5
146
100
AcDbEntity
8
0
100
AcDbSpline
70
0
71
3
72
9
73
5
74
0
42
0.000000001
43
0.0000000001
44
0.0000000001
40
0
40
0
40
0
40
0
40
0.129315750786545
40
0.25463642605432985
40
0.25463642605432985
40
0.25463642605432985
40
0.25463642605432985
10
2.4745486898616198
20
-33.817623796419774
30
0
10
2.6928329432444054
20
-33.438776853170268
30
0
10
3.1226577852087756
20
-32.692787048649897
30
0
10
3.8334552120806586
20
-32.207763164035484
30
0
10
4.1832779569819811
20
-31.969056072191865
30
0
0
SPLINE
5
147
100
AcDbEntity
8
0
100
AcDbSpline
70
0
71
3
72
9
73
5
74
0
42
0.000000001
43
0.0000000001
44
0.0000000001
40
0
40
0
40
0
40
0
40
0.12668542245661821
40
0.25818731380353699
40
0.25818731380353699
40
0.25818731380353699
40
0.25818731380353699
10
4.1832779569819811
20
-31.969056072191865
30
0
10
4.5678222006881297
20
-31.78404681145695
30
0
10
5.3515307237038767
20
-31.406994399808848
30
0
10
6.2203175129367327
20
-31.359080533565567
30
0
10
6.662814490337694
20
-31.33467668529001
30
0
0
SPLINE
5
148
100
AcDbEntity
8
0
100
AcDbSpline
70
0
71
3
72
9
73
5
74
0
42
0.000000001
43
0.0000000001
44
0.0000000001
40
0
40
0
40
0
40
0
40
0.13267522067513282
40
0.26059423996617603
40
0.26059423996617603
40
0.26059423996617603
40
0.26059423996617603
10
6.662814490337694
20
-31.33467668529001
30
0
10
7.1095030361603184
20
-31.360045736781679
30
0
10
7.9868670345611248
20
-31.409874398520429
30
0
10
8.7733438405061825
20
-31.800957477651437
30
0
10
9.1594051046565426
20
-31.9929301166102
30
0
0
SPLINE
5
149
100
AcDbEntity
8
0
100
AcDbSpline
70
0
71
3
72
9
73
5
74
0
42
0.000000001
43
0.0000000001
44
0.0000000001
40
0
40
0
40
0
40
0
40
0.12582656210928056
40
0.25306100830333228
40
0.25306100830333228
40
0.25306100830333228
40
0.25306100830333228
10
9.1594051046565426
20
-31.9929301166102
30
0
10
9.5085337302583817
20
-32.235319645505456
30
0
10
10.210697411291211
20
-32.722810820311054
30
0
10
10.639099384515212
20
-33.46268265827846
30
0
10
10.854492060680712
20
-33.834676685290013
30
0
0
SPLINE
5
150
100
AcDbEntity
8
0
100
AcDbSpline
70
0
71
3
72
9
73
5
74
0
42
0.000000001
43
0.0000000001
44
0.0000000001
40
0
40
0
40
0
40
0
40
0.13331788803715675
40
0.27518441285659012
40
0.27518441285659012
40
0.27518441285659012
40
0.27518441285659012
10
10.854492060680712
20
-33.834676685290013
30
0
10
11.02455109879649
20
-34.249080967143051
30
0
10
11.37557373532221
20
-35.104462046651307
30
0
10
11.416574407428271
20
-36.028722299836318
30
0
10
11.437711588878955
20
-36.505208554224645
30
0
0
SPLINE
5
151
100
AcDbEntity
8
0
100
AcDbSpline
70
0
71
3
72
9
73
5
74
0
42
0.000000001
43
0.0000000001
44
0.0000000001
40
0
40
0
40
0
40
0
40
0.11761536859648471
40
0.22611924999815453
40
0.22611924999815453
40
0.22611924999815453
40
0.22611924999815453
10
11.437711588878955
20
-36.505208554224645
30
0
10
11.424757135151641
20
-36.899174541250702
30
0
10
11.399851789907128
20
-37.656586557844747
30
0
10
11.171916293101102
20
-38.378921972846648
30
0
10
11.062540881176318
20
-38.725536408381139
30
0
0
SPLINE
5
152
100
AcDbEntity
8
0
100
AcDbSpline
70
0
71
3
72
9
73
5
74
0
42
0.000000001
43
0.0000000001
44
0.0000000001
40
0
40
0
40
0
40
0
40
0.10349444159189115
40
0.20683628161923739
40
0.20683628161923739
40
0.20683628161923739
40
0.20683628161923739
10
11.062540881176318
20
-38.725536408381139
30
0
10
10.92165918553366
20
-39.043346646156898
30
0
10
10.640103522961478
20
-39.678498513551631
30
0
10
10.166724747549667
20
-40.187016977111611
30
0
10
9.9302099867061031
20
-40.441088619188932
30
0
0
SPLINE
5
153
100
AcDbEntity
8
0
100
AcDbSpline
70
0
71
3
72
9
73
5
74
0
42
0.000000001
43
0.0000000001
44
0.0000000001
40
0
40
0
40
0
40
0
40
0.11189349513891921
40
0.21296911030524113
40
0.21296911030524113
40
0.21296911030524113
40
0.21296911030524113
10
7.0175217313960436
20
-38.749411048845921
30
0
10
7.3756845611109556
20
-38.863477449346448
30
0
10
8.0573829841881128
20
-39.080582293557079
30
0
10
8.6335618195340302
20
-39.503617332934262
30
0
10
8.9070175810054195
20
-39.704390706972752
30
0
0
SPLINE
5
154
100
AcDbEntity
8
0
100
AcDbSpline
70
0
71
3
72
9
73
5
74
0
42
0.000000001
43
0.0000000001
44
0.0000000001
40
0
40
0
40
0
40
0
40
0.1593476004106055
40
0.34834348673538679
40
0.34834348673538679
40
0.34834348673538679
40
0.34834348673538679
10
8.9070175810054195
20
-39.704390706972752
30
0
10
9.2465800542685006
20
-39.278930105748593
30
0
10
9.9888841466813041
20
-38.348847513246028
30
0
10
10.043710347359159
20
-37.15366313729151
30
0
10
10.073456637401904
20
-36.505208554224645
30
0
0
SPLINE
5
155
100
AcDbEntity
8
0
100
AcDbSpline
70
0
71
3
72
9
73
5
74
0
42
0.000000001
43
0.0000000001
44
0.0000000001
40
0
40
0
40
0
40
0
40
0.11421181738222534
40
0.21736203895031367
40
0.21736203895031367
40
0.21736203895031367
40
0.21736203895031367
10
10.073456637401904
20
-36.505208554224645
30
0
10
10.060042496442726
20
-36.121859010200914
30
0
10
10.034513395369974
20
-35.392287934024004
30
0
10
9.7810504607469682
20
-34.708354028641011
30
0
10
9.6607683820918453
20
-34.383789839701329
30
0
0
SPLINE
5
156
100
AcDbEntity
8
0
100
AcDbSpline
70
0
71
3
72
9
73
5
74
0
42
0.000000001
43
0.0000000001
44
0.0000000001
40
0
40
0
40
0
40
0
40
0.095263180777984388
40
0.18758109019478914
40
0.18758109019478914
40
0.18758109019478914
40
0.18758109019478914
10
9.6607683820918453
20
-34.383789839701329
30
0
10
9.509427959641684
20
-34.099652986323868
30
0
10
9.2114261377216202
20
-33.540163997127969
30
0
10
8.7034181750743613
20
-33.161536342609097
30
0
10
8.4534023924067867
20
-32.975194992975865
30
0
0
SPLINE
5
157
100
AcDbEntity
8
0
100
AcDbSpline
70
0
71
3
72
9
73
5
74
0
42
0.000000001
43
0.0000000001
44
0.0000000001
40
0
40
0
40
0
40
0
40
0.092331870999023777
40
0.18721191934274012
40
0.18721191934274012
40
0.18721191934274012
40
0.18721191934274012
10
8.4534023924067867
20
-32.975194992975865
30
0
10
8.1782222732841081
20
-32.828971425842468
30
0
10
7.6202676070512032
20
-32.532488809818425
30
0
10
6.9893753647164569
20
-32.493560304055251
30
0
10
6.6696356458857897
20
-32.473831119494115
30
0
0
SPLINE
5
158
100
AcDbEntity
8
0
100
AcDbSpline
70
0
71
3
72
9
73
5
74
0
42
0.000000001
43
0.0000000001
44
0.0000000001
40
0
40
0
40
0
40
0
40
0.13775022814284901
40
0.27157020504133744
40
0.27157020504133744
40
0.27157020504133744
40
0.27157020504133744
10
6.6696356458857897
20
-32.473831119494115
30
0
10
6.1996927445568684
20
-32.513540580639685
30
0
10
5.2732152222164208
20
-32.591826523616142
30
0
10
4.5636315323997056
20
-33.191361861087429
30
0
10
4.2139743490413073
20
-33.486791195826207
30
0
0
SPLINE
5
159
100
AcDbEntity
8
0
100
AcDbSpline
70
0
71
3
72
9
73
5
74
0
42
0.000000001
43
0.0000000001
44
0.0000000001
40
0
40
0
40
0
40
0
40
0.14594004499416863
40
0.32386400081484945
40
0.32386400081484945
40
0.32386400081484945
40
0.32386400081484945
10
4.2139743490413073
20
-33.486791195826207
30
0
10
3.9301925453583175
20
-33.89398965277713
30
0
10
3.3004359195953237
20
-34.797627317127777
30
0
10
3.2604821583379318
20
-35.904137355051674
30
0
10
3.2385324163630846
20
-36.512030305819188
30
0
0
SPLINE
5
160
100
AcDbEntity
8
0
100
AcDbSpline
70
0
71
3
72
9
73
5
74
0
42
0.000000001
43
0.0000000001
44
0.0000000001
40
0
40
0
40
0
40
0
40
0.17408835303230086
40
0.32031164471212875
40
0.32031164471212875
40
0.32031164471212875
40
0.32031164471212875
10
3.2385324163630846
20
-36.512030305819188
30
0
10
3.2627539192649602
20
-37.105882469892698
30
0
10
3.3073199645905893
20
-38.198533184756727
30
0
10
3.9227829732176689
20
-39.096602226142402
30
0
10
4.2037438078120593
20
-39.50657361979929
30
0
0
SPLINE
5
161
100
AcDbEntity
8
0
100
AcDbSpline
70
0
71
3
72
9
73
5
74
0
42
0.000000001
43
0.0000000001
44
0.0000000001
40
0
40
0
40
0
40
0
40
0.13493182397768821
40
0.27408117052553471
40
0.27408117052553471
40
0.27408117052553471
40
0.27408117052553471
10
4.2037438078120593
20
-39.50657361979929
30
0
10
4.5515346129834233
20
-39.8109532627237
30
0
10
5.2579870136798545
20
-40.429226449564062
30
0
10
6.194283568508272
20
-40.509483483295284
30
0
10
6.6696356458857897
20
-40.550229492144254
30
0
0
SPLINE
5
162
100
AcDbEntity
8
0
100
AcDbSpline
70
0
71
3
72
9
73
5
74
0
42
0.000000001
43
0.0000000001
44
0.0000000001
40
0
40
0
40
0
40
0
40
0.069215364226357601
40
0.13701960727018608
40
0.13701960727018608
40
0.13701960727018608
40
0.13701960727018608
10
6.6696356458857897
20
-40.550229492144254
30
0
10
6.9015964438346922
20
-40.539608969211884
30
0
10
7.3607889626097966
20
-40.518584448175773
30
0
10
7.7928183379682014
20
-40.361789661175216
30
0
10
8.0066083593562496
20
-40.28419965739694
30
0
0
SPLINE
5
163
100
AcDbEntity
8
0
100
AcDbSpline
70
0
71
3
72
9
73
5
74
0
42
0.000000001
43
0.0000000001
44
0.0000000001
40
0
40
0
40
0
40
0
40
0.072487248105470914
40
0.14345630452765212
40
0.14345630452765212
40
0.14345630452765212
40
0.14345630452765212
10
8.0066083593562496
20
-40.28419965739694
30
0
10
7.7980937899334402
20
-40.160020895453066
30
0
10
7.3854318341912739
20
-39.914264203691673
30
0
10
6.9248007668812983
20
-39.778416753739748
30
0
10
6.6969226522639635
20
-39.711211862520848
30
0
0
LINE
5
164
100
AcDbEntity
8
0
100
AcDbLine
10
6.6969226522639635
20
-39.711211862520848
30
0
11
7.0175217313960436
21
-38.749411048845921
31
0
0
LWPOLYLINE
5
165
100
AcDbEntity
8
0
100
AcDbPolyline
90
12
70
1
43
0.0
10
13.163499705334033
20
-41.512030305819181
10
13.163499705334033
20
-31.512030305819181
10
14.486827723522509
20
-31.512030305819184
10
14.486827723522509
20
-36.471102776484166
10
19.452724329967822
20
-31.512030305819184
10
21.246719233532275
20
-31.512030305819184
10
17.051629893322314
20
-35.563871803240453
10
21.43089281751665
20
-41.512030305819181
10
19.684648386974658
20
-41.512030305819181
10
16.123938433666552
20
-36.450638713793424
10
14.486827723522509
20
-38.046818914370213
10
14.486827723522509
20
-41.512030305819181
0
ENDSEC
0
SECTION
2
OBJECTS
0
DICTIONARY
5
C
100
AcDbDictionary
3
ACAD_GROUP
350
D
3
ACAD_MLINESTYLE
350
17
0
DICTIONARY
5
D
100
AcDbDictionary
0
DICTIONARY
5
1A
330
C
100
AcDbDictionary
0
DICTIONARY
5
17
100
AcDbDictionary
0
ENDSEC
0
EOF
