                                                                        S      1
,,18Htappo_camper_27 v2,16Htappocamper27 v2,7Hunknown,7Hunknown,32,38,7,G      1
99,15,,1.,2,2HMM,1,0.08,15H20230101.152227,0.01,10000.,7Hunknown,7HunknoG      2
wn,11,0,15H20220703.192306;                                             G      3
     186       1                                                00000000D      1
     186             -65       1       0                               0D      2
     514       2                                                00010000D      3
     514                       1       1                               0D      4
     510       3                                                00010000D      5
     510             -65       1       1                               0D      6
     510       4                                                00010000D      7
     510             -65       1       1                               0D      8
     510       5                                                00010000D      9
     510             -65       1       1                               0D     10
     510       6                                                00010000D     11
     510             -65       1       1                               0D     12
     510       7                                                00010000D     13
     510             -65       1       1                               0D     14
     510       8                                                00010000D     15
     510             -65       1       1                               0D     16
     508       9                                                00010000D     17
     508                       1       1                               0D     18
     508      10                                                00010000D     19
     508                       1       1                               0D     20
     508      11                                                00010000D     21
     508                       1       1                               0D     22
     508      12                                                00010000D     23
     508                       1       1                               0D     24
     508      13                                                00010000D     25
     508                       1       1                               0D     26
     508      14                                                00010000D     27
     508                       1       1                               0D     28
     508      15                                                00010000D     29
     508                       1       1                               0D     30
     126      16                                                00010000D     31
     126       0              10       0                               0D     32
     126      26                                                00010000D     33
     126       0               3       0                               0D     34
     126      29                                                00010000D     35
     126       0              10       0                               0D     36
     126      39                                                00010000D     37
     126       0               2       0                               0D     38
     126      41                                                00010000D     39
     126       0              10       0                               0D     40
     126      51                                                00010000D     41
     126       0              10       0                               0D     42
     126      61                                                00010000D     43
     126       0               2       0                               0D     44
     126      63                                                00010000D     45
     126       0              10       0                               0D     46
     128      73                                                00010000D     47
     128       0     -65      16       0                               0D     48
     128      89                                                00010000D     49
     128       0     -65      13       0                               0D     50
     128     102                                                00010000D     51
     128       0     -65       3       0                               0D     52
     128     105                                                00010000D     53
     128       0     -65      12       0                               0D     54
     128     117                                                00010000D     55
     128       0     -65       3       0                               0D     56
     128     120                                                00010000D     57
     128       0     -65       3       0                               0D     58
     502     123                                                00010000D     59
     502                       3       1                               0D     60
     504     126                                                00010001D     61
     504                       2       1                               0D     62
     406     128                                                00000000D     63
     406                       1      15                               0D     64
     314     129                                                00000200D     65
     314                       2       0                               0D     66
186,3,1,0,0,1,63;                                                      1P      1
514,6,5,1,7,1,9,1,11,1,13,1,15,1;                                      3P      2
510,47,1,1,17;                                                         5P      3
510,49,1,1,19;                                                         7P      4
510,51,1,1,21;                                                         9P      5
510,53,1,1,23;                                                        11P      6
510,55,1,1,25;                                                        13P      7
510,57,2,1,27,29;                                                     15P      8
508,4,0,61,1,1,0,0,61,2,1,0,0,61,3,1,0,0,61,2,0,0;                    17P      9
508,4,0,61,3,0,0,0,61,4,1,0,0,61,5,1,0,0,61,4,0,0;                    19P     10
508,1,0,61,1,0,0;                                                     21P     11
508,4,0,61,6,0,0,0,61,7,1,0,0,61,8,0,0,0,61,7,0,0;                    23P     12
508,1,0,61,6,1,0;                                                     25P     13
508,1,0,61,5,0,0;                                                     27P     14
508,1,0,61,8,1,0;                                                     29P     15
126,8,2,0,1,0,0,-3.14159265358979,-3.14159265358979,                  31P     16
-3.14159265358979,-1.5707963267949,-1.5707963267949,0.,0.,            31P     17
1.5707963267949,1.5707963267949,3.14159265358979,                     31P     18
3.14159265358979,3.14159265358979,1.,0.707106781186548,1.,            31P     19
0.707106781186548,1.,0.707106781186548,1.,0.707106781186548,1.,       31P     20
-14.5,1.77573785876366D-15,2.2,-14.5,14.5,2.2,                        31P     21
8.87868929381831D-16,14.5,2.2,14.5,14.5,2.2,14.5,0.,2.2,14.5,         31P     22
-14.5,2.2,8.87868929381831D-16,-14.5,2.2,-14.5,-14.5,2.2,-14.5,       31P     23
-1.77573785876366D-15,2.2,-3.14159265358979,3.14159265358979,0.,      31P     24
0.,0.;                                                                31P     25
126,2,2,0,0,0,0,-1.5707963267949,-1.5707963267949,                    33P     26
-1.5707963267949,0.,0.,0.,1.,0.707106781186547,1.,-14.5,0.,2.2,       33P     27
-16.5,0.,2.2,-16.5,0.,0.2,-1.5707963267949,0.,0.,0.,0.;               33P     28
126,8,2,0,1,0,0,-3.14159265358979,-3.14159265358979,                  35P     29
-3.14159265358979,-1.5707963267949,-1.5707963267949,0.,0.,            35P     30
1.5707963267949,1.5707963267949,3.14159265358979,                     35P     31
3.14159265358979,3.14159265358979,1.,0.707106781186548,1.,            35P     32
0.707106781186548,1.,0.707106781186548,1.,0.707106781186548,1.,       35P     33
-16.5,-2.02066721859313D-15,0.2,-16.5,-16.5,0.2,                      35P     34
1.01033360929657D-15,-16.5,0.2,16.5,-16.5,0.2,16.5,0.,0.2,16.5,       35P     35
16.5,0.2,1.01033360929657D-15,16.5,0.2,-16.5,16.5,0.2,-16.5,          35P     36
2.02066721859313D-15,0.2,-3.14159265358979,3.14159265358979,0.,       35P     37
0.,0.;                                                                35P     38
126,1,1,0,0,1,0,-0.0121212121212121,-0.0121212121212121,0.,0.,        37P     39
1.,1.,-16.5,0.,0.2,-16.5,0.,0.,-0.0121212121212121,0.,0.,0.,0.;       37P     40
126,8,2,0,1,0,0,-3.14159265358979,-3.14159265358979,                  39P     41
-3.14159265358979,-1.5707963267949,-1.5707963267949,0.,0.,            39P     42
1.5707963267949,1.5707963267949,3.14159265358979,                     39P     43
3.14159265358979,3.14159265358979,1.,0.707106781186548,1.,            39P     44
0.707106781186548,1.,0.707106781186548,1.,0.707106781186548,1.,       39P     45
-16.5,-2.02066721859313D-15,0.,-16.5,-16.5,0.,                        39P     46
1.01033360929657D-15,-16.5,0.,16.5,-16.5,0.,16.5,0.,0.,16.5,          39P     47
16.5,0.,1.01033360929657D-15,16.5,0.,-16.5,16.5,0.,-16.5,             39P     48
2.02066721859313D-15,0.,-3.14159265358979,3.14159265358979,0.,        39P     49
0.,0.;                                                                39P     50
126,8,2,0,1,0,0,-3.14159265358979,-3.14159265358979,                  41P     51
-3.14159265358979,-1.5707963267949,-1.5707963267949,0.,0.,            41P     52
1.5707963267949,1.5707963267949,3.14159265358979,                     41P     53
3.14159265358979,3.14159265358979,1.,0.707106781186548,1.,            41P     54
0.707106781186548,1.,0.707106781186548,1.,0.707106781186548,1.,       41P     55
-13.5,1.65327317884893D-15,-6.,-13.5,13.5,-6.,                        41P     56
8.26636589424463D-16,13.5,-6.,13.5,13.5,-6.,13.5,0.,-6.,13.5,         41P     57
-13.5,-6.,8.26636589424463D-16,-13.5,-6.,-13.5,-13.5,-6.,-13.5,       41P     58
-1.65327317884893D-15,-6.,-3.14159265358979,3.14159265358979,0.,      41P     59
0.,0.;                                                                41P     60
126,1,1,0,0,1,0,-0.444444444444444,-0.444444444444444,0.,0.,1.,       43P     61
1.,-13.5,0.,-6.,-13.5,0.,0.,-0.444444444444444,0.,0.,0.,0.;           43P     62
126,8,2,0,1,0,0,-3.14159265358979,-3.14159265358979,                  45P     63
-3.14159265358979,-1.5707963267949,-1.5707963267949,0.,0.,            45P     64
1.5707963267949,1.5707963267949,3.14159265358979,                     45P     65
3.14159265358979,3.14159265358979,1.,0.707106781186548,1.,            45P     66
0.707106781186548,1.,0.707106781186548,1.,0.707106781186548,1.,       45P     67
-13.5,-1.65327317884893D-15,0.,-13.5,-13.5,0.,                        45P     68
8.26636589424463D-16,-13.5,0.,13.5,-13.5,0.,13.5,0.,0.,13.5,          45P     69
13.5,0.,8.26636589424463D-16,13.5,0.,-13.5,13.5,0.,-13.5,             45P     70
1.65327317884893D-15,0.,-3.14159265358979,3.14159265358979,0.,        45P     71
0.,0.;                                                                45P     72
128,2,8,2,2,0,1,0,0,1,0.,0.,0.,1.5707963267949,1.5707963267949,       47P     73
1.5707963267949,-3.14159265358979,-3.14159265358979,                  47P     74
-3.14159265358979,-1.5707963267949,-1.5707963267949,0.,0.,            47P     75
1.5707963267949,1.5707963267949,3.14159265358979,                     47P     76
3.14159265358979,3.14159265358979,1.,0.707106781186547,1.,            47P     77
0.707106781186548,0.5,0.707106781186548,1.,0.707106781186547,1.,      47P     78
0.707106781186548,0.5,0.707106781186548,1.,0.707106781186547,1.,      47P     79
0.707106781186548,0.5,0.707106781186548,1.,0.707106781186547,1.,      47P     80
0.707106781186548,0.5,0.707106781186548,1.,0.707106781186547,1.,      47P     81
-14.5,0.,2.2,-16.5,0.,2.2,-16.5,0.,0.2,-14.5,-14.5,2.2,-16.5,         47P     82
-16.5,2.2,-16.5,-16.5,0.2,0.,-14.5,2.2,0.,-16.5,2.2,0.,-16.5,         47P     83
0.2,14.5,-14.5,2.2,16.5,-16.5,2.2,16.5,-16.5,0.2,14.5,0.,2.2,         47P     84
16.5,0.,2.2,16.5,0.,0.2,14.5,14.5,2.2,16.5,16.5,2.2,16.5,16.5,        47P     85
0.2,0.,14.5,2.2,0.,16.5,2.2,0.,16.5,0.2,-14.5,14.5,2.2,-16.5,         47P     86
16.5,2.2,-16.5,16.5,0.2,-14.5,0.,2.2,-16.5,0.,2.2,-16.5,0.,0.2,       47P     87
0.,1.5707963267949,-3.14159265358979,3.14159265358979;                47P     88
128,1,8,1,2,0,1,0,0,1,0.,0.,0.0121212121212121,                       49P     89
0.0121212121212121,-3.14159265358979,-3.14159265358979,               49P     90
-3.14159265358979,-1.5707963267949,-1.5707963267949,0.,0.,            49P     91
1.5707963267949,1.5707963267949,3.14159265358979,                     49P     92
3.14159265358979,3.14159265358979,1.,1.,0.707106781186548,            49P     93
0.707106781186548,1.,1.,0.707106781186548,0.707106781186548,1.,       49P     94
1.,0.707106781186548,0.707106781186548,1.,1.,0.707106781186548,       49P     95
0.707106781186548,1.,1.,-16.5,0.,0.2,-16.5,0.,0.,-16.5,-16.5,         49P     96
0.2,-16.5,-16.5,0.,0.,-16.5,0.2,0.,-16.5,0.,16.5,-16.5,0.2,16.5,      49P     97
-16.5,0.,16.5,0.,0.2,16.5,0.,0.,16.5,16.5,0.2,16.5,16.5,0.,0.,        49P     98
16.5,0.2,0.,16.5,0.,-16.5,16.5,0.2,-16.5,16.5,0.,-16.5,0.,0.2,        49P     99
-16.5,0.,0.,0.,0.0121212121212121,-3.14159265358979,                  49P    100
3.14159265358979;                                                     49P    101
128,1,1,1,1,0,0,1,0,0,-1.451,-1.451,1.451,1.451,-1.451,-1.451,        51P    102
1.451,1.451,1.,1.,1.,1.,-14.51,-14.51,2.2,14.51,-14.51,2.2,           51P    103
-14.51,14.51,2.2,14.51,14.51,2.2,-1.451,1.451,-1.451,1.451;           51P    104
128,1,8,1,2,0,1,0,0,1,0.,0.,0.444444444444444,0.444444444444444,      53P    105
-3.14159265358979,-3.14159265358979,-3.14159265358979,                53P    106
-1.5707963267949,-1.5707963267949,0.,0.,1.5707963267949,              53P    107
1.5707963267949,3.14159265358979,3.14159265358979,                    53P    108
3.14159265358979,1.,1.,0.707106781186548,0.707106781186548,1.,        53P    109
1.,0.707106781186548,0.707106781186548,1.,1.,0.707106781186548,       53P    110
0.707106781186548,1.,1.,0.707106781186548,0.707106781186548,1.,       53P    111
1.,-13.5,0.,-6.,-13.5,0.,0.,-13.5,13.5,-6.,-13.5,13.5,0.,0.,          53P    112
13.5,-6.,0.,13.5,0.,13.5,13.5,-6.,13.5,13.5,0.,13.5,0.,-6.,13.5,      53P    113
0.,0.,13.5,-13.5,-6.,13.5,-13.5,0.,0.,-13.5,-6.,0.,-13.5,0.,          53P    114
-13.5,-13.5,-6.,-13.5,-13.5,0.,-13.5,0.,-6.,-13.5,0.,0.,0.,           53P    115
0.444444444444444,-3.14159265358979,3.14159265358979;                 53P    116
128,1,1,1,1,0,0,1,0,0,-1.351,-1.351,1.351,1.351,-1.351,-1.351,        55P    117
1.351,1.351,1.,1.,1.,1.,13.51,-13.51,-6.,-13.51,-13.51,-6.,           55P    118
13.51,13.51,-6.,-13.51,13.51,-6.,-1.351,1.351,-1.351,1.351;           55P    119
128,1,1,1,1,0,0,1,0,0,-1.651,-1.651,1.651,1.651,-1.651,-1.651,        57P    120
1.651,1.651,1.,1.,1.,1.,16.51,-16.51,0.,-16.51,-16.51,0.,16.51,       57P    121
16.51,0.,-16.51,16.51,0.,-1.651,1.651,-1.651,1.651;                   57P    122
502,5,-14.5,1.77573785876366D-15,2.2,-16.5,                           59P    123
-2.02066721859313D-15,0.2,-16.5,-2.02066721859313D-15,0.,-13.5,       59P    124
-1.65327317884893D-15,-6.,-13.5,-1.65327317884893D-15,0.;             59P    125
504,8,31,59,1,59,1,33,59,1,59,2,35,59,2,59,2,37,59,2,59,3,39,59,      61P    126
3,59,3,41,59,4,59,4,43,59,4,59,5,45,59,5,59,5;                        61P    127
406,1,5HBody1;                                                        63P    128
314,62.7450980392157,62.7450980392157,62.7450980392157,13HSteel       65P    129
- Satin;                                                              65P    130
S      1G      3D     66P    130                                        T      1
