                                                                        S      1
,,17Hpcb_raiser_big v3,15Hpcbraiserbig v3,7Hunknown,7Hunknown,32,38,7,  G      1
99,15,,1.,2,2HMM,1,0.08,15H20230101.152035,0.01,10000.,7Hunknown,7HunknoG      2
wn,11,0,15H20211203.065543;                                             G      3
     186       1                                                00000000D      1
     186             -75       1       0                               0D      2
     514       2                                                00010000D      3
     514                       1       1                               0D      4
     510       3                                                00010000D      5
     510             -75       1       1                               0D      6
     510       4                                                00010000D      7
     510             -75       1       1                               0D      8
     510       5                                                00010000D      9
     510             -75       1       1                               0D     10
     510       6                                                00010000D     11
     510             -75       1       1                               0D     12
     510       7                                                00010000D     13
     510             -75       1       1                               0D     14
     510       8                                                00010000D     15
     510             -75       1       1                               0D     16
     510       9                                                00010000D     17
     510             -75       1       1                               0D     18
     508      10                                                00010000D     19
     508                       1       1                               0D     20
     508      11                                                00010000D     21
     508                       1       1                               0D     22
     508      12                                                00010000D     23
     508                       1       1                               0D     24
     508      13                                                00010000D     25
     508                       1       1                               0D     26
     508      14                                                00010000D     27
     508                       1       1                               0D     28
     508      15                                                00010000D     29
     508                       1       1                               0D     30
     508      16                                                00010000D     31
     508                       1       1                               0D     32
     508      17                                                00010000D     33
     508                       1       1                               0D     34
     508      18                                                00010000D     35
     508                       1       1                               0D     36
     126      19                                                00010000D     37
     126       0              10       0                               0D     38
     126      29                                                00010000D     39
     126       0               3       0                               0D     40
     126      32                                                00010000D     41
     126       0              10       0                               0D     42
     126      42                                                00010000D     43
     126       0               9       0                               0D     44
     126      51                                                00010000D     45
     126       0               2       0                               0D     46
     126      53                                                00010000D     47
     126       0               9       0                               0D     48
     126      62                                                00010000D     49
     126       0               9       0                               0D     50
     126      71                                                00010000D     51
     126       0               2       0                               0D     52
     126      73                                                00010000D     53
     126       0               9       0                               0D     54
     128      82                                                00010000D     55
     128       0     -75      13       0                               0D     56
     128      95                                                00010000D     57
     128       0     -75       3       0                               0D     58
     128      98                                                00010000D     59
     128       0     -75      11       0                               0D     60
     128     109                                                00010000D     61
     128       0     -75       3       0                               0D     62
     128     112                                                00010000D     63
     128       0     -75      11       0                               0D     64
     128     123                                                00010000D     65
     128       0     -75       3       0                               0D     66
     128     126                                                00010000D     67
     128       0     -75       3       0                               0D     68
     502     129                                                00010000D     69
     502                       3       1                               0D     70
     504     132                                                00010001D     71
     504                       2       1                               0D     72
     406     134                                                00000000D     73
     406                       1      15                               0D     74
     314     135                                                00000200D     75
     314                       2       0                               0D     76
186,3,1,0,0,1,73;                                                      1P      1
514,7,5,1,7,1,9,1,11,1,13,1,15,1,17,1;                                 3P      2
510,55,1,1,19;                                                         5P      3
510,57,1,1,21;                                                         7P      4
510,59,1,1,23;                                                         9P      5
510,61,2,1,25,27;                                                     11P      6
510,63,1,1,29;                                                        13P      7
510,65,2,1,31,33;                                                     15P      8
510,67,1,1,35;                                                        17P      9
508,4,0,71,1,0,0,0,71,2,1,0,0,71,3,0,0,0,71,2,0,0;                    19P     10
508,1,0,71,1,1,0;                                                     21P     11
508,4,0,71,4,0,0,0,71,5,1,0,0,71,6,0,0,0,71,5,0,0;                    23P     12
508,1,0,71,4,1,0;                                                     25P     13
508,1,0,71,3,1,0;                                                     27P     14
508,4,0,71,7,0,0,0,71,8,1,0,0,71,9,1,0,0,71,8,0,0;                    29P     15
508,1,0,71,7,1,0;                                                     31P     16
508,1,0,71,6,1,0;                                                     33P     17
508,1,0,71,9,0,0;                                                     35P     18
126,8,2,0,1,0,0,-3.14159265358979,-3.14159265358979,                  37P     19
-3.14159265358979,-1.5707963267949,-1.5707963267949,0.,0.,            37P     20
1.5707963267949,1.5707963267949,3.14159265358979,                     37P     21
3.14159265358979,3.14159265358979,1.,0.707106781186548,1.,            37P     22
0.707106781186548,1.,0.707106781186548,1.,0.707106781186548,1.,       37P     23
-1.9,-2.32682891837997D-16,18.,-1.9,-1.9,18.,                         37P     24
1.16341445918999D-16,-1.9,18.,1.9,-1.9,18.,1.9,0.,18.,1.9,1.9,        37P     25
18.,1.16341445918999D-16,1.9,18.,-1.9,1.9,18.,-1.9,                   37P     26
2.32682891837997D-16,18.,-3.14159265358979,3.14159265358979,0.,       37P     27
0.,0.;                                                                37P     28
126,1,1,0,0,1,0,-9.47368421052632,-9.47368421052632,                  39P     29
-6.84210526315789,-6.84210526315789,1.,1.,-1.9,0.,18.,-1.9,0.,        39P     30
13.,-9.47368421052632,-6.84210526315789,0.,0.,0.;                     39P     31
126,8,2,0,1,0,0,-3.14159265358979,-3.14159265358979,                  41P     32
-3.14159265358979,-1.5707963267949,-1.5707963267949,0.,0.,            41P     33
1.5707963267949,1.5707963267949,3.14159265358979,                     41P     34
3.14159265358979,3.14159265358979,1.,0.707106781186548,1.,            41P     35
0.707106781186548,1.,0.707106781186548,1.,0.707106781186548,1.,       41P     36
-1.9,2.32682891837997D-16,13.,-1.9,1.9,13.,1.16341445918999D-16,      41P     37
1.9,13.,1.9,1.9,13.,1.9,0.,13.,1.9,-1.9,13.,                          41P     38
1.16341445918999D-16,-1.9,13.,-1.9,-1.9,13.,-1.9,                     41P     39
-2.32682891837997D-16,13.,-3.14159265358979,3.14159265358979,0.,      41P     40
0.,0.;                                                                41P     41
126,8,2,0,1,0,0,-3.14159265358979,-3.14159265358979,                  43P     42
-3.14159265358979,-1.5707963267949,-1.5707963267949,0.,0.,            43P     43
1.5707963267949,1.5707963267949,3.14159265358979,                     43P     44
3.14159265358979,3.14159265358979,1.,0.707106781186548,1.,            43P     45
0.707106781186548,1.,0.707106781186548,1.,0.707106781186548,1.,       43P     46
-5.,-6.12323399573677D-16,13.,-5.,-5.,13.,3.06161699786838D-16,       43P     47
-5.,13.,5.,-5.,13.,5.,0.,13.,5.,5.,13.,3.06161699786838D-16,5.,       43P     48
13.,-5.,5.,13.,-5.,6.12323399573677D-16,13.,-3.14159265358979,        43P     49
3.14159265358979,0.,0.,0.;                                            43P     50
126,1,1,0,0,1,0,-2.6,-2.6,-0.6,-0.6,1.,1.,-5.,0.,13.,-5.,0.,3.,       45P     51
-2.6,-0.6,0.,0.,0.;                                                   45P     52
126,8,2,0,1,0,0,-3.14159265358979,-3.14159265358979,                  47P     53
-3.14159265358979,-1.5707963267949,-1.5707963267949,0.,0.,            47P     54
1.5707963267949,1.5707963267949,3.14159265358979,                     47P     55
3.14159265358979,3.14159265358979,1.,0.707106781186548,1.,            47P     56
0.707106781186548,1.,0.707106781186548,1.,0.707106781186548,1.,       47P     57
-5.,6.12323399573677D-16,3.,-5.,5.,3.,3.06161699786838D-16,5.,        47P     58
3.,5.,5.,3.,5.,0.,3.,5.,-5.,3.,3.06161699786838D-16,-5.,3.,-5.,       47P     59
-5.,3.,-5.,-6.12323399573677D-16,3.,-3.14159265358979,                47P     60
3.14159265358979,0.,0.,0.;                                            47P     61
126,8,2,0,1,0,0,-3.14159265358979,-3.14159265358979,                  49P     62
-3.14159265358979,-1.5707963267949,-1.5707963267949,0.,0.,            49P     63
1.5707963267949,1.5707963267949,3.14159265358979,                     49P     64
3.14159265358979,3.14159265358979,1.,0.707106781186548,1.,            49P     65
0.707106781186548,1.,0.707106781186548,1.,0.707106781186548,1.,       49P     66
-10.,-1.22464679914735D-15,3.,-10.,-10.,3.,6.12323399573677D-16,      49P     67
-10.,3.,10.,-10.,3.,10.,0.,3.,10.,10.,3.,6.12323399573677D-16,        49P     68
10.,3.,-10.,10.,3.,-10.,1.22464679914735D-15,3.,                      49P     69
-3.14159265358979,3.14159265358979,0.,0.,0.;                          49P     70
126,1,1,0,0,1,0,-0.3,-0.3,0.,0.,1.,1.,-10.,0.,3.,-10.,0.,0.,          51P     71
-0.3,0.,0.,0.,0.;                                                     51P     72
126,8,2,0,1,0,0,-3.14159265358979,-3.14159265358979,                  53P     73
-3.14159265358979,-1.5707963267949,-1.5707963267949,0.,0.,            53P     74
1.5707963267949,1.5707963267949,3.14159265358979,                     53P     75
3.14159265358979,3.14159265358979,1.,0.707106781186548,1.,            53P     76
0.707106781186548,1.,0.707106781186548,1.,0.707106781186548,1.,       53P     77
-10.,-1.22464679914735D-15,0.,-10.,-10.,0.,6.12323399573677D-16,      53P     78
-10.,0.,10.,-10.,0.,10.,0.,0.,10.,10.,0.,6.12323399573677D-16,        53P     79
10.,0.,-10.,10.,0.,-10.,1.22464679914735D-15,0.,                      53P     80
-3.14159265358979,3.14159265358979,0.,0.,0.;                          53P     81
128,1,8,1,2,0,1,0,0,1,6.84210526315789,6.84210526315789,              55P     82
9.47368421052632,9.47368421052632,-3.14159265358979,                  55P     83
-3.14159265358979,-3.14159265358979,-1.5707963267949,                 55P     84
-1.5707963267949,0.,0.,1.5707963267949,1.5707963267949,               55P     85
3.14159265358979,3.14159265358979,3.14159265358979,1.,1.,             55P     86
0.707106781186548,0.707106781186548,1.,1.,0.707106781186548,          55P     87
0.707106781186548,1.,1.,0.707106781186548,0.707106781186548,1.,       55P     88
1.,0.707106781186548,0.707106781186548,1.,1.,-1.9,0.,18.,-1.9,        55P     89
0.,13.,-1.9,-1.9,18.,-1.9,-1.9,13.,0.,-1.9,18.,0.,-1.9,13.,1.9,       55P     90
-1.9,18.,1.9,-1.9,13.,1.9,0.,18.,1.9,0.,13.,1.9,1.9,18.,1.9,1.9,      55P     91
13.,0.,1.9,18.,0.,1.9,13.,-1.9,1.9,18.,-1.9,1.9,13.,-1.9,0.,18.,      55P     92
-1.9,0.,13.,6.84210526315789,9.47368421052632,-3.14159265358979,      55P     93
3.14159265358979;                                                     55P     94
128,1,1,1,1,0,0,1,0,0,-0.191,-0.191,0.191,0.191,-0.191,-0.191,        57P     95
0.191,0.191,1.,1.,1.,1.,-1.91,-1.91,18.,1.91,-1.91,18.,-1.91,         57P     96
1.91,18.,1.91,1.91,18.,-0.191,0.191,-0.191,0.191;                     57P     97
128,1,8,1,2,0,1,0,0,1,0.6,0.6,2.6,2.6,-3.14159265358979,              59P     98
-3.14159265358979,-3.14159265358979,-1.5707963267949,                 59P     99
-1.5707963267949,0.,0.,1.5707963267949,1.5707963267949,               59P    100
3.14159265358979,3.14159265358979,3.14159265358979,1.,1.,             59P    101
0.707106781186548,0.707106781186548,1.,1.,0.707106781186548,          59P    102
0.707106781186548,1.,1.,0.707106781186548,0.707106781186548,1.,       59P    103
1.,0.707106781186548,0.707106781186548,1.,1.,-5.,0.,13.,-5.,0.,       59P    104
3.,-5.,-5.,13.,-5.,-5.,3.,0.,-5.,13.,0.,-5.,3.,5.,-5.,13.,5.,         59P    105
-5.,3.,5.,0.,13.,5.,0.,3.,5.,5.,13.,5.,5.,3.,0.,5.,13.,0.,5.,3.,      59P    106
-5.,5.,13.,-5.,5.,3.,-5.,0.,13.,-5.,0.,3.,0.6,2.6,                    59P    107
-3.14159265358979,3.14159265358979;                                   59P    108
128,1,1,1,1,0,0,1,0,0,-0.501,-0.501,0.501,0.501,-0.501,-0.501,        61P    109
0.501,0.501,1.,1.,1.,1.,-5.01,-5.01,13.,5.01,-5.01,13.,-5.01,         61P    110
5.01,13.,5.01,5.01,13.,-0.501,0.501,-0.501,0.501;                     61P    111
128,1,8,1,2,0,1,0,0,1,0.,0.,0.3,0.3,-3.14159265358979,                63P    112
-3.14159265358979,-3.14159265358979,-1.5707963267949,                 63P    113
-1.5707963267949,0.,0.,1.5707963267949,1.5707963267949,               63P    114
3.14159265358979,3.14159265358979,3.14159265358979,1.,1.,             63P    115
0.707106781186548,0.707106781186548,1.,1.,0.707106781186548,          63P    116
0.707106781186548,1.,1.,0.707106781186548,0.707106781186548,1.,       63P    117
1.,0.707106781186548,0.707106781186548,1.,1.,-10.,0.,3.,-10.,0.,      63P    118
0.,-10.,-10.,3.,-10.,-10.,0.,0.,-10.,3.,0.,-10.,0.,10.,-10.,3.,       63P    119
10.,-10.,0.,10.,0.,3.,10.,0.,0.,10.,10.,3.,10.,10.,0.,0.,10.,3.,      63P    120
0.,10.,0.,-10.,10.,3.,-10.,10.,0.,-10.,0.,3.,-10.,0.,0.,0.,0.3,       63P    121
-3.14159265358979,3.14159265358979;                                   63P    122
128,1,1,1,1,0,0,1,0,0,-1.001,-1.001,1.001,1.001,-1.001,-1.001,        65P    123
1.001,1.001,1.,1.,1.,1.,-10.01,-10.01,3.,10.01,-10.01,3.,-10.01,      65P    124
10.01,3.,10.01,10.01,3.,-1.001,1.001,-1.001,1.001;                    65P    125
128,1,1,1,1,0,0,1,0,0,-1.001,-1.001,1.001,1.001,-1.001,-1.001,        67P    126
1.001,1.001,1.,1.,1.,1.,10.01,-10.01,0.,-10.01,-10.01,0.,10.01,       67P    127
10.01,0.,-10.01,10.01,0.,-1.001,1.001,-1.001,1.001;                   67P    128
502,6,-1.9,-2.32682891837997D-16,18.,-1.9,2.32682891837997D-16,       69P    129
13.,-5.,-6.12323399573677D-16,13.,-5.,6.12323399573677D-16,3.,        69P    130
-10.,-1.22464679914735D-15,3.,-10.,-1.22464679914735D-15,0.;          69P    131
504,9,37,69,1,69,1,39,69,1,69,2,41,69,2,69,2,43,69,3,69,3,45,69,      71P    132
3,69,4,47,69,4,69,4,49,69,5,69,5,51,69,5,69,6,53,69,6,69,6;           71P    133
406,1,5HBody1;                                                        73P    134
314,62.7450980392157,62.7450980392157,62.7450980392157,13HSteel       75P    135
- Satin;                                                              75P    136
S      1G      3D     76P    136                                        T      1
