                                                                        S      1
,,36Hspessori_alti_frigo_piccoli_bosch v2,32HspessorialtifrigopiccolibosG      1
ch v2,7Hunknown,7Hunknown,32,38,7,99,15,,1.,2,2HMM,1,0.08,15H20230101.15G      2
2212,0.01,10000.,7Hunknown,7Hunknown,11,0,15H20211106.102906;           G      3
     186       1                                                00000000D      1
     186            -219       1       0                               0D      2
     514       2                                                00010000D      3
     514                       2       1                               0D      4
     510       4                                                00010000D      5
     510            -219       1       1                               0D      6
     510       5                                                00010000D      7
     510            -219       1       1                               0D      8
     510       6                                                00010000D      9
     510            -219       1       1                               0D     10
     510       7                                                00010000D     11
     510            -219       1       1                               0D     12
     510       8                                                00010000D     13
     510            -219       1       1                               0D     14
     510       9                                                00010000D     15
     510            -219       1       1                               0D     16
     510      10                                                00010000D     17
     510            -219       1       1                               0D     18
     510      11                                                00010000D     19
     510            -219       1       1                               0D     20
     510      12                                                00010000D     21
     510            -219       1       1                               0D     22
     510      13                                                00010000D     23
     510            -219       1       1                               0D     24
     510      14                                                00010000D     25
     510            -219       1       1                               0D     26
     510      15                                                00010000D     27
     510            -219       1       1                               0D     28
     510      16                                                00010000D     29
     510            -219       1       1                               0D     30
     510      17                                                00010000D     31
     510            -219       1       1                               0D     32
     510      18                                                00010000D     33
     510            -219       1       1                               0D     34
     510      19                                                00010000D     35
     510            -219       1       1                               0D     36
     510      20                                                00010000D     37
     510            -219       1       1                               0D     38
     510      21                                                00010000D     39
     510            -219       1       1                               0D     40
     508      22                                                00010000D     41
     508                       1       1                               0D     42
     508      23                                                00010000D     43
     508                       1       1                               0D     44
     508      24                                                00010000D     45
     508                       1       1                               0D     46
     508      25                                                00010000D     47
     508                       1       1                               0D     48
     508      26                                                00010000D     49
     508                       1       1                               0D     50
     508      27                                                00010000D     51
     508                       1       1                               0D     52
     508      28                                                00010000D     53
     508                       1       1                               0D     54
     508      29                                                00010000D     55
     508                       1       1                               0D     56
     508      30                                                00010000D     57
     508                       1       1                               0D     58
     508      31                                                00010000D     59
     508                       1       1                               0D     60
     508      32                                                00010000D     61
     508                       2       1                               0D     62
     508      34                                                00010000D     63
     508                       2       1                               0D     64
     508      36                                                00010000D     65
     508                       1       1                               0D     66
     508      37                                                00010000D     67
     508                       1       1                               0D     68
     508      38                                                00010000D     69
     508                       1       1                               0D     70
     508      39                                                00010000D     71
     508                       1       1                               0D     72
     508      40                                                00010000D     73
     508                       1       1                               0D     74
     508      41                                                00010000D     75
     508                       1       1                               0D     76
     508      42                                                00010000D     77
     508                       2       1                               0D     78
     508      44                                                00010000D     79
     508                       2       1                               0D     80
     126      46                                                00010000D     81
     126       0               5       0                               0D     82
     126      51                                                00010000D     83
     126       0               2       0                               0D     84
     126      53                                                00010000D     85
     126       0               5       0                               0D     86
     126      58                                                00010000D     87
     126       0               2       0                               0D     88
     126      60                                                00010000D     89
     126       0               2       0                               0D     90
     126      62                                                00010000D     91
     126       0               2       0                               0D     92
     126      64                                                00010000D     93
     126       0               2       0                               0D     94
     126      66                                                00010000D     95
     126       0               5       0                               0D     96
     126      71                                                00010000D     97
     126       0               2       0                               0D     98
     126      73                                                00010000D     99
     126       0               5       0                               0D    100
     126      78                                                00010000D    101
     126       0               2       0                               0D    102
     126      80                                                00010000D    103
     126       0               2       0                               0D    104
     126      82                                                00010000D    105
     126       0               2       0                               0D    106
     126      84                                                00010000D    107
     126       0               5       0                               0D    108
     126      89                                                00010000D    109
     126       0               2       0                               0D    110
     126      91                                                00010000D    111
     126       0               5       0                               0D    112
     126      96                                                00010000D    113
     126       0               2       0                               0D    114
     126      98                                                00010000D    115
     126       0               2       0                               0D    116
     126     100                                                00010000D    117
     126       0               2       0                               0D    118
     126     102                                                00010000D    119
     126       0               5       0                               0D    120
     126     107                                                00010000D    121
     126       0               2       0                               0D    122
     126     109                                                00010000D    123
     126       0               5       0                               0D    124
     126     114                                                00010000D    125
     126       0               3       0                               0D    126
     126     117                                                00010000D    127
     126       0               3       0                               0D    128
     126     120                                                00010000D    129
     126       0               4       0                               0D    130
     126     124                                                00010000D    131
     126       0               2       0                               0D    132
     126     126                                                00010000D    133
     126       0               4       0                               0D    134
     126     130                                                00010000D    135
     126       0               2       0                               0D    136
     126     132                                                00010000D    137
     126       0               2       0                               0D    138
     126     134                                                00010000D    139
     126       0               2       0                               0D    140
     126     136                                                00010000D    141
     126       0               2       0                               0D    142
     126     138                                                00010000D    143
     126       0               2       0                               0D    144
     126     140                                                00010000D    145
     126       0               4       0                               0D    146
     126     144                                                00010000D    147
     126       0               2       0                               0D    148
     126     146                                                00010000D    149
     126       0               4       0                               0D    150
     126     150                                                00010000D    151
     126       0               2       0                               0D    152
     126     152                                                00010000D    153
     126       0               4       0                               0D    154
     126     156                                                00010000D    155
     126       0               2       0                               0D    156
     126     158                                                00010000D    157
     126       0               4       0                               0D    158
     126     162                                                00010000D    159
     126       0               2       0                               0D    160
     126     164                                                00010000D    161
     126       0               2       0                               0D    162
     126     166                                                00010000D    163
     126       0               2       0                               0D    164
     126     168                                                00010000D    165
     126       0               4       0                               0D    166
     126     172                                                00010000D    167
     126       0               2       0                               0D    168
     126     174                                                00010000D    169
     126       0               2       0                               0D    170
     126     176                                                00010000D    171
     126       0               2       0                               0D    172
     126     178                                                00010000D    173
     126       0               4       0                               0D    174
     126     182                                                00010000D    175
     126       0               2       0                               0D    176
     128     184                                                00010000D    177
     128       0    -219       7       0                               0D    178
     128     191                                                00010000D    179
     128       0    -219       3       0                               0D    180
     128     194                                                00010000D    181
     128       0    -219       7       0                               0D    182
     128     201                                                00010000D    183
     128       0    -219       4       0                               0D    184
     128     205                                                00010000D    185
     128       0    -219       6       0                               0D    186
     128     211                                                00010000D    187
     128       0    -219       3       0                               0D    188
     128     214                                                00010000D    189
     128       0    -219       7       0                               0D    190
     128     221                                                00010000D    191
     128       0    -219       4       0                               0D    192
     128     225                                                00010000D    193
     128       0    -219       6       0                               0D    194
     128     231                                                00010000D    195
     128       0    -219       3       0                               0D    196
     128     234                                                00010000D    197
     128       0    -219       3       0                               0D    198
     128     237                                                00010000D    199
     128       0    -219       6       0                               0D    200
     128     243                                                00010000D    201
     128       0    -219       3       0                               0D    202
     128     246                                                00010000D    203
     128       0    -219       6       0                               0D    204
     128     252                                                00010000D    205
     128       0    -219       3       0                               0D    206
     128     255                                                00010000D    207
     128       0    -219       5       0                               0D    208
     128     260                                                00010000D    209
     128       0    -219       3       0                               0D    210
     128     263                                                00010000D    211
     128       0    -219       3       0                               0D    212
     502     266                                                00010000D    213
     502                       9       1                               0D    214
     504     275                                                00010001D    215
     504                      14       1                               0D    216
     406     289                                                00000000D    217
     406                       1      15                               0D    218
     314     290                                                00000200D    219
     314                       2       0                               0D    220
186,3,1,0,0,1,217;                                                     1P      1
514,18,5,1,7,1,9,1,11,1,13,1,15,1,17,1,19,1,21,1,23,1,25,1,27,1,       3P      2
29,1,31,1,33,1,35,1,37,1,39,1;                                         3P      3
510,177,1,1,41;                                                        5P      4
510,179,1,1,43;                                                        7P      5
510,181,1,1,45;                                                        9P      6
510,183,1,1,47;                                                       11P      7
510,185,1,1,49;                                                       13P      8
510,187,1,1,51;                                                       15P      9
510,189,1,1,53;                                                       17P     10
510,191,1,1,55;                                                       19P     11
510,193,1,1,57;                                                       21P     12
510,195,1,1,59;                                                       23P     13
510,197,2,1,61,63;                                                    25P     14
510,199,1,1,65;                                                       27P     15
510,201,1,1,67;                                                       29P     16
510,203,1,1,69;                                                       31P     17
510,205,1,1,71;                                                       33P     18
510,207,1,1,73;                                                       35P     19
510,209,1,1,75;                                                       37P     20
510,211,2,1,77,79;                                                    39P     21
508,4,0,215,1,1,0,0,215,2,1,0,0,215,3,1,0,0,215,4,1,0;                41P     22
508,4,0,215,2,0,0,0,215,5,1,0,0,215,6,0,0,0,215,7,0,0;                43P     23
508,4,0,215,8,1,0,0,215,9,1,0,0,215,10,1,0,0,215,11,1,0;              45P     24
508,4,0,215,4,0,0,0,215,12,0,0,0,215,9,0,0,0,215,13,1,0;              47P     25
508,4,0,215,14,1,0,0,215,15,1,0,0,215,16,1,0,0,215,17,1,0;            49P     26
508,4,0,215,11,0,0,0,215,18,0,0,0,215,15,0,0,0,215,19,1,0;            51P     27
508,4,0,215,20,1,0,0,215,21,1,0,0,215,22,1,0,0,215,6,1,0;             53P     28
508,4,0,215,17,0,0,0,215,23,0,0,0,215,21,0,0,0,215,24,1,0;            55P     29
508,4,0,215,25,1,0,0,215,26,1,0,0,215,27,1,0,0,215,28,1,0;            57P     30
508,4,0,215,26,0,0,0,215,29,0,0,0,215,30,0,0,0,215,31,0,0;            59P     31
508,8,0,215,25,0,0,0,215,32,1,0,0,215,33,0,0,0,215,34,1,0,0,215,      61P     32
35,0,0,0,215,36,1,0,0,215,37,0,0,0,215,29,1,0;                        61P     33
508,8,0,215,23,1,0,0,215,16,0,0,0,215,18,1,0,0,215,10,0,0,0,215,      63P     34
12,1,0,0,215,3,0,0,0,215,7,1,0,0,215,22,0,0;                          63P     35
508,4,0,215,37,1,0,0,215,38,1,0,0,215,39,1,0,0,215,30,1,0;            65P     36
508,4,0,215,38,0,0,0,215,36,0,0,0,215,40,0,0,0,215,41,0,0;            67P     37
508,4,0,215,35,1,0,0,215,42,1,0,0,215,43,1,0,0,215,40,1,0;            69P     38
508,4,0,215,42,0,0,0,215,34,0,0,0,215,44,0,0,0,215,45,0,0;            71P     39
508,4,0,215,33,1,0,0,215,46,1,0,0,215,47,1,0,0,215,44,1,0;            73P     40
508,4,0,215,28,0,0,0,215,48,0,0,0,215,46,0,0,0,215,32,0,0;            75P     41
508,8,0,215,27,0,0,0,215,31,1,0,0,215,39,0,0,0,215,41,1,0,0,215,      77P     42
43,0,0,0,215,45,1,0,0,215,47,0,0,0,215,48,1,0;                        77P     43
508,8,0,215,20,0,0,0,215,5,0,0,0,215,1,0,0,0,215,13,0,0,0,215,8,      79P     44
0,0,0,215,19,0,0,0,215,14,0,0,0,215,24,0,0;                           79P     45
126,2,2,0,0,0,0,-0.785398163397448,-0.785398163397448,                81P     46
-0.785398163397448,0.785398163397448,0.785398163397448,               81P     47
0.785398163397448,1.,0.707106781186547,1.,-0.750000000000001,         81P     48
-5.5,0.,-3.,-5.5,0.,-3.,-3.25,0.,-0.785398163397448,                  81P     49
0.785398163397448,0.,0.,0.;                                           81P     50
126,1,1,0,0,1,0,0.,0.,0.3,0.3,1.,1.,-3.,-3.25,0.,-3.,-3.25,3.,        83P     51
0.,0.3,0.,0.,0.;                                                      83P     52
126,2,2,0,0,0,0,-0.785398163397448,-0.785398163397448,                85P     53
-0.785398163397448,0.785398163397448,0.785398163397448,               85P     54
0.785398163397448,1.,0.707106781186547,1.,-3.,-3.25,3.,-3.,-5.5,      85P     55
3.,-0.750000000000001,-5.5,3.,-0.785398163397448,                     85P     56
0.785398163397448,0.,0.,0.;                                           85P     57
126,1,1,0,0,1,0,-0.3,-0.3,0.,0.,1.,1.,-0.750000000000001,-5.5,        87P     58
3.,-0.750000000000001,-5.5,0.,-0.3,0.,0.,0.,0.;                       87P     59
126,1,1,0,0,1,0,0.225,0.225,0.875,0.875,1.,1.,-3.,-3.25,0.,-3.,       89P     60
3.25,0.,0.225,0.875,0.,0.,0.;                                         89P     61
126,1,1,0,0,1,0,-0.3,-0.3,0.,0.,1.,1.,-3.,3.25,3.,-3.,3.25,0.,        91P     62
-0.3,0.,0.,0.,0.;                                                     91P     63
126,1,1,0,0,1,0,0.225,0.225,0.875,0.875,1.,1.,-3.,-3.25,3.,-3.,       93P     64
3.25,3.,0.225,0.875,0.,0.,0.;                                         93P     65
126,2,2,0,0,0,0,-0.785398163397448,-0.785398163397448,                95P     66
-0.785398163397448,0.785398163397448,0.785398163397448,               95P     67
0.785398163397448,1.,0.707106781186547,1.,3.,-3.25,0.,3.,-5.5,        95P     68
0.,0.750000000000001,-5.5,0.,-0.785398163397448,                      95P     69
0.785398163397448,0.,0.,0.;                                           95P     70
126,1,1,0,0,1,0,0.,0.,0.3,0.3,1.,1.,0.750000000000001,-5.5,0.,        97P     71
0.750000000000001,-5.5,3.,0.,0.3,0.,0.,0.;                            97P     72
126,2,2,0,0,0,0,-0.785398163397448,-0.785398163397448,                99P     73
-0.785398163397448,0.785398163397448,0.785398163397448,               99P     74
0.785398163397448,1.,0.707106781186547,1.,0.750000000000001,          99P     75
-5.5,3.,3.,-5.5,3.,3.,-3.25,3.,-0.785398163397448,                    99P     76
0.785398163397448,0.,0.,0.;                                           99P     77
126,1,1,0,0,1,0,-0.3,-0.3,0.,0.,1.,1.,3.,-3.25,3.,3.,-3.25,0.,       101P     78
-0.3,0.,0.,0.,0.;                                                    101P     79
126,1,1,0,0,1,0,0.225,0.225,0.375,0.375,1.,1.,0.750000000000001,     103P     80
-5.5,3.,-0.750000000000001,-5.5,3.,0.225,0.375,0.,0.,0.;             103P     81
126,1,1,0,0,1,0,0.225,0.225,0.375,0.375,1.,1.,0.750000000000001,     105P     82
-5.5,0.,-0.750000000000001,-5.5,0.,0.225,0.375,0.,0.,0.;             105P     83
126,2,2,0,0,0,0,-0.785398163397448,-0.785398163397448,               107P     84
-0.785398163397448,0.785398163397448,0.785398163397448,              107P     85
0.785398163397448,1.,0.707106781186547,1.,0.750000000000001,5.5,     107P     86
0.,3.,5.5,0.,3.,3.25,0.,-0.785398163397448,0.785398163397448,0.,     107P     87
0.,0.;                                                               107P     88
126,1,1,0,0,1,0,0.,0.,0.3,0.3,1.,1.,3.,3.25,0.,3.,3.25,3.,0.,        109P     89
0.3,0.,0.,0.;                                                        109P     90
126,2,2,0,0,0,0,-0.785398163397448,-0.785398163397448,               111P     91
-0.785398163397448,0.785398163397448,0.785398163397448,              111P     92
0.785398163397448,1.,0.707106781186547,1.,3.,3.25,3.,3.,5.5,3.,      111P     93
0.750000000000001,5.5,3.,-0.785398163397448,0.785398163397448,       111P     94
0.,0.,0.;                                                            111P     95
126,1,1,0,0,1,0,-0.3,-0.3,0.,0.,1.,1.,0.750000000000001,5.5,3.,      113P     96
0.750000000000001,5.5,0.,-0.3,0.,0.,0.,0.;                           113P     97
126,1,1,0,0,1,0,0.225,0.225,0.875,0.875,1.,1.,3.,3.25,3.,3.,         115P     98
-3.25,3.,0.225,0.875,0.,0.,0.;                                       115P     99
126,1,1,0,0,1,0,0.225,0.225,0.875,0.875,1.,1.,3.,3.25,0.,3.,         117P    100
-3.25,0.,0.225,0.875,0.,0.,0.;                                       117P    101
126,2,2,0,0,0,0,-0.785398163397448,-0.785398163397448,               119P    102
-0.785398163397448,0.785398163397448,0.785398163397448,              119P    103
0.785398163397448,1.,0.707106781186547,1.,-3.,3.25,0.,-3.,5.5,       119P    104
0.,-0.750000000000001,5.5,0.,-0.785398163397448,                     119P    105
0.785398163397448,0.,0.,0.;                                          119P    106
126,1,1,0,0,1,0,0.,0.,0.3,0.3,1.,1.,-0.750000000000001,5.5,0.,       121P    107
-0.750000000000001,5.5,3.,0.,0.3,0.,0.,0.;                           121P    108
126,2,2,0,0,0,0,-0.785398163397448,-0.785398163397448,               123P    109
-0.785398163397448,0.785398163397448,0.785398163397448,              123P    110
0.785398163397448,1.,0.707106781186547,1.,-0.750000000000001,        123P    111
5.5,3.,-3.,5.5,3.,-3.,3.25,3.,-0.785398163397448,                    123P    112
0.785398163397448,0.,0.,0.;                                          123P    113
126,1,1,0,0,1,0,0.225,0.225,0.375,0.375,1.,1.,                       125P    114
-0.750000000000001,5.5,3.,0.750000000000001,5.5,3.,0.225,0.375,      125P    115
0.,0.,0.;                                                            125P    116
126,1,1,0,0,1,0,0.225,0.225,0.375,0.375,1.,1.,                       127P    117
-0.750000000000001,5.5,0.,0.750000000000001,5.5,0.,0.225,0.375,      127P    118
0.,0.,0.;                                                            127P    119
126,2,2,0,0,0,0,-0.785398163397448,-0.785398163397448,               129P    120
-0.785398163397448,0.785398163397448,0.785398163397448,              129P    121
0.785398163397448,1.,0.707106781186549,1.,8.,-11.,3.,8.,-13.,3.,     129P    122
6.,-13.,3.,-0.785398163397448,0.785398163397448,0.,0.,0.;            129P    123
126,1,1,0,0,1,0,-0.3,-0.3,0.,0.,1.,1.,6.,-13.,3.,6.,-13.,0.,         131P    124
-0.3,0.,0.,0.,0.;                                                    131P    125
126,2,2,0,0,0,0,-0.785398163397448,-0.785398163397448,               133P    126
-0.785398163397448,0.785398163397448,0.785398163397448,              133P    127
0.785398163397448,1.,0.707106781186549,1.,6.,-13.,0.,8.,-13.,0.,     133P    128
8.,-11.,0.,-0.785398163397448,0.785398163397448,0.,0.,0.;            133P    129
126,1,1,0,0,1,0,0.,0.,0.3,0.3,1.,1.,8.,-11.,0.,8.,-11.,3.,0.,        135P    130
0.3,0.,0.,0.;                                                        135P    131
126,1,1,0,0,1,0,-1.4,-1.4,-0.2,-0.2,1.,1.,-6.,-13.,3.,6.,-13.,       137P    132
3.,-1.4,-0.2,0.,0.,0.;                                               137P    133
126,1,1,0,0,1,0,0.,0.,0.3,0.3,1.,1.,-6.,-13.,0.,-6.,-13.,3.,0.,      139P    134
0.3,0.,0.,0.;                                                        139P    135
126,1,1,0,0,1,0,0.2,0.2,1.4,1.4,1.,1.,6.,-13.,0.,-6.,-13.,0.,        141P    136
0.2,1.4,0.,0.,0.;                                                    141P    137
126,1,1,0,0,1,0,-2.4,-2.4,-0.2,-0.2,1.,1.,8.,-11.,3.,8.,11.,3.,      143P    138
-2.4,-0.2,0.,0.,0.;                                                  143P    139
126,2,2,0,0,0,0,-0.785398163397448,-0.785398163397448,               145P    140
-0.785398163397448,0.785398163397449,0.785398163397449,              145P    141
0.785398163397449,1.,0.707106781186547,1.,6.,13.,3.,8.,13.,3.,       145P    142
8.,11.,3.,-0.785398163397448,0.785398163397449,0.,0.,0.;             145P    143
126,1,1,0,0,1,0,-1.4,-1.4,-0.2,-0.2,1.,1.,6.,13.,3.,-6.,13.,3.,      147P    144
-1.4,-0.2,0.,0.,0.;                                                  147P    145
126,2,2,0,0,0,0,-0.785398163397448,-0.785398163397448,               149P    146
-0.785398163397448,0.785398163397448,0.785398163397448,              149P    147
0.785398163397448,1.,0.707106781186549,1.,-8.,11.,3.,-8.,13.,3.,     149P    148
-6.,13.,3.,-0.785398163397448,0.785398163397448,0.,0.,0.;            149P    149
126,1,1,0,0,1,0,-2.4,-2.4,-0.2,-0.2,1.,1.,-8.,11.,3.,-8.,-11.,       151P    150
3.,-2.4,-0.2,0.,0.,0.;                                               151P    151
126,2,2,0,0,0,0,-0.785398163397448,-0.785398163397448,               153P    152
-0.785398163397448,0.785398163397449,0.785398163397449,              153P    153
0.785398163397449,1.,0.707106781186547,1.,-6.,-13.,3.,-8.,-13.,      153P    154
3.,-8.,-11.,3.,-0.785398163397448,0.785398163397449,0.,0.,0.;        153P    155
126,1,1,0,0,1,0,-0.3,-0.3,0.,0.,1.,1.,-8.,-11.,3.,-8.,-11.,0.,       155P    156
-0.3,0.,0.,0.,0.;                                                    155P    157
126,2,2,0,0,0,0,-0.785398163397449,-0.785398163397449,               157P    158
-0.785398163397449,0.785398163397448,0.785398163397448,              157P    159
0.785398163397448,1.,0.707106781186547,1.,-8.,-11.,0.,-8.,-13.,      157P    160
0.,-6.,-13.,0.,-0.785398163397449,0.785398163397448,0.,0.,0.;        157P    161
126,1,1,0,0,1,0,0.,0.,0.3,0.3,1.,1.,-8.,11.,0.,-8.,11.,3.,0.,        159P    162
0.3,0.,0.,0.;                                                        159P    163
126,1,1,0,0,1,0,0.2,0.2,2.4,2.4,1.,1.,-8.,-11.,0.,-8.,11.,0.,        161P    164
0.2,2.4,0.,0.,0.;                                                    161P    165
126,1,1,0,0,1,0,-0.3,-0.3,0.,0.,1.,1.,-6.,13.,3.,-6.,13.,0.,         163P    166
-0.3,0.,0.,0.,0.;                                                    163P    167
126,2,2,0,0,0,0,-0.785398163397448,-0.785398163397448,               165P    168
-0.785398163397448,0.785398163397448,0.785398163397448,              165P    169
0.785398163397448,1.,0.707106781186549,1.,-6.,13.,0.,-8.,13.,0.,     165P    170
-8.,11.,0.,-0.785398163397448,0.785398163397448,0.,0.,0.;            165P    171
126,1,1,0,0,1,0,0.,0.,0.3,0.3,1.,1.,6.,13.,0.,6.,13.,3.,0.,0.3,      167P    172
0.,0.,0.;                                                            167P    173
126,1,1,0,0,1,0,0.2,0.2,1.4,1.4,1.,1.,-6.,13.,0.,6.,13.,0.,0.2,      169P    174
1.4,0.,0.,0.;                                                        169P    175
126,1,1,0,0,1,0,-0.3,-0.3,0.,0.,1.,1.,8.,11.,3.,8.,11.,0.,-0.3,      171P    176
0.,0.,0.,0.;                                                         171P    177
126,2,2,0,0,0,0,-0.785398163397449,-0.785398163397449,               173P    178
-0.785398163397449,0.785398163397448,0.785398163397448,              173P    179
0.785398163397448,1.,0.707106781186547,1.,8.,11.,0.,8.,13.,0.,       173P    180
6.,13.,0.,-0.785398163397449,0.785398163397448,0.,0.,0.;             173P    181
126,1,1,0,0,1,0,0.2,0.2,2.4,2.4,1.,1.,8.,11.,0.,8.,-11.,0.,0.2,      175P    182
2.4,0.,0.,0.;                                                        175P    183
128,1,2,1,2,0,0,0,0,0,0.,0.,1.33333333333333,1.33333333333333,       177P    184
-0.785398163397448,-0.785398163397448,-0.785398163397448,            177P    185
0.785398163397448,0.785398163397448,0.785398163397448,1.,1.,         177P    186
0.707106781186548,0.707106781186548,1.,1.,-3.,-3.25,0.,-3.,          177P    187
-3.25,3.,-3.,-5.5,0.,-3.,-5.5,3.,-0.750000000000001,-5.5,0.,         177P    188
-0.750000000000001,-5.5,3.,0.,1.33333333333333,                      177P    189
-0.785398163397448,0.785398163397448;                                177P    190
128,1,1,1,1,0,0,1,0,0,0.224,0.224,0.876,0.876,-0.001,-0.001,         179P    191
0.301,0.301,1.,1.,1.,1.,-3.,-3.26,-0.01,-3.,3.26,-0.01,-3.,          179P    192
-3.26,3.01,-3.,3.26,3.01,0.224,0.876,-0.001,0.301;                   179P    193
128,1,2,1,2,0,0,0,0,0,0.,0.,1.33333333333333,1.33333333333333,       181P    194
-0.785398163397448,-0.785398163397448,-0.785398163397448,            181P    195
0.785398163397448,0.785398163397448,0.785398163397448,1.,1.,         181P    196
0.707106781186548,0.707106781186548,1.,1.,0.750000000000001,         181P    197
-5.5,0.,0.750000000000001,-5.5,3.,3.,-5.5,0.,3.,-5.5,3.,3.,          181P    198
-3.25,0.,3.,-3.25,3.,0.,1.33333333333333,-0.785398163397448,         181P    199
0.785398163397448;                                                   181P    200
128,1,1,1,1,0,0,1,0,0,0.224,0.224,0.376,0.376,-0.001,-0.001,         183P    201
0.301,0.301,1.,1.,1.,1.,0.760000000000001,-5.5,-0.01,                183P    202
-0.760000000000001,-5.5,-0.01,0.760000000000001,-5.5,3.01,           183P    203
-0.760000000000001,-5.5,3.01,0.224,0.376,-0.001,0.301;               183P    204
128,1,2,1,2,0,0,0,0,0,0.,0.,1.33333333333333,1.33333333333333,       185P    205
-0.785398163397448,-0.785398163397448,-0.785398163397448,            185P    206
0.785398163397448,0.785398163397448,0.785398163397448,1.,1.,         185P    207
0.707106781186548,0.707106781186548,1.,1.,3.,3.25,0.,3.,3.25,3.,     185P    208
3.,5.5,0.,3.,5.5,3.,0.750000000000001,5.5,0.,0.750000000000001,      185P    209
5.5,3.,0.,1.33333333333333,-0.785398163397448,0.785398163397448;     185P    210
128,1,1,1,1,0,0,1,0,0,0.224,0.224,0.876,0.876,-0.001,-0.001,         187P    211
0.301,0.301,1.,1.,1.,1.,3.,3.26,-0.01,3.,-3.26,-0.01,3.,3.26,        187P    212
3.01,3.,-3.26,3.01,0.224,0.876,-0.001,0.301;                         187P    213
128,1,2,1,2,0,0,0,0,0,0.,0.,1.33333333333333,1.33333333333333,       189P    214
-0.785398163397448,-0.785398163397448,-0.785398163397448,            189P    215
0.785398163397448,0.785398163397448,0.785398163397448,1.,1.,         189P    216
0.707106781186548,0.707106781186548,1.,1.,-0.750000000000001,        189P    217
5.5,0.,-0.750000000000001,5.5,3.,-3.,5.5,0.,-3.,5.5,3.,-3.,3.25,     189P    218
0.,-3.,3.25,3.,0.,1.33333333333333,-0.785398163397448,               189P    219
0.785398163397448;                                                   189P    220
128,1,1,1,1,0,0,1,0,0,0.224,0.224,0.376,0.376,-0.001,-0.001,         191P    221
0.301,0.301,1.,1.,1.,1.,-0.760000000000001,5.5,-0.01,                191P    222
0.760000000000001,5.5,-0.01,-0.760000000000001,5.5,3.01,             191P    223
0.760000000000001,5.5,3.01,0.224,0.376,-0.001,0.301;                 191P    224
128,1,2,1,2,0,0,0,0,0,0.,0.,1.5,1.5,-0.785398163397448,              193P    225
-0.785398163397448,-0.785398163397448,0.785398163397449,             193P    226
0.785398163397449,0.785398163397449,1.,1.,0.707106781186548,         193P    227
0.707106781186548,1.,1.,6.,-13.,3.,6.,-13.,0.,8.,-13.,3.,8.,         193P    228
-13.,0.,8.,-11.,3.,8.,-11.,0.,0.,1.5,-0.785398163397448,             193P    229
0.785398163397449;                                                   193P    230
128,1,1,1,1,0,0,1,0,0,0.199,0.199,1.401,1.401,-0.001,-0.001,         195P    231
0.301,0.301,1.,1.,1.,1.,-6.01,-13.,-0.01,6.01,-13.,-0.01,-6.01,      195P    232
-13.,3.01,6.01,-13.,3.01,0.199,1.401,-0.001,0.301;                   195P    233
128,1,1,1,1,0,0,1,0,0,-0.801,-0.801,0.801,0.801,-1.301,-1.301,       197P    234
1.301,1.301,1.,1.,1.,1.,-8.01,-13.01,3.,8.01,-13.01,3.,-8.01,        197P    235
13.01,3.,8.01,13.01,3.,-0.801,0.801,-1.301,1.301;                    197P    236
128,1,2,1,2,0,0,0,0,0,0.,0.,1.5,1.5,-0.785398163397449,              199P    237
-0.785398163397449,-0.785398163397449,0.785398163397448,             199P    238
0.785398163397448,0.785398163397448,1.,1.,0.707106781186548,         199P    239
0.707106781186548,1.,1.,-8.,-11.,3.,-8.,-11.,0.,-8.,-13.,3.,-8.,     199P    240
-13.,0.,-6.,-13.,3.,-6.,-13.,0.,0.,1.5,-0.785398163397449,           199P    241
0.785398163397448;                                                   199P    242
128,1,1,1,1,0,0,1,0,0,0.199,0.199,2.401,2.401,-0.001,-0.001,         201P    243
0.301,0.301,1.,1.,1.,1.,-8.,11.01,-0.01,-8.,-11.01,-0.01,-8.,        201P    244
11.01,3.01,-8.,-11.01,3.01,0.199,2.401,-0.001,0.301;                 201P    245
128,1,2,1,2,0,0,0,0,0,0.,0.,1.5,1.5,-0.785398163397448,              203P    246
-0.785398163397448,-0.785398163397448,0.785398163397449,             203P    247
0.785398163397449,0.785398163397449,1.,1.,0.707106781186548,         203P    248
0.707106781186548,1.,1.,-6.,13.,3.,-6.,13.,0.,-8.,13.,3.,-8.,        203P    249
13.,0.,-8.,11.,3.,-8.,11.,0.,0.,1.5,-0.785398163397448,              203P    250
0.785398163397449;                                                   203P    251
128,1,1,1,1,0,0,1,0,0,0.199,0.199,1.401,1.401,-0.001,-0.001,         205P    252
0.301,0.301,1.,1.,1.,1.,6.01,13.,-0.01,-6.01,13.,-0.01,6.01,13.,     205P    253
3.01,-6.01,13.,3.01,0.199,1.401,-0.001,0.301;                        205P    254
128,1,2,1,2,0,0,0,0,0,0.,0.,1.5,1.5,-0.785398163397449,              207P    255
-0.785398163397449,-0.785398163397449,0.785398163397448,             207P    256
0.785398163397448,0.785398163397448,1.,1.,0.707106781186548,         207P    257
0.707106781186548,1.,1.,8.,11.,3.,8.,11.,0.,8.,13.,3.,8.,13.,0.,     207P    258
6.,13.,3.,6.,13.,0.,0.,1.5,-0.785398163397449,0.785398163397448;     207P    259
128,1,1,1,1,0,0,1,0,0,0.199,0.199,2.401,2.401,-0.001,-0.001,         209P    260
0.301,0.301,1.,1.,1.,1.,8.,-11.01,-0.01,8.,11.01,-0.01,8.,           209P    261
-11.01,3.01,8.,11.01,3.01,0.199,2.401,-0.001,0.301;                  209P    262
128,1,1,1,1,0,0,1,0,0,-0.801,-0.801,0.801,0.801,-1.301,-1.301,       211P    263
1.301,1.301,1.,1.,1.,1.,8.01,-13.01,0.,-8.01,-13.01,0.,8.01,         211P    264
13.01,0.,-8.01,13.01,0.,-0.801,0.801,-1.301,1.301;                   211P    265
502,32,-0.750000000000001,-5.5,0.,-3.,-3.25,0.,-3.,-3.25,3.,         213P    266
-0.750000000000001,-5.5,3.,-3.,3.25,0.,-3.,3.25,3.,3.,-3.25,0.,      213P    267
0.750000000000001,-5.5,0.,0.750000000000001,-5.5,3.,3.,-3.25,3.,     213P    268
0.750000000000001,5.5,0.,3.,3.25,0.,3.,3.25,3.,                      213P    269
0.750000000000001,5.5,3.,-0.750000000000001,5.5,0.,                  213P    270
-0.750000000000001,5.5,3.,8.,-11.,3.,6.,-13.,3.,6.,-13.,0.,8.,       213P    271
-11.,0.,-6.,-13.,3.,-6.,-13.,0.,8.,11.,3.,6.,13.,3.,-6.,13.,3.,      213P    272
-8.,11.,3.,-8.,-11.,3.,-8.,-11.,0.,-8.,11.,0.,-6.,13.,0.,6.,13.,     213P    273
0.,8.,11.,0.;                                                        213P    274
504,48,81,213,1,213,2,83,213,2,213,3,85,213,3,213,4,87,213,4,        215P    275
213,1,89,213,2,213,5,91,213,6,213,5,93,213,3,213,6,95,213,7,213,     215P    276
8,97,213,8,213,9,99,213,9,213,10,101,213,10,213,7,103,213,9,213,     215P    277
4,105,213,8,213,1,107,213,11,213,12,109,213,12,213,13,111,213,       215P    278
13,213,14,113,213,14,213,11,115,213,13,213,10,117,213,12,213,7,      215P    279
119,213,5,213,15,121,213,15,213,16,123,213,16,213,6,125,213,16,      215P    280
213,14,127,213,15,213,11,129,213,17,213,18,131,213,18,213,19,        215P    281
133,213,19,213,20,135,213,20,213,17,137,213,21,213,18,139,213,       215P    282
22,213,21,141,213,19,213,22,143,213,17,213,23,145,213,24,213,23,     215P    283
147,213,24,213,25,149,213,26,213,25,151,213,26,213,27,153,213,       215P    284
21,213,27,155,213,27,213,28,157,213,28,213,22,159,213,29,213,26,     215P    285
161,213,28,213,29,163,213,25,213,30,165,213,30,213,29,167,213,       215P    286
31,213,24,169,213,30,213,31,171,213,23,213,32,173,213,32,213,31,     215P    287
175,213,32,213,20;                                                   215P    288
406,1,5HBody2;                                                       217P    289
314,62.7450980392157,62.7450980392157,62.7450980392157,13HSteel      219P    290
- Satin;                                                             219P    291
S      1G      3D    220P    291                                        T      1
