0
SECTION
2
HEADER
9
$INSUNITS
70
4
9
$ACADVER
1
AC1014
9
$HANDSEED
5
FFFF
0
ENDSEC
0
SECTION
2
TABLES
0
TABLE
2
VPORT
5
8
100
AcDbSymbolTable
0
ENDTAB
0
TABLE
2
LTYPE
5
5
100
AcDbSymbolTable
0
LTYPE
5
14
100
AcDbSymbolTableRecord
100
AcDbLinetypeTableRecord
2
BYBLOCK
70
0
0
LTYPE
5
15
100
AcDbSymbolTableRecord
100
AcDbLinetypeTableRecord
2
BYLAYER
70
0
0
ENDTAB
0
TABLE
2
LAYER
5
2
100
AcDbSymbolTable
70
2
0
LAYER
5
50
100
AcDbSymbolTableRecord
100
AcDbLayerTableRecord
2
0
70
0
6
CONTINUOUS
0
ENDTAB
0
TABLE
2
STYLE
5
3
100
AcDbSymbolTable
70
1
0
STYLE
5
11
100
AcDbSymbolTableRecord
100
AcDbTextStyleTableRecord
2
STANDARD
70
0
0
ENDTAB
0
TABLE
2
VIEW
5
6
100
AcDbSymbolTable
70
0
0
ENDTAB
0
TABLE
2
UCS
5
7
100
AcDbSymbolTable
70
0
0
ENDTAB
0
TABLE
2
APPID
5
9
100
AcDbSymbolTable
70
2
0
APPID
5
12
100
AcDbSymbolTableRecord
100
AcDbRegAppTableRecord
2
ACAD
70
0
0
ENDTAB
0
TABLE
2
DIMSTYLE
5
A
100
AcDbSymbolTable
70
1
0
ENDTAB
0
TABLE
2
BLOCK_RECORD
5
1
100
AcDbSymbolTable
70
1
0
BLOCK_RECORD
5
1F
100
AcDbSymbolTableRecord
100
AcDbBlockTableRecord
2
*MODEL_SPACE
0
BLOCK_RECORD
5
1B
100
AcDbSymbolTableRecord
100
AcDbBlockTableRecord
2
*PAPER_SPACE
0
ENDTAB
0
ENDSEC
0
SECTION
2
BLOCKS
0
BLOCK
5
20
100
AcDbEntity
100
AcDbBlockBegin
2
*MODEL_SPACE
0
ENDBLK
5
21
100
AcDbEntity
100
AcDbBlockEnd
0
BLOCK
5
1C
100
AcDbEntity
100
AcDbBlockBegin
2
*PAPER_SPACE
0
ENDBLK
5
1D
100
AcDbEntity
100
AcDbBlockEnd
0
ENDSEC
0
SECTION
2
ENTITIES
0
LWPOLYLINE
5
100
100
AcDbEntity
8
0
100
AcDbPolyline
90
8
70
1
43
0.0
10
38.099999999921998
20
6.0999999999901187
10
-38.099999999975125
20
6.0999999999901187
42
0.41421356238024848
10
-40.100000000059779
20
4.0999999999734564
10
-40.100000000059779
20
-4.1000000000090857
42
0.41421356237283541
10
-38.100000000060525
20
-6.1000000000098806
10
38.099999999940351
20
-6.1000000000098806
42
0.41421356237270451
10
40.099999999940223
20
-4.1000000000100156
10
40.099999999940223
20
4.0999999999905974
42
0.41421356237339746
0
LINE
5
101
100
AcDbEntity
8
0
100
AcDbLine
10
40.099999999940231
20
6.0999999999901195
30
0
11
-40.10000000007318
21
-6.1000000000098806
31
0
0
LINE
5
102
100
AcDbEntity
8
0
100
AcDbLine
10
-40.100000000059794
20
6.0999999999901195
30
0
11
40.099999999940231
21
-6.1000000000098806
31
0
0
LWPOLYLINE
5
103
100
AcDbEntity
8
0
100
AcDbPolyline
90
8
70
1
43
0.0
10
-41.900000000086607
20
4.0999956491036409
10
-41.9000000000866
20
-4.100009010556712
42
0.41421279399463351
10
-38.100000958464861
20
-7.9000000000098813
10
38.099999999940351
20
-7.9000000000098813
42
0.41421356237336682
10
41.899999999923793
20
-4.1000000000038224
10
41.899999999940221
20
4.0999999999905974
42
0.41421356237323609
10
38.099999999922233
20
7.900000000011401
10
-38.099999999975118
20
7.8999999999901194
42
0.41421356237687157
0
LWPOLYLINE
5
104
100
AcDbEntity
8
0
100
AcDbPolyline
90
4
70
1
43
0.0
10
6.3522966318271716e-15
20
7.899999999990114
10
-29.999999999999993
20
7.899999999990114
10
-29.999999999999993
20
32.899999999990115
10
6.3522966318271716e-15
20
32.899999999990122
0
LINE
5
105
100
AcDbEntity
8
0
100
AcDbLine
10
30
20
32.899999999990122
30
0
11
6.3522966318265957e-15
21
32.899999999990122
31
0
0
LINE
5
106
100
AcDbEntity
8
0
100
AcDbLine
10
30
20
7.8999999999901132
30
0
11
30
21
32.899999999990122
31
0
0
LINE
5
107
100
AcDbEntity
8
0
100
AcDbLine
10
6.3522966318265957e-15
20
7.8999999999901158
30
0
11
30
21
7.8999999999901132
31
0
0
LINE
5
108
100
AcDbEntity
8
0
100
AcDbLine
10
-6.574740751830177e-11
20
-6.100000000010251
30
0
11
-2.656500523893861e-11
21
6.0999999999901195
31
0
0
ARC
5
109
100
AcDbEntity
8
0
100
AcDbCircle
10
-15.300000000059777
20
2.7564123548830824e-09
30
0
40
7.9003718729564909
210
0
220
-0
230
1
100
AcDbArc
50
89.444077212150574
51
90.555922787883389
0
ARC
5
110
100
AcDbEntity
8
0
100
AcDbCircle
10
-15.300000000059777
20
2.7564123548830824e-09
30
0
40
7.9003718729564927
210
0
220
0
230
1
100
AcDbArc
50
129.45575438944022
51
230.54424567369915
0
ARC
5
111
100
AcDbEntity
8
0
100
AcDbCircle
10
-15.300000000059777
20
2.7564123548830824e-09
30
0
40
7.9003718729564953
210
0
220
0
230
1
100
AcDbArc
50
269.44408134279576
51
270.55591865720555
0
ARC
5
112
100
AcDbEntity
8
0
100
AcDbCircle
10
-15.300000000059777
20
2.7564123548830824e-09
30
0
40
7.9003718729564945
210
0
220
0
230
1
100
AcDbArc
50
-50.544245673699116
51
50.54424561055982
0
ARC
5
113
100
AcDbEntity
8
0
100
AcDbCircle
10
15.299999999967467
20
2.658135181952792e-09
30
0
40
7.90037187295649
210
0
220
-0
230
1
100
AcDbArc
50
89.444077291997246
51
90.555922719170297
0
ARC
5
114
100
AcDbEntity
8
0
100
AcDbCircle
10
15.299999999967467
20
2.658135181952792e-09
30
0
40
7.9003718729564891
210
0
220
0
230
1
100
AcDbArc
50
-50.544245672577581
51
50.54424561168139
0
ARC
5
115
100
AcDbEntity
8
0
100
AcDbCircle
10
15.299999999967467
20
2.658135181952792e-09
30
0
40
7.9003718729564909
210
0
220
0
230
1
100
AcDbArc
50
129.45575438831861
51
230.54424567257757
0
ARC
5
116
100
AcDbEntity
8
0
100
AcDbCircle
10
15.299999999967467
20
2.658135181952792e-09
30
0
40
7.9003718729564909
210
0
220
0
230
1
100
AcDbArc
50
269.44408126933843
51
270.55591873066157
0
ENDSEC
0
SECTION
2
OBJECTS
0
DICTIONARY
5
C
100
AcDbDictionary
3
ACAD_GROUP
350
D
3
ACAD_MLINESTYLE
350
17
0
DICTIONARY
5
D
100
AcDbDictionary
0
DICTIONARY
5
1A
330
C
100
AcDbDictionary
0
DICTIONARY
5
17
100
AcDbDictionary
0
ENDSEC
0
EOF
