0
SECTION
2
HEADER
9
$INSUNITS
70
4
9
$ACADVER
1
AC1014
9
$HANDSEED
5
FFFF
0
ENDSEC
0
SECTION
2
TABLES
0
TABLE
2
VPORT
5
8
100
AcDbSymbolTable
0
ENDTAB
0
TABLE
2
LTYPE
5
5
100
AcDbSymbolTable
0
LTYPE
5
14
100
AcDbSymbolTableRecord
100
AcDbLinetypeTableRecord
2
BYBLOCK
70
0
0
LTYPE
5
15
100
AcDbSymbolTableRecord
100
AcDbLinetypeTableRecord
2
BYLAYER
70
0
0
ENDTAB
0
TABLE
2
LAYER
5
2
100
AcDbSymbolTable
70
2
0
LAYER
5
50
100
AcDbSymbolTableRecord
100
AcDbLayerTableRecord
2
0
70
0
6
CONTINUOUS
0
ENDTAB
0
TABLE
2
STYLE
5
3
100
AcDbSymbolTable
70
1
0
STYLE
5
11
100
AcDbSymbolTableRecord
100
AcDbTextStyleTableRecord
2
STANDARD
70
0
0
ENDTAB
0
TABLE
2
VIEW
5
6
100
AcDbSymbolTable
70
0
0
ENDTAB
0
TABLE
2
UCS
5
7
100
AcDbSymbolTable
70
0
0
ENDTAB
0
TABLE
2
APPID
5
9
100
AcDbSymbolTable
70
2
0
APPID
5
12
100
AcDbSymbolTableRecord
100
AcDbRegAppTableRecord
2
ACAD
70
0
0
ENDTAB
0
TABLE
2
DIMSTYLE
5
A
100
AcDbSymbolTable
70
1
0
ENDTAB
0
TABLE
2
BLOCK_RECORD
5
1
100
AcDbSymbolTable
70
1
0
BLOCK_RECORD
5
1F
100
AcDbSymbolTableRecord
100
AcDbBlockTableRecord
2
*MODEL_SPACE
0
BLOCK_RECORD
5
1B
100
AcDbSymbolTableRecord
100
AcDbBlockTableRecord
2
*PAPER_SPACE
0
ENDTAB
0
ENDSEC
0
SECTION
2
BLOCKS
0
BLOCK
5
20
100
AcDbEntity
100
AcDbBlockBegin
2
*MODEL_SPACE
0
ENDBLK
5
21
100
AcDbEntity
100
AcDbBlockEnd
0
BLOCK
5
1C
100
AcDbEntity
100
AcDbBlockBegin
2
*PAPER_SPACE
0
ENDBLK
5
1D
100
AcDbEntity
100
AcDbBlockEnd
0
ENDSEC
0
SECTION
2
ENTITIES
0
LINE
5
100
100
AcDbEntity
8
0
100
AcDbLine
10
7.8999999999901194
20
-2.2000000000000002
30
0
11
7.8999999999901194
21
100
31
0
0
LWPOLYLINE
5
101
100
AcDbEntity
8
0
100
AcDbPolyline
90
6
70
1
43
0.0
10
7.8999999999901194
20
79.974532066458295
10
17.899999999990111
20
79.974532066458295
42
-0.41421356237309503
10
19.899999999990122
20
77.974532066458281
10
19.899999999990122
20
41.974532066458316
42
-0.41421356237309503
10
17.899999999990108
20
39.974532066458302
10
7.8999999999901194
20
39.974532066458295
0
ARC
5
102
100
AcDbEntity
8
0
100
AcDbCircle
10
17.899999999990111
20
77.974532066458281
30
0
40
6.3105946993694451
210
0
220
-0
230
1
100
AcDbArc
50
0
51
90
0
LINE
5
103
100
AcDbEntity
8
0
100
AcDbLine
10
7.8999999999901194
20
84.285126765827727
30
0
11
17.899999999990111
21
84.285126765827727
31
0
0
LINE
5
104
100
AcDbEntity
8
0
100
AcDbLine
10
17.899999999990111
20
35.663937367088856
30
0
11
7.8999999999901194
21
35.663937367088849
31
0
0
ARC
5
105
100
AcDbEntity
8
0
100
AcDbCircle
10
17.899999999990108
20
41.974532066458316
30
0
40
6.3105946993694584
210
0
220
0
230
1
100
AcDbArc
50
-90
51
0
0
LINE
5
106
100
AcDbEntity
8
0
100
AcDbLine
10
24.210594699359554
20
77.974532066458281
30
0
11
24.210594699359564
21
41.974532066458316
31
0
0
LINE
5
107
100
AcDbEntity
8
0
100
AcDbLine
10
7.8999999999901194
20
79.974532066458295
30
0
11
7.8999999999901194
21
84.285126765827727
31
0
0
LINE
5
108
100
AcDbEntity
8
0
100
AcDbLine
10
7.8999999999901194
20
39.974532066458295
30
0
11
7.8999999999901194
21
35.663937367088849
31
0
0
LWPOLYLINE
5
109
100
AcDbEntity
8
0
100
AcDbPolyline
90
4
70
1
43
0.0
10
7.8999999999901194
20
99.76412504690019
10
13.89999999999012
20
99.76412504690019
10
13.89999999999012
20
89.76412504690019
10
7.8999999999901194
20
89.76412504690019
0
LINE
5
110
100
AcDbEntity
8
0
100
AcDbLine
10
11.928888968069284
20
96.479172419821722
30
0
11
9.8711110319109689
21
93.049077673978672
31
0
0
CIRCLE
5
111
100
AcDbEntity
8
0
100
AcDbCircle
10
10.89999999999012
20
94.76412504690019
30
0
40
1.9999999999999949
210
0
220
0
230
1
0
LINE
5
112
100
AcDbEntity
8
0
100
AcDbLine
10
0
20
100
30
0
11
0
21
86.091594305233087
31
0
0
LINE
5
113
100
AcDbEntity
8
0
100
AcDbLine
10
-7.8999999999901194
20
99.76412504690019
30
0
11
-13.89999999999012
21
99.76412504690019
31
0
0
LINE
5
114
100
AcDbEntity
8
0
100
AcDbLine
10
-8.9371689423735674
20
89.76412504690019
30
0
11
-7.8999999999901194
21
89.76412504690019
31
0
0
LINE
5
115
100
AcDbEntity
8
0
100
AcDbLine
10
-7.8999999999901194
20
89.76412504690019
30
0
11
-7.8999999999901194
21
99.76412504690019
31
0
0
ARC
5
116
100
AcDbEntity
8
0
100
AcDbCircle
10
-10.89999999999012
20
94.76412504690019
30
0
40
1.9999999999999938
210
0
220
0
230
1
100
AcDbArc
50
-0.42655195291703124
51
82.219182989743018
0
LINE
5
117
100
AcDbEntity
8
0
100
AcDbLine
10
-13.89999999999012
20
99.808423288233229
30
0
11
-13.89999999999012
21
99.76412504690019
31
0
0
LINE
5
118
100
AcDbEntity
8
0
100
AcDbLine
10
-16.110649776251925
20
98.018620656070127
30
0
11
-16.110649776251925
21
99.76412504690019
31
0
0
LINE
5
119
100
AcDbEntity
8
0
100
AcDbLine
10
-16.110649776251925
20
98.018620656070127
30
0
11
-10.692702727142368
21
96.754261783797958
31
0
0
LINE
5
120
100
AcDbEntity
8
0
100
AcDbLine
10
-13.89999999999012
20
99.76412504690019
30
0
11
-16.110649776251925
21
99.76412504690019
31
0
0
LINE
5
121
100
AcDbEntity
8
0
100
AcDbLine
10
-8.9000554238283875
20
94.749235712420599
30
0
11
-8.9371689423735674
21
89.76412504690019
31
0
0
SPLINE
5
122
100
AcDbEntity
8
0
100
AcDbSpline
70
4
71
5
72
16
73
10
74
0
42
0.000000001
43
0.0000000001
44
0.0000000001
40
0
40
0
40
0
40
0
40
0
40
0
40
0.20000000000000001
40
0.40000000000000002
40
0.60000000000000009
40
0.80000000000000004
40
1
40
1
40
1
40
1
40
1
40
1
41
1
41
1
41
1
41
1
41
1
41
1
41
1
41
1
41
1
41
1
10
-10.692702727142368
20
96.754261783797958
30
0
10
-10.690163909560757
20
96.753919772174996
30
0
10
-10.685086274397733
20
96.753235748933378
30
0
10
-10.677469821653858
20
96.752209714084771
30
0
10
-10.667314551329859
20
96.750841667644565
30
0
10
-10.654620463426291
20
96.749131609624186
30
0
10
-10.644465193104164
20
96.747763563224993
30
0
10
-10.636848740362881
20
96.746737528433897
30
0
10
-10.631771105202137
20
96.746053505243424
30
0
10
-10.629232287621797
20
96.745711493649068
30
0
0
ENDSEC
0
SECTION
2
OBJECTS
0
DICTIONARY
5
C
100
AcDbDictionary
3
ACAD_GROUP
350
D
3
ACAD_MLINESTYLE
350
17
0
DICTIONARY
5
D
100
AcDbDictionary
0
DICTIONARY
5
1A
330
C
100
AcDbDictionary
0
DICTIONARY
5
17
100
AcDbDictionary
0
ENDSEC
0
EOF
