0
SECTION
2
HEADER
9
$INSUNITS
70
4
9
$ACADVER
1
AC1014
9
$HANDSEED
5
FFFF
0
ENDSEC
0
SECTION
2
TABLES
0
TABLE
2
VPORT
5
8
100
AcDbSymbolTable
0
ENDTAB
0
TABLE
2
LTYPE
5
5
100
AcDbSymbolTable
0
LTYPE
5
14
100
AcDbSymbolTableRecord
100
AcDbLinetypeTableRecord
2
BYBLOCK
70
0
0
LTYPE
5
15
100
AcDbSymbolTableRecord
100
AcDbLinetypeTableRecord
2
BYLAYER
70
0
0
ENDTAB
0
TABLE
2
LAYER
5
2
100
AcDbSymbolTable
70
2
0
LAYER
5
50
100
AcDbSymbolTableRecord
100
AcDbLayerTableRecord
2
0
70
0
6
CONTINUOUS
0
ENDTAB
0
TABLE
2
STYLE
5
3
100
AcDbSymbolTable
70
1
0
STYLE
5
11
100
AcDbSymbolTableRecord
100
AcDbTextStyleTableRecord
2
STANDARD
70
0
0
ENDTAB
0
TABLE
2
VIEW
5
6
100
AcDbSymbolTable
70
0
0
ENDTAB
0
TABLE
2
UCS
5
7
100
AcDbSymbolTable
70
0
0
ENDTAB
0
TABLE
2
APPID
5
9
100
AcDbSymbolTable
70
2
0
APPID
5
12
100
AcDbSymbolTableRecord
100
AcDbRegAppTableRecord
2
ACAD
70
0
0
ENDTAB
0
TABLE
2
DIMSTYLE
5
A
100
AcDbSymbolTable
70
1
0
ENDTAB
0
TABLE
2
BLOCK_RECORD
5
1
100
AcDbSymbolTable
70
1
0
BLOCK_RECORD
5
1F
100
AcDbSymbolTableRecord
100
AcDbBlockTableRecord
2
*MODEL_SPACE
0
BLOCK_RECORD
5
1B
100
AcDbSymbolTableRecord
100
AcDbBlockTableRecord
2
*PAPER_SPACE
0
ENDTAB
0
ENDSEC
0
SECTION
2
BLOCKS
0
BLOCK
5
20
100
AcDbEntity
100
AcDbBlockBegin
2
*MODEL_SPACE
0
ENDBLK
5
21
100
AcDbEntity
100
AcDbBlockEnd
0
BLOCK
5
1C
100
AcDbEntity
100
AcDbBlockBegin
2
*PAPER_SPACE
0
ENDBLK
5
1D
100
AcDbEntity
100
AcDbBlockEnd
0
ENDSEC
0
SECTION
2
ENTITIES
0
LINE
5
100
100
AcDbEntity
8
0
100
AcDbLine
10
0
20
0
30
0
11
0
21
51.96152422706632
31
0
0
LWPOLYLINE
5
101
100
AcDbEntity
8
0
100
AcDbPolyline
90
6
70
1
43
0.0
10
-29.999999999999996
20
51.96152422706632
10
30.000000000000028
20
51.961524227066313
42
-0.26794919243112264
10
60
20
-1.3322676295501878e-14
10
29.999999999999982
20
-51.961524227066313
42
-0.26794919243112275
10
-30.000000000000018
20
-51.961524227066306
10
-60
20
-3.5527136788005009e-14
42
-0.26794919243112286
0
CIRCLE
5
102
100
AcDbEntity
8
0
100
AcDbCircle
10
0
20
0
30
0
40
6.5000000000000018
210
0
220
0
230
1
0
LINE
5
103
100
AcDbEntity
8
0
100
AcDbLine
10
0
20
0
30
0
11
34.641016151377556
21
19.999999999999986
31
0
0
LINE
5
104
100
AcDbEntity
8
0
100
AcDbLine
10
34.641016151377556
20
19.999999999999986
30
0
11
49.224993955301855
21
28.420063510951206
31
4.3094538059034262
0
CIRCLE
5
105
100
AcDbEntity
8
0
100
AcDbCircle
10
2.2204460492503131e-15
20
42.286167935365881
30
-15.390906449655093
40
12.6
210
-0.29619813272602391
220
-0.17101007166283425
230
0.93969262078590843
0
LINE
5
106
100
AcDbEntity
8
0
100
AcDbLine
10
38.971143170299747
20
22.499999999999982
30
0
11
27.367200387063182
21
-2.6013815313120858
31
0
0
CIRCLE
5
107
100
AcDbEntity
8
0
100
AcDbCircle
10
2.2204460492503131e-15
20
42.286167935365881
30
-15.390906449655093
40
16.25
210
-0.29619813272602391
220
-0.17101007166283425
230
0.93969262078590843
0
CIRCLE
5
108
100
AcDbEntity
8
0
100
AcDbCircle
10
-2.6645352591003757e-14
20
42.286167935365889
30
-15.390906449655093
40
12.6
210
0.29619813272602374
220
-0.17101007166283455
230
0.93969262078590843
0
LINE
5
109
100
AcDbEntity
8
0
100
AcDbLine
10
-19.398969044771416
20
11.200000000000024
30
0
11
-11.430737702479654
21
25.001381531312084
31
0
0
CIRCLE
5
110
100
AcDbEntity
8
0
100
AcDbCircle
10
-2.6645352591003757e-14
20
42.286167935365889
30
-15.390906449655093
40
16.25
210
0.29619813272602374
220
-0.17101007166283455
230
0.93969262078590843
0
CIRCLE
5
111
100
AcDbEntity
8
0
100
AcDbCircle
10
-1.1756934956730163e-14
20
42.286167935365874
30
-15.390906449655086
40
12.6
210
1.9061627188978792e-16
220
0.34202014332566866
230
0.93969262078590843
0
LINE
5
112
100
AcDbEntity
8
0
100
AcDbLine
10
-2.7755575615628914e-14
20
-22.399999999999999
30
0
11
-15.936462684583528
21
-22.399999999999988
31
0
0
CIRCLE
5
113
100
AcDbEntity
8
0
100
AcDbCircle
10
-1.1756934956730163e-14
20
42.286167935365874
30
-15.390906449655086
40
16.25
210
1.9061627188978792e-16
220
0.34202014332566866
230
0.93969262078590843
0
LINE
5
114
100
AcDbEntity
8
0
100
AcDbLine
10
34.641016151377556
20
19.999999999999986
30
0
11
51.961524227066327
21
29.999999999999979
31
0
0
LINE
5
115
100
AcDbEntity
8
0
100
AcDbLine
10
51.961524227066327
20
29.999999999999979
30
0
11
38.971143170299747
21
22.499999999999982
31
0
0
LINE
5
116
100
AcDbEntity
8
0
100
AcDbLine
10
0
20
0
30
0
11
-51.96152422706632
21
30
31
0
0
LINE
5
117
100
AcDbEntity
8
0
100
AcDbLine
10
0
20
0
30
0
11
-1.7763568394002505e-14
21
-59.999999999999993
31
0
0
LINE
5
118
100
AcDbEntity
8
0
100
AcDbLine
10
-51.96152422706632
20
30
30
0
11
-38.97114317029974
21
22.5
31
0
0
LINE
5
119
100
AcDbEntity
8
0
100
AcDbLine
10
-1.7763568394002505e-14
20
-59.999999999999993
30
0
11
-1.3322676295501878e-14
21
-44.999999999999993
31
0
0
LINE
5
120
100
AcDbEntity
8
0
100
AcDbLine
10
0
20
0
30
0
11
44.999999999999993
21
-25.980762113533174
31
0
0
LINE
5
121
100
AcDbEntity
8
0
100
AcDbLine
10
0
20
0
30
0
11
3.1086244689504383e-14
21
51.96152422706632
31
0
0
LINE
5
122
100
AcDbEntity
8
0
100
AcDbLine
10
0
20
0
30
0
11
-45.000000000000007
21
-25.980762113533125
31
0
0
CIRCLE
5
123
100
AcDbEntity
8
0
100
AcDbCircle
10
39.444501830850399
20
-22.773293750092183
30
0
40
3.0000000000000004
210
0
220
0
230
1
0
CIRCLE
5
124
100
AcDbEntity
8
0
100
AcDbCircle
10
2.886579864025407e-14
20
45.546587500184337
30
0
40
3.0000000000000004
210
0
220
0
230
1
0
CIRCLE
5
125
100
AcDbEntity
8
0
100
AcDbCircle
10
-39.44450183085042
20
-22.773293750092137
30
0
40
3.0000000000000004
210
0
220
0
230
1
0
CIRCLE
5
126
100
AcDbEntity
8
0
100
AcDbCircle
10
28.225570466751432
20
-35.127295301974335
30
0
40
3.0000000000000022
210
0
220
0
230
1
0
ENDSEC
0
SECTION
2
OBJECTS
0
DICTIONARY
5
C
100
AcDbDictionary
3
ACAD_GROUP
350
D
3
ACAD_MLINESTYLE
350
17
0
DICTIONARY
5
D
100
AcDbDictionary
0
DICTIONARY
5
1A
330
C
100
AcDbDictionary
0
DICTIONARY
5
17
100
AcDbDictionary
0
ENDSEC
0
EOF
