                                                                        S      1
,,21Hmassimo_squadretta v2,20Hmassimosquadretta v2,7Hunknown,7Hunknown, G      1
32,38,7,99,15,,1.,2,2HMM,1,0.08,15H20230101.152014,0.01,10000.,7HunknownG      2
,7Hunknown,11,0,15H20210305.212121;                                     G      3
     186       1                                                00000000D      1
     186            -187       1       0                               0D      2
     514       2                                                00010000D      3
     514                       2       1                               0D      4
     510       4                                                00010000D      5
     510            -187       1       1                               0D      6
     510       5                                                00010000D      7
     510            -187       1       1                               0D      8
     510       6                                                00010000D      9
     510            -187       1       1                               0D     10
     510       7                                                00010000D     11
     510            -187       1       1                               0D     12
     510       8                                                00010000D     13
     510            -187       1       1                               0D     14
     510       9                                                00010000D     15
     510            -187       1       1                               0D     16
     510      10                                                00010000D     17
     510            -187       1       1                               0D     18
     510      11                                                00010000D     19
     510            -187       1       1                               0D     20
     510      12                                                00010000D     21
     510            -187       1       1                               0D     22
     510      13                                                00010000D     23
     510            -187       1       1                               0D     24
     510      14                                                00010000D     25
     510            -187       1       1                               0D     26
     510      15                                                00010000D     27
     510            -187       1       1                               0D     28
     510      16                                                00010000D     29
     510            -187       1       1                               0D     30
     510      17                                                00010000D     31
     510            -187       1       1                               0D     32
     510      18                                                00010000D     33
     510            -187       1       1                               0D     34
     508      19                                                00010000D     35
     508                       1       1                               0D     36
     508      20                                                00010000D     37
     508                       2       1                               0D     38
     508      22                                                00010000D     39
     508                       1       1                               0D     40
     508      23                                                00010000D     41
     508                       1       1                               0D     42
     508      24                                                00010000D     43
     508                       1       1                               0D     44
     508      25                                                00010000D     45
     508                       1       1                               0D     46
     508      26                                                00010000D     47
     508                       1       1                               0D     48
     508      27                                                00010000D     49
     508                       1       1                               0D     50
     508      28                                                00010000D     51
     508                       1       1                               0D     52
     508      29                                                00010000D     53
     508                       1       1                               0D     54
     508      30                                                00010000D     55
     508                       1       1                               0D     56
     508      31                                                00010000D     57
     508                       1       1                               0D     58
     508      32                                                00010000D     59
     508                       1       1                               0D     60
     508      33                                                00010000D     61
     508                       1       1                               0D     62
     508      34                                                00010000D     63
     508                       1       1                               0D     64
     508      35                                                00010000D     65
     508                       1       1                               0D     66
     508      36                                                00010000D     67
     508                       1       1                               0D     68
     508      37                                                00010000D     69
     508                       1       1                               0D     70
     508      38                                                00010000D     71
     508                       2       1                               0D     72
     508      40                                                00010000D     73
     508                       1       1                               0D     74
     508      41                                                00010000D     75
     508                       1       1                               0D     76
     508      42                                                00010000D     77
     508                       1       1                               0D     78
     126      43                                                00010000D     79
     126       0               5       0                               0D     80
     126      48                                                00010000D     81
     126       0               2       0                               0D     82
     126      50                                                00010000D     83
     126       0               4       0                               0D     84
     126      54                                                00010000D     85
     126       0               2       0                               0D     86
     126      56                                                00010000D     87
     126       0               2       0                               0D     88
     126      58                                                00010000D     89
     126       0               4       0                               0D     90
     126      62                                                00010000D     91
     126       0               2       0                               0D     92
     126      64                                                00010000D     93
     126       0               4       0                               0D     94
     126      68                                                00010000D     95
     126       0               2       0                               0D     96
     126      70                                                00010000D     97
     126       0               4       0                               0D     98
     126      74                                                00010000D     99
     126       0               2       0                               0D    100
     126      76                                                00010000D    101
     126       0               9       0                               0D    102
     126      85                                                00010000D    103
     126       0               9       0                               0D    104
     126      94                                                00010000D    105
     126       0               9       0                               0D    106
     126     103                                                00010000D    107
     126       0               2       0                               0D    108
     126     105                                                00010000D    109
     126       0               2       0                               0D    110
     126     107                                                00010000D    111
     126       0               4       0                               0D    112
     126     111                                                00010000D    113
     126       0               2       0                               0D    114
     126     113                                                00010000D    115
     126       0               4       0                               0D    116
     126     117                                                00010000D    117
     126       0               2       0                               0D    118
     126     119                                                00010000D    119
     126       0               2       0                               0D    120
     126     121                                                00010000D    121
     126       0               2       0                               0D    122
     126     123                                                00010000D    123
     126       0               2       0                               0D    124
     126     125                                                00010000D    125
     126       0               4       0                               0D    126
     126     129                                                00010000D    127
     126       0               2       0                               0D    128
     126     131                                                00010000D    129
     126       0              10       0                               0D    130
     126     141                                                00010000D    131
     126       0               2       0                               0D    132
     126     143                                                00010000D    133
     126       0              10       0                               0D    134
     126     153                                                00010000D    135
     126       0               9       0                               0D    136
     126     162                                                00010000D    137
     126       0               2       0                               0D    138
     126     164                                                00010000D    139
     126       0               9       0                               0D    140
     126     173                                                00010000D    141
     126       0               2       0                               0D    142
     126     175                                                00010000D    143
     126       0               9       0                               0D    144
     126     184                                                00010000D    145
     126       0               3       0                               0D    146
     126     187                                                00010000D    147
     126       0               2       0                               0D    148
     126     189                                                00010000D    149
     126       0               2       0                               0D    150
     128     191                                                00010000D    151
     128       0    -187       6       0                               0D    152
     128     197                                                00010000D    153
     128       0    -187       3       0                               0D    154
     128     200                                                00010000D    155
     128       0    -187       3       0                               0D    156
     128     203                                                00010000D    157
     128       0    -187       6       0                               0D    158
     128     209                                                00010000D    159
     128       0    -187       6       0                               0D    160
     128     215                                                00010000D    161
     128       0    -187       3       0                               0D    162
     128     218                                                00010000D    163
     128       0    -187       6       0                               0D    164
     128     224                                                00010000D    165
     128       0    -187      12       0                               0D    166
     128     236                                                00010000D    167
     128       0    -187       3       0                               0D    168
     128     239                                                00010000D    169
     128       0    -187      13       0                               0D    170
     128     252                                                00010000D    171
     128       0    -187      12       0                               0D    172
     128     264                                                00010000D    173
     128       0    -187      13       0                               0D    174
     128     277                                                00010000D    175
     128       0    -187       3       0                               0D    176
     128     280                                                00010000D    177
     128       0    -187       3       0                               0D    178
     128     283                                                00010000D    179
     128       0    -187       3       0                               0D    180
     502     286                                                00010000D    181
     502                       8       1                               0D    182
     504     294                                                00010001D    183
     504                      10       1                               0D    184
     406     304                                                00000000D    185
     406                       1      15                               0D    186
     314     305                                                00000200D    187
     314                       2       0                               0D    188
186,3,1,0,0,1,185;                                                     1P      1
514,15,5,1,7,1,9,1,11,1,13,1,15,1,17,1,19,1,21,1,23,1,25,1,27,1,       3P      2
29,1,31,1,33,1;                                                        3P      3
510,151,1,1,35;                                                        5P      4
510,153,4,1,37,39,41,43;                                               7P      5
510,155,1,1,45;                                                        9P      6
510,157,1,1,47;                                                       11P      7
510,159,1,1,49;                                                       13P      8
510,161,1,1,51;                                                       15P      9
510,163,1,1,53;                                                       17P     10
510,165,1,1,55;                                                       19P     11
510,167,2,1,57,59;                                                    21P     12
510,169,1,1,61;                                                       23P     13
510,171,1,1,63;                                                       25P     14
510,173,1,1,65;                                                       27P     15
510,175,1,1,67;                                                       29P     16
510,177,1,1,69;                                                       31P     17
510,179,4,1,71,73,75,77;                                              33P     18
508,4,0,183,1,1,0,0,183,2,1,0,0,183,3,1,0,0,183,4,1,0;                35P     19
508,8,0,183,3,0,0,0,183,5,0,0,0,183,6,0,0,0,183,7,0,0,0,183,8,0,      37P     20
0,0,183,9,0,0,0,183,10,0,0,0,183,11,0,0;                              37P     21
508,1,0,183,12,1,0;                                                   39P     22
508,1,0,183,13,0,0;                                                   41P     23
508,1,0,183,14,0,0;                                                   43P     24
508,4,0,183,2,0,0,0,183,15,0,0,0,183,16,0,0,0,183,5,1,0;              45P     25
508,4,0,183,17,1,0,0,183,18,1,0,0,183,6,1,0,0,183,16,1,0;             47P     26
508,4,0,183,19,1,0,0,183,20,1,0,0,183,10,1,0,0,183,21,1,0;            49P     27
508,4,0,183,21,0,0,0,183,9,1,0,0,183,22,0,0,0,183,23,0,0;             51P     28
508,4,0,183,24,1,0,0,183,22,1,0,0,183,8,1,0,0,183,25,1,0;             53P     29
508,4,0,183,26,0,0,0,183,27,1,0,0,183,12,0,0,0,183,27,0,0;            55P     30
508,1,0,183,26,1,0;                                                   57P     31
508,1,0,183,28,1,0;                                                   59P     32
508,4,0,183,29,0,0,0,183,30,1,0,0,183,14,1,0,0,183,30,0,0;            61P     33
508,4,0,183,31,0,0,0,183,32,1,0,0,183,13,1,0,0,183,32,0,0;            63P     34
508,4,0,183,33,0,0,0,183,34,1,0,0,183,28,0,0,0,183,34,0,0;            65P     35
508,4,0,183,4,0,0,0,183,11,1,0,0,183,20,0,0,0,183,35,0,0;             67P     36
508,4,0,183,18,0,0,0,183,36,0,0,0,183,25,0,0,0,183,7,1,0;             69P     37
508,8,0,183,1,0,0,0,183,35,1,0,0,183,19,0,0,0,183,23,1,0,0,183,       71P     38
24,0,0,0,183,36,1,0,0,183,17,0,0,0,183,15,1,0;                        71P     39
508,1,0,183,33,1,0;                                                   73P     40
508,1,0,183,31,1,0;                                                   75P     41
508,1,0,183,29,1,0;                                                   77P     42
126,2,2,0,0,0,0,-0.785398163397449,-0.785398163397449,                79P     43
-0.785398163397449,0.785398163397448,0.785398163397448,               79P     44
0.785398163397448,1.,0.707106781186549,1.,-18.,-10.,3.2,-20.,         79P     45
-10.,3.2,-20.,-8.,3.2,-0.785398163397449,0.785398163397448,0.,        79P     46
0.,0.;                                                                79P     47
126,1,1,0,0,1,0,-0.32,-0.32,0.,0.,1.,1.,-20.,-8.,3.2,-20.,-8.,        81P     48
0.,-0.32,0.,0.,0.,0.;                                                 81P     49
126,2,2,0,0,0,0,-0.785398163397448,-0.785398163397448,                83P     50
-0.785398163397448,0.785398163397449,0.785398163397449,               83P     51
0.785398163397449,1.,0.707106781186549,1.,-20.,-8.,0.,-20.,-10.,      83P     52
0.,-18.,-10.,0.,-0.785398163397448,0.785398163397449,0.,0.,0.;        83P     53
126,1,1,0,0,1,0,0.,0.,0.32,0.32,1.,1.,-18.,-10.,0.,-18.,-10.,         85P     54
3.2,0.,0.32,0.,0.,0.;                                                 85P     55
126,1,1,0,0,1,0,0.2,0.2,1.8,1.8,1.,1.,-20.,8.,0.,-20.,-8.,0.,         87P     56
0.2,1.8,0.,0.,0.;                                                     87P     57
126,2,2,0,0,0,0,-0.785398163397448,-0.785398163397448,                89P     58
-0.785398163397448,0.785398163397448,0.785398163397448,               89P     59
0.785398163397448,1.,0.70710678118655,1.,-18.,10.,0.,-20.,10.,        89P     60
0.,-20.,8.,0.,-0.785398163397448,0.785398163397448,0.,0.,0.;          89P     61
126,1,1,0,0,1,0,0.2,0.2,3.8,3.8,1.,1.,18.,10.,0.,-18.,10.,0.,         91P     62
0.2,3.8,0.,0.,0.;                                                     91P     63
126,2,2,0,0,0,0,-0.785398163397448,-0.785398163397448,                93P     64
-0.785398163397448,0.785398163397449,0.785398163397449,               93P     65
0.785398163397449,1.,0.707106781186549,1.,20.,8.,0.,20.,10.,0.,       93P     66
18.,10.,0.,-0.785398163397448,0.785398163397449,0.,0.,0.;             93P     67
126,1,1,0,0,1,0,0.2,0.2,1.8,1.8,1.,1.,20.,-8.,0.,20.,8.,0.,0.2,       95P     68
1.8,0.,0.,0.;                                                         95P     69
126,2,2,0,0,0,0,-0.785398163397448,-0.785398163397448,                97P     70
-0.785398163397448,0.785398163397448,0.785398163397448,               97P     71
0.785398163397448,1.,0.70710678118655,1.,18.,-10.,0.,20.,-10.,        97P     72
0.,20.,-8.,0.,-0.785398163397448,0.785398163397448,0.,0.,0.;          97P     73
126,1,1,0,0,1,0,0.2,0.2,3.8,3.8,1.,1.,-18.,-10.,0.,18.,-10.,0.,       99P     74
0.2,3.8,0.,0.,0.;                                                     99P     75
126,8,2,0,1,0,0,-3.14159265358979,-3.14159265358979,                 101P     76
-3.14159265358979,-1.5707963267949,-1.5707963267949,0.,0.,           101P     77
1.5707963267949,1.5707963267949,3.14159265358979,                    101P     78
3.14159265358979,3.14159265358979,1.,0.707106781186548,1.,           101P     79
0.707106781186548,1.,0.707106781186548,1.,0.707106781186548,1.,      101P     80
-9.2,-1.12667505521557D-15,0.,-9.2,-9.2,0.,5.63337527607783D-16,     101P     81
-9.2,0.,9.2,-9.2,0.,9.2,0.,0.,9.2,9.2,0.,5.63337527607783D-16,       101P     82
9.2,0.,-9.2,9.2,0.,-9.2,1.12667505521557D-15,0.,                     101P     83
-3.14159265358979,3.14159265358979,0.,0.,0.;                         101P     84
126,8,2,0,1,0,0,-3.14159265358979,-3.14159265358979,                 103P     85
-3.14159265358979,-1.5707963267949,-1.5707963267949,0.,0.,           103P     86
1.5707963267949,1.5707963267949,3.14159265358979,                    103P     87
3.14159265358979,3.14159265358979,1.,0.707106781186547,1.,           103P     88
0.707106781186547,1.,0.707106781186547,1.,0.707106781186547,1.,      103P     89
11.25,2.14313189850787D-16,0.,11.25,1.75,0.,13.,1.75,0.,14.75,       103P     90
1.75,0.,14.75,0.,0.,14.75,-1.75,0.,13.,-1.75,0.,11.25,-1.75,0.,      103P     91
11.25,-2.14313189850787D-16,0.,-3.14159265358979,                    103P     92
3.14159265358979,0.,0.,0.;                                           103P     93
126,8,2,0,1,0,0,-3.14159265358979,-3.14159265358979,                 105P     94
-3.14159265358979,-1.5707963267949,-1.5707963267949,0.,0.,           105P     95
1.5707963267949,1.5707963267949,3.14159265358979,                    105P     96
3.14159265358979,3.14159265358979,1.,0.707106781186547,1.,           105P     97
0.707106781186547,1.,0.707106781186547,1.,0.707106781186547,1.,      105P     98
-14.75,2.14313189850787D-16,0.,-14.75,1.75,0.,-13.,1.75,0.,          105P     99
-11.25,1.75,0.,-11.25,0.,0.,-11.25,-1.75,0.,-13.,-1.75,0.,           105P    100
-14.75,-1.75,0.,-14.75,-2.14313189850787D-16,0.,                     105P    101
-3.14159265358979,3.14159265358979,0.,0.,0.;                         105P    102
126,1,1,0,0,1,0,0.2,0.2,1.8,1.8,1.,1.,-20.,8.,3.2,-20.,-8.,3.2,      107P    103
0.2,1.8,0.,0.,0.;                                                    107P    104
126,1,1,0,0,1,0,0.,0.,0.32,0.32,1.,1.,-20.,8.,0.,-20.,8.,3.2,0.,     109P    105
0.32,0.,0.,0.;                                                       109P    106
126,2,2,0,0,0,0,-0.785398163397448,-0.785398163397448,               111P    107
-0.785398163397448,0.785398163397448,0.785398163397448,              111P    108
0.785398163397448,1.,0.70710678118655,1.,-20.,8.,3.2,-20.,10.,       111P    109
3.2,-18.,10.,3.2,-0.785398163397448,0.785398163397448,0.,0.,0.;      111P    110
126,1,1,0,0,1,0,-0.32,-0.32,0.,0.,1.,1.,-18.,10.,3.2,-18.,10.,       113P    111
0.,-0.32,0.,0.,0.,0.;                                                113P    112
126,2,2,0,0,0,0,-0.785398163397448,-0.785398163397448,               115P    113
-0.785398163397448,0.785398163397448,0.785398163397448,              115P    114
0.785398163397448,1.,0.70710678118655,1.,20.,-8.,3.2,20.,-10.,       115P    115
3.2,18.,-10.,3.2,-0.785398163397448,0.785398163397448,0.,0.,0.;      115P    116
126,1,1,0,0,1,0,-0.32,-0.32,0.,0.,1.,1.,18.,-10.,3.2,18.,-10.,       117P    117
0.,-0.32,0.,0.,0.,0.;                                                117P    118
126,1,1,0,0,1,0,0.,0.,0.32,0.32,1.,1.,20.,-8.,0.,20.,-8.,3.2,0.,     119P    119
0.32,0.,0.,0.;                                                       119P    120
126,1,1,0,0,1,0,-0.32,-0.32,0.,0.,1.,1.,20.,8.,3.2,20.,8.,0.,        121P    121
-0.32,0.,0.,0.,0.;                                                   121P    122
126,1,1,0,0,1,0,0.2,0.2,1.8,1.8,1.,1.,20.,-8.,3.2,20.,8.,3.2,        123P    123
0.2,1.8,0.,0.,0.;                                                    123P    124
126,2,2,0,0,0,0,-0.785398163397449,-0.785398163397449,               125P    125
-0.785398163397449,0.785398163397448,0.785398163397448,              125P    126
0.785398163397448,1.,0.707106781186549,1.,18.,10.,3.2,20.,10.,       125P    127
3.2,20.,8.,3.2,-0.785398163397449,0.785398163397448,0.,0.,0.;        125P    128
126,1,1,0,0,1,0,0.,0.,0.32,0.32,1.,1.,18.,10.,0.,18.,10.,3.2,0.,     127P    129
0.32,0.,0.,0.;                                                       127P    130
126,8,2,0,1,0,0,-3.14159265358979,-3.14159265358979,                 129P    131
-3.14159265358979,-1.5707963267949,-1.5707963267949,0.,0.,           129P    132
1.5707963267949,1.5707963267949,3.14159265358979,                    129P    133
3.14159265358979,3.14159265358979,1.,0.707106781186548,1.,           129P    134
0.707106781186548,1.,0.707106781186548,1.,0.707106781186548,1.,      129P    135
-9.2,1.12667505521557D-15,-55.,-9.2,9.2,-55.,                        129P    136
5.63337527607783D-16,9.2,-55.,9.2,9.2,-55.,9.2,0.,-55.,9.2,-9.2,     129P    137
-55.,5.63337527607783D-16,-9.2,-55.,-9.2,-9.2,-55.,-9.2,             129P    138
-1.12667505521557D-15,-55.,-3.14159265358979,3.14159265358979,       129P    139
0.,0.,0.;                                                            129P    140
126,1,1,0,0,1,0,-5.97826086956522,-5.97826086956522,0.,0.,1.,1.,     131P    141
-9.2,0.,-55.,-9.2,0.,0.,-5.97826086956522,0.,0.,0.,0.;               131P    142
126,8,2,0,1,0,0,-3.14159265358979,-3.14159265358979,                 133P    143
-3.14159265358979,-1.5707963267949,-1.5707963267949,0.,0.,           133P    144
1.5707963267949,1.5707963267949,3.14159265358979,                    133P    145
3.14159265358979,3.14159265358979,1.,0.707106781186548,1.,           133P    146
0.707106781186548,1.,0.707106781186548,1.,0.707106781186548,1.,      133P    147
-6.,-7.34788079488412D-16,-55.,-6.,-6.,-55.,                         133P    148
3.67394039744206D-16,-6.,-55.,6.,-6.,-55.,6.,0.,-55.,6.,6.,-55.,     133P    149
3.67394039744206D-16,6.,-55.,-6.,6.,-55.,-6.,                        133P    150
7.34788079488412D-16,-55.,-3.14159265358979,3.14159265358979,0.,     133P    151
0.,0.;                                                               133P    152
126,8,2,0,1,0,0,-3.14159265358979,-3.14159265358979,                 135P    153
-3.14159265358979,-1.5707963267949,-1.5707963267949,0.,0.,           135P    154
1.5707963267949,1.5707963267949,3.14159265358979,                    135P    155
3.14159265358979,3.14159265358979,1.,0.707106781186547,1.,           135P    156
0.707106781186547,1.,0.707106781186547,1.,0.707106781186547,1.,      135P    157
-14.75,2.14313189850787D-16,3.2,-14.75,1.75,3.2,-13.,1.75,3.2,       135P    158
-11.25,1.75,3.2,-11.25,0.,3.2,-11.25,-1.75,3.2,-13.,-1.75,3.2,       135P    159
-14.75,-1.75,3.2,-14.75,-2.14313189850787D-16,3.2,                   135P    160
-3.14159265358979,3.14159265358979,0.,0.,0.;                         135P    161
126,1,1,0,0,1,0,-1.82857142857143,-1.82857142857143,0.,0.,1.,1.,     137P    162
-14.75,0.,3.2,-14.75,0.,0.,-1.82857142857143,0.,0.,0.,0.;            137P    163
126,8,2,0,1,0,0,-3.14159265358979,-3.14159265358979,                 139P    164
-3.14159265358979,-1.5707963267949,-1.5707963267949,0.,0.,           139P    165
1.5707963267949,1.5707963267949,3.14159265358979,                    139P    166
3.14159265358979,3.14159265358979,1.,0.707106781186547,1.,           139P    167
0.707106781186547,1.,0.707106781186547,1.,0.707106781186547,1.,      139P    168
11.25,2.14313189850787D-16,3.2,11.25,1.75,3.2,13.,1.75,3.2,          139P    169
14.75,1.75,3.2,14.75,0.,3.2,14.75,-1.75,3.2,13.,-1.75,3.2,11.25,     139P    170
-1.75,3.2,11.25,-2.14313189850787D-16,3.2,-3.14159265358979,         139P    171
3.14159265358979,0.,0.,0.;                                           139P    172
126,1,1,0,0,1,0,-1.82857142857143,-1.82857142857143,0.,0.,1.,1.,     141P    173
11.25,0.,3.2,11.25,0.,0.,-1.82857142857143,0.,0.,0.,0.;              141P    174
126,8,2,0,1,0,0,-3.14159265358979,-3.14159265358979,                 143P    175
-3.14159265358979,-1.5707963267949,-1.5707963267949,0.,0.,           143P    176
1.5707963267949,1.5707963267949,3.14159265358979,                    143P    177
3.14159265358979,3.14159265358979,1.,0.707106781186548,1.,           143P    178
0.707106781186548,1.,0.707106781186548,1.,0.707106781186548,1.,      143P    179
-6.,7.34788079488412D-16,3.2,-6.,6.,3.2,3.67394039744206D-16,6.,     143P    180
3.2,6.,6.,3.2,6.,0.,3.2,6.,-6.,3.2,3.67394039744206D-16,-6.,3.2,     143P    181
-6.,-6.,3.2,-6.,-7.34788079488412D-16,3.2,-3.14159265358979,         143P    182
3.14159265358979,0.,0.,0.;                                           143P    183
126,1,1,0,0,1,0,-0.533333333333333,-0.533333333333333,               145P    184
9.16666666666667,9.16666666666667,1.,1.,-6.,0.,3.2,-6.,0.,-55.,      145P    185
-0.533333333333333,9.16666666666667,0.,0.,0.;                        145P    186
126,1,1,0,0,1,0,0.2,0.2,3.8,3.8,1.,1.,-18.,-10.,3.2,18.,-10.,        147P    187
3.2,0.2,3.8,0.,0.,0.;                                                147P    188
126,1,1,0,0,1,0,0.2,0.2,3.8,3.8,1.,1.,18.,10.,3.2,-18.,10.,3.2,      149P    189
0.2,3.8,0.,0.,0.;                                                    149P    190
128,1,2,1,2,0,0,0,0,0,0.,0.,1.6,1.6,-0.785398163397448,              151P    191
-0.785398163397448,-0.785398163397448,0.785398163397449,             151P    192
0.785398163397449,0.785398163397449,1.,1.,0.707106781186548,         151P    193
0.707106781186548,1.,1.,-20.,-8.,3.2,-20.,-8.,0.,-20.,-10.,3.2,      151P    194
-20.,-10.,0.,-18.,-10.,3.2,-18.,-10.,0.,0.,1.6,                      151P    195
-0.785398163397448,0.785398163397449;                                151P    196
128,1,1,1,1,0,0,1,0,0,-2.001,-2.001,2.001,2.001,-1.001,-1.001,       153P    197
1.001,1.001,1.,1.,1.,1.,20.01,-10.01,0.,-20.01,-10.01,0.,20.01,      153P    198
10.01,0.,-20.01,10.01,0.,-2.001,2.001,-1.001,1.001;                  153P    199
128,1,1,1,1,0,0,1,0,0,0.199,0.199,1.801,1.801,-0.001,-0.001,         155P    200
0.321,0.321,1.,1.,1.,1.,-20.,8.01,-0.01,-20.,-8.01,-0.01,-20.,       155P    201
8.01,3.21,-20.,-8.01,3.21,0.199,1.801,-0.001,0.321;                  155P    202
128,1,2,1,2,0,0,0,0,0,0.,0.,1.6,1.6,-0.785398163397449,              157P    203
-0.785398163397449,-0.785398163397449,0.785398163397448,             157P    204
0.785398163397448,0.785398163397448,1.,1.,0.707106781186548,         157P    205
0.707106781186548,1.,1.,-18.,10.,3.2,-18.,10.,0.,-20.,10.,3.2,       157P    206
-20.,10.,0.,-20.,8.,3.2,-20.,8.,0.,0.,1.6,-0.785398163397449,        157P    207
0.785398163397448;                                                   157P    208
128,1,2,1,2,0,0,0,0,0,0.,0.,1.6,1.6,-0.785398163397449,              159P    209
-0.785398163397449,-0.785398163397449,0.785398163397448,             159P    210
0.785398163397448,0.785398163397448,1.,1.,0.707106781186548,         159P    211
0.707106781186548,1.,1.,18.,-10.,3.2,18.,-10.,0.,20.,-10.,3.2,       159P    212
20.,-10.,0.,20.,-8.,3.2,20.,-8.,0.,0.,1.6,-0.785398163397449,        159P    213
0.785398163397448;                                                   159P    214
128,1,1,1,1,0,0,1,0,0,0.199,0.199,1.801,1.801,-0.001,-0.001,         161P    215
0.321,0.321,1.,1.,1.,1.,20.,-8.01,-0.01,20.,8.01,-0.01,20.,          161P    216
-8.01,3.21,20.,8.01,3.21,0.199,1.801,-0.001,0.321;                   161P    217
128,1,2,1,2,0,0,0,0,0,0.,0.,1.6,1.6,-0.785398163397448,              163P    218
-0.785398163397448,-0.785398163397448,0.785398163397449,             163P    219
0.785398163397449,0.785398163397449,1.,1.,0.707106781186548,         163P    220
0.707106781186548,1.,1.,20.,8.,3.2,20.,8.,0.,20.,10.,3.2,20.,        163P    221
10.,0.,18.,10.,3.2,18.,10.,0.,0.,1.6,-0.785398163397448,             163P    222
0.785398163397449;                                                   163P    223
128,1,8,1,2,0,1,0,0,1,0.,0.,5.97826086956522,5.97826086956522,       165P    224
-3.14159265358979,-3.14159265358979,-3.14159265358979,               165P    225
-1.5707963267949,-1.5707963267949,0.,0.,1.5707963267949,             165P    226
1.5707963267949,3.14159265358979,3.14159265358979,                   165P    227
3.14159265358979,1.,1.,0.707106781186548,0.707106781186548,1.,       165P    228
1.,0.707106781186548,0.707106781186548,1.,1.,0.707106781186548,      165P    229
0.707106781186548,1.,1.,0.707106781186548,0.707106781186548,1.,      165P    230
1.,-9.2,0.,-55.,-9.2,0.,0.,-9.2,9.2,-55.,-9.2,9.2,0.,0.,9.2,         165P    231
-55.,0.,9.2,0.,9.2,9.2,-55.,9.2,9.2,0.,9.2,0.,-55.,9.2,0.,0.,        165P    232
9.2,-9.2,-55.,9.2,-9.2,0.,0.,-9.2,-55.,0.,-9.2,0.,-9.2,-9.2,         165P    233
-55.,-9.2,-9.2,0.,-9.2,0.,-55.,-9.2,0.,0.,0.,5.97826086956522,       165P    234
-3.14159265358979,3.14159265358979;                                  165P    235
128,1,1,1,1,0,0,1,0,0,-0.921,-0.921,0.921,0.921,-0.921,-0.921,       167P    236
0.921,0.921,1.,1.,1.,1.,9.21,-9.21,-55.,-9.21,-9.21,-55.,9.21,       167P    237
9.21,-55.,-9.21,9.21,-55.,-0.921,0.921,-0.921,0.921;                 167P    238
128,1,8,1,2,0,1,0,0,1,0.,0.,1.82857142857143,1.82857142857143,       169P    239
-3.14159265358979,-3.14159265358979,-3.14159265358979,               169P    240
-1.5707963267949,-1.5707963267949,0.,0.,1.5707963267949,             169P    241
1.5707963267949,3.14159265358979,3.14159265358979,                   169P    242
3.14159265358979,1.,1.,0.707106781186548,0.707106781186548,1.,       169P    243
1.,0.707106781186548,0.707106781186548,1.,1.,0.707106781186548,      169P    244
0.707106781186548,1.,1.,0.707106781186548,0.707106781186548,1.,      169P    245
1.,-14.75,0.,0.,-14.75,0.,3.2,-14.75,-1.75,0.,-14.75,-1.75,3.2,      169P    246
-13.,-1.75,0.,-13.,-1.75,3.2,-11.25,-1.75,0.,-11.25,-1.75,3.2,       169P    247
-11.25,0.,0.,-11.25,0.,3.2,-11.25,1.75,0.,-11.25,1.75,3.2,-13.,      169P    248
1.75,0.,-13.,1.75,3.2,-14.75,1.75,0.,-14.75,1.75,3.2,-14.75,0.,      169P    249
0.,-14.75,0.,3.2,0.,1.82857142857143,-3.14159265358979,              169P    250
3.14159265358979;                                                    169P    251
128,1,8,1,2,0,1,0,0,1,0.,0.,1.82857142857143,1.82857142857143,       171P    252
-3.14159265358979,-3.14159265358979,-3.14159265358979,               171P    253
-1.5707963267949,-1.5707963267949,0.,0.,1.5707963267949,             171P    254
1.5707963267949,3.14159265358979,3.14159265358979,                   171P    255
3.14159265358979,1.,1.,0.707106781186548,0.707106781186548,1.,       171P    256
1.,0.707106781186548,0.707106781186548,1.,1.,0.707106781186548,      171P    257
0.707106781186548,1.,1.,0.707106781186548,0.707106781186548,1.,      171P    258
1.,11.25,0.,0.,11.25,0.,3.2,11.25,-1.75,0.,11.25,-1.75,3.2,13.,      171P    259
-1.75,0.,13.,-1.75,3.2,14.75,-1.75,0.,14.75,-1.75,3.2,14.75,0.,      171P    260
0.,14.75,0.,3.2,14.75,1.75,0.,14.75,1.75,3.2,13.,1.75,0.,13.,        171P    261
1.75,3.2,11.25,1.75,0.,11.25,1.75,3.2,11.25,0.,0.,11.25,0.,3.2,      171P    262
0.,1.82857142857143,-3.14159265358979,3.14159265358979;              171P    263
128,1,8,1,2,0,1,0,0,1,-9.16666666666667,-9.16666666666667,           173P    264
0.533333333333333,0.533333333333333,-3.14159265358979,               173P    265
-3.14159265358979,-3.14159265358979,-1.5707963267949,                173P    266
-1.5707963267949,0.,0.,1.5707963267949,1.5707963267949,              173P    267
3.14159265358979,3.14159265358979,3.14159265358979,1.,1.,            173P    268
0.707106781186548,0.707106781186548,1.,1.,0.707106781186548,         173P    269
0.707106781186548,1.,1.,0.707106781186548,0.707106781186548,1.,      173P    270
1.,0.707106781186548,0.707106781186548,1.,1.,-6.,0.,-55.,-6.,0.,     173P    271
3.2,-6.,-6.,-55.,-6.,-6.,3.2,0.,-6.,-55.,0.,-6.,3.2,6.,-6.,-55.,     173P    272
6.,-6.,3.2,6.,0.,-55.,6.,0.,3.2,6.,6.,-55.,6.,6.,3.2,0.,6.,-55.,     173P    273
0.,6.,3.2,-6.,6.,-55.,-6.,6.,3.2,-6.,0.,-55.,-6.,0.,3.2,             173P    274
-9.16666666666667,0.533333333333333,-3.14159265358979,               173P    275
3.14159265358979;                                                    173P    276
128,1,1,1,1,0,0,1,0,0,0.199,0.199,3.801,3.801,-0.001,-0.001,         175P    277
0.321,0.321,1.,1.,1.,1.,-18.01,-10.,-0.01,18.01,-10.,-0.01,          175P    278
-18.01,-10.,3.21,18.01,-10.,3.21,0.199,3.801,-0.001,0.321;           175P    279
128,1,1,1,1,0,0,1,0,0,0.199,0.199,3.801,3.801,-0.001,-0.001,         177P    280
0.321,0.321,1.,1.,1.,1.,18.01,10.,-0.01,-18.01,10.,-0.01,18.01,      177P    281
10.,3.21,-18.01,10.,3.21,0.199,3.801,-0.001,0.321;                   177P    282
128,1,1,1,1,0,0,1,0,0,-2.001,-2.001,2.001,2.001,-1.001,-1.001,       179P    283
1.001,1.001,1.,1.,1.,1.,-20.01,-10.01,3.2,20.01,-10.01,3.2,          179P    284
-20.01,10.01,3.2,20.01,10.01,3.2,-2.001,2.001,-1.001,1.001;          179P    285
502,24,-18.,-10.,3.2,-20.,-8.,3.2,-20.,-8.,0.,-18.,-10.,0.,-20.,     181P    286
8.,0.,-18.,10.,0.,18.,10.,0.,20.,8.,0.,20.,-8.,0.,18.,-10.,0.,       181P    287
-9.2,-1.12667505521557D-15,0.,11.25,-2.14313189850787D-16,0.,        181P    288
-14.75,-2.14313189850787D-16,0.,-20.,8.,3.2,-18.,10.,3.2,20.,        181P    289
-8.,3.2,18.,-10.,3.2,20.,8.,3.2,18.,10.,3.2,-9.2,                    181P    290
-1.12667505521557D-15,-55.,-6.,-7.34788079488412D-16,-55.,           181P    291
-14.75,-2.14313189850787D-16,3.2,11.25,-2.14313189850787D-16,        181P    292
3.2,-6.,-7.34788079488412D-16,3.2;                                   181P    293
504,36,79,181,1,181,2,81,181,2,181,3,83,181,3,181,4,85,181,4,        183P    294
181,1,87,181,5,181,3,89,181,6,181,5,91,181,7,181,6,93,181,8,181,     183P    295
7,95,181,9,181,8,97,181,10,181,9,99,181,4,181,10,101,181,11,181,     183P    296
11,103,181,12,181,12,105,181,13,181,13,107,181,14,181,2,109,181,     183P    297
5,181,14,111,181,14,181,15,113,181,15,181,6,115,181,16,181,17,       183P    298
117,181,17,181,10,119,181,9,181,16,121,181,18,181,8,123,181,16,      183P    299
181,18,125,181,19,181,18,127,181,7,181,19,129,181,20,181,20,131,     183P    300
181,20,181,11,133,181,21,181,21,135,181,22,181,22,137,181,22,        183P    301
181,13,139,181,23,181,23,141,181,23,181,12,143,181,24,181,24,        183P    302
145,181,24,181,21,147,181,1,181,17,149,181,19,181,15;                183P    303
406,1,7HSupport;                                                     185P    304
314,62.7450980392157,62.7450980392157,62.7450980392157,13HSteel      187P    305
- Satin;                                                             187P    306
S      1G      3D    188P    306                                        T      1
