                                                                        S      1
,,14Hqcx_rf_gain v5,12Hqcxrfgain v5,7Hunknown,7Hunknown,32,38,7,99,15,, G      1
1.,2,2HMM,1,0.08,15H20230101.152104,0.01,10000.,7Hunknown,7Hunknown,11, G      2
0,15H20211030.180537;                                                   G      3
     186       1                                                00000000D      1
     186             -75       1       0                               0D      2
     514       2                                                00010000D      3
     514                       1       1                               0D      4
     510       3                                                00010000D      5
     510             -75       1       1                               0D      6
     510       4                                                00010000D      7
     510             -75       1       1                               0D      8
     510       5                                                00010000D      9
     510             -75       1       1                               0D     10
     510       6                                                00010000D     11
     510             -75       1       1                               0D     12
     510       7                                                00010000D     13
     510             -75       1       1                               0D     14
     510       8                                                00010000D     15
     510             -75       1       1                               0D     16
     510       9                                                00010000D     17
     510             -75       1       1                               0D     18
     508      10                                                00010000D     19
     508                       1       1                               0D     20
     508      11                                                00010000D     21
     508                       1       1                               0D     22
     508      12                                                00010000D     23
     508                       1       1                               0D     24
     508      13                                                00010000D     25
     508                       1       1                               0D     26
     508      14                                                00010000D     27
     508                       1       1                               0D     28
     508      15                                                00010000D     29
     508                       1       1                               0D     30
     508      16                                                00010000D     31
     508                       1       1                               0D     32
     508      17                                                00010000D     33
     508                       1       1                               0D     34
     508      18                                                00010000D     35
     508                       1       1                               0D     36
     126      19                                                00010000D     37
     126       0              10       0                               0D     38
     126      29                                                00010000D     39
     126       0               3       0                               0D     40
     126      32                                                00010000D     41
     126       0              10       0                               0D     42
     126      42                                                00010000D     43
     126       0               9       0                               0D     44
     126      51                                                00010000D     45
     126       0               9       0                               0D     46
     126      60                                                00010000D     47
     126       0               9       0                               0D     48
     126      69                                                00010000D     49
     126       0               2       0                               0D     50
     126      71                                                00010000D     51
     126       0               9       0                               0D     52
     126      80                                                00010000D     53
     126       0               2       0                               0D     54
     128      82                                                00010000D     55
     128       0     -75      14       0                               0D     56
     128      96                                                00010000D     57
     128       0     -75       3       0                               0D     58
     128      99                                                00010000D     59
     128       0     -75       3       0                               0D     60
     128     102                                                00010000D     61
     128       0     -75      11       0                               0D     62
     128     113                                                00010000D     63
     128       0     -75       3       0                               0D     64
     128     116                                                00010000D     65
     128       0     -75      11       0                               0D     66
     128     127                                                00010000D     67
     128       0     -75       3       0                               0D     68
     502     130                                                00010000D     69
     502                       4       1                               0D     70
     504     134                                                00010001D     71
     504                       2       1                               0D     72
     406     136                                                00000000D     73
     406                       1      15                               0D     74
     314     137                                                00000200D     75
     314                       2       0                               0D     76
186,3,1,0,0,1,73;                                                      1P      1
514,7,5,1,7,1,9,1,11,1,13,1,15,1,17,1;                                 3P      2
510,55,1,1,19;                                                         5P      3
510,57,1,1,21;                                                         7P      4
510,59,2,1,23,25;                                                      9P      5
510,61,1,1,27;                                                        11P      6
510,63,2,1,29,31;                                                     13P      7
510,65,1,1,33;                                                        15P      8
510,67,1,1,35;                                                        17P      9
508,4,0,71,1,0,0,0,71,2,1,0,0,71,3,1,0,0,71,2,0,0;                    19P     10
508,1,0,71,3,0,0;                                                     21P     11
508,1,0,71,4,1,0;                                                     23P     12
508,1,0,71,5,0,0;                                                     25P     13
508,4,0,71,6,0,0,0,71,7,1,0,0,71,4,0,0,0,71,7,0,0;                    27P     14
508,1,0,71,6,1,0;                                                     29P     15
508,1,0,71,1,1,0;                                                     31P     16
508,4,0,71,8,0,0,0,71,9,1,0,0,71,5,1,0,0,71,9,0,0;                    33P     17
508,1,0,71,8,1,0;                                                     35P     18
126,8,2,0,1,0,0,-3.14159265358979,-3.14159265358979,                  37P     19
-3.14159265358979,-1.5707963267949,-1.5707963267949,0.,0.,            37P     20
1.5707963267949,1.5707963267949,3.14159265358979,                     37P     21
3.14159265358979,3.14159265358979,1.,0.707106781186548,1.,            37P     22
0.707106781186548,1.,0.707106781186548,1.,0.707106781186548,1.,       37P     23
-3.25,-3.9801020972289D-16,-13.,-3.25,-3.25,-13.,                     37P     24
1.99005104861445D-16,-3.25,-13.,3.25,-3.25,-13.,3.25,0.,-13.,         37P     25
3.25,3.25,-13.,1.99005104861445D-16,3.25,-13.,-3.25,3.25,-13.,        37P     26
-3.25,3.9801020972289D-16,-13.,-3.14159265358979,                     37P     27
3.14159265358979,0.,0.,0.;                                            37P     28
126,1,1,0,0,1,0,0.615384615384615,0.615384615384615,                  39P     29
3.38461538461538,3.38461538461538,1.,1.,-3.25,0.,-13.,-3.25,0.,       39P     30
-4.,0.615384615384615,3.38461538461538,0.,0.,0.;                      39P     31
126,8,2,0,1,0,0,-3.14159265358979,-3.14159265358979,                  41P     32
-3.14159265358979,-1.5707963267949,-1.5707963267949,0.,0.,            41P     33
1.5707963267949,1.5707963267949,3.14159265358979,                     41P     34
3.14159265358979,3.14159265358979,1.,0.707106781186548,1.,            41P     35
0.707106781186548,1.,0.707106781186548,1.,0.707106781186548,1.,       41P     36
-3.25,-3.9801020972289D-16,-4.,-3.25,-3.25,-4.,                       41P     37
1.99005104861445D-16,-3.25,-4.,3.25,-3.25,-4.,3.25,0.,-4.,3.25,       41P     38
3.25,-4.,1.99005104861445D-16,3.25,-4.,-3.25,3.25,-4.,-3.25,          41P     39
3.9801020972289D-16,-4.,-3.14159265358979,3.14159265358979,0.,        41P     40
0.,0.;                                                                41P     41
126,8,2,0,1,0,0,-3.14159265358979,-3.14159265358979,                  43P     42
-3.14159265358979,-1.5707963267949,-1.5707963267949,0.,0.,            43P     43
1.5707963267949,1.5707963267949,3.14159265358979,                     43P     44
3.14159265358979,3.14159265358979,1.,0.707106781186548,1.,            43P     45
0.707106781186548,1.,0.707106781186548,1.,0.707106781186548,1.,       43P     46
-5.,-6.12323399573677D-16,0.,-5.,-5.,0.,3.06161699786838D-16,         43P     47
-5.,0.,5.,-5.,0.,5.,0.,0.,5.,5.,0.,3.06161699786838D-16,5.,0.,        43P     48
-5.,5.,0.,-5.,6.12323399573677D-16,0.,-3.14159265358979,              43P     49
3.14159265358979,0.,0.,0.;                                            43P     50
126,8,2,0,1,0,0,-3.14159265358979,-3.14159265358979,                  45P     51
-3.14159265358979,-1.5707963267949,-1.5707963267949,0.,0.,            45P     52
1.5707963267949,1.5707963267949,3.14159265358979,                     45P     53
3.14159265358979,3.14159265358979,1.,0.707106781186548,1.,            45P     54
0.707106781186548,1.,0.707106781186548,1.,0.707106781186548,1.,       45P     55
-3.,-3.67394039744206D-16,0.,-3.,-3.,0.,1.83697019872103D-16,         45P     56
-3.,0.,3.,-3.,0.,3.,0.,0.,3.,3.,0.,1.83697019872103D-16,3.,0.,        45P     57
-3.,3.,0.,-3.,3.67394039744206D-16,0.,-3.14159265358979,              45P     58
3.14159265358979,0.,0.,0.;                                            45P     59
126,8,2,0,1,0,0,-3.14159265358979,-3.14159265358979,                  47P     60
-3.14159265358979,-1.5707963267949,-1.5707963267949,0.,0.,            47P     61
1.5707963267949,1.5707963267949,3.14159265358979,                     47P     62
3.14159265358979,3.14159265358979,1.,0.707106781186548,1.,            47P     63
0.707106781186548,1.,0.707106781186548,1.,0.707106781186548,1.,       47P     64
-5.,6.12323399573677D-16,-13.,-5.,5.,-13.,3.06161699786838D-16,       47P     65
5.,-13.,5.,5.,-13.,5.,0.,-13.,5.,-5.,-13.,3.06161699786838D-16,       47P     66
-5.,-13.,-5.,-5.,-13.,-5.,-6.12323399573677D-16,-13.,                 47P     67
-3.14159265358979,3.14159265358979,0.,0.,0.;                          47P     68
126,1,1,0,0,1,0,-2.6,-2.6,0.,0.,1.,1.,-5.,0.,-13.,-5.,0.,0.,          49P     69
-2.6,0.,0.,0.,0.;                                                     49P     70
126,8,2,0,1,0,0,-3.14159265358979,-3.14159265358979,                  51P     71
-3.14159265358979,-1.5707963267949,-1.5707963267949,0.,0.,            51P     72
1.5707963267949,1.5707963267949,3.14159265358979,                     51P     73
3.14159265358979,3.14159265358979,1.,0.707106781186548,1.,            51P     74
0.707106781186548,1.,0.707106781186548,1.,0.707106781186548,1.,       51P     75
-3.,-3.67394039744206D-16,11.,-3.,-3.,11.,1.83697019872103D-16,       51P     76
-3.,11.,3.,-3.,11.,3.,0.,11.,3.,3.,11.,1.83697019872103D-16,3.,       51P     77
11.,-3.,3.,11.,-3.,3.67394039744206D-16,11.,-3.14159265358979,        51P     78
3.14159265358979,0.,0.,0.;                                            51P     79
126,1,1,0,0,1,0,-3.66666666666667,-3.66666666666667,0.,0.,1.,1.,      53P     80
-3.,0.,11.,-3.,0.,0.,-3.66666666666667,0.,0.,0.,0.;                   53P     81
128,1,8,1,2,0,1,0,0,1,0.615384615384615,0.615384615384615,            55P     82
3.38461538461538,3.38461538461538,-3.14159265358979,                  55P     83
-3.14159265358979,-3.14159265358979,-1.5707963267949,                 55P     84
-1.5707963267949,0.,0.,1.5707963267949,1.5707963267949,               55P     85
3.14159265358979,3.14159265358979,3.14159265358979,1.,1.,             55P     86
0.707106781186548,0.707106781186548,1.,1.,0.707106781186548,          55P     87
0.707106781186548,1.,1.,0.707106781186548,0.707106781186548,1.,       55P     88
1.,0.707106781186548,0.707106781186548,1.,1.,-3.25,0.,-13.,           55P     89
-3.25,0.,-4.,-3.25,-3.25,-13.,-3.25,-3.25,-4.,0.,-3.25,-13.,0.,       55P     90
-3.25,-4.,3.25,-3.25,-13.,3.25,-3.25,-4.,3.25,0.,-13.,3.25,0.,        55P     91
-4.,3.25,3.25,-13.,3.25,3.25,-4.,0.,3.25,-13.,0.,3.25,-4.,-3.25,      55P     92
3.25,-13.,-3.25,3.25,-4.,-3.25,0.,-13.,-3.25,0.,-4.,                  55P     93
0.615384615384615,3.38461538461538,-3.14159265358979,                 55P     94
3.14159265358979;                                                     55P     95
128,1,1,1,1,0,0,1,0,0,-0.326,-0.326,0.326,0.326,-0.326,-0.326,        57P     96
0.326,0.326,1.,1.,1.,1.,3.26,-3.26,-4.,-3.26,-3.26,-4.,3.26,          57P     97
3.26,-4.,-3.26,3.26,-4.,-0.326,0.326,-0.326,0.326;                    57P     98
128,1,1,1,1,0,0,1,0,0,-0.501,-0.501,0.501,0.501,-0.501,-0.501,        59P     99
0.501,0.501,1.,1.,1.,1.,-5.01,-5.01,0.,5.01,-5.01,0.,-5.01,5.01,      59P    100
0.,5.01,5.01,0.,-0.501,0.501,-0.501,0.501;                            59P    101
128,1,8,1,2,0,1,0,0,1,0.,0.,2.6,2.6,-3.14159265358979,                61P    102
-3.14159265358979,-3.14159265358979,-1.5707963267949,                 61P    103
-1.5707963267949,0.,0.,1.5707963267949,1.5707963267949,               61P    104
3.14159265358979,3.14159265358979,3.14159265358979,1.,1.,             61P    105
0.707106781186548,0.707106781186548,1.,1.,0.707106781186548,          61P    106
0.707106781186548,1.,1.,0.707106781186548,0.707106781186548,1.,       61P    107
1.,0.707106781186548,0.707106781186548,1.,1.,-5.,0.,-13.,-5.,0.,      61P    108
0.,-5.,5.,-13.,-5.,5.,0.,0.,5.,-13.,0.,5.,0.,5.,5.,-13.,5.,5.,        61P    109
0.,5.,0.,-13.,5.,0.,0.,5.,-5.,-13.,5.,-5.,0.,0.,-5.,-13.,0.,-5.,      61P    110
0.,-5.,-5.,-13.,-5.,-5.,0.,-5.,0.,-13.,-5.,0.,0.,0.,2.6,              61P    111
-3.14159265358979,3.14159265358979;                                   61P    112
128,1,1,1,1,0,0,1,0,0,-0.501,-0.501,0.501,0.501,-0.501,-0.501,        63P    113
0.501,0.501,1.,1.,1.,1.,5.01,-5.01,-13.,-5.01,-5.01,-13.,5.01,        63P    114
5.01,-13.,-5.01,5.01,-13.,-0.501,0.501,-0.501,0.501;                  63P    115
128,1,8,1,2,0,1,0,0,1,0.,0.,3.66666666666667,3.66666666666667,        65P    116
-3.14159265358979,-3.14159265358979,-3.14159265358979,                65P    117
-1.5707963267949,-1.5707963267949,0.,0.,1.5707963267949,              65P    118
1.5707963267949,3.14159265358979,3.14159265358979,                    65P    119
3.14159265358979,1.,1.,0.707106781186548,0.707106781186548,1.,        65P    120
1.,0.707106781186548,0.707106781186548,1.,1.,0.707106781186548,       65P    121
0.707106781186548,1.,1.,0.707106781186548,0.707106781186548,1.,       65P    122
1.,-3.,0.,11.,-3.,0.,0.,-3.,-3.,11.,-3.,-3.,0.,0.,-3.,11.,0.,         65P    123
-3.,0.,3.,-3.,11.,3.,-3.,0.,3.,0.,11.,3.,0.,0.,3.,3.,11.,3.,3.,       65P    124
0.,0.,3.,11.,0.,3.,0.,-3.,3.,11.,-3.,3.,0.,-3.,0.,11.,-3.,0.,0.,      65P    125
0.,3.66666666666667,-3.14159265358979,3.14159265358979;               65P    126
128,1,1,1,1,0,0,1,0,0,-0.301,-0.301,0.301,0.301,-0.301,-0.301,        67P    127
0.301,0.301,1.,1.,1.,1.,-3.01,-3.01,11.,3.01,-3.01,11.,-3.01,         67P    128
3.01,11.,3.01,3.01,11.,-0.301,0.301,-0.301,0.301;                     67P    129
502,6,-3.25,-3.9801020972289D-16,-13.,-3.25,                          69P    130
-3.9801020972289D-16,-4.,-5.,-6.12323399573677D-16,0.,-3.,            69P    131
-3.67394039744206D-16,0.,-5.,-6.12323399573677D-16,-13.,-3.,          69P    132
-3.67394039744206D-16,11.;                                            69P    133
504,9,37,69,1,69,1,39,69,1,69,2,41,69,2,69,2,43,69,3,69,3,45,69,      71P    134
4,69,4,47,69,5,69,5,49,69,5,69,3,51,69,6,69,6,53,69,6,69,4;           71P    135
406,1,5HBody1;                                                        73P    136
314,62.7450980392157,62.7450980392157,62.7450980392157,13HSteel       75P    137
- Satin;                                                              75P    138
S      1G      3D     76P    138                                        T      1
